M48
; DRILL file {KiCad 7.0.11+dfsg-1build4} date Fri Jul 10 19:42:34 2026
; FORMAT={-:-/ absolute / metric / decimal}
; #@! TF.CreationDate,2026-07-10T19:42:34+00:00
; #@! TF.GenerationSoftware,Kicad,Pcbnew,7.0.11+dfsg-1build4
; #@! TF.FileFunction,Plated,1,4,PTH
FMAT,2
METRIC
; #@! TA.AperFunction,Plated,PTH,ViaDrill
T1C0.200
; #@! TA.AperFunction,Plated,PTH,ComponentDrill
T2C0.200
; #@! TA.AperFunction,Plated,PTH,ComponentDrill
T3C0.300
; #@! TA.AperFunction,Plated,PTH,ComponentDrill
T4C0.600
; #@! TA.AperFunction,Plated,PTH,ComponentDrill
T5C0.750
; #@! TA.AperFunction,Plated,PTH,ComponentDrill
T6C0.950
; #@! TA.AperFunction,Plated,PTH,ComponentDrill
T7C1.000
; #@! TA.AperFunction,Plated,PTH,ComponentDrill
T8C1.300
; #@! TA.AperFunction,Plated,PTH,ComponentDrill
T9C2.700
%
G90
G05
T1
X3.874Y-32.0
X3.899Y-17.0
X3.903Y-50.444
X6.44Y-49.197
X9.78Y-53.657
X10.054Y-63.108
X10.124Y-17.0
X12.505Y-63.317
X13.788Y-30.444
X13.897Y-53.656
X15.197Y-61.055
X16.05Y-20.085
X17.647Y-63.123
X17.886Y-31.836
X17.902Y-59.755
X18.509Y-52.076
X19.261Y-51.156
X19.73Y-70.439
X20.456Y-53.006
X21.479Y-72.305
X21.622Y-30.715
X21.688Y-52.413
X21.726Y-48.182
X21.841Y-67.055
X22.159Y-50.575
X22.715Y-53.327
X22.719Y-57.75
X22.742Y-68.479
X23.511Y-69.086
X23.656Y-34.922
X24.107Y-16.099
X24.658Y-43.53
X25.093Y-43.105
X25.33Y-73.154
X25.552Y-54.71
X25.88Y-70.655
X25.937Y-45.477
X26.006Y-63.408
X26.148Y-53.759
X26.434Y-60.425
X26.482Y-45.041
X26.953Y-41.305
X26.98Y-51.946
X27.143Y-57.436
X27.222Y-58.052
X27.294Y-64.166
X27.587Y-53.093
X27.794Y-32.132
X28.035Y-60.288
X28.057Y-42.896
X28.165Y-49.555
X28.365Y-31.194
X28.365Y-33.011
X28.375Y-35.275
X28.377Y-30.075
X28.653Y-26.824
X28.944Y-55.241
X29.583Y-26.293
X29.75Y-51.951
X29.75Y-58.049
X29.841Y-60.743
X30.25Y-60.282
X30.359Y-26.242
X30.802Y-40.717
X30.808Y-49.714
X31.53Y-59.557
X33.881Y-52.92
X34.101Y-64.12
X34.246Y-51.923
X34.816Y-72.196
X36.387Y-59.455
X36.411Y-27.519
X36.592Y-17.069
X36.609Y-48.456
X36.957Y-25.405
X37.055Y-63.105
X37.228Y-58.403
X37.625Y-33.757
X37.628Y-33.126
X37.629Y-36.575
X37.999Y-31.93
X38.399Y-45.071
X38.47Y-29.652
X38.896Y-52.907
X38.913Y-53.759
X39.198Y-29.98
X39.754Y-60.397
X40.089Y-24.275
X40.458Y-35.279
X40.692Y-35.925
X40.954Y-32.025
X41.127Y-34.261
X41.239Y-32.615
X41.378Y-30.725
X41.772Y-40.186
X41.894Y-26.884
X42.088Y-55.725
X42.484Y-51.771
X42.726Y-40.785
X43.0Y-75.609
X43.063Y-52.535
X43.072Y-55.234
X43.635Y-66.518
X43.823Y-51.547
X44.117Y-49.519
X44.119Y-45.851
X44.213Y-42.164
X44.351Y-56.924
X44.364Y-24.266
X44.399Y-47.365
X44.54Y-65.977
X45.506Y-42.154
X46.004Y-59.859
X46.076Y-54.285
X46.398Y-53.761
X46.518Y-24.834
X47.225Y-18.975
X47.305Y-26.349
X47.65Y-61.788
X48.097Y-55.935
X48.268Y-25.204
X48.642Y-61.174
X48.902Y-48.777
X50.635Y-29.379
X50.704Y-56.242
X50.743Y-32.025
X50.858Y-34.818
X50.858Y-35.925
X50.966Y-33.325
X51.058Y-59.737
X51.075Y-31.281
X51.24Y-37.129
X51.319Y-58.819
X51.372Y-29.135
X51.438Y-40.259
X52.365Y-26.14
X52.537Y-27.448
X52.568Y-24.575
X52.806Y-35.572
X53.158Y-33.521
X53.29Y-65.31
X53.428Y-35.953
X53.83Y-33.453
X55.081Y-27.659
X56.051Y-26.142
X56.065Y-66.201
X56.507Y-59.626
X56.551Y-17.883
X56.588Y-62.674
X56.864Y-55.38
X56.895Y-61.634
X56.962Y-75.401
X57.068Y-40.93
X57.201Y-57.45
X57.208Y-70.603
X58.46Y-48.807
X59.33Y-13.664
X60.158Y-15.32
X60.606Y-16.018
X60.716Y-17.0
X60.922Y-14.435
X60.954Y-43.732
X62.208Y-19.682
X63.169Y-45.359
X64.458Y-49.964
X64.46Y-30.553
X64.918Y-52.263
X65.723Y-18.96
X65.919Y-51.678
X66.94Y-48.415
X67.745Y-72.18
X68.915Y-25.03
X70.912Y-18.706
X71.139Y-73.47
X71.177Y-46.942
X71.73Y-51.954
X71.942Y-71.097
X72.525Y-39.274
X72.527Y-19.632
X73.701Y-60.75
X73.994Y-58.942
X74.153Y-69.01
X74.222Y-57.033
X75.016Y-47.61
X75.392Y-47.089
X76.225Y-33.653
X76.242Y-43.562
X76.413Y-66.403
X76.535Y-42.324
X76.878Y-40.716
X76.923Y-68.873
X77.099Y-67.1
X77.225Y-37.148
X77.471Y-18.683
X77.706Y-57.161
X77.708Y-63.268
X77.756Y-74.72
X77.93Y-35.679
X78.04Y-70.641
X78.059Y-57.923
X79.442Y-56.055
X79.999Y-14.446
X80.03Y-39.499
X80.715Y-51.165
X80.825Y-58.37
X81.405Y-19.454
X82.17Y-65.626
X82.587Y-57.172
X82.749Y-39.952
X83.216Y-67.365
X83.241Y-47.819
X83.485Y-58.358
X83.909Y-73.45
X85.399Y-21.0
X85.446Y-27.452
X85.697Y-19.164
X86.369Y-65.456
X87.016Y-19.909
X87.175Y-58.367
X87.38Y-19.172
X87.625Y-60.635
X87.797Y-37.585
X88.708Y-46.167
X89.152Y-30.5
X89.186Y-64.725
X89.842Y-49.535
X89.909Y-56.0
X90.309Y-26.509
X90.861Y-28.445
X91.234Y-77.485
X91.556Y-52.781
X91.608Y-68.54
X91.616Y-65.83
X91.622Y-64.384
X91.825Y-28.27
X93.319Y-38.556
X93.55Y-24.145
X93.889Y-66.927
X93.948Y-69.64
X94.277Y-53.899
X94.559Y-22.5
X95.875Y-36.156
T2
X84.1Y-68.84
X84.1Y-70.24
X84.8Y-68.14
X84.8Y-69.54
X84.8Y-70.94
X85.5Y-68.84
X85.5Y-70.24
X86.2Y-68.14
X86.2Y-69.54
X86.2Y-70.94
X86.9Y-68.84
X86.9Y-70.24
T3
X30.75Y-27.8
X30.75Y-29.1
X30.75Y-30.4
X30.75Y-31.7
X30.75Y-33.0
X30.75Y-34.3
X30.75Y-35.6
X30.75Y-36.9
X30.75Y-38.2
X32.25Y-27.8
X32.25Y-29.1
X32.25Y-30.4
X32.25Y-31.7
X32.25Y-33.0
X32.25Y-34.3
X32.25Y-35.6
X32.25Y-36.9
X32.25Y-38.2
X33.75Y-27.8
X33.75Y-29.1
X33.75Y-30.4
X33.75Y-31.7
X33.75Y-33.0
X33.75Y-34.3
X33.75Y-35.6
X33.75Y-36.9
X33.75Y-38.2
X35.25Y-27.8
X35.25Y-29.1
X35.25Y-30.4
X35.25Y-31.7
X35.25Y-33.0
X35.25Y-34.3
X35.25Y-35.6
X35.25Y-36.9
X35.25Y-38.2
X43.75Y-27.8
X43.75Y-29.1
X43.75Y-30.4
X43.75Y-31.7
X43.75Y-33.0
X43.75Y-34.3
X43.75Y-35.6
X43.75Y-36.9
X43.75Y-38.2
X45.25Y-27.8
X45.25Y-29.1
X45.25Y-30.4
X45.25Y-31.7
X45.25Y-33.0
X45.25Y-34.3
X45.25Y-35.6
X45.25Y-36.9
X45.25Y-38.2
X46.75Y-27.8
X46.75Y-29.1
X46.75Y-30.4
X46.75Y-31.7
X46.75Y-33.0
X46.75Y-34.3
X46.75Y-35.6
X46.75Y-36.9
X46.75Y-38.2
X48.25Y-27.8
X48.25Y-29.1
X48.25Y-30.4
X48.25Y-31.7
X48.25Y-33.0
X48.25Y-34.3
X48.25Y-35.6
X48.25Y-36.9
X48.25Y-38.2
X91.35Y-33.55
X91.35Y-34.85
X91.35Y-36.15
X91.35Y-37.45
X92.65Y-33.55
X92.65Y-34.85
X92.65Y-36.15
X92.65Y-37.45
T5
X40.0Y-70.0
X42.0Y-70.0
X44.0Y-70.0
X46.0Y-70.0
X48.0Y-70.0
X50.0Y-70.0
X52.0Y-70.0
X54.0Y-70.0
T6
X70.0Y-6.0
X72.5Y-6.0
X75.0Y-6.0
X77.5Y-6.0
X80.0Y-6.0
X86.5Y-6.0
X89.0Y-6.0
X91.5Y-6.0
X94.0Y-6.0
X96.5Y-6.0
T7
X14.0Y-76.5
X16.54Y-76.5
X19.08Y-76.5
X21.62Y-76.5
X24.16Y-76.5
X26.7Y-76.5
X29.24Y-76.5
X30.0Y-62.0
X30.0Y-64.54
X30.0Y-67.08
X30.0Y-69.62
X30.0Y-72.16
X31.78Y-76.5
X32.54Y-62.0
X32.54Y-64.54
X32.54Y-67.08
X32.54Y-69.62
X32.54Y-72.16
X34.32Y-76.5
X36.86Y-76.5
X60.0Y-48.0
X60.0Y-50.54
X60.0Y-53.08
X97.0Y-14.0
X97.0Y-16.54
X97.0Y-19.08
T8
X8.0Y-4.0
X13.08Y-4.0
X22.0Y-4.0
X27.08Y-4.0
X36.0Y-4.0
X41.08Y-4.0
T9
X58.0Y-5.0
X63.0Y-5.0
T4
X93.32Y-47.68G85X94.42Y-47.68
G05
X93.32Y-56.32G85X94.42Y-56.32
G05
X97.75Y-47.68G85X98.35Y-47.68
G05
X97.75Y-56.32G85X98.35Y-56.32
G05
M30
