%TF.GenerationSoftware,KiCad,Pcbnew,7.0.11+dfsg-1build4*%
%TF.CreationDate,2026-07-08T08:34:58+00:00*%
%TF.ProjectId,main-board,6d61696e-2d62-46f6-9172-642e6b696361,rev?*%
%TF.SameCoordinates,Original*%
%TF.FileFunction,Drillmap*%
%TF.FilePolarity,Positive*%
%FSLAX45Y45*%
G04 Gerber Fmt 4.5, Leading zero omitted, Abs format (unit mm)*
G04 Created by KiCad (PCBNEW 7.0.11+dfsg-1build4) date 2026-07-08 08:34:58*
%MOMM*%
%LPD*%
G01*
G04 APERTURE LIST*
%ADD10C,0.150000*%
%ADD11C,0.200000*%
%ADD12C,0.100000*%
%ADD13C,0.130000*%
%ADD14C,0.270000*%
G04 APERTURE END LIST*
D10*
X10000000Y0D02*
X10000000Y-8000000D01*
X0Y-8000000D02*
X0Y0D01*
X0Y0D02*
X10000000Y0D01*
X10000000Y-8000000D02*
X0Y-8000000D01*
D11*
D12*
X339300Y-5035700D02*
X359300Y-5055700D01*
X359300Y-5035700D02*
X339300Y-5055700D01*
X378200Y-3190000D02*
X398200Y-3210000D01*
X398200Y-3190000D02*
X378200Y-3210000D01*
X791100Y-4919200D02*
X811100Y-4939200D01*
X811100Y-4919200D02*
X791100Y-4939200D01*
X836700Y-1640100D02*
X856700Y-1660100D01*
X856700Y-1640100D02*
X836700Y-1660100D01*
X1067500Y-5840200D02*
X1087500Y-5860200D01*
X1087500Y-5840200D02*
X1067500Y-5860200D01*
X1181400Y-2882200D02*
X1201400Y-2902200D01*
X1201400Y-2882200D02*
X1181400Y-2902200D01*
X1183800Y-1997800D02*
X1203800Y-2017800D01*
X1203800Y-1997800D02*
X1183800Y-2017800D01*
X1240400Y-6346000D02*
X1260400Y-6366000D01*
X1260400Y-6346000D02*
X1240400Y-6366000D01*
X1405300Y-6352100D02*
X1425300Y-6372100D01*
X1425300Y-6352100D02*
X1405300Y-6372100D01*
X1450400Y-5265200D02*
X1470400Y-5285200D01*
X1470400Y-5265200D02*
X1450400Y-5285200D01*
X1533100Y-4505900D02*
X1553100Y-4525900D01*
X1553100Y-4505900D02*
X1533100Y-4525900D01*
X1771700Y-6329300D02*
X1791700Y-6349300D01*
X1791700Y-6329300D02*
X1771700Y-6349300D01*
X1771800Y-2897800D02*
X1791800Y-2917800D01*
X1791800Y-2897800D02*
X1771800Y-2917800D01*
X1811000Y-5015200D02*
X1831000Y-5035200D01*
X1831000Y-5015200D02*
X1811000Y-5035200D01*
X1892100Y-7049600D02*
X1912100Y-7069600D01*
X1912100Y-7049600D02*
X1892100Y-7069600D01*
X1897300Y-6190200D02*
X1917300Y-6210200D01*
X1917300Y-6190200D02*
X1897300Y-6210200D01*
X1914400Y-7220500D02*
X1934400Y-7240500D01*
X1934400Y-7220500D02*
X1914400Y-7240500D01*
X2129000Y-4541700D02*
X2149000Y-4561700D01*
X2149000Y-4541700D02*
X2129000Y-4561700D01*
X2227300Y-7128800D02*
X2247300Y-7148800D01*
X2247300Y-7128800D02*
X2227300Y-7148800D01*
X2251500Y-6845500D02*
X2271500Y-6865500D01*
X2271500Y-6845500D02*
X2251500Y-6865500D01*
X2260200Y-5225000D02*
X2280200Y-5245000D01*
X2280200Y-5225000D02*
X2260200Y-5245000D01*
X2262000Y-5315000D02*
X2282000Y-5335000D01*
X2282000Y-5315000D02*
X2262000Y-5335000D01*
X2397700Y-5104600D02*
X2417700Y-5124600D01*
X2417700Y-5104600D02*
X2397700Y-5124600D01*
X2404000Y-6885500D02*
X2424000Y-6905500D01*
X2424000Y-6885500D02*
X2404000Y-6905500D01*
X2481600Y-6773200D02*
X2501600Y-6793200D01*
X2501600Y-6773200D02*
X2481600Y-6793200D01*
X2485900Y-5412600D02*
X2505900Y-5432600D01*
X2505900Y-5412600D02*
X2485900Y-5432600D01*
X2514500Y-5185800D02*
X2534500Y-5205800D01*
X2534500Y-5185800D02*
X2514500Y-5205800D01*
X2578500Y-6885500D02*
X2598500Y-6905500D01*
X2598500Y-6885500D02*
X2578500Y-6905500D01*
X2580300Y-5379800D02*
X2600300Y-5399800D01*
X2600300Y-5379800D02*
X2580300Y-5399800D01*
X2583100Y-5744500D02*
X2603100Y-5764500D01*
X2603100Y-5744500D02*
X2583100Y-5764500D01*
X2584000Y-4603700D02*
X2604000Y-4623700D01*
X2604000Y-4603700D02*
X2584000Y-4623700D01*
X2585000Y-2880600D02*
X2605000Y-2900600D01*
X2605000Y-2880600D02*
X2585000Y-2900600D01*
X2586200Y-3655600D02*
X2606200Y-3675600D01*
X2606200Y-3655600D02*
X2586200Y-3675600D01*
X2624500Y-5185900D02*
X2644500Y-5205900D01*
X2644500Y-5185900D02*
X2624500Y-5205900D01*
X2626400Y-4956300D02*
X2646400Y-4976300D01*
X2646400Y-4956300D02*
X2626400Y-4976300D01*
X2660000Y-4235600D02*
X2680000Y-4255600D01*
X2680000Y-4235600D02*
X2660000Y-4255600D01*
X2685200Y-4120500D02*
X2705200Y-4140500D01*
X2705200Y-4120500D02*
X2685200Y-4140500D01*
X2712900Y-5286000D02*
X2732900Y-5306000D01*
X2732900Y-5286000D02*
X2712900Y-5306000D01*
X2715000Y-5793700D02*
X2735000Y-5813700D01*
X2735000Y-5793700D02*
X2715000Y-5813700D01*
X2715500Y-6407300D02*
X2735500Y-6427300D01*
X2735500Y-6407300D02*
X2715500Y-6427300D01*
X2715700Y-5184600D02*
X2735700Y-5204600D01*
X2735700Y-5184600D02*
X2715700Y-5204600D01*
X2755400Y-5370200D02*
X2775400Y-5390200D01*
X2775400Y-5370200D02*
X2755400Y-5390200D01*
X2765000Y-6018500D02*
X2785000Y-6038500D01*
X2785000Y-6018500D02*
X2765000Y-6038500D01*
X2768600Y-1796100D02*
X2788600Y-1816100D01*
X2788600Y-1796100D02*
X2768600Y-1816100D01*
X2811500Y-3375600D02*
X2831500Y-3395600D01*
X2831500Y-3375600D02*
X2811500Y-3395600D01*
X2818800Y-3193600D02*
X2838800Y-3213600D01*
X2838800Y-3193600D02*
X2818800Y-3213600D01*
X2823200Y-2912900D02*
X2843200Y-2932900D01*
X2843200Y-2912900D02*
X2823200Y-2932900D01*
X2825900Y-3517500D02*
X2845900Y-3537500D01*
X2845900Y-3517500D02*
X2825900Y-3537500D01*
X2826500Y-3446500D02*
X2846500Y-3466500D01*
X2846500Y-3446500D02*
X2826500Y-3466500D01*
X2827200Y-3102500D02*
X2847200Y-3122500D01*
X2847200Y-3102500D02*
X2827200Y-3122500D01*
X2827700Y-3011000D02*
X2847700Y-3031000D01*
X2847700Y-3011000D02*
X2827700Y-3031000D01*
X2838100Y-5209300D02*
X2858100Y-5229300D01*
X2858100Y-5209300D02*
X2838100Y-5229300D01*
X2840900Y-4296100D02*
X2860900Y-4316100D01*
X2860900Y-4296100D02*
X2840900Y-4316100D01*
X2859300Y-4452400D02*
X2879300Y-4472400D01*
X2879300Y-4452400D02*
X2859300Y-4472400D01*
X2944600Y-5239400D02*
X2964600Y-5259400D01*
X2964600Y-5239400D02*
X2944600Y-5259400D01*
X2970100Y-6017600D02*
X2990100Y-6037600D01*
X2990100Y-6017600D02*
X2970100Y-6037600D01*
X3093700Y-5303000D02*
X3113700Y-5323000D01*
X3113700Y-5303000D02*
X3093700Y-5323000D01*
X3124100Y-2439500D02*
X3144100Y-2459500D01*
X3144100Y-2439500D02*
X3124100Y-2459500D01*
X3178500Y-1690000D02*
X3198500Y-1710000D01*
X3198500Y-1690000D02*
X3178500Y-1710000D01*
X3205600Y-2651500D02*
X3225600Y-2671500D01*
X3225600Y-2651500D02*
X3205600Y-2671500D01*
X3315100Y-5180900D02*
X3335100Y-5200900D01*
X3335100Y-5180900D02*
X3315100Y-5200900D01*
X3376400Y-5717200D02*
X3396400Y-5737200D01*
X3396400Y-5717200D02*
X3376400Y-5737200D01*
X3383400Y-4653400D02*
X3403400Y-4673400D01*
X3403400Y-4653400D02*
X3383400Y-4673400D01*
X3428300Y-5195500D02*
X3448300Y-5215500D01*
X3448300Y-5195500D02*
X3428300Y-5215500D01*
X3503700Y-2696200D02*
X3523700Y-2716200D01*
X3523700Y-2696200D02*
X3503700Y-2716200D01*
X3540500Y-5555500D02*
X3560500Y-5575500D01*
X3560500Y-5555500D02*
X3540500Y-5575500D01*
X3623500Y-2310800D02*
X3643500Y-2330800D01*
X3643500Y-2310800D02*
X3623500Y-2330800D01*
X3654300Y-7511200D02*
X3674300Y-7531200D01*
X3674300Y-7511200D02*
X3654300Y-7531200D01*
X3659100Y-2558900D02*
X3679100Y-2578900D01*
X3679100Y-2558900D02*
X3659100Y-2578900D01*
X3660800Y-5934900D02*
X3680800Y-5954900D01*
X3680800Y-5934900D02*
X3660800Y-5954900D01*
X3674800Y-4655700D02*
X3694800Y-4675700D01*
X3694800Y-4655700D02*
X3674800Y-4675700D01*
X3695500Y-6290700D02*
X3715500Y-6310700D01*
X3715500Y-6290700D02*
X3695500Y-6310700D01*
X3698900Y-1640100D02*
X3718900Y-1660100D01*
X3718900Y-1640100D02*
X3698900Y-1660100D01*
X3702500Y-5838700D02*
X3722500Y-5858700D01*
X3722500Y-5838700D02*
X3702500Y-5858700D01*
X3752300Y-3071700D02*
X3772300Y-3091700D01*
X3772300Y-3071700D02*
X3752300Y-3091700D01*
X3753600Y-3520000D02*
X3773600Y-3540000D01*
X3773600Y-3520000D02*
X3753600Y-3540000D01*
X3760200Y-3387500D02*
X3780200Y-3407500D01*
X3780200Y-3387500D02*
X3760200Y-3407500D01*
X3763000Y-2617600D02*
X3783000Y-2637600D01*
X3783000Y-2617600D02*
X3763000Y-2637600D01*
X3765500Y-3227700D02*
X3785500Y-3247700D01*
X3785500Y-3227700D02*
X3765500Y-3247700D01*
X3769700Y-2985900D02*
X3789700Y-3005900D01*
X3789700Y-2985900D02*
X3769700Y-3005900D01*
X3791800Y-2792100D02*
X3811800Y-2812100D01*
X3811800Y-2792100D02*
X3791800Y-2812100D01*
X3802700Y-1700900D02*
X3822700Y-1720900D01*
X3822700Y-1700900D02*
X3802700Y-1720900D01*
X3846600Y-2349300D02*
X3866600Y-2369300D01*
X3866600Y-2349300D02*
X3846600Y-2369300D01*
X3856800Y-4371300D02*
X3876800Y-4391300D01*
X3876800Y-4371300D02*
X3856800Y-4391300D01*
X3869800Y-6540900D02*
X3889800Y-6560900D01*
X3889800Y-6540900D02*
X3869800Y-6560900D01*
X3916200Y-3307700D02*
X3936200Y-3327700D01*
X3936200Y-3307700D02*
X3916200Y-3327700D01*
X3927700Y-2089600D02*
X3947700Y-2109600D01*
X3947700Y-2089600D02*
X3927700Y-2109600D01*
X3965200Y-6075600D02*
X3985200Y-6095600D01*
X3985200Y-6075600D02*
X3965200Y-6095600D01*
X3972500Y-5185100D02*
X3992500Y-5205100D01*
X3992500Y-5185100D02*
X3972500Y-5205100D01*
X3993600Y-3582300D02*
X4013600Y-3602300D01*
X4013600Y-3582300D02*
X3993600Y-3602300D01*
X3998200Y-3400000D02*
X4018200Y-3420000D01*
X4018200Y-3400000D02*
X3998200Y-3420000D01*
X4018000Y-3792900D02*
X4038000Y-3812900D01*
X4038000Y-3792900D02*
X4018000Y-3812900D01*
X4084200Y-5646700D02*
X4104200Y-5666700D01*
X4104200Y-5646700D02*
X4084200Y-5666700D01*
X4095100Y-7590000D02*
X4115100Y-7610000D01*
X4115100Y-7590000D02*
X4095100Y-7610000D01*
X4099300Y-3062500D02*
X4119300Y-3082500D01*
X4119300Y-3062500D02*
X4099300Y-3082500D01*
X4101400Y-3636200D02*
X4121400Y-3656200D01*
X4121400Y-3636200D02*
X4101400Y-3656200D01*
X4118600Y-3512500D02*
X4138600Y-3532500D01*
X4138600Y-3512500D02*
X4118600Y-3532500D01*
X4126900Y-2997500D02*
X4146900Y-3017500D01*
X4146900Y-2997500D02*
X4126900Y-3017500D01*
X4127700Y-3200600D02*
X4147700Y-3220600D01*
X4147700Y-3200600D02*
X4127700Y-3220600D01*
X4137800Y-5118300D02*
X4157800Y-5138300D01*
X4157800Y-5118300D02*
X4137800Y-5138300D01*
X4163000Y-2641200D02*
X4183000Y-2661200D01*
X4183000Y-2641200D02*
X4163000Y-2661200D01*
X4199300Y-2739500D02*
X4219300Y-2759500D01*
X4219300Y-2739500D02*
X4199300Y-2759500D01*
X4282100Y-2146500D02*
X4302100Y-2166500D01*
X4302100Y-2146500D02*
X4282100Y-2166500D01*
X4419900Y-5855400D02*
X4439900Y-5875400D01*
X4439900Y-5855400D02*
X4419900Y-5875400D01*
X4494200Y-4973600D02*
X4514200Y-4993600D01*
X4514200Y-4973600D02*
X4494200Y-4993600D01*
X4497800Y-5270500D02*
X4517800Y-5290500D01*
X4517800Y-5270500D02*
X4497800Y-5290500D01*
X4498200Y-5162300D02*
X4518200Y-5182300D01*
X4518200Y-5162300D02*
X4498200Y-5182300D01*
X4502100Y-4853500D02*
X4522100Y-4873500D01*
X4522100Y-4853500D02*
X4502100Y-4873500D01*
X4554100Y-5622900D02*
X4574100Y-5642900D01*
X4574100Y-5622900D02*
X4554100Y-5642900D01*
X4590000Y-6430300D02*
X4610000Y-6450300D01*
X4610000Y-6430300D02*
X4590000Y-6450300D01*
X4680000Y-4155400D02*
X4700000Y-4175400D01*
X4700000Y-4155400D02*
X4680000Y-4175400D01*
X4690000Y-7579300D02*
X4710000Y-7599300D01*
X4710000Y-7579300D02*
X4690000Y-7599300D01*
X4704200Y-5782600D02*
X4724200Y-5802600D01*
X4724200Y-5782600D02*
X4704200Y-5802600D01*
X4705800Y-4498700D02*
X4725800Y-4518700D01*
X4725800Y-4498700D02*
X4705800Y-4518700D01*
X4706300Y-2641200D02*
X4726300Y-2661200D01*
X4726300Y-2641200D02*
X4706300Y-2661200D01*
X4715800Y-5471900D02*
X4735800Y-5491900D01*
X4735800Y-5471900D02*
X4715800Y-5491900D01*
X4721300Y-5868300D02*
X4741300Y-5888300D01*
X4741300Y-5868300D02*
X4721300Y-5888300D01*
X4733700Y-5935900D02*
X4753700Y-5955900D01*
X4753700Y-5935900D02*
X4733700Y-5955900D01*
X4772300Y-4869700D02*
X4792300Y-4889700D01*
X4792300Y-4869700D02*
X4772300Y-4889700D01*
X4772900Y-5195700D02*
X4792900Y-5215700D01*
X4792900Y-5195700D02*
X4772900Y-5215700D01*
X4887900Y-3843400D02*
X4907900Y-3863400D01*
X4907900Y-3843400D02*
X4887900Y-3863400D01*
X4919300Y-4205300D02*
X4939300Y-4225300D01*
X4939300Y-4205300D02*
X4919300Y-4225300D01*
X5019100Y-5594400D02*
X5039100Y-5614400D01*
X5039100Y-5594400D02*
X5019100Y-5614400D01*
X5052300Y-2932500D02*
X5072300Y-2952500D01*
X5072300Y-2932500D02*
X5052300Y-2952500D01*
X5052600Y-3159200D02*
X5072600Y-3179200D01*
X5072600Y-3159200D02*
X5052600Y-3179200D01*
X5054700Y-3324100D02*
X5074700Y-3344100D01*
X5074700Y-3324100D02*
X5054700Y-3344100D01*
X5074800Y-3450900D02*
X5094800Y-3470900D01*
X5094800Y-3450900D02*
X5074800Y-3470900D01*
X5095800Y-5962100D02*
X5115800Y-5982100D01*
X5115800Y-5962100D02*
X5095800Y-5982100D01*
X5118400Y-3703300D02*
X5138400Y-3723300D01*
X5138400Y-3703300D02*
X5118400Y-3723300D01*
X5124700Y-3166500D02*
X5144700Y-3186500D01*
X5144700Y-3166500D02*
X5124700Y-3186500D01*
X5128500Y-3616300D02*
X5148500Y-3636300D01*
X5148500Y-3616300D02*
X5128500Y-3636300D01*
X5134400Y-2813000D02*
X5154400Y-2833000D01*
X5154400Y-2813000D02*
X5134400Y-2833000D01*
X5138300Y-5526500D02*
X5158300Y-5546500D01*
X5158300Y-5526500D02*
X5138300Y-5546500D01*
X5201600Y-5505200D02*
X5221600Y-5525200D01*
X5221600Y-5505200D02*
X5201600Y-5525200D01*
X5210800Y-3334600D02*
X5230800Y-3354600D01*
X5230800Y-3334600D02*
X5210800Y-3354600D01*
X5214000Y-3915800D02*
X5234000Y-3935800D01*
X5234000Y-3915800D02*
X5214000Y-3935800D01*
X5236100Y-3035600D02*
X5256100Y-3055600D01*
X5256100Y-3035600D02*
X5236100Y-3055600D01*
X5282100Y-6561700D02*
X5302100Y-6581700D01*
X5302100Y-6561700D02*
X5282100Y-6581700D01*
X5290300Y-4586700D02*
X5310300Y-4606700D01*
X5310300Y-4586700D02*
X5290300Y-4606700D01*
X5352600Y-3314900D02*
X5372600Y-3334900D01*
X5372600Y-3314900D02*
X5352600Y-3334900D01*
X5379800Y-5184000D02*
X5399800Y-5204000D01*
X5399800Y-5184000D02*
X5379800Y-5204000D01*
X5394300Y-6126200D02*
X5414300Y-6146200D01*
X5414300Y-6126200D02*
X5394300Y-6146200D01*
X5414100Y-3003400D02*
X5434100Y-3023400D01*
X5434100Y-3003400D02*
X5414100Y-3023400D01*
X5492400Y-2430200D02*
X5512400Y-2450200D01*
X5512400Y-2430200D02*
X5492400Y-2450200D01*
X5493000Y-5954800D02*
X5513000Y-5974800D01*
X5513000Y-5954800D02*
X5493000Y-5974800D01*
X5530300Y-7590000D02*
X5550300Y-7610000D01*
X5550300Y-7590000D02*
X5530300Y-7610000D01*
X5548400Y-5720500D02*
X5568400Y-5740500D01*
X5568400Y-5720500D02*
X5548400Y-5740500D01*
X5567500Y-1539300D02*
X5587500Y-1559300D01*
X5587500Y-1539300D02*
X5567500Y-1559300D01*
X5568800Y-6109300D02*
X5588800Y-6129300D01*
X5588800Y-6109300D02*
X5568800Y-6129300D01*
X5594800Y-1788700D02*
X5614800Y-1808700D01*
X5614800Y-1788700D02*
X5594800Y-1808700D01*
X5644800Y-1847800D02*
X5664800Y-1867800D01*
X5664800Y-1847800D02*
X5644800Y-1867800D01*
X5699300Y-2756100D02*
X5719300Y-2776100D01*
X5719300Y-2756100D02*
X5699300Y-2776100D01*
X5701700Y-4187900D02*
X5721700Y-4207900D01*
X5721700Y-4187900D02*
X5701700Y-4207900D01*
X5706900Y-5531300D02*
X5726900Y-5551300D01*
X5726900Y-5531300D02*
X5706900Y-5551300D01*
X5737600Y-7117500D02*
X5757600Y-7137500D01*
X5757600Y-7117500D02*
X5737600Y-7137500D01*
X5754200Y-5039100D02*
X5774200Y-5059100D01*
X5774200Y-5039100D02*
X5754200Y-5059100D01*
X5784500Y-2967100D02*
X5804500Y-2987100D01*
X5804500Y-2967100D02*
X5784500Y-2987100D01*
X5822700Y-5996000D02*
X5842700Y-6016000D01*
X5842700Y-5996000D02*
X5822700Y-6016000D01*
X5866400Y-1980600D02*
X5886400Y-2000600D01*
X5886400Y-1980600D02*
X5866400Y-2000600D01*
X5911300Y-1606100D02*
X5931300Y-1626100D01*
X5931300Y-1606100D02*
X5911300Y-1626100D01*
X5923000Y-1357700D02*
X5943000Y-1377700D01*
X5943000Y-1357700D02*
X5923000Y-1377700D01*
X6007500Y-4254700D02*
X6027500Y-4274700D01*
X6027500Y-4254700D02*
X6007500Y-4274700D01*
X6122100Y-5662600D02*
X6142100Y-5682600D01*
X6142100Y-5662600D02*
X6122100Y-5682600D01*
X6125300Y-1714900D02*
X6145300Y-1734900D01*
X6145300Y-1714900D02*
X6125300Y-1734900D01*
X6232300Y-5571800D02*
X6252300Y-5591800D01*
X6252300Y-5571800D02*
X6232300Y-5591800D01*
X6263000Y-1197800D02*
X6283000Y-1217800D01*
X6283000Y-1197800D02*
X6263000Y-1217800D01*
X6301500Y-7321200D02*
X6321500Y-7341200D01*
X6321500Y-7321200D02*
X6301500Y-7341200D01*
X6363000Y-5155900D02*
X6383000Y-5175900D01*
X6383000Y-5155900D02*
X6363000Y-5175900D01*
X6363000Y-6570000D02*
X6383000Y-6590000D01*
X6383000Y-6570000D02*
X6363000Y-6590000D01*
X6607000Y-4803700D02*
X6627000Y-4823700D01*
X6627000Y-4803700D02*
X6607000Y-4823700D01*
X6637700Y-5571800D02*
X6657700Y-5591800D01*
X6657700Y-5571800D02*
X6637700Y-5591800D01*
X6747900Y-3580700D02*
X6767900Y-3600700D01*
X6767900Y-3580700D02*
X6747900Y-3600700D01*
X6779100Y-4326500D02*
X6799100Y-4346500D01*
X6799100Y-4326500D02*
X6779100Y-4346500D01*
X6806000Y-1580500D02*
X6826000Y-1600500D01*
X6826000Y-1580500D02*
X6806000Y-1600500D01*
X7089100Y-7203000D02*
X7109100Y-7223000D01*
X7109100Y-7203000D02*
X7089100Y-7223000D01*
X7107600Y-4674800D02*
X7127600Y-4694800D01*
X7127600Y-4674800D02*
X7107600Y-4694800D01*
X7115000Y-2783600D02*
X7135000Y-2803600D01*
X7135000Y-2783600D02*
X7115000Y-2803600D01*
X7317500Y-1903800D02*
X7337500Y-1923800D01*
X7337500Y-1903800D02*
X7317500Y-1923800D01*
X7378700Y-6476300D02*
X7398700Y-6496300D01*
X7398700Y-6476300D02*
X7378700Y-6496300D01*
X7401500Y-3659000D02*
X7421500Y-3679000D01*
X7421500Y-3659000D02*
X7401500Y-3679000D01*
X7436100Y-2526700D02*
X7456100Y-2546700D01*
X7456100Y-2526700D02*
X7436100Y-2546700D01*
X7515800Y-1980600D02*
X7535800Y-2000600D01*
X7535800Y-1980600D02*
X7515800Y-2000600D01*
X7566600Y-5592300D02*
X7586600Y-5612300D01*
X7586600Y-5592300D02*
X7566600Y-5612300D01*
X7567900Y-5766400D02*
X7587900Y-5786400D01*
X7587900Y-5766400D02*
X7567900Y-5786400D01*
X7627700Y-6827000D02*
X7647700Y-6847000D01*
X7647700Y-6827000D02*
X7627700Y-6847000D01*
X7645800Y-4091400D02*
X7665800Y-4111400D01*
X7665800Y-4091400D02*
X7645800Y-4111400D01*
X7651200Y-6647400D02*
X7671200Y-6667400D01*
X7671200Y-6647400D02*
X7651200Y-6667400D01*
X7675800Y-3936000D02*
X7695800Y-3956000D01*
X7695800Y-3936000D02*
X7675800Y-3956000D01*
X7677600Y-4190000D02*
X7697600Y-4210000D01*
X7697600Y-4190000D02*
X7677600Y-4210000D01*
X7680800Y-6883800D02*
X7700800Y-6903800D01*
X7700800Y-6883800D02*
X7680800Y-6903800D01*
X7681800Y-6954000D02*
X7701800Y-6974000D01*
X7701800Y-6954000D02*
X7681800Y-6974000D01*
X7702400Y-1801600D02*
X7722400Y-1821600D01*
X7722400Y-1801600D02*
X7702400Y-1821600D01*
X7737700Y-1853100D02*
X7757700Y-1873100D01*
X7757700Y-1853100D02*
X7737700Y-1873100D01*
X7750600Y-4677000D02*
X7770600Y-4697000D01*
X7770600Y-4677000D02*
X7750600Y-4697000D01*
X7759500Y-6581200D02*
X7779500Y-6601200D01*
X7779500Y-6581200D02*
X7759500Y-6601200D01*
X7815000Y-6522000D02*
X7835000Y-6542000D01*
X7835000Y-6522000D02*
X7815000Y-6542000D01*
X7830000Y-5856900D02*
X7850000Y-5876900D01*
X7850000Y-5856900D02*
X7830000Y-5876900D01*
X7935200Y-5610600D02*
X7955200Y-5630600D01*
X7955200Y-5610600D02*
X7935200Y-5630600D01*
X7943000Y-3861300D02*
X7963000Y-3881300D01*
X7963000Y-3861300D02*
X7943000Y-3881300D01*
X7992200Y-4310400D02*
X8012200Y-4330400D01*
X8012200Y-4310400D02*
X7992200Y-4330400D01*
X8029600Y-4846500D02*
X8049600Y-4866500D01*
X8049600Y-4846500D02*
X8029600Y-4866500D01*
X8092000Y-1437900D02*
X8112000Y-1457900D01*
X8112000Y-1437900D02*
X8092000Y-1457900D01*
X8124900Y-5644800D02*
X8144900Y-5664800D01*
X8144900Y-5644800D02*
X8124900Y-5664800D01*
X8190000Y-3819900D02*
X8210000Y-3839900D01*
X8210000Y-3819900D02*
X8190000Y-3839900D01*
X8264800Y-2916100D02*
X8284800Y-2936100D01*
X8284800Y-2916100D02*
X8264800Y-2936100D01*
X8280800Y-6512500D02*
X8300800Y-6532500D01*
X8300800Y-6512500D02*
X8280800Y-6532500D01*
X8314800Y-6022600D02*
X8334800Y-6042600D01*
X8334800Y-6022600D02*
X8314800Y-6042600D01*
X8341000Y-5009900D02*
X8361000Y-5029900D01*
X8361000Y-5009900D02*
X8341000Y-5029900D01*
X8348500Y-6445000D02*
X8368500Y-6465000D01*
X8368500Y-6445000D02*
X8348500Y-6465000D01*
X8356300Y-4342300D02*
X8376300Y-4362300D01*
X8376300Y-4342300D02*
X8356300Y-4362300D01*
X8416100Y-2090000D02*
X8436100Y-2110000D01*
X8436100Y-2090000D02*
X8416100Y-2110000D01*
X8451600Y-7462000D02*
X8471600Y-7482000D01*
X8471600Y-7462000D02*
X8451600Y-7482000D01*
X8453500Y-6132300D02*
X8473500Y-6152300D01*
X8473500Y-6132300D02*
X8453500Y-6152300D01*
X8582400Y-6022500D02*
X8602400Y-6042500D01*
X8602400Y-6022500D02*
X8582400Y-6042500D01*
X8686700Y-6086000D02*
X8706700Y-6106000D01*
X8706700Y-6086000D02*
X8686700Y-6106000D01*
X8699900Y-2920600D02*
X8719900Y-2940600D01*
X8719900Y-2920600D02*
X8699900Y-2940600D01*
X8709100Y-6024200D02*
X8729100Y-6044200D01*
X8729100Y-6024200D02*
X8709100Y-6044200D01*
X8754100Y-3598000D02*
X8774100Y-3618000D01*
X8774100Y-3598000D02*
X8754100Y-3618000D01*
X8769800Y-2583900D02*
X8789800Y-2603900D01*
X8789800Y-2583900D02*
X8769800Y-2603900D01*
X8805000Y-5217300D02*
X8825000Y-5237300D01*
X8825000Y-5217300D02*
X8805000Y-5237300D01*
X8835400Y-7589000D02*
X8855400Y-7609000D01*
X8855400Y-7589000D02*
X8835400Y-7609000D01*
X8845500Y-1860300D02*
X8865500Y-1880300D01*
X8865500Y-1860300D02*
X8845500Y-1880300D01*
X8851400Y-2390000D02*
X8871400Y-2410000D01*
X8871400Y-2390000D02*
X8851400Y-2410000D01*
X8864600Y-2820400D02*
X8884600Y-2840400D01*
X8884600Y-2820400D02*
X8864600Y-2840400D01*
X8928500Y-2746800D02*
X8948500Y-2766800D01*
X8948500Y-2746800D02*
X8928500Y-2766800D01*
X8934100Y-2861700D02*
X8954100Y-2881700D01*
X8954100Y-2861700D02*
X8934100Y-2881700D01*
X8939600Y-2967100D02*
X8959600Y-2987100D01*
X8959600Y-2967100D02*
X8939600Y-2987100D01*
X8957900Y-6684900D02*
X8977900Y-6704900D01*
X8977900Y-6684900D02*
X8957900Y-6704900D01*
X8972600Y-3802200D02*
X8992600Y-3822200D01*
X8992600Y-3802200D02*
X8972600Y-3822200D01*
X8984800Y-6777000D02*
X9004800Y-6797000D01*
X9004800Y-6777000D02*
X8984800Y-6797000D01*
X8995300Y-5481400D02*
X9015300Y-5501400D01*
X9015300Y-5481400D02*
X8995300Y-5501400D01*
X9003600Y-2175600D02*
X9023600Y-2195600D01*
X9023600Y-2175600D02*
X9003600Y-2195600D01*
X9088500Y-6092800D02*
X9108500Y-6112800D01*
X9108500Y-6092800D02*
X9088500Y-6112800D01*
X9207200Y-5769400D02*
X9227200Y-5789400D01*
X9227200Y-5769400D02*
X9207200Y-5789400D01*
X9333000Y-3823200D02*
X9353000Y-3843200D01*
X9353000Y-3823200D02*
X9333000Y-3843200D01*
X9377400Y-6317900D02*
X9397400Y-6337900D01*
X9397400Y-6317900D02*
X9377400Y-6337900D01*
X9378600Y-7335000D02*
X9398600Y-7355000D01*
X9398600Y-7335000D02*
X9378600Y-7355000D01*
X9574700Y-3588500D02*
X9594700Y-3608500D01*
X9594700Y-3588500D02*
X9574700Y-3608500D01*
X8420000Y-6884000D02*
G75*
G03*
X8400000Y-6884000I-10000J0D01*
G01*
X8400000Y-6884000D02*
G75*
G03*
X8420000Y-6884000I10000J0D01*
G01*
X8420000Y-7024000D02*
G75*
G03*
X8400000Y-7024000I-10000J0D01*
G01*
X8400000Y-7024000D02*
G75*
G03*
X8420000Y-7024000I10000J0D01*
G01*
X8490000Y-6814000D02*
G75*
G03*
X8470000Y-6814000I-10000J0D01*
G01*
X8470000Y-6814000D02*
G75*
G03*
X8490000Y-6814000I10000J0D01*
G01*
X8490000Y-6954000D02*
G75*
G03*
X8470000Y-6954000I-10000J0D01*
G01*
X8470000Y-6954000D02*
G75*
G03*
X8490000Y-6954000I10000J0D01*
G01*
X8490000Y-7094000D02*
G75*
G03*
X8470000Y-7094000I-10000J0D01*
G01*
X8470000Y-7094000D02*
G75*
G03*
X8490000Y-7094000I10000J0D01*
G01*
X8560000Y-6884000D02*
G75*
G03*
X8540000Y-6884000I-10000J0D01*
G01*
X8540000Y-6884000D02*
G75*
G03*
X8560000Y-6884000I10000J0D01*
G01*
X8560000Y-7024000D02*
G75*
G03*
X8540000Y-7024000I-10000J0D01*
G01*
X8540000Y-7024000D02*
G75*
G03*
X8560000Y-7024000I10000J0D01*
G01*
X8630000Y-6814000D02*
G75*
G03*
X8610000Y-6814000I-10000J0D01*
G01*
X8610000Y-6814000D02*
G75*
G03*
X8630000Y-6814000I10000J0D01*
G01*
X8630000Y-6954000D02*
G75*
G03*
X8610000Y-6954000I-10000J0D01*
G01*
X8610000Y-6954000D02*
G75*
G03*
X8630000Y-6954000I10000J0D01*
G01*
X8630000Y-7094000D02*
G75*
G03*
X8610000Y-7094000I-10000J0D01*
G01*
X8610000Y-7094000D02*
G75*
G03*
X8630000Y-7094000I10000J0D01*
G01*
X8700000Y-6884000D02*
G75*
G03*
X8680000Y-6884000I-10000J0D01*
G01*
X8680000Y-6884000D02*
G75*
G03*
X8700000Y-6884000I10000J0D01*
G01*
X8700000Y-7024000D02*
G75*
G03*
X8680000Y-7024000I-10000J0D01*
G01*
X8680000Y-7024000D02*
G75*
G03*
X8700000Y-7024000I10000J0D01*
G01*
X3075000Y-2765000D02*
X3075000Y-2795000D01*
X3060000Y-2780000D02*
X3090000Y-2780000D01*
X3075000Y-2895000D02*
X3075000Y-2925000D01*
X3060000Y-2910000D02*
X3090000Y-2910000D01*
X3075000Y-3025000D02*
X3075000Y-3055000D01*
X3060000Y-3040000D02*
X3090000Y-3040000D01*
X3075000Y-3155000D02*
X3075000Y-3185000D01*
X3060000Y-3170000D02*
X3090000Y-3170000D01*
X3075000Y-3285000D02*
X3075000Y-3315000D01*
X3060000Y-3300000D02*
X3090000Y-3300000D01*
X3075000Y-3415000D02*
X3075000Y-3445000D01*
X3060000Y-3430000D02*
X3090000Y-3430000D01*
X3075000Y-3545000D02*
X3075000Y-3575000D01*
X3060000Y-3560000D02*
X3090000Y-3560000D01*
X3075000Y-3675000D02*
X3075000Y-3705000D01*
X3060000Y-3690000D02*
X3090000Y-3690000D01*
X3075000Y-3805000D02*
X3075000Y-3835000D01*
X3060000Y-3820000D02*
X3090000Y-3820000D01*
X3225000Y-2765000D02*
X3225000Y-2795000D01*
X3210000Y-2780000D02*
X3240000Y-2780000D01*
X3225000Y-2895000D02*
X3225000Y-2925000D01*
X3210000Y-2910000D02*
X3240000Y-2910000D01*
X3225000Y-3025000D02*
X3225000Y-3055000D01*
X3210000Y-3040000D02*
X3240000Y-3040000D01*
X3225000Y-3155000D02*
X3225000Y-3185000D01*
X3210000Y-3170000D02*
X3240000Y-3170000D01*
X3225000Y-3285000D02*
X3225000Y-3315000D01*
X3210000Y-3300000D02*
X3240000Y-3300000D01*
X3225000Y-3415000D02*
X3225000Y-3445000D01*
X3210000Y-3430000D02*
X3240000Y-3430000D01*
X3225000Y-3545000D02*
X3225000Y-3575000D01*
X3210000Y-3560000D02*
X3240000Y-3560000D01*
X3225000Y-3675000D02*
X3225000Y-3705000D01*
X3210000Y-3690000D02*
X3240000Y-3690000D01*
X3225000Y-3805000D02*
X3225000Y-3835000D01*
X3210000Y-3820000D02*
X3240000Y-3820000D01*
X3375000Y-2765000D02*
X3375000Y-2795000D01*
X3360000Y-2780000D02*
X3390000Y-2780000D01*
X3375000Y-2895000D02*
X3375000Y-2925000D01*
X3360000Y-2910000D02*
X3390000Y-2910000D01*
X3375000Y-3025000D02*
X3375000Y-3055000D01*
X3360000Y-3040000D02*
X3390000Y-3040000D01*
X3375000Y-3155000D02*
X3375000Y-3185000D01*
X3360000Y-3170000D02*
X3390000Y-3170000D01*
X3375000Y-3285000D02*
X3375000Y-3315000D01*
X3360000Y-3300000D02*
X3390000Y-3300000D01*
X3375000Y-3415000D02*
X3375000Y-3445000D01*
X3360000Y-3430000D02*
X3390000Y-3430000D01*
X3375000Y-3545000D02*
X3375000Y-3575000D01*
X3360000Y-3560000D02*
X3390000Y-3560000D01*
X3375000Y-3675000D02*
X3375000Y-3705000D01*
X3360000Y-3690000D02*
X3390000Y-3690000D01*
X3375000Y-3805000D02*
X3375000Y-3835000D01*
X3360000Y-3820000D02*
X3390000Y-3820000D01*
X3525000Y-2765000D02*
X3525000Y-2795000D01*
X3510000Y-2780000D02*
X3540000Y-2780000D01*
X3525000Y-2895000D02*
X3525000Y-2925000D01*
X3510000Y-2910000D02*
X3540000Y-2910000D01*
X3525000Y-3025000D02*
X3525000Y-3055000D01*
X3510000Y-3040000D02*
X3540000Y-3040000D01*
X3525000Y-3155000D02*
X3525000Y-3185000D01*
X3510000Y-3170000D02*
X3540000Y-3170000D01*
X3525000Y-3285000D02*
X3525000Y-3315000D01*
X3510000Y-3300000D02*
X3540000Y-3300000D01*
X3525000Y-3415000D02*
X3525000Y-3445000D01*
X3510000Y-3430000D02*
X3540000Y-3430000D01*
X3525000Y-3545000D02*
X3525000Y-3575000D01*
X3510000Y-3560000D02*
X3540000Y-3560000D01*
X3525000Y-3675000D02*
X3525000Y-3705000D01*
X3510000Y-3690000D02*
X3540000Y-3690000D01*
X3525000Y-3805000D02*
X3525000Y-3835000D01*
X3510000Y-3820000D02*
X3540000Y-3820000D01*
X4375000Y-2765000D02*
X4375000Y-2795000D01*
X4360000Y-2780000D02*
X4390000Y-2780000D01*
X4375000Y-2895000D02*
X4375000Y-2925000D01*
X4360000Y-2910000D02*
X4390000Y-2910000D01*
X4375000Y-3025000D02*
X4375000Y-3055000D01*
X4360000Y-3040000D02*
X4390000Y-3040000D01*
X4375000Y-3155000D02*
X4375000Y-3185000D01*
X4360000Y-3170000D02*
X4390000Y-3170000D01*
X4375000Y-3285000D02*
X4375000Y-3315000D01*
X4360000Y-3300000D02*
X4390000Y-3300000D01*
X4375000Y-3415000D02*
X4375000Y-3445000D01*
X4360000Y-3430000D02*
X4390000Y-3430000D01*
X4375000Y-3545000D02*
X4375000Y-3575000D01*
X4360000Y-3560000D02*
X4390000Y-3560000D01*
X4375000Y-3675000D02*
X4375000Y-3705000D01*
X4360000Y-3690000D02*
X4390000Y-3690000D01*
X4375000Y-3805000D02*
X4375000Y-3835000D01*
X4360000Y-3820000D02*
X4390000Y-3820000D01*
X4525000Y-2765000D02*
X4525000Y-2795000D01*
X4510000Y-2780000D02*
X4540000Y-2780000D01*
X4525000Y-2895000D02*
X4525000Y-2925000D01*
X4510000Y-2910000D02*
X4540000Y-2910000D01*
X4525000Y-3025000D02*
X4525000Y-3055000D01*
X4510000Y-3040000D02*
X4540000Y-3040000D01*
X4525000Y-3155000D02*
X4525000Y-3185000D01*
X4510000Y-3170000D02*
X4540000Y-3170000D01*
X4525000Y-3285000D02*
X4525000Y-3315000D01*
X4510000Y-3300000D02*
X4540000Y-3300000D01*
X4525000Y-3415000D02*
X4525000Y-3445000D01*
X4510000Y-3430000D02*
X4540000Y-3430000D01*
X4525000Y-3545000D02*
X4525000Y-3575000D01*
X4510000Y-3560000D02*
X4540000Y-3560000D01*
X4525000Y-3675000D02*
X4525000Y-3705000D01*
X4510000Y-3690000D02*
X4540000Y-3690000D01*
X4525000Y-3805000D02*
X4525000Y-3835000D01*
X4510000Y-3820000D02*
X4540000Y-3820000D01*
X4675000Y-2765000D02*
X4675000Y-2795000D01*
X4660000Y-2780000D02*
X4690000Y-2780000D01*
X4675000Y-2895000D02*
X4675000Y-2925000D01*
X4660000Y-2910000D02*
X4690000Y-2910000D01*
X4675000Y-3025000D02*
X4675000Y-3055000D01*
X4660000Y-3040000D02*
X4690000Y-3040000D01*
X4675000Y-3155000D02*
X4675000Y-3185000D01*
X4660000Y-3170000D02*
X4690000Y-3170000D01*
X4675000Y-3285000D02*
X4675000Y-3315000D01*
X4660000Y-3300000D02*
X4690000Y-3300000D01*
X4675000Y-3415000D02*
X4675000Y-3445000D01*
X4660000Y-3430000D02*
X4690000Y-3430000D01*
X4675000Y-3545000D02*
X4675000Y-3575000D01*
X4660000Y-3560000D02*
X4690000Y-3560000D01*
X4675000Y-3675000D02*
X4675000Y-3705000D01*
X4660000Y-3690000D02*
X4690000Y-3690000D01*
X4675000Y-3805000D02*
X4675000Y-3835000D01*
X4660000Y-3820000D02*
X4690000Y-3820000D01*
X4825000Y-2765000D02*
X4825000Y-2795000D01*
X4810000Y-2780000D02*
X4840000Y-2780000D01*
X4825000Y-2895000D02*
X4825000Y-2925000D01*
X4810000Y-2910000D02*
X4840000Y-2910000D01*
X4825000Y-3025000D02*
X4825000Y-3055000D01*
X4810000Y-3040000D02*
X4840000Y-3040000D01*
X4825000Y-3155000D02*
X4825000Y-3185000D01*
X4810000Y-3170000D02*
X4840000Y-3170000D01*
X4825000Y-3285000D02*
X4825000Y-3315000D01*
X4810000Y-3300000D02*
X4840000Y-3300000D01*
X4825000Y-3415000D02*
X4825000Y-3445000D01*
X4810000Y-3430000D02*
X4840000Y-3430000D01*
X4825000Y-3545000D02*
X4825000Y-3575000D01*
X4810000Y-3560000D02*
X4840000Y-3560000D01*
X4825000Y-3675000D02*
X4825000Y-3705000D01*
X4810000Y-3690000D02*
X4840000Y-3690000D01*
X4825000Y-3805000D02*
X4825000Y-3835000D01*
X4810000Y-3820000D02*
X4840000Y-3820000D01*
X9135000Y-3340000D02*
X9135000Y-3370000D01*
X9120000Y-3355000D02*
X9150000Y-3355000D01*
X9135000Y-3470000D02*
X9135000Y-3500000D01*
X9120000Y-3485000D02*
X9150000Y-3485000D01*
X9135000Y-3600000D02*
X9135000Y-3630000D01*
X9120000Y-3615000D02*
X9150000Y-3615000D01*
X9135000Y-3730000D02*
X9135000Y-3760000D01*
X9120000Y-3745000D02*
X9150000Y-3745000D01*
X9265000Y-3340000D02*
X9265000Y-3370000D01*
X9250000Y-3355000D02*
X9280000Y-3355000D01*
X9265000Y-3470000D02*
X9265000Y-3500000D01*
X9250000Y-3485000D02*
X9280000Y-3485000D01*
X9265000Y-3600000D02*
X9265000Y-3630000D01*
X9250000Y-3615000D02*
X9280000Y-3615000D01*
X9265000Y-3730000D02*
X9265000Y-3760000D01*
X9250000Y-3745000D02*
X9280000Y-3745000D01*
X9408213Y-4789213D02*
X9408213Y-4746787D01*
X9365787Y-4746787D01*
X9365787Y-4789213D01*
X9408213Y-4789213D01*
X9332000Y-4798000D02*
X9442000Y-4798000D01*
X9442000Y-4798000D02*
G75*
G03*
X9442000Y-4738000I0J30000D01*
G01*
X9442000Y-4738000D02*
X9332000Y-4738000D01*
X9332000Y-4738000D02*
G75*
G03*
X9332000Y-4798000I0J-30000D01*
G01*
X9408213Y-5653213D02*
X9408213Y-5610787D01*
X9365787Y-5610787D01*
X9365787Y-5653213D01*
X9408213Y-5653213D01*
X9332000Y-5662000D02*
X9442000Y-5662000D01*
X9442000Y-5662000D02*
G75*
G03*
X9442000Y-5602000I0J30000D01*
G01*
X9442000Y-5602000D02*
X9332000Y-5602000D01*
X9332000Y-5602000D02*
G75*
G03*
X9332000Y-5662000I0J-30000D01*
G01*
X9826213Y-4789213D02*
X9826213Y-4746787D01*
X9783787Y-4746787D01*
X9783787Y-4789213D01*
X9826213Y-4789213D01*
X9775000Y-4798000D02*
X9835000Y-4798000D01*
X9835000Y-4798000D02*
G75*
G03*
X9835000Y-4738000I0J30000D01*
G01*
X9835000Y-4738000D02*
X9775000Y-4738000D01*
X9775000Y-4738000D02*
G75*
G03*
X9775000Y-4798000I0J-30000D01*
G01*
X9826213Y-5653213D02*
X9826213Y-5610787D01*
X9783787Y-5610787D01*
X9783787Y-5653213D01*
X9826213Y-5653213D01*
X9775000Y-5662000D02*
X9835000Y-5662000D01*
X9835000Y-5662000D02*
G75*
G03*
X9835000Y-5602000I0J30000D01*
G01*
X9835000Y-5602000D02*
X9775000Y-5602000D01*
X9775000Y-5602000D02*
G75*
G03*
X9775000Y-5662000I0J-30000D01*
G01*
X4000000Y-7037500D02*
X4037500Y-7000000D01*
X4000000Y-6962500D01*
X3962500Y-7000000D01*
X4000000Y-7037500D01*
X4200000Y-7037500D02*
X4237500Y-7000000D01*
X4200000Y-6962500D01*
X4162500Y-7000000D01*
X4200000Y-7037500D01*
X4400000Y-7037500D02*
X4437500Y-7000000D01*
X4400000Y-6962500D01*
X4362500Y-7000000D01*
X4400000Y-7037500D01*
X4600000Y-7037500D02*
X4637500Y-7000000D01*
X4600000Y-6962500D01*
X4562500Y-7000000D01*
X4600000Y-7037500D01*
X4800000Y-7037500D02*
X4837500Y-7000000D01*
X4800000Y-6962500D01*
X4762500Y-7000000D01*
X4800000Y-7037500D01*
X5000000Y-7037500D02*
X5037500Y-7000000D01*
X5000000Y-6962500D01*
X4962500Y-7000000D01*
X5000000Y-7037500D01*
X5200000Y-7037500D02*
X5237500Y-7000000D01*
X5200000Y-6962500D01*
X5162500Y-7000000D01*
X5200000Y-7037500D01*
X5400000Y-7037500D02*
X5437500Y-7000000D01*
X5400000Y-6962500D01*
X5362500Y-7000000D01*
X5400000Y-7037500D01*
X6952500Y-552500D02*
X7047500Y-647500D01*
X7047500Y-552500D02*
X6952500Y-647500D01*
X7047500Y-600000D02*
G75*
G03*
X6952500Y-600000I-47500J0D01*
G01*
X6952500Y-600000D02*
G75*
G03*
X7047500Y-600000I47500J0D01*
G01*
X7202500Y-552500D02*
X7297500Y-647500D01*
X7297500Y-552500D02*
X7202500Y-647500D01*
X7297500Y-600000D02*
G75*
G03*
X7202500Y-600000I-47500J0D01*
G01*
X7202500Y-600000D02*
G75*
G03*
X7297500Y-600000I47500J0D01*
G01*
X7452500Y-552500D02*
X7547500Y-647500D01*
X7547500Y-552500D02*
X7452500Y-647500D01*
X7547500Y-600000D02*
G75*
G03*
X7452500Y-600000I-47500J0D01*
G01*
X7452500Y-600000D02*
G75*
G03*
X7547500Y-600000I47500J0D01*
G01*
X7702500Y-552500D02*
X7797500Y-647500D01*
X7797500Y-552500D02*
X7702500Y-647500D01*
X7797500Y-600000D02*
G75*
G03*
X7702500Y-600000I-47500J0D01*
G01*
X7702500Y-600000D02*
G75*
G03*
X7797500Y-600000I47500J0D01*
G01*
X7952500Y-552500D02*
X8047500Y-647500D01*
X8047500Y-552500D02*
X7952500Y-647500D01*
X8047500Y-600000D02*
G75*
G03*
X7952500Y-600000I-47500J0D01*
G01*
X7952500Y-600000D02*
G75*
G03*
X8047500Y-600000I47500J0D01*
G01*
X8602500Y-552500D02*
X8697500Y-647500D01*
X8697500Y-552500D02*
X8602500Y-647500D01*
X8697500Y-600000D02*
G75*
G03*
X8602500Y-600000I-47500J0D01*
G01*
X8602500Y-600000D02*
G75*
G03*
X8697500Y-600000I47500J0D01*
G01*
X8852500Y-552500D02*
X8947500Y-647500D01*
X8947500Y-552500D02*
X8852500Y-647500D01*
X8947500Y-600000D02*
G75*
G03*
X8852500Y-600000I-47500J0D01*
G01*
X8852500Y-600000D02*
G75*
G03*
X8947500Y-600000I47500J0D01*
G01*
X9102500Y-552500D02*
X9197500Y-647500D01*
X9197500Y-552500D02*
X9102500Y-647500D01*
X9197500Y-600000D02*
G75*
G03*
X9102500Y-600000I-47500J0D01*
G01*
X9102500Y-600000D02*
G75*
G03*
X9197500Y-600000I47500J0D01*
G01*
X9352500Y-552500D02*
X9447500Y-647500D01*
X9447500Y-552500D02*
X9352500Y-647500D01*
X9447500Y-600000D02*
G75*
G03*
X9352500Y-600000I-47500J0D01*
G01*
X9352500Y-600000D02*
G75*
G03*
X9447500Y-600000I47500J0D01*
G01*
X9602500Y-552500D02*
X9697500Y-647500D01*
X9697500Y-552500D02*
X9602500Y-647500D01*
X9697500Y-600000D02*
G75*
G03*
X9602500Y-600000I-47500J0D01*
G01*
X9602500Y-600000D02*
G75*
G03*
X9697500Y-600000I47500J0D01*
G01*
X1350000Y-7600000D02*
X1450000Y-7700000D01*
X1450000Y-7600000D02*
X1350000Y-7700000D01*
X1400000Y-7600000D02*
X1400000Y-7700000D01*
X1350000Y-7650000D02*
X1450000Y-7650000D01*
X1604000Y-7600000D02*
X1704000Y-7700000D01*
X1704000Y-7600000D02*
X1604000Y-7700000D01*
X1654000Y-7600000D02*
X1654000Y-7700000D01*
X1604000Y-7650000D02*
X1704000Y-7650000D01*
X1858000Y-7600000D02*
X1958000Y-7700000D01*
X1958000Y-7600000D02*
X1858000Y-7700000D01*
X1908000Y-7600000D02*
X1908000Y-7700000D01*
X1858000Y-7650000D02*
X1958000Y-7650000D01*
X2112000Y-7600000D02*
X2212000Y-7700000D01*
X2212000Y-7600000D02*
X2112000Y-7700000D01*
X2162000Y-7600000D02*
X2162000Y-7700000D01*
X2112000Y-7650000D02*
X2212000Y-7650000D01*
X2366000Y-7600000D02*
X2466000Y-7700000D01*
X2466000Y-7600000D02*
X2366000Y-7700000D01*
X2416000Y-7600000D02*
X2416000Y-7700000D01*
X2366000Y-7650000D02*
X2466000Y-7650000D01*
X2620000Y-7600000D02*
X2720000Y-7700000D01*
X2720000Y-7600000D02*
X2620000Y-7700000D01*
X2670000Y-7600000D02*
X2670000Y-7700000D01*
X2620000Y-7650000D02*
X2720000Y-7650000D01*
X2874000Y-7600000D02*
X2974000Y-7700000D01*
X2974000Y-7600000D02*
X2874000Y-7700000D01*
X2924000Y-7600000D02*
X2924000Y-7700000D01*
X2874000Y-7650000D02*
X2974000Y-7650000D01*
X2950000Y-6150000D02*
X3050000Y-6250000D01*
X3050000Y-6150000D02*
X2950000Y-6250000D01*
X3000000Y-6150000D02*
X3000000Y-6250000D01*
X2950000Y-6200000D02*
X3050000Y-6200000D01*
X2950000Y-6404000D02*
X3050000Y-6504000D01*
X3050000Y-6404000D02*
X2950000Y-6504000D01*
X3000000Y-6404000D02*
X3000000Y-6504000D01*
X2950000Y-6454000D02*
X3050000Y-6454000D01*
X2950000Y-6658000D02*
X3050000Y-6758000D01*
X3050000Y-6658000D02*
X2950000Y-6758000D01*
X3000000Y-6658000D02*
X3000000Y-6758000D01*
X2950000Y-6708000D02*
X3050000Y-6708000D01*
X2950000Y-6912000D02*
X3050000Y-7012000D01*
X3050000Y-6912000D02*
X2950000Y-7012000D01*
X3000000Y-6912000D02*
X3000000Y-7012000D01*
X2950000Y-6962000D02*
X3050000Y-6962000D01*
X2950000Y-7166000D02*
X3050000Y-7266000D01*
X3050000Y-7166000D02*
X2950000Y-7266000D01*
X3000000Y-7166000D02*
X3000000Y-7266000D01*
X2950000Y-7216000D02*
X3050000Y-7216000D01*
X3128000Y-7600000D02*
X3228000Y-7700000D01*
X3228000Y-7600000D02*
X3128000Y-7700000D01*
X3178000Y-7600000D02*
X3178000Y-7700000D01*
X3128000Y-7650000D02*
X3228000Y-7650000D01*
X3204000Y-6150000D02*
X3304000Y-6250000D01*
X3304000Y-6150000D02*
X3204000Y-6250000D01*
X3254000Y-6150000D02*
X3254000Y-6250000D01*
X3204000Y-6200000D02*
X3304000Y-6200000D01*
X3204000Y-6404000D02*
X3304000Y-6504000D01*
X3304000Y-6404000D02*
X3204000Y-6504000D01*
X3254000Y-6404000D02*
X3254000Y-6504000D01*
X3204000Y-6454000D02*
X3304000Y-6454000D01*
X3204000Y-6658000D02*
X3304000Y-6758000D01*
X3304000Y-6658000D02*
X3204000Y-6758000D01*
X3254000Y-6658000D02*
X3254000Y-6758000D01*
X3204000Y-6708000D02*
X3304000Y-6708000D01*
X3204000Y-6912000D02*
X3304000Y-7012000D01*
X3304000Y-6912000D02*
X3204000Y-7012000D01*
X3254000Y-6912000D02*
X3254000Y-7012000D01*
X3204000Y-6962000D02*
X3304000Y-6962000D01*
X3204000Y-7166000D02*
X3304000Y-7266000D01*
X3304000Y-7166000D02*
X3204000Y-7266000D01*
X3254000Y-7166000D02*
X3254000Y-7266000D01*
X3204000Y-7216000D02*
X3304000Y-7216000D01*
X3382000Y-7600000D02*
X3482000Y-7700000D01*
X3482000Y-7600000D02*
X3382000Y-7700000D01*
X3432000Y-7600000D02*
X3432000Y-7700000D01*
X3382000Y-7650000D02*
X3482000Y-7650000D01*
X3636000Y-7600000D02*
X3736000Y-7700000D01*
X3736000Y-7600000D02*
X3636000Y-7700000D01*
X3686000Y-7600000D02*
X3686000Y-7700000D01*
X3636000Y-7650000D02*
X3736000Y-7650000D01*
X5950000Y-4750000D02*
X6050000Y-4850000D01*
X6050000Y-4750000D02*
X5950000Y-4850000D01*
X6000000Y-4750000D02*
X6000000Y-4850000D01*
X5950000Y-4800000D02*
X6050000Y-4800000D01*
X5950000Y-5004000D02*
X6050000Y-5104000D01*
X6050000Y-5004000D02*
X5950000Y-5104000D01*
X6000000Y-5004000D02*
X6000000Y-5104000D01*
X5950000Y-5054000D02*
X6050000Y-5054000D01*
X5950000Y-5258000D02*
X6050000Y-5358000D01*
X6050000Y-5258000D02*
X5950000Y-5358000D01*
X6000000Y-5258000D02*
X6000000Y-5358000D01*
X5950000Y-5308000D02*
X6050000Y-5308000D01*
X9650000Y-1350000D02*
X9750000Y-1450000D01*
X9750000Y-1350000D02*
X9650000Y-1450000D01*
X9700000Y-1350000D02*
X9700000Y-1450000D01*
X9650000Y-1400000D02*
X9750000Y-1400000D01*
X9650000Y-1604000D02*
X9750000Y-1704000D01*
X9750000Y-1604000D02*
X9650000Y-1704000D01*
X9700000Y-1604000D02*
X9700000Y-1704000D01*
X9650000Y-1654000D02*
X9750000Y-1654000D01*
X9650000Y-1858000D02*
X9750000Y-1958000D01*
X9750000Y-1858000D02*
X9650000Y-1958000D01*
X9700000Y-1858000D02*
X9700000Y-1958000D01*
X9650000Y-1908000D02*
X9750000Y-1908000D01*
D13*
X735000Y-335000D02*
X865000Y-465000D01*
X865000Y-335000D02*
X735000Y-465000D01*
X845962Y-445962D02*
X845962Y-354038D01*
X754038Y-354038D01*
X754038Y-445962D01*
X845962Y-445962D01*
X1243000Y-335000D02*
X1373000Y-465000D01*
X1373000Y-335000D02*
X1243000Y-465000D01*
X1353962Y-445962D02*
X1353962Y-354038D01*
X1262038Y-354038D01*
X1262038Y-445962D01*
X1353962Y-445962D01*
X2135000Y-335000D02*
X2265000Y-465000D01*
X2265000Y-335000D02*
X2135000Y-465000D01*
X2245962Y-445962D02*
X2245962Y-354038D01*
X2154038Y-354038D01*
X2154038Y-445962D01*
X2245962Y-445962D01*
X2643000Y-335000D02*
X2773000Y-465000D01*
X2773000Y-335000D02*
X2643000Y-465000D01*
X2753962Y-445962D02*
X2753962Y-354038D01*
X2662038Y-354038D01*
X2662038Y-445962D01*
X2753962Y-445962D01*
X3535000Y-335000D02*
X3665000Y-465000D01*
X3665000Y-335000D02*
X3535000Y-465000D01*
X3645962Y-445962D02*
X3645962Y-354038D01*
X3554038Y-354038D01*
X3554038Y-445962D01*
X3645962Y-445962D01*
X4043000Y-335000D02*
X4173000Y-465000D01*
X4173000Y-335000D02*
X4043000Y-465000D01*
X4153962Y-445962D02*
X4153962Y-354038D01*
X4062038Y-354038D01*
X4062038Y-445962D01*
X4153962Y-445962D01*
D14*
X5665000Y-365000D02*
X5935000Y-635000D01*
X5935000Y-365000D02*
X5665000Y-635000D01*
X5800000Y-635000D02*
X5935000Y-500000D01*
X5800000Y-365000D01*
X5665000Y-500000D01*
X5800000Y-635000D01*
X6165000Y-365000D02*
X6435000Y-635000D01*
X6435000Y-365000D02*
X6165000Y-635000D01*
X6300000Y-635000D02*
X6435000Y-500000D01*
X6300000Y-365000D01*
X6165000Y-500000D01*
X6300000Y-635000D01*
D11*
X253277Y-8318984D02*
X253277Y-8118984D01*
X253277Y-8118984D02*
X300896Y-8118984D01*
X300896Y-8118984D02*
X329467Y-8128508D01*
X329467Y-8128508D02*
X348515Y-8147555D01*
X348515Y-8147555D02*
X358039Y-8166603D01*
X358039Y-8166603D02*
X367562Y-8204698D01*
X367562Y-8204698D02*
X367562Y-8233269D01*
X367562Y-8233269D02*
X358039Y-8271365D01*
X358039Y-8271365D02*
X348515Y-8290412D01*
X348515Y-8290412D02*
X329467Y-8309460D01*
X329467Y-8309460D02*
X300896Y-8318984D01*
X300896Y-8318984D02*
X253277Y-8318984D01*
X453277Y-8318984D02*
X453277Y-8185650D01*
X453277Y-8223746D02*
X462801Y-8204698D01*
X462801Y-8204698D02*
X472324Y-8195174D01*
X472324Y-8195174D02*
X491372Y-8185650D01*
X491372Y-8185650D02*
X510420Y-8185650D01*
X577086Y-8318984D02*
X577086Y-8185650D01*
X577086Y-8118984D02*
X567563Y-8128508D01*
X567563Y-8128508D02*
X577086Y-8138031D01*
X577086Y-8138031D02*
X586610Y-8128508D01*
X586610Y-8128508D02*
X577086Y-8118984D01*
X577086Y-8118984D02*
X577086Y-8138031D01*
X700896Y-8318984D02*
X681848Y-8309460D01*
X681848Y-8309460D02*
X672324Y-8290412D01*
X672324Y-8290412D02*
X672324Y-8118984D01*
X805658Y-8318984D02*
X786610Y-8309460D01*
X786610Y-8309460D02*
X777086Y-8290412D01*
X777086Y-8290412D02*
X777086Y-8118984D01*
X1034229Y-8318984D02*
X1034229Y-8118984D01*
X1034229Y-8118984D02*
X1100896Y-8261841D01*
X1100896Y-8261841D02*
X1167563Y-8118984D01*
X1167563Y-8118984D02*
X1167563Y-8318984D01*
X1348515Y-8318984D02*
X1348515Y-8214222D01*
X1348515Y-8214222D02*
X1338991Y-8195174D01*
X1338991Y-8195174D02*
X1319944Y-8185650D01*
X1319944Y-8185650D02*
X1281848Y-8185650D01*
X1281848Y-8185650D02*
X1262801Y-8195174D01*
X1348515Y-8309460D02*
X1329467Y-8318984D01*
X1329467Y-8318984D02*
X1281848Y-8318984D01*
X1281848Y-8318984D02*
X1262801Y-8309460D01*
X1262801Y-8309460D02*
X1253277Y-8290412D01*
X1253277Y-8290412D02*
X1253277Y-8271365D01*
X1253277Y-8271365D02*
X1262801Y-8252317D01*
X1262801Y-8252317D02*
X1281848Y-8242793D01*
X1281848Y-8242793D02*
X1329467Y-8242793D01*
X1329467Y-8242793D02*
X1348515Y-8233269D01*
X1443753Y-8185650D02*
X1443753Y-8385650D01*
X1443753Y-8195174D02*
X1462801Y-8185650D01*
X1462801Y-8185650D02*
X1500896Y-8185650D01*
X1500896Y-8185650D02*
X1519943Y-8195174D01*
X1519943Y-8195174D02*
X1529467Y-8204698D01*
X1529467Y-8204698D02*
X1538991Y-8223746D01*
X1538991Y-8223746D02*
X1538991Y-8280888D01*
X1538991Y-8280888D02*
X1529467Y-8299936D01*
X1529467Y-8299936D02*
X1519943Y-8309460D01*
X1519943Y-8309460D02*
X1500896Y-8318984D01*
X1500896Y-8318984D02*
X1462801Y-8318984D01*
X1462801Y-8318984D02*
X1443753Y-8309460D01*
X1624705Y-8299936D02*
X1634229Y-8309460D01*
X1634229Y-8309460D02*
X1624705Y-8318984D01*
X1624705Y-8318984D02*
X1615182Y-8309460D01*
X1615182Y-8309460D02*
X1624705Y-8299936D01*
X1624705Y-8299936D02*
X1624705Y-8318984D01*
X1624705Y-8195174D02*
X1634229Y-8204698D01*
X1634229Y-8204698D02*
X1624705Y-8214222D01*
X1624705Y-8214222D02*
X1615182Y-8204698D01*
X1615182Y-8204698D02*
X1624705Y-8195174D01*
X1624705Y-8195174D02*
X1624705Y-8214222D01*
D12*
X-27500Y-8637500D02*
X-7500Y-8657500D01*
X-7500Y-8637500D02*
X-27500Y-8657500D01*
D11*
X291372Y-8538984D02*
X310420Y-8538984D01*
X310420Y-8538984D02*
X329467Y-8548508D01*
X329467Y-8548508D02*
X338991Y-8558031D01*
X338991Y-8558031D02*
X348515Y-8577079D01*
X348515Y-8577079D02*
X358039Y-8615174D01*
X358039Y-8615174D02*
X358039Y-8662793D01*
X358039Y-8662793D02*
X348515Y-8700889D01*
X348515Y-8700889D02*
X338991Y-8719936D01*
X338991Y-8719936D02*
X329467Y-8729460D01*
X329467Y-8729460D02*
X310420Y-8738984D01*
X310420Y-8738984D02*
X291372Y-8738984D01*
X291372Y-8738984D02*
X272324Y-8729460D01*
X272324Y-8729460D02*
X262801Y-8719936D01*
X262801Y-8719936D02*
X253277Y-8700889D01*
X253277Y-8700889D02*
X243753Y-8662793D01*
X243753Y-8662793D02*
X243753Y-8615174D01*
X243753Y-8615174D02*
X253277Y-8577079D01*
X253277Y-8577079D02*
X262801Y-8558031D01*
X262801Y-8558031D02*
X272324Y-8548508D01*
X272324Y-8548508D02*
X291372Y-8538984D01*
X443753Y-8719936D02*
X453277Y-8729460D01*
X453277Y-8729460D02*
X443753Y-8738984D01*
X443753Y-8738984D02*
X434229Y-8729460D01*
X434229Y-8729460D02*
X443753Y-8719936D01*
X443753Y-8719936D02*
X443753Y-8738984D01*
X529467Y-8558031D02*
X538991Y-8548508D01*
X538991Y-8548508D02*
X558039Y-8538984D01*
X558039Y-8538984D02*
X605658Y-8538984D01*
X605658Y-8538984D02*
X624705Y-8548508D01*
X624705Y-8548508D02*
X634229Y-8558031D01*
X634229Y-8558031D02*
X643753Y-8577079D01*
X643753Y-8577079D02*
X643753Y-8596127D01*
X643753Y-8596127D02*
X634229Y-8624698D01*
X634229Y-8624698D02*
X519943Y-8738984D01*
X519943Y-8738984D02*
X643753Y-8738984D01*
X767562Y-8538984D02*
X786610Y-8538984D01*
X786610Y-8538984D02*
X805658Y-8548508D01*
X805658Y-8548508D02*
X815182Y-8558031D01*
X815182Y-8558031D02*
X824705Y-8577079D01*
X824705Y-8577079D02*
X834229Y-8615174D01*
X834229Y-8615174D02*
X834229Y-8662793D01*
X834229Y-8662793D02*
X824705Y-8700889D01*
X824705Y-8700889D02*
X815182Y-8719936D01*
X815182Y-8719936D02*
X805658Y-8729460D01*
X805658Y-8729460D02*
X786610Y-8738984D01*
X786610Y-8738984D02*
X767562Y-8738984D01*
X767562Y-8738984D02*
X748515Y-8729460D01*
X748515Y-8729460D02*
X738991Y-8719936D01*
X738991Y-8719936D02*
X729467Y-8700889D01*
X729467Y-8700889D02*
X719943Y-8662793D01*
X719943Y-8662793D02*
X719943Y-8615174D01*
X719943Y-8615174D02*
X729467Y-8577079D01*
X729467Y-8577079D02*
X738991Y-8558031D01*
X738991Y-8558031D02*
X748515Y-8548508D01*
X748515Y-8548508D02*
X767562Y-8538984D01*
X958039Y-8538984D02*
X977086Y-8538984D01*
X977086Y-8538984D02*
X996134Y-8548508D01*
X996134Y-8548508D02*
X1005658Y-8558031D01*
X1005658Y-8558031D02*
X1015182Y-8577079D01*
X1015182Y-8577079D02*
X1024705Y-8615174D01*
X1024705Y-8615174D02*
X1024705Y-8662793D01*
X1024705Y-8662793D02*
X1015182Y-8700889D01*
X1015182Y-8700889D02*
X1005658Y-8719936D01*
X1005658Y-8719936D02*
X996134Y-8729460D01*
X996134Y-8729460D02*
X977086Y-8738984D01*
X977086Y-8738984D02*
X958039Y-8738984D01*
X958039Y-8738984D02*
X938991Y-8729460D01*
X938991Y-8729460D02*
X929467Y-8719936D01*
X929467Y-8719936D02*
X919943Y-8700889D01*
X919943Y-8700889D02*
X910420Y-8662793D01*
X910420Y-8662793D02*
X910420Y-8615174D01*
X910420Y-8615174D02*
X919943Y-8577079D01*
X919943Y-8577079D02*
X929467Y-8558031D01*
X929467Y-8558031D02*
X938991Y-8548508D01*
X938991Y-8548508D02*
X958039Y-8538984D01*
X1110420Y-8738984D02*
X1110420Y-8605650D01*
X1110420Y-8624698D02*
X1119944Y-8615174D01*
X1119944Y-8615174D02*
X1138991Y-8605650D01*
X1138991Y-8605650D02*
X1167563Y-8605650D01*
X1167563Y-8605650D02*
X1186610Y-8615174D01*
X1186610Y-8615174D02*
X1196134Y-8634222D01*
X1196134Y-8634222D02*
X1196134Y-8738984D01*
X1196134Y-8634222D02*
X1205658Y-8615174D01*
X1205658Y-8615174D02*
X1224705Y-8605650D01*
X1224705Y-8605650D02*
X1253277Y-8605650D01*
X1253277Y-8605650D02*
X1272325Y-8615174D01*
X1272325Y-8615174D02*
X1281848Y-8634222D01*
X1281848Y-8634222D02*
X1281848Y-8738984D01*
X1377086Y-8738984D02*
X1377086Y-8605650D01*
X1377086Y-8624698D02*
X1386610Y-8615174D01*
X1386610Y-8615174D02*
X1405658Y-8605650D01*
X1405658Y-8605650D02*
X1434229Y-8605650D01*
X1434229Y-8605650D02*
X1453277Y-8615174D01*
X1453277Y-8615174D02*
X1462801Y-8634222D01*
X1462801Y-8634222D02*
X1462801Y-8738984D01*
X1462801Y-8634222D02*
X1472324Y-8615174D01*
X1472324Y-8615174D02*
X1491372Y-8605650D01*
X1491372Y-8605650D02*
X1519943Y-8605650D01*
X1519943Y-8605650D02*
X1538991Y-8615174D01*
X1538991Y-8615174D02*
X1548515Y-8634222D01*
X1548515Y-8634222D02*
X1548515Y-8738984D01*
X1938991Y-8529460D02*
X1767563Y-8786603D01*
X2196134Y-8538984D02*
X2215182Y-8538984D01*
X2215182Y-8538984D02*
X2234229Y-8548508D01*
X2234229Y-8548508D02*
X2243753Y-8558031D01*
X2243753Y-8558031D02*
X2253277Y-8577079D01*
X2253277Y-8577079D02*
X2262801Y-8615174D01*
X2262801Y-8615174D02*
X2262801Y-8662793D01*
X2262801Y-8662793D02*
X2253277Y-8700889D01*
X2253277Y-8700889D02*
X2243753Y-8719936D01*
X2243753Y-8719936D02*
X2234229Y-8729460D01*
X2234229Y-8729460D02*
X2215182Y-8738984D01*
X2215182Y-8738984D02*
X2196134Y-8738984D01*
X2196134Y-8738984D02*
X2177087Y-8729460D01*
X2177087Y-8729460D02*
X2167563Y-8719936D01*
X2167563Y-8719936D02*
X2158039Y-8700889D01*
X2158039Y-8700889D02*
X2148515Y-8662793D01*
X2148515Y-8662793D02*
X2148515Y-8615174D01*
X2148515Y-8615174D02*
X2158039Y-8577079D01*
X2158039Y-8577079D02*
X2167563Y-8558031D01*
X2167563Y-8558031D02*
X2177087Y-8548508D01*
X2177087Y-8548508D02*
X2196134Y-8538984D01*
X2348515Y-8719936D02*
X2358039Y-8729460D01*
X2358039Y-8729460D02*
X2348515Y-8738984D01*
X2348515Y-8738984D02*
X2338991Y-8729460D01*
X2338991Y-8729460D02*
X2348515Y-8719936D01*
X2348515Y-8719936D02*
X2348515Y-8738984D01*
X2481848Y-8538984D02*
X2500896Y-8538984D01*
X2500896Y-8538984D02*
X2519944Y-8548508D01*
X2519944Y-8548508D02*
X2529468Y-8558031D01*
X2529468Y-8558031D02*
X2538991Y-8577079D01*
X2538991Y-8577079D02*
X2548515Y-8615174D01*
X2548515Y-8615174D02*
X2548515Y-8662793D01*
X2548515Y-8662793D02*
X2538991Y-8700889D01*
X2538991Y-8700889D02*
X2529468Y-8719936D01*
X2529468Y-8719936D02*
X2519944Y-8729460D01*
X2519944Y-8729460D02*
X2500896Y-8738984D01*
X2500896Y-8738984D02*
X2481848Y-8738984D01*
X2481848Y-8738984D02*
X2462801Y-8729460D01*
X2462801Y-8729460D02*
X2453277Y-8719936D01*
X2453277Y-8719936D02*
X2443753Y-8700889D01*
X2443753Y-8700889D02*
X2434229Y-8662793D01*
X2434229Y-8662793D02*
X2434229Y-8615174D01*
X2434229Y-8615174D02*
X2443753Y-8577079D01*
X2443753Y-8577079D02*
X2453277Y-8558031D01*
X2453277Y-8558031D02*
X2462801Y-8548508D01*
X2462801Y-8548508D02*
X2481848Y-8538984D01*
X2672325Y-8538984D02*
X2691372Y-8538984D01*
X2691372Y-8538984D02*
X2710420Y-8548508D01*
X2710420Y-8548508D02*
X2719944Y-8558031D01*
X2719944Y-8558031D02*
X2729468Y-8577079D01*
X2729468Y-8577079D02*
X2738991Y-8615174D01*
X2738991Y-8615174D02*
X2738991Y-8662793D01*
X2738991Y-8662793D02*
X2729468Y-8700889D01*
X2729468Y-8700889D02*
X2719944Y-8719936D01*
X2719944Y-8719936D02*
X2710420Y-8729460D01*
X2710420Y-8729460D02*
X2691372Y-8738984D01*
X2691372Y-8738984D02*
X2672325Y-8738984D01*
X2672325Y-8738984D02*
X2653277Y-8729460D01*
X2653277Y-8729460D02*
X2643753Y-8719936D01*
X2643753Y-8719936D02*
X2634229Y-8700889D01*
X2634229Y-8700889D02*
X2624706Y-8662793D01*
X2624706Y-8662793D02*
X2624706Y-8615174D01*
X2624706Y-8615174D02*
X2634229Y-8577079D01*
X2634229Y-8577079D02*
X2643753Y-8558031D01*
X2643753Y-8558031D02*
X2653277Y-8548508D01*
X2653277Y-8548508D02*
X2672325Y-8538984D01*
X2805658Y-8538984D02*
X2938991Y-8538984D01*
X2938991Y-8538984D02*
X2853277Y-8738984D01*
X3024706Y-8738984D02*
X3062801Y-8738984D01*
X3062801Y-8738984D02*
X3081848Y-8729460D01*
X3081848Y-8729460D02*
X3091372Y-8719936D01*
X3091372Y-8719936D02*
X3110420Y-8691365D01*
X3110420Y-8691365D02*
X3119944Y-8653270D01*
X3119944Y-8653270D02*
X3119944Y-8577079D01*
X3119944Y-8577079D02*
X3110420Y-8558031D01*
X3110420Y-8558031D02*
X3100896Y-8548508D01*
X3100896Y-8548508D02*
X3081848Y-8538984D01*
X3081848Y-8538984D02*
X3043753Y-8538984D01*
X3043753Y-8538984D02*
X3024706Y-8548508D01*
X3024706Y-8548508D02*
X3015182Y-8558031D01*
X3015182Y-8558031D02*
X3005658Y-8577079D01*
X3005658Y-8577079D02*
X3005658Y-8624698D01*
X3005658Y-8624698D02*
X3015182Y-8643746D01*
X3015182Y-8643746D02*
X3024706Y-8653270D01*
X3024706Y-8653270D02*
X3043753Y-8662793D01*
X3043753Y-8662793D02*
X3081848Y-8662793D01*
X3081848Y-8662793D02*
X3100896Y-8653270D01*
X3100896Y-8653270D02*
X3110420Y-8643746D01*
X3110420Y-8643746D02*
X3119944Y-8624698D01*
X3196134Y-8538984D02*
X3196134Y-8577079D01*
X3272325Y-8538984D02*
X3272325Y-8577079D01*
X3567563Y-8815174D02*
X3558039Y-8805650D01*
X3558039Y-8805650D02*
X3538991Y-8777079D01*
X3538991Y-8777079D02*
X3529468Y-8758031D01*
X3529468Y-8758031D02*
X3519944Y-8729460D01*
X3519944Y-8729460D02*
X3510420Y-8681841D01*
X3510420Y-8681841D02*
X3510420Y-8643746D01*
X3510420Y-8643746D02*
X3519944Y-8596127D01*
X3519944Y-8596127D02*
X3529468Y-8567555D01*
X3529468Y-8567555D02*
X3538991Y-8548508D01*
X3538991Y-8548508D02*
X3558039Y-8519936D01*
X3558039Y-8519936D02*
X3567563Y-8510412D01*
X3634229Y-8558031D02*
X3643753Y-8548508D01*
X3643753Y-8548508D02*
X3662801Y-8538984D01*
X3662801Y-8538984D02*
X3710420Y-8538984D01*
X3710420Y-8538984D02*
X3729468Y-8548508D01*
X3729468Y-8548508D02*
X3738991Y-8558031D01*
X3738991Y-8558031D02*
X3748515Y-8577079D01*
X3748515Y-8577079D02*
X3748515Y-8596127D01*
X3748515Y-8596127D02*
X3738991Y-8624698D01*
X3738991Y-8624698D02*
X3624706Y-8738984D01*
X3624706Y-8738984D02*
X3748515Y-8738984D01*
X3815182Y-8538984D02*
X3938991Y-8538984D01*
X3938991Y-8538984D02*
X3872325Y-8615174D01*
X3872325Y-8615174D02*
X3900896Y-8615174D01*
X3900896Y-8615174D02*
X3919944Y-8624698D01*
X3919944Y-8624698D02*
X3929468Y-8634222D01*
X3929468Y-8634222D02*
X3938991Y-8653270D01*
X3938991Y-8653270D02*
X3938991Y-8700889D01*
X3938991Y-8700889D02*
X3929468Y-8719936D01*
X3929468Y-8719936D02*
X3919944Y-8729460D01*
X3919944Y-8729460D02*
X3900896Y-8738984D01*
X3900896Y-8738984D02*
X3843753Y-8738984D01*
X3843753Y-8738984D02*
X3824706Y-8729460D01*
X3824706Y-8729460D02*
X3815182Y-8719936D01*
X4053277Y-8624698D02*
X4034229Y-8615174D01*
X4034229Y-8615174D02*
X4024706Y-8605650D01*
X4024706Y-8605650D02*
X4015182Y-8586603D01*
X4015182Y-8586603D02*
X4015182Y-8577079D01*
X4015182Y-8577079D02*
X4024706Y-8558031D01*
X4024706Y-8558031D02*
X4034229Y-8548508D01*
X4034229Y-8548508D02*
X4053277Y-8538984D01*
X4053277Y-8538984D02*
X4091372Y-8538984D01*
X4091372Y-8538984D02*
X4110420Y-8548508D01*
X4110420Y-8548508D02*
X4119944Y-8558031D01*
X4119944Y-8558031D02*
X4129468Y-8577079D01*
X4129468Y-8577079D02*
X4129468Y-8586603D01*
X4129468Y-8586603D02*
X4119944Y-8605650D01*
X4119944Y-8605650D02*
X4110420Y-8615174D01*
X4110420Y-8615174D02*
X4091372Y-8624698D01*
X4091372Y-8624698D02*
X4053277Y-8624698D01*
X4053277Y-8624698D02*
X4034229Y-8634222D01*
X4034229Y-8634222D02*
X4024706Y-8643746D01*
X4024706Y-8643746D02*
X4015182Y-8662793D01*
X4015182Y-8662793D02*
X4015182Y-8700889D01*
X4015182Y-8700889D02*
X4024706Y-8719936D01*
X4024706Y-8719936D02*
X4034229Y-8729460D01*
X4034229Y-8729460D02*
X4053277Y-8738984D01*
X4053277Y-8738984D02*
X4091372Y-8738984D01*
X4091372Y-8738984D02*
X4110420Y-8729460D01*
X4110420Y-8729460D02*
X4119944Y-8719936D01*
X4119944Y-8719936D02*
X4129468Y-8700889D01*
X4129468Y-8700889D02*
X4129468Y-8662793D01*
X4129468Y-8662793D02*
X4119944Y-8643746D01*
X4119944Y-8643746D02*
X4110420Y-8634222D01*
X4110420Y-8634222D02*
X4091372Y-8624698D01*
X4367563Y-8738984D02*
X4367563Y-8538984D01*
X4453277Y-8738984D02*
X4453277Y-8634222D01*
X4453277Y-8634222D02*
X4443753Y-8615174D01*
X4443753Y-8615174D02*
X4424706Y-8605650D01*
X4424706Y-8605650D02*
X4396134Y-8605650D01*
X4396134Y-8605650D02*
X4377087Y-8615174D01*
X4377087Y-8615174D02*
X4367563Y-8624698D01*
X4577087Y-8738984D02*
X4558039Y-8729460D01*
X4558039Y-8729460D02*
X4548515Y-8719936D01*
X4548515Y-8719936D02*
X4538992Y-8700889D01*
X4538992Y-8700889D02*
X4538992Y-8643746D01*
X4538992Y-8643746D02*
X4548515Y-8624698D01*
X4548515Y-8624698D02*
X4558039Y-8615174D01*
X4558039Y-8615174D02*
X4577087Y-8605650D01*
X4577087Y-8605650D02*
X4605658Y-8605650D01*
X4605658Y-8605650D02*
X4624706Y-8615174D01*
X4624706Y-8615174D02*
X4634230Y-8624698D01*
X4634230Y-8624698D02*
X4643753Y-8643746D01*
X4643753Y-8643746D02*
X4643753Y-8700889D01*
X4643753Y-8700889D02*
X4634230Y-8719936D01*
X4634230Y-8719936D02*
X4624706Y-8729460D01*
X4624706Y-8729460D02*
X4605658Y-8738984D01*
X4605658Y-8738984D02*
X4577087Y-8738984D01*
X4758039Y-8738984D02*
X4738992Y-8729460D01*
X4738992Y-8729460D02*
X4729468Y-8710412D01*
X4729468Y-8710412D02*
X4729468Y-8538984D01*
X4910420Y-8729460D02*
X4891373Y-8738984D01*
X4891373Y-8738984D02*
X4853277Y-8738984D01*
X4853277Y-8738984D02*
X4834230Y-8729460D01*
X4834230Y-8729460D02*
X4824706Y-8710412D01*
X4824706Y-8710412D02*
X4824706Y-8634222D01*
X4824706Y-8634222D02*
X4834230Y-8615174D01*
X4834230Y-8615174D02*
X4853277Y-8605650D01*
X4853277Y-8605650D02*
X4891373Y-8605650D01*
X4891373Y-8605650D02*
X4910420Y-8615174D01*
X4910420Y-8615174D02*
X4919944Y-8634222D01*
X4919944Y-8634222D02*
X4919944Y-8653270D01*
X4919944Y-8653270D02*
X4824706Y-8672317D01*
X4996134Y-8729460D02*
X5015182Y-8738984D01*
X5015182Y-8738984D02*
X5053277Y-8738984D01*
X5053277Y-8738984D02*
X5072325Y-8729460D01*
X5072325Y-8729460D02*
X5081849Y-8710412D01*
X5081849Y-8710412D02*
X5081849Y-8700889D01*
X5081849Y-8700889D02*
X5072325Y-8681841D01*
X5072325Y-8681841D02*
X5053277Y-8672317D01*
X5053277Y-8672317D02*
X5024706Y-8672317D01*
X5024706Y-8672317D02*
X5005658Y-8662793D01*
X5005658Y-8662793D02*
X4996134Y-8643746D01*
X4996134Y-8643746D02*
X4996134Y-8634222D01*
X4996134Y-8634222D02*
X5005658Y-8615174D01*
X5005658Y-8615174D02*
X5024706Y-8605650D01*
X5024706Y-8605650D02*
X5053277Y-8605650D01*
X5053277Y-8605650D02*
X5072325Y-8615174D01*
X5148515Y-8815174D02*
X5158039Y-8805650D01*
X5158039Y-8805650D02*
X5177087Y-8777079D01*
X5177087Y-8777079D02*
X5186611Y-8758031D01*
X5186611Y-8758031D02*
X5196134Y-8729460D01*
X5196134Y-8729460D02*
X5205658Y-8681841D01*
X5205658Y-8681841D02*
X5205658Y-8643746D01*
X5205658Y-8643746D02*
X5196134Y-8596127D01*
X5196134Y-8596127D02*
X5186611Y-8567555D01*
X5186611Y-8567555D02*
X5177087Y-8548508D01*
X5177087Y-8548508D02*
X5158039Y-8519936D01*
X5158039Y-8519936D02*
X5148515Y-8510412D01*
D12*
X-7500Y-8911500D02*
G75*
G03*
X-27500Y-8911500I-10000J0D01*
G01*
X-27500Y-8911500D02*
G75*
G03*
X-7500Y-8911500I10000J0D01*
G01*
D11*
X291372Y-8802984D02*
X310420Y-8802984D01*
X310420Y-8802984D02*
X329467Y-8812508D01*
X329467Y-8812508D02*
X338991Y-8822031D01*
X338991Y-8822031D02*
X348515Y-8841079D01*
X348515Y-8841079D02*
X358039Y-8879174D01*
X358039Y-8879174D02*
X358039Y-8926793D01*
X358039Y-8926793D02*
X348515Y-8964889D01*
X348515Y-8964889D02*
X338991Y-8983936D01*
X338991Y-8983936D02*
X329467Y-8993460D01*
X329467Y-8993460D02*
X310420Y-9002984D01*
X310420Y-9002984D02*
X291372Y-9002984D01*
X291372Y-9002984D02*
X272324Y-8993460D01*
X272324Y-8993460D02*
X262801Y-8983936D01*
X262801Y-8983936D02*
X253277Y-8964889D01*
X253277Y-8964889D02*
X243753Y-8926793D01*
X243753Y-8926793D02*
X243753Y-8879174D01*
X243753Y-8879174D02*
X253277Y-8841079D01*
X253277Y-8841079D02*
X262801Y-8822031D01*
X262801Y-8822031D02*
X272324Y-8812508D01*
X272324Y-8812508D02*
X291372Y-8802984D01*
X443753Y-8983936D02*
X453277Y-8993460D01*
X453277Y-8993460D02*
X443753Y-9002984D01*
X443753Y-9002984D02*
X434229Y-8993460D01*
X434229Y-8993460D02*
X443753Y-8983936D01*
X443753Y-8983936D02*
X443753Y-9002984D01*
X529467Y-8822031D02*
X538991Y-8812508D01*
X538991Y-8812508D02*
X558039Y-8802984D01*
X558039Y-8802984D02*
X605658Y-8802984D01*
X605658Y-8802984D02*
X624705Y-8812508D01*
X624705Y-8812508D02*
X634229Y-8822031D01*
X634229Y-8822031D02*
X643753Y-8841079D01*
X643753Y-8841079D02*
X643753Y-8860127D01*
X643753Y-8860127D02*
X634229Y-8888698D01*
X634229Y-8888698D02*
X519943Y-9002984D01*
X519943Y-9002984D02*
X643753Y-9002984D01*
X767562Y-8802984D02*
X786610Y-8802984D01*
X786610Y-8802984D02*
X805658Y-8812508D01*
X805658Y-8812508D02*
X815182Y-8822031D01*
X815182Y-8822031D02*
X824705Y-8841079D01*
X824705Y-8841079D02*
X834229Y-8879174D01*
X834229Y-8879174D02*
X834229Y-8926793D01*
X834229Y-8926793D02*
X824705Y-8964889D01*
X824705Y-8964889D02*
X815182Y-8983936D01*
X815182Y-8983936D02*
X805658Y-8993460D01*
X805658Y-8993460D02*
X786610Y-9002984D01*
X786610Y-9002984D02*
X767562Y-9002984D01*
X767562Y-9002984D02*
X748515Y-8993460D01*
X748515Y-8993460D02*
X738991Y-8983936D01*
X738991Y-8983936D02*
X729467Y-8964889D01*
X729467Y-8964889D02*
X719943Y-8926793D01*
X719943Y-8926793D02*
X719943Y-8879174D01*
X719943Y-8879174D02*
X729467Y-8841079D01*
X729467Y-8841079D02*
X738991Y-8822031D01*
X738991Y-8822031D02*
X748515Y-8812508D01*
X748515Y-8812508D02*
X767562Y-8802984D01*
X958039Y-8802984D02*
X977086Y-8802984D01*
X977086Y-8802984D02*
X996134Y-8812508D01*
X996134Y-8812508D02*
X1005658Y-8822031D01*
X1005658Y-8822031D02*
X1015182Y-8841079D01*
X1015182Y-8841079D02*
X1024705Y-8879174D01*
X1024705Y-8879174D02*
X1024705Y-8926793D01*
X1024705Y-8926793D02*
X1015182Y-8964889D01*
X1015182Y-8964889D02*
X1005658Y-8983936D01*
X1005658Y-8983936D02*
X996134Y-8993460D01*
X996134Y-8993460D02*
X977086Y-9002984D01*
X977086Y-9002984D02*
X958039Y-9002984D01*
X958039Y-9002984D02*
X938991Y-8993460D01*
X938991Y-8993460D02*
X929467Y-8983936D01*
X929467Y-8983936D02*
X919943Y-8964889D01*
X919943Y-8964889D02*
X910420Y-8926793D01*
X910420Y-8926793D02*
X910420Y-8879174D01*
X910420Y-8879174D02*
X919943Y-8841079D01*
X919943Y-8841079D02*
X929467Y-8822031D01*
X929467Y-8822031D02*
X938991Y-8812508D01*
X938991Y-8812508D02*
X958039Y-8802984D01*
X1110420Y-9002984D02*
X1110420Y-8869650D01*
X1110420Y-8888698D02*
X1119944Y-8879174D01*
X1119944Y-8879174D02*
X1138991Y-8869650D01*
X1138991Y-8869650D02*
X1167563Y-8869650D01*
X1167563Y-8869650D02*
X1186610Y-8879174D01*
X1186610Y-8879174D02*
X1196134Y-8898222D01*
X1196134Y-8898222D02*
X1196134Y-9002984D01*
X1196134Y-8898222D02*
X1205658Y-8879174D01*
X1205658Y-8879174D02*
X1224705Y-8869650D01*
X1224705Y-8869650D02*
X1253277Y-8869650D01*
X1253277Y-8869650D02*
X1272325Y-8879174D01*
X1272325Y-8879174D02*
X1281848Y-8898222D01*
X1281848Y-8898222D02*
X1281848Y-9002984D01*
X1377086Y-9002984D02*
X1377086Y-8869650D01*
X1377086Y-8888698D02*
X1386610Y-8879174D01*
X1386610Y-8879174D02*
X1405658Y-8869650D01*
X1405658Y-8869650D02*
X1434229Y-8869650D01*
X1434229Y-8869650D02*
X1453277Y-8879174D01*
X1453277Y-8879174D02*
X1462801Y-8898222D01*
X1462801Y-8898222D02*
X1462801Y-9002984D01*
X1462801Y-8898222D02*
X1472324Y-8879174D01*
X1472324Y-8879174D02*
X1491372Y-8869650D01*
X1491372Y-8869650D02*
X1519943Y-8869650D01*
X1519943Y-8869650D02*
X1538991Y-8879174D01*
X1538991Y-8879174D02*
X1548515Y-8898222D01*
X1548515Y-8898222D02*
X1548515Y-9002984D01*
X1938991Y-8793460D02*
X1767563Y-9050603D01*
X2196134Y-8802984D02*
X2215182Y-8802984D01*
X2215182Y-8802984D02*
X2234229Y-8812508D01*
X2234229Y-8812508D02*
X2243753Y-8822031D01*
X2243753Y-8822031D02*
X2253277Y-8841079D01*
X2253277Y-8841079D02*
X2262801Y-8879174D01*
X2262801Y-8879174D02*
X2262801Y-8926793D01*
X2262801Y-8926793D02*
X2253277Y-8964889D01*
X2253277Y-8964889D02*
X2243753Y-8983936D01*
X2243753Y-8983936D02*
X2234229Y-8993460D01*
X2234229Y-8993460D02*
X2215182Y-9002984D01*
X2215182Y-9002984D02*
X2196134Y-9002984D01*
X2196134Y-9002984D02*
X2177087Y-8993460D01*
X2177087Y-8993460D02*
X2167563Y-8983936D01*
X2167563Y-8983936D02*
X2158039Y-8964889D01*
X2158039Y-8964889D02*
X2148515Y-8926793D01*
X2148515Y-8926793D02*
X2148515Y-8879174D01*
X2148515Y-8879174D02*
X2158039Y-8841079D01*
X2158039Y-8841079D02*
X2167563Y-8822031D01*
X2167563Y-8822031D02*
X2177087Y-8812508D01*
X2177087Y-8812508D02*
X2196134Y-8802984D01*
X2348515Y-8983936D02*
X2358039Y-8993460D01*
X2358039Y-8993460D02*
X2348515Y-9002984D01*
X2348515Y-9002984D02*
X2338991Y-8993460D01*
X2338991Y-8993460D02*
X2348515Y-8983936D01*
X2348515Y-8983936D02*
X2348515Y-9002984D01*
X2481848Y-8802984D02*
X2500896Y-8802984D01*
X2500896Y-8802984D02*
X2519944Y-8812508D01*
X2519944Y-8812508D02*
X2529468Y-8822031D01*
X2529468Y-8822031D02*
X2538991Y-8841079D01*
X2538991Y-8841079D02*
X2548515Y-8879174D01*
X2548515Y-8879174D02*
X2548515Y-8926793D01*
X2548515Y-8926793D02*
X2538991Y-8964889D01*
X2538991Y-8964889D02*
X2529468Y-8983936D01*
X2529468Y-8983936D02*
X2519944Y-8993460D01*
X2519944Y-8993460D02*
X2500896Y-9002984D01*
X2500896Y-9002984D02*
X2481848Y-9002984D01*
X2481848Y-9002984D02*
X2462801Y-8993460D01*
X2462801Y-8993460D02*
X2453277Y-8983936D01*
X2453277Y-8983936D02*
X2443753Y-8964889D01*
X2443753Y-8964889D02*
X2434229Y-8926793D01*
X2434229Y-8926793D02*
X2434229Y-8879174D01*
X2434229Y-8879174D02*
X2443753Y-8841079D01*
X2443753Y-8841079D02*
X2453277Y-8822031D01*
X2453277Y-8822031D02*
X2462801Y-8812508D01*
X2462801Y-8812508D02*
X2481848Y-8802984D01*
X2672325Y-8802984D02*
X2691372Y-8802984D01*
X2691372Y-8802984D02*
X2710420Y-8812508D01*
X2710420Y-8812508D02*
X2719944Y-8822031D01*
X2719944Y-8822031D02*
X2729468Y-8841079D01*
X2729468Y-8841079D02*
X2738991Y-8879174D01*
X2738991Y-8879174D02*
X2738991Y-8926793D01*
X2738991Y-8926793D02*
X2729468Y-8964889D01*
X2729468Y-8964889D02*
X2719944Y-8983936D01*
X2719944Y-8983936D02*
X2710420Y-8993460D01*
X2710420Y-8993460D02*
X2691372Y-9002984D01*
X2691372Y-9002984D02*
X2672325Y-9002984D01*
X2672325Y-9002984D02*
X2653277Y-8993460D01*
X2653277Y-8993460D02*
X2643753Y-8983936D01*
X2643753Y-8983936D02*
X2634229Y-8964889D01*
X2634229Y-8964889D02*
X2624706Y-8926793D01*
X2624706Y-8926793D02*
X2624706Y-8879174D01*
X2624706Y-8879174D02*
X2634229Y-8841079D01*
X2634229Y-8841079D02*
X2643753Y-8822031D01*
X2643753Y-8822031D02*
X2653277Y-8812508D01*
X2653277Y-8812508D02*
X2672325Y-8802984D01*
X2805658Y-8802984D02*
X2938991Y-8802984D01*
X2938991Y-8802984D02*
X2853277Y-9002984D01*
X3024706Y-9002984D02*
X3062801Y-9002984D01*
X3062801Y-9002984D02*
X3081848Y-8993460D01*
X3081848Y-8993460D02*
X3091372Y-8983936D01*
X3091372Y-8983936D02*
X3110420Y-8955365D01*
X3110420Y-8955365D02*
X3119944Y-8917270D01*
X3119944Y-8917270D02*
X3119944Y-8841079D01*
X3119944Y-8841079D02*
X3110420Y-8822031D01*
X3110420Y-8822031D02*
X3100896Y-8812508D01*
X3100896Y-8812508D02*
X3081848Y-8802984D01*
X3081848Y-8802984D02*
X3043753Y-8802984D01*
X3043753Y-8802984D02*
X3024706Y-8812508D01*
X3024706Y-8812508D02*
X3015182Y-8822031D01*
X3015182Y-8822031D02*
X3005658Y-8841079D01*
X3005658Y-8841079D02*
X3005658Y-8888698D01*
X3005658Y-8888698D02*
X3015182Y-8907746D01*
X3015182Y-8907746D02*
X3024706Y-8917270D01*
X3024706Y-8917270D02*
X3043753Y-8926793D01*
X3043753Y-8926793D02*
X3081848Y-8926793D01*
X3081848Y-8926793D02*
X3100896Y-8917270D01*
X3100896Y-8917270D02*
X3110420Y-8907746D01*
X3110420Y-8907746D02*
X3119944Y-8888698D01*
X3196134Y-8802984D02*
X3196134Y-8841079D01*
X3272325Y-8802984D02*
X3272325Y-8841079D01*
X3567563Y-9079174D02*
X3558039Y-9069650D01*
X3558039Y-9069650D02*
X3538991Y-9041079D01*
X3538991Y-9041079D02*
X3529468Y-9022031D01*
X3529468Y-9022031D02*
X3519944Y-8993460D01*
X3519944Y-8993460D02*
X3510420Y-8945841D01*
X3510420Y-8945841D02*
X3510420Y-8907746D01*
X3510420Y-8907746D02*
X3519944Y-8860127D01*
X3519944Y-8860127D02*
X3529468Y-8831555D01*
X3529468Y-8831555D02*
X3538991Y-8812508D01*
X3538991Y-8812508D02*
X3558039Y-8783936D01*
X3558039Y-8783936D02*
X3567563Y-8774412D01*
X3748515Y-9002984D02*
X3634229Y-9002984D01*
X3691372Y-9002984D02*
X3691372Y-8802984D01*
X3691372Y-8802984D02*
X3672325Y-8831555D01*
X3672325Y-8831555D02*
X3653277Y-8850603D01*
X3653277Y-8850603D02*
X3634229Y-8860127D01*
X3824706Y-8822031D02*
X3834229Y-8812508D01*
X3834229Y-8812508D02*
X3853277Y-8802984D01*
X3853277Y-8802984D02*
X3900896Y-8802984D01*
X3900896Y-8802984D02*
X3919944Y-8812508D01*
X3919944Y-8812508D02*
X3929468Y-8822031D01*
X3929468Y-8822031D02*
X3938991Y-8841079D01*
X3938991Y-8841079D02*
X3938991Y-8860127D01*
X3938991Y-8860127D02*
X3929468Y-8888698D01*
X3929468Y-8888698D02*
X3815182Y-9002984D01*
X3815182Y-9002984D02*
X3938991Y-9002984D01*
X4177087Y-9002984D02*
X4177087Y-8802984D01*
X4262801Y-9002984D02*
X4262801Y-8898222D01*
X4262801Y-8898222D02*
X4253277Y-8879174D01*
X4253277Y-8879174D02*
X4234230Y-8869650D01*
X4234230Y-8869650D02*
X4205658Y-8869650D01*
X4205658Y-8869650D02*
X4186610Y-8879174D01*
X4186610Y-8879174D02*
X4177087Y-8888698D01*
X4386611Y-9002984D02*
X4367563Y-8993460D01*
X4367563Y-8993460D02*
X4358039Y-8983936D01*
X4358039Y-8983936D02*
X4348515Y-8964889D01*
X4348515Y-8964889D02*
X4348515Y-8907746D01*
X4348515Y-8907746D02*
X4358039Y-8888698D01*
X4358039Y-8888698D02*
X4367563Y-8879174D01*
X4367563Y-8879174D02*
X4386611Y-8869650D01*
X4386611Y-8869650D02*
X4415182Y-8869650D01*
X4415182Y-8869650D02*
X4434230Y-8879174D01*
X4434230Y-8879174D02*
X4443753Y-8888698D01*
X4443753Y-8888698D02*
X4453277Y-8907746D01*
X4453277Y-8907746D02*
X4453277Y-8964889D01*
X4453277Y-8964889D02*
X4443753Y-8983936D01*
X4443753Y-8983936D02*
X4434230Y-8993460D01*
X4434230Y-8993460D02*
X4415182Y-9002984D01*
X4415182Y-9002984D02*
X4386611Y-9002984D01*
X4567563Y-9002984D02*
X4548515Y-8993460D01*
X4548515Y-8993460D02*
X4538992Y-8974412D01*
X4538992Y-8974412D02*
X4538992Y-8802984D01*
X4719944Y-8993460D02*
X4700896Y-9002984D01*
X4700896Y-9002984D02*
X4662801Y-9002984D01*
X4662801Y-9002984D02*
X4643753Y-8993460D01*
X4643753Y-8993460D02*
X4634230Y-8974412D01*
X4634230Y-8974412D02*
X4634230Y-8898222D01*
X4634230Y-8898222D02*
X4643753Y-8879174D01*
X4643753Y-8879174D02*
X4662801Y-8869650D01*
X4662801Y-8869650D02*
X4700896Y-8869650D01*
X4700896Y-8869650D02*
X4719944Y-8879174D01*
X4719944Y-8879174D02*
X4729468Y-8898222D01*
X4729468Y-8898222D02*
X4729468Y-8917270D01*
X4729468Y-8917270D02*
X4634230Y-8936317D01*
X4805658Y-8993460D02*
X4824706Y-9002984D01*
X4824706Y-9002984D02*
X4862801Y-9002984D01*
X4862801Y-9002984D02*
X4881849Y-8993460D01*
X4881849Y-8993460D02*
X4891373Y-8974412D01*
X4891373Y-8974412D02*
X4891373Y-8964889D01*
X4891373Y-8964889D02*
X4881849Y-8945841D01*
X4881849Y-8945841D02*
X4862801Y-8936317D01*
X4862801Y-8936317D02*
X4834230Y-8936317D01*
X4834230Y-8936317D02*
X4815182Y-8926793D01*
X4815182Y-8926793D02*
X4805658Y-8907746D01*
X4805658Y-8907746D02*
X4805658Y-8898222D01*
X4805658Y-8898222D02*
X4815182Y-8879174D01*
X4815182Y-8879174D02*
X4834230Y-8869650D01*
X4834230Y-8869650D02*
X4862801Y-8869650D01*
X4862801Y-8869650D02*
X4881849Y-8879174D01*
X4958039Y-9079174D02*
X4967563Y-9069650D01*
X4967563Y-9069650D02*
X4986611Y-9041079D01*
X4986611Y-9041079D02*
X4996134Y-9022031D01*
X4996134Y-9022031D02*
X5005658Y-8993460D01*
X5005658Y-8993460D02*
X5015182Y-8945841D01*
X5015182Y-8945841D02*
X5015182Y-8907746D01*
X5015182Y-8907746D02*
X5005658Y-8860127D01*
X5005658Y-8860127D02*
X4996134Y-8831555D01*
X4996134Y-8831555D02*
X4986611Y-8812508D01*
X4986611Y-8812508D02*
X4967563Y-8783936D01*
X4967563Y-8783936D02*
X4958039Y-8774412D01*
D12*
X-22500Y-9160500D02*
X-22500Y-9190500D01*
X-37500Y-9175500D02*
X-7500Y-9175500D01*
D11*
X291372Y-9066984D02*
X310420Y-9066984D01*
X310420Y-9066984D02*
X329467Y-9076508D01*
X329467Y-9076508D02*
X338991Y-9086031D01*
X338991Y-9086031D02*
X348515Y-9105079D01*
X348515Y-9105079D02*
X358039Y-9143174D01*
X358039Y-9143174D02*
X358039Y-9190793D01*
X358039Y-9190793D02*
X348515Y-9228889D01*
X348515Y-9228889D02*
X338991Y-9247936D01*
X338991Y-9247936D02*
X329467Y-9257460D01*
X329467Y-9257460D02*
X310420Y-9266984D01*
X310420Y-9266984D02*
X291372Y-9266984D01*
X291372Y-9266984D02*
X272324Y-9257460D01*
X272324Y-9257460D02*
X262801Y-9247936D01*
X262801Y-9247936D02*
X253277Y-9228889D01*
X253277Y-9228889D02*
X243753Y-9190793D01*
X243753Y-9190793D02*
X243753Y-9143174D01*
X243753Y-9143174D02*
X253277Y-9105079D01*
X253277Y-9105079D02*
X262801Y-9086031D01*
X262801Y-9086031D02*
X272324Y-9076508D01*
X272324Y-9076508D02*
X291372Y-9066984D01*
X443753Y-9247936D02*
X453277Y-9257460D01*
X453277Y-9257460D02*
X443753Y-9266984D01*
X443753Y-9266984D02*
X434229Y-9257460D01*
X434229Y-9257460D02*
X443753Y-9247936D01*
X443753Y-9247936D02*
X443753Y-9266984D01*
X519943Y-9066984D02*
X643753Y-9066984D01*
X643753Y-9066984D02*
X577086Y-9143174D01*
X577086Y-9143174D02*
X605658Y-9143174D01*
X605658Y-9143174D02*
X624705Y-9152698D01*
X624705Y-9152698D02*
X634229Y-9162222D01*
X634229Y-9162222D02*
X643753Y-9181270D01*
X643753Y-9181270D02*
X643753Y-9228889D01*
X643753Y-9228889D02*
X634229Y-9247936D01*
X634229Y-9247936D02*
X624705Y-9257460D01*
X624705Y-9257460D02*
X605658Y-9266984D01*
X605658Y-9266984D02*
X548515Y-9266984D01*
X548515Y-9266984D02*
X529467Y-9257460D01*
X529467Y-9257460D02*
X519943Y-9247936D01*
X767562Y-9066984D02*
X786610Y-9066984D01*
X786610Y-9066984D02*
X805658Y-9076508D01*
X805658Y-9076508D02*
X815182Y-9086031D01*
X815182Y-9086031D02*
X824705Y-9105079D01*
X824705Y-9105079D02*
X834229Y-9143174D01*
X834229Y-9143174D02*
X834229Y-9190793D01*
X834229Y-9190793D02*
X824705Y-9228889D01*
X824705Y-9228889D02*
X815182Y-9247936D01*
X815182Y-9247936D02*
X805658Y-9257460D01*
X805658Y-9257460D02*
X786610Y-9266984D01*
X786610Y-9266984D02*
X767562Y-9266984D01*
X767562Y-9266984D02*
X748515Y-9257460D01*
X748515Y-9257460D02*
X738991Y-9247936D01*
X738991Y-9247936D02*
X729467Y-9228889D01*
X729467Y-9228889D02*
X719943Y-9190793D01*
X719943Y-9190793D02*
X719943Y-9143174D01*
X719943Y-9143174D02*
X729467Y-9105079D01*
X729467Y-9105079D02*
X738991Y-9086031D01*
X738991Y-9086031D02*
X748515Y-9076508D01*
X748515Y-9076508D02*
X767562Y-9066984D01*
X958039Y-9066984D02*
X977086Y-9066984D01*
X977086Y-9066984D02*
X996134Y-9076508D01*
X996134Y-9076508D02*
X1005658Y-9086031D01*
X1005658Y-9086031D02*
X1015182Y-9105079D01*
X1015182Y-9105079D02*
X1024705Y-9143174D01*
X1024705Y-9143174D02*
X1024705Y-9190793D01*
X1024705Y-9190793D02*
X1015182Y-9228889D01*
X1015182Y-9228889D02*
X1005658Y-9247936D01*
X1005658Y-9247936D02*
X996134Y-9257460D01*
X996134Y-9257460D02*
X977086Y-9266984D01*
X977086Y-9266984D02*
X958039Y-9266984D01*
X958039Y-9266984D02*
X938991Y-9257460D01*
X938991Y-9257460D02*
X929467Y-9247936D01*
X929467Y-9247936D02*
X919943Y-9228889D01*
X919943Y-9228889D02*
X910420Y-9190793D01*
X910420Y-9190793D02*
X910420Y-9143174D01*
X910420Y-9143174D02*
X919943Y-9105079D01*
X919943Y-9105079D02*
X929467Y-9086031D01*
X929467Y-9086031D02*
X938991Y-9076508D01*
X938991Y-9076508D02*
X958039Y-9066984D01*
X1110420Y-9266984D02*
X1110420Y-9133650D01*
X1110420Y-9152698D02*
X1119944Y-9143174D01*
X1119944Y-9143174D02*
X1138991Y-9133650D01*
X1138991Y-9133650D02*
X1167563Y-9133650D01*
X1167563Y-9133650D02*
X1186610Y-9143174D01*
X1186610Y-9143174D02*
X1196134Y-9162222D01*
X1196134Y-9162222D02*
X1196134Y-9266984D01*
X1196134Y-9162222D02*
X1205658Y-9143174D01*
X1205658Y-9143174D02*
X1224705Y-9133650D01*
X1224705Y-9133650D02*
X1253277Y-9133650D01*
X1253277Y-9133650D02*
X1272325Y-9143174D01*
X1272325Y-9143174D02*
X1281848Y-9162222D01*
X1281848Y-9162222D02*
X1281848Y-9266984D01*
X1377086Y-9266984D02*
X1377086Y-9133650D01*
X1377086Y-9152698D02*
X1386610Y-9143174D01*
X1386610Y-9143174D02*
X1405658Y-9133650D01*
X1405658Y-9133650D02*
X1434229Y-9133650D01*
X1434229Y-9133650D02*
X1453277Y-9143174D01*
X1453277Y-9143174D02*
X1462801Y-9162222D01*
X1462801Y-9162222D02*
X1462801Y-9266984D01*
X1462801Y-9162222D02*
X1472324Y-9143174D01*
X1472324Y-9143174D02*
X1491372Y-9133650D01*
X1491372Y-9133650D02*
X1519943Y-9133650D01*
X1519943Y-9133650D02*
X1538991Y-9143174D01*
X1538991Y-9143174D02*
X1548515Y-9162222D01*
X1548515Y-9162222D02*
X1548515Y-9266984D01*
X1938991Y-9057460D02*
X1767563Y-9314603D01*
X2196134Y-9066984D02*
X2215182Y-9066984D01*
X2215182Y-9066984D02*
X2234229Y-9076508D01*
X2234229Y-9076508D02*
X2243753Y-9086031D01*
X2243753Y-9086031D02*
X2253277Y-9105079D01*
X2253277Y-9105079D02*
X2262801Y-9143174D01*
X2262801Y-9143174D02*
X2262801Y-9190793D01*
X2262801Y-9190793D02*
X2253277Y-9228889D01*
X2253277Y-9228889D02*
X2243753Y-9247936D01*
X2243753Y-9247936D02*
X2234229Y-9257460D01*
X2234229Y-9257460D02*
X2215182Y-9266984D01*
X2215182Y-9266984D02*
X2196134Y-9266984D01*
X2196134Y-9266984D02*
X2177087Y-9257460D01*
X2177087Y-9257460D02*
X2167563Y-9247936D01*
X2167563Y-9247936D02*
X2158039Y-9228889D01*
X2158039Y-9228889D02*
X2148515Y-9190793D01*
X2148515Y-9190793D02*
X2148515Y-9143174D01*
X2148515Y-9143174D02*
X2158039Y-9105079D01*
X2158039Y-9105079D02*
X2167563Y-9086031D01*
X2167563Y-9086031D02*
X2177087Y-9076508D01*
X2177087Y-9076508D02*
X2196134Y-9066984D01*
X2348515Y-9247936D02*
X2358039Y-9257460D01*
X2358039Y-9257460D02*
X2348515Y-9266984D01*
X2348515Y-9266984D02*
X2338991Y-9257460D01*
X2338991Y-9257460D02*
X2348515Y-9247936D01*
X2348515Y-9247936D02*
X2348515Y-9266984D01*
X2481848Y-9066984D02*
X2500896Y-9066984D01*
X2500896Y-9066984D02*
X2519944Y-9076508D01*
X2519944Y-9076508D02*
X2529468Y-9086031D01*
X2529468Y-9086031D02*
X2538991Y-9105079D01*
X2538991Y-9105079D02*
X2548515Y-9143174D01*
X2548515Y-9143174D02*
X2548515Y-9190793D01*
X2548515Y-9190793D02*
X2538991Y-9228889D01*
X2538991Y-9228889D02*
X2529468Y-9247936D01*
X2529468Y-9247936D02*
X2519944Y-9257460D01*
X2519944Y-9257460D02*
X2500896Y-9266984D01*
X2500896Y-9266984D02*
X2481848Y-9266984D01*
X2481848Y-9266984D02*
X2462801Y-9257460D01*
X2462801Y-9257460D02*
X2453277Y-9247936D01*
X2453277Y-9247936D02*
X2443753Y-9228889D01*
X2443753Y-9228889D02*
X2434229Y-9190793D01*
X2434229Y-9190793D02*
X2434229Y-9143174D01*
X2434229Y-9143174D02*
X2443753Y-9105079D01*
X2443753Y-9105079D02*
X2453277Y-9086031D01*
X2453277Y-9086031D02*
X2462801Y-9076508D01*
X2462801Y-9076508D02*
X2481848Y-9066984D01*
X2738991Y-9266984D02*
X2624706Y-9266984D01*
X2681848Y-9266984D02*
X2681848Y-9066984D01*
X2681848Y-9066984D02*
X2662801Y-9095555D01*
X2662801Y-9095555D02*
X2643753Y-9114603D01*
X2643753Y-9114603D02*
X2624706Y-9124127D01*
X2929467Y-9266984D02*
X2815182Y-9266984D01*
X2872325Y-9266984D02*
X2872325Y-9066984D01*
X2872325Y-9066984D02*
X2853277Y-9095555D01*
X2853277Y-9095555D02*
X2834229Y-9114603D01*
X2834229Y-9114603D02*
X2815182Y-9124127D01*
X3043753Y-9152698D02*
X3024706Y-9143174D01*
X3024706Y-9143174D02*
X3015182Y-9133650D01*
X3015182Y-9133650D02*
X3005658Y-9114603D01*
X3005658Y-9114603D02*
X3005658Y-9105079D01*
X3005658Y-9105079D02*
X3015182Y-9086031D01*
X3015182Y-9086031D02*
X3024706Y-9076508D01*
X3024706Y-9076508D02*
X3043753Y-9066984D01*
X3043753Y-9066984D02*
X3081848Y-9066984D01*
X3081848Y-9066984D02*
X3100896Y-9076508D01*
X3100896Y-9076508D02*
X3110420Y-9086031D01*
X3110420Y-9086031D02*
X3119944Y-9105079D01*
X3119944Y-9105079D02*
X3119944Y-9114603D01*
X3119944Y-9114603D02*
X3110420Y-9133650D01*
X3110420Y-9133650D02*
X3100896Y-9143174D01*
X3100896Y-9143174D02*
X3081848Y-9152698D01*
X3081848Y-9152698D02*
X3043753Y-9152698D01*
X3043753Y-9152698D02*
X3024706Y-9162222D01*
X3024706Y-9162222D02*
X3015182Y-9171746D01*
X3015182Y-9171746D02*
X3005658Y-9190793D01*
X3005658Y-9190793D02*
X3005658Y-9228889D01*
X3005658Y-9228889D02*
X3015182Y-9247936D01*
X3015182Y-9247936D02*
X3024706Y-9257460D01*
X3024706Y-9257460D02*
X3043753Y-9266984D01*
X3043753Y-9266984D02*
X3081848Y-9266984D01*
X3081848Y-9266984D02*
X3100896Y-9257460D01*
X3100896Y-9257460D02*
X3110420Y-9247936D01*
X3110420Y-9247936D02*
X3119944Y-9228889D01*
X3119944Y-9228889D02*
X3119944Y-9190793D01*
X3119944Y-9190793D02*
X3110420Y-9171746D01*
X3110420Y-9171746D02*
X3100896Y-9162222D01*
X3100896Y-9162222D02*
X3081848Y-9152698D01*
X3196134Y-9066984D02*
X3196134Y-9105079D01*
X3272325Y-9066984D02*
X3272325Y-9105079D01*
X3567563Y-9343174D02*
X3558039Y-9333650D01*
X3558039Y-9333650D02*
X3538991Y-9305079D01*
X3538991Y-9305079D02*
X3529468Y-9286031D01*
X3529468Y-9286031D02*
X3519944Y-9257460D01*
X3519944Y-9257460D02*
X3510420Y-9209841D01*
X3510420Y-9209841D02*
X3510420Y-9171746D01*
X3510420Y-9171746D02*
X3519944Y-9124127D01*
X3519944Y-9124127D02*
X3529468Y-9095555D01*
X3529468Y-9095555D02*
X3538991Y-9076508D01*
X3538991Y-9076508D02*
X3558039Y-9047936D01*
X3558039Y-9047936D02*
X3567563Y-9038412D01*
X3672325Y-9152698D02*
X3653277Y-9143174D01*
X3653277Y-9143174D02*
X3643753Y-9133650D01*
X3643753Y-9133650D02*
X3634229Y-9114603D01*
X3634229Y-9114603D02*
X3634229Y-9105079D01*
X3634229Y-9105079D02*
X3643753Y-9086031D01*
X3643753Y-9086031D02*
X3653277Y-9076508D01*
X3653277Y-9076508D02*
X3672325Y-9066984D01*
X3672325Y-9066984D02*
X3710420Y-9066984D01*
X3710420Y-9066984D02*
X3729468Y-9076508D01*
X3729468Y-9076508D02*
X3738991Y-9086031D01*
X3738991Y-9086031D02*
X3748515Y-9105079D01*
X3748515Y-9105079D02*
X3748515Y-9114603D01*
X3748515Y-9114603D02*
X3738991Y-9133650D01*
X3738991Y-9133650D02*
X3729468Y-9143174D01*
X3729468Y-9143174D02*
X3710420Y-9152698D01*
X3710420Y-9152698D02*
X3672325Y-9152698D01*
X3672325Y-9152698D02*
X3653277Y-9162222D01*
X3653277Y-9162222D02*
X3643753Y-9171746D01*
X3643753Y-9171746D02*
X3634229Y-9190793D01*
X3634229Y-9190793D02*
X3634229Y-9228889D01*
X3634229Y-9228889D02*
X3643753Y-9247936D01*
X3643753Y-9247936D02*
X3653277Y-9257460D01*
X3653277Y-9257460D02*
X3672325Y-9266984D01*
X3672325Y-9266984D02*
X3710420Y-9266984D01*
X3710420Y-9266984D02*
X3729468Y-9257460D01*
X3729468Y-9257460D02*
X3738991Y-9247936D01*
X3738991Y-9247936D02*
X3748515Y-9228889D01*
X3748515Y-9228889D02*
X3748515Y-9190793D01*
X3748515Y-9190793D02*
X3738991Y-9171746D01*
X3738991Y-9171746D02*
X3729468Y-9162222D01*
X3729468Y-9162222D02*
X3710420Y-9152698D01*
X3872325Y-9066984D02*
X3891372Y-9066984D01*
X3891372Y-9066984D02*
X3910420Y-9076508D01*
X3910420Y-9076508D02*
X3919944Y-9086031D01*
X3919944Y-9086031D02*
X3929468Y-9105079D01*
X3929468Y-9105079D02*
X3938991Y-9143174D01*
X3938991Y-9143174D02*
X3938991Y-9190793D01*
X3938991Y-9190793D02*
X3929468Y-9228889D01*
X3929468Y-9228889D02*
X3919944Y-9247936D01*
X3919944Y-9247936D02*
X3910420Y-9257460D01*
X3910420Y-9257460D02*
X3891372Y-9266984D01*
X3891372Y-9266984D02*
X3872325Y-9266984D01*
X3872325Y-9266984D02*
X3853277Y-9257460D01*
X3853277Y-9257460D02*
X3843753Y-9247936D01*
X3843753Y-9247936D02*
X3834229Y-9228889D01*
X3834229Y-9228889D02*
X3824706Y-9190793D01*
X3824706Y-9190793D02*
X3824706Y-9143174D01*
X3824706Y-9143174D02*
X3834229Y-9105079D01*
X3834229Y-9105079D02*
X3843753Y-9086031D01*
X3843753Y-9086031D02*
X3853277Y-9076508D01*
X3853277Y-9076508D02*
X3872325Y-9066984D01*
X4177087Y-9266984D02*
X4177087Y-9066984D01*
X4262801Y-9266984D02*
X4262801Y-9162222D01*
X4262801Y-9162222D02*
X4253277Y-9143174D01*
X4253277Y-9143174D02*
X4234230Y-9133650D01*
X4234230Y-9133650D02*
X4205658Y-9133650D01*
X4205658Y-9133650D02*
X4186610Y-9143174D01*
X4186610Y-9143174D02*
X4177087Y-9152698D01*
X4386611Y-9266984D02*
X4367563Y-9257460D01*
X4367563Y-9257460D02*
X4358039Y-9247936D01*
X4358039Y-9247936D02*
X4348515Y-9228889D01*
X4348515Y-9228889D02*
X4348515Y-9171746D01*
X4348515Y-9171746D02*
X4358039Y-9152698D01*
X4358039Y-9152698D02*
X4367563Y-9143174D01*
X4367563Y-9143174D02*
X4386611Y-9133650D01*
X4386611Y-9133650D02*
X4415182Y-9133650D01*
X4415182Y-9133650D02*
X4434230Y-9143174D01*
X4434230Y-9143174D02*
X4443753Y-9152698D01*
X4443753Y-9152698D02*
X4453277Y-9171746D01*
X4453277Y-9171746D02*
X4453277Y-9228889D01*
X4453277Y-9228889D02*
X4443753Y-9247936D01*
X4443753Y-9247936D02*
X4434230Y-9257460D01*
X4434230Y-9257460D02*
X4415182Y-9266984D01*
X4415182Y-9266984D02*
X4386611Y-9266984D01*
X4567563Y-9266984D02*
X4548515Y-9257460D01*
X4548515Y-9257460D02*
X4538992Y-9238412D01*
X4538992Y-9238412D02*
X4538992Y-9066984D01*
X4719944Y-9257460D02*
X4700896Y-9266984D01*
X4700896Y-9266984D02*
X4662801Y-9266984D01*
X4662801Y-9266984D02*
X4643753Y-9257460D01*
X4643753Y-9257460D02*
X4634230Y-9238412D01*
X4634230Y-9238412D02*
X4634230Y-9162222D01*
X4634230Y-9162222D02*
X4643753Y-9143174D01*
X4643753Y-9143174D02*
X4662801Y-9133650D01*
X4662801Y-9133650D02*
X4700896Y-9133650D01*
X4700896Y-9133650D02*
X4719944Y-9143174D01*
X4719944Y-9143174D02*
X4729468Y-9162222D01*
X4729468Y-9162222D02*
X4729468Y-9181270D01*
X4729468Y-9181270D02*
X4634230Y-9200317D01*
X4805658Y-9257460D02*
X4824706Y-9266984D01*
X4824706Y-9266984D02*
X4862801Y-9266984D01*
X4862801Y-9266984D02*
X4881849Y-9257460D01*
X4881849Y-9257460D02*
X4891373Y-9238412D01*
X4891373Y-9238412D02*
X4891373Y-9228889D01*
X4891373Y-9228889D02*
X4881849Y-9209841D01*
X4881849Y-9209841D02*
X4862801Y-9200317D01*
X4862801Y-9200317D02*
X4834230Y-9200317D01*
X4834230Y-9200317D02*
X4815182Y-9190793D01*
X4815182Y-9190793D02*
X4805658Y-9171746D01*
X4805658Y-9171746D02*
X4805658Y-9162222D01*
X4805658Y-9162222D02*
X4815182Y-9143174D01*
X4815182Y-9143174D02*
X4834230Y-9133650D01*
X4834230Y-9133650D02*
X4862801Y-9133650D01*
X4862801Y-9133650D02*
X4881849Y-9143174D01*
X4958039Y-9343174D02*
X4967563Y-9333650D01*
X4967563Y-9333650D02*
X4986611Y-9305079D01*
X4986611Y-9305079D02*
X4996134Y-9286031D01*
X4996134Y-9286031D02*
X5005658Y-9257460D01*
X5005658Y-9257460D02*
X5015182Y-9209841D01*
X5015182Y-9209841D02*
X5015182Y-9171746D01*
X5015182Y-9171746D02*
X5005658Y-9124127D01*
X5005658Y-9124127D02*
X4996134Y-9095555D01*
X4996134Y-9095555D02*
X4986611Y-9076508D01*
X4986611Y-9076508D02*
X4967563Y-9047936D01*
X4967563Y-9047936D02*
X4958039Y-9038412D01*
D12*
X-16287Y-9460713D02*
X-16287Y-9418287D01*
X-58713Y-9418287D01*
X-58713Y-9460713D01*
X-16287Y-9460713D01*
D11*
X291372Y-9330984D02*
X310420Y-9330984D01*
X310420Y-9330984D02*
X329467Y-9340508D01*
X329467Y-9340508D02*
X338991Y-9350031D01*
X338991Y-9350031D02*
X348515Y-9369079D01*
X348515Y-9369079D02*
X358039Y-9407174D01*
X358039Y-9407174D02*
X358039Y-9454793D01*
X358039Y-9454793D02*
X348515Y-9492889D01*
X348515Y-9492889D02*
X338991Y-9511936D01*
X338991Y-9511936D02*
X329467Y-9521460D01*
X329467Y-9521460D02*
X310420Y-9530984D01*
X310420Y-9530984D02*
X291372Y-9530984D01*
X291372Y-9530984D02*
X272324Y-9521460D01*
X272324Y-9521460D02*
X262801Y-9511936D01*
X262801Y-9511936D02*
X253277Y-9492889D01*
X253277Y-9492889D02*
X243753Y-9454793D01*
X243753Y-9454793D02*
X243753Y-9407174D01*
X243753Y-9407174D02*
X253277Y-9369079D01*
X253277Y-9369079D02*
X262801Y-9350031D01*
X262801Y-9350031D02*
X272324Y-9340508D01*
X272324Y-9340508D02*
X291372Y-9330984D01*
X443753Y-9511936D02*
X453277Y-9521460D01*
X453277Y-9521460D02*
X443753Y-9530984D01*
X443753Y-9530984D02*
X434229Y-9521460D01*
X434229Y-9521460D02*
X443753Y-9511936D01*
X443753Y-9511936D02*
X443753Y-9530984D01*
X624705Y-9330984D02*
X586610Y-9330984D01*
X586610Y-9330984D02*
X567563Y-9340508D01*
X567563Y-9340508D02*
X558039Y-9350031D01*
X558039Y-9350031D02*
X538991Y-9378603D01*
X538991Y-9378603D02*
X529467Y-9416698D01*
X529467Y-9416698D02*
X529467Y-9492889D01*
X529467Y-9492889D02*
X538991Y-9511936D01*
X538991Y-9511936D02*
X548515Y-9521460D01*
X548515Y-9521460D02*
X567563Y-9530984D01*
X567563Y-9530984D02*
X605658Y-9530984D01*
X605658Y-9530984D02*
X624705Y-9521460D01*
X624705Y-9521460D02*
X634229Y-9511936D01*
X634229Y-9511936D02*
X643753Y-9492889D01*
X643753Y-9492889D02*
X643753Y-9445270D01*
X643753Y-9445270D02*
X634229Y-9426222D01*
X634229Y-9426222D02*
X624705Y-9416698D01*
X624705Y-9416698D02*
X605658Y-9407174D01*
X605658Y-9407174D02*
X567563Y-9407174D01*
X567563Y-9407174D02*
X548515Y-9416698D01*
X548515Y-9416698D02*
X538991Y-9426222D01*
X538991Y-9426222D02*
X529467Y-9445270D01*
X767562Y-9330984D02*
X786610Y-9330984D01*
X786610Y-9330984D02*
X805658Y-9340508D01*
X805658Y-9340508D02*
X815182Y-9350031D01*
X815182Y-9350031D02*
X824705Y-9369079D01*
X824705Y-9369079D02*
X834229Y-9407174D01*
X834229Y-9407174D02*
X834229Y-9454793D01*
X834229Y-9454793D02*
X824705Y-9492889D01*
X824705Y-9492889D02*
X815182Y-9511936D01*
X815182Y-9511936D02*
X805658Y-9521460D01*
X805658Y-9521460D02*
X786610Y-9530984D01*
X786610Y-9530984D02*
X767562Y-9530984D01*
X767562Y-9530984D02*
X748515Y-9521460D01*
X748515Y-9521460D02*
X738991Y-9511936D01*
X738991Y-9511936D02*
X729467Y-9492889D01*
X729467Y-9492889D02*
X719943Y-9454793D01*
X719943Y-9454793D02*
X719943Y-9407174D01*
X719943Y-9407174D02*
X729467Y-9369079D01*
X729467Y-9369079D02*
X738991Y-9350031D01*
X738991Y-9350031D02*
X748515Y-9340508D01*
X748515Y-9340508D02*
X767562Y-9330984D01*
X958039Y-9330984D02*
X977086Y-9330984D01*
X977086Y-9330984D02*
X996134Y-9340508D01*
X996134Y-9340508D02*
X1005658Y-9350031D01*
X1005658Y-9350031D02*
X1015182Y-9369079D01*
X1015182Y-9369079D02*
X1024705Y-9407174D01*
X1024705Y-9407174D02*
X1024705Y-9454793D01*
X1024705Y-9454793D02*
X1015182Y-9492889D01*
X1015182Y-9492889D02*
X1005658Y-9511936D01*
X1005658Y-9511936D02*
X996134Y-9521460D01*
X996134Y-9521460D02*
X977086Y-9530984D01*
X977086Y-9530984D02*
X958039Y-9530984D01*
X958039Y-9530984D02*
X938991Y-9521460D01*
X938991Y-9521460D02*
X929467Y-9511936D01*
X929467Y-9511936D02*
X919943Y-9492889D01*
X919943Y-9492889D02*
X910420Y-9454793D01*
X910420Y-9454793D02*
X910420Y-9407174D01*
X910420Y-9407174D02*
X919943Y-9369079D01*
X919943Y-9369079D02*
X929467Y-9350031D01*
X929467Y-9350031D02*
X938991Y-9340508D01*
X938991Y-9340508D02*
X958039Y-9330984D01*
X1110420Y-9530984D02*
X1110420Y-9397650D01*
X1110420Y-9416698D02*
X1119944Y-9407174D01*
X1119944Y-9407174D02*
X1138991Y-9397650D01*
X1138991Y-9397650D02*
X1167563Y-9397650D01*
X1167563Y-9397650D02*
X1186610Y-9407174D01*
X1186610Y-9407174D02*
X1196134Y-9426222D01*
X1196134Y-9426222D02*
X1196134Y-9530984D01*
X1196134Y-9426222D02*
X1205658Y-9407174D01*
X1205658Y-9407174D02*
X1224705Y-9397650D01*
X1224705Y-9397650D02*
X1253277Y-9397650D01*
X1253277Y-9397650D02*
X1272325Y-9407174D01*
X1272325Y-9407174D02*
X1281848Y-9426222D01*
X1281848Y-9426222D02*
X1281848Y-9530984D01*
X1377086Y-9530984D02*
X1377086Y-9397650D01*
X1377086Y-9416698D02*
X1386610Y-9407174D01*
X1386610Y-9407174D02*
X1405658Y-9397650D01*
X1405658Y-9397650D02*
X1434229Y-9397650D01*
X1434229Y-9397650D02*
X1453277Y-9407174D01*
X1453277Y-9407174D02*
X1462801Y-9426222D01*
X1462801Y-9426222D02*
X1462801Y-9530984D01*
X1462801Y-9426222D02*
X1472324Y-9407174D01*
X1472324Y-9407174D02*
X1491372Y-9397650D01*
X1491372Y-9397650D02*
X1519943Y-9397650D01*
X1519943Y-9397650D02*
X1538991Y-9407174D01*
X1538991Y-9407174D02*
X1548515Y-9426222D01*
X1548515Y-9426222D02*
X1548515Y-9530984D01*
X1938991Y-9321460D02*
X1767563Y-9578603D01*
X2196134Y-9330984D02*
X2215182Y-9330984D01*
X2215182Y-9330984D02*
X2234229Y-9340508D01*
X2234229Y-9340508D02*
X2243753Y-9350031D01*
X2243753Y-9350031D02*
X2253277Y-9369079D01*
X2253277Y-9369079D02*
X2262801Y-9407174D01*
X2262801Y-9407174D02*
X2262801Y-9454793D01*
X2262801Y-9454793D02*
X2253277Y-9492889D01*
X2253277Y-9492889D02*
X2243753Y-9511936D01*
X2243753Y-9511936D02*
X2234229Y-9521460D01*
X2234229Y-9521460D02*
X2215182Y-9530984D01*
X2215182Y-9530984D02*
X2196134Y-9530984D01*
X2196134Y-9530984D02*
X2177087Y-9521460D01*
X2177087Y-9521460D02*
X2167563Y-9511936D01*
X2167563Y-9511936D02*
X2158039Y-9492889D01*
X2158039Y-9492889D02*
X2148515Y-9454793D01*
X2148515Y-9454793D02*
X2148515Y-9407174D01*
X2148515Y-9407174D02*
X2158039Y-9369079D01*
X2158039Y-9369079D02*
X2167563Y-9350031D01*
X2167563Y-9350031D02*
X2177087Y-9340508D01*
X2177087Y-9340508D02*
X2196134Y-9330984D01*
X2348515Y-9511936D02*
X2358039Y-9521460D01*
X2358039Y-9521460D02*
X2348515Y-9530984D01*
X2348515Y-9530984D02*
X2338991Y-9521460D01*
X2338991Y-9521460D02*
X2348515Y-9511936D01*
X2348515Y-9511936D02*
X2348515Y-9530984D01*
X2481848Y-9330984D02*
X2500896Y-9330984D01*
X2500896Y-9330984D02*
X2519944Y-9340508D01*
X2519944Y-9340508D02*
X2529468Y-9350031D01*
X2529468Y-9350031D02*
X2538991Y-9369079D01*
X2538991Y-9369079D02*
X2548515Y-9407174D01*
X2548515Y-9407174D02*
X2548515Y-9454793D01*
X2548515Y-9454793D02*
X2538991Y-9492889D01*
X2538991Y-9492889D02*
X2529468Y-9511936D01*
X2529468Y-9511936D02*
X2519944Y-9521460D01*
X2519944Y-9521460D02*
X2500896Y-9530984D01*
X2500896Y-9530984D02*
X2481848Y-9530984D01*
X2481848Y-9530984D02*
X2462801Y-9521460D01*
X2462801Y-9521460D02*
X2453277Y-9511936D01*
X2453277Y-9511936D02*
X2443753Y-9492889D01*
X2443753Y-9492889D02*
X2434229Y-9454793D01*
X2434229Y-9454793D02*
X2434229Y-9407174D01*
X2434229Y-9407174D02*
X2443753Y-9369079D01*
X2443753Y-9369079D02*
X2453277Y-9350031D01*
X2453277Y-9350031D02*
X2462801Y-9340508D01*
X2462801Y-9340508D02*
X2481848Y-9330984D01*
X2624706Y-9350031D02*
X2634229Y-9340508D01*
X2634229Y-9340508D02*
X2653277Y-9330984D01*
X2653277Y-9330984D02*
X2700896Y-9330984D01*
X2700896Y-9330984D02*
X2719944Y-9340508D01*
X2719944Y-9340508D02*
X2729468Y-9350031D01*
X2729468Y-9350031D02*
X2738991Y-9369079D01*
X2738991Y-9369079D02*
X2738991Y-9388127D01*
X2738991Y-9388127D02*
X2729468Y-9416698D01*
X2729468Y-9416698D02*
X2615182Y-9530984D01*
X2615182Y-9530984D02*
X2738991Y-9530984D01*
X2805658Y-9330984D02*
X2929467Y-9330984D01*
X2929467Y-9330984D02*
X2862801Y-9407174D01*
X2862801Y-9407174D02*
X2891372Y-9407174D01*
X2891372Y-9407174D02*
X2910420Y-9416698D01*
X2910420Y-9416698D02*
X2919944Y-9426222D01*
X2919944Y-9426222D02*
X2929467Y-9445270D01*
X2929467Y-9445270D02*
X2929467Y-9492889D01*
X2929467Y-9492889D02*
X2919944Y-9511936D01*
X2919944Y-9511936D02*
X2910420Y-9521460D01*
X2910420Y-9521460D02*
X2891372Y-9530984D01*
X2891372Y-9530984D02*
X2834229Y-9530984D01*
X2834229Y-9530984D02*
X2815182Y-9521460D01*
X2815182Y-9521460D02*
X2805658Y-9511936D01*
X3100896Y-9330984D02*
X3062801Y-9330984D01*
X3062801Y-9330984D02*
X3043753Y-9340508D01*
X3043753Y-9340508D02*
X3034229Y-9350031D01*
X3034229Y-9350031D02*
X3015182Y-9378603D01*
X3015182Y-9378603D02*
X3005658Y-9416698D01*
X3005658Y-9416698D02*
X3005658Y-9492889D01*
X3005658Y-9492889D02*
X3015182Y-9511936D01*
X3015182Y-9511936D02*
X3024706Y-9521460D01*
X3024706Y-9521460D02*
X3043753Y-9530984D01*
X3043753Y-9530984D02*
X3081848Y-9530984D01*
X3081848Y-9530984D02*
X3100896Y-9521460D01*
X3100896Y-9521460D02*
X3110420Y-9511936D01*
X3110420Y-9511936D02*
X3119944Y-9492889D01*
X3119944Y-9492889D02*
X3119944Y-9445270D01*
X3119944Y-9445270D02*
X3110420Y-9426222D01*
X3110420Y-9426222D02*
X3100896Y-9416698D01*
X3100896Y-9416698D02*
X3081848Y-9407174D01*
X3081848Y-9407174D02*
X3043753Y-9407174D01*
X3043753Y-9407174D02*
X3024706Y-9416698D01*
X3024706Y-9416698D02*
X3015182Y-9426222D01*
X3015182Y-9426222D02*
X3005658Y-9445270D01*
X3196134Y-9330984D02*
X3196134Y-9369079D01*
X3272325Y-9330984D02*
X3272325Y-9369079D01*
X3567563Y-9607174D02*
X3558039Y-9597650D01*
X3558039Y-9597650D02*
X3538991Y-9569079D01*
X3538991Y-9569079D02*
X3529468Y-9550031D01*
X3529468Y-9550031D02*
X3519944Y-9521460D01*
X3519944Y-9521460D02*
X3510420Y-9473841D01*
X3510420Y-9473841D02*
X3510420Y-9435746D01*
X3510420Y-9435746D02*
X3519944Y-9388127D01*
X3519944Y-9388127D02*
X3529468Y-9359555D01*
X3529468Y-9359555D02*
X3538991Y-9340508D01*
X3538991Y-9340508D02*
X3558039Y-9311936D01*
X3558039Y-9311936D02*
X3567563Y-9302412D01*
X3681848Y-9330984D02*
X3700896Y-9330984D01*
X3700896Y-9330984D02*
X3719944Y-9340508D01*
X3719944Y-9340508D02*
X3729468Y-9350031D01*
X3729468Y-9350031D02*
X3738991Y-9369079D01*
X3738991Y-9369079D02*
X3748515Y-9407174D01*
X3748515Y-9407174D02*
X3748515Y-9454793D01*
X3748515Y-9454793D02*
X3738991Y-9492889D01*
X3738991Y-9492889D02*
X3729468Y-9511936D01*
X3729468Y-9511936D02*
X3719944Y-9521460D01*
X3719944Y-9521460D02*
X3700896Y-9530984D01*
X3700896Y-9530984D02*
X3681848Y-9530984D01*
X3681848Y-9530984D02*
X3662801Y-9521460D01*
X3662801Y-9521460D02*
X3653277Y-9511936D01*
X3653277Y-9511936D02*
X3643753Y-9492889D01*
X3643753Y-9492889D02*
X3634229Y-9454793D01*
X3634229Y-9454793D02*
X3634229Y-9407174D01*
X3634229Y-9407174D02*
X3643753Y-9369079D01*
X3643753Y-9369079D02*
X3653277Y-9350031D01*
X3653277Y-9350031D02*
X3662801Y-9340508D01*
X3662801Y-9340508D02*
X3681848Y-9330984D01*
X3986610Y-9530984D02*
X3986610Y-9330984D01*
X4072325Y-9530984D02*
X4072325Y-9426222D01*
X4072325Y-9426222D02*
X4062801Y-9407174D01*
X4062801Y-9407174D02*
X4043753Y-9397650D01*
X4043753Y-9397650D02*
X4015182Y-9397650D01*
X4015182Y-9397650D02*
X3996134Y-9407174D01*
X3996134Y-9407174D02*
X3986610Y-9416698D01*
X4196134Y-9530984D02*
X4177087Y-9521460D01*
X4177087Y-9521460D02*
X4167563Y-9511936D01*
X4167563Y-9511936D02*
X4158039Y-9492889D01*
X4158039Y-9492889D02*
X4158039Y-9435746D01*
X4158039Y-9435746D02*
X4167563Y-9416698D01*
X4167563Y-9416698D02*
X4177087Y-9407174D01*
X4177087Y-9407174D02*
X4196134Y-9397650D01*
X4196134Y-9397650D02*
X4224706Y-9397650D01*
X4224706Y-9397650D02*
X4243753Y-9407174D01*
X4243753Y-9407174D02*
X4253277Y-9416698D01*
X4253277Y-9416698D02*
X4262801Y-9435746D01*
X4262801Y-9435746D02*
X4262801Y-9492889D01*
X4262801Y-9492889D02*
X4253277Y-9511936D01*
X4253277Y-9511936D02*
X4243753Y-9521460D01*
X4243753Y-9521460D02*
X4224706Y-9530984D01*
X4224706Y-9530984D02*
X4196134Y-9530984D01*
X4377087Y-9530984D02*
X4358039Y-9521460D01*
X4358039Y-9521460D02*
X4348515Y-9502412D01*
X4348515Y-9502412D02*
X4348515Y-9330984D01*
X4529468Y-9521460D02*
X4510420Y-9530984D01*
X4510420Y-9530984D02*
X4472325Y-9530984D01*
X4472325Y-9530984D02*
X4453277Y-9521460D01*
X4453277Y-9521460D02*
X4443753Y-9502412D01*
X4443753Y-9502412D02*
X4443753Y-9426222D01*
X4443753Y-9426222D02*
X4453277Y-9407174D01*
X4453277Y-9407174D02*
X4472325Y-9397650D01*
X4472325Y-9397650D02*
X4510420Y-9397650D01*
X4510420Y-9397650D02*
X4529468Y-9407174D01*
X4529468Y-9407174D02*
X4538992Y-9426222D01*
X4538992Y-9426222D02*
X4538992Y-9445270D01*
X4538992Y-9445270D02*
X4443753Y-9464317D01*
X4615182Y-9521460D02*
X4634230Y-9530984D01*
X4634230Y-9530984D02*
X4672325Y-9530984D01*
X4672325Y-9530984D02*
X4691373Y-9521460D01*
X4691373Y-9521460D02*
X4700896Y-9502412D01*
X4700896Y-9502412D02*
X4700896Y-9492889D01*
X4700896Y-9492889D02*
X4691373Y-9473841D01*
X4691373Y-9473841D02*
X4672325Y-9464317D01*
X4672325Y-9464317D02*
X4643753Y-9464317D01*
X4643753Y-9464317D02*
X4624706Y-9454793D01*
X4624706Y-9454793D02*
X4615182Y-9435746D01*
X4615182Y-9435746D02*
X4615182Y-9426222D01*
X4615182Y-9426222D02*
X4624706Y-9407174D01*
X4624706Y-9407174D02*
X4643753Y-9397650D01*
X4643753Y-9397650D02*
X4672325Y-9397650D01*
X4672325Y-9397650D02*
X4691373Y-9407174D01*
X4938992Y-9454793D02*
X5091373Y-9454793D01*
X5015182Y-9530984D02*
X5015182Y-9378603D01*
X5424706Y-9397650D02*
X5424706Y-9530984D01*
X5377087Y-9321460D02*
X5329468Y-9464317D01*
X5329468Y-9464317D02*
X5453277Y-9464317D01*
X5672325Y-9521460D02*
X5691373Y-9530984D01*
X5691373Y-9530984D02*
X5729468Y-9530984D01*
X5729468Y-9530984D02*
X5748515Y-9521460D01*
X5748515Y-9521460D02*
X5758039Y-9502412D01*
X5758039Y-9502412D02*
X5758039Y-9492889D01*
X5758039Y-9492889D02*
X5748515Y-9473841D01*
X5748515Y-9473841D02*
X5729468Y-9464317D01*
X5729468Y-9464317D02*
X5700896Y-9464317D01*
X5700896Y-9464317D02*
X5681849Y-9454793D01*
X5681849Y-9454793D02*
X5672325Y-9435746D01*
X5672325Y-9435746D02*
X5672325Y-9426222D01*
X5672325Y-9426222D02*
X5681849Y-9407174D01*
X5681849Y-9407174D02*
X5700896Y-9397650D01*
X5700896Y-9397650D02*
X5729468Y-9397650D01*
X5729468Y-9397650D02*
X5748515Y-9407174D01*
X5872325Y-9530984D02*
X5853277Y-9521460D01*
X5853277Y-9521460D02*
X5843754Y-9502412D01*
X5843754Y-9502412D02*
X5843754Y-9330984D01*
X5977087Y-9530984D02*
X5958039Y-9521460D01*
X5958039Y-9521460D02*
X5948515Y-9511936D01*
X5948515Y-9511936D02*
X5938992Y-9492889D01*
X5938992Y-9492889D02*
X5938992Y-9435746D01*
X5938992Y-9435746D02*
X5948515Y-9416698D01*
X5948515Y-9416698D02*
X5958039Y-9407174D01*
X5958039Y-9407174D02*
X5977087Y-9397650D01*
X5977087Y-9397650D02*
X6005658Y-9397650D01*
X6005658Y-9397650D02*
X6024706Y-9407174D01*
X6024706Y-9407174D02*
X6034230Y-9416698D01*
X6034230Y-9416698D02*
X6043754Y-9435746D01*
X6043754Y-9435746D02*
X6043754Y-9492889D01*
X6043754Y-9492889D02*
X6034230Y-9511936D01*
X6034230Y-9511936D02*
X6024706Y-9521460D01*
X6024706Y-9521460D02*
X6005658Y-9530984D01*
X6005658Y-9530984D02*
X5977087Y-9530984D01*
X6100896Y-9397650D02*
X6177087Y-9397650D01*
X6129468Y-9330984D02*
X6129468Y-9502412D01*
X6129468Y-9502412D02*
X6138992Y-9521460D01*
X6138992Y-9521460D02*
X6158039Y-9530984D01*
X6158039Y-9530984D02*
X6177087Y-9530984D01*
X6234230Y-9521460D02*
X6253277Y-9530984D01*
X6253277Y-9530984D02*
X6291373Y-9530984D01*
X6291373Y-9530984D02*
X6310420Y-9521460D01*
X6310420Y-9521460D02*
X6319944Y-9502412D01*
X6319944Y-9502412D02*
X6319944Y-9492889D01*
X6319944Y-9492889D02*
X6310420Y-9473841D01*
X6310420Y-9473841D02*
X6291373Y-9464317D01*
X6291373Y-9464317D02*
X6262801Y-9464317D01*
X6262801Y-9464317D02*
X6243754Y-9454793D01*
X6243754Y-9454793D02*
X6234230Y-9435746D01*
X6234230Y-9435746D02*
X6234230Y-9426222D01*
X6234230Y-9426222D02*
X6243754Y-9407174D01*
X6243754Y-9407174D02*
X6262801Y-9397650D01*
X6262801Y-9397650D02*
X6291373Y-9397650D01*
X6291373Y-9397650D02*
X6310420Y-9407174D01*
X6386611Y-9607174D02*
X6396135Y-9597650D01*
X6396135Y-9597650D02*
X6415182Y-9569079D01*
X6415182Y-9569079D02*
X6424706Y-9550031D01*
X6424706Y-9550031D02*
X6434230Y-9521460D01*
X6434230Y-9521460D02*
X6443754Y-9473841D01*
X6443754Y-9473841D02*
X6443754Y-9435746D01*
X6443754Y-9435746D02*
X6434230Y-9388127D01*
X6434230Y-9388127D02*
X6424706Y-9359555D01*
X6424706Y-9359555D02*
X6415182Y-9340508D01*
X6415182Y-9340508D02*
X6396135Y-9311936D01*
X6396135Y-9311936D02*
X6386611Y-9302412D01*
D12*
X-45000Y-9741000D02*
X-7500Y-9703500D01*
X-45000Y-9666000D01*
X-82500Y-9703500D01*
X-45000Y-9741000D01*
D11*
X291372Y-9594984D02*
X310420Y-9594984D01*
X310420Y-9594984D02*
X329467Y-9604508D01*
X329467Y-9604508D02*
X338991Y-9614031D01*
X338991Y-9614031D02*
X348515Y-9633079D01*
X348515Y-9633079D02*
X358039Y-9671174D01*
X358039Y-9671174D02*
X358039Y-9718793D01*
X358039Y-9718793D02*
X348515Y-9756889D01*
X348515Y-9756889D02*
X338991Y-9775936D01*
X338991Y-9775936D02*
X329467Y-9785460D01*
X329467Y-9785460D02*
X310420Y-9794984D01*
X310420Y-9794984D02*
X291372Y-9794984D01*
X291372Y-9794984D02*
X272324Y-9785460D01*
X272324Y-9785460D02*
X262801Y-9775936D01*
X262801Y-9775936D02*
X253277Y-9756889D01*
X253277Y-9756889D02*
X243753Y-9718793D01*
X243753Y-9718793D02*
X243753Y-9671174D01*
X243753Y-9671174D02*
X253277Y-9633079D01*
X253277Y-9633079D02*
X262801Y-9614031D01*
X262801Y-9614031D02*
X272324Y-9604508D01*
X272324Y-9604508D02*
X291372Y-9594984D01*
X443753Y-9775936D02*
X453277Y-9785460D01*
X453277Y-9785460D02*
X443753Y-9794984D01*
X443753Y-9794984D02*
X434229Y-9785460D01*
X434229Y-9785460D02*
X443753Y-9775936D01*
X443753Y-9775936D02*
X443753Y-9794984D01*
X519943Y-9594984D02*
X653277Y-9594984D01*
X653277Y-9594984D02*
X567563Y-9794984D01*
X824705Y-9594984D02*
X729467Y-9594984D01*
X729467Y-9594984D02*
X719943Y-9690222D01*
X719943Y-9690222D02*
X729467Y-9680698D01*
X729467Y-9680698D02*
X748515Y-9671174D01*
X748515Y-9671174D02*
X796134Y-9671174D01*
X796134Y-9671174D02*
X815182Y-9680698D01*
X815182Y-9680698D02*
X824705Y-9690222D01*
X824705Y-9690222D02*
X834229Y-9709270D01*
X834229Y-9709270D02*
X834229Y-9756889D01*
X834229Y-9756889D02*
X824705Y-9775936D01*
X824705Y-9775936D02*
X815182Y-9785460D01*
X815182Y-9785460D02*
X796134Y-9794984D01*
X796134Y-9794984D02*
X748515Y-9794984D01*
X748515Y-9794984D02*
X729467Y-9785460D01*
X729467Y-9785460D02*
X719943Y-9775936D01*
X958039Y-9594984D02*
X977086Y-9594984D01*
X977086Y-9594984D02*
X996134Y-9604508D01*
X996134Y-9604508D02*
X1005658Y-9614031D01*
X1005658Y-9614031D02*
X1015182Y-9633079D01*
X1015182Y-9633079D02*
X1024705Y-9671174D01*
X1024705Y-9671174D02*
X1024705Y-9718793D01*
X1024705Y-9718793D02*
X1015182Y-9756889D01*
X1015182Y-9756889D02*
X1005658Y-9775936D01*
X1005658Y-9775936D02*
X996134Y-9785460D01*
X996134Y-9785460D02*
X977086Y-9794984D01*
X977086Y-9794984D02*
X958039Y-9794984D01*
X958039Y-9794984D02*
X938991Y-9785460D01*
X938991Y-9785460D02*
X929467Y-9775936D01*
X929467Y-9775936D02*
X919943Y-9756889D01*
X919943Y-9756889D02*
X910420Y-9718793D01*
X910420Y-9718793D02*
X910420Y-9671174D01*
X910420Y-9671174D02*
X919943Y-9633079D01*
X919943Y-9633079D02*
X929467Y-9614031D01*
X929467Y-9614031D02*
X938991Y-9604508D01*
X938991Y-9604508D02*
X958039Y-9594984D01*
X1110420Y-9794984D02*
X1110420Y-9661650D01*
X1110420Y-9680698D02*
X1119944Y-9671174D01*
X1119944Y-9671174D02*
X1138991Y-9661650D01*
X1138991Y-9661650D02*
X1167563Y-9661650D01*
X1167563Y-9661650D02*
X1186610Y-9671174D01*
X1186610Y-9671174D02*
X1196134Y-9690222D01*
X1196134Y-9690222D02*
X1196134Y-9794984D01*
X1196134Y-9690222D02*
X1205658Y-9671174D01*
X1205658Y-9671174D02*
X1224705Y-9661650D01*
X1224705Y-9661650D02*
X1253277Y-9661650D01*
X1253277Y-9661650D02*
X1272325Y-9671174D01*
X1272325Y-9671174D02*
X1281848Y-9690222D01*
X1281848Y-9690222D02*
X1281848Y-9794984D01*
X1377086Y-9794984D02*
X1377086Y-9661650D01*
X1377086Y-9680698D02*
X1386610Y-9671174D01*
X1386610Y-9671174D02*
X1405658Y-9661650D01*
X1405658Y-9661650D02*
X1434229Y-9661650D01*
X1434229Y-9661650D02*
X1453277Y-9671174D01*
X1453277Y-9671174D02*
X1462801Y-9690222D01*
X1462801Y-9690222D02*
X1462801Y-9794984D01*
X1462801Y-9690222D02*
X1472324Y-9671174D01*
X1472324Y-9671174D02*
X1491372Y-9661650D01*
X1491372Y-9661650D02*
X1519943Y-9661650D01*
X1519943Y-9661650D02*
X1538991Y-9671174D01*
X1538991Y-9671174D02*
X1548515Y-9690222D01*
X1548515Y-9690222D02*
X1548515Y-9794984D01*
X1938991Y-9585460D02*
X1767563Y-9842603D01*
X2196134Y-9594984D02*
X2215182Y-9594984D01*
X2215182Y-9594984D02*
X2234229Y-9604508D01*
X2234229Y-9604508D02*
X2243753Y-9614031D01*
X2243753Y-9614031D02*
X2253277Y-9633079D01*
X2253277Y-9633079D02*
X2262801Y-9671174D01*
X2262801Y-9671174D02*
X2262801Y-9718793D01*
X2262801Y-9718793D02*
X2253277Y-9756889D01*
X2253277Y-9756889D02*
X2243753Y-9775936D01*
X2243753Y-9775936D02*
X2234229Y-9785460D01*
X2234229Y-9785460D02*
X2215182Y-9794984D01*
X2215182Y-9794984D02*
X2196134Y-9794984D01*
X2196134Y-9794984D02*
X2177087Y-9785460D01*
X2177087Y-9785460D02*
X2167563Y-9775936D01*
X2167563Y-9775936D02*
X2158039Y-9756889D01*
X2158039Y-9756889D02*
X2148515Y-9718793D01*
X2148515Y-9718793D02*
X2148515Y-9671174D01*
X2148515Y-9671174D02*
X2158039Y-9633079D01*
X2158039Y-9633079D02*
X2167563Y-9614031D01*
X2167563Y-9614031D02*
X2177087Y-9604508D01*
X2177087Y-9604508D02*
X2196134Y-9594984D01*
X2348515Y-9775936D02*
X2358039Y-9785460D01*
X2358039Y-9785460D02*
X2348515Y-9794984D01*
X2348515Y-9794984D02*
X2338991Y-9785460D01*
X2338991Y-9785460D02*
X2348515Y-9775936D01*
X2348515Y-9775936D02*
X2348515Y-9794984D01*
X2481848Y-9594984D02*
X2500896Y-9594984D01*
X2500896Y-9594984D02*
X2519944Y-9604508D01*
X2519944Y-9604508D02*
X2529468Y-9614031D01*
X2529468Y-9614031D02*
X2538991Y-9633079D01*
X2538991Y-9633079D02*
X2548515Y-9671174D01*
X2548515Y-9671174D02*
X2548515Y-9718793D01*
X2548515Y-9718793D02*
X2538991Y-9756889D01*
X2538991Y-9756889D02*
X2529468Y-9775936D01*
X2529468Y-9775936D02*
X2519944Y-9785460D01*
X2519944Y-9785460D02*
X2500896Y-9794984D01*
X2500896Y-9794984D02*
X2481848Y-9794984D01*
X2481848Y-9794984D02*
X2462801Y-9785460D01*
X2462801Y-9785460D02*
X2453277Y-9775936D01*
X2453277Y-9775936D02*
X2443753Y-9756889D01*
X2443753Y-9756889D02*
X2434229Y-9718793D01*
X2434229Y-9718793D02*
X2434229Y-9671174D01*
X2434229Y-9671174D02*
X2443753Y-9633079D01*
X2443753Y-9633079D02*
X2453277Y-9614031D01*
X2453277Y-9614031D02*
X2462801Y-9604508D01*
X2462801Y-9604508D02*
X2481848Y-9594984D01*
X2624706Y-9614031D02*
X2634229Y-9604508D01*
X2634229Y-9604508D02*
X2653277Y-9594984D01*
X2653277Y-9594984D02*
X2700896Y-9594984D01*
X2700896Y-9594984D02*
X2719944Y-9604508D01*
X2719944Y-9604508D02*
X2729468Y-9614031D01*
X2729468Y-9614031D02*
X2738991Y-9633079D01*
X2738991Y-9633079D02*
X2738991Y-9652127D01*
X2738991Y-9652127D02*
X2729468Y-9680698D01*
X2729468Y-9680698D02*
X2615182Y-9794984D01*
X2615182Y-9794984D02*
X2738991Y-9794984D01*
X2834229Y-9794984D02*
X2872325Y-9794984D01*
X2872325Y-9794984D02*
X2891372Y-9785460D01*
X2891372Y-9785460D02*
X2900896Y-9775936D01*
X2900896Y-9775936D02*
X2919944Y-9747365D01*
X2919944Y-9747365D02*
X2929467Y-9709270D01*
X2929467Y-9709270D02*
X2929467Y-9633079D01*
X2929467Y-9633079D02*
X2919944Y-9614031D01*
X2919944Y-9614031D02*
X2910420Y-9604508D01*
X2910420Y-9604508D02*
X2891372Y-9594984D01*
X2891372Y-9594984D02*
X2853277Y-9594984D01*
X2853277Y-9594984D02*
X2834229Y-9604508D01*
X2834229Y-9604508D02*
X2824706Y-9614031D01*
X2824706Y-9614031D02*
X2815182Y-9633079D01*
X2815182Y-9633079D02*
X2815182Y-9680698D01*
X2815182Y-9680698D02*
X2824706Y-9699746D01*
X2824706Y-9699746D02*
X2834229Y-9709270D01*
X2834229Y-9709270D02*
X2853277Y-9718793D01*
X2853277Y-9718793D02*
X2891372Y-9718793D01*
X2891372Y-9718793D02*
X2910420Y-9709270D01*
X2910420Y-9709270D02*
X2919944Y-9699746D01*
X2919944Y-9699746D02*
X2929467Y-9680698D01*
X3110420Y-9594984D02*
X3015182Y-9594984D01*
X3015182Y-9594984D02*
X3005658Y-9690222D01*
X3005658Y-9690222D02*
X3015182Y-9680698D01*
X3015182Y-9680698D02*
X3034229Y-9671174D01*
X3034229Y-9671174D02*
X3081848Y-9671174D01*
X3081848Y-9671174D02*
X3100896Y-9680698D01*
X3100896Y-9680698D02*
X3110420Y-9690222D01*
X3110420Y-9690222D02*
X3119944Y-9709270D01*
X3119944Y-9709270D02*
X3119944Y-9756889D01*
X3119944Y-9756889D02*
X3110420Y-9775936D01*
X3110420Y-9775936D02*
X3100896Y-9785460D01*
X3100896Y-9785460D02*
X3081848Y-9794984D01*
X3081848Y-9794984D02*
X3034229Y-9794984D01*
X3034229Y-9794984D02*
X3015182Y-9785460D01*
X3015182Y-9785460D02*
X3005658Y-9775936D01*
X3196134Y-9594984D02*
X3196134Y-9633079D01*
X3272325Y-9594984D02*
X3272325Y-9633079D01*
X3567563Y-9871174D02*
X3558039Y-9861650D01*
X3558039Y-9861650D02*
X3538991Y-9833079D01*
X3538991Y-9833079D02*
X3529468Y-9814031D01*
X3529468Y-9814031D02*
X3519944Y-9785460D01*
X3519944Y-9785460D02*
X3510420Y-9737841D01*
X3510420Y-9737841D02*
X3510420Y-9699746D01*
X3510420Y-9699746D02*
X3519944Y-9652127D01*
X3519944Y-9652127D02*
X3529468Y-9623555D01*
X3529468Y-9623555D02*
X3538991Y-9604508D01*
X3538991Y-9604508D02*
X3558039Y-9575936D01*
X3558039Y-9575936D02*
X3567563Y-9566412D01*
X3672325Y-9680698D02*
X3653277Y-9671174D01*
X3653277Y-9671174D02*
X3643753Y-9661650D01*
X3643753Y-9661650D02*
X3634229Y-9642603D01*
X3634229Y-9642603D02*
X3634229Y-9633079D01*
X3634229Y-9633079D02*
X3643753Y-9614031D01*
X3643753Y-9614031D02*
X3653277Y-9604508D01*
X3653277Y-9604508D02*
X3672325Y-9594984D01*
X3672325Y-9594984D02*
X3710420Y-9594984D01*
X3710420Y-9594984D02*
X3729468Y-9604508D01*
X3729468Y-9604508D02*
X3738991Y-9614031D01*
X3738991Y-9614031D02*
X3748515Y-9633079D01*
X3748515Y-9633079D02*
X3748515Y-9642603D01*
X3748515Y-9642603D02*
X3738991Y-9661650D01*
X3738991Y-9661650D02*
X3729468Y-9671174D01*
X3729468Y-9671174D02*
X3710420Y-9680698D01*
X3710420Y-9680698D02*
X3672325Y-9680698D01*
X3672325Y-9680698D02*
X3653277Y-9690222D01*
X3653277Y-9690222D02*
X3643753Y-9699746D01*
X3643753Y-9699746D02*
X3634229Y-9718793D01*
X3634229Y-9718793D02*
X3634229Y-9756889D01*
X3634229Y-9756889D02*
X3643753Y-9775936D01*
X3643753Y-9775936D02*
X3653277Y-9785460D01*
X3653277Y-9785460D02*
X3672325Y-9794984D01*
X3672325Y-9794984D02*
X3710420Y-9794984D01*
X3710420Y-9794984D02*
X3729468Y-9785460D01*
X3729468Y-9785460D02*
X3738991Y-9775936D01*
X3738991Y-9775936D02*
X3748515Y-9756889D01*
X3748515Y-9756889D02*
X3748515Y-9718793D01*
X3748515Y-9718793D02*
X3738991Y-9699746D01*
X3738991Y-9699746D02*
X3729468Y-9690222D01*
X3729468Y-9690222D02*
X3710420Y-9680698D01*
X3986610Y-9794984D02*
X3986610Y-9594984D01*
X4072325Y-9794984D02*
X4072325Y-9690222D01*
X4072325Y-9690222D02*
X4062801Y-9671174D01*
X4062801Y-9671174D02*
X4043753Y-9661650D01*
X4043753Y-9661650D02*
X4015182Y-9661650D01*
X4015182Y-9661650D02*
X3996134Y-9671174D01*
X3996134Y-9671174D02*
X3986610Y-9680698D01*
X4196134Y-9794984D02*
X4177087Y-9785460D01*
X4177087Y-9785460D02*
X4167563Y-9775936D01*
X4167563Y-9775936D02*
X4158039Y-9756889D01*
X4158039Y-9756889D02*
X4158039Y-9699746D01*
X4158039Y-9699746D02*
X4167563Y-9680698D01*
X4167563Y-9680698D02*
X4177087Y-9671174D01*
X4177087Y-9671174D02*
X4196134Y-9661650D01*
X4196134Y-9661650D02*
X4224706Y-9661650D01*
X4224706Y-9661650D02*
X4243753Y-9671174D01*
X4243753Y-9671174D02*
X4253277Y-9680698D01*
X4253277Y-9680698D02*
X4262801Y-9699746D01*
X4262801Y-9699746D02*
X4262801Y-9756889D01*
X4262801Y-9756889D02*
X4253277Y-9775936D01*
X4253277Y-9775936D02*
X4243753Y-9785460D01*
X4243753Y-9785460D02*
X4224706Y-9794984D01*
X4224706Y-9794984D02*
X4196134Y-9794984D01*
X4377087Y-9794984D02*
X4358039Y-9785460D01*
X4358039Y-9785460D02*
X4348515Y-9766412D01*
X4348515Y-9766412D02*
X4348515Y-9594984D01*
X4529468Y-9785460D02*
X4510420Y-9794984D01*
X4510420Y-9794984D02*
X4472325Y-9794984D01*
X4472325Y-9794984D02*
X4453277Y-9785460D01*
X4453277Y-9785460D02*
X4443753Y-9766412D01*
X4443753Y-9766412D02*
X4443753Y-9690222D01*
X4443753Y-9690222D02*
X4453277Y-9671174D01*
X4453277Y-9671174D02*
X4472325Y-9661650D01*
X4472325Y-9661650D02*
X4510420Y-9661650D01*
X4510420Y-9661650D02*
X4529468Y-9671174D01*
X4529468Y-9671174D02*
X4538992Y-9690222D01*
X4538992Y-9690222D02*
X4538992Y-9709270D01*
X4538992Y-9709270D02*
X4443753Y-9728317D01*
X4615182Y-9785460D02*
X4634230Y-9794984D01*
X4634230Y-9794984D02*
X4672325Y-9794984D01*
X4672325Y-9794984D02*
X4691373Y-9785460D01*
X4691373Y-9785460D02*
X4700896Y-9766412D01*
X4700896Y-9766412D02*
X4700896Y-9756889D01*
X4700896Y-9756889D02*
X4691373Y-9737841D01*
X4691373Y-9737841D02*
X4672325Y-9728317D01*
X4672325Y-9728317D02*
X4643753Y-9728317D01*
X4643753Y-9728317D02*
X4624706Y-9718793D01*
X4624706Y-9718793D02*
X4615182Y-9699746D01*
X4615182Y-9699746D02*
X4615182Y-9690222D01*
X4615182Y-9690222D02*
X4624706Y-9671174D01*
X4624706Y-9671174D02*
X4643753Y-9661650D01*
X4643753Y-9661650D02*
X4672325Y-9661650D01*
X4672325Y-9661650D02*
X4691373Y-9671174D01*
X4767563Y-9871174D02*
X4777087Y-9861650D01*
X4777087Y-9861650D02*
X4796134Y-9833079D01*
X4796134Y-9833079D02*
X4805658Y-9814031D01*
X4805658Y-9814031D02*
X4815182Y-9785460D01*
X4815182Y-9785460D02*
X4824706Y-9737841D01*
X4824706Y-9737841D02*
X4824706Y-9699746D01*
X4824706Y-9699746D02*
X4815182Y-9652127D01*
X4815182Y-9652127D02*
X4805658Y-9623555D01*
X4805658Y-9623555D02*
X4796134Y-9604508D01*
X4796134Y-9604508D02*
X4777087Y-9575936D01*
X4777087Y-9575936D02*
X4767563Y-9566412D01*
D12*
X-102500Y-9920000D02*
X-7500Y-10015000D01*
X-7500Y-9920000D02*
X-102500Y-10015000D01*
X-7500Y-9967500D02*
G75*
G03*
X-102500Y-9967500I-47500J0D01*
G01*
X-102500Y-9967500D02*
G75*
G03*
X-7500Y-9967500I47500J0D01*
G01*
D11*
X291372Y-9858984D02*
X310420Y-9858984D01*
X310420Y-9858984D02*
X329467Y-9868508D01*
X329467Y-9868508D02*
X338991Y-9878031D01*
X338991Y-9878031D02*
X348515Y-9897079D01*
X348515Y-9897079D02*
X358039Y-9935174D01*
X358039Y-9935174D02*
X358039Y-9982793D01*
X358039Y-9982793D02*
X348515Y-10020889D01*
X348515Y-10020889D02*
X338991Y-10039936D01*
X338991Y-10039936D02*
X329467Y-10049460D01*
X329467Y-10049460D02*
X310420Y-10058984D01*
X310420Y-10058984D02*
X291372Y-10058984D01*
X291372Y-10058984D02*
X272324Y-10049460D01*
X272324Y-10049460D02*
X262801Y-10039936D01*
X262801Y-10039936D02*
X253277Y-10020889D01*
X253277Y-10020889D02*
X243753Y-9982793D01*
X243753Y-9982793D02*
X243753Y-9935174D01*
X243753Y-9935174D02*
X253277Y-9897079D01*
X253277Y-9897079D02*
X262801Y-9878031D01*
X262801Y-9878031D02*
X272324Y-9868508D01*
X272324Y-9868508D02*
X291372Y-9858984D01*
X443753Y-10039936D02*
X453277Y-10049460D01*
X453277Y-10049460D02*
X443753Y-10058984D01*
X443753Y-10058984D02*
X434229Y-10049460D01*
X434229Y-10049460D02*
X443753Y-10039936D01*
X443753Y-10039936D02*
X443753Y-10058984D01*
X548515Y-10058984D02*
X586610Y-10058984D01*
X586610Y-10058984D02*
X605658Y-10049460D01*
X605658Y-10049460D02*
X615182Y-10039936D01*
X615182Y-10039936D02*
X634229Y-10011365D01*
X634229Y-10011365D02*
X643753Y-9973270D01*
X643753Y-9973270D02*
X643753Y-9897079D01*
X643753Y-9897079D02*
X634229Y-9878031D01*
X634229Y-9878031D02*
X624705Y-9868508D01*
X624705Y-9868508D02*
X605658Y-9858984D01*
X605658Y-9858984D02*
X567563Y-9858984D01*
X567563Y-9858984D02*
X548515Y-9868508D01*
X548515Y-9868508D02*
X538991Y-9878031D01*
X538991Y-9878031D02*
X529467Y-9897079D01*
X529467Y-9897079D02*
X529467Y-9944698D01*
X529467Y-9944698D02*
X538991Y-9963746D01*
X538991Y-9963746D02*
X548515Y-9973270D01*
X548515Y-9973270D02*
X567563Y-9982793D01*
X567563Y-9982793D02*
X605658Y-9982793D01*
X605658Y-9982793D02*
X624705Y-9973270D01*
X624705Y-9973270D02*
X634229Y-9963746D01*
X634229Y-9963746D02*
X643753Y-9944698D01*
X824705Y-9858984D02*
X729467Y-9858984D01*
X729467Y-9858984D02*
X719943Y-9954222D01*
X719943Y-9954222D02*
X729467Y-9944698D01*
X729467Y-9944698D02*
X748515Y-9935174D01*
X748515Y-9935174D02*
X796134Y-9935174D01*
X796134Y-9935174D02*
X815182Y-9944698D01*
X815182Y-9944698D02*
X824705Y-9954222D01*
X824705Y-9954222D02*
X834229Y-9973270D01*
X834229Y-9973270D02*
X834229Y-10020889D01*
X834229Y-10020889D02*
X824705Y-10039936D01*
X824705Y-10039936D02*
X815182Y-10049460D01*
X815182Y-10049460D02*
X796134Y-10058984D01*
X796134Y-10058984D02*
X748515Y-10058984D01*
X748515Y-10058984D02*
X729467Y-10049460D01*
X729467Y-10049460D02*
X719943Y-10039936D01*
X958039Y-9858984D02*
X977086Y-9858984D01*
X977086Y-9858984D02*
X996134Y-9868508D01*
X996134Y-9868508D02*
X1005658Y-9878031D01*
X1005658Y-9878031D02*
X1015182Y-9897079D01*
X1015182Y-9897079D02*
X1024705Y-9935174D01*
X1024705Y-9935174D02*
X1024705Y-9982793D01*
X1024705Y-9982793D02*
X1015182Y-10020889D01*
X1015182Y-10020889D02*
X1005658Y-10039936D01*
X1005658Y-10039936D02*
X996134Y-10049460D01*
X996134Y-10049460D02*
X977086Y-10058984D01*
X977086Y-10058984D02*
X958039Y-10058984D01*
X958039Y-10058984D02*
X938991Y-10049460D01*
X938991Y-10049460D02*
X929467Y-10039936D01*
X929467Y-10039936D02*
X919943Y-10020889D01*
X919943Y-10020889D02*
X910420Y-9982793D01*
X910420Y-9982793D02*
X910420Y-9935174D01*
X910420Y-9935174D02*
X919943Y-9897079D01*
X919943Y-9897079D02*
X929467Y-9878031D01*
X929467Y-9878031D02*
X938991Y-9868508D01*
X938991Y-9868508D02*
X958039Y-9858984D01*
X1110420Y-10058984D02*
X1110420Y-9925650D01*
X1110420Y-9944698D02*
X1119944Y-9935174D01*
X1119944Y-9935174D02*
X1138991Y-9925650D01*
X1138991Y-9925650D02*
X1167563Y-9925650D01*
X1167563Y-9925650D02*
X1186610Y-9935174D01*
X1186610Y-9935174D02*
X1196134Y-9954222D01*
X1196134Y-9954222D02*
X1196134Y-10058984D01*
X1196134Y-9954222D02*
X1205658Y-9935174D01*
X1205658Y-9935174D02*
X1224705Y-9925650D01*
X1224705Y-9925650D02*
X1253277Y-9925650D01*
X1253277Y-9925650D02*
X1272325Y-9935174D01*
X1272325Y-9935174D02*
X1281848Y-9954222D01*
X1281848Y-9954222D02*
X1281848Y-10058984D01*
X1377086Y-10058984D02*
X1377086Y-9925650D01*
X1377086Y-9944698D02*
X1386610Y-9935174D01*
X1386610Y-9935174D02*
X1405658Y-9925650D01*
X1405658Y-9925650D02*
X1434229Y-9925650D01*
X1434229Y-9925650D02*
X1453277Y-9935174D01*
X1453277Y-9935174D02*
X1462801Y-9954222D01*
X1462801Y-9954222D02*
X1462801Y-10058984D01*
X1462801Y-9954222D02*
X1472324Y-9935174D01*
X1472324Y-9935174D02*
X1491372Y-9925650D01*
X1491372Y-9925650D02*
X1519943Y-9925650D01*
X1519943Y-9925650D02*
X1538991Y-9935174D01*
X1538991Y-9935174D02*
X1548515Y-9954222D01*
X1548515Y-9954222D02*
X1548515Y-10058984D01*
X1938991Y-9849460D02*
X1767563Y-10106603D01*
X2196134Y-9858984D02*
X2215182Y-9858984D01*
X2215182Y-9858984D02*
X2234229Y-9868508D01*
X2234229Y-9868508D02*
X2243753Y-9878031D01*
X2243753Y-9878031D02*
X2253277Y-9897079D01*
X2253277Y-9897079D02*
X2262801Y-9935174D01*
X2262801Y-9935174D02*
X2262801Y-9982793D01*
X2262801Y-9982793D02*
X2253277Y-10020889D01*
X2253277Y-10020889D02*
X2243753Y-10039936D01*
X2243753Y-10039936D02*
X2234229Y-10049460D01*
X2234229Y-10049460D02*
X2215182Y-10058984D01*
X2215182Y-10058984D02*
X2196134Y-10058984D01*
X2196134Y-10058984D02*
X2177087Y-10049460D01*
X2177087Y-10049460D02*
X2167563Y-10039936D01*
X2167563Y-10039936D02*
X2158039Y-10020889D01*
X2158039Y-10020889D02*
X2148515Y-9982793D01*
X2148515Y-9982793D02*
X2148515Y-9935174D01*
X2148515Y-9935174D02*
X2158039Y-9897079D01*
X2158039Y-9897079D02*
X2167563Y-9878031D01*
X2167563Y-9878031D02*
X2177087Y-9868508D01*
X2177087Y-9868508D02*
X2196134Y-9858984D01*
X2348515Y-10039936D02*
X2358039Y-10049460D01*
X2358039Y-10049460D02*
X2348515Y-10058984D01*
X2348515Y-10058984D02*
X2338991Y-10049460D01*
X2338991Y-10049460D02*
X2348515Y-10039936D01*
X2348515Y-10039936D02*
X2348515Y-10058984D01*
X2481848Y-9858984D02*
X2500896Y-9858984D01*
X2500896Y-9858984D02*
X2519944Y-9868508D01*
X2519944Y-9868508D02*
X2529468Y-9878031D01*
X2529468Y-9878031D02*
X2538991Y-9897079D01*
X2538991Y-9897079D02*
X2548515Y-9935174D01*
X2548515Y-9935174D02*
X2548515Y-9982793D01*
X2548515Y-9982793D02*
X2538991Y-10020889D01*
X2538991Y-10020889D02*
X2529468Y-10039936D01*
X2529468Y-10039936D02*
X2519944Y-10049460D01*
X2519944Y-10049460D02*
X2500896Y-10058984D01*
X2500896Y-10058984D02*
X2481848Y-10058984D01*
X2481848Y-10058984D02*
X2462801Y-10049460D01*
X2462801Y-10049460D02*
X2453277Y-10039936D01*
X2453277Y-10039936D02*
X2443753Y-10020889D01*
X2443753Y-10020889D02*
X2434229Y-9982793D01*
X2434229Y-9982793D02*
X2434229Y-9935174D01*
X2434229Y-9935174D02*
X2443753Y-9897079D01*
X2443753Y-9897079D02*
X2453277Y-9878031D01*
X2453277Y-9878031D02*
X2462801Y-9868508D01*
X2462801Y-9868508D02*
X2481848Y-9858984D01*
X2615182Y-9858984D02*
X2738991Y-9858984D01*
X2738991Y-9858984D02*
X2672325Y-9935174D01*
X2672325Y-9935174D02*
X2700896Y-9935174D01*
X2700896Y-9935174D02*
X2719944Y-9944698D01*
X2719944Y-9944698D02*
X2729468Y-9954222D01*
X2729468Y-9954222D02*
X2738991Y-9973270D01*
X2738991Y-9973270D02*
X2738991Y-10020889D01*
X2738991Y-10020889D02*
X2729468Y-10039936D01*
X2729468Y-10039936D02*
X2719944Y-10049460D01*
X2719944Y-10049460D02*
X2700896Y-10058984D01*
X2700896Y-10058984D02*
X2643753Y-10058984D01*
X2643753Y-10058984D02*
X2624706Y-10049460D01*
X2624706Y-10049460D02*
X2615182Y-10039936D01*
X2805658Y-9858984D02*
X2938991Y-9858984D01*
X2938991Y-9858984D02*
X2853277Y-10058984D01*
X3100896Y-9925650D02*
X3100896Y-10058984D01*
X3053277Y-9849460D02*
X3005658Y-9992317D01*
X3005658Y-9992317D02*
X3129467Y-9992317D01*
X3196134Y-9858984D02*
X3196134Y-9897079D01*
X3272325Y-9858984D02*
X3272325Y-9897079D01*
X3567563Y-10135174D02*
X3558039Y-10125650D01*
X3558039Y-10125650D02*
X3538991Y-10097079D01*
X3538991Y-10097079D02*
X3529468Y-10078031D01*
X3529468Y-10078031D02*
X3519944Y-10049460D01*
X3519944Y-10049460D02*
X3510420Y-10001841D01*
X3510420Y-10001841D02*
X3510420Y-9963746D01*
X3510420Y-9963746D02*
X3519944Y-9916127D01*
X3519944Y-9916127D02*
X3529468Y-9887555D01*
X3529468Y-9887555D02*
X3538991Y-9868508D01*
X3538991Y-9868508D02*
X3558039Y-9839936D01*
X3558039Y-9839936D02*
X3567563Y-9830412D01*
X3748515Y-10058984D02*
X3634229Y-10058984D01*
X3691372Y-10058984D02*
X3691372Y-9858984D01*
X3691372Y-9858984D02*
X3672325Y-9887555D01*
X3672325Y-9887555D02*
X3653277Y-9906603D01*
X3653277Y-9906603D02*
X3634229Y-9916127D01*
X3872325Y-9858984D02*
X3891372Y-9858984D01*
X3891372Y-9858984D02*
X3910420Y-9868508D01*
X3910420Y-9868508D02*
X3919944Y-9878031D01*
X3919944Y-9878031D02*
X3929468Y-9897079D01*
X3929468Y-9897079D02*
X3938991Y-9935174D01*
X3938991Y-9935174D02*
X3938991Y-9982793D01*
X3938991Y-9982793D02*
X3929468Y-10020889D01*
X3929468Y-10020889D02*
X3919944Y-10039936D01*
X3919944Y-10039936D02*
X3910420Y-10049460D01*
X3910420Y-10049460D02*
X3891372Y-10058984D01*
X3891372Y-10058984D02*
X3872325Y-10058984D01*
X3872325Y-10058984D02*
X3853277Y-10049460D01*
X3853277Y-10049460D02*
X3843753Y-10039936D01*
X3843753Y-10039936D02*
X3834229Y-10020889D01*
X3834229Y-10020889D02*
X3824706Y-9982793D01*
X3824706Y-9982793D02*
X3824706Y-9935174D01*
X3824706Y-9935174D02*
X3834229Y-9897079D01*
X3834229Y-9897079D02*
X3843753Y-9878031D01*
X3843753Y-9878031D02*
X3853277Y-9868508D01*
X3853277Y-9868508D02*
X3872325Y-9858984D01*
X4177087Y-10058984D02*
X4177087Y-9858984D01*
X4262801Y-10058984D02*
X4262801Y-9954222D01*
X4262801Y-9954222D02*
X4253277Y-9935174D01*
X4253277Y-9935174D02*
X4234230Y-9925650D01*
X4234230Y-9925650D02*
X4205658Y-9925650D01*
X4205658Y-9925650D02*
X4186610Y-9935174D01*
X4186610Y-9935174D02*
X4177087Y-9944698D01*
X4386611Y-10058984D02*
X4367563Y-10049460D01*
X4367563Y-10049460D02*
X4358039Y-10039936D01*
X4358039Y-10039936D02*
X4348515Y-10020889D01*
X4348515Y-10020889D02*
X4348515Y-9963746D01*
X4348515Y-9963746D02*
X4358039Y-9944698D01*
X4358039Y-9944698D02*
X4367563Y-9935174D01*
X4367563Y-9935174D02*
X4386611Y-9925650D01*
X4386611Y-9925650D02*
X4415182Y-9925650D01*
X4415182Y-9925650D02*
X4434230Y-9935174D01*
X4434230Y-9935174D02*
X4443753Y-9944698D01*
X4443753Y-9944698D02*
X4453277Y-9963746D01*
X4453277Y-9963746D02*
X4453277Y-10020889D01*
X4453277Y-10020889D02*
X4443753Y-10039936D01*
X4443753Y-10039936D02*
X4434230Y-10049460D01*
X4434230Y-10049460D02*
X4415182Y-10058984D01*
X4415182Y-10058984D02*
X4386611Y-10058984D01*
X4567563Y-10058984D02*
X4548515Y-10049460D01*
X4548515Y-10049460D02*
X4538992Y-10030412D01*
X4538992Y-10030412D02*
X4538992Y-9858984D01*
X4719944Y-10049460D02*
X4700896Y-10058984D01*
X4700896Y-10058984D02*
X4662801Y-10058984D01*
X4662801Y-10058984D02*
X4643753Y-10049460D01*
X4643753Y-10049460D02*
X4634230Y-10030412D01*
X4634230Y-10030412D02*
X4634230Y-9954222D01*
X4634230Y-9954222D02*
X4643753Y-9935174D01*
X4643753Y-9935174D02*
X4662801Y-9925650D01*
X4662801Y-9925650D02*
X4700896Y-9925650D01*
X4700896Y-9925650D02*
X4719944Y-9935174D01*
X4719944Y-9935174D02*
X4729468Y-9954222D01*
X4729468Y-9954222D02*
X4729468Y-9973270D01*
X4729468Y-9973270D02*
X4634230Y-9992317D01*
X4805658Y-10049460D02*
X4824706Y-10058984D01*
X4824706Y-10058984D02*
X4862801Y-10058984D01*
X4862801Y-10058984D02*
X4881849Y-10049460D01*
X4881849Y-10049460D02*
X4891373Y-10030412D01*
X4891373Y-10030412D02*
X4891373Y-10020889D01*
X4891373Y-10020889D02*
X4881849Y-10001841D01*
X4881849Y-10001841D02*
X4862801Y-9992317D01*
X4862801Y-9992317D02*
X4834230Y-9992317D01*
X4834230Y-9992317D02*
X4815182Y-9982793D01*
X4815182Y-9982793D02*
X4805658Y-9963746D01*
X4805658Y-9963746D02*
X4805658Y-9954222D01*
X4805658Y-9954222D02*
X4815182Y-9935174D01*
X4815182Y-9935174D02*
X4834230Y-9925650D01*
X4834230Y-9925650D02*
X4862801Y-9925650D01*
X4862801Y-9925650D02*
X4881849Y-9935174D01*
X4958039Y-10135174D02*
X4967563Y-10125650D01*
X4967563Y-10125650D02*
X4986611Y-10097079D01*
X4986611Y-10097079D02*
X4996134Y-10078031D01*
X4996134Y-10078031D02*
X5005658Y-10049460D01*
X5005658Y-10049460D02*
X5015182Y-10001841D01*
X5015182Y-10001841D02*
X5015182Y-9963746D01*
X5015182Y-9963746D02*
X5005658Y-9916127D01*
X5005658Y-9916127D02*
X4996134Y-9887555D01*
X4996134Y-9887555D02*
X4986611Y-9868508D01*
X4986611Y-9868508D02*
X4967563Y-9839936D01*
X4967563Y-9839936D02*
X4958039Y-9830412D01*
D12*
X-107500Y-10181500D02*
X-7500Y-10281500D01*
X-7500Y-10181500D02*
X-107500Y-10281500D01*
X-57500Y-10181500D02*
X-57500Y-10281500D01*
X-107500Y-10231500D02*
X-7500Y-10231500D01*
D11*
X358039Y-10322984D02*
X243753Y-10322984D01*
X300896Y-10322984D02*
X300896Y-10122984D01*
X300896Y-10122984D02*
X281848Y-10151555D01*
X281848Y-10151555D02*
X262801Y-10170603D01*
X262801Y-10170603D02*
X243753Y-10180127D01*
X443753Y-10303936D02*
X453277Y-10313460D01*
X453277Y-10313460D02*
X443753Y-10322984D01*
X443753Y-10322984D02*
X434229Y-10313460D01*
X434229Y-10313460D02*
X443753Y-10303936D01*
X443753Y-10303936D02*
X443753Y-10322984D01*
X577086Y-10122984D02*
X596134Y-10122984D01*
X596134Y-10122984D02*
X615182Y-10132508D01*
X615182Y-10132508D02*
X624705Y-10142031D01*
X624705Y-10142031D02*
X634229Y-10161079D01*
X634229Y-10161079D02*
X643753Y-10199174D01*
X643753Y-10199174D02*
X643753Y-10246793D01*
X643753Y-10246793D02*
X634229Y-10284889D01*
X634229Y-10284889D02*
X624705Y-10303936D01*
X624705Y-10303936D02*
X615182Y-10313460D01*
X615182Y-10313460D02*
X596134Y-10322984D01*
X596134Y-10322984D02*
X577086Y-10322984D01*
X577086Y-10322984D02*
X558039Y-10313460D01*
X558039Y-10313460D02*
X548515Y-10303936D01*
X548515Y-10303936D02*
X538991Y-10284889D01*
X538991Y-10284889D02*
X529467Y-10246793D01*
X529467Y-10246793D02*
X529467Y-10199174D01*
X529467Y-10199174D02*
X538991Y-10161079D01*
X538991Y-10161079D02*
X548515Y-10142031D01*
X548515Y-10142031D02*
X558039Y-10132508D01*
X558039Y-10132508D02*
X577086Y-10122984D01*
X767562Y-10122984D02*
X786610Y-10122984D01*
X786610Y-10122984D02*
X805658Y-10132508D01*
X805658Y-10132508D02*
X815182Y-10142031D01*
X815182Y-10142031D02*
X824705Y-10161079D01*
X824705Y-10161079D02*
X834229Y-10199174D01*
X834229Y-10199174D02*
X834229Y-10246793D01*
X834229Y-10246793D02*
X824705Y-10284889D01*
X824705Y-10284889D02*
X815182Y-10303936D01*
X815182Y-10303936D02*
X805658Y-10313460D01*
X805658Y-10313460D02*
X786610Y-10322984D01*
X786610Y-10322984D02*
X767562Y-10322984D01*
X767562Y-10322984D02*
X748515Y-10313460D01*
X748515Y-10313460D02*
X738991Y-10303936D01*
X738991Y-10303936D02*
X729467Y-10284889D01*
X729467Y-10284889D02*
X719943Y-10246793D01*
X719943Y-10246793D02*
X719943Y-10199174D01*
X719943Y-10199174D02*
X729467Y-10161079D01*
X729467Y-10161079D02*
X738991Y-10142031D01*
X738991Y-10142031D02*
X748515Y-10132508D01*
X748515Y-10132508D02*
X767562Y-10122984D01*
X958039Y-10122984D02*
X977086Y-10122984D01*
X977086Y-10122984D02*
X996134Y-10132508D01*
X996134Y-10132508D02*
X1005658Y-10142031D01*
X1005658Y-10142031D02*
X1015182Y-10161079D01*
X1015182Y-10161079D02*
X1024705Y-10199174D01*
X1024705Y-10199174D02*
X1024705Y-10246793D01*
X1024705Y-10246793D02*
X1015182Y-10284889D01*
X1015182Y-10284889D02*
X1005658Y-10303936D01*
X1005658Y-10303936D02*
X996134Y-10313460D01*
X996134Y-10313460D02*
X977086Y-10322984D01*
X977086Y-10322984D02*
X958039Y-10322984D01*
X958039Y-10322984D02*
X938991Y-10313460D01*
X938991Y-10313460D02*
X929467Y-10303936D01*
X929467Y-10303936D02*
X919943Y-10284889D01*
X919943Y-10284889D02*
X910420Y-10246793D01*
X910420Y-10246793D02*
X910420Y-10199174D01*
X910420Y-10199174D02*
X919943Y-10161079D01*
X919943Y-10161079D02*
X929467Y-10142031D01*
X929467Y-10142031D02*
X938991Y-10132508D01*
X938991Y-10132508D02*
X958039Y-10122984D01*
X1110420Y-10322984D02*
X1110420Y-10189650D01*
X1110420Y-10208698D02*
X1119944Y-10199174D01*
X1119944Y-10199174D02*
X1138991Y-10189650D01*
X1138991Y-10189650D02*
X1167563Y-10189650D01*
X1167563Y-10189650D02*
X1186610Y-10199174D01*
X1186610Y-10199174D02*
X1196134Y-10218222D01*
X1196134Y-10218222D02*
X1196134Y-10322984D01*
X1196134Y-10218222D02*
X1205658Y-10199174D01*
X1205658Y-10199174D02*
X1224705Y-10189650D01*
X1224705Y-10189650D02*
X1253277Y-10189650D01*
X1253277Y-10189650D02*
X1272325Y-10199174D01*
X1272325Y-10199174D02*
X1281848Y-10218222D01*
X1281848Y-10218222D02*
X1281848Y-10322984D01*
X1377086Y-10322984D02*
X1377086Y-10189650D01*
X1377086Y-10208698D02*
X1386610Y-10199174D01*
X1386610Y-10199174D02*
X1405658Y-10189650D01*
X1405658Y-10189650D02*
X1434229Y-10189650D01*
X1434229Y-10189650D02*
X1453277Y-10199174D01*
X1453277Y-10199174D02*
X1462801Y-10218222D01*
X1462801Y-10218222D02*
X1462801Y-10322984D01*
X1462801Y-10218222D02*
X1472324Y-10199174D01*
X1472324Y-10199174D02*
X1491372Y-10189650D01*
X1491372Y-10189650D02*
X1519943Y-10189650D01*
X1519943Y-10189650D02*
X1538991Y-10199174D01*
X1538991Y-10199174D02*
X1548515Y-10218222D01*
X1548515Y-10218222D02*
X1548515Y-10322984D01*
X1938991Y-10113460D02*
X1767563Y-10370603D01*
X2196134Y-10122984D02*
X2215182Y-10122984D01*
X2215182Y-10122984D02*
X2234229Y-10132508D01*
X2234229Y-10132508D02*
X2243753Y-10142031D01*
X2243753Y-10142031D02*
X2253277Y-10161079D01*
X2253277Y-10161079D02*
X2262801Y-10199174D01*
X2262801Y-10199174D02*
X2262801Y-10246793D01*
X2262801Y-10246793D02*
X2253277Y-10284889D01*
X2253277Y-10284889D02*
X2243753Y-10303936D01*
X2243753Y-10303936D02*
X2234229Y-10313460D01*
X2234229Y-10313460D02*
X2215182Y-10322984D01*
X2215182Y-10322984D02*
X2196134Y-10322984D01*
X2196134Y-10322984D02*
X2177087Y-10313460D01*
X2177087Y-10313460D02*
X2167563Y-10303936D01*
X2167563Y-10303936D02*
X2158039Y-10284889D01*
X2158039Y-10284889D02*
X2148515Y-10246793D01*
X2148515Y-10246793D02*
X2148515Y-10199174D01*
X2148515Y-10199174D02*
X2158039Y-10161079D01*
X2158039Y-10161079D02*
X2167563Y-10142031D01*
X2167563Y-10142031D02*
X2177087Y-10132508D01*
X2177087Y-10132508D02*
X2196134Y-10122984D01*
X2348515Y-10303936D02*
X2358039Y-10313460D01*
X2358039Y-10313460D02*
X2348515Y-10322984D01*
X2348515Y-10322984D02*
X2338991Y-10313460D01*
X2338991Y-10313460D02*
X2348515Y-10303936D01*
X2348515Y-10303936D02*
X2348515Y-10322984D01*
X2481848Y-10122984D02*
X2500896Y-10122984D01*
X2500896Y-10122984D02*
X2519944Y-10132508D01*
X2519944Y-10132508D02*
X2529468Y-10142031D01*
X2529468Y-10142031D02*
X2538991Y-10161079D01*
X2538991Y-10161079D02*
X2548515Y-10199174D01*
X2548515Y-10199174D02*
X2548515Y-10246793D01*
X2548515Y-10246793D02*
X2538991Y-10284889D01*
X2538991Y-10284889D02*
X2529468Y-10303936D01*
X2529468Y-10303936D02*
X2519944Y-10313460D01*
X2519944Y-10313460D02*
X2500896Y-10322984D01*
X2500896Y-10322984D02*
X2481848Y-10322984D01*
X2481848Y-10322984D02*
X2462801Y-10313460D01*
X2462801Y-10313460D02*
X2453277Y-10303936D01*
X2453277Y-10303936D02*
X2443753Y-10284889D01*
X2443753Y-10284889D02*
X2434229Y-10246793D01*
X2434229Y-10246793D02*
X2434229Y-10199174D01*
X2434229Y-10199174D02*
X2443753Y-10161079D01*
X2443753Y-10161079D02*
X2453277Y-10142031D01*
X2453277Y-10142031D02*
X2462801Y-10132508D01*
X2462801Y-10132508D02*
X2481848Y-10122984D01*
X2615182Y-10122984D02*
X2738991Y-10122984D01*
X2738991Y-10122984D02*
X2672325Y-10199174D01*
X2672325Y-10199174D02*
X2700896Y-10199174D01*
X2700896Y-10199174D02*
X2719944Y-10208698D01*
X2719944Y-10208698D02*
X2729468Y-10218222D01*
X2729468Y-10218222D02*
X2738991Y-10237270D01*
X2738991Y-10237270D02*
X2738991Y-10284889D01*
X2738991Y-10284889D02*
X2729468Y-10303936D01*
X2729468Y-10303936D02*
X2719944Y-10313460D01*
X2719944Y-10313460D02*
X2700896Y-10322984D01*
X2700896Y-10322984D02*
X2643753Y-10322984D01*
X2643753Y-10322984D02*
X2624706Y-10313460D01*
X2624706Y-10313460D02*
X2615182Y-10303936D01*
X2834229Y-10322984D02*
X2872325Y-10322984D01*
X2872325Y-10322984D02*
X2891372Y-10313460D01*
X2891372Y-10313460D02*
X2900896Y-10303936D01*
X2900896Y-10303936D02*
X2919944Y-10275365D01*
X2919944Y-10275365D02*
X2929467Y-10237270D01*
X2929467Y-10237270D02*
X2929467Y-10161079D01*
X2929467Y-10161079D02*
X2919944Y-10142031D01*
X2919944Y-10142031D02*
X2910420Y-10132508D01*
X2910420Y-10132508D02*
X2891372Y-10122984D01*
X2891372Y-10122984D02*
X2853277Y-10122984D01*
X2853277Y-10122984D02*
X2834229Y-10132508D01*
X2834229Y-10132508D02*
X2824706Y-10142031D01*
X2824706Y-10142031D02*
X2815182Y-10161079D01*
X2815182Y-10161079D02*
X2815182Y-10208698D01*
X2815182Y-10208698D02*
X2824706Y-10227746D01*
X2824706Y-10227746D02*
X2834229Y-10237270D01*
X2834229Y-10237270D02*
X2853277Y-10246793D01*
X2853277Y-10246793D02*
X2891372Y-10246793D01*
X2891372Y-10246793D02*
X2910420Y-10237270D01*
X2910420Y-10237270D02*
X2919944Y-10227746D01*
X2919944Y-10227746D02*
X2929467Y-10208698D01*
X3100896Y-10189650D02*
X3100896Y-10322984D01*
X3053277Y-10113460D02*
X3005658Y-10256317D01*
X3005658Y-10256317D02*
X3129467Y-10256317D01*
X3196134Y-10122984D02*
X3196134Y-10161079D01*
X3272325Y-10122984D02*
X3272325Y-10161079D01*
X3567563Y-10399174D02*
X3558039Y-10389650D01*
X3558039Y-10389650D02*
X3538991Y-10361079D01*
X3538991Y-10361079D02*
X3529468Y-10342031D01*
X3529468Y-10342031D02*
X3519944Y-10313460D01*
X3519944Y-10313460D02*
X3510420Y-10265841D01*
X3510420Y-10265841D02*
X3510420Y-10227746D01*
X3510420Y-10227746D02*
X3519944Y-10180127D01*
X3519944Y-10180127D02*
X3529468Y-10151555D01*
X3529468Y-10151555D02*
X3538991Y-10132508D01*
X3538991Y-10132508D02*
X3558039Y-10103936D01*
X3558039Y-10103936D02*
X3567563Y-10094412D01*
X3634229Y-10142031D02*
X3643753Y-10132508D01*
X3643753Y-10132508D02*
X3662801Y-10122984D01*
X3662801Y-10122984D02*
X3710420Y-10122984D01*
X3710420Y-10122984D02*
X3729468Y-10132508D01*
X3729468Y-10132508D02*
X3738991Y-10142031D01*
X3738991Y-10142031D02*
X3748515Y-10161079D01*
X3748515Y-10161079D02*
X3748515Y-10180127D01*
X3748515Y-10180127D02*
X3738991Y-10208698D01*
X3738991Y-10208698D02*
X3624706Y-10322984D01*
X3624706Y-10322984D02*
X3748515Y-10322984D01*
X3919944Y-10122984D02*
X3881848Y-10122984D01*
X3881848Y-10122984D02*
X3862801Y-10132508D01*
X3862801Y-10132508D02*
X3853277Y-10142031D01*
X3853277Y-10142031D02*
X3834229Y-10170603D01*
X3834229Y-10170603D02*
X3824706Y-10208698D01*
X3824706Y-10208698D02*
X3824706Y-10284889D01*
X3824706Y-10284889D02*
X3834229Y-10303936D01*
X3834229Y-10303936D02*
X3843753Y-10313460D01*
X3843753Y-10313460D02*
X3862801Y-10322984D01*
X3862801Y-10322984D02*
X3900896Y-10322984D01*
X3900896Y-10322984D02*
X3919944Y-10313460D01*
X3919944Y-10313460D02*
X3929468Y-10303936D01*
X3929468Y-10303936D02*
X3938991Y-10284889D01*
X3938991Y-10284889D02*
X3938991Y-10237270D01*
X3938991Y-10237270D02*
X3929468Y-10218222D01*
X3929468Y-10218222D02*
X3919944Y-10208698D01*
X3919944Y-10208698D02*
X3900896Y-10199174D01*
X3900896Y-10199174D02*
X3862801Y-10199174D01*
X3862801Y-10199174D02*
X3843753Y-10208698D01*
X3843753Y-10208698D02*
X3834229Y-10218222D01*
X3834229Y-10218222D02*
X3824706Y-10237270D01*
X4177087Y-10322984D02*
X4177087Y-10122984D01*
X4262801Y-10322984D02*
X4262801Y-10218222D01*
X4262801Y-10218222D02*
X4253277Y-10199174D01*
X4253277Y-10199174D02*
X4234230Y-10189650D01*
X4234230Y-10189650D02*
X4205658Y-10189650D01*
X4205658Y-10189650D02*
X4186610Y-10199174D01*
X4186610Y-10199174D02*
X4177087Y-10208698D01*
X4386611Y-10322984D02*
X4367563Y-10313460D01*
X4367563Y-10313460D02*
X4358039Y-10303936D01*
X4358039Y-10303936D02*
X4348515Y-10284889D01*
X4348515Y-10284889D02*
X4348515Y-10227746D01*
X4348515Y-10227746D02*
X4358039Y-10208698D01*
X4358039Y-10208698D02*
X4367563Y-10199174D01*
X4367563Y-10199174D02*
X4386611Y-10189650D01*
X4386611Y-10189650D02*
X4415182Y-10189650D01*
X4415182Y-10189650D02*
X4434230Y-10199174D01*
X4434230Y-10199174D02*
X4443753Y-10208698D01*
X4443753Y-10208698D02*
X4453277Y-10227746D01*
X4453277Y-10227746D02*
X4453277Y-10284889D01*
X4453277Y-10284889D02*
X4443753Y-10303936D01*
X4443753Y-10303936D02*
X4434230Y-10313460D01*
X4434230Y-10313460D02*
X4415182Y-10322984D01*
X4415182Y-10322984D02*
X4386611Y-10322984D01*
X4567563Y-10322984D02*
X4548515Y-10313460D01*
X4548515Y-10313460D02*
X4538992Y-10294412D01*
X4538992Y-10294412D02*
X4538992Y-10122984D01*
X4719944Y-10313460D02*
X4700896Y-10322984D01*
X4700896Y-10322984D02*
X4662801Y-10322984D01*
X4662801Y-10322984D02*
X4643753Y-10313460D01*
X4643753Y-10313460D02*
X4634230Y-10294412D01*
X4634230Y-10294412D02*
X4634230Y-10218222D01*
X4634230Y-10218222D02*
X4643753Y-10199174D01*
X4643753Y-10199174D02*
X4662801Y-10189650D01*
X4662801Y-10189650D02*
X4700896Y-10189650D01*
X4700896Y-10189650D02*
X4719944Y-10199174D01*
X4719944Y-10199174D02*
X4729468Y-10218222D01*
X4729468Y-10218222D02*
X4729468Y-10237270D01*
X4729468Y-10237270D02*
X4634230Y-10256317D01*
X4805658Y-10313460D02*
X4824706Y-10322984D01*
X4824706Y-10322984D02*
X4862801Y-10322984D01*
X4862801Y-10322984D02*
X4881849Y-10313460D01*
X4881849Y-10313460D02*
X4891373Y-10294412D01*
X4891373Y-10294412D02*
X4891373Y-10284889D01*
X4891373Y-10284889D02*
X4881849Y-10265841D01*
X4881849Y-10265841D02*
X4862801Y-10256317D01*
X4862801Y-10256317D02*
X4834230Y-10256317D01*
X4834230Y-10256317D02*
X4815182Y-10246793D01*
X4815182Y-10246793D02*
X4805658Y-10227746D01*
X4805658Y-10227746D02*
X4805658Y-10218222D01*
X4805658Y-10218222D02*
X4815182Y-10199174D01*
X4815182Y-10199174D02*
X4834230Y-10189650D01*
X4834230Y-10189650D02*
X4862801Y-10189650D01*
X4862801Y-10189650D02*
X4881849Y-10199174D01*
X4958039Y-10399174D02*
X4967563Y-10389650D01*
X4967563Y-10389650D02*
X4986611Y-10361079D01*
X4986611Y-10361079D02*
X4996134Y-10342031D01*
X4996134Y-10342031D02*
X5005658Y-10313460D01*
X5005658Y-10313460D02*
X5015182Y-10265841D01*
X5015182Y-10265841D02*
X5015182Y-10227746D01*
X5015182Y-10227746D02*
X5005658Y-10180127D01*
X5005658Y-10180127D02*
X4996134Y-10151555D01*
X4996134Y-10151555D02*
X4986611Y-10132508D01*
X4986611Y-10132508D02*
X4967563Y-10103936D01*
X4967563Y-10103936D02*
X4958039Y-10094412D01*
D13*
X-137500Y-10430500D02*
X-7500Y-10560500D01*
X-7500Y-10430500D02*
X-137500Y-10560500D01*
X-26538Y-10541462D02*
X-26538Y-10449538D01*
X-118462Y-10449538D01*
X-118462Y-10541462D01*
X-26538Y-10541462D01*
D11*
X358039Y-10586984D02*
X243753Y-10586984D01*
X300896Y-10586984D02*
X300896Y-10386984D01*
X300896Y-10386984D02*
X281848Y-10415555D01*
X281848Y-10415555D02*
X262801Y-10434603D01*
X262801Y-10434603D02*
X243753Y-10444127D01*
X443753Y-10567936D02*
X453277Y-10577460D01*
X453277Y-10577460D02*
X443753Y-10586984D01*
X443753Y-10586984D02*
X434229Y-10577460D01*
X434229Y-10577460D02*
X443753Y-10567936D01*
X443753Y-10567936D02*
X443753Y-10586984D01*
X519943Y-10386984D02*
X643753Y-10386984D01*
X643753Y-10386984D02*
X577086Y-10463174D01*
X577086Y-10463174D02*
X605658Y-10463174D01*
X605658Y-10463174D02*
X624705Y-10472698D01*
X624705Y-10472698D02*
X634229Y-10482222D01*
X634229Y-10482222D02*
X643753Y-10501270D01*
X643753Y-10501270D02*
X643753Y-10548889D01*
X643753Y-10548889D02*
X634229Y-10567936D01*
X634229Y-10567936D02*
X624705Y-10577460D01*
X624705Y-10577460D02*
X605658Y-10586984D01*
X605658Y-10586984D02*
X548515Y-10586984D01*
X548515Y-10586984D02*
X529467Y-10577460D01*
X529467Y-10577460D02*
X519943Y-10567936D01*
X767562Y-10386984D02*
X786610Y-10386984D01*
X786610Y-10386984D02*
X805658Y-10396508D01*
X805658Y-10396508D02*
X815182Y-10406031D01*
X815182Y-10406031D02*
X824705Y-10425079D01*
X824705Y-10425079D02*
X834229Y-10463174D01*
X834229Y-10463174D02*
X834229Y-10510793D01*
X834229Y-10510793D02*
X824705Y-10548889D01*
X824705Y-10548889D02*
X815182Y-10567936D01*
X815182Y-10567936D02*
X805658Y-10577460D01*
X805658Y-10577460D02*
X786610Y-10586984D01*
X786610Y-10586984D02*
X767562Y-10586984D01*
X767562Y-10586984D02*
X748515Y-10577460D01*
X748515Y-10577460D02*
X738991Y-10567936D01*
X738991Y-10567936D02*
X729467Y-10548889D01*
X729467Y-10548889D02*
X719943Y-10510793D01*
X719943Y-10510793D02*
X719943Y-10463174D01*
X719943Y-10463174D02*
X729467Y-10425079D01*
X729467Y-10425079D02*
X738991Y-10406031D01*
X738991Y-10406031D02*
X748515Y-10396508D01*
X748515Y-10396508D02*
X767562Y-10386984D01*
X958039Y-10386984D02*
X977086Y-10386984D01*
X977086Y-10386984D02*
X996134Y-10396508D01*
X996134Y-10396508D02*
X1005658Y-10406031D01*
X1005658Y-10406031D02*
X1015182Y-10425079D01*
X1015182Y-10425079D02*
X1024705Y-10463174D01*
X1024705Y-10463174D02*
X1024705Y-10510793D01*
X1024705Y-10510793D02*
X1015182Y-10548889D01*
X1015182Y-10548889D02*
X1005658Y-10567936D01*
X1005658Y-10567936D02*
X996134Y-10577460D01*
X996134Y-10577460D02*
X977086Y-10586984D01*
X977086Y-10586984D02*
X958039Y-10586984D01*
X958039Y-10586984D02*
X938991Y-10577460D01*
X938991Y-10577460D02*
X929467Y-10567936D01*
X929467Y-10567936D02*
X919943Y-10548889D01*
X919943Y-10548889D02*
X910420Y-10510793D01*
X910420Y-10510793D02*
X910420Y-10463174D01*
X910420Y-10463174D02*
X919943Y-10425079D01*
X919943Y-10425079D02*
X929467Y-10406031D01*
X929467Y-10406031D02*
X938991Y-10396508D01*
X938991Y-10396508D02*
X958039Y-10386984D01*
X1110420Y-10586984D02*
X1110420Y-10453650D01*
X1110420Y-10472698D02*
X1119944Y-10463174D01*
X1119944Y-10463174D02*
X1138991Y-10453650D01*
X1138991Y-10453650D02*
X1167563Y-10453650D01*
X1167563Y-10453650D02*
X1186610Y-10463174D01*
X1186610Y-10463174D02*
X1196134Y-10482222D01*
X1196134Y-10482222D02*
X1196134Y-10586984D01*
X1196134Y-10482222D02*
X1205658Y-10463174D01*
X1205658Y-10463174D02*
X1224705Y-10453650D01*
X1224705Y-10453650D02*
X1253277Y-10453650D01*
X1253277Y-10453650D02*
X1272325Y-10463174D01*
X1272325Y-10463174D02*
X1281848Y-10482222D01*
X1281848Y-10482222D02*
X1281848Y-10586984D01*
X1377086Y-10586984D02*
X1377086Y-10453650D01*
X1377086Y-10472698D02*
X1386610Y-10463174D01*
X1386610Y-10463174D02*
X1405658Y-10453650D01*
X1405658Y-10453650D02*
X1434229Y-10453650D01*
X1434229Y-10453650D02*
X1453277Y-10463174D01*
X1453277Y-10463174D02*
X1462801Y-10482222D01*
X1462801Y-10482222D02*
X1462801Y-10586984D01*
X1462801Y-10482222D02*
X1472324Y-10463174D01*
X1472324Y-10463174D02*
X1491372Y-10453650D01*
X1491372Y-10453650D02*
X1519943Y-10453650D01*
X1519943Y-10453650D02*
X1538991Y-10463174D01*
X1538991Y-10463174D02*
X1548515Y-10482222D01*
X1548515Y-10482222D02*
X1548515Y-10586984D01*
X1938991Y-10377460D02*
X1767563Y-10634603D01*
X2196134Y-10386984D02*
X2215182Y-10386984D01*
X2215182Y-10386984D02*
X2234229Y-10396508D01*
X2234229Y-10396508D02*
X2243753Y-10406031D01*
X2243753Y-10406031D02*
X2253277Y-10425079D01*
X2253277Y-10425079D02*
X2262801Y-10463174D01*
X2262801Y-10463174D02*
X2262801Y-10510793D01*
X2262801Y-10510793D02*
X2253277Y-10548889D01*
X2253277Y-10548889D02*
X2243753Y-10567936D01*
X2243753Y-10567936D02*
X2234229Y-10577460D01*
X2234229Y-10577460D02*
X2215182Y-10586984D01*
X2215182Y-10586984D02*
X2196134Y-10586984D01*
X2196134Y-10586984D02*
X2177087Y-10577460D01*
X2177087Y-10577460D02*
X2167563Y-10567936D01*
X2167563Y-10567936D02*
X2158039Y-10548889D01*
X2158039Y-10548889D02*
X2148515Y-10510793D01*
X2148515Y-10510793D02*
X2148515Y-10463174D01*
X2148515Y-10463174D02*
X2158039Y-10425079D01*
X2158039Y-10425079D02*
X2167563Y-10406031D01*
X2167563Y-10406031D02*
X2177087Y-10396508D01*
X2177087Y-10396508D02*
X2196134Y-10386984D01*
X2348515Y-10567936D02*
X2358039Y-10577460D01*
X2358039Y-10577460D02*
X2348515Y-10586984D01*
X2348515Y-10586984D02*
X2338991Y-10577460D01*
X2338991Y-10577460D02*
X2348515Y-10567936D01*
X2348515Y-10567936D02*
X2348515Y-10586984D01*
X2481848Y-10386984D02*
X2500896Y-10386984D01*
X2500896Y-10386984D02*
X2519944Y-10396508D01*
X2519944Y-10396508D02*
X2529468Y-10406031D01*
X2529468Y-10406031D02*
X2538991Y-10425079D01*
X2538991Y-10425079D02*
X2548515Y-10463174D01*
X2548515Y-10463174D02*
X2548515Y-10510793D01*
X2548515Y-10510793D02*
X2538991Y-10548889D01*
X2538991Y-10548889D02*
X2529468Y-10567936D01*
X2529468Y-10567936D02*
X2519944Y-10577460D01*
X2519944Y-10577460D02*
X2500896Y-10586984D01*
X2500896Y-10586984D02*
X2481848Y-10586984D01*
X2481848Y-10586984D02*
X2462801Y-10577460D01*
X2462801Y-10577460D02*
X2453277Y-10567936D01*
X2453277Y-10567936D02*
X2443753Y-10548889D01*
X2443753Y-10548889D02*
X2434229Y-10510793D01*
X2434229Y-10510793D02*
X2434229Y-10463174D01*
X2434229Y-10463174D02*
X2443753Y-10425079D01*
X2443753Y-10425079D02*
X2453277Y-10406031D01*
X2453277Y-10406031D02*
X2462801Y-10396508D01*
X2462801Y-10396508D02*
X2481848Y-10386984D01*
X2729468Y-10386984D02*
X2634229Y-10386984D01*
X2634229Y-10386984D02*
X2624706Y-10482222D01*
X2624706Y-10482222D02*
X2634229Y-10472698D01*
X2634229Y-10472698D02*
X2653277Y-10463174D01*
X2653277Y-10463174D02*
X2700896Y-10463174D01*
X2700896Y-10463174D02*
X2719944Y-10472698D01*
X2719944Y-10472698D02*
X2729468Y-10482222D01*
X2729468Y-10482222D02*
X2738991Y-10501270D01*
X2738991Y-10501270D02*
X2738991Y-10548889D01*
X2738991Y-10548889D02*
X2729468Y-10567936D01*
X2729468Y-10567936D02*
X2719944Y-10577460D01*
X2719944Y-10577460D02*
X2700896Y-10586984D01*
X2700896Y-10586984D02*
X2653277Y-10586984D01*
X2653277Y-10586984D02*
X2634229Y-10577460D01*
X2634229Y-10577460D02*
X2624706Y-10567936D01*
X2929467Y-10586984D02*
X2815182Y-10586984D01*
X2872325Y-10586984D02*
X2872325Y-10386984D01*
X2872325Y-10386984D02*
X2853277Y-10415555D01*
X2853277Y-10415555D02*
X2834229Y-10434603D01*
X2834229Y-10434603D02*
X2815182Y-10444127D01*
X3005658Y-10406031D02*
X3015182Y-10396508D01*
X3015182Y-10396508D02*
X3034229Y-10386984D01*
X3034229Y-10386984D02*
X3081848Y-10386984D01*
X3081848Y-10386984D02*
X3100896Y-10396508D01*
X3100896Y-10396508D02*
X3110420Y-10406031D01*
X3110420Y-10406031D02*
X3119944Y-10425079D01*
X3119944Y-10425079D02*
X3119944Y-10444127D01*
X3119944Y-10444127D02*
X3110420Y-10472698D01*
X3110420Y-10472698D02*
X2996134Y-10586984D01*
X2996134Y-10586984D02*
X3119944Y-10586984D01*
X3196134Y-10386984D02*
X3196134Y-10425079D01*
X3272325Y-10386984D02*
X3272325Y-10425079D01*
X3567563Y-10663174D02*
X3558039Y-10653650D01*
X3558039Y-10653650D02*
X3538991Y-10625079D01*
X3538991Y-10625079D02*
X3529468Y-10606031D01*
X3529468Y-10606031D02*
X3519944Y-10577460D01*
X3519944Y-10577460D02*
X3510420Y-10529841D01*
X3510420Y-10529841D02*
X3510420Y-10491746D01*
X3510420Y-10491746D02*
X3519944Y-10444127D01*
X3519944Y-10444127D02*
X3529468Y-10415555D01*
X3529468Y-10415555D02*
X3538991Y-10396508D01*
X3538991Y-10396508D02*
X3558039Y-10367936D01*
X3558039Y-10367936D02*
X3567563Y-10358412D01*
X3729468Y-10386984D02*
X3691372Y-10386984D01*
X3691372Y-10386984D02*
X3672325Y-10396508D01*
X3672325Y-10396508D02*
X3662801Y-10406031D01*
X3662801Y-10406031D02*
X3643753Y-10434603D01*
X3643753Y-10434603D02*
X3634229Y-10472698D01*
X3634229Y-10472698D02*
X3634229Y-10548889D01*
X3634229Y-10548889D02*
X3643753Y-10567936D01*
X3643753Y-10567936D02*
X3653277Y-10577460D01*
X3653277Y-10577460D02*
X3672325Y-10586984D01*
X3672325Y-10586984D02*
X3710420Y-10586984D01*
X3710420Y-10586984D02*
X3729468Y-10577460D01*
X3729468Y-10577460D02*
X3738991Y-10567936D01*
X3738991Y-10567936D02*
X3748515Y-10548889D01*
X3748515Y-10548889D02*
X3748515Y-10501270D01*
X3748515Y-10501270D02*
X3738991Y-10482222D01*
X3738991Y-10482222D02*
X3729468Y-10472698D01*
X3729468Y-10472698D02*
X3710420Y-10463174D01*
X3710420Y-10463174D02*
X3672325Y-10463174D01*
X3672325Y-10463174D02*
X3653277Y-10472698D01*
X3653277Y-10472698D02*
X3643753Y-10482222D01*
X3643753Y-10482222D02*
X3634229Y-10501270D01*
X3986610Y-10586984D02*
X3986610Y-10386984D01*
X4072325Y-10586984D02*
X4072325Y-10482222D01*
X4072325Y-10482222D02*
X4062801Y-10463174D01*
X4062801Y-10463174D02*
X4043753Y-10453650D01*
X4043753Y-10453650D02*
X4015182Y-10453650D01*
X4015182Y-10453650D02*
X3996134Y-10463174D01*
X3996134Y-10463174D02*
X3986610Y-10472698D01*
X4196134Y-10586984D02*
X4177087Y-10577460D01*
X4177087Y-10577460D02*
X4167563Y-10567936D01*
X4167563Y-10567936D02*
X4158039Y-10548889D01*
X4158039Y-10548889D02*
X4158039Y-10491746D01*
X4158039Y-10491746D02*
X4167563Y-10472698D01*
X4167563Y-10472698D02*
X4177087Y-10463174D01*
X4177087Y-10463174D02*
X4196134Y-10453650D01*
X4196134Y-10453650D02*
X4224706Y-10453650D01*
X4224706Y-10453650D02*
X4243753Y-10463174D01*
X4243753Y-10463174D02*
X4253277Y-10472698D01*
X4253277Y-10472698D02*
X4262801Y-10491746D01*
X4262801Y-10491746D02*
X4262801Y-10548889D01*
X4262801Y-10548889D02*
X4253277Y-10567936D01*
X4253277Y-10567936D02*
X4243753Y-10577460D01*
X4243753Y-10577460D02*
X4224706Y-10586984D01*
X4224706Y-10586984D02*
X4196134Y-10586984D01*
X4377087Y-10586984D02*
X4358039Y-10577460D01*
X4358039Y-10577460D02*
X4348515Y-10558412D01*
X4348515Y-10558412D02*
X4348515Y-10386984D01*
X4529468Y-10577460D02*
X4510420Y-10586984D01*
X4510420Y-10586984D02*
X4472325Y-10586984D01*
X4472325Y-10586984D02*
X4453277Y-10577460D01*
X4453277Y-10577460D02*
X4443753Y-10558412D01*
X4443753Y-10558412D02*
X4443753Y-10482222D01*
X4443753Y-10482222D02*
X4453277Y-10463174D01*
X4453277Y-10463174D02*
X4472325Y-10453650D01*
X4472325Y-10453650D02*
X4510420Y-10453650D01*
X4510420Y-10453650D02*
X4529468Y-10463174D01*
X4529468Y-10463174D02*
X4538992Y-10482222D01*
X4538992Y-10482222D02*
X4538992Y-10501270D01*
X4538992Y-10501270D02*
X4443753Y-10520317D01*
X4615182Y-10577460D02*
X4634230Y-10586984D01*
X4634230Y-10586984D02*
X4672325Y-10586984D01*
X4672325Y-10586984D02*
X4691373Y-10577460D01*
X4691373Y-10577460D02*
X4700896Y-10558412D01*
X4700896Y-10558412D02*
X4700896Y-10548889D01*
X4700896Y-10548889D02*
X4691373Y-10529841D01*
X4691373Y-10529841D02*
X4672325Y-10520317D01*
X4672325Y-10520317D02*
X4643753Y-10520317D01*
X4643753Y-10520317D02*
X4624706Y-10510793D01*
X4624706Y-10510793D02*
X4615182Y-10491746D01*
X4615182Y-10491746D02*
X4615182Y-10482222D01*
X4615182Y-10482222D02*
X4624706Y-10463174D01*
X4624706Y-10463174D02*
X4643753Y-10453650D01*
X4643753Y-10453650D02*
X4672325Y-10453650D01*
X4672325Y-10453650D02*
X4691373Y-10463174D01*
X4767563Y-10663174D02*
X4777087Y-10653650D01*
X4777087Y-10653650D02*
X4796134Y-10625079D01*
X4796134Y-10625079D02*
X4805658Y-10606031D01*
X4805658Y-10606031D02*
X4815182Y-10577460D01*
X4815182Y-10577460D02*
X4824706Y-10529841D01*
X4824706Y-10529841D02*
X4824706Y-10491746D01*
X4824706Y-10491746D02*
X4815182Y-10444127D01*
X4815182Y-10444127D02*
X4805658Y-10415555D01*
X4805658Y-10415555D02*
X4796134Y-10396508D01*
X4796134Y-10396508D02*
X4777087Y-10367936D01*
X4777087Y-10367936D02*
X4767563Y-10358412D01*
X-207500Y-10659500D02*
X-7500Y-10859500D01*
X-7500Y-10659500D02*
X-207500Y-10859500D01*
X-107500Y-10859500D02*
X-7500Y-10759500D01*
X-107500Y-10659500D01*
X-207500Y-10759500D01*
X-107500Y-10859500D01*
X243753Y-10670031D02*
X253277Y-10660508D01*
X253277Y-10660508D02*
X272324Y-10650984D01*
X272324Y-10650984D02*
X319944Y-10650984D01*
X319944Y-10650984D02*
X338991Y-10660508D01*
X338991Y-10660508D02*
X348515Y-10670031D01*
X348515Y-10670031D02*
X358039Y-10689079D01*
X358039Y-10689079D02*
X358039Y-10708127D01*
X358039Y-10708127D02*
X348515Y-10736698D01*
X348515Y-10736698D02*
X234229Y-10850984D01*
X234229Y-10850984D02*
X358039Y-10850984D01*
X443753Y-10831936D02*
X453277Y-10841460D01*
X453277Y-10841460D02*
X443753Y-10850984D01*
X443753Y-10850984D02*
X434229Y-10841460D01*
X434229Y-10841460D02*
X443753Y-10831936D01*
X443753Y-10831936D02*
X443753Y-10850984D01*
X519943Y-10650984D02*
X653277Y-10650984D01*
X653277Y-10650984D02*
X567563Y-10850984D01*
X767562Y-10650984D02*
X786610Y-10650984D01*
X786610Y-10650984D02*
X805658Y-10660508D01*
X805658Y-10660508D02*
X815182Y-10670031D01*
X815182Y-10670031D02*
X824705Y-10689079D01*
X824705Y-10689079D02*
X834229Y-10727174D01*
X834229Y-10727174D02*
X834229Y-10774793D01*
X834229Y-10774793D02*
X824705Y-10812889D01*
X824705Y-10812889D02*
X815182Y-10831936D01*
X815182Y-10831936D02*
X805658Y-10841460D01*
X805658Y-10841460D02*
X786610Y-10850984D01*
X786610Y-10850984D02*
X767562Y-10850984D01*
X767562Y-10850984D02*
X748515Y-10841460D01*
X748515Y-10841460D02*
X738991Y-10831936D01*
X738991Y-10831936D02*
X729467Y-10812889D01*
X729467Y-10812889D02*
X719943Y-10774793D01*
X719943Y-10774793D02*
X719943Y-10727174D01*
X719943Y-10727174D02*
X729467Y-10689079D01*
X729467Y-10689079D02*
X738991Y-10670031D01*
X738991Y-10670031D02*
X748515Y-10660508D01*
X748515Y-10660508D02*
X767562Y-10650984D01*
X958039Y-10650984D02*
X977086Y-10650984D01*
X977086Y-10650984D02*
X996134Y-10660508D01*
X996134Y-10660508D02*
X1005658Y-10670031D01*
X1005658Y-10670031D02*
X1015182Y-10689079D01*
X1015182Y-10689079D02*
X1024705Y-10727174D01*
X1024705Y-10727174D02*
X1024705Y-10774793D01*
X1024705Y-10774793D02*
X1015182Y-10812889D01*
X1015182Y-10812889D02*
X1005658Y-10831936D01*
X1005658Y-10831936D02*
X996134Y-10841460D01*
X996134Y-10841460D02*
X977086Y-10850984D01*
X977086Y-10850984D02*
X958039Y-10850984D01*
X958039Y-10850984D02*
X938991Y-10841460D01*
X938991Y-10841460D02*
X929467Y-10831936D01*
X929467Y-10831936D02*
X919943Y-10812889D01*
X919943Y-10812889D02*
X910420Y-10774793D01*
X910420Y-10774793D02*
X910420Y-10727174D01*
X910420Y-10727174D02*
X919943Y-10689079D01*
X919943Y-10689079D02*
X929467Y-10670031D01*
X929467Y-10670031D02*
X938991Y-10660508D01*
X938991Y-10660508D02*
X958039Y-10650984D01*
X1110420Y-10850984D02*
X1110420Y-10717650D01*
X1110420Y-10736698D02*
X1119944Y-10727174D01*
X1119944Y-10727174D02*
X1138991Y-10717650D01*
X1138991Y-10717650D02*
X1167563Y-10717650D01*
X1167563Y-10717650D02*
X1186610Y-10727174D01*
X1186610Y-10727174D02*
X1196134Y-10746222D01*
X1196134Y-10746222D02*
X1196134Y-10850984D01*
X1196134Y-10746222D02*
X1205658Y-10727174D01*
X1205658Y-10727174D02*
X1224705Y-10717650D01*
X1224705Y-10717650D02*
X1253277Y-10717650D01*
X1253277Y-10717650D02*
X1272325Y-10727174D01*
X1272325Y-10727174D02*
X1281848Y-10746222D01*
X1281848Y-10746222D02*
X1281848Y-10850984D01*
X1377086Y-10850984D02*
X1377086Y-10717650D01*
X1377086Y-10736698D02*
X1386610Y-10727174D01*
X1386610Y-10727174D02*
X1405658Y-10717650D01*
X1405658Y-10717650D02*
X1434229Y-10717650D01*
X1434229Y-10717650D02*
X1453277Y-10727174D01*
X1453277Y-10727174D02*
X1462801Y-10746222D01*
X1462801Y-10746222D02*
X1462801Y-10850984D01*
X1462801Y-10746222D02*
X1472324Y-10727174D01*
X1472324Y-10727174D02*
X1491372Y-10717650D01*
X1491372Y-10717650D02*
X1519943Y-10717650D01*
X1519943Y-10717650D02*
X1538991Y-10727174D01*
X1538991Y-10727174D02*
X1548515Y-10746222D01*
X1548515Y-10746222D02*
X1548515Y-10850984D01*
X1938991Y-10641460D02*
X1767563Y-10898603D01*
X2196134Y-10650984D02*
X2215182Y-10650984D01*
X2215182Y-10650984D02*
X2234229Y-10660508D01*
X2234229Y-10660508D02*
X2243753Y-10670031D01*
X2243753Y-10670031D02*
X2253277Y-10689079D01*
X2253277Y-10689079D02*
X2262801Y-10727174D01*
X2262801Y-10727174D02*
X2262801Y-10774793D01*
X2262801Y-10774793D02*
X2253277Y-10812889D01*
X2253277Y-10812889D02*
X2243753Y-10831936D01*
X2243753Y-10831936D02*
X2234229Y-10841460D01*
X2234229Y-10841460D02*
X2215182Y-10850984D01*
X2215182Y-10850984D02*
X2196134Y-10850984D01*
X2196134Y-10850984D02*
X2177087Y-10841460D01*
X2177087Y-10841460D02*
X2167563Y-10831936D01*
X2167563Y-10831936D02*
X2158039Y-10812889D01*
X2158039Y-10812889D02*
X2148515Y-10774793D01*
X2148515Y-10774793D02*
X2148515Y-10727174D01*
X2148515Y-10727174D02*
X2158039Y-10689079D01*
X2158039Y-10689079D02*
X2167563Y-10670031D01*
X2167563Y-10670031D02*
X2177087Y-10660508D01*
X2177087Y-10660508D02*
X2196134Y-10650984D01*
X2348515Y-10831936D02*
X2358039Y-10841460D01*
X2358039Y-10841460D02*
X2348515Y-10850984D01*
X2348515Y-10850984D02*
X2338991Y-10841460D01*
X2338991Y-10841460D02*
X2348515Y-10831936D01*
X2348515Y-10831936D02*
X2348515Y-10850984D01*
X2548515Y-10850984D02*
X2434229Y-10850984D01*
X2491372Y-10850984D02*
X2491372Y-10650984D01*
X2491372Y-10650984D02*
X2472325Y-10679555D01*
X2472325Y-10679555D02*
X2453277Y-10698603D01*
X2453277Y-10698603D02*
X2434229Y-10708127D01*
X2672325Y-10650984D02*
X2691372Y-10650984D01*
X2691372Y-10650984D02*
X2710420Y-10660508D01*
X2710420Y-10660508D02*
X2719944Y-10670031D01*
X2719944Y-10670031D02*
X2729468Y-10689079D01*
X2729468Y-10689079D02*
X2738991Y-10727174D01*
X2738991Y-10727174D02*
X2738991Y-10774793D01*
X2738991Y-10774793D02*
X2729468Y-10812889D01*
X2729468Y-10812889D02*
X2719944Y-10831936D01*
X2719944Y-10831936D02*
X2710420Y-10841460D01*
X2710420Y-10841460D02*
X2691372Y-10850984D01*
X2691372Y-10850984D02*
X2672325Y-10850984D01*
X2672325Y-10850984D02*
X2653277Y-10841460D01*
X2653277Y-10841460D02*
X2643753Y-10831936D01*
X2643753Y-10831936D02*
X2634229Y-10812889D01*
X2634229Y-10812889D02*
X2624706Y-10774793D01*
X2624706Y-10774793D02*
X2624706Y-10727174D01*
X2624706Y-10727174D02*
X2634229Y-10689079D01*
X2634229Y-10689079D02*
X2643753Y-10670031D01*
X2643753Y-10670031D02*
X2653277Y-10660508D01*
X2653277Y-10660508D02*
X2672325Y-10650984D01*
X2910420Y-10650984D02*
X2872325Y-10650984D01*
X2872325Y-10650984D02*
X2853277Y-10660508D01*
X2853277Y-10660508D02*
X2843753Y-10670031D01*
X2843753Y-10670031D02*
X2824706Y-10698603D01*
X2824706Y-10698603D02*
X2815182Y-10736698D01*
X2815182Y-10736698D02*
X2815182Y-10812889D01*
X2815182Y-10812889D02*
X2824706Y-10831936D01*
X2824706Y-10831936D02*
X2834229Y-10841460D01*
X2834229Y-10841460D02*
X2853277Y-10850984D01*
X2853277Y-10850984D02*
X2891372Y-10850984D01*
X2891372Y-10850984D02*
X2910420Y-10841460D01*
X2910420Y-10841460D02*
X2919944Y-10831936D01*
X2919944Y-10831936D02*
X2929467Y-10812889D01*
X2929467Y-10812889D02*
X2929467Y-10765270D01*
X2929467Y-10765270D02*
X2919944Y-10746222D01*
X2919944Y-10746222D02*
X2910420Y-10736698D01*
X2910420Y-10736698D02*
X2891372Y-10727174D01*
X2891372Y-10727174D02*
X2853277Y-10727174D01*
X2853277Y-10727174D02*
X2834229Y-10736698D01*
X2834229Y-10736698D02*
X2824706Y-10746222D01*
X2824706Y-10746222D02*
X2815182Y-10765270D01*
X2996134Y-10650984D02*
X3119944Y-10650984D01*
X3119944Y-10650984D02*
X3053277Y-10727174D01*
X3053277Y-10727174D02*
X3081848Y-10727174D01*
X3081848Y-10727174D02*
X3100896Y-10736698D01*
X3100896Y-10736698D02*
X3110420Y-10746222D01*
X3110420Y-10746222D02*
X3119944Y-10765270D01*
X3119944Y-10765270D02*
X3119944Y-10812889D01*
X3119944Y-10812889D02*
X3110420Y-10831936D01*
X3110420Y-10831936D02*
X3100896Y-10841460D01*
X3100896Y-10841460D02*
X3081848Y-10850984D01*
X3081848Y-10850984D02*
X3024706Y-10850984D01*
X3024706Y-10850984D02*
X3005658Y-10841460D01*
X3005658Y-10841460D02*
X2996134Y-10831936D01*
X3196134Y-10650984D02*
X3196134Y-10689079D01*
X3272325Y-10650984D02*
X3272325Y-10689079D01*
X3567563Y-10927174D02*
X3558039Y-10917650D01*
X3558039Y-10917650D02*
X3538991Y-10889079D01*
X3538991Y-10889079D02*
X3529468Y-10870031D01*
X3529468Y-10870031D02*
X3519944Y-10841460D01*
X3519944Y-10841460D02*
X3510420Y-10793841D01*
X3510420Y-10793841D02*
X3510420Y-10755746D01*
X3510420Y-10755746D02*
X3519944Y-10708127D01*
X3519944Y-10708127D02*
X3529468Y-10679555D01*
X3529468Y-10679555D02*
X3538991Y-10660508D01*
X3538991Y-10660508D02*
X3558039Y-10631936D01*
X3558039Y-10631936D02*
X3567563Y-10622412D01*
X3634229Y-10670031D02*
X3643753Y-10660508D01*
X3643753Y-10660508D02*
X3662801Y-10650984D01*
X3662801Y-10650984D02*
X3710420Y-10650984D01*
X3710420Y-10650984D02*
X3729468Y-10660508D01*
X3729468Y-10660508D02*
X3738991Y-10670031D01*
X3738991Y-10670031D02*
X3748515Y-10689079D01*
X3748515Y-10689079D02*
X3748515Y-10708127D01*
X3748515Y-10708127D02*
X3738991Y-10736698D01*
X3738991Y-10736698D02*
X3624706Y-10850984D01*
X3624706Y-10850984D02*
X3748515Y-10850984D01*
X3986610Y-10850984D02*
X3986610Y-10650984D01*
X4072325Y-10850984D02*
X4072325Y-10746222D01*
X4072325Y-10746222D02*
X4062801Y-10727174D01*
X4062801Y-10727174D02*
X4043753Y-10717650D01*
X4043753Y-10717650D02*
X4015182Y-10717650D01*
X4015182Y-10717650D02*
X3996134Y-10727174D01*
X3996134Y-10727174D02*
X3986610Y-10736698D01*
X4196134Y-10850984D02*
X4177087Y-10841460D01*
X4177087Y-10841460D02*
X4167563Y-10831936D01*
X4167563Y-10831936D02*
X4158039Y-10812889D01*
X4158039Y-10812889D02*
X4158039Y-10755746D01*
X4158039Y-10755746D02*
X4167563Y-10736698D01*
X4167563Y-10736698D02*
X4177087Y-10727174D01*
X4177087Y-10727174D02*
X4196134Y-10717650D01*
X4196134Y-10717650D02*
X4224706Y-10717650D01*
X4224706Y-10717650D02*
X4243753Y-10727174D01*
X4243753Y-10727174D02*
X4253277Y-10736698D01*
X4253277Y-10736698D02*
X4262801Y-10755746D01*
X4262801Y-10755746D02*
X4262801Y-10812889D01*
X4262801Y-10812889D02*
X4253277Y-10831936D01*
X4253277Y-10831936D02*
X4243753Y-10841460D01*
X4243753Y-10841460D02*
X4224706Y-10850984D01*
X4224706Y-10850984D02*
X4196134Y-10850984D01*
X4377087Y-10850984D02*
X4358039Y-10841460D01*
X4358039Y-10841460D02*
X4348515Y-10822412D01*
X4348515Y-10822412D02*
X4348515Y-10650984D01*
X4529468Y-10841460D02*
X4510420Y-10850984D01*
X4510420Y-10850984D02*
X4472325Y-10850984D01*
X4472325Y-10850984D02*
X4453277Y-10841460D01*
X4453277Y-10841460D02*
X4443753Y-10822412D01*
X4443753Y-10822412D02*
X4443753Y-10746222D01*
X4443753Y-10746222D02*
X4453277Y-10727174D01*
X4453277Y-10727174D02*
X4472325Y-10717650D01*
X4472325Y-10717650D02*
X4510420Y-10717650D01*
X4510420Y-10717650D02*
X4529468Y-10727174D01*
X4529468Y-10727174D02*
X4538992Y-10746222D01*
X4538992Y-10746222D02*
X4538992Y-10765270D01*
X4538992Y-10765270D02*
X4443753Y-10784317D01*
X4615182Y-10841460D02*
X4634230Y-10850984D01*
X4634230Y-10850984D02*
X4672325Y-10850984D01*
X4672325Y-10850984D02*
X4691373Y-10841460D01*
X4691373Y-10841460D02*
X4700896Y-10822412D01*
X4700896Y-10822412D02*
X4700896Y-10812889D01*
X4700896Y-10812889D02*
X4691373Y-10793841D01*
X4691373Y-10793841D02*
X4672325Y-10784317D01*
X4672325Y-10784317D02*
X4643753Y-10784317D01*
X4643753Y-10784317D02*
X4624706Y-10774793D01*
X4624706Y-10774793D02*
X4615182Y-10755746D01*
X4615182Y-10755746D02*
X4615182Y-10746222D01*
X4615182Y-10746222D02*
X4624706Y-10727174D01*
X4624706Y-10727174D02*
X4643753Y-10717650D01*
X4643753Y-10717650D02*
X4672325Y-10717650D01*
X4672325Y-10717650D02*
X4691373Y-10727174D01*
X4767563Y-10927174D02*
X4777087Y-10917650D01*
X4777087Y-10917650D02*
X4796134Y-10889079D01*
X4796134Y-10889079D02*
X4805658Y-10870031D01*
X4805658Y-10870031D02*
X4815182Y-10841460D01*
X4815182Y-10841460D02*
X4824706Y-10793841D01*
X4824706Y-10793841D02*
X4824706Y-10755746D01*
X4824706Y-10755746D02*
X4815182Y-10708127D01*
X4815182Y-10708127D02*
X4805658Y-10679555D01*
X4805658Y-10679555D02*
X4796134Y-10660508D01*
X4796134Y-10660508D02*
X4777087Y-10631936D01*
X4777087Y-10631936D02*
X4767563Y-10622412D01*
M02*
