G04 #@! TF.GenerationSoftware,KiCad,Pcbnew,7.0.11+dfsg-1build4*
G04 #@! TF.CreationDate,2026-07-05T19:21:09+00:00*
G04 #@! TF.ProjectId,main-board,6d61696e-2d62-46f6-9172-642e6b696361,rev?*
G04 #@! TF.SameCoordinates,Original*
G04 #@! TF.FileFunction,Soldermask,Top*
G04 #@! TF.FilePolarity,Negative*
%FSLAX46Y46*%
G04 Gerber Fmt 4.6, Leading zero omitted, Abs format (unit mm)*
G04 Created by KiCad (PCBNEW 7.0.11+dfsg-1build4) date 2026-07-05 19:21:09*
%MOMM*%
%LPD*%
G01*
G04 APERTURE LIST*
G04 Aperture macros list*
%AMRoundRect*
0 Rectangle with rounded corners*
0 $1 Rounding radius*
0 $2 $3 $4 $5 $6 $7 $8 $9 X,Y pos of 4 corners*
0 Add a 4 corners polygon primitive as box body*
4,1,4,$2,$3,$4,$5,$6,$7,$8,$9,$2,$3,0*
0 Add four circle primitives for the rounded corners*
1,1,$1+$1,$2,$3*
1,1,$1+$1,$4,$5*
1,1,$1+$1,$6,$7*
1,1,$1+$1,$8,$9*
0 Add four rect primitives between the rounded corners*
20,1,$1+$1,$2,$3,$4,$5,0*
20,1,$1+$1,$4,$5,$6,$7,0*
20,1,$1+$1,$6,$7,$8,$9,0*
20,1,$1+$1,$8,$9,$2,$3,0*%
G04 Aperture macros list end*
%ADD10RoundRect,0.075000X-0.662500X-0.075000X0.662500X-0.075000X0.662500X0.075000X-0.662500X0.075000X0*%
%ADD11RoundRect,0.075000X-0.075000X-0.662500X0.075000X-0.662500X0.075000X0.662500X-0.075000X0.662500X0*%
%ADD12RoundRect,0.200000X-0.200000X-0.275000X0.200000X-0.275000X0.200000X0.275000X-0.200000X0.275000X0*%
%ADD13R,2.400000X0.740000*%
%ADD14RoundRect,0.375000X-0.625000X-0.375000X0.625000X-0.375000X0.625000X0.375000X-0.625000X0.375000X0*%
%ADD15RoundRect,0.500000X-0.500000X-1.400000X0.500000X-1.400000X0.500000X1.400000X-0.500000X1.400000X0*%
%ADD16RoundRect,0.112500X-0.187500X-0.112500X0.187500X-0.112500X0.187500X0.112500X-0.187500X0.112500X0*%
%ADD17R,1.400000X1.200000*%
%ADD18RoundRect,0.250000X-0.250000X-0.475000X0.250000X-0.475000X0.250000X0.475000X-0.250000X0.475000X0*%
%ADD19RoundRect,0.250000X-0.350000X-0.625000X0.350000X-0.625000X0.350000X0.625000X-0.350000X0.625000X0*%
%ADD20O,1.200000X1.750000*%
%ADD21RoundRect,0.150000X-0.512500X-0.150000X0.512500X-0.150000X0.512500X0.150000X-0.512500X0.150000X0*%
%ADD22RoundRect,0.225000X-0.225000X-0.250000X0.225000X-0.250000X0.225000X0.250000X-0.225000X0.250000X0*%
%ADD23RoundRect,0.150000X-0.825000X-0.150000X0.825000X-0.150000X0.825000X0.150000X-0.825000X0.150000X0*%
%ADD24RoundRect,0.200000X0.275000X-0.200000X0.275000X0.200000X-0.275000X0.200000X-0.275000X-0.200000X0*%
%ADD25R,1.700000X1.700000*%
%ADD26O,1.700000X1.700000*%
%ADD27R,2.600000X2.600000*%
%ADD28C,2.600000*%
%ADD29C,3.200000*%
%ADD30R,2.900000X5.400000*%
%ADD31C,1.700000*%
%ADD32R,2.200000X2.800000*%
%ADD33R,2.800000X2.800000*%
%ADD34RoundRect,0.250000X-0.325000X-0.650000X0.325000X-0.650000X0.325000X0.650000X-0.325000X0.650000X0*%
%ADD35RoundRect,0.250000X-1.950000X-1.000000X1.950000X-1.000000X1.950000X1.000000X-1.950000X1.000000X0*%
%ADD36RoundRect,0.225000X-0.225000X-0.375000X0.225000X-0.375000X0.225000X0.375000X-0.225000X0.375000X0*%
%ADD37RoundRect,0.218750X-0.218750X-0.256250X0.218750X-0.256250X0.218750X0.256250X-0.218750X0.256250X0*%
%ADD38R,1.500000X0.900000*%
%ADD39R,0.900000X1.500000*%
%ADD40C,0.600000*%
%ADD41R,3.900000X3.900000*%
%ADD42R,4.110000X4.360000*%
%ADD43R,1.200000X0.400000*%
%ADD44R,3.800000X3.800000*%
%ADD45C,3.800000*%
%ADD46RoundRect,0.250000X-0.312500X-1.450000X0.312500X-1.450000X0.312500X1.450000X-0.312500X1.450000X0*%
%ADD47R,1.500000X2.400000*%
%ADD48R,1.800000X1.100000*%
%ADD49RoundRect,0.150000X-0.587500X-0.150000X0.587500X-0.150000X0.587500X0.150000X-0.587500X0.150000X0*%
%ADD50C,0.650000*%
%ADD51R,1.450000X0.600000*%
%ADD52R,1.450000X0.300000*%
%ADD53O,2.100000X1.000000*%
%ADD54O,1.600000X1.000000*%
%ADD55RoundRect,0.250000X0.475000X-0.250000X0.475000X0.250000X-0.475000X0.250000X-0.475000X-0.250000X0*%
%ADD56RoundRect,0.250000X-1.000000X-0.900000X1.000000X-0.900000X1.000000X0.900000X-1.000000X0.900000X0*%
%ADD57RoundRect,0.225000X0.250000X-0.225000X0.250000X0.225000X-0.250000X0.225000X-0.250000X-0.225000X0*%
%ADD58R,2.600000X3.100000*%
%ADD59R,1.550000X0.600000*%
%ADD60RoundRect,0.250000X-1.000000X-0.650000X1.000000X-0.650000X1.000000X0.650000X-1.000000X0.650000X0*%
%ADD61RoundRect,0.250000X-1.500000X-0.550000X1.500000X-0.550000X1.500000X0.550000X-1.500000X0.550000X0*%
%ADD62RoundRect,0.250000X-0.600000X-0.725000X0.600000X-0.725000X0.600000X0.725000X-0.600000X0.725000X0*%
%ADD63O,1.700000X1.950000*%
%ADD64RoundRect,0.218750X-0.218750X-0.381250X0.218750X-0.381250X0.218750X0.381250X-0.218750X0.381250X0*%
G04 APERTURE END LIST*
D10*
G04 #@! TO.C,U3*
X23837500Y-52250000D03*
X23837500Y-52750000D03*
X23837500Y-53250000D03*
X23837500Y-53750000D03*
X23837500Y-54250000D03*
X23837500Y-54750000D03*
X23837500Y-55250000D03*
X23837500Y-55750000D03*
X23837500Y-56250000D03*
X23837500Y-56750000D03*
X23837500Y-57250000D03*
X23837500Y-57750000D03*
D11*
X25250000Y-59162500D03*
X25750000Y-59162500D03*
X26250000Y-59162500D03*
X26750000Y-59162500D03*
X27250000Y-59162500D03*
X27750000Y-59162500D03*
X28250000Y-59162500D03*
X28750000Y-59162500D03*
X29250000Y-59162500D03*
X29750000Y-59162500D03*
X30250000Y-59162500D03*
X30750000Y-59162500D03*
D10*
X32162500Y-57750000D03*
X32162500Y-57250000D03*
X32162500Y-56750000D03*
X32162500Y-56250000D03*
X32162500Y-55750000D03*
X32162500Y-55250000D03*
X32162500Y-54750000D03*
X32162500Y-54250000D03*
X32162500Y-53750000D03*
X32162500Y-53250000D03*
X32162500Y-52750000D03*
X32162500Y-52250000D03*
D11*
X30750000Y-50837500D03*
X30250000Y-50837500D03*
X29750000Y-50837500D03*
X29250000Y-50837500D03*
X28750000Y-50837500D03*
X28250000Y-50837500D03*
X27750000Y-50837500D03*
X27250000Y-50837500D03*
X26750000Y-50837500D03*
X26250000Y-50837500D03*
X25750000Y-50837500D03*
X25250000Y-50837500D03*
G04 #@! TD*
D12*
G04 #@! TO.C,R60*
X35980000Y-60055000D03*
X37630000Y-60055000D03*
G04 #@! TD*
D13*
G04 #@! TO.C,J12*
X74550000Y-39460000D03*
X78450000Y-39460000D03*
X74550000Y-40730000D03*
X78450000Y-40730000D03*
X74550000Y-42000000D03*
X78450000Y-42000000D03*
X74550000Y-43270000D03*
X78450000Y-43270000D03*
X74550000Y-44540000D03*
X78450000Y-44540000D03*
G04 #@! TD*
D12*
G04 #@! TO.C,R41*
X75980000Y-47555000D03*
X77630000Y-47555000D03*
G04 #@! TD*
D14*
G04 #@! TO.C,U2*
X81850000Y-47700000D03*
X81850000Y-50000000D03*
D15*
X88150000Y-50000000D03*
D14*
X81850000Y-52300000D03*
G04 #@! TD*
D16*
G04 #@! TO.C,D4*
X85397500Y-18275000D03*
X87497500Y-18275000D03*
G04 #@! TD*
D12*
G04 #@! TO.C,R27*
X18480000Y-63055000D03*
X20130000Y-63055000D03*
G04 #@! TD*
D17*
G04 #@! TO.C,Y1*
X24900000Y-66850000D03*
X27100000Y-66850000D03*
X27100000Y-65150000D03*
X24900000Y-65150000D03*
G04 #@! TD*
D18*
G04 #@! TO.C,C42*
X19575000Y-68305000D03*
X21475000Y-68305000D03*
G04 #@! TD*
D12*
G04 #@! TO.C,R12*
X90175000Y-27400000D03*
X91825000Y-27400000D03*
G04 #@! TD*
G04 #@! TO.C,R28*
X11480000Y-63555000D03*
X13130000Y-63555000D03*
G04 #@! TD*
D18*
G04 #@! TO.C,C63*
X77075000Y-52805000D03*
X78975000Y-52805000D03*
G04 #@! TD*
D19*
G04 #@! TO.C,J14*
X40000000Y-70000000D03*
D20*
X42000000Y-70000000D03*
X44000000Y-70000000D03*
X46000000Y-70000000D03*
X48000000Y-70000000D03*
X50000000Y-70000000D03*
X52000000Y-70000000D03*
X54000000Y-70000000D03*
G04 #@! TD*
D21*
G04 #@! TO.C,U9*
X88862500Y-55050000D03*
X88862500Y-56000000D03*
X88862500Y-56950000D03*
X91137500Y-56950000D03*
X91137500Y-56000000D03*
X91137500Y-55050000D03*
G04 #@! TD*
D22*
G04 #@! TO.C,C48*
X42530000Y-25155000D03*
X44080000Y-25155000D03*
G04 #@! TD*
D23*
G04 #@! TO.C,Q2*
X77525000Y-12095000D03*
X77525000Y-13365000D03*
X77525000Y-14635000D03*
X77525000Y-15905000D03*
X82475000Y-15905000D03*
X82475000Y-14635000D03*
X82475000Y-13365000D03*
X82475000Y-12095000D03*
G04 #@! TD*
D24*
G04 #@! TO.C,R22*
X58300000Y-67825000D03*
X58300000Y-66175000D03*
G04 #@! TD*
D18*
G04 #@! TO.C,C34*
X9575000Y-58305000D03*
X11475000Y-58305000D03*
G04 #@! TD*
D25*
G04 #@! TO.C,J5*
X30000000Y-62000000D03*
D26*
X32540000Y-62000000D03*
X30000000Y-64540000D03*
X32540000Y-64540000D03*
X30000000Y-67080000D03*
X32540000Y-67080000D03*
X30000000Y-69620000D03*
X32540000Y-69620000D03*
X30000000Y-72160000D03*
X32540000Y-72160000D03*
G04 #@! TD*
D12*
G04 #@! TO.C,R15*
X43980000Y-43055000D03*
X45630000Y-43055000D03*
G04 #@! TD*
D27*
G04 #@! TO.C,J9*
X36000000Y-4000000D03*
D28*
X41080000Y-4000000D03*
G04 #@! TD*
D18*
G04 #@! TO.C,C10*
X68050000Y-34800000D03*
X69950000Y-34800000D03*
G04 #@! TD*
D12*
G04 #@! TO.C,R9*
X43980000Y-58055000D03*
X45630000Y-58055000D03*
G04 #@! TD*
G04 #@! TO.C,R23*
X13980000Y-55055000D03*
X15630000Y-55055000D03*
G04 #@! TD*
G04 #@! TO.C,R30*
X50480000Y-25155000D03*
X52130000Y-25155000D03*
G04 #@! TD*
D29*
G04 #@! TO.C,H*
X4000000Y-58000000D03*
G04 #@! TD*
D27*
G04 #@! TO.C,J7*
X8000000Y-4000000D03*
D28*
X13080000Y-4000000D03*
G04 #@! TD*
D18*
G04 #@! TO.C,C33*
X18075000Y-55305000D03*
X19975000Y-55305000D03*
G04 #@! TD*
D12*
G04 #@! TO.C,R20*
X48175000Y-76000000D03*
X49825000Y-76000000D03*
G04 #@! TD*
D29*
G04 #@! TO.C,H*
X52000000Y-5000000D03*
G04 #@! TD*
D22*
G04 #@! TO.C,C15*
X36030000Y-45555000D03*
X37580000Y-45555000D03*
G04 #@! TD*
D18*
G04 #@! TO.C,C72*
X69075000Y-56305000D03*
X70975000Y-56305000D03*
G04 #@! TD*
D30*
G04 #@! TO.C,L7*
X16050000Y-32000000D03*
X25950000Y-32000000D03*
G04 #@! TD*
D12*
G04 #@! TO.C,R37*
X63480000Y-45055000D03*
X65130000Y-45055000D03*
G04 #@! TD*
D22*
G04 #@! TO.C,C73*
X67530000Y-45055000D03*
X69080000Y-45055000D03*
G04 #@! TD*
D23*
G04 #@! TO.C,U4*
X41525000Y-46095000D03*
X41525000Y-47365000D03*
X41525000Y-48635000D03*
X41525000Y-49905000D03*
X46475000Y-49905000D03*
X46475000Y-48635000D03*
X46475000Y-47365000D03*
X46475000Y-46095000D03*
G04 #@! TD*
D18*
G04 #@! TO.C,C62*
X44075000Y-52805000D03*
X45975000Y-52805000D03*
G04 #@! TD*
D31*
G04 #@! TO.C,J6*
X11500000Y-72000000D03*
X4500000Y-72000000D03*
D32*
X10600000Y-75700000D03*
X12600000Y-68300000D03*
D33*
X3200000Y-68300000D03*
G04 #@! TD*
D30*
G04 #@! TO.C,L4*
X30050000Y-17000000D03*
X39950000Y-17000000D03*
G04 #@! TD*
D29*
G04 #@! TO.C,H*
X96500000Y-28000000D03*
G04 #@! TD*
D12*
G04 #@! TO.C,R31*
X51980000Y-27555000D03*
X53630000Y-27555000D03*
G04 #@! TD*
G04 #@! TO.C,R29*
X23980000Y-69555000D03*
X25630000Y-69555000D03*
G04 #@! TD*
D34*
G04 #@! TO.C,C2*
X82650000Y-40975000D03*
X85600000Y-40975000D03*
G04 #@! TD*
D22*
G04 #@! TO.C,C4*
X82530000Y-44055000D03*
X84080000Y-44055000D03*
G04 #@! TD*
D35*
G04 #@! TO.C,C80*
X59800000Y-27000000D03*
X68200000Y-27000000D03*
G04 #@! TD*
D25*
G04 #@! TO.C,J4*
X97000000Y-14000000D03*
D26*
X97000000Y-16540000D03*
X97000000Y-19080000D03*
G04 #@! TD*
D18*
G04 #@! TO.C,C11*
X93550000Y-22500000D03*
X95450000Y-22500000D03*
G04 #@! TD*
D22*
G04 #@! TO.C,C70*
X35030000Y-54055000D03*
X36580000Y-54055000D03*
G04 #@! TD*
G04 #@! TO.C,C56*
X52030000Y-32555000D03*
X53580000Y-32555000D03*
G04 #@! TD*
G04 #@! TO.C,C75*
X72030000Y-47555000D03*
X73580000Y-47555000D03*
G04 #@! TD*
D12*
G04 #@! TO.C,R2*
X61480000Y-10055000D03*
X63130000Y-10055000D03*
G04 #@! TD*
D22*
G04 #@! TO.C,C6*
X36030000Y-62555000D03*
X37580000Y-62555000D03*
G04 #@! TD*
G04 #@! TO.C,C64*
X33030000Y-40355000D03*
X34580000Y-40355000D03*
G04 #@! TD*
G04 #@! TO.C,C16*
X22530000Y-48055000D03*
X24080000Y-48055000D03*
G04 #@! TD*
D12*
G04 #@! TO.C,R62*
X44175000Y-76000000D03*
X45825000Y-76000000D03*
G04 #@! TD*
D22*
G04 #@! TO.C,C28*
X86725000Y-30500000D03*
X88275000Y-30500000D03*
G04 #@! TD*
D36*
G04 #@! TO.C,D2*
X57547500Y-17975000D03*
X60847500Y-17975000D03*
G04 #@! TD*
D22*
G04 #@! TO.C,C24*
X36030000Y-43055000D03*
X37580000Y-43055000D03*
G04 #@! TD*
D18*
G04 #@! TO.C,C77*
X39575000Y-57305000D03*
X41475000Y-57305000D03*
G04 #@! TD*
D25*
G04 #@! TO.C,J13*
X14000000Y-76500000D03*
D26*
X16540000Y-76500000D03*
X19080000Y-76500000D03*
X21620000Y-76500000D03*
X24160000Y-76500000D03*
X26700000Y-76500000D03*
X29240000Y-76500000D03*
X31780000Y-76500000D03*
X34320000Y-76500000D03*
X36860000Y-76500000D03*
G04 #@! TD*
D22*
G04 #@! TO.C,C65*
X44030000Y-55555000D03*
X45580000Y-55555000D03*
G04 #@! TD*
G04 #@! TO.C,C38*
X3029999Y-63555000D03*
X4579999Y-63555000D03*
G04 #@! TD*
G04 #@! TO.C,C27*
X19530000Y-50555000D03*
X21080000Y-50555000D03*
G04 #@! TD*
D12*
G04 #@! TO.C,R26*
X18480000Y-60555000D03*
X20130000Y-60555000D03*
G04 #@! TD*
G04 #@! TO.C,R40*
X75980000Y-50055000D03*
X77630000Y-50055000D03*
G04 #@! TD*
G04 #@! TO.C,R4*
X89480000Y-18055000D03*
X91130000Y-18055000D03*
G04 #@! TD*
D22*
G04 #@! TO.C,C13*
X22530000Y-45555000D03*
X24080000Y-45555000D03*
G04 #@! TD*
G04 #@! TO.C,C55*
X52030000Y-30055000D03*
X53580000Y-30055000D03*
G04 #@! TD*
D18*
G04 #@! TO.C,C60*
X3075000Y-51805000D03*
X4975000Y-51805000D03*
G04 #@! TD*
D22*
G04 #@! TO.C,C58*
X52030000Y-37555000D03*
X53580000Y-37555000D03*
G04 #@! TD*
D37*
G04 #@! TO.C,D7*
X53037500Y-57595000D03*
X54612500Y-57595000D03*
G04 #@! TD*
D38*
G04 #@! TO.C,U8*
X92750000Y-77260000D03*
X92750000Y-75990000D03*
X92750000Y-74720000D03*
X92750000Y-73450000D03*
X92750000Y-72180000D03*
X92750000Y-70910000D03*
X92750000Y-69640000D03*
X92750000Y-68370000D03*
X92750000Y-67100000D03*
X92750000Y-65830000D03*
X92750000Y-64560000D03*
X92750000Y-63290000D03*
X92750000Y-62020000D03*
X92750000Y-60750000D03*
D39*
X90985000Y-59500000D03*
X89715000Y-59500000D03*
X88445000Y-59500000D03*
X87175000Y-59500000D03*
X85905000Y-59500000D03*
X84635000Y-59500000D03*
X83365000Y-59500000D03*
X82095000Y-59500000D03*
X80825000Y-59500000D03*
X79555000Y-59500000D03*
X78285000Y-59500000D03*
X77015000Y-59500000D03*
D38*
X75250000Y-60750000D03*
X75250000Y-62020000D03*
X75250000Y-63290000D03*
X75250000Y-64560000D03*
X75250000Y-65830000D03*
X75250000Y-67100000D03*
X75250000Y-68370000D03*
X75250000Y-69640000D03*
X75250000Y-70910000D03*
X75250000Y-72180000D03*
X75250000Y-73450000D03*
X75250000Y-74720000D03*
X75250000Y-75990000D03*
X75250000Y-77260000D03*
D40*
X86900000Y-70240000D03*
X86900000Y-68840000D03*
X86200000Y-70940000D03*
X86200000Y-69540000D03*
X86200000Y-68140000D03*
X85500000Y-70240000D03*
D41*
X85500000Y-69540000D03*
D40*
X85500000Y-68840000D03*
X84800000Y-70940000D03*
X84800000Y-69540000D03*
X84800000Y-68140000D03*
X84100000Y-70240000D03*
X84100000Y-68840000D03*
G04 #@! TD*
D42*
G04 #@! TO.C,U7*
X46000000Y-33000000D03*
D43*
X42350000Y-28125000D03*
X42350000Y-28775000D03*
X42350000Y-29425000D03*
X42350000Y-30075000D03*
X42350000Y-30725000D03*
X42350000Y-31375000D03*
X42350000Y-32025000D03*
X42350000Y-32675000D03*
X42350000Y-33325000D03*
X42350000Y-33975000D03*
X42350000Y-34625000D03*
X42350000Y-35275000D03*
X42350000Y-35925000D03*
X42350000Y-36575000D03*
X42350000Y-37225000D03*
X42350000Y-37875000D03*
X49650000Y-37875000D03*
X49650000Y-37225000D03*
X49650000Y-36575000D03*
X49650000Y-35925000D03*
X49650000Y-35275000D03*
X49650000Y-34625000D03*
X49650000Y-33975000D03*
X49650000Y-33325000D03*
X49650000Y-32675000D03*
X49650000Y-32025000D03*
X49650000Y-31375000D03*
X49650000Y-30725000D03*
X49650000Y-30075000D03*
X49650000Y-29425000D03*
X49650000Y-28775000D03*
X49650000Y-28125000D03*
G04 #@! TD*
D12*
G04 #@! TO.C,R8*
X64980000Y-56555000D03*
X66630000Y-56555000D03*
G04 #@! TD*
G04 #@! TO.C,R13*
X72175000Y-34500000D03*
X73825000Y-34500000D03*
G04 #@! TD*
D44*
G04 #@! TO.C,J1*
X58000000Y-5000000D03*
D45*
X63000000Y-5000000D03*
G04 #@! TD*
D18*
G04 #@! TO.C,C30*
X90050000Y-24000000D03*
X91950000Y-24000000D03*
G04 #@! TD*
D30*
G04 #@! TO.C,L6*
X2050000Y-32000000D03*
X11950000Y-32000000D03*
G04 #@! TD*
G04 #@! TO.C,L3*
X16050000Y-17000000D03*
X25950000Y-17000000D03*
G04 #@! TD*
D46*
G04 #@! TO.C,F1*
X61862500Y-14000000D03*
X66137500Y-14000000D03*
G04 #@! TD*
D12*
G04 #@! TO.C,R18*
X27480000Y-43055000D03*
X29130000Y-43055000D03*
G04 #@! TD*
D47*
G04 #@! TO.C,L1*
X89250000Y-43000000D03*
X94750000Y-43000000D03*
G04 #@! TD*
D22*
G04 #@! TO.C,C51*
X7530000Y-51555000D03*
X9080000Y-51555000D03*
G04 #@! TD*
D48*
G04 #@! TO.C,SW1*
X48900000Y-44150000D03*
X55100000Y-44150000D03*
X48900000Y-47850000D03*
X55100000Y-47850000D03*
G04 #@! TD*
D18*
G04 #@! TO.C,C32*
X9575000Y-55305000D03*
X11475000Y-55305000D03*
G04 #@! TD*
D12*
G04 #@! TO.C,R6*
X72480000Y-18555000D03*
X74130000Y-18555000D03*
G04 #@! TD*
G04 #@! TO.C,R11*
X54480000Y-63555000D03*
X56130000Y-63555000D03*
G04 #@! TD*
D36*
G04 #@! TO.C,D3*
X63047500Y-17975000D03*
X66347500Y-17975000D03*
G04 #@! TD*
D22*
G04 #@! TO.C,C68*
X45030000Y-40355000D03*
X46580000Y-40355000D03*
G04 #@! TD*
G04 #@! TO.C,C52*
X11530000Y-52555000D03*
X13080000Y-52555000D03*
G04 #@! TD*
D12*
G04 #@! TO.C,R1*
X57480000Y-10055000D03*
X59130000Y-10055000D03*
G04 #@! TD*
D34*
G04 #@! TO.C,C84*
X63650000Y-53475000D03*
X66600000Y-53475000D03*
G04 #@! TD*
D22*
G04 #@! TO.C,C12*
X76225000Y-34500000D03*
X77775000Y-34500000D03*
G04 #@! TD*
G04 #@! TO.C,C66*
X77030000Y-55555000D03*
X78580000Y-55555000D03*
G04 #@! TD*
D12*
G04 #@! TO.C,R25*
X17980000Y-58055000D03*
X19630000Y-58055000D03*
G04 #@! TD*
D22*
G04 #@! TO.C,C18*
X26530000Y-48055000D03*
X28080000Y-48055000D03*
G04 #@! TD*
D12*
G04 #@! TO.C,R14*
X40175000Y-76000000D03*
X41825000Y-76000000D03*
G04 #@! TD*
D22*
G04 #@! TO.C,C69*
X15530000Y-52555000D03*
X17080000Y-52555000D03*
G04 #@! TD*
D49*
G04 #@! TO.C,Q4*
X22807500Y-41162500D03*
X22807500Y-43062500D03*
X24682500Y-42112500D03*
G04 #@! TD*
D22*
G04 #@! TO.C,C26*
X15530000Y-50055000D03*
X17080000Y-50055000D03*
G04 #@! TD*
D50*
G04 #@! TO.C,J11*
X99600000Y-49110000D03*
X99600000Y-54890000D03*
D51*
X101045000Y-48750000D03*
X101045000Y-49550000D03*
D52*
X101045000Y-50750000D03*
X101045000Y-51750000D03*
X101045000Y-52250000D03*
X101045000Y-53250000D03*
D51*
X101045000Y-54450000D03*
X101045000Y-55250000D03*
X101045000Y-55250000D03*
X101045000Y-54450000D03*
D52*
X101045000Y-53750000D03*
X101045000Y-52750000D03*
X101045000Y-51250000D03*
X101045000Y-50250000D03*
D51*
X101045000Y-49550000D03*
X101045000Y-48750000D03*
D53*
X100130000Y-47680000D03*
D54*
X95950000Y-47680000D03*
D53*
X100130000Y-56320000D03*
D54*
X95950000Y-56320000D03*
G04 #@! TD*
D12*
G04 #@! TO.C,R7*
X80480000Y-18555000D03*
X82130000Y-18555000D03*
G04 #@! TD*
G04 #@! TO.C,R16*
X30480000Y-46055000D03*
X32130000Y-46055000D03*
G04 #@! TD*
D30*
G04 #@! TO.C,L2*
X2050000Y-17000000D03*
X11950000Y-17000000D03*
G04 #@! TD*
D18*
G04 #@! TO.C,C9*
X24075000Y-72305000D03*
X25975000Y-72305000D03*
G04 #@! TD*
D55*
G04 #@! TO.C,C43*
X58300000Y-57450000D03*
X58300000Y-55550000D03*
G04 #@! TD*
D18*
G04 #@! TO.C,C61*
X39575000Y-52805000D03*
X41475000Y-52805000D03*
G04 #@! TD*
D22*
G04 #@! TO.C,C31*
X52225000Y-76000000D03*
X53775000Y-76000000D03*
G04 #@! TD*
D56*
G04 #@! TO.C,D1*
X85850000Y-14000000D03*
X90150000Y-14000000D03*
G04 #@! TD*
D22*
G04 #@! TO.C,C36*
X9530000Y-61055000D03*
X11080000Y-61055000D03*
G04 #@! TD*
D29*
G04 #@! TO.C,H*
X4000000Y-43000000D03*
G04 #@! TD*
D22*
G04 #@! TO.C,C49*
X3029999Y-48555000D03*
X4579999Y-48555000D03*
G04 #@! TD*
G04 #@! TO.C,C5*
X44030000Y-60555000D03*
X45580000Y-60555000D03*
G04 #@! TD*
D18*
G04 #@! TO.C,C19*
X35075000Y-48305000D03*
X36975000Y-48305000D03*
G04 #@! TD*
G04 #@! TO.C,C41*
X7075000Y-63805000D03*
X8975000Y-63805000D03*
G04 #@! TD*
D35*
G04 #@! TO.C,C82*
X59800000Y-38000000D03*
X68200000Y-38000000D03*
G04 #@! TD*
D12*
G04 #@! TO.C,R5*
X68480000Y-18555000D03*
X70130000Y-18555000D03*
G04 #@! TD*
G04 #@! TO.C,R10*
X50480000Y-63555000D03*
X52130000Y-63555000D03*
G04 #@! TD*
D18*
G04 #@! TO.C,C59*
X35075000Y-51305000D03*
X36975000Y-51305000D03*
G04 #@! TD*
D22*
G04 #@! TO.C,C57*
X52030000Y-35055000D03*
X53580000Y-35055000D03*
G04 #@! TD*
D12*
G04 #@! TO.C,R17*
X11480000Y-50055000D03*
X13130000Y-50055000D03*
G04 #@! TD*
D22*
G04 #@! TO.C,C14*
X26530000Y-45555000D03*
X28080000Y-45555000D03*
G04 #@! TD*
D57*
G04 #@! TO.C,C40*
X58300000Y-71275000D03*
X58300000Y-69725000D03*
G04 #@! TD*
D18*
G04 #@! TO.C,C35*
X14075000Y-60805000D03*
X15975000Y-60805000D03*
G04 #@! TD*
D12*
G04 #@! TO.C,R24*
X13980000Y-57555000D03*
X15630000Y-57555000D03*
G04 #@! TD*
D22*
G04 #@! TO.C,C76*
X63530000Y-50055000D03*
X65080000Y-50055000D03*
G04 #@! TD*
D34*
G04 #@! TO.C,C83*
X71650000Y-52975000D03*
X74600000Y-52975000D03*
G04 #@! TD*
D27*
G04 #@! TO.C,J8*
X22000000Y-4000000D03*
D28*
X27080000Y-4000000D03*
G04 #@! TD*
D22*
G04 #@! TO.C,C29*
X90225000Y-30500000D03*
X91775000Y-30500000D03*
G04 #@! TD*
D49*
G04 #@! TO.C,Q3*
X48307500Y-57662500D03*
X48307500Y-59562500D03*
X50182500Y-58612500D03*
G04 #@! TD*
D23*
G04 #@! TO.C,Q1*
X69525000Y-12095000D03*
X69525000Y-13365000D03*
X69525000Y-14635000D03*
X69525000Y-15905000D03*
X74475000Y-15905000D03*
X74475000Y-14635000D03*
X74475000Y-13365000D03*
X74475000Y-12095000D03*
G04 #@! TD*
D22*
G04 #@! TO.C,C67*
X41030000Y-40355000D03*
X42580000Y-40355000D03*
G04 #@! TD*
D12*
G04 #@! TO.C,R19*
X86175000Y-21000000D03*
X87825000Y-21000000D03*
G04 #@! TD*
D18*
G04 #@! TO.C,C45*
X33575000Y-25405000D03*
X35475000Y-25405000D03*
G04 #@! TD*
D12*
G04 #@! TO.C,R61*
X39980000Y-60055000D03*
X41630000Y-60055000D03*
G04 #@! TD*
D18*
G04 #@! TO.C,C21*
X7075000Y-48805000D03*
X8975000Y-48805000D03*
G04 #@! TD*
D22*
G04 #@! TO.C,C39*
X19530000Y-65555000D03*
X21080000Y-65555000D03*
G04 #@! TD*
D12*
G04 #@! TO.C,R63*
X56175000Y-76000000D03*
X57825000Y-76000000D03*
G04 #@! TD*
D22*
G04 #@! TO.C,C25*
X40030000Y-43055000D03*
X41580000Y-43055000D03*
G04 #@! TD*
D58*
G04 #@! TO.C,U1*
X92000000Y-35500000D03*
D59*
X89300000Y-33595000D03*
X89300000Y-34865000D03*
X89300000Y-36135000D03*
X89300000Y-37405000D03*
X94700000Y-37405000D03*
X94700000Y-36135000D03*
X94700000Y-34865000D03*
X94700000Y-33595000D03*
G04 #@! TD*
D12*
G04 #@! TO.C,R3*
X57480000Y-15055000D03*
X59130000Y-15055000D03*
G04 #@! TD*
D60*
G04 #@! TO.C,D8*
X82000000Y-37000000D03*
X86000000Y-37000000D03*
G04 #@! TD*
D18*
G04 #@! TO.C,C71*
X81075000Y-55805000D03*
X82975000Y-55805000D03*
G04 #@! TD*
D34*
G04 #@! TO.C,C3*
X53150000Y-60475000D03*
X56100000Y-60475000D03*
G04 #@! TD*
D48*
G04 #@! TO.C,SW2*
X48900000Y-51150000D03*
X55100000Y-51150000D03*
X48900000Y-54850000D03*
X55100000Y-54850000D03*
G04 #@! TD*
D61*
G04 #@! TO.C,C17*
X13300000Y-45000000D03*
X18700000Y-45000000D03*
G04 #@! TD*
D62*
G04 #@! TO.C,J3*
X86500000Y-6000000D03*
D63*
X89000000Y-6000000D03*
X91500000Y-6000000D03*
X94000000Y-6000000D03*
X96500000Y-6000000D03*
G04 #@! TD*
D12*
G04 #@! TO.C,R21*
X90175000Y-21000000D03*
X91825000Y-21000000D03*
G04 #@! TD*
D35*
G04 #@! TO.C,C81*
X74300000Y-27000000D03*
X82700000Y-27000000D03*
G04 #@! TD*
D12*
G04 #@! TO.C,R38*
X63480000Y-47555000D03*
X65130000Y-47555000D03*
G04 #@! TD*
G04 #@! TO.C,R35*
X28980000Y-40355000D03*
X30630000Y-40355000D03*
G04 #@! TD*
D22*
G04 #@! TO.C,C50*
X67530000Y-50555000D03*
X69080000Y-50555000D03*
G04 #@! TD*
D12*
G04 #@! TO.C,R34*
X51980000Y-39855000D03*
X53630000Y-39855000D03*
G04 #@! TD*
D37*
G04 #@! TO.C,D5*
X76537500Y-18595000D03*
X78112500Y-18595000D03*
G04 #@! TD*
D18*
G04 #@! TO.C,C46*
X38075000Y-25405000D03*
X39975000Y-25405000D03*
G04 #@! TD*
G04 #@! TO.C,C8*
X19575000Y-71305000D03*
X21475000Y-71305000D03*
G04 #@! TD*
D42*
G04 #@! TO.C,U6*
X33000000Y-33000000D03*
D43*
X29350000Y-28125000D03*
X29350000Y-28775000D03*
X29350000Y-29425000D03*
X29350000Y-30075000D03*
X29350000Y-30725000D03*
X29350000Y-31375000D03*
X29350000Y-32025000D03*
X29350000Y-32675000D03*
X29350000Y-33325000D03*
X29350000Y-33975000D03*
X29350000Y-34625000D03*
X29350000Y-35275000D03*
X29350000Y-35925000D03*
X29350000Y-36575000D03*
X29350000Y-37225000D03*
X29350000Y-37875000D03*
X36650000Y-37875000D03*
X36650000Y-37225000D03*
X36650000Y-36575000D03*
X36650000Y-35925000D03*
X36650000Y-35275000D03*
X36650000Y-34625000D03*
X36650000Y-33975000D03*
X36650000Y-33325000D03*
X36650000Y-32675000D03*
X36650000Y-32025000D03*
X36650000Y-31375000D03*
X36650000Y-30725000D03*
X36650000Y-30075000D03*
X36650000Y-29425000D03*
X36650000Y-28775000D03*
X36650000Y-28125000D03*
G04 #@! TD*
D12*
G04 #@! TO.C,R39*
X71980000Y-50055000D03*
X73630000Y-50055000D03*
G04 #@! TD*
D22*
G04 #@! TO.C,C37*
X22530000Y-62055000D03*
X24080000Y-62055000D03*
G04 #@! TD*
D12*
G04 #@! TO.C,R33*
X46480000Y-25155000D03*
X48130000Y-25155000D03*
G04 #@! TD*
D64*
G04 #@! TO.C,FB2*
X35012500Y-57175000D03*
X37137500Y-57175000D03*
G04 #@! TD*
D12*
G04 #@! TO.C,R32*
X29480000Y-25155000D03*
X31130000Y-25155000D03*
G04 #@! TD*
D64*
G04 #@! TO.C,FB1*
X50512500Y-66175000D03*
X52637500Y-66175000D03*
G04 #@! TD*
D62*
G04 #@! TO.C,J2*
X70000000Y-6000000D03*
D63*
X72500000Y-6000000D03*
X75000000Y-6000000D03*
X77500000Y-6000000D03*
X80000000Y-6000000D03*
G04 #@! TD*
D25*
G04 #@! TO.C,J10*
X60000000Y-48000000D03*
D26*
X60000000Y-50540000D03*
X60000000Y-53080000D03*
G04 #@! TD*
D18*
G04 #@! TO.C,C7*
X36075000Y-65305000D03*
X37975000Y-65305000D03*
G04 #@! TD*
G04 #@! TO.C,C74*
X67575000Y-47805000D03*
X69475000Y-47805000D03*
G04 #@! TD*
D30*
G04 #@! TO.C,L5*
X44050000Y-17000000D03*
X53950000Y-17000000D03*
G04 #@! TD*
D22*
G04 #@! TO.C,C90*
X57530000Y-12555000D03*
X59080000Y-12555000D03*
G04 #@! TD*
D37*
G04 #@! TO.C,D6*
X61037500Y-56595000D03*
X62612500Y-56595000D03*
G04 #@! TD*
D12*
G04 #@! TO.C,R36*
X36980000Y-40355000D03*
X38630000Y-40355000D03*
G04 #@! TD*
D18*
G04 #@! TO.C,C23*
X31575000Y-43305000D03*
X33475000Y-43305000D03*
G04 #@! TD*
M02*
