%TF.GenerationSoftware,KiCad,Pcbnew,7.0.11+dfsg-1build4*%
%TF.CreationDate,2026-07-05T19:21:10+00:00*%
%TF.ProjectId,main-board,6d61696e-2d62-46f6-9172-642e6b696361,rev?*%
%TF.SameCoordinates,Original*%
%TF.FileFunction,Drillmap*%
%TF.FilePolarity,Positive*%
%FSLAX45Y45*%
G04 Gerber Fmt 4.5, Leading zero omitted, Abs format (unit mm)*
G04 Created by KiCad (PCBNEW 7.0.11+dfsg-1build4) date 2026-07-05 19:21:10*
%MOMM*%
%LPD*%
G01*
G04 APERTURE LIST*
%ADD10C,0.150000*%
%ADD11C,0.200000*%
%ADD12C,0.100000*%
%ADD13C,0.130000*%
%ADD14C,0.270000*%
G04 APERTURE END LIST*
D10*
X10000000Y0D02*
X10000000Y-8000000D01*
X0Y0D02*
X10000000Y0D01*
X10000000Y-8000000D02*
X0Y-8000000D01*
X0Y-8000000D02*
X0Y0D01*
D11*
D12*
X8400000Y-6874000D02*
X8420000Y-6894000D01*
X8420000Y-6874000D02*
X8400000Y-6894000D01*
X8400000Y-7014000D02*
X8420000Y-7034000D01*
X8420000Y-7014000D02*
X8400000Y-7034000D01*
X8470000Y-6804000D02*
X8490000Y-6824000D01*
X8490000Y-6804000D02*
X8470000Y-6824000D01*
X8470000Y-6944000D02*
X8490000Y-6964000D01*
X8490000Y-6944000D02*
X8470000Y-6964000D01*
X8470000Y-7084000D02*
X8490000Y-7104000D01*
X8490000Y-7084000D02*
X8470000Y-7104000D01*
X8540000Y-6874000D02*
X8560000Y-6894000D01*
X8560000Y-6874000D02*
X8540000Y-6894000D01*
X8540000Y-7014000D02*
X8560000Y-7034000D01*
X8560000Y-7014000D02*
X8540000Y-7034000D01*
X8610000Y-6804000D02*
X8630000Y-6824000D01*
X8630000Y-6804000D02*
X8610000Y-6824000D01*
X8610000Y-6944000D02*
X8630000Y-6964000D01*
X8630000Y-6944000D02*
X8610000Y-6964000D01*
X8610000Y-7084000D02*
X8630000Y-7104000D01*
X8630000Y-7084000D02*
X8610000Y-7104000D01*
X8680000Y-6874000D02*
X8700000Y-6894000D01*
X8700000Y-6874000D02*
X8680000Y-6894000D01*
X8680000Y-7014000D02*
X8700000Y-7034000D01*
X8700000Y-7014000D02*
X8680000Y-7034000D01*
X3090000Y-2780000D02*
G75*
G03*
X3060000Y-2780000I-15000J0D01*
G01*
X3060000Y-2780000D02*
G75*
G03*
X3090000Y-2780000I15000J0D01*
G01*
X3090000Y-2910000D02*
G75*
G03*
X3060000Y-2910000I-15000J0D01*
G01*
X3060000Y-2910000D02*
G75*
G03*
X3090000Y-2910000I15000J0D01*
G01*
X3090000Y-3040000D02*
G75*
G03*
X3060000Y-3040000I-15000J0D01*
G01*
X3060000Y-3040000D02*
G75*
G03*
X3090000Y-3040000I15000J0D01*
G01*
X3090000Y-3170000D02*
G75*
G03*
X3060000Y-3170000I-15000J0D01*
G01*
X3060000Y-3170000D02*
G75*
G03*
X3090000Y-3170000I15000J0D01*
G01*
X3090000Y-3300000D02*
G75*
G03*
X3060000Y-3300000I-15000J0D01*
G01*
X3060000Y-3300000D02*
G75*
G03*
X3090000Y-3300000I15000J0D01*
G01*
X3090000Y-3430000D02*
G75*
G03*
X3060000Y-3430000I-15000J0D01*
G01*
X3060000Y-3430000D02*
G75*
G03*
X3090000Y-3430000I15000J0D01*
G01*
X3090000Y-3560000D02*
G75*
G03*
X3060000Y-3560000I-15000J0D01*
G01*
X3060000Y-3560000D02*
G75*
G03*
X3090000Y-3560000I15000J0D01*
G01*
X3090000Y-3690000D02*
G75*
G03*
X3060000Y-3690000I-15000J0D01*
G01*
X3060000Y-3690000D02*
G75*
G03*
X3090000Y-3690000I15000J0D01*
G01*
X3090000Y-3820000D02*
G75*
G03*
X3060000Y-3820000I-15000J0D01*
G01*
X3060000Y-3820000D02*
G75*
G03*
X3090000Y-3820000I15000J0D01*
G01*
X3240000Y-2780000D02*
G75*
G03*
X3210000Y-2780000I-15000J0D01*
G01*
X3210000Y-2780000D02*
G75*
G03*
X3240000Y-2780000I15000J0D01*
G01*
X3240000Y-2910000D02*
G75*
G03*
X3210000Y-2910000I-15000J0D01*
G01*
X3210000Y-2910000D02*
G75*
G03*
X3240000Y-2910000I15000J0D01*
G01*
X3240000Y-3040000D02*
G75*
G03*
X3210000Y-3040000I-15000J0D01*
G01*
X3210000Y-3040000D02*
G75*
G03*
X3240000Y-3040000I15000J0D01*
G01*
X3240000Y-3170000D02*
G75*
G03*
X3210000Y-3170000I-15000J0D01*
G01*
X3210000Y-3170000D02*
G75*
G03*
X3240000Y-3170000I15000J0D01*
G01*
X3240000Y-3300000D02*
G75*
G03*
X3210000Y-3300000I-15000J0D01*
G01*
X3210000Y-3300000D02*
G75*
G03*
X3240000Y-3300000I15000J0D01*
G01*
X3240000Y-3430000D02*
G75*
G03*
X3210000Y-3430000I-15000J0D01*
G01*
X3210000Y-3430000D02*
G75*
G03*
X3240000Y-3430000I15000J0D01*
G01*
X3240000Y-3560000D02*
G75*
G03*
X3210000Y-3560000I-15000J0D01*
G01*
X3210000Y-3560000D02*
G75*
G03*
X3240000Y-3560000I15000J0D01*
G01*
X3240000Y-3690000D02*
G75*
G03*
X3210000Y-3690000I-15000J0D01*
G01*
X3210000Y-3690000D02*
G75*
G03*
X3240000Y-3690000I15000J0D01*
G01*
X3240000Y-3820000D02*
G75*
G03*
X3210000Y-3820000I-15000J0D01*
G01*
X3210000Y-3820000D02*
G75*
G03*
X3240000Y-3820000I15000J0D01*
G01*
X3390000Y-2780000D02*
G75*
G03*
X3360000Y-2780000I-15000J0D01*
G01*
X3360000Y-2780000D02*
G75*
G03*
X3390000Y-2780000I15000J0D01*
G01*
X3390000Y-2910000D02*
G75*
G03*
X3360000Y-2910000I-15000J0D01*
G01*
X3360000Y-2910000D02*
G75*
G03*
X3390000Y-2910000I15000J0D01*
G01*
X3390000Y-3040000D02*
G75*
G03*
X3360000Y-3040000I-15000J0D01*
G01*
X3360000Y-3040000D02*
G75*
G03*
X3390000Y-3040000I15000J0D01*
G01*
X3390000Y-3170000D02*
G75*
G03*
X3360000Y-3170000I-15000J0D01*
G01*
X3360000Y-3170000D02*
G75*
G03*
X3390000Y-3170000I15000J0D01*
G01*
X3390000Y-3300000D02*
G75*
G03*
X3360000Y-3300000I-15000J0D01*
G01*
X3360000Y-3300000D02*
G75*
G03*
X3390000Y-3300000I15000J0D01*
G01*
X3390000Y-3430000D02*
G75*
G03*
X3360000Y-3430000I-15000J0D01*
G01*
X3360000Y-3430000D02*
G75*
G03*
X3390000Y-3430000I15000J0D01*
G01*
X3390000Y-3560000D02*
G75*
G03*
X3360000Y-3560000I-15000J0D01*
G01*
X3360000Y-3560000D02*
G75*
G03*
X3390000Y-3560000I15000J0D01*
G01*
X3390000Y-3690000D02*
G75*
G03*
X3360000Y-3690000I-15000J0D01*
G01*
X3360000Y-3690000D02*
G75*
G03*
X3390000Y-3690000I15000J0D01*
G01*
X3390000Y-3820000D02*
G75*
G03*
X3360000Y-3820000I-15000J0D01*
G01*
X3360000Y-3820000D02*
G75*
G03*
X3390000Y-3820000I15000J0D01*
G01*
X3540000Y-2780000D02*
G75*
G03*
X3510000Y-2780000I-15000J0D01*
G01*
X3510000Y-2780000D02*
G75*
G03*
X3540000Y-2780000I15000J0D01*
G01*
X3540000Y-2910000D02*
G75*
G03*
X3510000Y-2910000I-15000J0D01*
G01*
X3510000Y-2910000D02*
G75*
G03*
X3540000Y-2910000I15000J0D01*
G01*
X3540000Y-3040000D02*
G75*
G03*
X3510000Y-3040000I-15000J0D01*
G01*
X3510000Y-3040000D02*
G75*
G03*
X3540000Y-3040000I15000J0D01*
G01*
X3540000Y-3170000D02*
G75*
G03*
X3510000Y-3170000I-15000J0D01*
G01*
X3510000Y-3170000D02*
G75*
G03*
X3540000Y-3170000I15000J0D01*
G01*
X3540000Y-3300000D02*
G75*
G03*
X3510000Y-3300000I-15000J0D01*
G01*
X3510000Y-3300000D02*
G75*
G03*
X3540000Y-3300000I15000J0D01*
G01*
X3540000Y-3430000D02*
G75*
G03*
X3510000Y-3430000I-15000J0D01*
G01*
X3510000Y-3430000D02*
G75*
G03*
X3540000Y-3430000I15000J0D01*
G01*
X3540000Y-3560000D02*
G75*
G03*
X3510000Y-3560000I-15000J0D01*
G01*
X3510000Y-3560000D02*
G75*
G03*
X3540000Y-3560000I15000J0D01*
G01*
X3540000Y-3690000D02*
G75*
G03*
X3510000Y-3690000I-15000J0D01*
G01*
X3510000Y-3690000D02*
G75*
G03*
X3540000Y-3690000I15000J0D01*
G01*
X3540000Y-3820000D02*
G75*
G03*
X3510000Y-3820000I-15000J0D01*
G01*
X3510000Y-3820000D02*
G75*
G03*
X3540000Y-3820000I15000J0D01*
G01*
X4390000Y-2780000D02*
G75*
G03*
X4360000Y-2780000I-15000J0D01*
G01*
X4360000Y-2780000D02*
G75*
G03*
X4390000Y-2780000I15000J0D01*
G01*
X4390000Y-2910000D02*
G75*
G03*
X4360000Y-2910000I-15000J0D01*
G01*
X4360000Y-2910000D02*
G75*
G03*
X4390000Y-2910000I15000J0D01*
G01*
X4390000Y-3040000D02*
G75*
G03*
X4360000Y-3040000I-15000J0D01*
G01*
X4360000Y-3040000D02*
G75*
G03*
X4390000Y-3040000I15000J0D01*
G01*
X4390000Y-3170000D02*
G75*
G03*
X4360000Y-3170000I-15000J0D01*
G01*
X4360000Y-3170000D02*
G75*
G03*
X4390000Y-3170000I15000J0D01*
G01*
X4390000Y-3300000D02*
G75*
G03*
X4360000Y-3300000I-15000J0D01*
G01*
X4360000Y-3300000D02*
G75*
G03*
X4390000Y-3300000I15000J0D01*
G01*
X4390000Y-3430000D02*
G75*
G03*
X4360000Y-3430000I-15000J0D01*
G01*
X4360000Y-3430000D02*
G75*
G03*
X4390000Y-3430000I15000J0D01*
G01*
X4390000Y-3560000D02*
G75*
G03*
X4360000Y-3560000I-15000J0D01*
G01*
X4360000Y-3560000D02*
G75*
G03*
X4390000Y-3560000I15000J0D01*
G01*
X4390000Y-3690000D02*
G75*
G03*
X4360000Y-3690000I-15000J0D01*
G01*
X4360000Y-3690000D02*
G75*
G03*
X4390000Y-3690000I15000J0D01*
G01*
X4390000Y-3820000D02*
G75*
G03*
X4360000Y-3820000I-15000J0D01*
G01*
X4360000Y-3820000D02*
G75*
G03*
X4390000Y-3820000I15000J0D01*
G01*
X4540000Y-2780000D02*
G75*
G03*
X4510000Y-2780000I-15000J0D01*
G01*
X4510000Y-2780000D02*
G75*
G03*
X4540000Y-2780000I15000J0D01*
G01*
X4540000Y-2910000D02*
G75*
G03*
X4510000Y-2910000I-15000J0D01*
G01*
X4510000Y-2910000D02*
G75*
G03*
X4540000Y-2910000I15000J0D01*
G01*
X4540000Y-3040000D02*
G75*
G03*
X4510000Y-3040000I-15000J0D01*
G01*
X4510000Y-3040000D02*
G75*
G03*
X4540000Y-3040000I15000J0D01*
G01*
X4540000Y-3170000D02*
G75*
G03*
X4510000Y-3170000I-15000J0D01*
G01*
X4510000Y-3170000D02*
G75*
G03*
X4540000Y-3170000I15000J0D01*
G01*
X4540000Y-3300000D02*
G75*
G03*
X4510000Y-3300000I-15000J0D01*
G01*
X4510000Y-3300000D02*
G75*
G03*
X4540000Y-3300000I15000J0D01*
G01*
X4540000Y-3430000D02*
G75*
G03*
X4510000Y-3430000I-15000J0D01*
G01*
X4510000Y-3430000D02*
G75*
G03*
X4540000Y-3430000I15000J0D01*
G01*
X4540000Y-3560000D02*
G75*
G03*
X4510000Y-3560000I-15000J0D01*
G01*
X4510000Y-3560000D02*
G75*
G03*
X4540000Y-3560000I15000J0D01*
G01*
X4540000Y-3690000D02*
G75*
G03*
X4510000Y-3690000I-15000J0D01*
G01*
X4510000Y-3690000D02*
G75*
G03*
X4540000Y-3690000I15000J0D01*
G01*
X4540000Y-3820000D02*
G75*
G03*
X4510000Y-3820000I-15000J0D01*
G01*
X4510000Y-3820000D02*
G75*
G03*
X4540000Y-3820000I15000J0D01*
G01*
X4690000Y-2780000D02*
G75*
G03*
X4660000Y-2780000I-15000J0D01*
G01*
X4660000Y-2780000D02*
G75*
G03*
X4690000Y-2780000I15000J0D01*
G01*
X4690000Y-2910000D02*
G75*
G03*
X4660000Y-2910000I-15000J0D01*
G01*
X4660000Y-2910000D02*
G75*
G03*
X4690000Y-2910000I15000J0D01*
G01*
X4690000Y-3040000D02*
G75*
G03*
X4660000Y-3040000I-15000J0D01*
G01*
X4660000Y-3040000D02*
G75*
G03*
X4690000Y-3040000I15000J0D01*
G01*
X4690000Y-3170000D02*
G75*
G03*
X4660000Y-3170000I-15000J0D01*
G01*
X4660000Y-3170000D02*
G75*
G03*
X4690000Y-3170000I15000J0D01*
G01*
X4690000Y-3300000D02*
G75*
G03*
X4660000Y-3300000I-15000J0D01*
G01*
X4660000Y-3300000D02*
G75*
G03*
X4690000Y-3300000I15000J0D01*
G01*
X4690000Y-3430000D02*
G75*
G03*
X4660000Y-3430000I-15000J0D01*
G01*
X4660000Y-3430000D02*
G75*
G03*
X4690000Y-3430000I15000J0D01*
G01*
X4690000Y-3560000D02*
G75*
G03*
X4660000Y-3560000I-15000J0D01*
G01*
X4660000Y-3560000D02*
G75*
G03*
X4690000Y-3560000I15000J0D01*
G01*
X4690000Y-3690000D02*
G75*
G03*
X4660000Y-3690000I-15000J0D01*
G01*
X4660000Y-3690000D02*
G75*
G03*
X4690000Y-3690000I15000J0D01*
G01*
X4690000Y-3820000D02*
G75*
G03*
X4660000Y-3820000I-15000J0D01*
G01*
X4660000Y-3820000D02*
G75*
G03*
X4690000Y-3820000I15000J0D01*
G01*
X4840000Y-2780000D02*
G75*
G03*
X4810000Y-2780000I-15000J0D01*
G01*
X4810000Y-2780000D02*
G75*
G03*
X4840000Y-2780000I15000J0D01*
G01*
X4840000Y-2910000D02*
G75*
G03*
X4810000Y-2910000I-15000J0D01*
G01*
X4810000Y-2910000D02*
G75*
G03*
X4840000Y-2910000I15000J0D01*
G01*
X4840000Y-3040000D02*
G75*
G03*
X4810000Y-3040000I-15000J0D01*
G01*
X4810000Y-3040000D02*
G75*
G03*
X4840000Y-3040000I15000J0D01*
G01*
X4840000Y-3170000D02*
G75*
G03*
X4810000Y-3170000I-15000J0D01*
G01*
X4810000Y-3170000D02*
G75*
G03*
X4840000Y-3170000I15000J0D01*
G01*
X4840000Y-3300000D02*
G75*
G03*
X4810000Y-3300000I-15000J0D01*
G01*
X4810000Y-3300000D02*
G75*
G03*
X4840000Y-3300000I15000J0D01*
G01*
X4840000Y-3430000D02*
G75*
G03*
X4810000Y-3430000I-15000J0D01*
G01*
X4810000Y-3430000D02*
G75*
G03*
X4840000Y-3430000I15000J0D01*
G01*
X4840000Y-3560000D02*
G75*
G03*
X4810000Y-3560000I-15000J0D01*
G01*
X4810000Y-3560000D02*
G75*
G03*
X4840000Y-3560000I15000J0D01*
G01*
X4840000Y-3690000D02*
G75*
G03*
X4810000Y-3690000I-15000J0D01*
G01*
X4810000Y-3690000D02*
G75*
G03*
X4840000Y-3690000I15000J0D01*
G01*
X4840000Y-3820000D02*
G75*
G03*
X4810000Y-3820000I-15000J0D01*
G01*
X4810000Y-3820000D02*
G75*
G03*
X4840000Y-3820000I15000J0D01*
G01*
X9150000Y-3355000D02*
G75*
G03*
X9120000Y-3355000I-15000J0D01*
G01*
X9120000Y-3355000D02*
G75*
G03*
X9150000Y-3355000I15000J0D01*
G01*
X9150000Y-3485000D02*
G75*
G03*
X9120000Y-3485000I-15000J0D01*
G01*
X9120000Y-3485000D02*
G75*
G03*
X9150000Y-3485000I15000J0D01*
G01*
X9150000Y-3615000D02*
G75*
G03*
X9120000Y-3615000I-15000J0D01*
G01*
X9120000Y-3615000D02*
G75*
G03*
X9150000Y-3615000I15000J0D01*
G01*
X9150000Y-3745000D02*
G75*
G03*
X9120000Y-3745000I-15000J0D01*
G01*
X9120000Y-3745000D02*
G75*
G03*
X9150000Y-3745000I15000J0D01*
G01*
X9280000Y-3355000D02*
G75*
G03*
X9250000Y-3355000I-15000J0D01*
G01*
X9250000Y-3355000D02*
G75*
G03*
X9280000Y-3355000I15000J0D01*
G01*
X9280000Y-3485000D02*
G75*
G03*
X9250000Y-3485000I-15000J0D01*
G01*
X9250000Y-3485000D02*
G75*
G03*
X9280000Y-3485000I15000J0D01*
G01*
X9280000Y-3615000D02*
G75*
G03*
X9250000Y-3615000I-15000J0D01*
G01*
X9250000Y-3615000D02*
G75*
G03*
X9280000Y-3615000I15000J0D01*
G01*
X9280000Y-3745000D02*
G75*
G03*
X9250000Y-3745000I-15000J0D01*
G01*
X9250000Y-3745000D02*
G75*
G03*
X9280000Y-3745000I15000J0D01*
G01*
X9595000Y-4738000D02*
X9595000Y-4798000D01*
X9565000Y-4768000D02*
X9625000Y-4768000D01*
X9625000Y-4738000D02*
X9565000Y-4738000D01*
X9565000Y-4738000D02*
G75*
G03*
X9565000Y-4798000I0J-30000D01*
G01*
X9565000Y-4798000D02*
X9625000Y-4798000D01*
X9625000Y-4798000D02*
G75*
G03*
X9625000Y-4738000I0J30000D01*
G01*
X9595000Y-5602000D02*
X9595000Y-5662000D01*
X9565000Y-5632000D02*
X9625000Y-5632000D01*
X9625000Y-5602000D02*
X9565000Y-5602000D01*
X9565000Y-5602000D02*
G75*
G03*
X9565000Y-5662000I0J-30000D01*
G01*
X9565000Y-5662000D02*
X9625000Y-5662000D01*
X9625000Y-5662000D02*
G75*
G03*
X9625000Y-5602000I0J30000D01*
G01*
X10013000Y-4738000D02*
X10013000Y-4798000D01*
X9983000Y-4768000D02*
X10043000Y-4768000D01*
X10068000Y-4738000D02*
X9958000Y-4738000D01*
X9958000Y-4738000D02*
G75*
G03*
X9958000Y-4798000I0J-30000D01*
G01*
X9958000Y-4798000D02*
X10068000Y-4798000D01*
X10068000Y-4798000D02*
G75*
G03*
X10068000Y-4738000I0J30000D01*
G01*
X10013000Y-5602000D02*
X10013000Y-5662000D01*
X9983000Y-5632000D02*
X10043000Y-5632000D01*
X10068000Y-5602000D02*
X9958000Y-5602000D01*
X9958000Y-5602000D02*
G75*
G03*
X9958000Y-5662000I0J-30000D01*
G01*
X9958000Y-5662000D02*
X10068000Y-5662000D01*
X10068000Y-5662000D02*
G75*
G03*
X10068000Y-5602000I0J30000D01*
G01*
X4026517Y-7026517D02*
X4026517Y-6973483D01*
X3973483Y-6973483D01*
X3973483Y-7026517D01*
X4026517Y-7026517D01*
X4226517Y-7026517D02*
X4226517Y-6973483D01*
X4173483Y-6973483D01*
X4173483Y-7026517D01*
X4226517Y-7026517D01*
X4426517Y-7026517D02*
X4426517Y-6973483D01*
X4373483Y-6973483D01*
X4373483Y-7026517D01*
X4426517Y-7026517D01*
X4626517Y-7026517D02*
X4626517Y-6973483D01*
X4573483Y-6973483D01*
X4573483Y-7026517D01*
X4626517Y-7026517D01*
X4826517Y-7026517D02*
X4826517Y-6973483D01*
X4773483Y-6973483D01*
X4773483Y-7026517D01*
X4826517Y-7026517D01*
X5026517Y-7026517D02*
X5026517Y-6973483D01*
X4973483Y-6973483D01*
X4973483Y-7026517D01*
X5026517Y-7026517D01*
X5226517Y-7026517D02*
X5226517Y-6973483D01*
X5173483Y-6973483D01*
X5173483Y-7026517D01*
X5226517Y-7026517D01*
X5426517Y-7026517D02*
X5426517Y-6973483D01*
X5373483Y-6973483D01*
X5373483Y-7026517D01*
X5426517Y-7026517D01*
X7000000Y-647500D02*
X7047500Y-600000D01*
X7000000Y-552500D01*
X6952500Y-600000D01*
X7000000Y-647500D01*
X7250000Y-647500D02*
X7297500Y-600000D01*
X7250000Y-552500D01*
X7202500Y-600000D01*
X7250000Y-647500D01*
X7500000Y-647500D02*
X7547500Y-600000D01*
X7500000Y-552500D01*
X7452500Y-600000D01*
X7500000Y-647500D01*
X7750000Y-647500D02*
X7797500Y-600000D01*
X7750000Y-552500D01*
X7702500Y-600000D01*
X7750000Y-647500D01*
X8000000Y-647500D02*
X8047500Y-600000D01*
X8000000Y-552500D01*
X7952500Y-600000D01*
X8000000Y-647500D01*
X8650000Y-647500D02*
X8697500Y-600000D01*
X8650000Y-552500D01*
X8602500Y-600000D01*
X8650000Y-647500D01*
X8900000Y-647500D02*
X8947500Y-600000D01*
X8900000Y-552500D01*
X8852500Y-600000D01*
X8900000Y-647500D01*
X9150000Y-647500D02*
X9197500Y-600000D01*
X9150000Y-552500D01*
X9102500Y-600000D01*
X9150000Y-647500D01*
X9400000Y-647500D02*
X9447500Y-600000D01*
X9400000Y-552500D01*
X9352500Y-600000D01*
X9400000Y-647500D01*
X9650000Y-647500D02*
X9697500Y-600000D01*
X9650000Y-552500D01*
X9602500Y-600000D01*
X9650000Y-647500D01*
X1350000Y-7600000D02*
X1450000Y-7700000D01*
X1450000Y-7600000D02*
X1350000Y-7700000D01*
X1450000Y-7650000D02*
G75*
G03*
X1350000Y-7650000I-50000J0D01*
G01*
X1350000Y-7650000D02*
G75*
G03*
X1450000Y-7650000I50000J0D01*
G01*
X1604000Y-7600000D02*
X1704000Y-7700000D01*
X1704000Y-7600000D02*
X1604000Y-7700000D01*
X1704000Y-7650000D02*
G75*
G03*
X1604000Y-7650000I-50000J0D01*
G01*
X1604000Y-7650000D02*
G75*
G03*
X1704000Y-7650000I50000J0D01*
G01*
X1858000Y-7600000D02*
X1958000Y-7700000D01*
X1958000Y-7600000D02*
X1858000Y-7700000D01*
X1958000Y-7650000D02*
G75*
G03*
X1858000Y-7650000I-50000J0D01*
G01*
X1858000Y-7650000D02*
G75*
G03*
X1958000Y-7650000I50000J0D01*
G01*
X2112000Y-7600000D02*
X2212000Y-7700000D01*
X2212000Y-7600000D02*
X2112000Y-7700000D01*
X2212000Y-7650000D02*
G75*
G03*
X2112000Y-7650000I-50000J0D01*
G01*
X2112000Y-7650000D02*
G75*
G03*
X2212000Y-7650000I50000J0D01*
G01*
X2366000Y-7600000D02*
X2466000Y-7700000D01*
X2466000Y-7600000D02*
X2366000Y-7700000D01*
X2466000Y-7650000D02*
G75*
G03*
X2366000Y-7650000I-50000J0D01*
G01*
X2366000Y-7650000D02*
G75*
G03*
X2466000Y-7650000I50000J0D01*
G01*
X2620000Y-7600000D02*
X2720000Y-7700000D01*
X2720000Y-7600000D02*
X2620000Y-7700000D01*
X2720000Y-7650000D02*
G75*
G03*
X2620000Y-7650000I-50000J0D01*
G01*
X2620000Y-7650000D02*
G75*
G03*
X2720000Y-7650000I50000J0D01*
G01*
X2874000Y-7600000D02*
X2974000Y-7700000D01*
X2974000Y-7600000D02*
X2874000Y-7700000D01*
X2974000Y-7650000D02*
G75*
G03*
X2874000Y-7650000I-50000J0D01*
G01*
X2874000Y-7650000D02*
G75*
G03*
X2974000Y-7650000I50000J0D01*
G01*
X2950000Y-6150000D02*
X3050000Y-6250000D01*
X3050000Y-6150000D02*
X2950000Y-6250000D01*
X3050000Y-6200000D02*
G75*
G03*
X2950000Y-6200000I-50000J0D01*
G01*
X2950000Y-6200000D02*
G75*
G03*
X3050000Y-6200000I50000J0D01*
G01*
X2950000Y-6404000D02*
X3050000Y-6504000D01*
X3050000Y-6404000D02*
X2950000Y-6504000D01*
X3050000Y-6454000D02*
G75*
G03*
X2950000Y-6454000I-50000J0D01*
G01*
X2950000Y-6454000D02*
G75*
G03*
X3050000Y-6454000I50000J0D01*
G01*
X2950000Y-6658000D02*
X3050000Y-6758000D01*
X3050000Y-6658000D02*
X2950000Y-6758000D01*
X3050000Y-6708000D02*
G75*
G03*
X2950000Y-6708000I-50000J0D01*
G01*
X2950000Y-6708000D02*
G75*
G03*
X3050000Y-6708000I50000J0D01*
G01*
X2950000Y-6912000D02*
X3050000Y-7012000D01*
X3050000Y-6912000D02*
X2950000Y-7012000D01*
X3050000Y-6962000D02*
G75*
G03*
X2950000Y-6962000I-50000J0D01*
G01*
X2950000Y-6962000D02*
G75*
G03*
X3050000Y-6962000I50000J0D01*
G01*
X2950000Y-7166000D02*
X3050000Y-7266000D01*
X3050000Y-7166000D02*
X2950000Y-7266000D01*
X3050000Y-7216000D02*
G75*
G03*
X2950000Y-7216000I-50000J0D01*
G01*
X2950000Y-7216000D02*
G75*
G03*
X3050000Y-7216000I50000J0D01*
G01*
X3128000Y-7600000D02*
X3228000Y-7700000D01*
X3228000Y-7600000D02*
X3128000Y-7700000D01*
X3228000Y-7650000D02*
G75*
G03*
X3128000Y-7650000I-50000J0D01*
G01*
X3128000Y-7650000D02*
G75*
G03*
X3228000Y-7650000I50000J0D01*
G01*
X3204000Y-6150000D02*
X3304000Y-6250000D01*
X3304000Y-6150000D02*
X3204000Y-6250000D01*
X3304000Y-6200000D02*
G75*
G03*
X3204000Y-6200000I-50000J0D01*
G01*
X3204000Y-6200000D02*
G75*
G03*
X3304000Y-6200000I50000J0D01*
G01*
X3204000Y-6404000D02*
X3304000Y-6504000D01*
X3304000Y-6404000D02*
X3204000Y-6504000D01*
X3304000Y-6454000D02*
G75*
G03*
X3204000Y-6454000I-50000J0D01*
G01*
X3204000Y-6454000D02*
G75*
G03*
X3304000Y-6454000I50000J0D01*
G01*
X3204000Y-6658000D02*
X3304000Y-6758000D01*
X3304000Y-6658000D02*
X3204000Y-6758000D01*
X3304000Y-6708000D02*
G75*
G03*
X3204000Y-6708000I-50000J0D01*
G01*
X3204000Y-6708000D02*
G75*
G03*
X3304000Y-6708000I50000J0D01*
G01*
X3204000Y-6912000D02*
X3304000Y-7012000D01*
X3304000Y-6912000D02*
X3204000Y-7012000D01*
X3304000Y-6962000D02*
G75*
G03*
X3204000Y-6962000I-50000J0D01*
G01*
X3204000Y-6962000D02*
G75*
G03*
X3304000Y-6962000I50000J0D01*
G01*
X3204000Y-7166000D02*
X3304000Y-7266000D01*
X3304000Y-7166000D02*
X3204000Y-7266000D01*
X3304000Y-7216000D02*
G75*
G03*
X3204000Y-7216000I-50000J0D01*
G01*
X3204000Y-7216000D02*
G75*
G03*
X3304000Y-7216000I50000J0D01*
G01*
X3382000Y-7600000D02*
X3482000Y-7700000D01*
X3482000Y-7600000D02*
X3382000Y-7700000D01*
X3482000Y-7650000D02*
G75*
G03*
X3382000Y-7650000I-50000J0D01*
G01*
X3382000Y-7650000D02*
G75*
G03*
X3482000Y-7650000I50000J0D01*
G01*
X3636000Y-7600000D02*
X3736000Y-7700000D01*
X3736000Y-7600000D02*
X3636000Y-7700000D01*
X3736000Y-7650000D02*
G75*
G03*
X3636000Y-7650000I-50000J0D01*
G01*
X3636000Y-7650000D02*
G75*
G03*
X3736000Y-7650000I50000J0D01*
G01*
X5950000Y-4750000D02*
X6050000Y-4850000D01*
X6050000Y-4750000D02*
X5950000Y-4850000D01*
X6050000Y-4800000D02*
G75*
G03*
X5950000Y-4800000I-50000J0D01*
G01*
X5950000Y-4800000D02*
G75*
G03*
X6050000Y-4800000I50000J0D01*
G01*
X5950000Y-5004000D02*
X6050000Y-5104000D01*
X6050000Y-5004000D02*
X5950000Y-5104000D01*
X6050000Y-5054000D02*
G75*
G03*
X5950000Y-5054000I-50000J0D01*
G01*
X5950000Y-5054000D02*
G75*
G03*
X6050000Y-5054000I50000J0D01*
G01*
X5950000Y-5258000D02*
X6050000Y-5358000D01*
X6050000Y-5258000D02*
X5950000Y-5358000D01*
X6050000Y-5308000D02*
G75*
G03*
X5950000Y-5308000I-50000J0D01*
G01*
X5950000Y-5308000D02*
G75*
G03*
X6050000Y-5308000I50000J0D01*
G01*
X9650000Y-1350000D02*
X9750000Y-1450000D01*
X9750000Y-1350000D02*
X9650000Y-1450000D01*
X9750000Y-1400000D02*
G75*
G03*
X9650000Y-1400000I-50000J0D01*
G01*
X9650000Y-1400000D02*
G75*
G03*
X9750000Y-1400000I50000J0D01*
G01*
X9650000Y-1604000D02*
X9750000Y-1704000D01*
X9750000Y-1604000D02*
X9650000Y-1704000D01*
X9750000Y-1654000D02*
G75*
G03*
X9650000Y-1654000I-50000J0D01*
G01*
X9650000Y-1654000D02*
G75*
G03*
X9750000Y-1654000I50000J0D01*
G01*
X9650000Y-1858000D02*
X9750000Y-1958000D01*
X9750000Y-1858000D02*
X9650000Y-1958000D01*
X9750000Y-1908000D02*
G75*
G03*
X9650000Y-1908000I-50000J0D01*
G01*
X9650000Y-1908000D02*
G75*
G03*
X9750000Y-1908000I50000J0D01*
G01*
D13*
X735000Y-335000D02*
X865000Y-465000D01*
X865000Y-335000D02*
X735000Y-465000D01*
X800000Y-335000D02*
X800000Y-465000D01*
X735000Y-400000D02*
X865000Y-400000D01*
X1243000Y-335000D02*
X1373000Y-465000D01*
X1373000Y-335000D02*
X1243000Y-465000D01*
X1308000Y-335000D02*
X1308000Y-465000D01*
X1243000Y-400000D02*
X1373000Y-400000D01*
X2135000Y-335000D02*
X2265000Y-465000D01*
X2265000Y-335000D02*
X2135000Y-465000D01*
X2200000Y-335000D02*
X2200000Y-465000D01*
X2135000Y-400000D02*
X2265000Y-400000D01*
X2643000Y-335000D02*
X2773000Y-465000D01*
X2773000Y-335000D02*
X2643000Y-465000D01*
X2708000Y-335000D02*
X2708000Y-465000D01*
X2643000Y-400000D02*
X2773000Y-400000D01*
X3535000Y-335000D02*
X3665000Y-465000D01*
X3665000Y-335000D02*
X3535000Y-465000D01*
X3600000Y-335000D02*
X3600000Y-465000D01*
X3535000Y-400000D02*
X3665000Y-400000D01*
X4043000Y-335000D02*
X4173000Y-465000D01*
X4173000Y-335000D02*
X4043000Y-465000D01*
X4108000Y-335000D02*
X4108000Y-465000D01*
X4043000Y-400000D02*
X4173000Y-400000D01*
D14*
X5665000Y-365000D02*
X5935000Y-635000D01*
X5935000Y-365000D02*
X5665000Y-635000D01*
X5895460Y-595460D02*
X5895460Y-404540D01*
X5704540Y-404540D01*
X5704540Y-595460D01*
X5895460Y-595460D01*
X6165000Y-365000D02*
X6435000Y-635000D01*
X6435000Y-365000D02*
X6165000Y-635000D01*
X6395460Y-595460D02*
X6395460Y-404540D01*
X6204540Y-404540D01*
X6204540Y-595460D01*
X6395460Y-595460D01*
D11*
X253277Y-8318984D02*
X253277Y-8118984D01*
X253277Y-8118984D02*
X300896Y-8118984D01*
X300896Y-8118984D02*
X329467Y-8128508D01*
X329467Y-8128508D02*
X348515Y-8147555D01*
X348515Y-8147555D02*
X358039Y-8166603D01*
X358039Y-8166603D02*
X367562Y-8204698D01*
X367562Y-8204698D02*
X367562Y-8233269D01*
X367562Y-8233269D02*
X358039Y-8271365D01*
X358039Y-8271365D02*
X348515Y-8290412D01*
X348515Y-8290412D02*
X329467Y-8309460D01*
X329467Y-8309460D02*
X300896Y-8318984D01*
X300896Y-8318984D02*
X253277Y-8318984D01*
X453277Y-8318984D02*
X453277Y-8185650D01*
X453277Y-8223746D02*
X462801Y-8204698D01*
X462801Y-8204698D02*
X472324Y-8195174D01*
X472324Y-8195174D02*
X491372Y-8185650D01*
X491372Y-8185650D02*
X510420Y-8185650D01*
X577086Y-8318984D02*
X577086Y-8185650D01*
X577086Y-8118984D02*
X567563Y-8128508D01*
X567563Y-8128508D02*
X577086Y-8138031D01*
X577086Y-8138031D02*
X586610Y-8128508D01*
X586610Y-8128508D02*
X577086Y-8118984D01*
X577086Y-8118984D02*
X577086Y-8138031D01*
X700896Y-8318984D02*
X681848Y-8309460D01*
X681848Y-8309460D02*
X672324Y-8290412D01*
X672324Y-8290412D02*
X672324Y-8118984D01*
X805658Y-8318984D02*
X786610Y-8309460D01*
X786610Y-8309460D02*
X777086Y-8290412D01*
X777086Y-8290412D02*
X777086Y-8118984D01*
X1034229Y-8318984D02*
X1034229Y-8118984D01*
X1034229Y-8118984D02*
X1100896Y-8261841D01*
X1100896Y-8261841D02*
X1167563Y-8118984D01*
X1167563Y-8118984D02*
X1167563Y-8318984D01*
X1348515Y-8318984D02*
X1348515Y-8214222D01*
X1348515Y-8214222D02*
X1338991Y-8195174D01*
X1338991Y-8195174D02*
X1319944Y-8185650D01*
X1319944Y-8185650D02*
X1281848Y-8185650D01*
X1281848Y-8185650D02*
X1262801Y-8195174D01*
X1348515Y-8309460D02*
X1329467Y-8318984D01*
X1329467Y-8318984D02*
X1281848Y-8318984D01*
X1281848Y-8318984D02*
X1262801Y-8309460D01*
X1262801Y-8309460D02*
X1253277Y-8290412D01*
X1253277Y-8290412D02*
X1253277Y-8271365D01*
X1253277Y-8271365D02*
X1262801Y-8252317D01*
X1262801Y-8252317D02*
X1281848Y-8242793D01*
X1281848Y-8242793D02*
X1329467Y-8242793D01*
X1329467Y-8242793D02*
X1348515Y-8233269D01*
X1443753Y-8185650D02*
X1443753Y-8385650D01*
X1443753Y-8195174D02*
X1462801Y-8185650D01*
X1462801Y-8185650D02*
X1500896Y-8185650D01*
X1500896Y-8185650D02*
X1519943Y-8195174D01*
X1519943Y-8195174D02*
X1529467Y-8204698D01*
X1529467Y-8204698D02*
X1538991Y-8223746D01*
X1538991Y-8223746D02*
X1538991Y-8280888D01*
X1538991Y-8280888D02*
X1529467Y-8299936D01*
X1529467Y-8299936D02*
X1519943Y-8309460D01*
X1519943Y-8309460D02*
X1500896Y-8318984D01*
X1500896Y-8318984D02*
X1462801Y-8318984D01*
X1462801Y-8318984D02*
X1443753Y-8309460D01*
X1624705Y-8299936D02*
X1634229Y-8309460D01*
X1634229Y-8309460D02*
X1624705Y-8318984D01*
X1624705Y-8318984D02*
X1615182Y-8309460D01*
X1615182Y-8309460D02*
X1624705Y-8299936D01*
X1624705Y-8299936D02*
X1624705Y-8318984D01*
X1624705Y-8195174D02*
X1634229Y-8204698D01*
X1634229Y-8204698D02*
X1624705Y-8214222D01*
X1624705Y-8214222D02*
X1615182Y-8204698D01*
X1615182Y-8204698D02*
X1624705Y-8195174D01*
X1624705Y-8195174D02*
X1624705Y-8214222D01*
D12*
X-27500Y-8637500D02*
X-7500Y-8657500D01*
X-7500Y-8637500D02*
X-27500Y-8657500D01*
D11*
X291372Y-8538984D02*
X310420Y-8538984D01*
X310420Y-8538984D02*
X329467Y-8548508D01*
X329467Y-8548508D02*
X338991Y-8558031D01*
X338991Y-8558031D02*
X348515Y-8577079D01*
X348515Y-8577079D02*
X358039Y-8615174D01*
X358039Y-8615174D02*
X358039Y-8662793D01*
X358039Y-8662793D02*
X348515Y-8700889D01*
X348515Y-8700889D02*
X338991Y-8719936D01*
X338991Y-8719936D02*
X329467Y-8729460D01*
X329467Y-8729460D02*
X310420Y-8738984D01*
X310420Y-8738984D02*
X291372Y-8738984D01*
X291372Y-8738984D02*
X272324Y-8729460D01*
X272324Y-8729460D02*
X262801Y-8719936D01*
X262801Y-8719936D02*
X253277Y-8700889D01*
X253277Y-8700889D02*
X243753Y-8662793D01*
X243753Y-8662793D02*
X243753Y-8615174D01*
X243753Y-8615174D02*
X253277Y-8577079D01*
X253277Y-8577079D02*
X262801Y-8558031D01*
X262801Y-8558031D02*
X272324Y-8548508D01*
X272324Y-8548508D02*
X291372Y-8538984D01*
X443753Y-8719936D02*
X453277Y-8729460D01*
X453277Y-8729460D02*
X443753Y-8738984D01*
X443753Y-8738984D02*
X434229Y-8729460D01*
X434229Y-8729460D02*
X443753Y-8719936D01*
X443753Y-8719936D02*
X443753Y-8738984D01*
X529467Y-8558031D02*
X538991Y-8548508D01*
X538991Y-8548508D02*
X558039Y-8538984D01*
X558039Y-8538984D02*
X605658Y-8538984D01*
X605658Y-8538984D02*
X624705Y-8548508D01*
X624705Y-8548508D02*
X634229Y-8558031D01*
X634229Y-8558031D02*
X643753Y-8577079D01*
X643753Y-8577079D02*
X643753Y-8596127D01*
X643753Y-8596127D02*
X634229Y-8624698D01*
X634229Y-8624698D02*
X519943Y-8738984D01*
X519943Y-8738984D02*
X643753Y-8738984D01*
X767562Y-8538984D02*
X786610Y-8538984D01*
X786610Y-8538984D02*
X805658Y-8548508D01*
X805658Y-8548508D02*
X815182Y-8558031D01*
X815182Y-8558031D02*
X824705Y-8577079D01*
X824705Y-8577079D02*
X834229Y-8615174D01*
X834229Y-8615174D02*
X834229Y-8662793D01*
X834229Y-8662793D02*
X824705Y-8700889D01*
X824705Y-8700889D02*
X815182Y-8719936D01*
X815182Y-8719936D02*
X805658Y-8729460D01*
X805658Y-8729460D02*
X786610Y-8738984D01*
X786610Y-8738984D02*
X767562Y-8738984D01*
X767562Y-8738984D02*
X748515Y-8729460D01*
X748515Y-8729460D02*
X738991Y-8719936D01*
X738991Y-8719936D02*
X729467Y-8700889D01*
X729467Y-8700889D02*
X719943Y-8662793D01*
X719943Y-8662793D02*
X719943Y-8615174D01*
X719943Y-8615174D02*
X729467Y-8577079D01*
X729467Y-8577079D02*
X738991Y-8558031D01*
X738991Y-8558031D02*
X748515Y-8548508D01*
X748515Y-8548508D02*
X767562Y-8538984D01*
X958039Y-8538984D02*
X977086Y-8538984D01*
X977086Y-8538984D02*
X996134Y-8548508D01*
X996134Y-8548508D02*
X1005658Y-8558031D01*
X1005658Y-8558031D02*
X1015182Y-8577079D01*
X1015182Y-8577079D02*
X1024705Y-8615174D01*
X1024705Y-8615174D02*
X1024705Y-8662793D01*
X1024705Y-8662793D02*
X1015182Y-8700889D01*
X1015182Y-8700889D02*
X1005658Y-8719936D01*
X1005658Y-8719936D02*
X996134Y-8729460D01*
X996134Y-8729460D02*
X977086Y-8738984D01*
X977086Y-8738984D02*
X958039Y-8738984D01*
X958039Y-8738984D02*
X938991Y-8729460D01*
X938991Y-8729460D02*
X929467Y-8719936D01*
X929467Y-8719936D02*
X919943Y-8700889D01*
X919943Y-8700889D02*
X910420Y-8662793D01*
X910420Y-8662793D02*
X910420Y-8615174D01*
X910420Y-8615174D02*
X919943Y-8577079D01*
X919943Y-8577079D02*
X929467Y-8558031D01*
X929467Y-8558031D02*
X938991Y-8548508D01*
X938991Y-8548508D02*
X958039Y-8538984D01*
X1110420Y-8738984D02*
X1110420Y-8605650D01*
X1110420Y-8624698D02*
X1119944Y-8615174D01*
X1119944Y-8615174D02*
X1138991Y-8605650D01*
X1138991Y-8605650D02*
X1167563Y-8605650D01*
X1167563Y-8605650D02*
X1186610Y-8615174D01*
X1186610Y-8615174D02*
X1196134Y-8634222D01*
X1196134Y-8634222D02*
X1196134Y-8738984D01*
X1196134Y-8634222D02*
X1205658Y-8615174D01*
X1205658Y-8615174D02*
X1224705Y-8605650D01*
X1224705Y-8605650D02*
X1253277Y-8605650D01*
X1253277Y-8605650D02*
X1272325Y-8615174D01*
X1272325Y-8615174D02*
X1281848Y-8634222D01*
X1281848Y-8634222D02*
X1281848Y-8738984D01*
X1377086Y-8738984D02*
X1377086Y-8605650D01*
X1377086Y-8624698D02*
X1386610Y-8615174D01*
X1386610Y-8615174D02*
X1405658Y-8605650D01*
X1405658Y-8605650D02*
X1434229Y-8605650D01*
X1434229Y-8605650D02*
X1453277Y-8615174D01*
X1453277Y-8615174D02*
X1462801Y-8634222D01*
X1462801Y-8634222D02*
X1462801Y-8738984D01*
X1462801Y-8634222D02*
X1472324Y-8615174D01*
X1472324Y-8615174D02*
X1491372Y-8605650D01*
X1491372Y-8605650D02*
X1519943Y-8605650D01*
X1519943Y-8605650D02*
X1538991Y-8615174D01*
X1538991Y-8615174D02*
X1548515Y-8634222D01*
X1548515Y-8634222D02*
X1548515Y-8738984D01*
X1938991Y-8529460D02*
X1767563Y-8786603D01*
X2196134Y-8538984D02*
X2215182Y-8538984D01*
X2215182Y-8538984D02*
X2234229Y-8548508D01*
X2234229Y-8548508D02*
X2243753Y-8558031D01*
X2243753Y-8558031D02*
X2253277Y-8577079D01*
X2253277Y-8577079D02*
X2262801Y-8615174D01*
X2262801Y-8615174D02*
X2262801Y-8662793D01*
X2262801Y-8662793D02*
X2253277Y-8700889D01*
X2253277Y-8700889D02*
X2243753Y-8719936D01*
X2243753Y-8719936D02*
X2234229Y-8729460D01*
X2234229Y-8729460D02*
X2215182Y-8738984D01*
X2215182Y-8738984D02*
X2196134Y-8738984D01*
X2196134Y-8738984D02*
X2177087Y-8729460D01*
X2177087Y-8729460D02*
X2167563Y-8719936D01*
X2167563Y-8719936D02*
X2158039Y-8700889D01*
X2158039Y-8700889D02*
X2148515Y-8662793D01*
X2148515Y-8662793D02*
X2148515Y-8615174D01*
X2148515Y-8615174D02*
X2158039Y-8577079D01*
X2158039Y-8577079D02*
X2167563Y-8558031D01*
X2167563Y-8558031D02*
X2177087Y-8548508D01*
X2177087Y-8548508D02*
X2196134Y-8538984D01*
X2348515Y-8719936D02*
X2358039Y-8729460D01*
X2358039Y-8729460D02*
X2348515Y-8738984D01*
X2348515Y-8738984D02*
X2338991Y-8729460D01*
X2338991Y-8729460D02*
X2348515Y-8719936D01*
X2348515Y-8719936D02*
X2348515Y-8738984D01*
X2481848Y-8538984D02*
X2500896Y-8538984D01*
X2500896Y-8538984D02*
X2519944Y-8548508D01*
X2519944Y-8548508D02*
X2529468Y-8558031D01*
X2529468Y-8558031D02*
X2538991Y-8577079D01*
X2538991Y-8577079D02*
X2548515Y-8615174D01*
X2548515Y-8615174D02*
X2548515Y-8662793D01*
X2548515Y-8662793D02*
X2538991Y-8700889D01*
X2538991Y-8700889D02*
X2529468Y-8719936D01*
X2529468Y-8719936D02*
X2519944Y-8729460D01*
X2519944Y-8729460D02*
X2500896Y-8738984D01*
X2500896Y-8738984D02*
X2481848Y-8738984D01*
X2481848Y-8738984D02*
X2462801Y-8729460D01*
X2462801Y-8729460D02*
X2453277Y-8719936D01*
X2453277Y-8719936D02*
X2443753Y-8700889D01*
X2443753Y-8700889D02*
X2434229Y-8662793D01*
X2434229Y-8662793D02*
X2434229Y-8615174D01*
X2434229Y-8615174D02*
X2443753Y-8577079D01*
X2443753Y-8577079D02*
X2453277Y-8558031D01*
X2453277Y-8558031D02*
X2462801Y-8548508D01*
X2462801Y-8548508D02*
X2481848Y-8538984D01*
X2672325Y-8538984D02*
X2691372Y-8538984D01*
X2691372Y-8538984D02*
X2710420Y-8548508D01*
X2710420Y-8548508D02*
X2719944Y-8558031D01*
X2719944Y-8558031D02*
X2729468Y-8577079D01*
X2729468Y-8577079D02*
X2738991Y-8615174D01*
X2738991Y-8615174D02*
X2738991Y-8662793D01*
X2738991Y-8662793D02*
X2729468Y-8700889D01*
X2729468Y-8700889D02*
X2719944Y-8719936D01*
X2719944Y-8719936D02*
X2710420Y-8729460D01*
X2710420Y-8729460D02*
X2691372Y-8738984D01*
X2691372Y-8738984D02*
X2672325Y-8738984D01*
X2672325Y-8738984D02*
X2653277Y-8729460D01*
X2653277Y-8729460D02*
X2643753Y-8719936D01*
X2643753Y-8719936D02*
X2634229Y-8700889D01*
X2634229Y-8700889D02*
X2624706Y-8662793D01*
X2624706Y-8662793D02*
X2624706Y-8615174D01*
X2624706Y-8615174D02*
X2634229Y-8577079D01*
X2634229Y-8577079D02*
X2643753Y-8558031D01*
X2643753Y-8558031D02*
X2653277Y-8548508D01*
X2653277Y-8548508D02*
X2672325Y-8538984D01*
X2805658Y-8538984D02*
X2938991Y-8538984D01*
X2938991Y-8538984D02*
X2853277Y-8738984D01*
X3024706Y-8738984D02*
X3062801Y-8738984D01*
X3062801Y-8738984D02*
X3081848Y-8729460D01*
X3081848Y-8729460D02*
X3091372Y-8719936D01*
X3091372Y-8719936D02*
X3110420Y-8691365D01*
X3110420Y-8691365D02*
X3119944Y-8653270D01*
X3119944Y-8653270D02*
X3119944Y-8577079D01*
X3119944Y-8577079D02*
X3110420Y-8558031D01*
X3110420Y-8558031D02*
X3100896Y-8548508D01*
X3100896Y-8548508D02*
X3081848Y-8538984D01*
X3081848Y-8538984D02*
X3043753Y-8538984D01*
X3043753Y-8538984D02*
X3024706Y-8548508D01*
X3024706Y-8548508D02*
X3015182Y-8558031D01*
X3015182Y-8558031D02*
X3005658Y-8577079D01*
X3005658Y-8577079D02*
X3005658Y-8624698D01*
X3005658Y-8624698D02*
X3015182Y-8643746D01*
X3015182Y-8643746D02*
X3024706Y-8653270D01*
X3024706Y-8653270D02*
X3043753Y-8662793D01*
X3043753Y-8662793D02*
X3081848Y-8662793D01*
X3081848Y-8662793D02*
X3100896Y-8653270D01*
X3100896Y-8653270D02*
X3110420Y-8643746D01*
X3110420Y-8643746D02*
X3119944Y-8624698D01*
X3196134Y-8538984D02*
X3196134Y-8577079D01*
X3272325Y-8538984D02*
X3272325Y-8577079D01*
X3567563Y-8815174D02*
X3558039Y-8805650D01*
X3558039Y-8805650D02*
X3538991Y-8777079D01*
X3538991Y-8777079D02*
X3529468Y-8758031D01*
X3529468Y-8758031D02*
X3519944Y-8729460D01*
X3519944Y-8729460D02*
X3510420Y-8681841D01*
X3510420Y-8681841D02*
X3510420Y-8643746D01*
X3510420Y-8643746D02*
X3519944Y-8596127D01*
X3519944Y-8596127D02*
X3529468Y-8567555D01*
X3529468Y-8567555D02*
X3538991Y-8548508D01*
X3538991Y-8548508D02*
X3558039Y-8519936D01*
X3558039Y-8519936D02*
X3567563Y-8510412D01*
X3748515Y-8738984D02*
X3634229Y-8738984D01*
X3691372Y-8738984D02*
X3691372Y-8538984D01*
X3691372Y-8538984D02*
X3672325Y-8567555D01*
X3672325Y-8567555D02*
X3653277Y-8586603D01*
X3653277Y-8586603D02*
X3634229Y-8596127D01*
X3824706Y-8558031D02*
X3834229Y-8548508D01*
X3834229Y-8548508D02*
X3853277Y-8538984D01*
X3853277Y-8538984D02*
X3900896Y-8538984D01*
X3900896Y-8538984D02*
X3919944Y-8548508D01*
X3919944Y-8548508D02*
X3929468Y-8558031D01*
X3929468Y-8558031D02*
X3938991Y-8577079D01*
X3938991Y-8577079D02*
X3938991Y-8596127D01*
X3938991Y-8596127D02*
X3929468Y-8624698D01*
X3929468Y-8624698D02*
X3815182Y-8738984D01*
X3815182Y-8738984D02*
X3938991Y-8738984D01*
X4177087Y-8738984D02*
X4177087Y-8538984D01*
X4262801Y-8738984D02*
X4262801Y-8634222D01*
X4262801Y-8634222D02*
X4253277Y-8615174D01*
X4253277Y-8615174D02*
X4234230Y-8605650D01*
X4234230Y-8605650D02*
X4205658Y-8605650D01*
X4205658Y-8605650D02*
X4186610Y-8615174D01*
X4186610Y-8615174D02*
X4177087Y-8624698D01*
X4386611Y-8738984D02*
X4367563Y-8729460D01*
X4367563Y-8729460D02*
X4358039Y-8719936D01*
X4358039Y-8719936D02*
X4348515Y-8700889D01*
X4348515Y-8700889D02*
X4348515Y-8643746D01*
X4348515Y-8643746D02*
X4358039Y-8624698D01*
X4358039Y-8624698D02*
X4367563Y-8615174D01*
X4367563Y-8615174D02*
X4386611Y-8605650D01*
X4386611Y-8605650D02*
X4415182Y-8605650D01*
X4415182Y-8605650D02*
X4434230Y-8615174D01*
X4434230Y-8615174D02*
X4443753Y-8624698D01*
X4443753Y-8624698D02*
X4453277Y-8643746D01*
X4453277Y-8643746D02*
X4453277Y-8700889D01*
X4453277Y-8700889D02*
X4443753Y-8719936D01*
X4443753Y-8719936D02*
X4434230Y-8729460D01*
X4434230Y-8729460D02*
X4415182Y-8738984D01*
X4415182Y-8738984D02*
X4386611Y-8738984D01*
X4567563Y-8738984D02*
X4548515Y-8729460D01*
X4548515Y-8729460D02*
X4538992Y-8710412D01*
X4538992Y-8710412D02*
X4538992Y-8538984D01*
X4719944Y-8729460D02*
X4700896Y-8738984D01*
X4700896Y-8738984D02*
X4662801Y-8738984D01*
X4662801Y-8738984D02*
X4643753Y-8729460D01*
X4643753Y-8729460D02*
X4634230Y-8710412D01*
X4634230Y-8710412D02*
X4634230Y-8634222D01*
X4634230Y-8634222D02*
X4643753Y-8615174D01*
X4643753Y-8615174D02*
X4662801Y-8605650D01*
X4662801Y-8605650D02*
X4700896Y-8605650D01*
X4700896Y-8605650D02*
X4719944Y-8615174D01*
X4719944Y-8615174D02*
X4729468Y-8634222D01*
X4729468Y-8634222D02*
X4729468Y-8653270D01*
X4729468Y-8653270D02*
X4634230Y-8672317D01*
X4805658Y-8729460D02*
X4824706Y-8738984D01*
X4824706Y-8738984D02*
X4862801Y-8738984D01*
X4862801Y-8738984D02*
X4881849Y-8729460D01*
X4881849Y-8729460D02*
X4891373Y-8710412D01*
X4891373Y-8710412D02*
X4891373Y-8700889D01*
X4891373Y-8700889D02*
X4881849Y-8681841D01*
X4881849Y-8681841D02*
X4862801Y-8672317D01*
X4862801Y-8672317D02*
X4834230Y-8672317D01*
X4834230Y-8672317D02*
X4815182Y-8662793D01*
X4815182Y-8662793D02*
X4805658Y-8643746D01*
X4805658Y-8643746D02*
X4805658Y-8634222D01*
X4805658Y-8634222D02*
X4815182Y-8615174D01*
X4815182Y-8615174D02*
X4834230Y-8605650D01*
X4834230Y-8605650D02*
X4862801Y-8605650D01*
X4862801Y-8605650D02*
X4881849Y-8615174D01*
X4958039Y-8815174D02*
X4967563Y-8805650D01*
X4967563Y-8805650D02*
X4986611Y-8777079D01*
X4986611Y-8777079D02*
X4996134Y-8758031D01*
X4996134Y-8758031D02*
X5005658Y-8729460D01*
X5005658Y-8729460D02*
X5015182Y-8681841D01*
X5015182Y-8681841D02*
X5015182Y-8643746D01*
X5015182Y-8643746D02*
X5005658Y-8596127D01*
X5005658Y-8596127D02*
X4996134Y-8567555D01*
X4996134Y-8567555D02*
X4986611Y-8548508D01*
X4986611Y-8548508D02*
X4967563Y-8519936D01*
X4967563Y-8519936D02*
X4958039Y-8510412D01*
D12*
X-7500Y-8911500D02*
G75*
G03*
X-37500Y-8911500I-15000J0D01*
G01*
X-37500Y-8911500D02*
G75*
G03*
X-7500Y-8911500I15000J0D01*
G01*
D11*
X291372Y-8802984D02*
X310420Y-8802984D01*
X310420Y-8802984D02*
X329467Y-8812508D01*
X329467Y-8812508D02*
X338991Y-8822031D01*
X338991Y-8822031D02*
X348515Y-8841079D01*
X348515Y-8841079D02*
X358039Y-8879174D01*
X358039Y-8879174D02*
X358039Y-8926793D01*
X358039Y-8926793D02*
X348515Y-8964889D01*
X348515Y-8964889D02*
X338991Y-8983936D01*
X338991Y-8983936D02*
X329467Y-8993460D01*
X329467Y-8993460D02*
X310420Y-9002984D01*
X310420Y-9002984D02*
X291372Y-9002984D01*
X291372Y-9002984D02*
X272324Y-8993460D01*
X272324Y-8993460D02*
X262801Y-8983936D01*
X262801Y-8983936D02*
X253277Y-8964889D01*
X253277Y-8964889D02*
X243753Y-8926793D01*
X243753Y-8926793D02*
X243753Y-8879174D01*
X243753Y-8879174D02*
X253277Y-8841079D01*
X253277Y-8841079D02*
X262801Y-8822031D01*
X262801Y-8822031D02*
X272324Y-8812508D01*
X272324Y-8812508D02*
X291372Y-8802984D01*
X443753Y-8983936D02*
X453277Y-8993460D01*
X453277Y-8993460D02*
X443753Y-9002984D01*
X443753Y-9002984D02*
X434229Y-8993460D01*
X434229Y-8993460D02*
X443753Y-8983936D01*
X443753Y-8983936D02*
X443753Y-9002984D01*
X519943Y-8802984D02*
X643753Y-8802984D01*
X643753Y-8802984D02*
X577086Y-8879174D01*
X577086Y-8879174D02*
X605658Y-8879174D01*
X605658Y-8879174D02*
X624705Y-8888698D01*
X624705Y-8888698D02*
X634229Y-8898222D01*
X634229Y-8898222D02*
X643753Y-8917270D01*
X643753Y-8917270D02*
X643753Y-8964889D01*
X643753Y-8964889D02*
X634229Y-8983936D01*
X634229Y-8983936D02*
X624705Y-8993460D01*
X624705Y-8993460D02*
X605658Y-9002984D01*
X605658Y-9002984D02*
X548515Y-9002984D01*
X548515Y-9002984D02*
X529467Y-8993460D01*
X529467Y-8993460D02*
X519943Y-8983936D01*
X767562Y-8802984D02*
X786610Y-8802984D01*
X786610Y-8802984D02*
X805658Y-8812508D01*
X805658Y-8812508D02*
X815182Y-8822031D01*
X815182Y-8822031D02*
X824705Y-8841079D01*
X824705Y-8841079D02*
X834229Y-8879174D01*
X834229Y-8879174D02*
X834229Y-8926793D01*
X834229Y-8926793D02*
X824705Y-8964889D01*
X824705Y-8964889D02*
X815182Y-8983936D01*
X815182Y-8983936D02*
X805658Y-8993460D01*
X805658Y-8993460D02*
X786610Y-9002984D01*
X786610Y-9002984D02*
X767562Y-9002984D01*
X767562Y-9002984D02*
X748515Y-8993460D01*
X748515Y-8993460D02*
X738991Y-8983936D01*
X738991Y-8983936D02*
X729467Y-8964889D01*
X729467Y-8964889D02*
X719943Y-8926793D01*
X719943Y-8926793D02*
X719943Y-8879174D01*
X719943Y-8879174D02*
X729467Y-8841079D01*
X729467Y-8841079D02*
X738991Y-8822031D01*
X738991Y-8822031D02*
X748515Y-8812508D01*
X748515Y-8812508D02*
X767562Y-8802984D01*
X958039Y-8802984D02*
X977086Y-8802984D01*
X977086Y-8802984D02*
X996134Y-8812508D01*
X996134Y-8812508D02*
X1005658Y-8822031D01*
X1005658Y-8822031D02*
X1015182Y-8841079D01*
X1015182Y-8841079D02*
X1024705Y-8879174D01*
X1024705Y-8879174D02*
X1024705Y-8926793D01*
X1024705Y-8926793D02*
X1015182Y-8964889D01*
X1015182Y-8964889D02*
X1005658Y-8983936D01*
X1005658Y-8983936D02*
X996134Y-8993460D01*
X996134Y-8993460D02*
X977086Y-9002984D01*
X977086Y-9002984D02*
X958039Y-9002984D01*
X958039Y-9002984D02*
X938991Y-8993460D01*
X938991Y-8993460D02*
X929467Y-8983936D01*
X929467Y-8983936D02*
X919943Y-8964889D01*
X919943Y-8964889D02*
X910420Y-8926793D01*
X910420Y-8926793D02*
X910420Y-8879174D01*
X910420Y-8879174D02*
X919943Y-8841079D01*
X919943Y-8841079D02*
X929467Y-8822031D01*
X929467Y-8822031D02*
X938991Y-8812508D01*
X938991Y-8812508D02*
X958039Y-8802984D01*
X1110420Y-9002984D02*
X1110420Y-8869650D01*
X1110420Y-8888698D02*
X1119944Y-8879174D01*
X1119944Y-8879174D02*
X1138991Y-8869650D01*
X1138991Y-8869650D02*
X1167563Y-8869650D01*
X1167563Y-8869650D02*
X1186610Y-8879174D01*
X1186610Y-8879174D02*
X1196134Y-8898222D01*
X1196134Y-8898222D02*
X1196134Y-9002984D01*
X1196134Y-8898222D02*
X1205658Y-8879174D01*
X1205658Y-8879174D02*
X1224705Y-8869650D01*
X1224705Y-8869650D02*
X1253277Y-8869650D01*
X1253277Y-8869650D02*
X1272325Y-8879174D01*
X1272325Y-8879174D02*
X1281848Y-8898222D01*
X1281848Y-8898222D02*
X1281848Y-9002984D01*
X1377086Y-9002984D02*
X1377086Y-8869650D01*
X1377086Y-8888698D02*
X1386610Y-8879174D01*
X1386610Y-8879174D02*
X1405658Y-8869650D01*
X1405658Y-8869650D02*
X1434229Y-8869650D01*
X1434229Y-8869650D02*
X1453277Y-8879174D01*
X1453277Y-8879174D02*
X1462801Y-8898222D01*
X1462801Y-8898222D02*
X1462801Y-9002984D01*
X1462801Y-8898222D02*
X1472324Y-8879174D01*
X1472324Y-8879174D02*
X1491372Y-8869650D01*
X1491372Y-8869650D02*
X1519943Y-8869650D01*
X1519943Y-8869650D02*
X1538991Y-8879174D01*
X1538991Y-8879174D02*
X1548515Y-8898222D01*
X1548515Y-8898222D02*
X1548515Y-9002984D01*
X1938991Y-8793460D02*
X1767563Y-9050603D01*
X2196134Y-8802984D02*
X2215182Y-8802984D01*
X2215182Y-8802984D02*
X2234229Y-8812508D01*
X2234229Y-8812508D02*
X2243753Y-8822031D01*
X2243753Y-8822031D02*
X2253277Y-8841079D01*
X2253277Y-8841079D02*
X2262801Y-8879174D01*
X2262801Y-8879174D02*
X2262801Y-8926793D01*
X2262801Y-8926793D02*
X2253277Y-8964889D01*
X2253277Y-8964889D02*
X2243753Y-8983936D01*
X2243753Y-8983936D02*
X2234229Y-8993460D01*
X2234229Y-8993460D02*
X2215182Y-9002984D01*
X2215182Y-9002984D02*
X2196134Y-9002984D01*
X2196134Y-9002984D02*
X2177087Y-8993460D01*
X2177087Y-8993460D02*
X2167563Y-8983936D01*
X2167563Y-8983936D02*
X2158039Y-8964889D01*
X2158039Y-8964889D02*
X2148515Y-8926793D01*
X2148515Y-8926793D02*
X2148515Y-8879174D01*
X2148515Y-8879174D02*
X2158039Y-8841079D01*
X2158039Y-8841079D02*
X2167563Y-8822031D01*
X2167563Y-8822031D02*
X2177087Y-8812508D01*
X2177087Y-8812508D02*
X2196134Y-8802984D01*
X2348515Y-8983936D02*
X2358039Y-8993460D01*
X2358039Y-8993460D02*
X2348515Y-9002984D01*
X2348515Y-9002984D02*
X2338991Y-8993460D01*
X2338991Y-8993460D02*
X2348515Y-8983936D01*
X2348515Y-8983936D02*
X2348515Y-9002984D01*
X2481848Y-8802984D02*
X2500896Y-8802984D01*
X2500896Y-8802984D02*
X2519944Y-8812508D01*
X2519944Y-8812508D02*
X2529468Y-8822031D01*
X2529468Y-8822031D02*
X2538991Y-8841079D01*
X2538991Y-8841079D02*
X2548515Y-8879174D01*
X2548515Y-8879174D02*
X2548515Y-8926793D01*
X2548515Y-8926793D02*
X2538991Y-8964889D01*
X2538991Y-8964889D02*
X2529468Y-8983936D01*
X2529468Y-8983936D02*
X2519944Y-8993460D01*
X2519944Y-8993460D02*
X2500896Y-9002984D01*
X2500896Y-9002984D02*
X2481848Y-9002984D01*
X2481848Y-9002984D02*
X2462801Y-8993460D01*
X2462801Y-8993460D02*
X2453277Y-8983936D01*
X2453277Y-8983936D02*
X2443753Y-8964889D01*
X2443753Y-8964889D02*
X2434229Y-8926793D01*
X2434229Y-8926793D02*
X2434229Y-8879174D01*
X2434229Y-8879174D02*
X2443753Y-8841079D01*
X2443753Y-8841079D02*
X2453277Y-8822031D01*
X2453277Y-8822031D02*
X2462801Y-8812508D01*
X2462801Y-8812508D02*
X2481848Y-8802984D01*
X2738991Y-9002984D02*
X2624706Y-9002984D01*
X2681848Y-9002984D02*
X2681848Y-8802984D01*
X2681848Y-8802984D02*
X2662801Y-8831555D01*
X2662801Y-8831555D02*
X2643753Y-8850603D01*
X2643753Y-8850603D02*
X2624706Y-8860127D01*
X2929467Y-9002984D02*
X2815182Y-9002984D01*
X2872325Y-9002984D02*
X2872325Y-8802984D01*
X2872325Y-8802984D02*
X2853277Y-8831555D01*
X2853277Y-8831555D02*
X2834229Y-8850603D01*
X2834229Y-8850603D02*
X2815182Y-8860127D01*
X3043753Y-8888698D02*
X3024706Y-8879174D01*
X3024706Y-8879174D02*
X3015182Y-8869650D01*
X3015182Y-8869650D02*
X3005658Y-8850603D01*
X3005658Y-8850603D02*
X3005658Y-8841079D01*
X3005658Y-8841079D02*
X3015182Y-8822031D01*
X3015182Y-8822031D02*
X3024706Y-8812508D01*
X3024706Y-8812508D02*
X3043753Y-8802984D01*
X3043753Y-8802984D02*
X3081848Y-8802984D01*
X3081848Y-8802984D02*
X3100896Y-8812508D01*
X3100896Y-8812508D02*
X3110420Y-8822031D01*
X3110420Y-8822031D02*
X3119944Y-8841079D01*
X3119944Y-8841079D02*
X3119944Y-8850603D01*
X3119944Y-8850603D02*
X3110420Y-8869650D01*
X3110420Y-8869650D02*
X3100896Y-8879174D01*
X3100896Y-8879174D02*
X3081848Y-8888698D01*
X3081848Y-8888698D02*
X3043753Y-8888698D01*
X3043753Y-8888698D02*
X3024706Y-8898222D01*
X3024706Y-8898222D02*
X3015182Y-8907746D01*
X3015182Y-8907746D02*
X3005658Y-8926793D01*
X3005658Y-8926793D02*
X3005658Y-8964889D01*
X3005658Y-8964889D02*
X3015182Y-8983936D01*
X3015182Y-8983936D02*
X3024706Y-8993460D01*
X3024706Y-8993460D02*
X3043753Y-9002984D01*
X3043753Y-9002984D02*
X3081848Y-9002984D01*
X3081848Y-9002984D02*
X3100896Y-8993460D01*
X3100896Y-8993460D02*
X3110420Y-8983936D01*
X3110420Y-8983936D02*
X3119944Y-8964889D01*
X3119944Y-8964889D02*
X3119944Y-8926793D01*
X3119944Y-8926793D02*
X3110420Y-8907746D01*
X3110420Y-8907746D02*
X3100896Y-8898222D01*
X3100896Y-8898222D02*
X3081848Y-8888698D01*
X3196134Y-8802984D02*
X3196134Y-8841079D01*
X3272325Y-8802984D02*
X3272325Y-8841079D01*
X3567563Y-9079174D02*
X3558039Y-9069650D01*
X3558039Y-9069650D02*
X3538991Y-9041079D01*
X3538991Y-9041079D02*
X3529468Y-9022031D01*
X3529468Y-9022031D02*
X3519944Y-8993460D01*
X3519944Y-8993460D02*
X3510420Y-8945841D01*
X3510420Y-8945841D02*
X3510420Y-8907746D01*
X3510420Y-8907746D02*
X3519944Y-8860127D01*
X3519944Y-8860127D02*
X3529468Y-8831555D01*
X3529468Y-8831555D02*
X3538991Y-8812508D01*
X3538991Y-8812508D02*
X3558039Y-8783936D01*
X3558039Y-8783936D02*
X3567563Y-8774412D01*
X3672325Y-8888698D02*
X3653277Y-8879174D01*
X3653277Y-8879174D02*
X3643753Y-8869650D01*
X3643753Y-8869650D02*
X3634229Y-8850603D01*
X3634229Y-8850603D02*
X3634229Y-8841079D01*
X3634229Y-8841079D02*
X3643753Y-8822031D01*
X3643753Y-8822031D02*
X3653277Y-8812508D01*
X3653277Y-8812508D02*
X3672325Y-8802984D01*
X3672325Y-8802984D02*
X3710420Y-8802984D01*
X3710420Y-8802984D02*
X3729468Y-8812508D01*
X3729468Y-8812508D02*
X3738991Y-8822031D01*
X3738991Y-8822031D02*
X3748515Y-8841079D01*
X3748515Y-8841079D02*
X3748515Y-8850603D01*
X3748515Y-8850603D02*
X3738991Y-8869650D01*
X3738991Y-8869650D02*
X3729468Y-8879174D01*
X3729468Y-8879174D02*
X3710420Y-8888698D01*
X3710420Y-8888698D02*
X3672325Y-8888698D01*
X3672325Y-8888698D02*
X3653277Y-8898222D01*
X3653277Y-8898222D02*
X3643753Y-8907746D01*
X3643753Y-8907746D02*
X3634229Y-8926793D01*
X3634229Y-8926793D02*
X3634229Y-8964889D01*
X3634229Y-8964889D02*
X3643753Y-8983936D01*
X3643753Y-8983936D02*
X3653277Y-8993460D01*
X3653277Y-8993460D02*
X3672325Y-9002984D01*
X3672325Y-9002984D02*
X3710420Y-9002984D01*
X3710420Y-9002984D02*
X3729468Y-8993460D01*
X3729468Y-8993460D02*
X3738991Y-8983936D01*
X3738991Y-8983936D02*
X3748515Y-8964889D01*
X3748515Y-8964889D02*
X3748515Y-8926793D01*
X3748515Y-8926793D02*
X3738991Y-8907746D01*
X3738991Y-8907746D02*
X3729468Y-8898222D01*
X3729468Y-8898222D02*
X3710420Y-8888698D01*
X3872325Y-8802984D02*
X3891372Y-8802984D01*
X3891372Y-8802984D02*
X3910420Y-8812508D01*
X3910420Y-8812508D02*
X3919944Y-8822031D01*
X3919944Y-8822031D02*
X3929468Y-8841079D01*
X3929468Y-8841079D02*
X3938991Y-8879174D01*
X3938991Y-8879174D02*
X3938991Y-8926793D01*
X3938991Y-8926793D02*
X3929468Y-8964889D01*
X3929468Y-8964889D02*
X3919944Y-8983936D01*
X3919944Y-8983936D02*
X3910420Y-8993460D01*
X3910420Y-8993460D02*
X3891372Y-9002984D01*
X3891372Y-9002984D02*
X3872325Y-9002984D01*
X3872325Y-9002984D02*
X3853277Y-8993460D01*
X3853277Y-8993460D02*
X3843753Y-8983936D01*
X3843753Y-8983936D02*
X3834229Y-8964889D01*
X3834229Y-8964889D02*
X3824706Y-8926793D01*
X3824706Y-8926793D02*
X3824706Y-8879174D01*
X3824706Y-8879174D02*
X3834229Y-8841079D01*
X3834229Y-8841079D02*
X3843753Y-8822031D01*
X3843753Y-8822031D02*
X3853277Y-8812508D01*
X3853277Y-8812508D02*
X3872325Y-8802984D01*
X4177087Y-9002984D02*
X4177087Y-8802984D01*
X4262801Y-9002984D02*
X4262801Y-8898222D01*
X4262801Y-8898222D02*
X4253277Y-8879174D01*
X4253277Y-8879174D02*
X4234230Y-8869650D01*
X4234230Y-8869650D02*
X4205658Y-8869650D01*
X4205658Y-8869650D02*
X4186610Y-8879174D01*
X4186610Y-8879174D02*
X4177087Y-8888698D01*
X4386611Y-9002984D02*
X4367563Y-8993460D01*
X4367563Y-8993460D02*
X4358039Y-8983936D01*
X4358039Y-8983936D02*
X4348515Y-8964889D01*
X4348515Y-8964889D02*
X4348515Y-8907746D01*
X4348515Y-8907746D02*
X4358039Y-8888698D01*
X4358039Y-8888698D02*
X4367563Y-8879174D01*
X4367563Y-8879174D02*
X4386611Y-8869650D01*
X4386611Y-8869650D02*
X4415182Y-8869650D01*
X4415182Y-8869650D02*
X4434230Y-8879174D01*
X4434230Y-8879174D02*
X4443753Y-8888698D01*
X4443753Y-8888698D02*
X4453277Y-8907746D01*
X4453277Y-8907746D02*
X4453277Y-8964889D01*
X4453277Y-8964889D02*
X4443753Y-8983936D01*
X4443753Y-8983936D02*
X4434230Y-8993460D01*
X4434230Y-8993460D02*
X4415182Y-9002984D01*
X4415182Y-9002984D02*
X4386611Y-9002984D01*
X4567563Y-9002984D02*
X4548515Y-8993460D01*
X4548515Y-8993460D02*
X4538992Y-8974412D01*
X4538992Y-8974412D02*
X4538992Y-8802984D01*
X4719944Y-8993460D02*
X4700896Y-9002984D01*
X4700896Y-9002984D02*
X4662801Y-9002984D01*
X4662801Y-9002984D02*
X4643753Y-8993460D01*
X4643753Y-8993460D02*
X4634230Y-8974412D01*
X4634230Y-8974412D02*
X4634230Y-8898222D01*
X4634230Y-8898222D02*
X4643753Y-8879174D01*
X4643753Y-8879174D02*
X4662801Y-8869650D01*
X4662801Y-8869650D02*
X4700896Y-8869650D01*
X4700896Y-8869650D02*
X4719944Y-8879174D01*
X4719944Y-8879174D02*
X4729468Y-8898222D01*
X4729468Y-8898222D02*
X4729468Y-8917270D01*
X4729468Y-8917270D02*
X4634230Y-8936317D01*
X4805658Y-8993460D02*
X4824706Y-9002984D01*
X4824706Y-9002984D02*
X4862801Y-9002984D01*
X4862801Y-9002984D02*
X4881849Y-8993460D01*
X4881849Y-8993460D02*
X4891373Y-8974412D01*
X4891373Y-8974412D02*
X4891373Y-8964889D01*
X4891373Y-8964889D02*
X4881849Y-8945841D01*
X4881849Y-8945841D02*
X4862801Y-8936317D01*
X4862801Y-8936317D02*
X4834230Y-8936317D01*
X4834230Y-8936317D02*
X4815182Y-8926793D01*
X4815182Y-8926793D02*
X4805658Y-8907746D01*
X4805658Y-8907746D02*
X4805658Y-8898222D01*
X4805658Y-8898222D02*
X4815182Y-8879174D01*
X4815182Y-8879174D02*
X4834230Y-8869650D01*
X4834230Y-8869650D02*
X4862801Y-8869650D01*
X4862801Y-8869650D02*
X4881849Y-8879174D01*
X4958039Y-9079174D02*
X4967563Y-9069650D01*
X4967563Y-9069650D02*
X4986611Y-9041079D01*
X4986611Y-9041079D02*
X4996134Y-9022031D01*
X4996134Y-9022031D02*
X5005658Y-8993460D01*
X5005658Y-8993460D02*
X5015182Y-8945841D01*
X5015182Y-8945841D02*
X5015182Y-8907746D01*
X5015182Y-8907746D02*
X5005658Y-8860127D01*
X5005658Y-8860127D02*
X4996134Y-8831555D01*
X4996134Y-8831555D02*
X4986611Y-8812508D01*
X4986611Y-8812508D02*
X4967563Y-8783936D01*
X4967563Y-8783936D02*
X4958039Y-8774412D01*
D12*
X-37500Y-9145500D02*
X-37500Y-9205500D01*
X-67500Y-9175500D02*
X-7500Y-9175500D01*
D11*
X291372Y-9066984D02*
X310420Y-9066984D01*
X310420Y-9066984D02*
X329467Y-9076508D01*
X329467Y-9076508D02*
X338991Y-9086031D01*
X338991Y-9086031D02*
X348515Y-9105079D01*
X348515Y-9105079D02*
X358039Y-9143174D01*
X358039Y-9143174D02*
X358039Y-9190793D01*
X358039Y-9190793D02*
X348515Y-9228889D01*
X348515Y-9228889D02*
X338991Y-9247936D01*
X338991Y-9247936D02*
X329467Y-9257460D01*
X329467Y-9257460D02*
X310420Y-9266984D01*
X310420Y-9266984D02*
X291372Y-9266984D01*
X291372Y-9266984D02*
X272324Y-9257460D01*
X272324Y-9257460D02*
X262801Y-9247936D01*
X262801Y-9247936D02*
X253277Y-9228889D01*
X253277Y-9228889D02*
X243753Y-9190793D01*
X243753Y-9190793D02*
X243753Y-9143174D01*
X243753Y-9143174D02*
X253277Y-9105079D01*
X253277Y-9105079D02*
X262801Y-9086031D01*
X262801Y-9086031D02*
X272324Y-9076508D01*
X272324Y-9076508D02*
X291372Y-9066984D01*
X443753Y-9247936D02*
X453277Y-9257460D01*
X453277Y-9257460D02*
X443753Y-9266984D01*
X443753Y-9266984D02*
X434229Y-9257460D01*
X434229Y-9257460D02*
X443753Y-9247936D01*
X443753Y-9247936D02*
X443753Y-9266984D01*
X624705Y-9066984D02*
X586610Y-9066984D01*
X586610Y-9066984D02*
X567563Y-9076508D01*
X567563Y-9076508D02*
X558039Y-9086031D01*
X558039Y-9086031D02*
X538991Y-9114603D01*
X538991Y-9114603D02*
X529467Y-9152698D01*
X529467Y-9152698D02*
X529467Y-9228889D01*
X529467Y-9228889D02*
X538991Y-9247936D01*
X538991Y-9247936D02*
X548515Y-9257460D01*
X548515Y-9257460D02*
X567563Y-9266984D01*
X567563Y-9266984D02*
X605658Y-9266984D01*
X605658Y-9266984D02*
X624705Y-9257460D01*
X624705Y-9257460D02*
X634229Y-9247936D01*
X634229Y-9247936D02*
X643753Y-9228889D01*
X643753Y-9228889D02*
X643753Y-9181270D01*
X643753Y-9181270D02*
X634229Y-9162222D01*
X634229Y-9162222D02*
X624705Y-9152698D01*
X624705Y-9152698D02*
X605658Y-9143174D01*
X605658Y-9143174D02*
X567563Y-9143174D01*
X567563Y-9143174D02*
X548515Y-9152698D01*
X548515Y-9152698D02*
X538991Y-9162222D01*
X538991Y-9162222D02*
X529467Y-9181270D01*
X767562Y-9066984D02*
X786610Y-9066984D01*
X786610Y-9066984D02*
X805658Y-9076508D01*
X805658Y-9076508D02*
X815182Y-9086031D01*
X815182Y-9086031D02*
X824705Y-9105079D01*
X824705Y-9105079D02*
X834229Y-9143174D01*
X834229Y-9143174D02*
X834229Y-9190793D01*
X834229Y-9190793D02*
X824705Y-9228889D01*
X824705Y-9228889D02*
X815182Y-9247936D01*
X815182Y-9247936D02*
X805658Y-9257460D01*
X805658Y-9257460D02*
X786610Y-9266984D01*
X786610Y-9266984D02*
X767562Y-9266984D01*
X767562Y-9266984D02*
X748515Y-9257460D01*
X748515Y-9257460D02*
X738991Y-9247936D01*
X738991Y-9247936D02*
X729467Y-9228889D01*
X729467Y-9228889D02*
X719943Y-9190793D01*
X719943Y-9190793D02*
X719943Y-9143174D01*
X719943Y-9143174D02*
X729467Y-9105079D01*
X729467Y-9105079D02*
X738991Y-9086031D01*
X738991Y-9086031D02*
X748515Y-9076508D01*
X748515Y-9076508D02*
X767562Y-9066984D01*
X958039Y-9066984D02*
X977086Y-9066984D01*
X977086Y-9066984D02*
X996134Y-9076508D01*
X996134Y-9076508D02*
X1005658Y-9086031D01*
X1005658Y-9086031D02*
X1015182Y-9105079D01*
X1015182Y-9105079D02*
X1024705Y-9143174D01*
X1024705Y-9143174D02*
X1024705Y-9190793D01*
X1024705Y-9190793D02*
X1015182Y-9228889D01*
X1015182Y-9228889D02*
X1005658Y-9247936D01*
X1005658Y-9247936D02*
X996134Y-9257460D01*
X996134Y-9257460D02*
X977086Y-9266984D01*
X977086Y-9266984D02*
X958039Y-9266984D01*
X958039Y-9266984D02*
X938991Y-9257460D01*
X938991Y-9257460D02*
X929467Y-9247936D01*
X929467Y-9247936D02*
X919943Y-9228889D01*
X919943Y-9228889D02*
X910420Y-9190793D01*
X910420Y-9190793D02*
X910420Y-9143174D01*
X910420Y-9143174D02*
X919943Y-9105079D01*
X919943Y-9105079D02*
X929467Y-9086031D01*
X929467Y-9086031D02*
X938991Y-9076508D01*
X938991Y-9076508D02*
X958039Y-9066984D01*
X1110420Y-9266984D02*
X1110420Y-9133650D01*
X1110420Y-9152698D02*
X1119944Y-9143174D01*
X1119944Y-9143174D02*
X1138991Y-9133650D01*
X1138991Y-9133650D02*
X1167563Y-9133650D01*
X1167563Y-9133650D02*
X1186610Y-9143174D01*
X1186610Y-9143174D02*
X1196134Y-9162222D01*
X1196134Y-9162222D02*
X1196134Y-9266984D01*
X1196134Y-9162222D02*
X1205658Y-9143174D01*
X1205658Y-9143174D02*
X1224705Y-9133650D01*
X1224705Y-9133650D02*
X1253277Y-9133650D01*
X1253277Y-9133650D02*
X1272325Y-9143174D01*
X1272325Y-9143174D02*
X1281848Y-9162222D01*
X1281848Y-9162222D02*
X1281848Y-9266984D01*
X1377086Y-9266984D02*
X1377086Y-9133650D01*
X1377086Y-9152698D02*
X1386610Y-9143174D01*
X1386610Y-9143174D02*
X1405658Y-9133650D01*
X1405658Y-9133650D02*
X1434229Y-9133650D01*
X1434229Y-9133650D02*
X1453277Y-9143174D01*
X1453277Y-9143174D02*
X1462801Y-9162222D01*
X1462801Y-9162222D02*
X1462801Y-9266984D01*
X1462801Y-9162222D02*
X1472324Y-9143174D01*
X1472324Y-9143174D02*
X1491372Y-9133650D01*
X1491372Y-9133650D02*
X1519943Y-9133650D01*
X1519943Y-9133650D02*
X1538991Y-9143174D01*
X1538991Y-9143174D02*
X1548515Y-9162222D01*
X1548515Y-9162222D02*
X1548515Y-9266984D01*
X1938991Y-9057460D02*
X1767563Y-9314603D01*
X2196134Y-9066984D02*
X2215182Y-9066984D01*
X2215182Y-9066984D02*
X2234229Y-9076508D01*
X2234229Y-9076508D02*
X2243753Y-9086031D01*
X2243753Y-9086031D02*
X2253277Y-9105079D01*
X2253277Y-9105079D02*
X2262801Y-9143174D01*
X2262801Y-9143174D02*
X2262801Y-9190793D01*
X2262801Y-9190793D02*
X2253277Y-9228889D01*
X2253277Y-9228889D02*
X2243753Y-9247936D01*
X2243753Y-9247936D02*
X2234229Y-9257460D01*
X2234229Y-9257460D02*
X2215182Y-9266984D01*
X2215182Y-9266984D02*
X2196134Y-9266984D01*
X2196134Y-9266984D02*
X2177087Y-9257460D01*
X2177087Y-9257460D02*
X2167563Y-9247936D01*
X2167563Y-9247936D02*
X2158039Y-9228889D01*
X2158039Y-9228889D02*
X2148515Y-9190793D01*
X2148515Y-9190793D02*
X2148515Y-9143174D01*
X2148515Y-9143174D02*
X2158039Y-9105079D01*
X2158039Y-9105079D02*
X2167563Y-9086031D01*
X2167563Y-9086031D02*
X2177087Y-9076508D01*
X2177087Y-9076508D02*
X2196134Y-9066984D01*
X2348515Y-9247936D02*
X2358039Y-9257460D01*
X2358039Y-9257460D02*
X2348515Y-9266984D01*
X2348515Y-9266984D02*
X2338991Y-9257460D01*
X2338991Y-9257460D02*
X2348515Y-9247936D01*
X2348515Y-9247936D02*
X2348515Y-9266984D01*
X2481848Y-9066984D02*
X2500896Y-9066984D01*
X2500896Y-9066984D02*
X2519944Y-9076508D01*
X2519944Y-9076508D02*
X2529468Y-9086031D01*
X2529468Y-9086031D02*
X2538991Y-9105079D01*
X2538991Y-9105079D02*
X2548515Y-9143174D01*
X2548515Y-9143174D02*
X2548515Y-9190793D01*
X2548515Y-9190793D02*
X2538991Y-9228889D01*
X2538991Y-9228889D02*
X2529468Y-9247936D01*
X2529468Y-9247936D02*
X2519944Y-9257460D01*
X2519944Y-9257460D02*
X2500896Y-9266984D01*
X2500896Y-9266984D02*
X2481848Y-9266984D01*
X2481848Y-9266984D02*
X2462801Y-9257460D01*
X2462801Y-9257460D02*
X2453277Y-9247936D01*
X2453277Y-9247936D02*
X2443753Y-9228889D01*
X2443753Y-9228889D02*
X2434229Y-9190793D01*
X2434229Y-9190793D02*
X2434229Y-9143174D01*
X2434229Y-9143174D02*
X2443753Y-9105079D01*
X2443753Y-9105079D02*
X2453277Y-9086031D01*
X2453277Y-9086031D02*
X2462801Y-9076508D01*
X2462801Y-9076508D02*
X2481848Y-9066984D01*
X2624706Y-9086031D02*
X2634229Y-9076508D01*
X2634229Y-9076508D02*
X2653277Y-9066984D01*
X2653277Y-9066984D02*
X2700896Y-9066984D01*
X2700896Y-9066984D02*
X2719944Y-9076508D01*
X2719944Y-9076508D02*
X2729468Y-9086031D01*
X2729468Y-9086031D02*
X2738991Y-9105079D01*
X2738991Y-9105079D02*
X2738991Y-9124127D01*
X2738991Y-9124127D02*
X2729468Y-9152698D01*
X2729468Y-9152698D02*
X2615182Y-9266984D01*
X2615182Y-9266984D02*
X2738991Y-9266984D01*
X2805658Y-9066984D02*
X2929467Y-9066984D01*
X2929467Y-9066984D02*
X2862801Y-9143174D01*
X2862801Y-9143174D02*
X2891372Y-9143174D01*
X2891372Y-9143174D02*
X2910420Y-9152698D01*
X2910420Y-9152698D02*
X2919944Y-9162222D01*
X2919944Y-9162222D02*
X2929467Y-9181270D01*
X2929467Y-9181270D02*
X2929467Y-9228889D01*
X2929467Y-9228889D02*
X2919944Y-9247936D01*
X2919944Y-9247936D02*
X2910420Y-9257460D01*
X2910420Y-9257460D02*
X2891372Y-9266984D01*
X2891372Y-9266984D02*
X2834229Y-9266984D01*
X2834229Y-9266984D02*
X2815182Y-9257460D01*
X2815182Y-9257460D02*
X2805658Y-9247936D01*
X3100896Y-9066984D02*
X3062801Y-9066984D01*
X3062801Y-9066984D02*
X3043753Y-9076508D01*
X3043753Y-9076508D02*
X3034229Y-9086031D01*
X3034229Y-9086031D02*
X3015182Y-9114603D01*
X3015182Y-9114603D02*
X3005658Y-9152698D01*
X3005658Y-9152698D02*
X3005658Y-9228889D01*
X3005658Y-9228889D02*
X3015182Y-9247936D01*
X3015182Y-9247936D02*
X3024706Y-9257460D01*
X3024706Y-9257460D02*
X3043753Y-9266984D01*
X3043753Y-9266984D02*
X3081848Y-9266984D01*
X3081848Y-9266984D02*
X3100896Y-9257460D01*
X3100896Y-9257460D02*
X3110420Y-9247936D01*
X3110420Y-9247936D02*
X3119944Y-9228889D01*
X3119944Y-9228889D02*
X3119944Y-9181270D01*
X3119944Y-9181270D02*
X3110420Y-9162222D01*
X3110420Y-9162222D02*
X3100896Y-9152698D01*
X3100896Y-9152698D02*
X3081848Y-9143174D01*
X3081848Y-9143174D02*
X3043753Y-9143174D01*
X3043753Y-9143174D02*
X3024706Y-9152698D01*
X3024706Y-9152698D02*
X3015182Y-9162222D01*
X3015182Y-9162222D02*
X3005658Y-9181270D01*
X3196134Y-9066984D02*
X3196134Y-9105079D01*
X3272325Y-9066984D02*
X3272325Y-9105079D01*
X3567563Y-9343174D02*
X3558039Y-9333650D01*
X3558039Y-9333650D02*
X3538991Y-9305079D01*
X3538991Y-9305079D02*
X3529468Y-9286031D01*
X3529468Y-9286031D02*
X3519944Y-9257460D01*
X3519944Y-9257460D02*
X3510420Y-9209841D01*
X3510420Y-9209841D02*
X3510420Y-9171746D01*
X3510420Y-9171746D02*
X3519944Y-9124127D01*
X3519944Y-9124127D02*
X3529468Y-9095555D01*
X3529468Y-9095555D02*
X3538991Y-9076508D01*
X3538991Y-9076508D02*
X3558039Y-9047936D01*
X3558039Y-9047936D02*
X3567563Y-9038412D01*
X3681848Y-9066984D02*
X3700896Y-9066984D01*
X3700896Y-9066984D02*
X3719944Y-9076508D01*
X3719944Y-9076508D02*
X3729468Y-9086031D01*
X3729468Y-9086031D02*
X3738991Y-9105079D01*
X3738991Y-9105079D02*
X3748515Y-9143174D01*
X3748515Y-9143174D02*
X3748515Y-9190793D01*
X3748515Y-9190793D02*
X3738991Y-9228889D01*
X3738991Y-9228889D02*
X3729468Y-9247936D01*
X3729468Y-9247936D02*
X3719944Y-9257460D01*
X3719944Y-9257460D02*
X3700896Y-9266984D01*
X3700896Y-9266984D02*
X3681848Y-9266984D01*
X3681848Y-9266984D02*
X3662801Y-9257460D01*
X3662801Y-9257460D02*
X3653277Y-9247936D01*
X3653277Y-9247936D02*
X3643753Y-9228889D01*
X3643753Y-9228889D02*
X3634229Y-9190793D01*
X3634229Y-9190793D02*
X3634229Y-9143174D01*
X3634229Y-9143174D02*
X3643753Y-9105079D01*
X3643753Y-9105079D02*
X3653277Y-9086031D01*
X3653277Y-9086031D02*
X3662801Y-9076508D01*
X3662801Y-9076508D02*
X3681848Y-9066984D01*
X3986610Y-9266984D02*
X3986610Y-9066984D01*
X4072325Y-9266984D02*
X4072325Y-9162222D01*
X4072325Y-9162222D02*
X4062801Y-9143174D01*
X4062801Y-9143174D02*
X4043753Y-9133650D01*
X4043753Y-9133650D02*
X4015182Y-9133650D01*
X4015182Y-9133650D02*
X3996134Y-9143174D01*
X3996134Y-9143174D02*
X3986610Y-9152698D01*
X4196134Y-9266984D02*
X4177087Y-9257460D01*
X4177087Y-9257460D02*
X4167563Y-9247936D01*
X4167563Y-9247936D02*
X4158039Y-9228889D01*
X4158039Y-9228889D02*
X4158039Y-9171746D01*
X4158039Y-9171746D02*
X4167563Y-9152698D01*
X4167563Y-9152698D02*
X4177087Y-9143174D01*
X4177087Y-9143174D02*
X4196134Y-9133650D01*
X4196134Y-9133650D02*
X4224706Y-9133650D01*
X4224706Y-9133650D02*
X4243753Y-9143174D01*
X4243753Y-9143174D02*
X4253277Y-9152698D01*
X4253277Y-9152698D02*
X4262801Y-9171746D01*
X4262801Y-9171746D02*
X4262801Y-9228889D01*
X4262801Y-9228889D02*
X4253277Y-9247936D01*
X4253277Y-9247936D02*
X4243753Y-9257460D01*
X4243753Y-9257460D02*
X4224706Y-9266984D01*
X4224706Y-9266984D02*
X4196134Y-9266984D01*
X4377087Y-9266984D02*
X4358039Y-9257460D01*
X4358039Y-9257460D02*
X4348515Y-9238412D01*
X4348515Y-9238412D02*
X4348515Y-9066984D01*
X4529468Y-9257460D02*
X4510420Y-9266984D01*
X4510420Y-9266984D02*
X4472325Y-9266984D01*
X4472325Y-9266984D02*
X4453277Y-9257460D01*
X4453277Y-9257460D02*
X4443753Y-9238412D01*
X4443753Y-9238412D02*
X4443753Y-9162222D01*
X4443753Y-9162222D02*
X4453277Y-9143174D01*
X4453277Y-9143174D02*
X4472325Y-9133650D01*
X4472325Y-9133650D02*
X4510420Y-9133650D01*
X4510420Y-9133650D02*
X4529468Y-9143174D01*
X4529468Y-9143174D02*
X4538992Y-9162222D01*
X4538992Y-9162222D02*
X4538992Y-9181270D01*
X4538992Y-9181270D02*
X4443753Y-9200317D01*
X4615182Y-9257460D02*
X4634230Y-9266984D01*
X4634230Y-9266984D02*
X4672325Y-9266984D01*
X4672325Y-9266984D02*
X4691373Y-9257460D01*
X4691373Y-9257460D02*
X4700896Y-9238412D01*
X4700896Y-9238412D02*
X4700896Y-9228889D01*
X4700896Y-9228889D02*
X4691373Y-9209841D01*
X4691373Y-9209841D02*
X4672325Y-9200317D01*
X4672325Y-9200317D02*
X4643753Y-9200317D01*
X4643753Y-9200317D02*
X4624706Y-9190793D01*
X4624706Y-9190793D02*
X4615182Y-9171746D01*
X4615182Y-9171746D02*
X4615182Y-9162222D01*
X4615182Y-9162222D02*
X4624706Y-9143174D01*
X4624706Y-9143174D02*
X4643753Y-9133650D01*
X4643753Y-9133650D02*
X4672325Y-9133650D01*
X4672325Y-9133650D02*
X4691373Y-9143174D01*
X4938992Y-9190793D02*
X5091373Y-9190793D01*
X5015182Y-9266984D02*
X5015182Y-9114603D01*
X5424706Y-9133650D02*
X5424706Y-9266984D01*
X5377087Y-9057460D02*
X5329468Y-9200317D01*
X5329468Y-9200317D02*
X5453277Y-9200317D01*
X5672325Y-9257460D02*
X5691373Y-9266984D01*
X5691373Y-9266984D02*
X5729468Y-9266984D01*
X5729468Y-9266984D02*
X5748515Y-9257460D01*
X5748515Y-9257460D02*
X5758039Y-9238412D01*
X5758039Y-9238412D02*
X5758039Y-9228889D01*
X5758039Y-9228889D02*
X5748515Y-9209841D01*
X5748515Y-9209841D02*
X5729468Y-9200317D01*
X5729468Y-9200317D02*
X5700896Y-9200317D01*
X5700896Y-9200317D02*
X5681849Y-9190793D01*
X5681849Y-9190793D02*
X5672325Y-9171746D01*
X5672325Y-9171746D02*
X5672325Y-9162222D01*
X5672325Y-9162222D02*
X5681849Y-9143174D01*
X5681849Y-9143174D02*
X5700896Y-9133650D01*
X5700896Y-9133650D02*
X5729468Y-9133650D01*
X5729468Y-9133650D02*
X5748515Y-9143174D01*
X5872325Y-9266984D02*
X5853277Y-9257460D01*
X5853277Y-9257460D02*
X5843754Y-9238412D01*
X5843754Y-9238412D02*
X5843754Y-9066984D01*
X5977087Y-9266984D02*
X5958039Y-9257460D01*
X5958039Y-9257460D02*
X5948515Y-9247936D01*
X5948515Y-9247936D02*
X5938992Y-9228889D01*
X5938992Y-9228889D02*
X5938992Y-9171746D01*
X5938992Y-9171746D02*
X5948515Y-9152698D01*
X5948515Y-9152698D02*
X5958039Y-9143174D01*
X5958039Y-9143174D02*
X5977087Y-9133650D01*
X5977087Y-9133650D02*
X6005658Y-9133650D01*
X6005658Y-9133650D02*
X6024706Y-9143174D01*
X6024706Y-9143174D02*
X6034230Y-9152698D01*
X6034230Y-9152698D02*
X6043754Y-9171746D01*
X6043754Y-9171746D02*
X6043754Y-9228889D01*
X6043754Y-9228889D02*
X6034230Y-9247936D01*
X6034230Y-9247936D02*
X6024706Y-9257460D01*
X6024706Y-9257460D02*
X6005658Y-9266984D01*
X6005658Y-9266984D02*
X5977087Y-9266984D01*
X6100896Y-9133650D02*
X6177087Y-9133650D01*
X6129468Y-9066984D02*
X6129468Y-9238412D01*
X6129468Y-9238412D02*
X6138992Y-9257460D01*
X6138992Y-9257460D02*
X6158039Y-9266984D01*
X6158039Y-9266984D02*
X6177087Y-9266984D01*
X6234230Y-9257460D02*
X6253277Y-9266984D01*
X6253277Y-9266984D02*
X6291373Y-9266984D01*
X6291373Y-9266984D02*
X6310420Y-9257460D01*
X6310420Y-9257460D02*
X6319944Y-9238412D01*
X6319944Y-9238412D02*
X6319944Y-9228889D01*
X6319944Y-9228889D02*
X6310420Y-9209841D01*
X6310420Y-9209841D02*
X6291373Y-9200317D01*
X6291373Y-9200317D02*
X6262801Y-9200317D01*
X6262801Y-9200317D02*
X6243754Y-9190793D01*
X6243754Y-9190793D02*
X6234230Y-9171746D01*
X6234230Y-9171746D02*
X6234230Y-9162222D01*
X6234230Y-9162222D02*
X6243754Y-9143174D01*
X6243754Y-9143174D02*
X6262801Y-9133650D01*
X6262801Y-9133650D02*
X6291373Y-9133650D01*
X6291373Y-9133650D02*
X6310420Y-9143174D01*
X6386611Y-9343174D02*
X6396135Y-9333650D01*
X6396135Y-9333650D02*
X6415182Y-9305079D01*
X6415182Y-9305079D02*
X6424706Y-9286031D01*
X6424706Y-9286031D02*
X6434230Y-9257460D01*
X6434230Y-9257460D02*
X6443754Y-9209841D01*
X6443754Y-9209841D02*
X6443754Y-9171746D01*
X6443754Y-9171746D02*
X6434230Y-9124127D01*
X6434230Y-9124127D02*
X6424706Y-9095555D01*
X6424706Y-9095555D02*
X6415182Y-9076508D01*
X6415182Y-9076508D02*
X6396135Y-9047936D01*
X6396135Y-9047936D02*
X6386611Y-9038412D01*
D12*
X-18483Y-9466017D02*
X-18483Y-9412983D01*
X-71517Y-9412983D01*
X-71517Y-9466017D01*
X-18483Y-9466017D01*
D11*
X291372Y-9330984D02*
X310420Y-9330984D01*
X310420Y-9330984D02*
X329467Y-9340508D01*
X329467Y-9340508D02*
X338991Y-9350031D01*
X338991Y-9350031D02*
X348515Y-9369079D01*
X348515Y-9369079D02*
X358039Y-9407174D01*
X358039Y-9407174D02*
X358039Y-9454793D01*
X358039Y-9454793D02*
X348515Y-9492889D01*
X348515Y-9492889D02*
X338991Y-9511936D01*
X338991Y-9511936D02*
X329467Y-9521460D01*
X329467Y-9521460D02*
X310420Y-9530984D01*
X310420Y-9530984D02*
X291372Y-9530984D01*
X291372Y-9530984D02*
X272324Y-9521460D01*
X272324Y-9521460D02*
X262801Y-9511936D01*
X262801Y-9511936D02*
X253277Y-9492889D01*
X253277Y-9492889D02*
X243753Y-9454793D01*
X243753Y-9454793D02*
X243753Y-9407174D01*
X243753Y-9407174D02*
X253277Y-9369079D01*
X253277Y-9369079D02*
X262801Y-9350031D01*
X262801Y-9350031D02*
X272324Y-9340508D01*
X272324Y-9340508D02*
X291372Y-9330984D01*
X443753Y-9511936D02*
X453277Y-9521460D01*
X453277Y-9521460D02*
X443753Y-9530984D01*
X443753Y-9530984D02*
X434229Y-9521460D01*
X434229Y-9521460D02*
X443753Y-9511936D01*
X443753Y-9511936D02*
X443753Y-9530984D01*
X519943Y-9330984D02*
X653277Y-9330984D01*
X653277Y-9330984D02*
X567563Y-9530984D01*
X824705Y-9330984D02*
X729467Y-9330984D01*
X729467Y-9330984D02*
X719943Y-9426222D01*
X719943Y-9426222D02*
X729467Y-9416698D01*
X729467Y-9416698D02*
X748515Y-9407174D01*
X748515Y-9407174D02*
X796134Y-9407174D01*
X796134Y-9407174D02*
X815182Y-9416698D01*
X815182Y-9416698D02*
X824705Y-9426222D01*
X824705Y-9426222D02*
X834229Y-9445270D01*
X834229Y-9445270D02*
X834229Y-9492889D01*
X834229Y-9492889D02*
X824705Y-9511936D01*
X824705Y-9511936D02*
X815182Y-9521460D01*
X815182Y-9521460D02*
X796134Y-9530984D01*
X796134Y-9530984D02*
X748515Y-9530984D01*
X748515Y-9530984D02*
X729467Y-9521460D01*
X729467Y-9521460D02*
X719943Y-9511936D01*
X958039Y-9330984D02*
X977086Y-9330984D01*
X977086Y-9330984D02*
X996134Y-9340508D01*
X996134Y-9340508D02*
X1005658Y-9350031D01*
X1005658Y-9350031D02*
X1015182Y-9369079D01*
X1015182Y-9369079D02*
X1024705Y-9407174D01*
X1024705Y-9407174D02*
X1024705Y-9454793D01*
X1024705Y-9454793D02*
X1015182Y-9492889D01*
X1015182Y-9492889D02*
X1005658Y-9511936D01*
X1005658Y-9511936D02*
X996134Y-9521460D01*
X996134Y-9521460D02*
X977086Y-9530984D01*
X977086Y-9530984D02*
X958039Y-9530984D01*
X958039Y-9530984D02*
X938991Y-9521460D01*
X938991Y-9521460D02*
X929467Y-9511936D01*
X929467Y-9511936D02*
X919943Y-9492889D01*
X919943Y-9492889D02*
X910420Y-9454793D01*
X910420Y-9454793D02*
X910420Y-9407174D01*
X910420Y-9407174D02*
X919943Y-9369079D01*
X919943Y-9369079D02*
X929467Y-9350031D01*
X929467Y-9350031D02*
X938991Y-9340508D01*
X938991Y-9340508D02*
X958039Y-9330984D01*
X1110420Y-9530984D02*
X1110420Y-9397650D01*
X1110420Y-9416698D02*
X1119944Y-9407174D01*
X1119944Y-9407174D02*
X1138991Y-9397650D01*
X1138991Y-9397650D02*
X1167563Y-9397650D01*
X1167563Y-9397650D02*
X1186610Y-9407174D01*
X1186610Y-9407174D02*
X1196134Y-9426222D01*
X1196134Y-9426222D02*
X1196134Y-9530984D01*
X1196134Y-9426222D02*
X1205658Y-9407174D01*
X1205658Y-9407174D02*
X1224705Y-9397650D01*
X1224705Y-9397650D02*
X1253277Y-9397650D01*
X1253277Y-9397650D02*
X1272325Y-9407174D01*
X1272325Y-9407174D02*
X1281848Y-9426222D01*
X1281848Y-9426222D02*
X1281848Y-9530984D01*
X1377086Y-9530984D02*
X1377086Y-9397650D01*
X1377086Y-9416698D02*
X1386610Y-9407174D01*
X1386610Y-9407174D02*
X1405658Y-9397650D01*
X1405658Y-9397650D02*
X1434229Y-9397650D01*
X1434229Y-9397650D02*
X1453277Y-9407174D01*
X1453277Y-9407174D02*
X1462801Y-9426222D01*
X1462801Y-9426222D02*
X1462801Y-9530984D01*
X1462801Y-9426222D02*
X1472324Y-9407174D01*
X1472324Y-9407174D02*
X1491372Y-9397650D01*
X1491372Y-9397650D02*
X1519943Y-9397650D01*
X1519943Y-9397650D02*
X1538991Y-9407174D01*
X1538991Y-9407174D02*
X1548515Y-9426222D01*
X1548515Y-9426222D02*
X1548515Y-9530984D01*
X1938991Y-9321460D02*
X1767563Y-9578603D01*
X2196134Y-9330984D02*
X2215182Y-9330984D01*
X2215182Y-9330984D02*
X2234229Y-9340508D01*
X2234229Y-9340508D02*
X2243753Y-9350031D01*
X2243753Y-9350031D02*
X2253277Y-9369079D01*
X2253277Y-9369079D02*
X2262801Y-9407174D01*
X2262801Y-9407174D02*
X2262801Y-9454793D01*
X2262801Y-9454793D02*
X2253277Y-9492889D01*
X2253277Y-9492889D02*
X2243753Y-9511936D01*
X2243753Y-9511936D02*
X2234229Y-9521460D01*
X2234229Y-9521460D02*
X2215182Y-9530984D01*
X2215182Y-9530984D02*
X2196134Y-9530984D01*
X2196134Y-9530984D02*
X2177087Y-9521460D01*
X2177087Y-9521460D02*
X2167563Y-9511936D01*
X2167563Y-9511936D02*
X2158039Y-9492889D01*
X2158039Y-9492889D02*
X2148515Y-9454793D01*
X2148515Y-9454793D02*
X2148515Y-9407174D01*
X2148515Y-9407174D02*
X2158039Y-9369079D01*
X2158039Y-9369079D02*
X2167563Y-9350031D01*
X2167563Y-9350031D02*
X2177087Y-9340508D01*
X2177087Y-9340508D02*
X2196134Y-9330984D01*
X2348515Y-9511936D02*
X2358039Y-9521460D01*
X2358039Y-9521460D02*
X2348515Y-9530984D01*
X2348515Y-9530984D02*
X2338991Y-9521460D01*
X2338991Y-9521460D02*
X2348515Y-9511936D01*
X2348515Y-9511936D02*
X2348515Y-9530984D01*
X2481848Y-9330984D02*
X2500896Y-9330984D01*
X2500896Y-9330984D02*
X2519944Y-9340508D01*
X2519944Y-9340508D02*
X2529468Y-9350031D01*
X2529468Y-9350031D02*
X2538991Y-9369079D01*
X2538991Y-9369079D02*
X2548515Y-9407174D01*
X2548515Y-9407174D02*
X2548515Y-9454793D01*
X2548515Y-9454793D02*
X2538991Y-9492889D01*
X2538991Y-9492889D02*
X2529468Y-9511936D01*
X2529468Y-9511936D02*
X2519944Y-9521460D01*
X2519944Y-9521460D02*
X2500896Y-9530984D01*
X2500896Y-9530984D02*
X2481848Y-9530984D01*
X2481848Y-9530984D02*
X2462801Y-9521460D01*
X2462801Y-9521460D02*
X2453277Y-9511936D01*
X2453277Y-9511936D02*
X2443753Y-9492889D01*
X2443753Y-9492889D02*
X2434229Y-9454793D01*
X2434229Y-9454793D02*
X2434229Y-9407174D01*
X2434229Y-9407174D02*
X2443753Y-9369079D01*
X2443753Y-9369079D02*
X2453277Y-9350031D01*
X2453277Y-9350031D02*
X2462801Y-9340508D01*
X2462801Y-9340508D02*
X2481848Y-9330984D01*
X2624706Y-9350031D02*
X2634229Y-9340508D01*
X2634229Y-9340508D02*
X2653277Y-9330984D01*
X2653277Y-9330984D02*
X2700896Y-9330984D01*
X2700896Y-9330984D02*
X2719944Y-9340508D01*
X2719944Y-9340508D02*
X2729468Y-9350031D01*
X2729468Y-9350031D02*
X2738991Y-9369079D01*
X2738991Y-9369079D02*
X2738991Y-9388127D01*
X2738991Y-9388127D02*
X2729468Y-9416698D01*
X2729468Y-9416698D02*
X2615182Y-9530984D01*
X2615182Y-9530984D02*
X2738991Y-9530984D01*
X2834229Y-9530984D02*
X2872325Y-9530984D01*
X2872325Y-9530984D02*
X2891372Y-9521460D01*
X2891372Y-9521460D02*
X2900896Y-9511936D01*
X2900896Y-9511936D02*
X2919944Y-9483365D01*
X2919944Y-9483365D02*
X2929467Y-9445270D01*
X2929467Y-9445270D02*
X2929467Y-9369079D01*
X2929467Y-9369079D02*
X2919944Y-9350031D01*
X2919944Y-9350031D02*
X2910420Y-9340508D01*
X2910420Y-9340508D02*
X2891372Y-9330984D01*
X2891372Y-9330984D02*
X2853277Y-9330984D01*
X2853277Y-9330984D02*
X2834229Y-9340508D01*
X2834229Y-9340508D02*
X2824706Y-9350031D01*
X2824706Y-9350031D02*
X2815182Y-9369079D01*
X2815182Y-9369079D02*
X2815182Y-9416698D01*
X2815182Y-9416698D02*
X2824706Y-9435746D01*
X2824706Y-9435746D02*
X2834229Y-9445270D01*
X2834229Y-9445270D02*
X2853277Y-9454793D01*
X2853277Y-9454793D02*
X2891372Y-9454793D01*
X2891372Y-9454793D02*
X2910420Y-9445270D01*
X2910420Y-9445270D02*
X2919944Y-9435746D01*
X2919944Y-9435746D02*
X2929467Y-9416698D01*
X3110420Y-9330984D02*
X3015182Y-9330984D01*
X3015182Y-9330984D02*
X3005658Y-9426222D01*
X3005658Y-9426222D02*
X3015182Y-9416698D01*
X3015182Y-9416698D02*
X3034229Y-9407174D01*
X3034229Y-9407174D02*
X3081848Y-9407174D01*
X3081848Y-9407174D02*
X3100896Y-9416698D01*
X3100896Y-9416698D02*
X3110420Y-9426222D01*
X3110420Y-9426222D02*
X3119944Y-9445270D01*
X3119944Y-9445270D02*
X3119944Y-9492889D01*
X3119944Y-9492889D02*
X3110420Y-9511936D01*
X3110420Y-9511936D02*
X3100896Y-9521460D01*
X3100896Y-9521460D02*
X3081848Y-9530984D01*
X3081848Y-9530984D02*
X3034229Y-9530984D01*
X3034229Y-9530984D02*
X3015182Y-9521460D01*
X3015182Y-9521460D02*
X3005658Y-9511936D01*
X3196134Y-9330984D02*
X3196134Y-9369079D01*
X3272325Y-9330984D02*
X3272325Y-9369079D01*
X3567563Y-9607174D02*
X3558039Y-9597650D01*
X3558039Y-9597650D02*
X3538991Y-9569079D01*
X3538991Y-9569079D02*
X3529468Y-9550031D01*
X3529468Y-9550031D02*
X3519944Y-9521460D01*
X3519944Y-9521460D02*
X3510420Y-9473841D01*
X3510420Y-9473841D02*
X3510420Y-9435746D01*
X3510420Y-9435746D02*
X3519944Y-9388127D01*
X3519944Y-9388127D02*
X3529468Y-9359555D01*
X3529468Y-9359555D02*
X3538991Y-9340508D01*
X3538991Y-9340508D02*
X3558039Y-9311936D01*
X3558039Y-9311936D02*
X3567563Y-9302412D01*
X3672325Y-9416698D02*
X3653277Y-9407174D01*
X3653277Y-9407174D02*
X3643753Y-9397650D01*
X3643753Y-9397650D02*
X3634229Y-9378603D01*
X3634229Y-9378603D02*
X3634229Y-9369079D01*
X3634229Y-9369079D02*
X3643753Y-9350031D01*
X3643753Y-9350031D02*
X3653277Y-9340508D01*
X3653277Y-9340508D02*
X3672325Y-9330984D01*
X3672325Y-9330984D02*
X3710420Y-9330984D01*
X3710420Y-9330984D02*
X3729468Y-9340508D01*
X3729468Y-9340508D02*
X3738991Y-9350031D01*
X3738991Y-9350031D02*
X3748515Y-9369079D01*
X3748515Y-9369079D02*
X3748515Y-9378603D01*
X3748515Y-9378603D02*
X3738991Y-9397650D01*
X3738991Y-9397650D02*
X3729468Y-9407174D01*
X3729468Y-9407174D02*
X3710420Y-9416698D01*
X3710420Y-9416698D02*
X3672325Y-9416698D01*
X3672325Y-9416698D02*
X3653277Y-9426222D01*
X3653277Y-9426222D02*
X3643753Y-9435746D01*
X3643753Y-9435746D02*
X3634229Y-9454793D01*
X3634229Y-9454793D02*
X3634229Y-9492889D01*
X3634229Y-9492889D02*
X3643753Y-9511936D01*
X3643753Y-9511936D02*
X3653277Y-9521460D01*
X3653277Y-9521460D02*
X3672325Y-9530984D01*
X3672325Y-9530984D02*
X3710420Y-9530984D01*
X3710420Y-9530984D02*
X3729468Y-9521460D01*
X3729468Y-9521460D02*
X3738991Y-9511936D01*
X3738991Y-9511936D02*
X3748515Y-9492889D01*
X3748515Y-9492889D02*
X3748515Y-9454793D01*
X3748515Y-9454793D02*
X3738991Y-9435746D01*
X3738991Y-9435746D02*
X3729468Y-9426222D01*
X3729468Y-9426222D02*
X3710420Y-9416698D01*
X3986610Y-9530984D02*
X3986610Y-9330984D01*
X4072325Y-9530984D02*
X4072325Y-9426222D01*
X4072325Y-9426222D02*
X4062801Y-9407174D01*
X4062801Y-9407174D02*
X4043753Y-9397650D01*
X4043753Y-9397650D02*
X4015182Y-9397650D01*
X4015182Y-9397650D02*
X3996134Y-9407174D01*
X3996134Y-9407174D02*
X3986610Y-9416698D01*
X4196134Y-9530984D02*
X4177087Y-9521460D01*
X4177087Y-9521460D02*
X4167563Y-9511936D01*
X4167563Y-9511936D02*
X4158039Y-9492889D01*
X4158039Y-9492889D02*
X4158039Y-9435746D01*
X4158039Y-9435746D02*
X4167563Y-9416698D01*
X4167563Y-9416698D02*
X4177087Y-9407174D01*
X4177087Y-9407174D02*
X4196134Y-9397650D01*
X4196134Y-9397650D02*
X4224706Y-9397650D01*
X4224706Y-9397650D02*
X4243753Y-9407174D01*
X4243753Y-9407174D02*
X4253277Y-9416698D01*
X4253277Y-9416698D02*
X4262801Y-9435746D01*
X4262801Y-9435746D02*
X4262801Y-9492889D01*
X4262801Y-9492889D02*
X4253277Y-9511936D01*
X4253277Y-9511936D02*
X4243753Y-9521460D01*
X4243753Y-9521460D02*
X4224706Y-9530984D01*
X4224706Y-9530984D02*
X4196134Y-9530984D01*
X4377087Y-9530984D02*
X4358039Y-9521460D01*
X4358039Y-9521460D02*
X4348515Y-9502412D01*
X4348515Y-9502412D02*
X4348515Y-9330984D01*
X4529468Y-9521460D02*
X4510420Y-9530984D01*
X4510420Y-9530984D02*
X4472325Y-9530984D01*
X4472325Y-9530984D02*
X4453277Y-9521460D01*
X4453277Y-9521460D02*
X4443753Y-9502412D01*
X4443753Y-9502412D02*
X4443753Y-9426222D01*
X4443753Y-9426222D02*
X4453277Y-9407174D01*
X4453277Y-9407174D02*
X4472325Y-9397650D01*
X4472325Y-9397650D02*
X4510420Y-9397650D01*
X4510420Y-9397650D02*
X4529468Y-9407174D01*
X4529468Y-9407174D02*
X4538992Y-9426222D01*
X4538992Y-9426222D02*
X4538992Y-9445270D01*
X4538992Y-9445270D02*
X4443753Y-9464317D01*
X4615182Y-9521460D02*
X4634230Y-9530984D01*
X4634230Y-9530984D02*
X4672325Y-9530984D01*
X4672325Y-9530984D02*
X4691373Y-9521460D01*
X4691373Y-9521460D02*
X4700896Y-9502412D01*
X4700896Y-9502412D02*
X4700896Y-9492889D01*
X4700896Y-9492889D02*
X4691373Y-9473841D01*
X4691373Y-9473841D02*
X4672325Y-9464317D01*
X4672325Y-9464317D02*
X4643753Y-9464317D01*
X4643753Y-9464317D02*
X4624706Y-9454793D01*
X4624706Y-9454793D02*
X4615182Y-9435746D01*
X4615182Y-9435746D02*
X4615182Y-9426222D01*
X4615182Y-9426222D02*
X4624706Y-9407174D01*
X4624706Y-9407174D02*
X4643753Y-9397650D01*
X4643753Y-9397650D02*
X4672325Y-9397650D01*
X4672325Y-9397650D02*
X4691373Y-9407174D01*
X4767563Y-9607174D02*
X4777087Y-9597650D01*
X4777087Y-9597650D02*
X4796134Y-9569079D01*
X4796134Y-9569079D02*
X4805658Y-9550031D01*
X4805658Y-9550031D02*
X4815182Y-9521460D01*
X4815182Y-9521460D02*
X4824706Y-9473841D01*
X4824706Y-9473841D02*
X4824706Y-9435746D01*
X4824706Y-9435746D02*
X4815182Y-9388127D01*
X4815182Y-9388127D02*
X4805658Y-9359555D01*
X4805658Y-9359555D02*
X4796134Y-9340508D01*
X4796134Y-9340508D02*
X4777087Y-9311936D01*
X4777087Y-9311936D02*
X4767563Y-9302412D01*
D12*
X-55000Y-9751000D02*
X-7500Y-9703500D01*
X-55000Y-9656000D01*
X-102500Y-9703500D01*
X-55000Y-9751000D01*
D11*
X291372Y-9594984D02*
X310420Y-9594984D01*
X310420Y-9594984D02*
X329467Y-9604508D01*
X329467Y-9604508D02*
X338991Y-9614031D01*
X338991Y-9614031D02*
X348515Y-9633079D01*
X348515Y-9633079D02*
X358039Y-9671174D01*
X358039Y-9671174D02*
X358039Y-9718793D01*
X358039Y-9718793D02*
X348515Y-9756889D01*
X348515Y-9756889D02*
X338991Y-9775936D01*
X338991Y-9775936D02*
X329467Y-9785460D01*
X329467Y-9785460D02*
X310420Y-9794984D01*
X310420Y-9794984D02*
X291372Y-9794984D01*
X291372Y-9794984D02*
X272324Y-9785460D01*
X272324Y-9785460D02*
X262801Y-9775936D01*
X262801Y-9775936D02*
X253277Y-9756889D01*
X253277Y-9756889D02*
X243753Y-9718793D01*
X243753Y-9718793D02*
X243753Y-9671174D01*
X243753Y-9671174D02*
X253277Y-9633079D01*
X253277Y-9633079D02*
X262801Y-9614031D01*
X262801Y-9614031D02*
X272324Y-9604508D01*
X272324Y-9604508D02*
X291372Y-9594984D01*
X443753Y-9775936D02*
X453277Y-9785460D01*
X453277Y-9785460D02*
X443753Y-9794984D01*
X443753Y-9794984D02*
X434229Y-9785460D01*
X434229Y-9785460D02*
X443753Y-9775936D01*
X443753Y-9775936D02*
X443753Y-9794984D01*
X548515Y-9794984D02*
X586610Y-9794984D01*
X586610Y-9794984D02*
X605658Y-9785460D01*
X605658Y-9785460D02*
X615182Y-9775936D01*
X615182Y-9775936D02*
X634229Y-9747365D01*
X634229Y-9747365D02*
X643753Y-9709270D01*
X643753Y-9709270D02*
X643753Y-9633079D01*
X643753Y-9633079D02*
X634229Y-9614031D01*
X634229Y-9614031D02*
X624705Y-9604508D01*
X624705Y-9604508D02*
X605658Y-9594984D01*
X605658Y-9594984D02*
X567563Y-9594984D01*
X567563Y-9594984D02*
X548515Y-9604508D01*
X548515Y-9604508D02*
X538991Y-9614031D01*
X538991Y-9614031D02*
X529467Y-9633079D01*
X529467Y-9633079D02*
X529467Y-9680698D01*
X529467Y-9680698D02*
X538991Y-9699746D01*
X538991Y-9699746D02*
X548515Y-9709270D01*
X548515Y-9709270D02*
X567563Y-9718793D01*
X567563Y-9718793D02*
X605658Y-9718793D01*
X605658Y-9718793D02*
X624705Y-9709270D01*
X624705Y-9709270D02*
X634229Y-9699746D01*
X634229Y-9699746D02*
X643753Y-9680698D01*
X824705Y-9594984D02*
X729467Y-9594984D01*
X729467Y-9594984D02*
X719943Y-9690222D01*
X719943Y-9690222D02*
X729467Y-9680698D01*
X729467Y-9680698D02*
X748515Y-9671174D01*
X748515Y-9671174D02*
X796134Y-9671174D01*
X796134Y-9671174D02*
X815182Y-9680698D01*
X815182Y-9680698D02*
X824705Y-9690222D01*
X824705Y-9690222D02*
X834229Y-9709270D01*
X834229Y-9709270D02*
X834229Y-9756889D01*
X834229Y-9756889D02*
X824705Y-9775936D01*
X824705Y-9775936D02*
X815182Y-9785460D01*
X815182Y-9785460D02*
X796134Y-9794984D01*
X796134Y-9794984D02*
X748515Y-9794984D01*
X748515Y-9794984D02*
X729467Y-9785460D01*
X729467Y-9785460D02*
X719943Y-9775936D01*
X958039Y-9594984D02*
X977086Y-9594984D01*
X977086Y-9594984D02*
X996134Y-9604508D01*
X996134Y-9604508D02*
X1005658Y-9614031D01*
X1005658Y-9614031D02*
X1015182Y-9633079D01*
X1015182Y-9633079D02*
X1024705Y-9671174D01*
X1024705Y-9671174D02*
X1024705Y-9718793D01*
X1024705Y-9718793D02*
X1015182Y-9756889D01*
X1015182Y-9756889D02*
X1005658Y-9775936D01*
X1005658Y-9775936D02*
X996134Y-9785460D01*
X996134Y-9785460D02*
X977086Y-9794984D01*
X977086Y-9794984D02*
X958039Y-9794984D01*
X958039Y-9794984D02*
X938991Y-9785460D01*
X938991Y-9785460D02*
X929467Y-9775936D01*
X929467Y-9775936D02*
X919943Y-9756889D01*
X919943Y-9756889D02*
X910420Y-9718793D01*
X910420Y-9718793D02*
X910420Y-9671174D01*
X910420Y-9671174D02*
X919943Y-9633079D01*
X919943Y-9633079D02*
X929467Y-9614031D01*
X929467Y-9614031D02*
X938991Y-9604508D01*
X938991Y-9604508D02*
X958039Y-9594984D01*
X1110420Y-9794984D02*
X1110420Y-9661650D01*
X1110420Y-9680698D02*
X1119944Y-9671174D01*
X1119944Y-9671174D02*
X1138991Y-9661650D01*
X1138991Y-9661650D02*
X1167563Y-9661650D01*
X1167563Y-9661650D02*
X1186610Y-9671174D01*
X1186610Y-9671174D02*
X1196134Y-9690222D01*
X1196134Y-9690222D02*
X1196134Y-9794984D01*
X1196134Y-9690222D02*
X1205658Y-9671174D01*
X1205658Y-9671174D02*
X1224705Y-9661650D01*
X1224705Y-9661650D02*
X1253277Y-9661650D01*
X1253277Y-9661650D02*
X1272325Y-9671174D01*
X1272325Y-9671174D02*
X1281848Y-9690222D01*
X1281848Y-9690222D02*
X1281848Y-9794984D01*
X1377086Y-9794984D02*
X1377086Y-9661650D01*
X1377086Y-9680698D02*
X1386610Y-9671174D01*
X1386610Y-9671174D02*
X1405658Y-9661650D01*
X1405658Y-9661650D02*
X1434229Y-9661650D01*
X1434229Y-9661650D02*
X1453277Y-9671174D01*
X1453277Y-9671174D02*
X1462801Y-9690222D01*
X1462801Y-9690222D02*
X1462801Y-9794984D01*
X1462801Y-9690222D02*
X1472324Y-9671174D01*
X1472324Y-9671174D02*
X1491372Y-9661650D01*
X1491372Y-9661650D02*
X1519943Y-9661650D01*
X1519943Y-9661650D02*
X1538991Y-9671174D01*
X1538991Y-9671174D02*
X1548515Y-9690222D01*
X1548515Y-9690222D02*
X1548515Y-9794984D01*
X1938991Y-9585460D02*
X1767563Y-9842603D01*
X2196134Y-9594984D02*
X2215182Y-9594984D01*
X2215182Y-9594984D02*
X2234229Y-9604508D01*
X2234229Y-9604508D02*
X2243753Y-9614031D01*
X2243753Y-9614031D02*
X2253277Y-9633079D01*
X2253277Y-9633079D02*
X2262801Y-9671174D01*
X2262801Y-9671174D02*
X2262801Y-9718793D01*
X2262801Y-9718793D02*
X2253277Y-9756889D01*
X2253277Y-9756889D02*
X2243753Y-9775936D01*
X2243753Y-9775936D02*
X2234229Y-9785460D01*
X2234229Y-9785460D02*
X2215182Y-9794984D01*
X2215182Y-9794984D02*
X2196134Y-9794984D01*
X2196134Y-9794984D02*
X2177087Y-9785460D01*
X2177087Y-9785460D02*
X2167563Y-9775936D01*
X2167563Y-9775936D02*
X2158039Y-9756889D01*
X2158039Y-9756889D02*
X2148515Y-9718793D01*
X2148515Y-9718793D02*
X2148515Y-9671174D01*
X2148515Y-9671174D02*
X2158039Y-9633079D01*
X2158039Y-9633079D02*
X2167563Y-9614031D01*
X2167563Y-9614031D02*
X2177087Y-9604508D01*
X2177087Y-9604508D02*
X2196134Y-9594984D01*
X2348515Y-9775936D02*
X2358039Y-9785460D01*
X2358039Y-9785460D02*
X2348515Y-9794984D01*
X2348515Y-9794984D02*
X2338991Y-9785460D01*
X2338991Y-9785460D02*
X2348515Y-9775936D01*
X2348515Y-9775936D02*
X2348515Y-9794984D01*
X2481848Y-9594984D02*
X2500896Y-9594984D01*
X2500896Y-9594984D02*
X2519944Y-9604508D01*
X2519944Y-9604508D02*
X2529468Y-9614031D01*
X2529468Y-9614031D02*
X2538991Y-9633079D01*
X2538991Y-9633079D02*
X2548515Y-9671174D01*
X2548515Y-9671174D02*
X2548515Y-9718793D01*
X2548515Y-9718793D02*
X2538991Y-9756889D01*
X2538991Y-9756889D02*
X2529468Y-9775936D01*
X2529468Y-9775936D02*
X2519944Y-9785460D01*
X2519944Y-9785460D02*
X2500896Y-9794984D01*
X2500896Y-9794984D02*
X2481848Y-9794984D01*
X2481848Y-9794984D02*
X2462801Y-9785460D01*
X2462801Y-9785460D02*
X2453277Y-9775936D01*
X2453277Y-9775936D02*
X2443753Y-9756889D01*
X2443753Y-9756889D02*
X2434229Y-9718793D01*
X2434229Y-9718793D02*
X2434229Y-9671174D01*
X2434229Y-9671174D02*
X2443753Y-9633079D01*
X2443753Y-9633079D02*
X2453277Y-9614031D01*
X2453277Y-9614031D02*
X2462801Y-9604508D01*
X2462801Y-9604508D02*
X2481848Y-9594984D01*
X2615182Y-9594984D02*
X2738991Y-9594984D01*
X2738991Y-9594984D02*
X2672325Y-9671174D01*
X2672325Y-9671174D02*
X2700896Y-9671174D01*
X2700896Y-9671174D02*
X2719944Y-9680698D01*
X2719944Y-9680698D02*
X2729468Y-9690222D01*
X2729468Y-9690222D02*
X2738991Y-9709270D01*
X2738991Y-9709270D02*
X2738991Y-9756889D01*
X2738991Y-9756889D02*
X2729468Y-9775936D01*
X2729468Y-9775936D02*
X2719944Y-9785460D01*
X2719944Y-9785460D02*
X2700896Y-9794984D01*
X2700896Y-9794984D02*
X2643753Y-9794984D01*
X2643753Y-9794984D02*
X2624706Y-9785460D01*
X2624706Y-9785460D02*
X2615182Y-9775936D01*
X2805658Y-9594984D02*
X2938991Y-9594984D01*
X2938991Y-9594984D02*
X2853277Y-9794984D01*
X3100896Y-9661650D02*
X3100896Y-9794984D01*
X3053277Y-9585460D02*
X3005658Y-9728317D01*
X3005658Y-9728317D02*
X3129467Y-9728317D01*
X3196134Y-9594984D02*
X3196134Y-9633079D01*
X3272325Y-9594984D02*
X3272325Y-9633079D01*
X3567563Y-9871174D02*
X3558039Y-9861650D01*
X3558039Y-9861650D02*
X3538991Y-9833079D01*
X3538991Y-9833079D02*
X3529468Y-9814031D01*
X3529468Y-9814031D02*
X3519944Y-9785460D01*
X3519944Y-9785460D02*
X3510420Y-9737841D01*
X3510420Y-9737841D02*
X3510420Y-9699746D01*
X3510420Y-9699746D02*
X3519944Y-9652127D01*
X3519944Y-9652127D02*
X3529468Y-9623555D01*
X3529468Y-9623555D02*
X3538991Y-9604508D01*
X3538991Y-9604508D02*
X3558039Y-9575936D01*
X3558039Y-9575936D02*
X3567563Y-9566412D01*
X3748515Y-9794984D02*
X3634229Y-9794984D01*
X3691372Y-9794984D02*
X3691372Y-9594984D01*
X3691372Y-9594984D02*
X3672325Y-9623555D01*
X3672325Y-9623555D02*
X3653277Y-9642603D01*
X3653277Y-9642603D02*
X3634229Y-9652127D01*
X3872325Y-9594984D02*
X3891372Y-9594984D01*
X3891372Y-9594984D02*
X3910420Y-9604508D01*
X3910420Y-9604508D02*
X3919944Y-9614031D01*
X3919944Y-9614031D02*
X3929468Y-9633079D01*
X3929468Y-9633079D02*
X3938991Y-9671174D01*
X3938991Y-9671174D02*
X3938991Y-9718793D01*
X3938991Y-9718793D02*
X3929468Y-9756889D01*
X3929468Y-9756889D02*
X3919944Y-9775936D01*
X3919944Y-9775936D02*
X3910420Y-9785460D01*
X3910420Y-9785460D02*
X3891372Y-9794984D01*
X3891372Y-9794984D02*
X3872325Y-9794984D01*
X3872325Y-9794984D02*
X3853277Y-9785460D01*
X3853277Y-9785460D02*
X3843753Y-9775936D01*
X3843753Y-9775936D02*
X3834229Y-9756889D01*
X3834229Y-9756889D02*
X3824706Y-9718793D01*
X3824706Y-9718793D02*
X3824706Y-9671174D01*
X3824706Y-9671174D02*
X3834229Y-9633079D01*
X3834229Y-9633079D02*
X3843753Y-9614031D01*
X3843753Y-9614031D02*
X3853277Y-9604508D01*
X3853277Y-9604508D02*
X3872325Y-9594984D01*
X4177087Y-9794984D02*
X4177087Y-9594984D01*
X4262801Y-9794984D02*
X4262801Y-9690222D01*
X4262801Y-9690222D02*
X4253277Y-9671174D01*
X4253277Y-9671174D02*
X4234230Y-9661650D01*
X4234230Y-9661650D02*
X4205658Y-9661650D01*
X4205658Y-9661650D02*
X4186610Y-9671174D01*
X4186610Y-9671174D02*
X4177087Y-9680698D01*
X4386611Y-9794984D02*
X4367563Y-9785460D01*
X4367563Y-9785460D02*
X4358039Y-9775936D01*
X4358039Y-9775936D02*
X4348515Y-9756889D01*
X4348515Y-9756889D02*
X4348515Y-9699746D01*
X4348515Y-9699746D02*
X4358039Y-9680698D01*
X4358039Y-9680698D02*
X4367563Y-9671174D01*
X4367563Y-9671174D02*
X4386611Y-9661650D01*
X4386611Y-9661650D02*
X4415182Y-9661650D01*
X4415182Y-9661650D02*
X4434230Y-9671174D01*
X4434230Y-9671174D02*
X4443753Y-9680698D01*
X4443753Y-9680698D02*
X4453277Y-9699746D01*
X4453277Y-9699746D02*
X4453277Y-9756889D01*
X4453277Y-9756889D02*
X4443753Y-9775936D01*
X4443753Y-9775936D02*
X4434230Y-9785460D01*
X4434230Y-9785460D02*
X4415182Y-9794984D01*
X4415182Y-9794984D02*
X4386611Y-9794984D01*
X4567563Y-9794984D02*
X4548515Y-9785460D01*
X4548515Y-9785460D02*
X4538992Y-9766412D01*
X4538992Y-9766412D02*
X4538992Y-9594984D01*
X4719944Y-9785460D02*
X4700896Y-9794984D01*
X4700896Y-9794984D02*
X4662801Y-9794984D01*
X4662801Y-9794984D02*
X4643753Y-9785460D01*
X4643753Y-9785460D02*
X4634230Y-9766412D01*
X4634230Y-9766412D02*
X4634230Y-9690222D01*
X4634230Y-9690222D02*
X4643753Y-9671174D01*
X4643753Y-9671174D02*
X4662801Y-9661650D01*
X4662801Y-9661650D02*
X4700896Y-9661650D01*
X4700896Y-9661650D02*
X4719944Y-9671174D01*
X4719944Y-9671174D02*
X4729468Y-9690222D01*
X4729468Y-9690222D02*
X4729468Y-9709270D01*
X4729468Y-9709270D02*
X4634230Y-9728317D01*
X4805658Y-9785460D02*
X4824706Y-9794984D01*
X4824706Y-9794984D02*
X4862801Y-9794984D01*
X4862801Y-9794984D02*
X4881849Y-9785460D01*
X4881849Y-9785460D02*
X4891373Y-9766412D01*
X4891373Y-9766412D02*
X4891373Y-9756889D01*
X4891373Y-9756889D02*
X4881849Y-9737841D01*
X4881849Y-9737841D02*
X4862801Y-9728317D01*
X4862801Y-9728317D02*
X4834230Y-9728317D01*
X4834230Y-9728317D02*
X4815182Y-9718793D01*
X4815182Y-9718793D02*
X4805658Y-9699746D01*
X4805658Y-9699746D02*
X4805658Y-9690222D01*
X4805658Y-9690222D02*
X4815182Y-9671174D01*
X4815182Y-9671174D02*
X4834230Y-9661650D01*
X4834230Y-9661650D02*
X4862801Y-9661650D01*
X4862801Y-9661650D02*
X4881849Y-9671174D01*
X4958039Y-9871174D02*
X4967563Y-9861650D01*
X4967563Y-9861650D02*
X4986611Y-9833079D01*
X4986611Y-9833079D02*
X4996134Y-9814031D01*
X4996134Y-9814031D02*
X5005658Y-9785460D01*
X5005658Y-9785460D02*
X5015182Y-9737841D01*
X5015182Y-9737841D02*
X5015182Y-9699746D01*
X5015182Y-9699746D02*
X5005658Y-9652127D01*
X5005658Y-9652127D02*
X4996134Y-9623555D01*
X4996134Y-9623555D02*
X4986611Y-9604508D01*
X4986611Y-9604508D02*
X4967563Y-9575936D01*
X4967563Y-9575936D02*
X4958039Y-9566412D01*
D12*
X-107500Y-9917500D02*
X-7500Y-10017500D01*
X-7500Y-9917500D02*
X-107500Y-10017500D01*
X-7500Y-9967500D02*
G75*
G03*
X-107500Y-9967500I-50000J0D01*
G01*
X-107500Y-9967500D02*
G75*
G03*
X-7500Y-9967500I50000J0D01*
G01*
D11*
X358039Y-10058984D02*
X243753Y-10058984D01*
X300896Y-10058984D02*
X300896Y-9858984D01*
X300896Y-9858984D02*
X281848Y-9887555D01*
X281848Y-9887555D02*
X262801Y-9906603D01*
X262801Y-9906603D02*
X243753Y-9916127D01*
X443753Y-10039936D02*
X453277Y-10049460D01*
X453277Y-10049460D02*
X443753Y-10058984D01*
X443753Y-10058984D02*
X434229Y-10049460D01*
X434229Y-10049460D02*
X443753Y-10039936D01*
X443753Y-10039936D02*
X443753Y-10058984D01*
X577086Y-9858984D02*
X596134Y-9858984D01*
X596134Y-9858984D02*
X615182Y-9868508D01*
X615182Y-9868508D02*
X624705Y-9878031D01*
X624705Y-9878031D02*
X634229Y-9897079D01*
X634229Y-9897079D02*
X643753Y-9935174D01*
X643753Y-9935174D02*
X643753Y-9982793D01*
X643753Y-9982793D02*
X634229Y-10020889D01*
X634229Y-10020889D02*
X624705Y-10039936D01*
X624705Y-10039936D02*
X615182Y-10049460D01*
X615182Y-10049460D02*
X596134Y-10058984D01*
X596134Y-10058984D02*
X577086Y-10058984D01*
X577086Y-10058984D02*
X558039Y-10049460D01*
X558039Y-10049460D02*
X548515Y-10039936D01*
X548515Y-10039936D02*
X538991Y-10020889D01*
X538991Y-10020889D02*
X529467Y-9982793D01*
X529467Y-9982793D02*
X529467Y-9935174D01*
X529467Y-9935174D02*
X538991Y-9897079D01*
X538991Y-9897079D02*
X548515Y-9878031D01*
X548515Y-9878031D02*
X558039Y-9868508D01*
X558039Y-9868508D02*
X577086Y-9858984D01*
X767562Y-9858984D02*
X786610Y-9858984D01*
X786610Y-9858984D02*
X805658Y-9868508D01*
X805658Y-9868508D02*
X815182Y-9878031D01*
X815182Y-9878031D02*
X824705Y-9897079D01*
X824705Y-9897079D02*
X834229Y-9935174D01*
X834229Y-9935174D02*
X834229Y-9982793D01*
X834229Y-9982793D02*
X824705Y-10020889D01*
X824705Y-10020889D02*
X815182Y-10039936D01*
X815182Y-10039936D02*
X805658Y-10049460D01*
X805658Y-10049460D02*
X786610Y-10058984D01*
X786610Y-10058984D02*
X767562Y-10058984D01*
X767562Y-10058984D02*
X748515Y-10049460D01*
X748515Y-10049460D02*
X738991Y-10039936D01*
X738991Y-10039936D02*
X729467Y-10020889D01*
X729467Y-10020889D02*
X719943Y-9982793D01*
X719943Y-9982793D02*
X719943Y-9935174D01*
X719943Y-9935174D02*
X729467Y-9897079D01*
X729467Y-9897079D02*
X738991Y-9878031D01*
X738991Y-9878031D02*
X748515Y-9868508D01*
X748515Y-9868508D02*
X767562Y-9858984D01*
X958039Y-9858984D02*
X977086Y-9858984D01*
X977086Y-9858984D02*
X996134Y-9868508D01*
X996134Y-9868508D02*
X1005658Y-9878031D01*
X1005658Y-9878031D02*
X1015182Y-9897079D01*
X1015182Y-9897079D02*
X1024705Y-9935174D01*
X1024705Y-9935174D02*
X1024705Y-9982793D01*
X1024705Y-9982793D02*
X1015182Y-10020889D01*
X1015182Y-10020889D02*
X1005658Y-10039936D01*
X1005658Y-10039936D02*
X996134Y-10049460D01*
X996134Y-10049460D02*
X977086Y-10058984D01*
X977086Y-10058984D02*
X958039Y-10058984D01*
X958039Y-10058984D02*
X938991Y-10049460D01*
X938991Y-10049460D02*
X929467Y-10039936D01*
X929467Y-10039936D02*
X919943Y-10020889D01*
X919943Y-10020889D02*
X910420Y-9982793D01*
X910420Y-9982793D02*
X910420Y-9935174D01*
X910420Y-9935174D02*
X919943Y-9897079D01*
X919943Y-9897079D02*
X929467Y-9878031D01*
X929467Y-9878031D02*
X938991Y-9868508D01*
X938991Y-9868508D02*
X958039Y-9858984D01*
X1110420Y-10058984D02*
X1110420Y-9925650D01*
X1110420Y-9944698D02*
X1119944Y-9935174D01*
X1119944Y-9935174D02*
X1138991Y-9925650D01*
X1138991Y-9925650D02*
X1167563Y-9925650D01*
X1167563Y-9925650D02*
X1186610Y-9935174D01*
X1186610Y-9935174D02*
X1196134Y-9954222D01*
X1196134Y-9954222D02*
X1196134Y-10058984D01*
X1196134Y-9954222D02*
X1205658Y-9935174D01*
X1205658Y-9935174D02*
X1224705Y-9925650D01*
X1224705Y-9925650D02*
X1253277Y-9925650D01*
X1253277Y-9925650D02*
X1272325Y-9935174D01*
X1272325Y-9935174D02*
X1281848Y-9954222D01*
X1281848Y-9954222D02*
X1281848Y-10058984D01*
X1377086Y-10058984D02*
X1377086Y-9925650D01*
X1377086Y-9944698D02*
X1386610Y-9935174D01*
X1386610Y-9935174D02*
X1405658Y-9925650D01*
X1405658Y-9925650D02*
X1434229Y-9925650D01*
X1434229Y-9925650D02*
X1453277Y-9935174D01*
X1453277Y-9935174D02*
X1462801Y-9954222D01*
X1462801Y-9954222D02*
X1462801Y-10058984D01*
X1462801Y-9954222D02*
X1472324Y-9935174D01*
X1472324Y-9935174D02*
X1491372Y-9925650D01*
X1491372Y-9925650D02*
X1519943Y-9925650D01*
X1519943Y-9925650D02*
X1538991Y-9935174D01*
X1538991Y-9935174D02*
X1548515Y-9954222D01*
X1548515Y-9954222D02*
X1548515Y-10058984D01*
X1938991Y-9849460D02*
X1767563Y-10106603D01*
X2196134Y-9858984D02*
X2215182Y-9858984D01*
X2215182Y-9858984D02*
X2234229Y-9868508D01*
X2234229Y-9868508D02*
X2243753Y-9878031D01*
X2243753Y-9878031D02*
X2253277Y-9897079D01*
X2253277Y-9897079D02*
X2262801Y-9935174D01*
X2262801Y-9935174D02*
X2262801Y-9982793D01*
X2262801Y-9982793D02*
X2253277Y-10020889D01*
X2253277Y-10020889D02*
X2243753Y-10039936D01*
X2243753Y-10039936D02*
X2234229Y-10049460D01*
X2234229Y-10049460D02*
X2215182Y-10058984D01*
X2215182Y-10058984D02*
X2196134Y-10058984D01*
X2196134Y-10058984D02*
X2177087Y-10049460D01*
X2177087Y-10049460D02*
X2167563Y-10039936D01*
X2167563Y-10039936D02*
X2158039Y-10020889D01*
X2158039Y-10020889D02*
X2148515Y-9982793D01*
X2148515Y-9982793D02*
X2148515Y-9935174D01*
X2148515Y-9935174D02*
X2158039Y-9897079D01*
X2158039Y-9897079D02*
X2167563Y-9878031D01*
X2167563Y-9878031D02*
X2177087Y-9868508D01*
X2177087Y-9868508D02*
X2196134Y-9858984D01*
X2348515Y-10039936D02*
X2358039Y-10049460D01*
X2358039Y-10049460D02*
X2348515Y-10058984D01*
X2348515Y-10058984D02*
X2338991Y-10049460D01*
X2338991Y-10049460D02*
X2348515Y-10039936D01*
X2348515Y-10039936D02*
X2348515Y-10058984D01*
X2481848Y-9858984D02*
X2500896Y-9858984D01*
X2500896Y-9858984D02*
X2519944Y-9868508D01*
X2519944Y-9868508D02*
X2529468Y-9878031D01*
X2529468Y-9878031D02*
X2538991Y-9897079D01*
X2538991Y-9897079D02*
X2548515Y-9935174D01*
X2548515Y-9935174D02*
X2548515Y-9982793D01*
X2548515Y-9982793D02*
X2538991Y-10020889D01*
X2538991Y-10020889D02*
X2529468Y-10039936D01*
X2529468Y-10039936D02*
X2519944Y-10049460D01*
X2519944Y-10049460D02*
X2500896Y-10058984D01*
X2500896Y-10058984D02*
X2481848Y-10058984D01*
X2481848Y-10058984D02*
X2462801Y-10049460D01*
X2462801Y-10049460D02*
X2453277Y-10039936D01*
X2453277Y-10039936D02*
X2443753Y-10020889D01*
X2443753Y-10020889D02*
X2434229Y-9982793D01*
X2434229Y-9982793D02*
X2434229Y-9935174D01*
X2434229Y-9935174D02*
X2443753Y-9897079D01*
X2443753Y-9897079D02*
X2453277Y-9878031D01*
X2453277Y-9878031D02*
X2462801Y-9868508D01*
X2462801Y-9868508D02*
X2481848Y-9858984D01*
X2615182Y-9858984D02*
X2738991Y-9858984D01*
X2738991Y-9858984D02*
X2672325Y-9935174D01*
X2672325Y-9935174D02*
X2700896Y-9935174D01*
X2700896Y-9935174D02*
X2719944Y-9944698D01*
X2719944Y-9944698D02*
X2729468Y-9954222D01*
X2729468Y-9954222D02*
X2738991Y-9973270D01*
X2738991Y-9973270D02*
X2738991Y-10020889D01*
X2738991Y-10020889D02*
X2729468Y-10039936D01*
X2729468Y-10039936D02*
X2719944Y-10049460D01*
X2719944Y-10049460D02*
X2700896Y-10058984D01*
X2700896Y-10058984D02*
X2643753Y-10058984D01*
X2643753Y-10058984D02*
X2624706Y-10049460D01*
X2624706Y-10049460D02*
X2615182Y-10039936D01*
X2834229Y-10058984D02*
X2872325Y-10058984D01*
X2872325Y-10058984D02*
X2891372Y-10049460D01*
X2891372Y-10049460D02*
X2900896Y-10039936D01*
X2900896Y-10039936D02*
X2919944Y-10011365D01*
X2919944Y-10011365D02*
X2929467Y-9973270D01*
X2929467Y-9973270D02*
X2929467Y-9897079D01*
X2929467Y-9897079D02*
X2919944Y-9878031D01*
X2919944Y-9878031D02*
X2910420Y-9868508D01*
X2910420Y-9868508D02*
X2891372Y-9858984D01*
X2891372Y-9858984D02*
X2853277Y-9858984D01*
X2853277Y-9858984D02*
X2834229Y-9868508D01*
X2834229Y-9868508D02*
X2824706Y-9878031D01*
X2824706Y-9878031D02*
X2815182Y-9897079D01*
X2815182Y-9897079D02*
X2815182Y-9944698D01*
X2815182Y-9944698D02*
X2824706Y-9963746D01*
X2824706Y-9963746D02*
X2834229Y-9973270D01*
X2834229Y-9973270D02*
X2853277Y-9982793D01*
X2853277Y-9982793D02*
X2891372Y-9982793D01*
X2891372Y-9982793D02*
X2910420Y-9973270D01*
X2910420Y-9973270D02*
X2919944Y-9963746D01*
X2919944Y-9963746D02*
X2929467Y-9944698D01*
X3100896Y-9925650D02*
X3100896Y-10058984D01*
X3053277Y-9849460D02*
X3005658Y-9992317D01*
X3005658Y-9992317D02*
X3129467Y-9992317D01*
X3196134Y-9858984D02*
X3196134Y-9897079D01*
X3272325Y-9858984D02*
X3272325Y-9897079D01*
X3567563Y-10135174D02*
X3558039Y-10125650D01*
X3558039Y-10125650D02*
X3538991Y-10097079D01*
X3538991Y-10097079D02*
X3529468Y-10078031D01*
X3529468Y-10078031D02*
X3519944Y-10049460D01*
X3519944Y-10049460D02*
X3510420Y-10001841D01*
X3510420Y-10001841D02*
X3510420Y-9963746D01*
X3510420Y-9963746D02*
X3519944Y-9916127D01*
X3519944Y-9916127D02*
X3529468Y-9887555D01*
X3529468Y-9887555D02*
X3538991Y-9868508D01*
X3538991Y-9868508D02*
X3558039Y-9839936D01*
X3558039Y-9839936D02*
X3567563Y-9830412D01*
X3634229Y-9878031D02*
X3643753Y-9868508D01*
X3643753Y-9868508D02*
X3662801Y-9858984D01*
X3662801Y-9858984D02*
X3710420Y-9858984D01*
X3710420Y-9858984D02*
X3729468Y-9868508D01*
X3729468Y-9868508D02*
X3738991Y-9878031D01*
X3738991Y-9878031D02*
X3748515Y-9897079D01*
X3748515Y-9897079D02*
X3748515Y-9916127D01*
X3748515Y-9916127D02*
X3738991Y-9944698D01*
X3738991Y-9944698D02*
X3624706Y-10058984D01*
X3624706Y-10058984D02*
X3748515Y-10058984D01*
X3919944Y-9858984D02*
X3881848Y-9858984D01*
X3881848Y-9858984D02*
X3862801Y-9868508D01*
X3862801Y-9868508D02*
X3853277Y-9878031D01*
X3853277Y-9878031D02*
X3834229Y-9906603D01*
X3834229Y-9906603D02*
X3824706Y-9944698D01*
X3824706Y-9944698D02*
X3824706Y-10020889D01*
X3824706Y-10020889D02*
X3834229Y-10039936D01*
X3834229Y-10039936D02*
X3843753Y-10049460D01*
X3843753Y-10049460D02*
X3862801Y-10058984D01*
X3862801Y-10058984D02*
X3900896Y-10058984D01*
X3900896Y-10058984D02*
X3919944Y-10049460D01*
X3919944Y-10049460D02*
X3929468Y-10039936D01*
X3929468Y-10039936D02*
X3938991Y-10020889D01*
X3938991Y-10020889D02*
X3938991Y-9973270D01*
X3938991Y-9973270D02*
X3929468Y-9954222D01*
X3929468Y-9954222D02*
X3919944Y-9944698D01*
X3919944Y-9944698D02*
X3900896Y-9935174D01*
X3900896Y-9935174D02*
X3862801Y-9935174D01*
X3862801Y-9935174D02*
X3843753Y-9944698D01*
X3843753Y-9944698D02*
X3834229Y-9954222D01*
X3834229Y-9954222D02*
X3824706Y-9973270D01*
X4177087Y-10058984D02*
X4177087Y-9858984D01*
X4262801Y-10058984D02*
X4262801Y-9954222D01*
X4262801Y-9954222D02*
X4253277Y-9935174D01*
X4253277Y-9935174D02*
X4234230Y-9925650D01*
X4234230Y-9925650D02*
X4205658Y-9925650D01*
X4205658Y-9925650D02*
X4186610Y-9935174D01*
X4186610Y-9935174D02*
X4177087Y-9944698D01*
X4386611Y-10058984D02*
X4367563Y-10049460D01*
X4367563Y-10049460D02*
X4358039Y-10039936D01*
X4358039Y-10039936D02*
X4348515Y-10020889D01*
X4348515Y-10020889D02*
X4348515Y-9963746D01*
X4348515Y-9963746D02*
X4358039Y-9944698D01*
X4358039Y-9944698D02*
X4367563Y-9935174D01*
X4367563Y-9935174D02*
X4386611Y-9925650D01*
X4386611Y-9925650D02*
X4415182Y-9925650D01*
X4415182Y-9925650D02*
X4434230Y-9935174D01*
X4434230Y-9935174D02*
X4443753Y-9944698D01*
X4443753Y-9944698D02*
X4453277Y-9963746D01*
X4453277Y-9963746D02*
X4453277Y-10020889D01*
X4453277Y-10020889D02*
X4443753Y-10039936D01*
X4443753Y-10039936D02*
X4434230Y-10049460D01*
X4434230Y-10049460D02*
X4415182Y-10058984D01*
X4415182Y-10058984D02*
X4386611Y-10058984D01*
X4567563Y-10058984D02*
X4548515Y-10049460D01*
X4548515Y-10049460D02*
X4538992Y-10030412D01*
X4538992Y-10030412D02*
X4538992Y-9858984D01*
X4719944Y-10049460D02*
X4700896Y-10058984D01*
X4700896Y-10058984D02*
X4662801Y-10058984D01*
X4662801Y-10058984D02*
X4643753Y-10049460D01*
X4643753Y-10049460D02*
X4634230Y-10030412D01*
X4634230Y-10030412D02*
X4634230Y-9954222D01*
X4634230Y-9954222D02*
X4643753Y-9935174D01*
X4643753Y-9935174D02*
X4662801Y-9925650D01*
X4662801Y-9925650D02*
X4700896Y-9925650D01*
X4700896Y-9925650D02*
X4719944Y-9935174D01*
X4719944Y-9935174D02*
X4729468Y-9954222D01*
X4729468Y-9954222D02*
X4729468Y-9973270D01*
X4729468Y-9973270D02*
X4634230Y-9992317D01*
X4805658Y-10049460D02*
X4824706Y-10058984D01*
X4824706Y-10058984D02*
X4862801Y-10058984D01*
X4862801Y-10058984D02*
X4881849Y-10049460D01*
X4881849Y-10049460D02*
X4891373Y-10030412D01*
X4891373Y-10030412D02*
X4891373Y-10020889D01*
X4891373Y-10020889D02*
X4881849Y-10001841D01*
X4881849Y-10001841D02*
X4862801Y-9992317D01*
X4862801Y-9992317D02*
X4834230Y-9992317D01*
X4834230Y-9992317D02*
X4815182Y-9982793D01*
X4815182Y-9982793D02*
X4805658Y-9963746D01*
X4805658Y-9963746D02*
X4805658Y-9954222D01*
X4805658Y-9954222D02*
X4815182Y-9935174D01*
X4815182Y-9935174D02*
X4834230Y-9925650D01*
X4834230Y-9925650D02*
X4862801Y-9925650D01*
X4862801Y-9925650D02*
X4881849Y-9935174D01*
X4958039Y-10135174D02*
X4967563Y-10125650D01*
X4967563Y-10125650D02*
X4986611Y-10097079D01*
X4986611Y-10097079D02*
X4996134Y-10078031D01*
X4996134Y-10078031D02*
X5005658Y-10049460D01*
X5005658Y-10049460D02*
X5015182Y-10001841D01*
X5015182Y-10001841D02*
X5015182Y-9963746D01*
X5015182Y-9963746D02*
X5005658Y-9916127D01*
X5005658Y-9916127D02*
X4996134Y-9887555D01*
X4996134Y-9887555D02*
X4986611Y-9868508D01*
X4986611Y-9868508D02*
X4967563Y-9839936D01*
X4967563Y-9839936D02*
X4958039Y-9830412D01*
D13*
X-137500Y-10166500D02*
X-7500Y-10296500D01*
X-7500Y-10166500D02*
X-137500Y-10296500D01*
X-72500Y-10166500D02*
X-72500Y-10296500D01*
X-137500Y-10231500D02*
X-7500Y-10231500D01*
D11*
X358039Y-10322984D02*
X243753Y-10322984D01*
X300896Y-10322984D02*
X300896Y-10122984D01*
X300896Y-10122984D02*
X281848Y-10151555D01*
X281848Y-10151555D02*
X262801Y-10170603D01*
X262801Y-10170603D02*
X243753Y-10180127D01*
X443753Y-10303936D02*
X453277Y-10313460D01*
X453277Y-10313460D02*
X443753Y-10322984D01*
X443753Y-10322984D02*
X434229Y-10313460D01*
X434229Y-10313460D02*
X443753Y-10303936D01*
X443753Y-10303936D02*
X443753Y-10322984D01*
X519943Y-10122984D02*
X643753Y-10122984D01*
X643753Y-10122984D02*
X577086Y-10199174D01*
X577086Y-10199174D02*
X605658Y-10199174D01*
X605658Y-10199174D02*
X624705Y-10208698D01*
X624705Y-10208698D02*
X634229Y-10218222D01*
X634229Y-10218222D02*
X643753Y-10237270D01*
X643753Y-10237270D02*
X643753Y-10284889D01*
X643753Y-10284889D02*
X634229Y-10303936D01*
X634229Y-10303936D02*
X624705Y-10313460D01*
X624705Y-10313460D02*
X605658Y-10322984D01*
X605658Y-10322984D02*
X548515Y-10322984D01*
X548515Y-10322984D02*
X529467Y-10313460D01*
X529467Y-10313460D02*
X519943Y-10303936D01*
X767562Y-10122984D02*
X786610Y-10122984D01*
X786610Y-10122984D02*
X805658Y-10132508D01*
X805658Y-10132508D02*
X815182Y-10142031D01*
X815182Y-10142031D02*
X824705Y-10161079D01*
X824705Y-10161079D02*
X834229Y-10199174D01*
X834229Y-10199174D02*
X834229Y-10246793D01*
X834229Y-10246793D02*
X824705Y-10284889D01*
X824705Y-10284889D02*
X815182Y-10303936D01*
X815182Y-10303936D02*
X805658Y-10313460D01*
X805658Y-10313460D02*
X786610Y-10322984D01*
X786610Y-10322984D02*
X767562Y-10322984D01*
X767562Y-10322984D02*
X748515Y-10313460D01*
X748515Y-10313460D02*
X738991Y-10303936D01*
X738991Y-10303936D02*
X729467Y-10284889D01*
X729467Y-10284889D02*
X719943Y-10246793D01*
X719943Y-10246793D02*
X719943Y-10199174D01*
X719943Y-10199174D02*
X729467Y-10161079D01*
X729467Y-10161079D02*
X738991Y-10142031D01*
X738991Y-10142031D02*
X748515Y-10132508D01*
X748515Y-10132508D02*
X767562Y-10122984D01*
X958039Y-10122984D02*
X977086Y-10122984D01*
X977086Y-10122984D02*
X996134Y-10132508D01*
X996134Y-10132508D02*
X1005658Y-10142031D01*
X1005658Y-10142031D02*
X1015182Y-10161079D01*
X1015182Y-10161079D02*
X1024705Y-10199174D01*
X1024705Y-10199174D02*
X1024705Y-10246793D01*
X1024705Y-10246793D02*
X1015182Y-10284889D01*
X1015182Y-10284889D02*
X1005658Y-10303936D01*
X1005658Y-10303936D02*
X996134Y-10313460D01*
X996134Y-10313460D02*
X977086Y-10322984D01*
X977086Y-10322984D02*
X958039Y-10322984D01*
X958039Y-10322984D02*
X938991Y-10313460D01*
X938991Y-10313460D02*
X929467Y-10303936D01*
X929467Y-10303936D02*
X919943Y-10284889D01*
X919943Y-10284889D02*
X910420Y-10246793D01*
X910420Y-10246793D02*
X910420Y-10199174D01*
X910420Y-10199174D02*
X919943Y-10161079D01*
X919943Y-10161079D02*
X929467Y-10142031D01*
X929467Y-10142031D02*
X938991Y-10132508D01*
X938991Y-10132508D02*
X958039Y-10122984D01*
X1110420Y-10322984D02*
X1110420Y-10189650D01*
X1110420Y-10208698D02*
X1119944Y-10199174D01*
X1119944Y-10199174D02*
X1138991Y-10189650D01*
X1138991Y-10189650D02*
X1167563Y-10189650D01*
X1167563Y-10189650D02*
X1186610Y-10199174D01*
X1186610Y-10199174D02*
X1196134Y-10218222D01*
X1196134Y-10218222D02*
X1196134Y-10322984D01*
X1196134Y-10218222D02*
X1205658Y-10199174D01*
X1205658Y-10199174D02*
X1224705Y-10189650D01*
X1224705Y-10189650D02*
X1253277Y-10189650D01*
X1253277Y-10189650D02*
X1272325Y-10199174D01*
X1272325Y-10199174D02*
X1281848Y-10218222D01*
X1281848Y-10218222D02*
X1281848Y-10322984D01*
X1377086Y-10322984D02*
X1377086Y-10189650D01*
X1377086Y-10208698D02*
X1386610Y-10199174D01*
X1386610Y-10199174D02*
X1405658Y-10189650D01*
X1405658Y-10189650D02*
X1434229Y-10189650D01*
X1434229Y-10189650D02*
X1453277Y-10199174D01*
X1453277Y-10199174D02*
X1462801Y-10218222D01*
X1462801Y-10218222D02*
X1462801Y-10322984D01*
X1462801Y-10218222D02*
X1472324Y-10199174D01*
X1472324Y-10199174D02*
X1491372Y-10189650D01*
X1491372Y-10189650D02*
X1519943Y-10189650D01*
X1519943Y-10189650D02*
X1538991Y-10199174D01*
X1538991Y-10199174D02*
X1548515Y-10218222D01*
X1548515Y-10218222D02*
X1548515Y-10322984D01*
X1938991Y-10113460D02*
X1767563Y-10370603D01*
X2196134Y-10122984D02*
X2215182Y-10122984D01*
X2215182Y-10122984D02*
X2234229Y-10132508D01*
X2234229Y-10132508D02*
X2243753Y-10142031D01*
X2243753Y-10142031D02*
X2253277Y-10161079D01*
X2253277Y-10161079D02*
X2262801Y-10199174D01*
X2262801Y-10199174D02*
X2262801Y-10246793D01*
X2262801Y-10246793D02*
X2253277Y-10284889D01*
X2253277Y-10284889D02*
X2243753Y-10303936D01*
X2243753Y-10303936D02*
X2234229Y-10313460D01*
X2234229Y-10313460D02*
X2215182Y-10322984D01*
X2215182Y-10322984D02*
X2196134Y-10322984D01*
X2196134Y-10322984D02*
X2177087Y-10313460D01*
X2177087Y-10313460D02*
X2167563Y-10303936D01*
X2167563Y-10303936D02*
X2158039Y-10284889D01*
X2158039Y-10284889D02*
X2148515Y-10246793D01*
X2148515Y-10246793D02*
X2148515Y-10199174D01*
X2148515Y-10199174D02*
X2158039Y-10161079D01*
X2158039Y-10161079D02*
X2167563Y-10142031D01*
X2167563Y-10142031D02*
X2177087Y-10132508D01*
X2177087Y-10132508D02*
X2196134Y-10122984D01*
X2348515Y-10303936D02*
X2358039Y-10313460D01*
X2358039Y-10313460D02*
X2348515Y-10322984D01*
X2348515Y-10322984D02*
X2338991Y-10313460D01*
X2338991Y-10313460D02*
X2348515Y-10303936D01*
X2348515Y-10303936D02*
X2348515Y-10322984D01*
X2481848Y-10122984D02*
X2500896Y-10122984D01*
X2500896Y-10122984D02*
X2519944Y-10132508D01*
X2519944Y-10132508D02*
X2529468Y-10142031D01*
X2529468Y-10142031D02*
X2538991Y-10161079D01*
X2538991Y-10161079D02*
X2548515Y-10199174D01*
X2548515Y-10199174D02*
X2548515Y-10246793D01*
X2548515Y-10246793D02*
X2538991Y-10284889D01*
X2538991Y-10284889D02*
X2529468Y-10303936D01*
X2529468Y-10303936D02*
X2519944Y-10313460D01*
X2519944Y-10313460D02*
X2500896Y-10322984D01*
X2500896Y-10322984D02*
X2481848Y-10322984D01*
X2481848Y-10322984D02*
X2462801Y-10313460D01*
X2462801Y-10313460D02*
X2453277Y-10303936D01*
X2453277Y-10303936D02*
X2443753Y-10284889D01*
X2443753Y-10284889D02*
X2434229Y-10246793D01*
X2434229Y-10246793D02*
X2434229Y-10199174D01*
X2434229Y-10199174D02*
X2443753Y-10161079D01*
X2443753Y-10161079D02*
X2453277Y-10142031D01*
X2453277Y-10142031D02*
X2462801Y-10132508D01*
X2462801Y-10132508D02*
X2481848Y-10122984D01*
X2729468Y-10122984D02*
X2634229Y-10122984D01*
X2634229Y-10122984D02*
X2624706Y-10218222D01*
X2624706Y-10218222D02*
X2634229Y-10208698D01*
X2634229Y-10208698D02*
X2653277Y-10199174D01*
X2653277Y-10199174D02*
X2700896Y-10199174D01*
X2700896Y-10199174D02*
X2719944Y-10208698D01*
X2719944Y-10208698D02*
X2729468Y-10218222D01*
X2729468Y-10218222D02*
X2738991Y-10237270D01*
X2738991Y-10237270D02*
X2738991Y-10284889D01*
X2738991Y-10284889D02*
X2729468Y-10303936D01*
X2729468Y-10303936D02*
X2719944Y-10313460D01*
X2719944Y-10313460D02*
X2700896Y-10322984D01*
X2700896Y-10322984D02*
X2653277Y-10322984D01*
X2653277Y-10322984D02*
X2634229Y-10313460D01*
X2634229Y-10313460D02*
X2624706Y-10303936D01*
X2929467Y-10322984D02*
X2815182Y-10322984D01*
X2872325Y-10322984D02*
X2872325Y-10122984D01*
X2872325Y-10122984D02*
X2853277Y-10151555D01*
X2853277Y-10151555D02*
X2834229Y-10170603D01*
X2834229Y-10170603D02*
X2815182Y-10180127D01*
X3005658Y-10142031D02*
X3015182Y-10132508D01*
X3015182Y-10132508D02*
X3034229Y-10122984D01*
X3034229Y-10122984D02*
X3081848Y-10122984D01*
X3081848Y-10122984D02*
X3100896Y-10132508D01*
X3100896Y-10132508D02*
X3110420Y-10142031D01*
X3110420Y-10142031D02*
X3119944Y-10161079D01*
X3119944Y-10161079D02*
X3119944Y-10180127D01*
X3119944Y-10180127D02*
X3110420Y-10208698D01*
X3110420Y-10208698D02*
X2996134Y-10322984D01*
X2996134Y-10322984D02*
X3119944Y-10322984D01*
X3196134Y-10122984D02*
X3196134Y-10161079D01*
X3272325Y-10122984D02*
X3272325Y-10161079D01*
X3567563Y-10399174D02*
X3558039Y-10389650D01*
X3558039Y-10389650D02*
X3538991Y-10361079D01*
X3538991Y-10361079D02*
X3529468Y-10342031D01*
X3529468Y-10342031D02*
X3519944Y-10313460D01*
X3519944Y-10313460D02*
X3510420Y-10265841D01*
X3510420Y-10265841D02*
X3510420Y-10227746D01*
X3510420Y-10227746D02*
X3519944Y-10180127D01*
X3519944Y-10180127D02*
X3529468Y-10151555D01*
X3529468Y-10151555D02*
X3538991Y-10132508D01*
X3538991Y-10132508D02*
X3558039Y-10103936D01*
X3558039Y-10103936D02*
X3567563Y-10094412D01*
X3729468Y-10122984D02*
X3691372Y-10122984D01*
X3691372Y-10122984D02*
X3672325Y-10132508D01*
X3672325Y-10132508D02*
X3662801Y-10142031D01*
X3662801Y-10142031D02*
X3643753Y-10170603D01*
X3643753Y-10170603D02*
X3634229Y-10208698D01*
X3634229Y-10208698D02*
X3634229Y-10284889D01*
X3634229Y-10284889D02*
X3643753Y-10303936D01*
X3643753Y-10303936D02*
X3653277Y-10313460D01*
X3653277Y-10313460D02*
X3672325Y-10322984D01*
X3672325Y-10322984D02*
X3710420Y-10322984D01*
X3710420Y-10322984D02*
X3729468Y-10313460D01*
X3729468Y-10313460D02*
X3738991Y-10303936D01*
X3738991Y-10303936D02*
X3748515Y-10284889D01*
X3748515Y-10284889D02*
X3748515Y-10237270D01*
X3748515Y-10237270D02*
X3738991Y-10218222D01*
X3738991Y-10218222D02*
X3729468Y-10208698D01*
X3729468Y-10208698D02*
X3710420Y-10199174D01*
X3710420Y-10199174D02*
X3672325Y-10199174D01*
X3672325Y-10199174D02*
X3653277Y-10208698D01*
X3653277Y-10208698D02*
X3643753Y-10218222D01*
X3643753Y-10218222D02*
X3634229Y-10237270D01*
X3986610Y-10322984D02*
X3986610Y-10122984D01*
X4072325Y-10322984D02*
X4072325Y-10218222D01*
X4072325Y-10218222D02*
X4062801Y-10199174D01*
X4062801Y-10199174D02*
X4043753Y-10189650D01*
X4043753Y-10189650D02*
X4015182Y-10189650D01*
X4015182Y-10189650D02*
X3996134Y-10199174D01*
X3996134Y-10199174D02*
X3986610Y-10208698D01*
X4196134Y-10322984D02*
X4177087Y-10313460D01*
X4177087Y-10313460D02*
X4167563Y-10303936D01*
X4167563Y-10303936D02*
X4158039Y-10284889D01*
X4158039Y-10284889D02*
X4158039Y-10227746D01*
X4158039Y-10227746D02*
X4167563Y-10208698D01*
X4167563Y-10208698D02*
X4177087Y-10199174D01*
X4177087Y-10199174D02*
X4196134Y-10189650D01*
X4196134Y-10189650D02*
X4224706Y-10189650D01*
X4224706Y-10189650D02*
X4243753Y-10199174D01*
X4243753Y-10199174D02*
X4253277Y-10208698D01*
X4253277Y-10208698D02*
X4262801Y-10227746D01*
X4262801Y-10227746D02*
X4262801Y-10284889D01*
X4262801Y-10284889D02*
X4253277Y-10303936D01*
X4253277Y-10303936D02*
X4243753Y-10313460D01*
X4243753Y-10313460D02*
X4224706Y-10322984D01*
X4224706Y-10322984D02*
X4196134Y-10322984D01*
X4377087Y-10322984D02*
X4358039Y-10313460D01*
X4358039Y-10313460D02*
X4348515Y-10294412D01*
X4348515Y-10294412D02*
X4348515Y-10122984D01*
X4529468Y-10313460D02*
X4510420Y-10322984D01*
X4510420Y-10322984D02*
X4472325Y-10322984D01*
X4472325Y-10322984D02*
X4453277Y-10313460D01*
X4453277Y-10313460D02*
X4443753Y-10294412D01*
X4443753Y-10294412D02*
X4443753Y-10218222D01*
X4443753Y-10218222D02*
X4453277Y-10199174D01*
X4453277Y-10199174D02*
X4472325Y-10189650D01*
X4472325Y-10189650D02*
X4510420Y-10189650D01*
X4510420Y-10189650D02*
X4529468Y-10199174D01*
X4529468Y-10199174D02*
X4538992Y-10218222D01*
X4538992Y-10218222D02*
X4538992Y-10237270D01*
X4538992Y-10237270D02*
X4443753Y-10256317D01*
X4615182Y-10313460D02*
X4634230Y-10322984D01*
X4634230Y-10322984D02*
X4672325Y-10322984D01*
X4672325Y-10322984D02*
X4691373Y-10313460D01*
X4691373Y-10313460D02*
X4700896Y-10294412D01*
X4700896Y-10294412D02*
X4700896Y-10284889D01*
X4700896Y-10284889D02*
X4691373Y-10265841D01*
X4691373Y-10265841D02*
X4672325Y-10256317D01*
X4672325Y-10256317D02*
X4643753Y-10256317D01*
X4643753Y-10256317D02*
X4624706Y-10246793D01*
X4624706Y-10246793D02*
X4615182Y-10227746D01*
X4615182Y-10227746D02*
X4615182Y-10218222D01*
X4615182Y-10218222D02*
X4624706Y-10199174D01*
X4624706Y-10199174D02*
X4643753Y-10189650D01*
X4643753Y-10189650D02*
X4672325Y-10189650D01*
X4672325Y-10189650D02*
X4691373Y-10199174D01*
X4767563Y-10399174D02*
X4777087Y-10389650D01*
X4777087Y-10389650D02*
X4796134Y-10361079D01*
X4796134Y-10361079D02*
X4805658Y-10342031D01*
X4805658Y-10342031D02*
X4815182Y-10313460D01*
X4815182Y-10313460D02*
X4824706Y-10265841D01*
X4824706Y-10265841D02*
X4824706Y-10227746D01*
X4824706Y-10227746D02*
X4815182Y-10180127D01*
X4815182Y-10180127D02*
X4805658Y-10151555D01*
X4805658Y-10151555D02*
X4796134Y-10132508D01*
X4796134Y-10132508D02*
X4777087Y-10103936D01*
X4777087Y-10103936D02*
X4767563Y-10094412D01*
X-207500Y-10395500D02*
X-7500Y-10595500D01*
X-7500Y-10395500D02*
X-207500Y-10595500D01*
X-36789Y-10566211D02*
X-36789Y-10424789D01*
X-178211Y-10424789D01*
X-178211Y-10566211D01*
X-36789Y-10566211D01*
X243753Y-10406031D02*
X253277Y-10396508D01*
X253277Y-10396508D02*
X272324Y-10386984D01*
X272324Y-10386984D02*
X319944Y-10386984D01*
X319944Y-10386984D02*
X338991Y-10396508D01*
X338991Y-10396508D02*
X348515Y-10406031D01*
X348515Y-10406031D02*
X358039Y-10425079D01*
X358039Y-10425079D02*
X358039Y-10444127D01*
X358039Y-10444127D02*
X348515Y-10472698D01*
X348515Y-10472698D02*
X234229Y-10586984D01*
X234229Y-10586984D02*
X358039Y-10586984D01*
X443753Y-10567936D02*
X453277Y-10577460D01*
X453277Y-10577460D02*
X443753Y-10586984D01*
X443753Y-10586984D02*
X434229Y-10577460D01*
X434229Y-10577460D02*
X443753Y-10567936D01*
X443753Y-10567936D02*
X443753Y-10586984D01*
X519943Y-10386984D02*
X653277Y-10386984D01*
X653277Y-10386984D02*
X567563Y-10586984D01*
X767562Y-10386984D02*
X786610Y-10386984D01*
X786610Y-10386984D02*
X805658Y-10396508D01*
X805658Y-10396508D02*
X815182Y-10406031D01*
X815182Y-10406031D02*
X824705Y-10425079D01*
X824705Y-10425079D02*
X834229Y-10463174D01*
X834229Y-10463174D02*
X834229Y-10510793D01*
X834229Y-10510793D02*
X824705Y-10548889D01*
X824705Y-10548889D02*
X815182Y-10567936D01*
X815182Y-10567936D02*
X805658Y-10577460D01*
X805658Y-10577460D02*
X786610Y-10586984D01*
X786610Y-10586984D02*
X767562Y-10586984D01*
X767562Y-10586984D02*
X748515Y-10577460D01*
X748515Y-10577460D02*
X738991Y-10567936D01*
X738991Y-10567936D02*
X729467Y-10548889D01*
X729467Y-10548889D02*
X719943Y-10510793D01*
X719943Y-10510793D02*
X719943Y-10463174D01*
X719943Y-10463174D02*
X729467Y-10425079D01*
X729467Y-10425079D02*
X738991Y-10406031D01*
X738991Y-10406031D02*
X748515Y-10396508D01*
X748515Y-10396508D02*
X767562Y-10386984D01*
X958039Y-10386984D02*
X977086Y-10386984D01*
X977086Y-10386984D02*
X996134Y-10396508D01*
X996134Y-10396508D02*
X1005658Y-10406031D01*
X1005658Y-10406031D02*
X1015182Y-10425079D01*
X1015182Y-10425079D02*
X1024705Y-10463174D01*
X1024705Y-10463174D02*
X1024705Y-10510793D01*
X1024705Y-10510793D02*
X1015182Y-10548889D01*
X1015182Y-10548889D02*
X1005658Y-10567936D01*
X1005658Y-10567936D02*
X996134Y-10577460D01*
X996134Y-10577460D02*
X977086Y-10586984D01*
X977086Y-10586984D02*
X958039Y-10586984D01*
X958039Y-10586984D02*
X938991Y-10577460D01*
X938991Y-10577460D02*
X929467Y-10567936D01*
X929467Y-10567936D02*
X919943Y-10548889D01*
X919943Y-10548889D02*
X910420Y-10510793D01*
X910420Y-10510793D02*
X910420Y-10463174D01*
X910420Y-10463174D02*
X919943Y-10425079D01*
X919943Y-10425079D02*
X929467Y-10406031D01*
X929467Y-10406031D02*
X938991Y-10396508D01*
X938991Y-10396508D02*
X958039Y-10386984D01*
X1110420Y-10586984D02*
X1110420Y-10453650D01*
X1110420Y-10472698D02*
X1119944Y-10463174D01*
X1119944Y-10463174D02*
X1138991Y-10453650D01*
X1138991Y-10453650D02*
X1167563Y-10453650D01*
X1167563Y-10453650D02*
X1186610Y-10463174D01*
X1186610Y-10463174D02*
X1196134Y-10482222D01*
X1196134Y-10482222D02*
X1196134Y-10586984D01*
X1196134Y-10482222D02*
X1205658Y-10463174D01*
X1205658Y-10463174D02*
X1224705Y-10453650D01*
X1224705Y-10453650D02*
X1253277Y-10453650D01*
X1253277Y-10453650D02*
X1272325Y-10463174D01*
X1272325Y-10463174D02*
X1281848Y-10482222D01*
X1281848Y-10482222D02*
X1281848Y-10586984D01*
X1377086Y-10586984D02*
X1377086Y-10453650D01*
X1377086Y-10472698D02*
X1386610Y-10463174D01*
X1386610Y-10463174D02*
X1405658Y-10453650D01*
X1405658Y-10453650D02*
X1434229Y-10453650D01*
X1434229Y-10453650D02*
X1453277Y-10463174D01*
X1453277Y-10463174D02*
X1462801Y-10482222D01*
X1462801Y-10482222D02*
X1462801Y-10586984D01*
X1462801Y-10482222D02*
X1472324Y-10463174D01*
X1472324Y-10463174D02*
X1491372Y-10453650D01*
X1491372Y-10453650D02*
X1519943Y-10453650D01*
X1519943Y-10453650D02*
X1538991Y-10463174D01*
X1538991Y-10463174D02*
X1548515Y-10482222D01*
X1548515Y-10482222D02*
X1548515Y-10586984D01*
X1938991Y-10377460D02*
X1767563Y-10634603D01*
X2196134Y-10386984D02*
X2215182Y-10386984D01*
X2215182Y-10386984D02*
X2234229Y-10396508D01*
X2234229Y-10396508D02*
X2243753Y-10406031D01*
X2243753Y-10406031D02*
X2253277Y-10425079D01*
X2253277Y-10425079D02*
X2262801Y-10463174D01*
X2262801Y-10463174D02*
X2262801Y-10510793D01*
X2262801Y-10510793D02*
X2253277Y-10548889D01*
X2253277Y-10548889D02*
X2243753Y-10567936D01*
X2243753Y-10567936D02*
X2234229Y-10577460D01*
X2234229Y-10577460D02*
X2215182Y-10586984D01*
X2215182Y-10586984D02*
X2196134Y-10586984D01*
X2196134Y-10586984D02*
X2177087Y-10577460D01*
X2177087Y-10577460D02*
X2167563Y-10567936D01*
X2167563Y-10567936D02*
X2158039Y-10548889D01*
X2158039Y-10548889D02*
X2148515Y-10510793D01*
X2148515Y-10510793D02*
X2148515Y-10463174D01*
X2148515Y-10463174D02*
X2158039Y-10425079D01*
X2158039Y-10425079D02*
X2167563Y-10406031D01*
X2167563Y-10406031D02*
X2177087Y-10396508D01*
X2177087Y-10396508D02*
X2196134Y-10386984D01*
X2348515Y-10567936D02*
X2358039Y-10577460D01*
X2358039Y-10577460D02*
X2348515Y-10586984D01*
X2348515Y-10586984D02*
X2338991Y-10577460D01*
X2338991Y-10577460D02*
X2348515Y-10567936D01*
X2348515Y-10567936D02*
X2348515Y-10586984D01*
X2548515Y-10586984D02*
X2434229Y-10586984D01*
X2491372Y-10586984D02*
X2491372Y-10386984D01*
X2491372Y-10386984D02*
X2472325Y-10415555D01*
X2472325Y-10415555D02*
X2453277Y-10434603D01*
X2453277Y-10434603D02*
X2434229Y-10444127D01*
X2672325Y-10386984D02*
X2691372Y-10386984D01*
X2691372Y-10386984D02*
X2710420Y-10396508D01*
X2710420Y-10396508D02*
X2719944Y-10406031D01*
X2719944Y-10406031D02*
X2729468Y-10425079D01*
X2729468Y-10425079D02*
X2738991Y-10463174D01*
X2738991Y-10463174D02*
X2738991Y-10510793D01*
X2738991Y-10510793D02*
X2729468Y-10548889D01*
X2729468Y-10548889D02*
X2719944Y-10567936D01*
X2719944Y-10567936D02*
X2710420Y-10577460D01*
X2710420Y-10577460D02*
X2691372Y-10586984D01*
X2691372Y-10586984D02*
X2672325Y-10586984D01*
X2672325Y-10586984D02*
X2653277Y-10577460D01*
X2653277Y-10577460D02*
X2643753Y-10567936D01*
X2643753Y-10567936D02*
X2634229Y-10548889D01*
X2634229Y-10548889D02*
X2624706Y-10510793D01*
X2624706Y-10510793D02*
X2624706Y-10463174D01*
X2624706Y-10463174D02*
X2634229Y-10425079D01*
X2634229Y-10425079D02*
X2643753Y-10406031D01*
X2643753Y-10406031D02*
X2653277Y-10396508D01*
X2653277Y-10396508D02*
X2672325Y-10386984D01*
X2910420Y-10386984D02*
X2872325Y-10386984D01*
X2872325Y-10386984D02*
X2853277Y-10396508D01*
X2853277Y-10396508D02*
X2843753Y-10406031D01*
X2843753Y-10406031D02*
X2824706Y-10434603D01*
X2824706Y-10434603D02*
X2815182Y-10472698D01*
X2815182Y-10472698D02*
X2815182Y-10548889D01*
X2815182Y-10548889D02*
X2824706Y-10567936D01*
X2824706Y-10567936D02*
X2834229Y-10577460D01*
X2834229Y-10577460D02*
X2853277Y-10586984D01*
X2853277Y-10586984D02*
X2891372Y-10586984D01*
X2891372Y-10586984D02*
X2910420Y-10577460D01*
X2910420Y-10577460D02*
X2919944Y-10567936D01*
X2919944Y-10567936D02*
X2929467Y-10548889D01*
X2929467Y-10548889D02*
X2929467Y-10501270D01*
X2929467Y-10501270D02*
X2919944Y-10482222D01*
X2919944Y-10482222D02*
X2910420Y-10472698D01*
X2910420Y-10472698D02*
X2891372Y-10463174D01*
X2891372Y-10463174D02*
X2853277Y-10463174D01*
X2853277Y-10463174D02*
X2834229Y-10472698D01*
X2834229Y-10472698D02*
X2824706Y-10482222D01*
X2824706Y-10482222D02*
X2815182Y-10501270D01*
X2996134Y-10386984D02*
X3119944Y-10386984D01*
X3119944Y-10386984D02*
X3053277Y-10463174D01*
X3053277Y-10463174D02*
X3081848Y-10463174D01*
X3081848Y-10463174D02*
X3100896Y-10472698D01*
X3100896Y-10472698D02*
X3110420Y-10482222D01*
X3110420Y-10482222D02*
X3119944Y-10501270D01*
X3119944Y-10501270D02*
X3119944Y-10548889D01*
X3119944Y-10548889D02*
X3110420Y-10567936D01*
X3110420Y-10567936D02*
X3100896Y-10577460D01*
X3100896Y-10577460D02*
X3081848Y-10586984D01*
X3081848Y-10586984D02*
X3024706Y-10586984D01*
X3024706Y-10586984D02*
X3005658Y-10577460D01*
X3005658Y-10577460D02*
X2996134Y-10567936D01*
X3196134Y-10386984D02*
X3196134Y-10425079D01*
X3272325Y-10386984D02*
X3272325Y-10425079D01*
X3567563Y-10663174D02*
X3558039Y-10653650D01*
X3558039Y-10653650D02*
X3538991Y-10625079D01*
X3538991Y-10625079D02*
X3529468Y-10606031D01*
X3529468Y-10606031D02*
X3519944Y-10577460D01*
X3519944Y-10577460D02*
X3510420Y-10529841D01*
X3510420Y-10529841D02*
X3510420Y-10491746D01*
X3510420Y-10491746D02*
X3519944Y-10444127D01*
X3519944Y-10444127D02*
X3529468Y-10415555D01*
X3529468Y-10415555D02*
X3538991Y-10396508D01*
X3538991Y-10396508D02*
X3558039Y-10367936D01*
X3558039Y-10367936D02*
X3567563Y-10358412D01*
X3634229Y-10406031D02*
X3643753Y-10396508D01*
X3643753Y-10396508D02*
X3662801Y-10386984D01*
X3662801Y-10386984D02*
X3710420Y-10386984D01*
X3710420Y-10386984D02*
X3729468Y-10396508D01*
X3729468Y-10396508D02*
X3738991Y-10406031D01*
X3738991Y-10406031D02*
X3748515Y-10425079D01*
X3748515Y-10425079D02*
X3748515Y-10444127D01*
X3748515Y-10444127D02*
X3738991Y-10472698D01*
X3738991Y-10472698D02*
X3624706Y-10586984D01*
X3624706Y-10586984D02*
X3748515Y-10586984D01*
X3986610Y-10586984D02*
X3986610Y-10386984D01*
X4072325Y-10586984D02*
X4072325Y-10482222D01*
X4072325Y-10482222D02*
X4062801Y-10463174D01*
X4062801Y-10463174D02*
X4043753Y-10453650D01*
X4043753Y-10453650D02*
X4015182Y-10453650D01*
X4015182Y-10453650D02*
X3996134Y-10463174D01*
X3996134Y-10463174D02*
X3986610Y-10472698D01*
X4196134Y-10586984D02*
X4177087Y-10577460D01*
X4177087Y-10577460D02*
X4167563Y-10567936D01*
X4167563Y-10567936D02*
X4158039Y-10548889D01*
X4158039Y-10548889D02*
X4158039Y-10491746D01*
X4158039Y-10491746D02*
X4167563Y-10472698D01*
X4167563Y-10472698D02*
X4177087Y-10463174D01*
X4177087Y-10463174D02*
X4196134Y-10453650D01*
X4196134Y-10453650D02*
X4224706Y-10453650D01*
X4224706Y-10453650D02*
X4243753Y-10463174D01*
X4243753Y-10463174D02*
X4253277Y-10472698D01*
X4253277Y-10472698D02*
X4262801Y-10491746D01*
X4262801Y-10491746D02*
X4262801Y-10548889D01*
X4262801Y-10548889D02*
X4253277Y-10567936D01*
X4253277Y-10567936D02*
X4243753Y-10577460D01*
X4243753Y-10577460D02*
X4224706Y-10586984D01*
X4224706Y-10586984D02*
X4196134Y-10586984D01*
X4377087Y-10586984D02*
X4358039Y-10577460D01*
X4358039Y-10577460D02*
X4348515Y-10558412D01*
X4348515Y-10558412D02*
X4348515Y-10386984D01*
X4529468Y-10577460D02*
X4510420Y-10586984D01*
X4510420Y-10586984D02*
X4472325Y-10586984D01*
X4472325Y-10586984D02*
X4453277Y-10577460D01*
X4453277Y-10577460D02*
X4443753Y-10558412D01*
X4443753Y-10558412D02*
X4443753Y-10482222D01*
X4443753Y-10482222D02*
X4453277Y-10463174D01*
X4453277Y-10463174D02*
X4472325Y-10453650D01*
X4472325Y-10453650D02*
X4510420Y-10453650D01*
X4510420Y-10453650D02*
X4529468Y-10463174D01*
X4529468Y-10463174D02*
X4538992Y-10482222D01*
X4538992Y-10482222D02*
X4538992Y-10501270D01*
X4538992Y-10501270D02*
X4443753Y-10520317D01*
X4615182Y-10577460D02*
X4634230Y-10586984D01*
X4634230Y-10586984D02*
X4672325Y-10586984D01*
X4672325Y-10586984D02*
X4691373Y-10577460D01*
X4691373Y-10577460D02*
X4700896Y-10558412D01*
X4700896Y-10558412D02*
X4700896Y-10548889D01*
X4700896Y-10548889D02*
X4691373Y-10529841D01*
X4691373Y-10529841D02*
X4672325Y-10520317D01*
X4672325Y-10520317D02*
X4643753Y-10520317D01*
X4643753Y-10520317D02*
X4624706Y-10510793D01*
X4624706Y-10510793D02*
X4615182Y-10491746D01*
X4615182Y-10491746D02*
X4615182Y-10482222D01*
X4615182Y-10482222D02*
X4624706Y-10463174D01*
X4624706Y-10463174D02*
X4643753Y-10453650D01*
X4643753Y-10453650D02*
X4672325Y-10453650D01*
X4672325Y-10453650D02*
X4691373Y-10463174D01*
X4767563Y-10663174D02*
X4777087Y-10653650D01*
X4777087Y-10653650D02*
X4796134Y-10625079D01*
X4796134Y-10625079D02*
X4805658Y-10606031D01*
X4805658Y-10606031D02*
X4815182Y-10577460D01*
X4815182Y-10577460D02*
X4824706Y-10529841D01*
X4824706Y-10529841D02*
X4824706Y-10491746D01*
X4824706Y-10491746D02*
X4815182Y-10444127D01*
X4815182Y-10444127D02*
X4805658Y-10415555D01*
X4805658Y-10415555D02*
X4796134Y-10396508D01*
X4796134Y-10396508D02*
X4777087Y-10367936D01*
X4777087Y-10367936D02*
X4767563Y-10358412D01*
M02*
