G04 #@! TF.GenerationSoftware,KiCad,Pcbnew,7.0.11+dfsg-1build4*
G04 #@! TF.CreationDate,2026-07-10T19:42:34+00:00*
G04 #@! TF.ProjectId,main-board,6d61696e-2d62-46f6-9172-642e6b696361,rev?*
G04 #@! TF.SameCoordinates,Original*
G04 #@! TF.FileFunction,Soldermask,Bot*
G04 #@! TF.FilePolarity,Negative*
%FSLAX46Y46*%
G04 Gerber Fmt 4.6, Leading zero omitted, Abs format (unit mm)*
G04 Created by KiCad (PCBNEW 7.0.11+dfsg-1build4) date 2026-07-10 19:42:34*
%MOMM*%
%LPD*%
G01*
G04 APERTURE LIST*
G04 Aperture macros list*
%AMRoundRect*
0 Rectangle with rounded corners*
0 $1 Rounding radius*
0 $2 $3 $4 $5 $6 $7 $8 $9 X,Y pos of 4 corners*
0 Add a 4 corners polygon primitive as box body*
4,1,4,$2,$3,$4,$5,$6,$7,$8,$9,$2,$3,0*
0 Add four circle primitives for the rounded corners*
1,1,$1+$1,$2,$3*
1,1,$1+$1,$4,$5*
1,1,$1+$1,$6,$7*
1,1,$1+$1,$8,$9*
0 Add four rect primitives between the rounded corners*
20,1,$1+$1,$2,$3,$4,$5,0*
20,1,$1+$1,$4,$5,$6,$7,0*
20,1,$1+$1,$6,$7,$8,$9,0*
20,1,$1+$1,$8,$9,$2,$3,0*%
G04 Aperture macros list end*
%ADD10C,1.700000*%
%ADD11RoundRect,0.250000X-0.600000X-0.725000X0.600000X-0.725000X0.600000X0.725000X-0.600000X0.725000X0*%
%ADD12O,1.700000X1.950000*%
%ADD13C,3.200000*%
%ADD14R,1.700000X1.700000*%
%ADD15O,1.700000X1.700000*%
%ADD16RoundRect,0.250000X-0.350000X-0.625000X0.350000X-0.625000X0.350000X0.625000X-0.350000X0.625000X0*%
%ADD17O,1.200000X1.750000*%
%ADD18C,0.650000*%
%ADD19O,2.100000X1.000000*%
%ADD20O,1.600000X1.000000*%
%ADD21R,2.600000X2.600000*%
%ADD22C,2.600000*%
%ADD23R,3.800000X3.800000*%
%ADD24C,3.800000*%
G04 APERTURE END LIST*
D10*
G04 #@! TO.C,J6*
X11500000Y-72000000D03*
X4500000Y-72000000D03*
G04 #@! TD*
D11*
G04 #@! TO.C,J2*
X70000000Y-6000000D03*
D12*
X72500000Y-6000000D03*
X75000000Y-6000000D03*
X77500000Y-6000000D03*
X80000000Y-6000000D03*
G04 #@! TD*
D13*
G04 #@! TO.C,H*
X96500000Y-28000000D03*
G04 #@! TD*
D14*
G04 #@! TO.C,J10*
X60000000Y-48000000D03*
D15*
X60000000Y-50540000D03*
X60000000Y-53080000D03*
G04 #@! TD*
D16*
G04 #@! TO.C,J14*
X40000000Y-70000000D03*
D17*
X42000000Y-70000000D03*
X44000000Y-70000000D03*
X46000000Y-70000000D03*
X48000000Y-70000000D03*
X50000000Y-70000000D03*
X52000000Y-70000000D03*
X54000000Y-70000000D03*
G04 #@! TD*
D13*
G04 #@! TO.C,H*
X52000000Y-5000000D03*
G04 #@! TD*
D18*
G04 #@! TO.C,J11*
X94400000Y-54890000D03*
X94400000Y-49110000D03*
D19*
X93870000Y-56320000D03*
D20*
X98050000Y-56320000D03*
D19*
X93870000Y-47680000D03*
D20*
X98050000Y-47680000D03*
G04 #@! TD*
D13*
G04 #@! TO.C,H*
X4000000Y-43000000D03*
G04 #@! TD*
D21*
G04 #@! TO.C,J9*
X36000000Y-4000000D03*
D22*
X41080000Y-4000000D03*
G04 #@! TD*
D14*
G04 #@! TO.C,J5*
X30000000Y-62000000D03*
D15*
X32540000Y-62000000D03*
X30000000Y-64540000D03*
X32540000Y-64540000D03*
X30000000Y-67080000D03*
X32540000Y-67080000D03*
X30000000Y-69620000D03*
X32540000Y-69620000D03*
X30000000Y-72160000D03*
X32540000Y-72160000D03*
G04 #@! TD*
D21*
G04 #@! TO.C,J7*
X8000000Y-4000000D03*
D22*
X13080000Y-4000000D03*
G04 #@! TD*
D21*
G04 #@! TO.C,J8*
X22000000Y-4000000D03*
D22*
X27080000Y-4000000D03*
G04 #@! TD*
D23*
G04 #@! TO.C,J1*
X58000000Y-5000000D03*
D24*
X63000000Y-5000000D03*
G04 #@! TD*
D13*
G04 #@! TO.C,H*
X4000000Y-58000000D03*
G04 #@! TD*
D14*
G04 #@! TO.C,J13*
X14000000Y-76500000D03*
D15*
X16540000Y-76500000D03*
X19080000Y-76500000D03*
X21620000Y-76500000D03*
X24160000Y-76500000D03*
X26700000Y-76500000D03*
X29240000Y-76500000D03*
X31780000Y-76500000D03*
X34320000Y-76500000D03*
X36860000Y-76500000D03*
G04 #@! TD*
D14*
G04 #@! TO.C,J4*
X97000000Y-14000000D03*
D15*
X97000000Y-16540000D03*
X97000000Y-19080000D03*
G04 #@! TD*
D11*
G04 #@! TO.C,J3*
X86500000Y-6000000D03*
D12*
X89000000Y-6000000D03*
X91500000Y-6000000D03*
X94000000Y-6000000D03*
X96500000Y-6000000D03*
G04 #@! TD*
M02*
