M48
; DRILL file {KiCad 7.0.11+dfsg-1build4} date Wed Jul  8 08:34:58 2026
; FORMAT={-:-/ absolute / metric / decimal}
; #@! TF.CreationDate,2026-07-08T08:34:58+00:00
; #@! TF.GenerationSoftware,Kicad,Pcbnew,7.0.11+dfsg-1build4
; #@! TF.FileFunction,Plated,1,4,PTH
FMAT,2
METRIC
; #@! TA.AperFunction,Plated,PTH,ViaDrill
T1C0.200
; #@! TA.AperFunction,Plated,PTH,ComponentDrill
T2C0.200
; #@! TA.AperFunction,Plated,PTH,ComponentDrill
T3C0.300
; #@! TA.AperFunction,Plated,PTH,ComponentDrill
T4C0.600
; #@! TA.AperFunction,Plated,PTH,ComponentDrill
T5C0.750
; #@! TA.AperFunction,Plated,PTH,ComponentDrill
T6C0.950
; #@! TA.AperFunction,Plated,PTH,ComponentDrill
T7C1.000
; #@! TA.AperFunction,Plated,PTH,ComponentDrill
T8C1.300
; #@! TA.AperFunction,Plated,PTH,ComponentDrill
T9C2.700
%
G90
G05
T1
X3.493Y-50.457
X3.882Y-32.0
X8.011Y-49.292
X8.467Y-16.501
X10.775Y-58.502
X11.914Y-28.922
X11.938Y-20.078
X12.504Y-63.56
X14.153Y-63.621
X14.604Y-52.752
X15.431Y-45.159
X17.817Y-63.393
X17.818Y-29.078
X18.21Y-50.252
X19.021Y-70.596
X19.073Y-62.002
X19.244Y-72.305
X21.39Y-45.517
X22.373Y-71.388
X22.615Y-68.555
X22.702Y-52.35
X22.72Y-53.25
X24.077Y-51.146
X24.14Y-68.955
X24.916Y-67.832
X24.959Y-54.226
X25.245Y-51.958
X25.885Y-68.955
X25.903Y-53.898
X25.931Y-57.545
X25.94Y-46.137
X25.95Y-28.906
X25.962Y-36.656
X26.345Y-51.959
X26.364Y-49.663
X26.7Y-42.456
X26.952Y-41.305
X27.229Y-52.96
X27.25Y-58.037
X27.255Y-64.173
X27.257Y-51.946
X27.654Y-53.802
X27.75Y-60.285
X27.786Y-18.061
X28.215Y-33.856
X28.288Y-32.036
X28.332Y-29.229
X28.359Y-35.275
X28.365Y-34.565
X28.372Y-31.125
X28.377Y-30.21
X28.481Y-52.193
X28.509Y-43.061
X28.693Y-44.624
X29.546Y-52.494
X29.801Y-60.276
X31.037Y-53.13
X31.341Y-24.495
X31.885Y-17.0
X32.156Y-26.615
X33.251Y-51.909
X33.864Y-57.272
X33.934Y-46.634
X34.383Y-52.055
X35.137Y-27.062
X35.505Y-55.655
X36.335Y-23.208
X36.643Y-75.212
X36.691Y-25.689
X36.708Y-59.449
X36.848Y-46.657
X37.055Y-63.007
X37.089Y-16.501
X37.125Y-58.487
X37.623Y-30.817
X37.636Y-35.3
X37.702Y-33.975
X37.73Y-26.276
X37.755Y-32.377
X37.797Y-29.959
X38.018Y-28.021
X38.127Y-17.109
X38.566Y-23.593
X38.668Y-43.813
X38.798Y-65.509
X39.262Y-33.177
X39.377Y-20.996
X39.752Y-60.856
X39.825Y-51.951
X40.036Y-35.923
X40.082Y-34.1
X40.28Y-38.029
X40.942Y-56.567
X41.051Y-76.0
X41.093Y-30.725
X41.114Y-36.462
X41.286Y-35.225
X41.369Y-30.075
X41.377Y-32.106
X41.478Y-51.283
X41.73Y-26.512
X42.093Y-27.495
X42.921Y-21.565
X44.299Y-58.654
X45.042Y-49.836
X45.078Y-52.805
X45.082Y-51.723
X45.121Y-48.635
X45.641Y-56.329
X46.0Y-64.403
X46.9Y-41.654
X47.0Y-75.893
X47.142Y-57.926
X47.158Y-45.087
X47.163Y-26.512
X47.258Y-54.819
X47.313Y-58.783
X47.437Y-59.459
X47.823Y-48.797
X47.829Y-52.057
X48.979Y-38.534
X49.293Y-42.153
X50.291Y-56.044
X50.623Y-29.425
X50.626Y-31.692
X50.647Y-33.341
X50.848Y-34.609
X51.058Y-59.721
X51.284Y-37.133
X51.347Y-31.765
X51.385Y-36.263
X51.444Y-28.23
X51.483Y-55.365
X52.116Y-55.152
X52.208Y-33.446
X52.24Y-39.258
X52.461Y-30.456
X52.921Y-65.717
X53.003Y-45.967
X53.626Y-33.249
X53.898Y-51.94
X54.043Y-61.362
X54.241Y-30.134
X55.024Y-24.402
X55.03Y-59.648
X55.403Y-76.0
X55.584Y-57.305
X55.775Y-15.493
X55.788Y-61.193
X56.048Y-17.987
X56.548Y-18.578
X57.093Y-27.661
X57.117Y-41.979
X57.169Y-55.413
X57.476Y-71.275
X57.642Y-50.491
X57.945Y-29.771
X58.327Y-60.06
X58.764Y-19.906
X59.213Y-16.161
X59.33Y-13.677
X60.175Y-42.647
X61.321Y-56.726
X61.353Y-17.249
X62.423Y-55.818
X62.73Y-12.078
X63.115Y-73.312
X63.73Y-51.659
X63.73Y-65.8
X66.17Y-48.137
X66.477Y-55.818
X67.579Y-35.907
X67.891Y-43.365
X68.16Y-15.905
X70.991Y-72.13
X71.176Y-46.848
X71.25Y-27.936
X73.275Y-19.138
X73.887Y-64.863
X74.115Y-36.69
X74.461Y-25.367
X75.258Y-19.906
X75.766Y-56.023
X75.779Y-57.764
X76.377Y-68.37
X76.558Y-41.014
X76.612Y-66.574
X76.858Y-39.46
X76.876Y-42.0
X76.908Y-68.938
X76.918Y-69.64
X77.124Y-18.116
X77.477Y-18.631
X77.606Y-46.87
X77.695Y-65.912
X78.25Y-65.32
X78.4Y-58.669
X79.452Y-56.206
X79.53Y-38.713
X80.022Y-43.204
X80.396Y-48.565
X81.02Y-14.479
X81.349Y-56.548
X82.0Y-38.299
X82.748Y-29.261
X82.908Y-65.225
X83.248Y-60.326
X83.51Y-50.199
X83.585Y-64.55
X83.663Y-43.523
X84.261Y-21.0
X84.616Y-74.72
X84.635Y-61.423
X85.924Y-60.325
X86.967Y-60.96
X87.099Y-29.306
X87.191Y-60.342
X87.641Y-36.08
X87.798Y-25.939
X88.15Y-52.273
X88.454Y-75.99
X88.555Y-18.703
X88.614Y-24.0
X88.746Y-28.304
X89.385Y-27.568
X89.441Y-28.717
X89.496Y-29.771
X89.679Y-66.949
X89.826Y-38.122
X89.948Y-67.87
X90.053Y-54.914
X90.136Y-21.856
X90.985Y-61.028
X92.172Y-57.794
X93.43Y-38.332
X93.874Y-63.279
X93.886Y-73.45
X95.847Y-35.985
T2
X84.1Y-68.84
X84.1Y-70.24
X84.8Y-68.14
X84.8Y-69.54
X84.8Y-70.94
X85.5Y-68.84
X85.5Y-70.24
X86.2Y-68.14
X86.2Y-69.54
X86.2Y-70.94
X86.9Y-68.84
X86.9Y-70.24
T3
X30.75Y-27.8
X30.75Y-29.1
X30.75Y-30.4
X30.75Y-31.7
X30.75Y-33.0
X30.75Y-34.3
X30.75Y-35.6
X30.75Y-36.9
X30.75Y-38.2
X32.25Y-27.8
X32.25Y-29.1
X32.25Y-30.4
X32.25Y-31.7
X32.25Y-33.0
X32.25Y-34.3
X32.25Y-35.6
X32.25Y-36.9
X32.25Y-38.2
X33.75Y-27.8
X33.75Y-29.1
X33.75Y-30.4
X33.75Y-31.7
X33.75Y-33.0
X33.75Y-34.3
X33.75Y-35.6
X33.75Y-36.9
X33.75Y-38.2
X35.25Y-27.8
X35.25Y-29.1
X35.25Y-30.4
X35.25Y-31.7
X35.25Y-33.0
X35.25Y-34.3
X35.25Y-35.6
X35.25Y-36.9
X35.25Y-38.2
X43.75Y-27.8
X43.75Y-29.1
X43.75Y-30.4
X43.75Y-31.7
X43.75Y-33.0
X43.75Y-34.3
X43.75Y-35.6
X43.75Y-36.9
X43.75Y-38.2
X45.25Y-27.8
X45.25Y-29.1
X45.25Y-30.4
X45.25Y-31.7
X45.25Y-33.0
X45.25Y-34.3
X45.25Y-35.6
X45.25Y-36.9
X45.25Y-38.2
X46.75Y-27.8
X46.75Y-29.1
X46.75Y-30.4
X46.75Y-31.7
X46.75Y-33.0
X46.75Y-34.3
X46.75Y-35.6
X46.75Y-36.9
X46.75Y-38.2
X48.25Y-27.8
X48.25Y-29.1
X48.25Y-30.4
X48.25Y-31.7
X48.25Y-33.0
X48.25Y-34.3
X48.25Y-35.6
X48.25Y-36.9
X48.25Y-38.2
X91.35Y-33.55
X91.35Y-34.85
X91.35Y-36.15
X91.35Y-37.45
X92.65Y-33.55
X92.65Y-34.85
X92.65Y-36.15
X92.65Y-37.45
T5
X40.0Y-70.0
X42.0Y-70.0
X44.0Y-70.0
X46.0Y-70.0
X48.0Y-70.0
X50.0Y-70.0
X52.0Y-70.0
X54.0Y-70.0
T6
X70.0Y-6.0
X72.5Y-6.0
X75.0Y-6.0
X77.5Y-6.0
X80.0Y-6.0
X86.5Y-6.0
X89.0Y-6.0
X91.5Y-6.0
X94.0Y-6.0
X96.5Y-6.0
T7
X14.0Y-76.5
X16.54Y-76.5
X19.08Y-76.5
X21.62Y-76.5
X24.16Y-76.5
X26.7Y-76.5
X29.24Y-76.5
X30.0Y-62.0
X30.0Y-64.54
X30.0Y-67.08
X30.0Y-69.62
X30.0Y-72.16
X31.78Y-76.5
X32.54Y-62.0
X32.54Y-64.54
X32.54Y-67.08
X32.54Y-69.62
X32.54Y-72.16
X34.32Y-76.5
X36.86Y-76.5
X60.0Y-48.0
X60.0Y-50.54
X60.0Y-53.08
X97.0Y-14.0
X97.0Y-16.54
X97.0Y-19.08
T8
X8.0Y-4.0
X13.08Y-4.0
X22.0Y-4.0
X27.08Y-4.0
X36.0Y-4.0
X41.08Y-4.0
T9
X58.0Y-5.0
X63.0Y-5.0
T4
X93.32Y-47.68G85X94.42Y-47.68
G05
X93.32Y-56.32G85X94.42Y-56.32
G05
X97.75Y-47.68G85X98.35Y-47.68
G05
X97.75Y-56.32G85X98.35Y-56.32
G05
M30
