%TF.GenerationSoftware,KiCad,Pcbnew,7.0.11+dfsg-1build4*%
%TF.CreationDate,2026-07-07T08:58:30+00:00*%
%TF.ProjectId,main-board,6d61696e-2d62-46f6-9172-642e6b696361,rev?*%
%TF.SameCoordinates,Original*%
%TF.FileFunction,Drillmap*%
%TF.FilePolarity,Positive*%
%FSLAX45Y45*%
G04 Gerber Fmt 4.5, Leading zero omitted, Abs format (unit mm)*
G04 Created by KiCad (PCBNEW 7.0.11+dfsg-1build4) date 2026-07-07 08:58:30*
%MOMM*%
%LPD*%
G01*
G04 APERTURE LIST*
%ADD10C,0.150000*%
%ADD11C,0.200000*%
%ADD12C,0.100000*%
%ADD13C,0.130000*%
%ADD14C,0.270000*%
G04 APERTURE END LIST*
D10*
X0Y0D02*
X10000000Y0D01*
X10000000Y-8000000D02*
X0Y-8000000D01*
X0Y-8000000D02*
X0Y0D01*
X10000000Y0D02*
X10000000Y-8000000D01*
D11*
D12*
X182500Y-182500D02*
X202500Y-202500D01*
X202500Y-182500D02*
X182500Y-202500D01*
X182500Y-882500D02*
X202500Y-902500D01*
X202500Y-882500D02*
X182500Y-902500D01*
X182500Y-1182500D02*
X202500Y-1202500D01*
X202500Y-1182500D02*
X182500Y-1202500D01*
X182500Y-2182500D02*
X202500Y-2202500D01*
X202500Y-2182500D02*
X182500Y-2202500D01*
X182500Y-2282500D02*
X202500Y-2302500D01*
X202500Y-2282500D02*
X182500Y-2302500D01*
X182500Y-3682500D02*
X202500Y-3702500D01*
X202500Y-3682500D02*
X182500Y-3702500D01*
X182500Y-5082500D02*
X202500Y-5102500D01*
X202500Y-5082500D02*
X182500Y-5102500D01*
X182500Y-5182500D02*
X202500Y-5202500D01*
X202500Y-5182500D02*
X182500Y-5202500D01*
X182500Y-6182500D02*
X202500Y-6202500D01*
X202500Y-6182500D02*
X182500Y-6202500D01*
X182500Y-6482500D02*
X202500Y-6502500D01*
X202500Y-6482500D02*
X182500Y-6502500D01*
X182500Y-7182500D02*
X202500Y-7202500D01*
X202500Y-7182500D02*
X182500Y-7202500D01*
X195000Y-3195000D02*
X215000Y-3215000D01*
X215000Y-3195000D02*
X195000Y-3215000D01*
X320000Y-5145000D02*
X340000Y-5165000D01*
X340000Y-5145000D02*
X320000Y-5165000D01*
X473000Y-4870500D02*
X493000Y-4890500D01*
X493000Y-4870500D02*
X473000Y-4890500D01*
X473000Y-4870500D02*
X493000Y-4890500D01*
X493000Y-4870500D02*
X473000Y-4890500D01*
X512500Y-5145500D02*
X532500Y-5165500D01*
X532500Y-5145500D02*
X512500Y-5165500D01*
X512500Y-5145500D02*
X532500Y-5165500D01*
X532500Y-5145500D02*
X512500Y-5165500D01*
X595000Y-2282500D02*
X615000Y-2302500D01*
X615000Y-2282500D02*
X595000Y-2302500D01*
X857500Y-5495000D02*
X877500Y-5515000D01*
X877500Y-5495000D02*
X857500Y-5515000D01*
X882500Y-182500D02*
X902500Y-202500D01*
X902500Y-182500D02*
X882500Y-202500D01*
X882500Y-882500D02*
X902500Y-902500D01*
X902500Y-882500D02*
X882500Y-902500D01*
X882500Y-1582500D02*
X902500Y-1602500D01*
X902500Y-1582500D02*
X882500Y-1602500D01*
X882500Y-2282500D02*
X902500Y-2302500D01*
X902500Y-2282500D02*
X882500Y-2302500D01*
X882500Y-2982500D02*
X902500Y-3002500D01*
X902500Y-2982500D02*
X882500Y-3002500D01*
X882500Y-3682500D02*
X902500Y-3702500D01*
X902500Y-3682500D02*
X882500Y-3702500D01*
X882500Y-4382500D02*
X902500Y-4402500D01*
X902500Y-4382500D02*
X882500Y-4402500D01*
X882500Y-5082500D02*
X902500Y-5102500D01*
X902500Y-5082500D02*
X882500Y-5102500D01*
X882500Y-7182500D02*
X902500Y-7202500D01*
X902500Y-7182500D02*
X882500Y-7202500D01*
X970000Y-5845000D02*
X990000Y-5865000D01*
X990000Y-5845000D02*
X970000Y-5865000D01*
X1032500Y-6345000D02*
X1052500Y-6365000D01*
X1052500Y-6345000D02*
X1032500Y-6365000D01*
X1120000Y-5270000D02*
X1140000Y-5290000D01*
X1140000Y-5270000D02*
X1120000Y-5290000D01*
X1123000Y-5270500D02*
X1143000Y-5290500D01*
X1143000Y-5270500D02*
X1123000Y-5290500D01*
X1123000Y-5270500D02*
X1143000Y-5290500D01*
X1143000Y-5270500D02*
X1123000Y-5290500D01*
X1145000Y-5045000D02*
X1165000Y-5065000D01*
X1165000Y-5045000D02*
X1145000Y-5065000D01*
X1182500Y-182500D02*
X1202500Y-202500D01*
X1202500Y-182500D02*
X1182500Y-202500D01*
X1182500Y-1695000D02*
X1202500Y-1715000D01*
X1202500Y-1695000D02*
X1182500Y-1715000D01*
X1182500Y-2182500D02*
X1202500Y-2202500D01*
X1202500Y-2182500D02*
X1182500Y-2202500D01*
X1182500Y-4182500D02*
X1202500Y-4202500D01*
X1202500Y-4182500D02*
X1182500Y-4202500D01*
X1207500Y-5170000D02*
X1227500Y-5190000D01*
X1227500Y-5170000D02*
X1207500Y-5190000D01*
X1257500Y-3120000D02*
X1277500Y-3140000D01*
X1277500Y-3120000D02*
X1257500Y-3140000D01*
X1270000Y-5020000D02*
X1290000Y-5040000D01*
X1290000Y-5020000D02*
X1270000Y-5040000D01*
X1270000Y-5970000D02*
X1290000Y-5990000D01*
X1290000Y-5970000D02*
X1270000Y-5990000D01*
X1357500Y-5270000D02*
X1377500Y-5290000D01*
X1377500Y-5270000D02*
X1357500Y-5290000D01*
X1420000Y-6095000D02*
X1440000Y-6115000D01*
X1440000Y-6095000D02*
X1420000Y-6115000D01*
X1582500Y-182500D02*
X1602500Y-202500D01*
X1602500Y-182500D02*
X1582500Y-202500D01*
X1582500Y-882500D02*
X1602500Y-902500D01*
X1602500Y-882500D02*
X1582500Y-902500D01*
X1582500Y-3682500D02*
X1602500Y-3702500D01*
X1602500Y-3682500D02*
X1582500Y-3702500D01*
X1582500Y-6482500D02*
X1602500Y-6502500D01*
X1602500Y-6482500D02*
X1582500Y-6502500D01*
X1582500Y-7182500D02*
X1602500Y-7202500D01*
X1602500Y-7182500D02*
X1582500Y-7202500D01*
X1673000Y-5020500D02*
X1693000Y-5040500D01*
X1693000Y-5020500D02*
X1673000Y-5040500D01*
X1673000Y-5020500D02*
X1693000Y-5040500D01*
X1693000Y-5020500D02*
X1673000Y-5040500D01*
X1695000Y-4995000D02*
X1715000Y-5015000D01*
X1715000Y-4995000D02*
X1695000Y-5015000D01*
X1695000Y-5682500D02*
X1715000Y-5702500D01*
X1715000Y-5682500D02*
X1695000Y-5702500D01*
X1707500Y-5770000D02*
X1727500Y-5790000D01*
X1727500Y-5770000D02*
X1707500Y-5790000D01*
X1820000Y-5270000D02*
X1840000Y-5290000D01*
X1840000Y-5270000D02*
X1820000Y-5290000D01*
X1932500Y-5545000D02*
X1952500Y-5565000D01*
X1952500Y-5545000D02*
X1932500Y-5565000D01*
X1993711Y-5341211D02*
X2013711Y-5361211D01*
X2013711Y-5341211D02*
X1993711Y-5361211D01*
X1993711Y-5341211D02*
X2013711Y-5361211D01*
X2013711Y-5341211D02*
X1993711Y-5361211D01*
X2007500Y-6070000D02*
X2027500Y-6090000D01*
X2027500Y-6070000D02*
X2007500Y-6090000D01*
X2070000Y-5420000D02*
X2090000Y-5440000D01*
X2090000Y-5420000D02*
X2070000Y-5440000D01*
X2073000Y-5020500D02*
X2093000Y-5040500D01*
X2093000Y-5020500D02*
X2073000Y-5040500D01*
X2073000Y-5020500D02*
X2093000Y-5040500D01*
X2093000Y-5020500D02*
X2073000Y-5040500D01*
X2145000Y-6982500D02*
X2165000Y-7002500D01*
X2165000Y-6982500D02*
X2145000Y-7002500D01*
X2182500Y-182500D02*
X2202500Y-202500D01*
X2202500Y-182500D02*
X2182500Y-202500D01*
X2182500Y-2182500D02*
X2202500Y-2202500D01*
X2202500Y-2182500D02*
X2182500Y-2202500D01*
X2182500Y-4907500D02*
X2202500Y-4927500D01*
X2202500Y-4907500D02*
X2182500Y-4927500D01*
X2182500Y-7070000D02*
X2202500Y-7090000D01*
X2202500Y-7070000D02*
X2182500Y-7090000D01*
X2220000Y-3807500D02*
X2240000Y-3827500D01*
X2240000Y-3807500D02*
X2220000Y-3827500D01*
X2246471Y-5892279D02*
X2266471Y-5912279D01*
X2266471Y-5892279D02*
X2246471Y-5912279D01*
X2246471Y-5892279D02*
X2266471Y-5912279D01*
X2266471Y-5892279D02*
X2246471Y-5912279D01*
X2257500Y-4682500D02*
X2277500Y-4702500D01*
X2277500Y-4682500D02*
X2257500Y-4702500D01*
X2282500Y-182500D02*
X2302500Y-202500D01*
X2302500Y-182500D02*
X2282500Y-202500D01*
X2282500Y-882500D02*
X2302500Y-902500D01*
X2302500Y-882500D02*
X2282500Y-902500D01*
X2282500Y-2282500D02*
X2302500Y-2302500D01*
X2302500Y-2282500D02*
X2282500Y-2302500D01*
X2282500Y-2982500D02*
X2302500Y-3002500D01*
X2302500Y-2982500D02*
X2282500Y-3002500D01*
X2345000Y-4220000D02*
X2365000Y-4240000D01*
X2365000Y-4220000D02*
X2345000Y-4240000D01*
X2357500Y-6595000D02*
X2377500Y-6615000D01*
X2377500Y-6595000D02*
X2357500Y-6615000D01*
X2357500Y-6770000D02*
X2377500Y-6790000D01*
X2377500Y-6770000D02*
X2357500Y-6790000D01*
X2407500Y-5807500D02*
X2427500Y-5827500D01*
X2427500Y-5807500D02*
X2407500Y-5827500D01*
X2409289Y-6434289D02*
X2429289Y-6454289D01*
X2429289Y-6434289D02*
X2409289Y-6454289D01*
X2409289Y-6434289D02*
X2429289Y-6454289D01*
X2429289Y-6434289D02*
X2409289Y-6454289D01*
X2420000Y-3907500D02*
X2440000Y-3927500D01*
X2440000Y-3907500D02*
X2420000Y-3927500D01*
X2432500Y-4382500D02*
X2452500Y-4402500D01*
X2452500Y-4382500D02*
X2432500Y-4402500D01*
X2482500Y-4232500D02*
X2502500Y-4252500D01*
X2502500Y-4232500D02*
X2482500Y-4252500D01*
X2482500Y-5870000D02*
X2502500Y-5890000D01*
X2502500Y-5870000D02*
X2482500Y-5890000D01*
X2482500Y-6370000D02*
X2502500Y-6390000D01*
X2502500Y-6370000D02*
X2482500Y-6390000D01*
X2532500Y-6057500D02*
X2552500Y-6077500D01*
X2552500Y-6057500D02*
X2532500Y-6077500D01*
X2553750Y-5515000D02*
X2573750Y-5535000D01*
X2573750Y-5515000D02*
X2553750Y-5535000D01*
X2553750Y-5515000D02*
X2573750Y-5535000D01*
X2573750Y-5515000D02*
X2553750Y-5535000D01*
X2582500Y-3195000D02*
X2602500Y-3215000D01*
X2602500Y-3195000D02*
X2582500Y-3215000D01*
X2607500Y-3645000D02*
X2627500Y-3665000D01*
X2627500Y-3645000D02*
X2607500Y-3665000D01*
X2620000Y-4570000D02*
X2640000Y-4590000D01*
X2640000Y-4570000D02*
X2620000Y-4590000D01*
X2645000Y-4445000D02*
X2665000Y-4465000D01*
X2665000Y-4445000D02*
X2645000Y-4465000D01*
X2645000Y-6070000D02*
X2665000Y-6090000D01*
X2665000Y-6070000D02*
X2645000Y-6090000D01*
X2695000Y-6670000D02*
X2715000Y-6690000D01*
X2715000Y-6670000D02*
X2695000Y-6690000D01*
X2700000Y-6675000D02*
X2720000Y-6695000D01*
X2720000Y-6675000D02*
X2700000Y-6695000D01*
X2700000Y-6675000D02*
X2720000Y-6695000D01*
X2720000Y-6675000D02*
X2700000Y-6695000D01*
X2707500Y-6145000D02*
X2727500Y-6165000D01*
X2727500Y-6145000D02*
X2707500Y-6165000D01*
X2720000Y-3332500D02*
X2740000Y-3352500D01*
X2740000Y-3332500D02*
X2720000Y-3352500D01*
X2770000Y-4370000D02*
X2790000Y-4390000D01*
X2790000Y-4370000D02*
X2770000Y-4390000D01*
X2770000Y-6395000D02*
X2790000Y-6415000D01*
X2790000Y-6395000D02*
X2770000Y-6415000D01*
X2782500Y-1895000D02*
X2802500Y-1915000D01*
X2802500Y-1895000D02*
X2782500Y-1915000D01*
X2820000Y-4620000D02*
X2840000Y-4640000D01*
X2840000Y-4620000D02*
X2820000Y-4640000D01*
X2920000Y-2932500D02*
X2940000Y-2952500D01*
X2940000Y-2932500D02*
X2920000Y-2952500D01*
X2920000Y-3782500D02*
X2940000Y-3802500D01*
X2940000Y-3782500D02*
X2920000Y-3802500D01*
X2920000Y-4370000D02*
X2940000Y-4390000D01*
X2940000Y-4370000D02*
X2920000Y-4390000D01*
X2925000Y-3582500D02*
X2945000Y-3602500D01*
X2945000Y-3582500D02*
X2925000Y-3602500D01*
X2925000Y-3582500D02*
X2945000Y-3602500D01*
X2945000Y-3582500D02*
X2925000Y-3602500D01*
X2925000Y-3647500D02*
X2945000Y-3667500D01*
X2945000Y-3647500D02*
X2925000Y-3667500D01*
X2925000Y-3647500D02*
X2945000Y-3667500D01*
X2945000Y-3647500D02*
X2925000Y-3667500D01*
X2925000Y-3712500D02*
X2945000Y-3732500D01*
X2945000Y-3712500D02*
X2925000Y-3732500D01*
X2925000Y-3712500D02*
X2945000Y-3732500D01*
X2945000Y-3712500D02*
X2925000Y-3732500D01*
X2932500Y-3145000D02*
X2952500Y-3165000D01*
X2952500Y-3145000D02*
X2932500Y-3165000D01*
X2932500Y-3882500D02*
X2952500Y-3902500D01*
X2952500Y-3882500D02*
X2932500Y-3902500D01*
X2970000Y-2645000D02*
X2990000Y-2665000D01*
X2990000Y-2645000D02*
X2970000Y-2665000D01*
X2982500Y-182500D02*
X3002500Y-202500D01*
X3002500Y-182500D02*
X2982500Y-202500D01*
X2982500Y-2282500D02*
X3002500Y-2302500D01*
X3002500Y-2282500D02*
X2982500Y-2302500D01*
X3007500Y-4020000D02*
X3027500Y-4040000D01*
X3027500Y-4020000D02*
X3007500Y-4040000D01*
X3065000Y-2802500D02*
X3085000Y-2822500D01*
X3085000Y-2802500D02*
X3065000Y-2822500D01*
X3065000Y-2802500D02*
X3085000Y-2822500D01*
X3085000Y-2802500D02*
X3065000Y-2822500D01*
X3065000Y-3322500D02*
X3085000Y-3342500D01*
X3085000Y-3322500D02*
X3065000Y-3342500D01*
X3065000Y-3322500D02*
X3085000Y-3342500D01*
X3085000Y-3322500D02*
X3065000Y-3342500D01*
X3070000Y-2632500D02*
X3090000Y-2652500D01*
X3090000Y-2632500D02*
X3070000Y-2652500D01*
X3128000Y-2530500D02*
X3148000Y-2550500D01*
X3148000Y-2530500D02*
X3128000Y-2550500D01*
X3128000Y-2530500D02*
X3148000Y-2550500D01*
X3148000Y-2530500D02*
X3128000Y-2550500D01*
X3132500Y-2532500D02*
X3152500Y-2552500D01*
X3152500Y-2532500D02*
X3132500Y-2552500D01*
X3155000Y-5073750D02*
X3175000Y-5093750D01*
X3175000Y-5073750D02*
X3155000Y-5093750D01*
X3155000Y-5073750D02*
X3175000Y-5093750D01*
X3175000Y-5073750D02*
X3155000Y-5093750D01*
X3182500Y-182500D02*
X3202500Y-202500D01*
X3202500Y-182500D02*
X3182500Y-202500D01*
X3182500Y-2182500D02*
X3202500Y-2202500D01*
X3202500Y-2182500D02*
X3182500Y-2202500D01*
X3206250Y-5865000D02*
X3226250Y-5885000D01*
X3226250Y-5865000D02*
X3206250Y-5885000D01*
X3206250Y-5865000D02*
X3226250Y-5885000D01*
X3226250Y-5865000D02*
X3206250Y-5885000D01*
X3282500Y-4120000D02*
X3302500Y-4140000D01*
X3302500Y-4120000D02*
X3282500Y-4140000D01*
X3290000Y-3290000D02*
X3310000Y-3310000D01*
X3310000Y-3290000D02*
X3290000Y-3310000D01*
X3290000Y-3290000D02*
X3310000Y-3310000D01*
X3310000Y-3290000D02*
X3290000Y-3310000D01*
X3290000Y-3290000D02*
X3310000Y-3310000D01*
X3310000Y-3290000D02*
X3290000Y-3310000D01*
X3290000Y-3290000D02*
X3310000Y-3310000D01*
X3310000Y-3290000D02*
X3290000Y-3310000D01*
X3333529Y-5642279D02*
X3353529Y-5662279D01*
X3353529Y-5642279D02*
X3333529Y-5662279D01*
X3333529Y-5642279D02*
X3353529Y-5662279D01*
X3353529Y-5642279D02*
X3333529Y-5662279D01*
X3346250Y-5365000D02*
X3366250Y-5385000D01*
X3366250Y-5365000D02*
X3346250Y-5385000D01*
X3346250Y-5365000D02*
X3366250Y-5385000D01*
X3366250Y-5365000D02*
X3346250Y-5385000D01*
X3362500Y-4145500D02*
X3382500Y-4165500D01*
X3382500Y-4145500D02*
X3362500Y-4165500D01*
X3362500Y-4145500D02*
X3382500Y-4165500D01*
X3382500Y-4145500D02*
X3362500Y-4165500D01*
X3370000Y-4132500D02*
X3390000Y-4152500D01*
X3390000Y-4132500D02*
X3370000Y-4152500D01*
X3420000Y-4332500D02*
X3440000Y-4352500D01*
X3440000Y-4332500D02*
X3420000Y-4352500D01*
X3420000Y-6382500D02*
X3440000Y-6402500D01*
X3440000Y-6382500D02*
X3420000Y-6402500D01*
X3445000Y-6320000D02*
X3465000Y-6340000D01*
X3465000Y-6320000D02*
X3445000Y-6340000D01*
X3515000Y-3062500D02*
X3535000Y-3082500D01*
X3535000Y-3062500D02*
X3515000Y-3082500D01*
X3515000Y-3062500D02*
X3535000Y-3082500D01*
X3535000Y-3062500D02*
X3515000Y-3082500D01*
X3515000Y-3452500D02*
X3535000Y-3472500D01*
X3535000Y-3452500D02*
X3515000Y-3472500D01*
X3515000Y-3452500D02*
X3535000Y-3472500D01*
X3535000Y-3452500D02*
X3515000Y-3472500D01*
X3520000Y-2532500D02*
X3540000Y-2552500D01*
X3540000Y-2532500D02*
X3520000Y-2552500D01*
X3520000Y-5195000D02*
X3540000Y-5215000D01*
X3540000Y-5195000D02*
X3520000Y-5215000D01*
X3520000Y-5470000D02*
X3540000Y-5490000D01*
X3540000Y-5470000D02*
X3520000Y-5490000D01*
X3523000Y-2530500D02*
X3543000Y-2550500D01*
X3543000Y-2530500D02*
X3523000Y-2550500D01*
X3523000Y-2530500D02*
X3543000Y-2550500D01*
X3543000Y-2530500D02*
X3523000Y-2550500D01*
X3532500Y-4370000D02*
X3552500Y-4390000D01*
X3552500Y-4370000D02*
X3532500Y-4390000D01*
X3545000Y-3820000D02*
X3565000Y-3840000D01*
X3565000Y-3820000D02*
X3545000Y-3840000D01*
X3595000Y-6020000D02*
X3615000Y-6040000D01*
X3615000Y-6020000D02*
X3595000Y-6040000D01*
X3620000Y-5782500D02*
X3640000Y-5802500D01*
X3640000Y-5782500D02*
X3620000Y-5802500D01*
X3641789Y-5124789D02*
X3661789Y-5144789D01*
X3661789Y-5124789D02*
X3641789Y-5144789D01*
X3641789Y-5124789D02*
X3661789Y-5144789D01*
X3661789Y-5124789D02*
X3641789Y-5144789D01*
X3655000Y-3257500D02*
X3675000Y-3277500D01*
X3675000Y-3257500D02*
X3655000Y-3277500D01*
X3655000Y-3257500D02*
X3675000Y-3277500D01*
X3675000Y-3257500D02*
X3655000Y-3277500D01*
X3657500Y-2932500D02*
X3677500Y-2952500D01*
X3677500Y-2932500D02*
X3657500Y-2952500D01*
X3657500Y-3582500D02*
X3677500Y-3602500D01*
X3677500Y-3582500D02*
X3657500Y-3602500D01*
X3682500Y-182500D02*
X3702500Y-202500D01*
X3702500Y-182500D02*
X3682500Y-202500D01*
X3682500Y-1582500D02*
X3702500Y-1602500D01*
X3702500Y-1582500D02*
X3682500Y-1602500D01*
X3682500Y-2282500D02*
X3702500Y-2302500D01*
X3702500Y-2282500D02*
X3682500Y-2302500D01*
X3682500Y-6632500D02*
X3702500Y-6652500D01*
X3702500Y-6632500D02*
X3682500Y-6652500D01*
X3732500Y-3770000D02*
X3752500Y-3790000D01*
X3752500Y-3770000D02*
X3732500Y-3790000D01*
X3732500Y-6045000D02*
X3752500Y-6065000D01*
X3752500Y-6045000D02*
X3732500Y-6065000D01*
X3745000Y-4095000D02*
X3765000Y-4115000D01*
X3765000Y-4095000D02*
X3745000Y-4115000D01*
X3770000Y-4370000D02*
X3790000Y-4390000D01*
X3790000Y-4370000D02*
X3770000Y-4390000D01*
X3773000Y-4120500D02*
X3793000Y-4140500D01*
X3793000Y-4120500D02*
X3773000Y-4140500D01*
X3773000Y-4120500D02*
X3793000Y-4140500D01*
X3793000Y-4120500D02*
X3773000Y-4140500D01*
X3782500Y-4095000D02*
X3802500Y-4115000D01*
X3802500Y-4095000D02*
X3782500Y-4115000D01*
X3807500Y-1695000D02*
X3827500Y-1715000D01*
X3827500Y-1695000D02*
X3807500Y-1715000D01*
X3807500Y-3207500D02*
X3827500Y-3227500D01*
X3827500Y-3207500D02*
X3807500Y-3227500D01*
X3807500Y-5120000D02*
X3827500Y-5140000D01*
X3827500Y-5120000D02*
X3807500Y-5140000D01*
X3812500Y-6045500D02*
X3832500Y-6065500D01*
X3832500Y-6045500D02*
X3812500Y-6065500D01*
X3812500Y-6045500D02*
X3832500Y-6065500D01*
X3832500Y-6045500D02*
X3812500Y-6065500D01*
X3820000Y-3495000D02*
X3840000Y-3515000D01*
X3840000Y-3495000D02*
X3820000Y-3515000D01*
X3820000Y-3595000D02*
X3840000Y-3615000D01*
X3840000Y-3595000D02*
X3820000Y-3615000D01*
X3845000Y-3032500D02*
X3865000Y-3052500D01*
X3865000Y-3032500D02*
X3845000Y-3052500D01*
X3870000Y-5195000D02*
X3890000Y-5215000D01*
X3890000Y-5195000D02*
X3870000Y-5215000D01*
X3982500Y-6045000D02*
X4002500Y-6065000D01*
X4002500Y-6045000D02*
X3982500Y-6065000D01*
X3995000Y-3095000D02*
X4015000Y-3115000D01*
X4015000Y-3095000D02*
X3995000Y-3115000D01*
X3995000Y-5020000D02*
X4015000Y-5040000D01*
X4015000Y-5020000D02*
X3995000Y-5040000D01*
X4007500Y-3407500D02*
X4027500Y-3427500D01*
X4027500Y-3407500D02*
X4007500Y-3427500D01*
X4007500Y-3707500D02*
X4027500Y-3727500D01*
X4027500Y-3707500D02*
X4007500Y-3727500D01*
X4042500Y-4726500D02*
X4062500Y-4746500D01*
X4062500Y-4726500D02*
X4042500Y-4746500D01*
X4042500Y-4726500D02*
X4062500Y-4746500D01*
X4062500Y-4726500D02*
X4042500Y-4746500D01*
X4045000Y-3045000D02*
X4065000Y-3065000D01*
X4065000Y-3045000D02*
X4045000Y-3065000D01*
X4070000Y-2845000D02*
X4090000Y-2865000D01*
X4090000Y-2845000D02*
X4070000Y-2865000D01*
X4070000Y-3732500D02*
X4090000Y-3752500D01*
X4090000Y-3732500D02*
X4070000Y-3752500D01*
X4070000Y-4782500D02*
X4090000Y-4802500D01*
X4090000Y-4782500D02*
X4070000Y-4802500D01*
X4070000Y-5195000D02*
X4090000Y-5215000D01*
X4090000Y-5195000D02*
X4070000Y-5215000D01*
X4082500Y-2620000D02*
X4102500Y-2640000D01*
X4102500Y-2620000D02*
X4082500Y-2640000D01*
X4082500Y-6782500D02*
X4102500Y-6802500D01*
X4102500Y-6782500D02*
X4082500Y-6802500D01*
X4082500Y-7120000D02*
X4102500Y-7140000D01*
X4102500Y-7120000D02*
X4082500Y-7140000D01*
X4095000Y-3845000D02*
X4115000Y-3865000D01*
X4115000Y-3845000D02*
X4095000Y-3865000D01*
X4095000Y-6282500D02*
X4115000Y-6302500D01*
X4115000Y-6282500D02*
X4095000Y-6302500D01*
X4120000Y-3482500D02*
X4140000Y-3502500D01*
X4140000Y-3482500D02*
X4120000Y-3502500D01*
X4132500Y-4720000D02*
X4152500Y-4740000D01*
X4152500Y-4720000D02*
X4132500Y-4740000D01*
X4142500Y-4599500D02*
X4162500Y-4619500D01*
X4162500Y-4599500D02*
X4142500Y-4619500D01*
X4142500Y-4599500D02*
X4162500Y-4619500D01*
X4162500Y-4599500D02*
X4142500Y-4619500D01*
X4142500Y-4980500D02*
X4162500Y-5000500D01*
X4162500Y-4980500D02*
X4142500Y-5000500D01*
X4142500Y-4980500D02*
X4162500Y-5000500D01*
X4162500Y-4980500D02*
X4142500Y-5000500D01*
X4145000Y-4595000D02*
X4165000Y-4615000D01*
X4165000Y-4595000D02*
X4145000Y-4615000D01*
X4145000Y-4982500D02*
X4165000Y-5002500D01*
X4165000Y-4982500D02*
X4145000Y-5002500D01*
X4157500Y-3257500D02*
X4177500Y-3277500D01*
X4177500Y-3257500D02*
X4157500Y-3277500D01*
X4157500Y-4107500D02*
X4177500Y-4127500D01*
X4177500Y-4107500D02*
X4157500Y-4127500D01*
X4162500Y-5745500D02*
X4182500Y-5765500D01*
X4182500Y-5745500D02*
X4162500Y-5765500D01*
X4162500Y-5745500D02*
X4182500Y-5765500D01*
X4182500Y-5745500D02*
X4162500Y-5765500D01*
X4170000Y-5757500D02*
X4190000Y-5777500D01*
X4190000Y-5757500D02*
X4170000Y-5777500D01*
X4173000Y-4120500D02*
X4193000Y-4140500D01*
X4193000Y-4120500D02*
X4173000Y-4140500D01*
X4173000Y-4120500D02*
X4193000Y-4140500D01*
X4193000Y-4120500D02*
X4173000Y-4140500D01*
X4182500Y-182500D02*
X4202500Y-202500D01*
X4202500Y-182500D02*
X4182500Y-202500D01*
X4182500Y-1182500D02*
X4202500Y-1202500D01*
X4202500Y-1182500D02*
X4182500Y-1202500D01*
X4182500Y-2182500D02*
X4202500Y-2202500D01*
X4202500Y-2182500D02*
X4182500Y-2202500D01*
X4207500Y-6095000D02*
X4227500Y-6115000D01*
X4227500Y-6095000D02*
X4207500Y-6115000D01*
X4213211Y-4924211D02*
X4233211Y-4944211D01*
X4233211Y-4924211D02*
X4213211Y-4944211D01*
X4213211Y-4924211D02*
X4233211Y-4944211D01*
X4233211Y-4924211D02*
X4213211Y-4944211D01*
X4220000Y-4270000D02*
X4240000Y-4290000D01*
X4240000Y-4270000D02*
X4220000Y-4290000D01*
X4233211Y-5366211D02*
X4253211Y-5386211D01*
X4253211Y-5366211D02*
X4233211Y-5386211D01*
X4233211Y-5366211D02*
X4253211Y-5386211D01*
X4253211Y-5366211D02*
X4233211Y-5386211D01*
X4262500Y-6045500D02*
X4282500Y-6065500D01*
X4282500Y-6045500D02*
X4262500Y-6065500D01*
X4262500Y-6045500D02*
X4282500Y-6065500D01*
X4282500Y-6045500D02*
X4262500Y-6065500D01*
X4270000Y-2532500D02*
X4290000Y-2552500D01*
X4290000Y-2532500D02*
X4270000Y-2552500D01*
X4282500Y-3857500D02*
X4302500Y-3877500D01*
X4302500Y-3857500D02*
X4282500Y-3877500D01*
X4295711Y-3381789D02*
X4315711Y-3401789D01*
X4315711Y-3381789D02*
X4295711Y-3401789D01*
X4295711Y-3381789D02*
X4315711Y-3401789D01*
X4315711Y-3381789D02*
X4295711Y-3401789D01*
X4295711Y-3393211D02*
X4315711Y-3413211D01*
X4315711Y-3393211D02*
X4295711Y-3413211D01*
X4295711Y-3393211D02*
X4315711Y-3413211D01*
X4315711Y-3393211D02*
X4295711Y-3413211D01*
X4307500Y-7557500D02*
X4327500Y-7577500D01*
X4327500Y-7557500D02*
X4307500Y-7577500D01*
X4325000Y-3387500D02*
X4345000Y-3407500D01*
X4345000Y-3387500D02*
X4325000Y-3407500D01*
X4325000Y-3387500D02*
X4345000Y-3407500D01*
X4345000Y-3387500D02*
X4325000Y-3407500D01*
X4325000Y-3582500D02*
X4345000Y-3602500D01*
X4345000Y-3582500D02*
X4325000Y-3602500D01*
X4325000Y-3582500D02*
X4345000Y-3602500D01*
X4345000Y-3582500D02*
X4325000Y-3602500D01*
X4325000Y-3647500D02*
X4345000Y-3667500D01*
X4345000Y-3647500D02*
X4325000Y-3667500D01*
X4325000Y-3647500D02*
X4345000Y-3667500D01*
X4345000Y-3647500D02*
X4325000Y-3667500D01*
X4325000Y-3712500D02*
X4345000Y-3732500D01*
X4345000Y-3712500D02*
X4325000Y-3732500D01*
X4325000Y-3712500D02*
X4345000Y-3732500D01*
X4345000Y-3712500D02*
X4325000Y-3732500D01*
X4328000Y-2530500D02*
X4348000Y-2550500D01*
X4348000Y-2530500D02*
X4328000Y-2550500D01*
X4328000Y-2530500D02*
X4348000Y-2550500D01*
X4348000Y-2530500D02*
X4328000Y-2550500D01*
X4332500Y-6820000D02*
X4352500Y-6840000D01*
X4352500Y-6820000D02*
X4332500Y-6840000D01*
X4345000Y-5032500D02*
X4365000Y-5052500D01*
X4365000Y-5032500D02*
X4345000Y-5052500D01*
X4365000Y-2802500D02*
X4385000Y-2822500D01*
X4385000Y-2802500D02*
X4365000Y-2822500D01*
X4365000Y-2802500D02*
X4385000Y-2822500D01*
X4385000Y-2802500D02*
X4365000Y-2822500D01*
X4382500Y-182500D02*
X4402500Y-202500D01*
X4402500Y-182500D02*
X4382500Y-202500D01*
X4382500Y-882500D02*
X4402500Y-902500D01*
X4402500Y-882500D02*
X4382500Y-902500D01*
X4382500Y-2282500D02*
X4402500Y-2302500D01*
X4402500Y-2282500D02*
X4382500Y-2302500D01*
X4382500Y-4382500D02*
X4402500Y-4402500D01*
X4402500Y-4382500D02*
X4382500Y-4402500D01*
X4395000Y-6395000D02*
X4415000Y-6415000D01*
X4415000Y-6395000D02*
X4395000Y-6415000D01*
X4407500Y-5270000D02*
X4427500Y-5290000D01*
X4427500Y-5270000D02*
X4407500Y-5290000D01*
X4407500Y-7445000D02*
X4427500Y-7465000D01*
X4427500Y-7445000D02*
X4407500Y-7465000D01*
X4470000Y-7207500D02*
X4490000Y-7227500D01*
X4490000Y-7207500D02*
X4470000Y-7227500D01*
X4495000Y-4357500D02*
X4515000Y-4377500D01*
X4515000Y-4357500D02*
X4495000Y-4377500D01*
X4532500Y-7557500D02*
X4552500Y-7577500D01*
X4552500Y-7557500D02*
X4532500Y-7577500D01*
X4545000Y-5470000D02*
X4565000Y-5490000D01*
X4565000Y-5470000D02*
X4545000Y-5490000D01*
X4545000Y-5982500D02*
X4565000Y-6002500D01*
X4565000Y-5982500D02*
X4545000Y-6002500D01*
X4572500Y-7590000D02*
X4592500Y-7610000D01*
X4592500Y-7590000D02*
X4572500Y-7610000D01*
X4572500Y-7590000D02*
X4592500Y-7610000D01*
X4592500Y-7590000D02*
X4572500Y-7610000D01*
X4590000Y-3290000D02*
X4610000Y-3310000D01*
X4610000Y-3290000D02*
X4590000Y-3310000D01*
X4590000Y-3290000D02*
X4610000Y-3310000D01*
X4610000Y-3290000D02*
X4590000Y-3310000D01*
X4590000Y-3290000D02*
X4610000Y-3310000D01*
X4610000Y-3290000D02*
X4590000Y-3310000D01*
X4590000Y-3290000D02*
X4610000Y-3310000D01*
X4610000Y-3290000D02*
X4590000Y-3310000D01*
X4595000Y-5020000D02*
X4615000Y-5040000D01*
X4615000Y-5020000D02*
X4595000Y-5040000D01*
X4645000Y-4582500D02*
X4665000Y-4602500D01*
X4665000Y-4582500D02*
X4645000Y-4602500D01*
X4645000Y-5882500D02*
X4665000Y-5902500D01*
X4665000Y-5882500D02*
X4645000Y-5902500D01*
X4657500Y-4882500D02*
X4677500Y-4902500D01*
X4677500Y-4882500D02*
X4657500Y-4902500D01*
X4745000Y-5282500D02*
X4765000Y-5302500D01*
X4765000Y-5282500D02*
X4745000Y-5302500D01*
X4807500Y-2695000D02*
X4827500Y-2715000D01*
X4827500Y-2695000D02*
X4807500Y-2715000D01*
X4815000Y-3062500D02*
X4835000Y-3082500D01*
X4835000Y-3062500D02*
X4815000Y-3082500D01*
X4815000Y-3062500D02*
X4835000Y-3082500D01*
X4835000Y-3062500D02*
X4815000Y-3082500D01*
X4815000Y-3257500D02*
X4835000Y-3277500D01*
X4835000Y-3257500D02*
X4815000Y-3277500D01*
X4815000Y-3257500D02*
X4835000Y-3277500D01*
X4835000Y-3257500D02*
X4815000Y-3277500D01*
X4815000Y-3452500D02*
X4835000Y-3472500D01*
X4835000Y-3452500D02*
X4815000Y-3472500D01*
X4815000Y-3452500D02*
X4835000Y-3472500D01*
X4835000Y-3452500D02*
X4815000Y-3472500D01*
X4820000Y-2607500D02*
X4840000Y-2627500D01*
X4840000Y-2607500D02*
X4820000Y-2627500D01*
X4832500Y-4007500D02*
X4852500Y-4027500D01*
X4852500Y-4007500D02*
X4832500Y-4027500D01*
X4857500Y-5595000D02*
X4877500Y-5615000D01*
X4877500Y-5595000D02*
X4857500Y-5615000D01*
X4860711Y-6460711D02*
X4880711Y-6480711D01*
X4880711Y-6460711D02*
X4860711Y-6480711D01*
X4860711Y-6460711D02*
X4880711Y-6480711D01*
X4880711Y-6460711D02*
X4860711Y-6480711D01*
X4870000Y-5870000D02*
X4890000Y-5890000D01*
X4890000Y-5870000D02*
X4870000Y-5890000D01*
X4920000Y-6045000D02*
X4940000Y-6065000D01*
X4940000Y-6045000D02*
X4920000Y-6065000D01*
X4957500Y-2732500D02*
X4977500Y-2752500D01*
X4977500Y-2732500D02*
X4957500Y-2752500D01*
X4957500Y-2932500D02*
X4977500Y-2952500D01*
X4977500Y-2932500D02*
X4957500Y-2952500D01*
X4957500Y-3582500D02*
X4977500Y-3602500D01*
X4977500Y-3582500D02*
X4957500Y-3602500D01*
X4957500Y-3782500D02*
X4977500Y-3802500D01*
X4977500Y-3782500D02*
X4957500Y-3802500D01*
X5007500Y-4020000D02*
X5027500Y-4040000D01*
X5027500Y-4020000D02*
X5007500Y-4040000D01*
X5020000Y-5545000D02*
X5040000Y-5565000D01*
X5040000Y-5545000D02*
X5020000Y-5565000D01*
X5025039Y-6150539D02*
X5045039Y-6170539D01*
X5045039Y-6150539D02*
X5025039Y-6170539D01*
X5025039Y-6150539D02*
X5045039Y-6170539D01*
X5045039Y-6150539D02*
X5025039Y-6170539D01*
X5032500Y-5745000D02*
X5052500Y-5765000D01*
X5052500Y-5745000D02*
X5032500Y-5765000D01*
X5057500Y-3120000D02*
X5077500Y-3140000D01*
X5077500Y-3120000D02*
X5057500Y-3140000D01*
X5057500Y-3320000D02*
X5077500Y-3340000D01*
X5077500Y-3320000D02*
X5057500Y-3340000D01*
X5057500Y-3507500D02*
X5077500Y-3527500D01*
X5077500Y-3507500D02*
X5057500Y-3527500D01*
X5070000Y-3945000D02*
X5090000Y-3965000D01*
X5090000Y-3945000D02*
X5070000Y-3965000D01*
X5082500Y-182500D02*
X5102500Y-202500D01*
X5102500Y-182500D02*
X5082500Y-202500D01*
X5082500Y-882500D02*
X5102500Y-902500D01*
X5102500Y-882500D02*
X5082500Y-902500D01*
X5082500Y-1582500D02*
X5102500Y-1602500D01*
X5102500Y-1582500D02*
X5082500Y-1602500D01*
X5082500Y-2282500D02*
X5102500Y-2302500D01*
X5102500Y-2282500D02*
X5082500Y-2302500D01*
X5082500Y-4270000D02*
X5102500Y-4290000D01*
X5102500Y-4270000D02*
X5082500Y-4290000D01*
X5082500Y-4382500D02*
X5102500Y-4402500D01*
X5102500Y-4382500D02*
X5082500Y-4402500D01*
X5082500Y-7182500D02*
X5102500Y-7202500D01*
X5102500Y-7182500D02*
X5082500Y-7202500D01*
X5132500Y-6007500D02*
X5152500Y-6027500D01*
X5152500Y-6007500D02*
X5132500Y-6027500D01*
X5142706Y-5600794D02*
X5162706Y-5620794D01*
X5162706Y-5600794D02*
X5142706Y-5620794D01*
X5142706Y-5600794D02*
X5162706Y-5620794D01*
X5162706Y-5600794D02*
X5142706Y-5620794D01*
X5145000Y-6157500D02*
X5165000Y-6177500D01*
X5165000Y-6157500D02*
X5145000Y-6177500D01*
X5182500Y-182500D02*
X5202500Y-202500D01*
X5202500Y-182500D02*
X5182500Y-202500D01*
X5182500Y-1182500D02*
X5202500Y-1202500D01*
X5202500Y-1182500D02*
X5182500Y-1202500D01*
X5182500Y-2182500D02*
X5202500Y-2202500D01*
X5202500Y-2182500D02*
X5182500Y-2202500D01*
X5182500Y-5182500D02*
X5202500Y-5202500D01*
X5202500Y-5182500D02*
X5182500Y-5202500D01*
X5182500Y-7182500D02*
X5202500Y-7202500D01*
X5202500Y-7182500D02*
X5182500Y-7202500D01*
X5195000Y-4607500D02*
X5215000Y-4627500D01*
X5215000Y-4607500D02*
X5195000Y-4627500D01*
X5220000Y-3145000D02*
X5240000Y-3165000D01*
X5240000Y-3145000D02*
X5220000Y-3165000D01*
X5220000Y-3670000D02*
X5240000Y-3690000D01*
X5240000Y-3670000D02*
X5220000Y-3690000D01*
X5220000Y-5557500D02*
X5240000Y-5577500D01*
X5240000Y-5557500D02*
X5220000Y-5577500D01*
X5232500Y-6220000D02*
X5252500Y-6240000D01*
X5252500Y-6220000D02*
X5232500Y-6240000D01*
X5320000Y-2982500D02*
X5340000Y-3002500D01*
X5340000Y-2982500D02*
X5320000Y-3002500D01*
X5345000Y-4457500D02*
X5365000Y-4477500D01*
X5365000Y-4457500D02*
X5345000Y-4477500D01*
X5367500Y-7590000D02*
X5387500Y-7610000D01*
X5387500Y-7590000D02*
X5367500Y-7610000D01*
X5367500Y-7590000D02*
X5387500Y-7610000D01*
X5387500Y-7590000D02*
X5367500Y-7610000D01*
X5370000Y-6807500D02*
X5390000Y-6827500D01*
X5390000Y-6807500D02*
X5370000Y-6827500D01*
X5378000Y-4100500D02*
X5398000Y-4120500D01*
X5398000Y-4100500D02*
X5378000Y-4120500D01*
X5378000Y-4100500D02*
X5398000Y-4120500D01*
X5398000Y-4100500D02*
X5378000Y-4120500D01*
X5382500Y-1695000D02*
X5402500Y-1715000D01*
X5402500Y-1695000D02*
X5382500Y-1715000D01*
X5395000Y-3982500D02*
X5415000Y-4002500D01*
X5415000Y-3982500D02*
X5395000Y-4002500D01*
X5395000Y-6020000D02*
X5415000Y-6040000D01*
X5415000Y-6020000D02*
X5395000Y-6040000D01*
X5407500Y-3882500D02*
X5427500Y-3902500D01*
X5427500Y-3882500D02*
X5407500Y-3902500D01*
X5432500Y-3170000D02*
X5452500Y-3190000D01*
X5452500Y-3170000D02*
X5432500Y-3190000D01*
X5473000Y-5770500D02*
X5493000Y-5790500D01*
X5493000Y-5770500D02*
X5473000Y-5790500D01*
X5473000Y-5770500D02*
X5493000Y-5790500D01*
X5493000Y-5770500D02*
X5473000Y-5790500D01*
X5498039Y-6253789D02*
X5518039Y-6273789D01*
X5518039Y-6253789D02*
X5498039Y-6273789D01*
X5498039Y-6253789D02*
X5518039Y-6273789D01*
X5518039Y-6253789D02*
X5498039Y-6273789D01*
X5520000Y-5695000D02*
X5540000Y-5715000D01*
X5540000Y-5695000D02*
X5520000Y-5715000D01*
X5557500Y-5282500D02*
X5577500Y-5302500D01*
X5577500Y-5282500D02*
X5557500Y-5302500D01*
X5570000Y-6020000D02*
X5590000Y-6040000D01*
X5590000Y-6020000D02*
X5570000Y-6040000D01*
X5582500Y-5695000D02*
X5602500Y-5715000D01*
X5602500Y-5695000D02*
X5582500Y-5715000D01*
X5607500Y-3257500D02*
X5627500Y-3277500D01*
X5627500Y-3257500D02*
X5607500Y-3277500D01*
X5607500Y-7595000D02*
X5627500Y-7615000D01*
X5627500Y-7595000D02*
X5607500Y-7615000D01*
X5632500Y-5195000D02*
X5652500Y-5215000D01*
X5652500Y-5195000D02*
X5632500Y-5215000D01*
X5657500Y-2432500D02*
X5677500Y-2452500D01*
X5677500Y-2432500D02*
X5657500Y-2452500D01*
X5657500Y-5482500D02*
X5677500Y-5502500D01*
X5677500Y-5482500D02*
X5657500Y-5502500D01*
X5757500Y-5870000D02*
X5777500Y-5890000D01*
X5777500Y-5870000D02*
X5757500Y-5890000D01*
X5770000Y-1807500D02*
X5790000Y-1827500D01*
X5790000Y-1807500D02*
X5770000Y-1827500D01*
X5782500Y-182500D02*
X5802500Y-202500D01*
X5802500Y-182500D02*
X5782500Y-202500D01*
X5782500Y-882500D02*
X5802500Y-902500D01*
X5802500Y-882500D02*
X5782500Y-902500D01*
X5795000Y-6770000D02*
X5815000Y-6790000D01*
X5815000Y-6770000D02*
X5795000Y-6790000D01*
X5795000Y-6932500D02*
X5815000Y-6952500D01*
X5815000Y-6932500D02*
X5795000Y-6952500D01*
X5820000Y-6607500D02*
X5840000Y-6627500D01*
X5840000Y-6607500D02*
X5820000Y-6627500D01*
X5882500Y-1307500D02*
X5902500Y-1327500D01*
X5902500Y-1307500D02*
X5882500Y-1327500D01*
X5928000Y-1020500D02*
X5948000Y-1040500D01*
X5948000Y-1020500D02*
X5928000Y-1040500D01*
X5928000Y-1020500D02*
X5948000Y-1040500D01*
X5948000Y-1020500D02*
X5928000Y-1040500D01*
X5932500Y-1520000D02*
X5952500Y-1540000D01*
X5952500Y-1520000D02*
X5932500Y-1540000D01*
X5957500Y-5720000D02*
X5977500Y-5740000D01*
X5977500Y-5720000D02*
X5957500Y-5740000D01*
X5970000Y-6595000D02*
X5990000Y-6615000D01*
X5990000Y-6595000D02*
X5970000Y-6615000D01*
X5982500Y-4645000D02*
X6002500Y-4665000D01*
X6002500Y-4645000D02*
X5982500Y-4665000D01*
X6007500Y-2507500D02*
X6027500Y-2527500D01*
X6027500Y-2507500D02*
X6007500Y-2527500D01*
X6032500Y-1270000D02*
X6052500Y-1290000D01*
X6052500Y-1270000D02*
X6032500Y-1290000D01*
X6032500Y-4320000D02*
X6052500Y-4340000D01*
X6052500Y-4320000D02*
X6032500Y-4340000D01*
X6132500Y-5007500D02*
X6152500Y-5027500D01*
X6152500Y-5007500D02*
X6132500Y-5027500D01*
X6132500Y-5057500D02*
X6152500Y-5077500D01*
X6152500Y-5057500D02*
X6132500Y-5077500D01*
X6132500Y-5295000D02*
X6152500Y-5315000D01*
X6152500Y-5295000D02*
X6132500Y-5315000D01*
X6170000Y-4345000D02*
X6190000Y-4365000D01*
X6190000Y-4345000D02*
X6170000Y-4365000D01*
X6172500Y-4340000D02*
X6192500Y-4360000D01*
X6192500Y-4340000D02*
X6172500Y-4360000D01*
X6172500Y-4340000D02*
X6192500Y-4360000D01*
X6192500Y-4340000D02*
X6172500Y-4360000D01*
X6182500Y-1395000D02*
X6202500Y-1415000D01*
X6202500Y-1395000D02*
X6182500Y-1415000D01*
X6182500Y-2182500D02*
X6202500Y-2202500D01*
X6202500Y-2182500D02*
X6182500Y-2202500D01*
X6182500Y-3182500D02*
X6202500Y-3202500D01*
X6202500Y-3182500D02*
X6182500Y-3202500D01*
X6182500Y-5157500D02*
X6202500Y-5177500D01*
X6202500Y-5157500D02*
X6182500Y-5177500D01*
X6207500Y-4932500D02*
X6227500Y-4952500D01*
X6227500Y-4932500D02*
X6207500Y-4952500D01*
X6245000Y-6532500D02*
X6265000Y-6552500D01*
X6265000Y-6532500D02*
X6245000Y-6552500D01*
X6257500Y-3907500D02*
X6277500Y-3927500D01*
X6277500Y-3907500D02*
X6257500Y-3927500D01*
X6270000Y-5432500D02*
X6290000Y-5452500D01*
X6290000Y-5432500D02*
X6270000Y-5452500D01*
X6282500Y-1020000D02*
X6302500Y-1040000D01*
X6302500Y-1020000D02*
X6282500Y-1040000D01*
X6395000Y-5207500D02*
X6415000Y-5227500D01*
X6415000Y-5207500D02*
X6395000Y-5227500D01*
X6407500Y-3732500D02*
X6427500Y-3752500D01*
X6427500Y-3732500D02*
X6407500Y-3752500D01*
X6415294Y-4679706D02*
X6435294Y-4699706D01*
X6435294Y-4679706D02*
X6415294Y-4699706D01*
X6415294Y-4679706D02*
X6435294Y-4699706D01*
X6435294Y-4679706D02*
X6415294Y-4699706D01*
X6432500Y-2020000D02*
X6452500Y-2040000D01*
X6452500Y-2020000D02*
X6432500Y-2040000D01*
X6432500Y-4345000D02*
X6452500Y-4365000D01*
X6452500Y-4345000D02*
X6432500Y-4365000D01*
X6445000Y-3907500D02*
X6465000Y-3927500D01*
X6465000Y-3907500D02*
X6445000Y-3927500D01*
X6470000Y-3420000D02*
X6490000Y-3440000D01*
X6490000Y-3420000D02*
X6470000Y-3440000D01*
X6482500Y-2282500D02*
X6502500Y-2302500D01*
X6502500Y-2282500D02*
X6482500Y-2302500D01*
X6482500Y-5345000D02*
X6502500Y-5365000D01*
X6502500Y-5345000D02*
X6482500Y-5365000D01*
X6495000Y-4845000D02*
X6515000Y-4865000D01*
X6515000Y-4845000D02*
X6495000Y-4865000D01*
X6495000Y-5470000D02*
X6515000Y-5490000D01*
X6515000Y-5470000D02*
X6495000Y-5490000D01*
X6520000Y-4670000D02*
X6540000Y-4690000D01*
X6540000Y-4670000D02*
X6520000Y-4690000D01*
X6523000Y-4820500D02*
X6543000Y-4840500D01*
X6543000Y-4820500D02*
X6523000Y-4840500D01*
X6523000Y-4820500D02*
X6543000Y-4840500D01*
X6543000Y-4820500D02*
X6523000Y-4840500D01*
X6582500Y-5720000D02*
X6602500Y-5740000D01*
X6602500Y-5720000D02*
X6582500Y-5740000D01*
X6607500Y-3470000D02*
X6627500Y-3490000D01*
X6627500Y-3470000D02*
X6607500Y-3490000D01*
X6607500Y-5170000D02*
X6627500Y-5190000D01*
X6627500Y-5170000D02*
X6607500Y-5190000D01*
X6607500Y-5482500D02*
X6627500Y-5502500D01*
X6627500Y-5482500D02*
X6607500Y-5502500D01*
X6632500Y-1807500D02*
X6652500Y-1827500D01*
X6652500Y-1807500D02*
X6632500Y-1827500D01*
X6670000Y-5295000D02*
X6690000Y-5315000D01*
X6690000Y-5295000D02*
X6670000Y-5315000D01*
X6732500Y-4632500D02*
X6752500Y-4652500D01*
X6752500Y-4632500D02*
X6732500Y-4652500D01*
X6732500Y-4957500D02*
X6752500Y-4977500D01*
X6752500Y-4957500D02*
X6732500Y-4977500D01*
X6795000Y-4370000D02*
X6815000Y-4390000D01*
X6815000Y-4370000D02*
X6795000Y-4390000D01*
X6802500Y-5345500D02*
X6822500Y-5365500D01*
X6822500Y-5345500D02*
X6802500Y-5365500D01*
X6802500Y-5345500D02*
X6822500Y-5365500D01*
X6822500Y-5345500D02*
X6802500Y-5365500D01*
X6810000Y-2690000D02*
X6830000Y-2710000D01*
X6830000Y-2690000D02*
X6810000Y-2710000D01*
X6810000Y-2690000D02*
X6830000Y-2710000D01*
X6830000Y-2690000D02*
X6810000Y-2710000D01*
X6810000Y-3790000D02*
X6830000Y-3810000D01*
X6830000Y-3790000D02*
X6810000Y-3810000D01*
X6810000Y-3790000D02*
X6830000Y-3810000D01*
X6830000Y-3790000D02*
X6810000Y-3810000D01*
X6857500Y-1582500D02*
X6877500Y-1602500D01*
X6877500Y-1582500D02*
X6857500Y-1602500D01*
X6870000Y-5095000D02*
X6890000Y-5115000D01*
X6890000Y-5095000D02*
X6870000Y-5115000D01*
X6895000Y-4707500D02*
X6915000Y-4727500D01*
X6915000Y-4707500D02*
X6895000Y-4727500D01*
X6895000Y-4957500D02*
X6915000Y-4977500D01*
X6915000Y-4957500D02*
X6895000Y-4977500D01*
X6907500Y-5957500D02*
X6927500Y-5977500D01*
X6927500Y-5957500D02*
X6907500Y-5977500D01*
X6923000Y-5250500D02*
X6943000Y-5270500D01*
X6943000Y-5250500D02*
X6923000Y-5270500D01*
X6923000Y-5250500D02*
X6943000Y-5270500D01*
X6943000Y-5250500D02*
X6923000Y-5270500D01*
X6957500Y-1895000D02*
X6977500Y-1915000D01*
X6977500Y-1895000D02*
X6957500Y-1915000D01*
X6985000Y-3470000D02*
X7005000Y-3490000D01*
X7005000Y-3470000D02*
X6985000Y-3490000D01*
X6985000Y-3470000D02*
X7005000Y-3490000D01*
X7005000Y-3470000D02*
X6985000Y-3490000D01*
X6985000Y-4370000D02*
X7005000Y-4390000D01*
X7005000Y-4370000D02*
X6985000Y-4390000D01*
X6985000Y-4370000D02*
X7005000Y-4390000D01*
X7005000Y-4370000D02*
X6985000Y-4390000D01*
X7020000Y-3470000D02*
X7040000Y-3490000D01*
X7040000Y-3470000D02*
X7020000Y-3490000D01*
X7032500Y-4770000D02*
X7052500Y-4790000D01*
X7052500Y-4770000D02*
X7032500Y-4790000D01*
X7125000Y-5562500D02*
X7145000Y-5582500D01*
X7145000Y-5562500D02*
X7125000Y-5582500D01*
X7125000Y-5562500D02*
X7145000Y-5582500D01*
X7145000Y-5562500D02*
X7125000Y-5582500D01*
X7182500Y-182500D02*
X7202500Y-202500D01*
X7202500Y-182500D02*
X7182500Y-202500D01*
X7182500Y-882500D02*
X7202500Y-902500D01*
X7202500Y-882500D02*
X7182500Y-902500D01*
X7182500Y-2182500D02*
X7202500Y-2202500D01*
X7202500Y-2182500D02*
X7182500Y-2202500D01*
X7182500Y-2282500D02*
X7202500Y-2302500D01*
X7202500Y-2282500D02*
X7182500Y-2302500D01*
X7182500Y-2982500D02*
X7202500Y-3002500D01*
X7202500Y-2982500D02*
X7182500Y-3002500D01*
X7182500Y-3182500D02*
X7202500Y-3202500D01*
X7202500Y-3182500D02*
X7182500Y-3202500D01*
X7182500Y-4182500D02*
X7202500Y-4202500D01*
X7202500Y-4182500D02*
X7182500Y-4202500D01*
X7182500Y-4382500D02*
X7202500Y-4402500D01*
X7202500Y-4382500D02*
X7182500Y-4402500D01*
X7182500Y-5782500D02*
X7202500Y-5802500D01*
X7202500Y-5782500D02*
X7182500Y-5802500D01*
X7182500Y-6482500D02*
X7202500Y-6502500D01*
X7202500Y-6482500D02*
X7182500Y-6502500D01*
X7195000Y-4695000D02*
X7215000Y-4715000D01*
X7215000Y-4695000D02*
X7195000Y-4715000D01*
X7282500Y-4995000D02*
X7302500Y-5015000D01*
X7302500Y-4995000D02*
X7282500Y-5015000D01*
X7295000Y-3082500D02*
X7315000Y-3102500D01*
X7315000Y-3082500D02*
X7295000Y-3102500D01*
X7328000Y-5270500D02*
X7348000Y-5290500D01*
X7348000Y-5270500D02*
X7328000Y-5290500D01*
X7328000Y-5270500D02*
X7348000Y-5290500D01*
X7348000Y-5270500D02*
X7328000Y-5290500D01*
X7357500Y-2757500D02*
X7377500Y-2777500D01*
X7377500Y-2757500D02*
X7357500Y-2777500D01*
X7357500Y-3795000D02*
X7377500Y-3815000D01*
X7377500Y-3795000D02*
X7357500Y-3815000D01*
X7395000Y-7532500D02*
X7415000Y-7552500D01*
X7415000Y-7532500D02*
X7395000Y-7552500D01*
X7420000Y-3457500D02*
X7440000Y-3477500D01*
X7440000Y-3457500D02*
X7420000Y-3477500D01*
X7443211Y-3369289D02*
X7463211Y-3389289D01*
X7463211Y-3369289D02*
X7443211Y-3389289D01*
X7443211Y-3369289D02*
X7463211Y-3389289D01*
X7463211Y-3369289D02*
X7443211Y-3389289D01*
X7445000Y-4063000D02*
X7465000Y-4083000D01*
X7465000Y-4063000D02*
X7445000Y-4083000D01*
X7445000Y-4063000D02*
X7465000Y-4083000D01*
X7465000Y-4063000D02*
X7445000Y-4083000D01*
X7445000Y-4190000D02*
X7465000Y-4210000D01*
X7465000Y-4190000D02*
X7445000Y-4210000D01*
X7445000Y-4190000D02*
X7465000Y-4210000D01*
X7465000Y-4190000D02*
X7445000Y-4210000D01*
X7445000Y-4624000D02*
X7465000Y-4644000D01*
X7465000Y-4624000D02*
X7445000Y-4644000D01*
X7445000Y-4624000D02*
X7465000Y-4644000D01*
X7465000Y-4624000D02*
X7445000Y-4644000D01*
X7457500Y-5320000D02*
X7477500Y-5340000D01*
X7477500Y-5320000D02*
X7457500Y-5340000D01*
X7457500Y-7182500D02*
X7477500Y-7202500D01*
X7477500Y-7182500D02*
X7457500Y-7202500D01*
X7485000Y-4690000D02*
X7505000Y-4710000D01*
X7505000Y-4690000D02*
X7485000Y-4710000D01*
X7485000Y-4690000D02*
X7505000Y-4710000D01*
X7505000Y-4690000D02*
X7485000Y-4710000D01*
X7495000Y-1782500D02*
X7515000Y-1802500D01*
X7515000Y-1782500D02*
X7495000Y-1802500D01*
X7507500Y-5482500D02*
X7527500Y-5502500D01*
X7527500Y-5482500D02*
X7507500Y-5502500D01*
X7520000Y-6070000D02*
X7540000Y-6090000D01*
X7540000Y-6070000D02*
X7520000Y-6090000D01*
X7520000Y-6957500D02*
X7540000Y-6977500D01*
X7540000Y-6957500D02*
X7520000Y-6977500D01*
X7520000Y-7082500D02*
X7540000Y-7102500D01*
X7540000Y-7082500D02*
X7520000Y-7102500D01*
X7520000Y-7332500D02*
X7540000Y-7352500D01*
X7540000Y-7332500D02*
X7520000Y-7352500D01*
X7532206Y-5165206D02*
X7552206Y-5185206D01*
X7552206Y-5165206D02*
X7532206Y-5185206D01*
X7532206Y-5165206D02*
X7552206Y-5185206D01*
X7552206Y-5165206D02*
X7532206Y-5185206D01*
X7537500Y-3690000D02*
X7557500Y-3710000D01*
X7557500Y-3690000D02*
X7537500Y-3710000D01*
X7537500Y-3690000D02*
X7557500Y-3710000D01*
X7557500Y-3690000D02*
X7537500Y-3710000D01*
X7582500Y-3970000D02*
X7602500Y-3990000D01*
X7602500Y-3970000D02*
X7582500Y-3990000D01*
X7582500Y-6682500D02*
X7602500Y-6702500D01*
X7602500Y-6682500D02*
X7582500Y-6702500D01*
X7582500Y-6807500D02*
X7602500Y-6827500D01*
X7602500Y-6807500D02*
X7582500Y-6827500D01*
X7607500Y-4607500D02*
X7627500Y-4627500D01*
X7627500Y-4607500D02*
X7607500Y-4627500D01*
X7620000Y-3732500D02*
X7640000Y-3752500D01*
X7640000Y-3732500D02*
X7620000Y-3752500D01*
X7632500Y-5132500D02*
X7652500Y-5152500D01*
X7652500Y-5132500D02*
X7632500Y-5152500D01*
X7657500Y-4770000D02*
X7677500Y-4790000D01*
X7677500Y-4770000D02*
X7657500Y-4790000D01*
X7657500Y-4857500D02*
X7677500Y-4877500D01*
X7677500Y-4857500D02*
X7657500Y-4877500D01*
X7657500Y-7195000D02*
X7677500Y-7215000D01*
X7677500Y-7195000D02*
X7657500Y-7215000D01*
X7670000Y-4145000D02*
X7690000Y-4165000D01*
X7690000Y-4145000D02*
X7670000Y-4165000D01*
X7682500Y-1595000D02*
X7702500Y-1615000D01*
X7702500Y-1595000D02*
X7682500Y-1615000D01*
X7684706Y-7546294D02*
X7704706Y-7566294D01*
X7704706Y-7546294D02*
X7684706Y-7566294D01*
X7684706Y-7546294D02*
X7704706Y-7566294D01*
X7704706Y-7546294D02*
X7684706Y-7566294D01*
X7728000Y-5510500D02*
X7748000Y-5530500D01*
X7748000Y-5510500D02*
X7728000Y-5530500D01*
X7728000Y-5510500D02*
X7748000Y-5530500D01*
X7748000Y-5510500D02*
X7728000Y-5530500D01*
X7732500Y-6195000D02*
X7752500Y-6215000D01*
X7752500Y-6195000D02*
X7732500Y-6215000D01*
X7745000Y-7195000D02*
X7765000Y-7215000D01*
X7765000Y-7195000D02*
X7745000Y-7215000D01*
X7767500Y-3440000D02*
X7787500Y-3460000D01*
X7787500Y-3440000D02*
X7767500Y-3460000D01*
X7767500Y-3440000D02*
X7787500Y-3460000D01*
X7787500Y-3440000D02*
X7767500Y-3460000D01*
X7807500Y-4345000D02*
X7827500Y-4365000D01*
X7827500Y-4345000D02*
X7807500Y-4365000D01*
X7820000Y-5945000D02*
X7840000Y-5965000D01*
X7840000Y-5945000D02*
X7820000Y-5965000D01*
X7832500Y-7195000D02*
X7852500Y-7215000D01*
X7852500Y-7195000D02*
X7832500Y-7215000D01*
X7867500Y-3790000D02*
X7887500Y-3810000D01*
X7887500Y-3790000D02*
X7867500Y-3810000D01*
X7867500Y-3790000D02*
X7887500Y-3810000D01*
X7887500Y-3790000D02*
X7867500Y-3810000D01*
X7882500Y-182500D02*
X7902500Y-202500D01*
X7902500Y-182500D02*
X7882500Y-202500D01*
X7882500Y-882500D02*
X7902500Y-902500D01*
X7902500Y-882500D02*
X7882500Y-902500D01*
X7882500Y-2282500D02*
X7902500Y-2302500D01*
X7902500Y-2282500D02*
X7882500Y-2302500D01*
X7882500Y-2982500D02*
X7902500Y-3002500D01*
X7902500Y-2982500D02*
X7882500Y-3002500D01*
X7882500Y-5582500D02*
X7902500Y-5602500D01*
X7902500Y-5582500D02*
X7882500Y-5602500D01*
X7882500Y-6482500D02*
X7902500Y-6502500D01*
X7902500Y-6482500D02*
X7882500Y-6502500D01*
X7894706Y-5732206D02*
X7914706Y-5752206D01*
X7914706Y-5732206D02*
X7894706Y-5752206D01*
X7894706Y-5732206D02*
X7914706Y-5752206D01*
X7914706Y-5732206D02*
X7894706Y-5752206D01*
X7895000Y-5045000D02*
X7915000Y-5065000D01*
X7915000Y-5045000D02*
X7895000Y-5065000D01*
X7900279Y-4893221D02*
X7920279Y-4913221D01*
X7920279Y-4893221D02*
X7900279Y-4913221D01*
X7900279Y-4893221D02*
X7920279Y-4913221D01*
X7920279Y-4893221D02*
X7900279Y-4913221D01*
X7920000Y-6082500D02*
X7940000Y-6102500D01*
X7940000Y-6082500D02*
X7920000Y-6102500D01*
X7932500Y-5270000D02*
X7952500Y-5290000D01*
X7952500Y-5270000D02*
X7932500Y-5290000D01*
X7945000Y-5945000D02*
X7965000Y-5965000D01*
X7965000Y-5945000D02*
X7945000Y-5965000D01*
X7957500Y-4895000D02*
X7977500Y-4915000D01*
X7977500Y-4895000D02*
X7957500Y-4915000D01*
X7982500Y-1907500D02*
X8002500Y-1927500D01*
X8002500Y-1907500D02*
X7982500Y-1927500D01*
X7982500Y-5732500D02*
X8002500Y-5752500D01*
X8002500Y-5732500D02*
X7982500Y-5752500D01*
X7995000Y-3732500D02*
X8015000Y-3752500D01*
X8015000Y-3732500D02*
X7995000Y-3752500D01*
X8007500Y-4107500D02*
X8027500Y-4127500D01*
X8027500Y-4107500D02*
X8007500Y-4127500D01*
X8007500Y-4395000D02*
X8027500Y-4415000D01*
X8027500Y-4395000D02*
X8007500Y-4415000D01*
X8057500Y-1457500D02*
X8077500Y-1477500D01*
X8077500Y-1457500D02*
X8057500Y-1477500D01*
X8057500Y-4320000D02*
X8077500Y-4340000D01*
X8077500Y-4320000D02*
X8057500Y-4340000D01*
X8057500Y-5945000D02*
X8077500Y-5965000D01*
X8077500Y-5945000D02*
X8057500Y-5965000D01*
X8095000Y-4532500D02*
X8115000Y-4552500D01*
X8115000Y-4532500D02*
X8095000Y-4552500D01*
X8095000Y-4757500D02*
X8115000Y-4777500D01*
X8115000Y-4757500D02*
X8095000Y-4777500D01*
X8170000Y-1920000D02*
X8190000Y-1940000D01*
X8190000Y-1920000D02*
X8170000Y-1940000D01*
X8170000Y-3720000D02*
X8190000Y-3740000D01*
X8190000Y-3720000D02*
X8170000Y-3740000D01*
X8170000Y-5220000D02*
X8190000Y-5240000D01*
X8190000Y-5220000D02*
X8170000Y-5240000D01*
X8182500Y-182500D02*
X8202500Y-202500D01*
X8202500Y-182500D02*
X8182500Y-202500D01*
X8182500Y-3182500D02*
X8202500Y-3202500D01*
X8202500Y-3182500D02*
X8182500Y-3202500D01*
X8182500Y-6182500D02*
X8202500Y-6202500D01*
X8202500Y-6182500D02*
X8182500Y-6202500D01*
X8207500Y-5595000D02*
X8227500Y-5615000D01*
X8227500Y-5595000D02*
X8207500Y-5615000D01*
X8220000Y-1595000D02*
X8240000Y-1615000D01*
X8240000Y-1595000D02*
X8220000Y-1615000D01*
X8245000Y-3845000D02*
X8265000Y-3865000D01*
X8265000Y-3845000D02*
X8245000Y-3865000D01*
X8257500Y-4607500D02*
X8277500Y-4627500D01*
X8277500Y-4607500D02*
X8257500Y-4627500D01*
X8260000Y-2690000D02*
X8280000Y-2710000D01*
X8280000Y-2690000D02*
X8260000Y-2710000D01*
X8260000Y-2690000D02*
X8280000Y-2710000D01*
X8280000Y-2690000D02*
X8260000Y-2710000D01*
X8275000Y-4760000D02*
X8295000Y-4780000D01*
X8295000Y-4760000D02*
X8275000Y-4780000D01*
X8275000Y-4760000D02*
X8295000Y-4780000D01*
X8295000Y-4760000D02*
X8275000Y-4780000D01*
X8282500Y-7020000D02*
X8302500Y-7040000D01*
X8302500Y-7020000D02*
X8282500Y-7040000D01*
X8307500Y-5970000D02*
X8327500Y-5990000D01*
X8327500Y-5970000D02*
X8307500Y-5990000D01*
X8332500Y-5382500D02*
X8352500Y-5402500D01*
X8352500Y-5382500D02*
X8332500Y-5402500D01*
X8357500Y-4920000D02*
X8377500Y-4940000D01*
X8377500Y-4920000D02*
X8357500Y-4940000D01*
X8395000Y-4745000D02*
X8415000Y-4765000D01*
X8415000Y-4745000D02*
X8395000Y-4765000D01*
X8395000Y-5557500D02*
X8415000Y-5577500D01*
X8415000Y-5557500D02*
X8395000Y-5577500D01*
X8457500Y-4307500D02*
X8477500Y-4327500D01*
X8477500Y-4307500D02*
X8457500Y-4327500D01*
X8457500Y-5945000D02*
X8477500Y-5965000D01*
X8477500Y-5945000D02*
X8457500Y-5965000D01*
X8475000Y-4112500D02*
X8495000Y-4132500D01*
X8495000Y-4112500D02*
X8475000Y-4132500D01*
X8475000Y-4112500D02*
X8495000Y-4132500D01*
X8495000Y-4112500D02*
X8475000Y-4132500D01*
X8507500Y-4257500D02*
X8527500Y-4277500D01*
X8527500Y-4257500D02*
X8507500Y-4277500D01*
X8520000Y-6245000D02*
X8540000Y-6265000D01*
X8540000Y-6245000D02*
X8520000Y-6265000D01*
X8540000Y-6944000D02*
X8560000Y-6964000D01*
X8560000Y-6944000D02*
X8540000Y-6964000D01*
X8540000Y-6944000D02*
X8560000Y-6964000D01*
X8560000Y-6944000D02*
X8540000Y-6964000D01*
X8557500Y-1820000D02*
X8577500Y-1840000D01*
X8577500Y-1820000D02*
X8557500Y-1840000D01*
X8582500Y-182500D02*
X8602500Y-202500D01*
X8602500Y-182500D02*
X8582500Y-202500D01*
X8582500Y-882500D02*
X8602500Y-902500D01*
X8602500Y-882500D02*
X8582500Y-902500D01*
X8582500Y-5945000D02*
X8602500Y-5965000D01*
X8602500Y-5945000D02*
X8582500Y-5965000D01*
X8595000Y-3695000D02*
X8615000Y-3715000D01*
X8615000Y-3695000D02*
X8595000Y-3715000D01*
X8595000Y-4445000D02*
X8615000Y-4465000D01*
X8615000Y-4445000D02*
X8595000Y-4465000D01*
X8607500Y-2482500D02*
X8627500Y-2502500D01*
X8627500Y-2482500D02*
X8607500Y-2502500D01*
X8645000Y-1032500D02*
X8665000Y-1052500D01*
X8665000Y-1032500D02*
X8645000Y-1052500D01*
X8645000Y-3057500D02*
X8665000Y-3077500D01*
X8665000Y-3057500D02*
X8645000Y-3077500D01*
X8670000Y-2620000D02*
X8690000Y-2640000D01*
X8690000Y-2620000D02*
X8670000Y-2640000D01*
X8682500Y-5995000D02*
X8702500Y-6015000D01*
X8702500Y-5995000D02*
X8682500Y-6015000D01*
X8695000Y-4157500D02*
X8715000Y-4177500D01*
X8715000Y-4157500D02*
X8695000Y-4177500D01*
X8707500Y-4232500D02*
X8727500Y-4252500D01*
X8727500Y-4232500D02*
X8707500Y-4252500D01*
X8795000Y-3195000D02*
X8815000Y-3215000D01*
X8815000Y-3195000D02*
X8795000Y-3215000D01*
X8795000Y-3557500D02*
X8815000Y-3577500D01*
X8815000Y-3557500D02*
X8795000Y-3577500D01*
X8807500Y-4995000D02*
X8827500Y-5015000D01*
X8827500Y-4995000D02*
X8807500Y-5015000D01*
X8807500Y-7195000D02*
X8827500Y-7215000D01*
X8827500Y-7195000D02*
X8807500Y-7215000D01*
X8817500Y-3040000D02*
X8837500Y-3060000D01*
X8837500Y-3040000D02*
X8817500Y-3060000D01*
X8817500Y-3040000D02*
X8837500Y-3060000D01*
X8837500Y-3040000D02*
X8817500Y-3060000D01*
X8832500Y-3057500D02*
X8852500Y-3077500D01*
X8852500Y-3057500D02*
X8832500Y-3077500D01*
X8832500Y-4195000D02*
X8852500Y-4215000D01*
X8852500Y-4195000D02*
X8832500Y-4215000D01*
X8870000Y-4532500D02*
X8890000Y-4552500D01*
X8890000Y-4532500D02*
X8870000Y-4552500D01*
X8870000Y-4732500D02*
X8890000Y-4752500D01*
X8890000Y-4732500D02*
X8870000Y-4752500D01*
X8876250Y-5590000D02*
X8896250Y-5610000D01*
X8896250Y-5590000D02*
X8876250Y-5610000D01*
X8876250Y-5590000D02*
X8896250Y-5610000D01*
X8896250Y-5590000D02*
X8876250Y-5610000D01*
X8882500Y-5595000D02*
X8902500Y-5615000D01*
X8902500Y-5595000D02*
X8882500Y-5615000D01*
X8882500Y-7145000D02*
X8902500Y-7165000D01*
X8902500Y-7145000D02*
X8882500Y-7165000D01*
X8907500Y-2632500D02*
X8927500Y-2652500D01*
X8927500Y-2632500D02*
X8907500Y-2652500D01*
X8907500Y-7207500D02*
X8927500Y-7227500D01*
X8927500Y-7207500D02*
X8907500Y-7227500D01*
X8920000Y-3349500D02*
X8940000Y-3369500D01*
X8940000Y-3349500D02*
X8920000Y-3369500D01*
X8920000Y-3349500D02*
X8940000Y-3369500D01*
X8940000Y-3349500D02*
X8920000Y-3369500D01*
X9005000Y-1390000D02*
X9025000Y-1410000D01*
X9025000Y-1390000D02*
X9005000Y-1410000D01*
X9005000Y-1390000D02*
X9025000Y-1410000D01*
X9025000Y-1390000D02*
X9005000Y-1410000D01*
X9070000Y-2095000D02*
X9090000Y-2115000D01*
X9090000Y-2095000D02*
X9070000Y-2115000D01*
X9107500Y-5495000D02*
X9127500Y-5515000D01*
X9127500Y-5495000D02*
X9107500Y-5515000D01*
X9128000Y-1820500D02*
X9148000Y-1840500D01*
X9148000Y-1820500D02*
X9128000Y-1840500D01*
X9128000Y-1820500D02*
X9148000Y-1840500D01*
X9148000Y-1820500D02*
X9128000Y-1840500D01*
X9145000Y-5570000D02*
X9165000Y-5590000D01*
X9165000Y-5570000D02*
X9145000Y-5590000D01*
X9145000Y-6382500D02*
X9165000Y-6402500D01*
X9165000Y-6382500D02*
X9145000Y-6402500D01*
X9157500Y-6607500D02*
X9177500Y-6627500D01*
X9177500Y-6607500D02*
X9157500Y-6627500D01*
X9157500Y-6695000D02*
X9177500Y-6715000D01*
X9177500Y-6695000D02*
X9157500Y-6715000D01*
X9167500Y-3040000D02*
X9187500Y-3060000D01*
X9187500Y-3040000D02*
X9167500Y-3060000D01*
X9167500Y-3040000D02*
X9187500Y-3060000D01*
X9187500Y-3040000D02*
X9167500Y-3060000D01*
X9182500Y-182500D02*
X9202500Y-202500D01*
X9202500Y-182500D02*
X9182500Y-202500D01*
X9182500Y-1182500D02*
X9202500Y-1202500D01*
X9202500Y-1182500D02*
X9182500Y-1202500D01*
X9182500Y-3182500D02*
X9202500Y-3202500D01*
X9202500Y-3182500D02*
X9182500Y-3202500D01*
X9185000Y-2390000D02*
X9205000Y-2410000D01*
X9205000Y-2390000D02*
X9185000Y-2410000D01*
X9185000Y-2390000D02*
X9205000Y-2410000D01*
X9205000Y-2390000D02*
X9185000Y-2410000D01*
X9190000Y-3540000D02*
X9210000Y-3560000D01*
X9210000Y-3540000D02*
X9190000Y-3560000D01*
X9190000Y-3540000D02*
X9210000Y-3560000D01*
X9210000Y-3540000D02*
X9190000Y-3560000D01*
X9190000Y-3540000D02*
X9210000Y-3560000D01*
X9210000Y-3540000D02*
X9190000Y-3560000D01*
X9190000Y-3540000D02*
X9210000Y-3560000D01*
X9210000Y-3540000D02*
X9190000Y-3560000D01*
X9195000Y-4945000D02*
X9215000Y-4965000D01*
X9215000Y-4945000D02*
X9195000Y-4965000D01*
X9270000Y-6195000D02*
X9290000Y-6215000D01*
X9290000Y-6195000D02*
X9270000Y-6215000D01*
X9270000Y-6320000D02*
X9290000Y-6340000D01*
X9290000Y-6320000D02*
X9270000Y-6340000D01*
X9270000Y-6957500D02*
X9290000Y-6977500D01*
X9290000Y-6957500D02*
X9270000Y-6977500D01*
X9270000Y-7082500D02*
X9290000Y-7102500D01*
X9290000Y-7082500D02*
X9270000Y-7102500D01*
X9270000Y-7457500D02*
X9290000Y-7477500D01*
X9290000Y-7457500D02*
X9270000Y-7477500D01*
X9282500Y-182500D02*
X9302500Y-202500D01*
X9302500Y-182500D02*
X9282500Y-202500D01*
X9282500Y-882500D02*
X9302500Y-902500D01*
X9302500Y-882500D02*
X9282500Y-902500D01*
X9282500Y-1582500D02*
X9302500Y-1602500D01*
X9302500Y-1582500D02*
X9282500Y-1602500D01*
X9282500Y-4945000D02*
X9302500Y-4965000D01*
X9302500Y-4945000D02*
X9282500Y-4965000D01*
X9282500Y-5432500D02*
X9302500Y-5452500D01*
X9302500Y-5432500D02*
X9282500Y-5452500D01*
X9285500Y-4865000D02*
X9305500Y-4885000D01*
X9305500Y-4865000D02*
X9285500Y-4885000D01*
X9285500Y-4865000D02*
X9305500Y-4885000D01*
X9305500Y-4865000D02*
X9285500Y-4885000D01*
X9285500Y-4865000D02*
X9305500Y-4885000D01*
X9305500Y-4865000D02*
X9285500Y-4885000D01*
X9285500Y-4865000D02*
X9305500Y-4885000D01*
X9305500Y-4865000D02*
X9285500Y-4885000D01*
X9332500Y-7320000D02*
X9352500Y-7340000D01*
X9352500Y-7320000D02*
X9332500Y-7340000D01*
X9345000Y-2245000D02*
X9365000Y-2265000D01*
X9365000Y-2245000D02*
X9345000Y-2265000D01*
X9356211Y-5585711D02*
X9376211Y-5605711D01*
X9376211Y-5585711D02*
X9356211Y-5605711D01*
X9356211Y-5585711D02*
X9376211Y-5605711D01*
X9376211Y-5585711D02*
X9356211Y-5605711D01*
X9356211Y-5585711D02*
X9376211Y-5605711D01*
X9376211Y-5585711D02*
X9356211Y-5605711D01*
X9356211Y-5585711D02*
X9376211Y-5605711D01*
X9376211Y-5585711D02*
X9356211Y-5605711D01*
X9395000Y-3607500D02*
X9415000Y-3627500D01*
X9415000Y-3607500D02*
X9395000Y-3627500D01*
X9395000Y-6520000D02*
X9415000Y-6540000D01*
X9415000Y-6520000D02*
X9395000Y-6540000D01*
X9395000Y-7132500D02*
X9415000Y-7152500D01*
X9415000Y-7132500D02*
X9395000Y-7152500D01*
X9434706Y-7546294D02*
X9454706Y-7566294D01*
X9454706Y-7546294D02*
X9434706Y-7566294D01*
X9434706Y-7546294D02*
X9454706Y-7566294D01*
X9454706Y-7546294D02*
X9434706Y-7566294D01*
X9457500Y-2420000D02*
X9477500Y-2440000D01*
X9477500Y-2420000D02*
X9457500Y-2440000D01*
X9457500Y-3020000D02*
X9477500Y-3040000D01*
X9477500Y-3020000D02*
X9457500Y-3040000D01*
X9457500Y-3732500D02*
X9477500Y-3752500D01*
X9477500Y-3732500D02*
X9457500Y-3752500D01*
X9532500Y-2245000D02*
X9552500Y-2265000D01*
X9552500Y-2245000D02*
X9532500Y-2265000D01*
X9607500Y-4107500D02*
X9627500Y-4127500D01*
X9627500Y-4107500D02*
X9607500Y-4127500D01*
X9657500Y-3620000D02*
X9677500Y-3640000D01*
X9677500Y-3620000D02*
X9657500Y-3640000D01*
X9770000Y-3170000D02*
X9790000Y-3190000D01*
X9790000Y-3170000D02*
X9770000Y-3190000D01*
X8420000Y-6884000D02*
G75*
G03*
X8400000Y-6884000I-10000J0D01*
G01*
X8400000Y-6884000D02*
G75*
G03*
X8420000Y-6884000I10000J0D01*
G01*
X8420000Y-7024000D02*
G75*
G03*
X8400000Y-7024000I-10000J0D01*
G01*
X8400000Y-7024000D02*
G75*
G03*
X8420000Y-7024000I10000J0D01*
G01*
X8490000Y-6814000D02*
G75*
G03*
X8470000Y-6814000I-10000J0D01*
G01*
X8470000Y-6814000D02*
G75*
G03*
X8490000Y-6814000I10000J0D01*
G01*
X8490000Y-6954000D02*
G75*
G03*
X8470000Y-6954000I-10000J0D01*
G01*
X8470000Y-6954000D02*
G75*
G03*
X8490000Y-6954000I10000J0D01*
G01*
X8490000Y-7094000D02*
G75*
G03*
X8470000Y-7094000I-10000J0D01*
G01*
X8470000Y-7094000D02*
G75*
G03*
X8490000Y-7094000I10000J0D01*
G01*
X8560000Y-6884000D02*
G75*
G03*
X8540000Y-6884000I-10000J0D01*
G01*
X8540000Y-6884000D02*
G75*
G03*
X8560000Y-6884000I10000J0D01*
G01*
X8560000Y-7024000D02*
G75*
G03*
X8540000Y-7024000I-10000J0D01*
G01*
X8540000Y-7024000D02*
G75*
G03*
X8560000Y-7024000I10000J0D01*
G01*
X8630000Y-6814000D02*
G75*
G03*
X8610000Y-6814000I-10000J0D01*
G01*
X8610000Y-6814000D02*
G75*
G03*
X8630000Y-6814000I10000J0D01*
G01*
X8630000Y-6954000D02*
G75*
G03*
X8610000Y-6954000I-10000J0D01*
G01*
X8610000Y-6954000D02*
G75*
G03*
X8630000Y-6954000I10000J0D01*
G01*
X8630000Y-7094000D02*
G75*
G03*
X8610000Y-7094000I-10000J0D01*
G01*
X8610000Y-7094000D02*
G75*
G03*
X8630000Y-7094000I10000J0D01*
G01*
X8700000Y-6884000D02*
G75*
G03*
X8680000Y-6884000I-10000J0D01*
G01*
X8680000Y-6884000D02*
G75*
G03*
X8700000Y-6884000I10000J0D01*
G01*
X8700000Y-7024000D02*
G75*
G03*
X8680000Y-7024000I-10000J0D01*
G01*
X8680000Y-7024000D02*
G75*
G03*
X8700000Y-7024000I10000J0D01*
G01*
X3075000Y-2765000D02*
X3075000Y-2795000D01*
X3060000Y-2780000D02*
X3090000Y-2780000D01*
X3075000Y-2895000D02*
X3075000Y-2925000D01*
X3060000Y-2910000D02*
X3090000Y-2910000D01*
X3075000Y-3025000D02*
X3075000Y-3055000D01*
X3060000Y-3040000D02*
X3090000Y-3040000D01*
X3075000Y-3155000D02*
X3075000Y-3185000D01*
X3060000Y-3170000D02*
X3090000Y-3170000D01*
X3075000Y-3285000D02*
X3075000Y-3315000D01*
X3060000Y-3300000D02*
X3090000Y-3300000D01*
X3075000Y-3415000D02*
X3075000Y-3445000D01*
X3060000Y-3430000D02*
X3090000Y-3430000D01*
X3075000Y-3545000D02*
X3075000Y-3575000D01*
X3060000Y-3560000D02*
X3090000Y-3560000D01*
X3075000Y-3675000D02*
X3075000Y-3705000D01*
X3060000Y-3690000D02*
X3090000Y-3690000D01*
X3075000Y-3805000D02*
X3075000Y-3835000D01*
X3060000Y-3820000D02*
X3090000Y-3820000D01*
X3225000Y-2765000D02*
X3225000Y-2795000D01*
X3210000Y-2780000D02*
X3240000Y-2780000D01*
X3225000Y-2895000D02*
X3225000Y-2925000D01*
X3210000Y-2910000D02*
X3240000Y-2910000D01*
X3225000Y-3025000D02*
X3225000Y-3055000D01*
X3210000Y-3040000D02*
X3240000Y-3040000D01*
X3225000Y-3155000D02*
X3225000Y-3185000D01*
X3210000Y-3170000D02*
X3240000Y-3170000D01*
X3225000Y-3285000D02*
X3225000Y-3315000D01*
X3210000Y-3300000D02*
X3240000Y-3300000D01*
X3225000Y-3415000D02*
X3225000Y-3445000D01*
X3210000Y-3430000D02*
X3240000Y-3430000D01*
X3225000Y-3545000D02*
X3225000Y-3575000D01*
X3210000Y-3560000D02*
X3240000Y-3560000D01*
X3225000Y-3675000D02*
X3225000Y-3705000D01*
X3210000Y-3690000D02*
X3240000Y-3690000D01*
X3225000Y-3805000D02*
X3225000Y-3835000D01*
X3210000Y-3820000D02*
X3240000Y-3820000D01*
X3375000Y-2765000D02*
X3375000Y-2795000D01*
X3360000Y-2780000D02*
X3390000Y-2780000D01*
X3375000Y-2895000D02*
X3375000Y-2925000D01*
X3360000Y-2910000D02*
X3390000Y-2910000D01*
X3375000Y-3025000D02*
X3375000Y-3055000D01*
X3360000Y-3040000D02*
X3390000Y-3040000D01*
X3375000Y-3155000D02*
X3375000Y-3185000D01*
X3360000Y-3170000D02*
X3390000Y-3170000D01*
X3375000Y-3285000D02*
X3375000Y-3315000D01*
X3360000Y-3300000D02*
X3390000Y-3300000D01*
X3375000Y-3415000D02*
X3375000Y-3445000D01*
X3360000Y-3430000D02*
X3390000Y-3430000D01*
X3375000Y-3545000D02*
X3375000Y-3575000D01*
X3360000Y-3560000D02*
X3390000Y-3560000D01*
X3375000Y-3675000D02*
X3375000Y-3705000D01*
X3360000Y-3690000D02*
X3390000Y-3690000D01*
X3375000Y-3805000D02*
X3375000Y-3835000D01*
X3360000Y-3820000D02*
X3390000Y-3820000D01*
X3525000Y-2765000D02*
X3525000Y-2795000D01*
X3510000Y-2780000D02*
X3540000Y-2780000D01*
X3525000Y-2895000D02*
X3525000Y-2925000D01*
X3510000Y-2910000D02*
X3540000Y-2910000D01*
X3525000Y-3025000D02*
X3525000Y-3055000D01*
X3510000Y-3040000D02*
X3540000Y-3040000D01*
X3525000Y-3155000D02*
X3525000Y-3185000D01*
X3510000Y-3170000D02*
X3540000Y-3170000D01*
X3525000Y-3285000D02*
X3525000Y-3315000D01*
X3510000Y-3300000D02*
X3540000Y-3300000D01*
X3525000Y-3415000D02*
X3525000Y-3445000D01*
X3510000Y-3430000D02*
X3540000Y-3430000D01*
X3525000Y-3545000D02*
X3525000Y-3575000D01*
X3510000Y-3560000D02*
X3540000Y-3560000D01*
X3525000Y-3675000D02*
X3525000Y-3705000D01*
X3510000Y-3690000D02*
X3540000Y-3690000D01*
X3525000Y-3805000D02*
X3525000Y-3835000D01*
X3510000Y-3820000D02*
X3540000Y-3820000D01*
X4375000Y-2765000D02*
X4375000Y-2795000D01*
X4360000Y-2780000D02*
X4390000Y-2780000D01*
X4375000Y-2895000D02*
X4375000Y-2925000D01*
X4360000Y-2910000D02*
X4390000Y-2910000D01*
X4375000Y-3025000D02*
X4375000Y-3055000D01*
X4360000Y-3040000D02*
X4390000Y-3040000D01*
X4375000Y-3155000D02*
X4375000Y-3185000D01*
X4360000Y-3170000D02*
X4390000Y-3170000D01*
X4375000Y-3285000D02*
X4375000Y-3315000D01*
X4360000Y-3300000D02*
X4390000Y-3300000D01*
X4375000Y-3415000D02*
X4375000Y-3445000D01*
X4360000Y-3430000D02*
X4390000Y-3430000D01*
X4375000Y-3545000D02*
X4375000Y-3575000D01*
X4360000Y-3560000D02*
X4390000Y-3560000D01*
X4375000Y-3675000D02*
X4375000Y-3705000D01*
X4360000Y-3690000D02*
X4390000Y-3690000D01*
X4375000Y-3805000D02*
X4375000Y-3835000D01*
X4360000Y-3820000D02*
X4390000Y-3820000D01*
X4525000Y-2765000D02*
X4525000Y-2795000D01*
X4510000Y-2780000D02*
X4540000Y-2780000D01*
X4525000Y-2895000D02*
X4525000Y-2925000D01*
X4510000Y-2910000D02*
X4540000Y-2910000D01*
X4525000Y-3025000D02*
X4525000Y-3055000D01*
X4510000Y-3040000D02*
X4540000Y-3040000D01*
X4525000Y-3155000D02*
X4525000Y-3185000D01*
X4510000Y-3170000D02*
X4540000Y-3170000D01*
X4525000Y-3285000D02*
X4525000Y-3315000D01*
X4510000Y-3300000D02*
X4540000Y-3300000D01*
X4525000Y-3415000D02*
X4525000Y-3445000D01*
X4510000Y-3430000D02*
X4540000Y-3430000D01*
X4525000Y-3545000D02*
X4525000Y-3575000D01*
X4510000Y-3560000D02*
X4540000Y-3560000D01*
X4525000Y-3675000D02*
X4525000Y-3705000D01*
X4510000Y-3690000D02*
X4540000Y-3690000D01*
X4525000Y-3805000D02*
X4525000Y-3835000D01*
X4510000Y-3820000D02*
X4540000Y-3820000D01*
X4675000Y-2765000D02*
X4675000Y-2795000D01*
X4660000Y-2780000D02*
X4690000Y-2780000D01*
X4675000Y-2895000D02*
X4675000Y-2925000D01*
X4660000Y-2910000D02*
X4690000Y-2910000D01*
X4675000Y-3025000D02*
X4675000Y-3055000D01*
X4660000Y-3040000D02*
X4690000Y-3040000D01*
X4675000Y-3155000D02*
X4675000Y-3185000D01*
X4660000Y-3170000D02*
X4690000Y-3170000D01*
X4675000Y-3285000D02*
X4675000Y-3315000D01*
X4660000Y-3300000D02*
X4690000Y-3300000D01*
X4675000Y-3415000D02*
X4675000Y-3445000D01*
X4660000Y-3430000D02*
X4690000Y-3430000D01*
X4675000Y-3545000D02*
X4675000Y-3575000D01*
X4660000Y-3560000D02*
X4690000Y-3560000D01*
X4675000Y-3675000D02*
X4675000Y-3705000D01*
X4660000Y-3690000D02*
X4690000Y-3690000D01*
X4675000Y-3805000D02*
X4675000Y-3835000D01*
X4660000Y-3820000D02*
X4690000Y-3820000D01*
X4825000Y-2765000D02*
X4825000Y-2795000D01*
X4810000Y-2780000D02*
X4840000Y-2780000D01*
X4825000Y-2895000D02*
X4825000Y-2925000D01*
X4810000Y-2910000D02*
X4840000Y-2910000D01*
X4825000Y-3025000D02*
X4825000Y-3055000D01*
X4810000Y-3040000D02*
X4840000Y-3040000D01*
X4825000Y-3155000D02*
X4825000Y-3185000D01*
X4810000Y-3170000D02*
X4840000Y-3170000D01*
X4825000Y-3285000D02*
X4825000Y-3315000D01*
X4810000Y-3300000D02*
X4840000Y-3300000D01*
X4825000Y-3415000D02*
X4825000Y-3445000D01*
X4810000Y-3430000D02*
X4840000Y-3430000D01*
X4825000Y-3545000D02*
X4825000Y-3575000D01*
X4810000Y-3560000D02*
X4840000Y-3560000D01*
X4825000Y-3675000D02*
X4825000Y-3705000D01*
X4810000Y-3690000D02*
X4840000Y-3690000D01*
X4825000Y-3805000D02*
X4825000Y-3835000D01*
X4810000Y-3820000D02*
X4840000Y-3820000D01*
X9135000Y-3340000D02*
X9135000Y-3370000D01*
X9120000Y-3355000D02*
X9150000Y-3355000D01*
X9135000Y-3470000D02*
X9135000Y-3500000D01*
X9120000Y-3485000D02*
X9150000Y-3485000D01*
X9135000Y-3600000D02*
X9135000Y-3630000D01*
X9120000Y-3615000D02*
X9150000Y-3615000D01*
X9135000Y-3730000D02*
X9135000Y-3760000D01*
X9120000Y-3745000D02*
X9150000Y-3745000D01*
X9265000Y-3340000D02*
X9265000Y-3370000D01*
X9250000Y-3355000D02*
X9280000Y-3355000D01*
X9265000Y-3470000D02*
X9265000Y-3500000D01*
X9250000Y-3485000D02*
X9280000Y-3485000D01*
X9265000Y-3600000D02*
X9265000Y-3630000D01*
X9250000Y-3615000D02*
X9280000Y-3615000D01*
X9265000Y-3730000D02*
X9265000Y-3760000D01*
X9250000Y-3745000D02*
X9280000Y-3745000D01*
X9408213Y-4789213D02*
X9408213Y-4746787D01*
X9365787Y-4746787D01*
X9365787Y-4789213D01*
X9408213Y-4789213D01*
X9332000Y-4798000D02*
X9442000Y-4798000D01*
X9442000Y-4798000D02*
G75*
G03*
X9442000Y-4738000I0J30000D01*
G01*
X9442000Y-4738000D02*
X9332000Y-4738000D01*
X9332000Y-4738000D02*
G75*
G03*
X9332000Y-4798000I0J-30000D01*
G01*
X9408213Y-5653213D02*
X9408213Y-5610787D01*
X9365787Y-5610787D01*
X9365787Y-5653213D01*
X9408213Y-5653213D01*
X9332000Y-5662000D02*
X9442000Y-5662000D01*
X9442000Y-5662000D02*
G75*
G03*
X9442000Y-5602000I0J30000D01*
G01*
X9442000Y-5602000D02*
X9332000Y-5602000D01*
X9332000Y-5602000D02*
G75*
G03*
X9332000Y-5662000I0J-30000D01*
G01*
X9826213Y-4789213D02*
X9826213Y-4746787D01*
X9783787Y-4746787D01*
X9783787Y-4789213D01*
X9826213Y-4789213D01*
X9775000Y-4798000D02*
X9835000Y-4798000D01*
X9835000Y-4798000D02*
G75*
G03*
X9835000Y-4738000I0J30000D01*
G01*
X9835000Y-4738000D02*
X9775000Y-4738000D01*
X9775000Y-4738000D02*
G75*
G03*
X9775000Y-4798000I0J-30000D01*
G01*
X9826213Y-5653213D02*
X9826213Y-5610787D01*
X9783787Y-5610787D01*
X9783787Y-5653213D01*
X9826213Y-5653213D01*
X9775000Y-5662000D02*
X9835000Y-5662000D01*
X9835000Y-5662000D02*
G75*
G03*
X9835000Y-5602000I0J30000D01*
G01*
X9835000Y-5602000D02*
X9775000Y-5602000D01*
X9775000Y-5602000D02*
G75*
G03*
X9775000Y-5662000I0J-30000D01*
G01*
X4000000Y-7037500D02*
X4037500Y-7000000D01*
X4000000Y-6962500D01*
X3962500Y-7000000D01*
X4000000Y-7037500D01*
X4200000Y-7037500D02*
X4237500Y-7000000D01*
X4200000Y-6962500D01*
X4162500Y-7000000D01*
X4200000Y-7037500D01*
X4400000Y-7037500D02*
X4437500Y-7000000D01*
X4400000Y-6962500D01*
X4362500Y-7000000D01*
X4400000Y-7037500D01*
X4600000Y-7037500D02*
X4637500Y-7000000D01*
X4600000Y-6962500D01*
X4562500Y-7000000D01*
X4600000Y-7037500D01*
X4800000Y-7037500D02*
X4837500Y-7000000D01*
X4800000Y-6962500D01*
X4762500Y-7000000D01*
X4800000Y-7037500D01*
X5000000Y-7037500D02*
X5037500Y-7000000D01*
X5000000Y-6962500D01*
X4962500Y-7000000D01*
X5000000Y-7037500D01*
X5200000Y-7037500D02*
X5237500Y-7000000D01*
X5200000Y-6962500D01*
X5162500Y-7000000D01*
X5200000Y-7037500D01*
X5400000Y-7037500D02*
X5437500Y-7000000D01*
X5400000Y-6962500D01*
X5362500Y-7000000D01*
X5400000Y-7037500D01*
X6952500Y-552500D02*
X7047500Y-647500D01*
X7047500Y-552500D02*
X6952500Y-647500D01*
X7047500Y-600000D02*
G75*
G03*
X6952500Y-600000I-47500J0D01*
G01*
X6952500Y-600000D02*
G75*
G03*
X7047500Y-600000I47500J0D01*
G01*
X7202500Y-552500D02*
X7297500Y-647500D01*
X7297500Y-552500D02*
X7202500Y-647500D01*
X7297500Y-600000D02*
G75*
G03*
X7202500Y-600000I-47500J0D01*
G01*
X7202500Y-600000D02*
G75*
G03*
X7297500Y-600000I47500J0D01*
G01*
X7452500Y-552500D02*
X7547500Y-647500D01*
X7547500Y-552500D02*
X7452500Y-647500D01*
X7547500Y-600000D02*
G75*
G03*
X7452500Y-600000I-47500J0D01*
G01*
X7452500Y-600000D02*
G75*
G03*
X7547500Y-600000I47500J0D01*
G01*
X7702500Y-552500D02*
X7797500Y-647500D01*
X7797500Y-552500D02*
X7702500Y-647500D01*
X7797500Y-600000D02*
G75*
G03*
X7702500Y-600000I-47500J0D01*
G01*
X7702500Y-600000D02*
G75*
G03*
X7797500Y-600000I47500J0D01*
G01*
X7952500Y-552500D02*
X8047500Y-647500D01*
X8047500Y-552500D02*
X7952500Y-647500D01*
X8047500Y-600000D02*
G75*
G03*
X7952500Y-600000I-47500J0D01*
G01*
X7952500Y-600000D02*
G75*
G03*
X8047500Y-600000I47500J0D01*
G01*
X8602500Y-552500D02*
X8697500Y-647500D01*
X8697500Y-552500D02*
X8602500Y-647500D01*
X8697500Y-600000D02*
G75*
G03*
X8602500Y-600000I-47500J0D01*
G01*
X8602500Y-600000D02*
G75*
G03*
X8697500Y-600000I47500J0D01*
G01*
X8852500Y-552500D02*
X8947500Y-647500D01*
X8947500Y-552500D02*
X8852500Y-647500D01*
X8947500Y-600000D02*
G75*
G03*
X8852500Y-600000I-47500J0D01*
G01*
X8852500Y-600000D02*
G75*
G03*
X8947500Y-600000I47500J0D01*
G01*
X9102500Y-552500D02*
X9197500Y-647500D01*
X9197500Y-552500D02*
X9102500Y-647500D01*
X9197500Y-600000D02*
G75*
G03*
X9102500Y-600000I-47500J0D01*
G01*
X9102500Y-600000D02*
G75*
G03*
X9197500Y-600000I47500J0D01*
G01*
X9352500Y-552500D02*
X9447500Y-647500D01*
X9447500Y-552500D02*
X9352500Y-647500D01*
X9447500Y-600000D02*
G75*
G03*
X9352500Y-600000I-47500J0D01*
G01*
X9352500Y-600000D02*
G75*
G03*
X9447500Y-600000I47500J0D01*
G01*
X9602500Y-552500D02*
X9697500Y-647500D01*
X9697500Y-552500D02*
X9602500Y-647500D01*
X9697500Y-600000D02*
G75*
G03*
X9602500Y-600000I-47500J0D01*
G01*
X9602500Y-600000D02*
G75*
G03*
X9697500Y-600000I47500J0D01*
G01*
X1350000Y-7600000D02*
X1450000Y-7700000D01*
X1450000Y-7600000D02*
X1350000Y-7700000D01*
X1400000Y-7600000D02*
X1400000Y-7700000D01*
X1350000Y-7650000D02*
X1450000Y-7650000D01*
X1604000Y-7600000D02*
X1704000Y-7700000D01*
X1704000Y-7600000D02*
X1604000Y-7700000D01*
X1654000Y-7600000D02*
X1654000Y-7700000D01*
X1604000Y-7650000D02*
X1704000Y-7650000D01*
X1858000Y-7600000D02*
X1958000Y-7700000D01*
X1958000Y-7600000D02*
X1858000Y-7700000D01*
X1908000Y-7600000D02*
X1908000Y-7700000D01*
X1858000Y-7650000D02*
X1958000Y-7650000D01*
X2112000Y-7600000D02*
X2212000Y-7700000D01*
X2212000Y-7600000D02*
X2112000Y-7700000D01*
X2162000Y-7600000D02*
X2162000Y-7700000D01*
X2112000Y-7650000D02*
X2212000Y-7650000D01*
X2366000Y-7600000D02*
X2466000Y-7700000D01*
X2466000Y-7600000D02*
X2366000Y-7700000D01*
X2416000Y-7600000D02*
X2416000Y-7700000D01*
X2366000Y-7650000D02*
X2466000Y-7650000D01*
X2620000Y-7600000D02*
X2720000Y-7700000D01*
X2720000Y-7600000D02*
X2620000Y-7700000D01*
X2670000Y-7600000D02*
X2670000Y-7700000D01*
X2620000Y-7650000D02*
X2720000Y-7650000D01*
X2874000Y-7600000D02*
X2974000Y-7700000D01*
X2974000Y-7600000D02*
X2874000Y-7700000D01*
X2924000Y-7600000D02*
X2924000Y-7700000D01*
X2874000Y-7650000D02*
X2974000Y-7650000D01*
X2950000Y-6150000D02*
X3050000Y-6250000D01*
X3050000Y-6150000D02*
X2950000Y-6250000D01*
X3000000Y-6150000D02*
X3000000Y-6250000D01*
X2950000Y-6200000D02*
X3050000Y-6200000D01*
X2950000Y-6404000D02*
X3050000Y-6504000D01*
X3050000Y-6404000D02*
X2950000Y-6504000D01*
X3000000Y-6404000D02*
X3000000Y-6504000D01*
X2950000Y-6454000D02*
X3050000Y-6454000D01*
X2950000Y-6658000D02*
X3050000Y-6758000D01*
X3050000Y-6658000D02*
X2950000Y-6758000D01*
X3000000Y-6658000D02*
X3000000Y-6758000D01*
X2950000Y-6708000D02*
X3050000Y-6708000D01*
X2950000Y-6912000D02*
X3050000Y-7012000D01*
X3050000Y-6912000D02*
X2950000Y-7012000D01*
X3000000Y-6912000D02*
X3000000Y-7012000D01*
X2950000Y-6962000D02*
X3050000Y-6962000D01*
X2950000Y-7166000D02*
X3050000Y-7266000D01*
X3050000Y-7166000D02*
X2950000Y-7266000D01*
X3000000Y-7166000D02*
X3000000Y-7266000D01*
X2950000Y-7216000D02*
X3050000Y-7216000D01*
X3128000Y-7600000D02*
X3228000Y-7700000D01*
X3228000Y-7600000D02*
X3128000Y-7700000D01*
X3178000Y-7600000D02*
X3178000Y-7700000D01*
X3128000Y-7650000D02*
X3228000Y-7650000D01*
X3204000Y-6150000D02*
X3304000Y-6250000D01*
X3304000Y-6150000D02*
X3204000Y-6250000D01*
X3254000Y-6150000D02*
X3254000Y-6250000D01*
X3204000Y-6200000D02*
X3304000Y-6200000D01*
X3204000Y-6404000D02*
X3304000Y-6504000D01*
X3304000Y-6404000D02*
X3204000Y-6504000D01*
X3254000Y-6404000D02*
X3254000Y-6504000D01*
X3204000Y-6454000D02*
X3304000Y-6454000D01*
X3204000Y-6658000D02*
X3304000Y-6758000D01*
X3304000Y-6658000D02*
X3204000Y-6758000D01*
X3254000Y-6658000D02*
X3254000Y-6758000D01*
X3204000Y-6708000D02*
X3304000Y-6708000D01*
X3204000Y-6912000D02*
X3304000Y-7012000D01*
X3304000Y-6912000D02*
X3204000Y-7012000D01*
X3254000Y-6912000D02*
X3254000Y-7012000D01*
X3204000Y-6962000D02*
X3304000Y-6962000D01*
X3204000Y-7166000D02*
X3304000Y-7266000D01*
X3304000Y-7166000D02*
X3204000Y-7266000D01*
X3254000Y-7166000D02*
X3254000Y-7266000D01*
X3204000Y-7216000D02*
X3304000Y-7216000D01*
X3382000Y-7600000D02*
X3482000Y-7700000D01*
X3482000Y-7600000D02*
X3382000Y-7700000D01*
X3432000Y-7600000D02*
X3432000Y-7700000D01*
X3382000Y-7650000D02*
X3482000Y-7650000D01*
X3636000Y-7600000D02*
X3736000Y-7700000D01*
X3736000Y-7600000D02*
X3636000Y-7700000D01*
X3686000Y-7600000D02*
X3686000Y-7700000D01*
X3636000Y-7650000D02*
X3736000Y-7650000D01*
X5950000Y-4750000D02*
X6050000Y-4850000D01*
X6050000Y-4750000D02*
X5950000Y-4850000D01*
X6000000Y-4750000D02*
X6000000Y-4850000D01*
X5950000Y-4800000D02*
X6050000Y-4800000D01*
X5950000Y-5004000D02*
X6050000Y-5104000D01*
X6050000Y-5004000D02*
X5950000Y-5104000D01*
X6000000Y-5004000D02*
X6000000Y-5104000D01*
X5950000Y-5054000D02*
X6050000Y-5054000D01*
X5950000Y-5258000D02*
X6050000Y-5358000D01*
X6050000Y-5258000D02*
X5950000Y-5358000D01*
X6000000Y-5258000D02*
X6000000Y-5358000D01*
X5950000Y-5308000D02*
X6050000Y-5308000D01*
X9650000Y-1350000D02*
X9750000Y-1450000D01*
X9750000Y-1350000D02*
X9650000Y-1450000D01*
X9700000Y-1350000D02*
X9700000Y-1450000D01*
X9650000Y-1400000D02*
X9750000Y-1400000D01*
X9650000Y-1604000D02*
X9750000Y-1704000D01*
X9750000Y-1604000D02*
X9650000Y-1704000D01*
X9700000Y-1604000D02*
X9700000Y-1704000D01*
X9650000Y-1654000D02*
X9750000Y-1654000D01*
X9650000Y-1858000D02*
X9750000Y-1958000D01*
X9750000Y-1858000D02*
X9650000Y-1958000D01*
X9700000Y-1858000D02*
X9700000Y-1958000D01*
X9650000Y-1908000D02*
X9750000Y-1908000D01*
D13*
X735000Y-335000D02*
X865000Y-465000D01*
X865000Y-335000D02*
X735000Y-465000D01*
X845962Y-445962D02*
X845962Y-354038D01*
X754038Y-354038D01*
X754038Y-445962D01*
X845962Y-445962D01*
X1243000Y-335000D02*
X1373000Y-465000D01*
X1373000Y-335000D02*
X1243000Y-465000D01*
X1353962Y-445962D02*
X1353962Y-354038D01*
X1262038Y-354038D01*
X1262038Y-445962D01*
X1353962Y-445962D01*
X2135000Y-335000D02*
X2265000Y-465000D01*
X2265000Y-335000D02*
X2135000Y-465000D01*
X2245962Y-445962D02*
X2245962Y-354038D01*
X2154038Y-354038D01*
X2154038Y-445962D01*
X2245962Y-445962D01*
X2643000Y-335000D02*
X2773000Y-465000D01*
X2773000Y-335000D02*
X2643000Y-465000D01*
X2753962Y-445962D02*
X2753962Y-354038D01*
X2662038Y-354038D01*
X2662038Y-445962D01*
X2753962Y-445962D01*
X3535000Y-335000D02*
X3665000Y-465000D01*
X3665000Y-335000D02*
X3535000Y-465000D01*
X3645962Y-445962D02*
X3645962Y-354038D01*
X3554038Y-354038D01*
X3554038Y-445962D01*
X3645962Y-445962D01*
X4043000Y-335000D02*
X4173000Y-465000D01*
X4173000Y-335000D02*
X4043000Y-465000D01*
X4153962Y-445962D02*
X4153962Y-354038D01*
X4062038Y-354038D01*
X4062038Y-445962D01*
X4153962Y-445962D01*
D14*
X5665000Y-365000D02*
X5935000Y-635000D01*
X5935000Y-365000D02*
X5665000Y-635000D01*
X5800000Y-635000D02*
X5935000Y-500000D01*
X5800000Y-365000D01*
X5665000Y-500000D01*
X5800000Y-635000D01*
X6165000Y-365000D02*
X6435000Y-635000D01*
X6435000Y-365000D02*
X6165000Y-635000D01*
X6300000Y-635000D02*
X6435000Y-500000D01*
X6300000Y-365000D01*
X6165000Y-500000D01*
X6300000Y-635000D01*
D11*
X253277Y-8318984D02*
X253277Y-8118984D01*
X253277Y-8118984D02*
X300896Y-8118984D01*
X300896Y-8118984D02*
X329467Y-8128508D01*
X329467Y-8128508D02*
X348515Y-8147555D01*
X348515Y-8147555D02*
X358039Y-8166603D01*
X358039Y-8166603D02*
X367562Y-8204698D01*
X367562Y-8204698D02*
X367562Y-8233269D01*
X367562Y-8233269D02*
X358039Y-8271365D01*
X358039Y-8271365D02*
X348515Y-8290412D01*
X348515Y-8290412D02*
X329467Y-8309460D01*
X329467Y-8309460D02*
X300896Y-8318984D01*
X300896Y-8318984D02*
X253277Y-8318984D01*
X453277Y-8318984D02*
X453277Y-8185650D01*
X453277Y-8223746D02*
X462801Y-8204698D01*
X462801Y-8204698D02*
X472324Y-8195174D01*
X472324Y-8195174D02*
X491372Y-8185650D01*
X491372Y-8185650D02*
X510420Y-8185650D01*
X577086Y-8318984D02*
X577086Y-8185650D01*
X577086Y-8118984D02*
X567563Y-8128508D01*
X567563Y-8128508D02*
X577086Y-8138031D01*
X577086Y-8138031D02*
X586610Y-8128508D01*
X586610Y-8128508D02*
X577086Y-8118984D01*
X577086Y-8118984D02*
X577086Y-8138031D01*
X700896Y-8318984D02*
X681848Y-8309460D01*
X681848Y-8309460D02*
X672324Y-8290412D01*
X672324Y-8290412D02*
X672324Y-8118984D01*
X805658Y-8318984D02*
X786610Y-8309460D01*
X786610Y-8309460D02*
X777086Y-8290412D01*
X777086Y-8290412D02*
X777086Y-8118984D01*
X1034229Y-8318984D02*
X1034229Y-8118984D01*
X1034229Y-8118984D02*
X1100896Y-8261841D01*
X1100896Y-8261841D02*
X1167563Y-8118984D01*
X1167563Y-8118984D02*
X1167563Y-8318984D01*
X1348515Y-8318984D02*
X1348515Y-8214222D01*
X1348515Y-8214222D02*
X1338991Y-8195174D01*
X1338991Y-8195174D02*
X1319944Y-8185650D01*
X1319944Y-8185650D02*
X1281848Y-8185650D01*
X1281848Y-8185650D02*
X1262801Y-8195174D01*
X1348515Y-8309460D02*
X1329467Y-8318984D01*
X1329467Y-8318984D02*
X1281848Y-8318984D01*
X1281848Y-8318984D02*
X1262801Y-8309460D01*
X1262801Y-8309460D02*
X1253277Y-8290412D01*
X1253277Y-8290412D02*
X1253277Y-8271365D01*
X1253277Y-8271365D02*
X1262801Y-8252317D01*
X1262801Y-8252317D02*
X1281848Y-8242793D01*
X1281848Y-8242793D02*
X1329467Y-8242793D01*
X1329467Y-8242793D02*
X1348515Y-8233269D01*
X1443753Y-8185650D02*
X1443753Y-8385650D01*
X1443753Y-8195174D02*
X1462801Y-8185650D01*
X1462801Y-8185650D02*
X1500896Y-8185650D01*
X1500896Y-8185650D02*
X1519943Y-8195174D01*
X1519943Y-8195174D02*
X1529467Y-8204698D01*
X1529467Y-8204698D02*
X1538991Y-8223746D01*
X1538991Y-8223746D02*
X1538991Y-8280888D01*
X1538991Y-8280888D02*
X1529467Y-8299936D01*
X1529467Y-8299936D02*
X1519943Y-8309460D01*
X1519943Y-8309460D02*
X1500896Y-8318984D01*
X1500896Y-8318984D02*
X1462801Y-8318984D01*
X1462801Y-8318984D02*
X1443753Y-8309460D01*
X1624705Y-8299936D02*
X1634229Y-8309460D01*
X1634229Y-8309460D02*
X1624705Y-8318984D01*
X1624705Y-8318984D02*
X1615182Y-8309460D01*
X1615182Y-8309460D02*
X1624705Y-8299936D01*
X1624705Y-8299936D02*
X1624705Y-8318984D01*
X1624705Y-8195174D02*
X1634229Y-8204698D01*
X1634229Y-8204698D02*
X1624705Y-8214222D01*
X1624705Y-8214222D02*
X1615182Y-8204698D01*
X1615182Y-8204698D02*
X1624705Y-8195174D01*
X1624705Y-8195174D02*
X1624705Y-8214222D01*
D12*
X-27500Y-8637500D02*
X-7500Y-8657500D01*
X-7500Y-8637500D02*
X-27500Y-8657500D01*
D11*
X291372Y-8538984D02*
X310420Y-8538984D01*
X310420Y-8538984D02*
X329467Y-8548508D01*
X329467Y-8548508D02*
X338991Y-8558031D01*
X338991Y-8558031D02*
X348515Y-8577079D01*
X348515Y-8577079D02*
X358039Y-8615174D01*
X358039Y-8615174D02*
X358039Y-8662793D01*
X358039Y-8662793D02*
X348515Y-8700889D01*
X348515Y-8700889D02*
X338991Y-8719936D01*
X338991Y-8719936D02*
X329467Y-8729460D01*
X329467Y-8729460D02*
X310420Y-8738984D01*
X310420Y-8738984D02*
X291372Y-8738984D01*
X291372Y-8738984D02*
X272324Y-8729460D01*
X272324Y-8729460D02*
X262801Y-8719936D01*
X262801Y-8719936D02*
X253277Y-8700889D01*
X253277Y-8700889D02*
X243753Y-8662793D01*
X243753Y-8662793D02*
X243753Y-8615174D01*
X243753Y-8615174D02*
X253277Y-8577079D01*
X253277Y-8577079D02*
X262801Y-8558031D01*
X262801Y-8558031D02*
X272324Y-8548508D01*
X272324Y-8548508D02*
X291372Y-8538984D01*
X443753Y-8719936D02*
X453277Y-8729460D01*
X453277Y-8729460D02*
X443753Y-8738984D01*
X443753Y-8738984D02*
X434229Y-8729460D01*
X434229Y-8729460D02*
X443753Y-8719936D01*
X443753Y-8719936D02*
X443753Y-8738984D01*
X529467Y-8558031D02*
X538991Y-8548508D01*
X538991Y-8548508D02*
X558039Y-8538984D01*
X558039Y-8538984D02*
X605658Y-8538984D01*
X605658Y-8538984D02*
X624705Y-8548508D01*
X624705Y-8548508D02*
X634229Y-8558031D01*
X634229Y-8558031D02*
X643753Y-8577079D01*
X643753Y-8577079D02*
X643753Y-8596127D01*
X643753Y-8596127D02*
X634229Y-8624698D01*
X634229Y-8624698D02*
X519943Y-8738984D01*
X519943Y-8738984D02*
X643753Y-8738984D01*
X767562Y-8538984D02*
X786610Y-8538984D01*
X786610Y-8538984D02*
X805658Y-8548508D01*
X805658Y-8548508D02*
X815182Y-8558031D01*
X815182Y-8558031D02*
X824705Y-8577079D01*
X824705Y-8577079D02*
X834229Y-8615174D01*
X834229Y-8615174D02*
X834229Y-8662793D01*
X834229Y-8662793D02*
X824705Y-8700889D01*
X824705Y-8700889D02*
X815182Y-8719936D01*
X815182Y-8719936D02*
X805658Y-8729460D01*
X805658Y-8729460D02*
X786610Y-8738984D01*
X786610Y-8738984D02*
X767562Y-8738984D01*
X767562Y-8738984D02*
X748515Y-8729460D01*
X748515Y-8729460D02*
X738991Y-8719936D01*
X738991Y-8719936D02*
X729467Y-8700889D01*
X729467Y-8700889D02*
X719943Y-8662793D01*
X719943Y-8662793D02*
X719943Y-8615174D01*
X719943Y-8615174D02*
X729467Y-8577079D01*
X729467Y-8577079D02*
X738991Y-8558031D01*
X738991Y-8558031D02*
X748515Y-8548508D01*
X748515Y-8548508D02*
X767562Y-8538984D01*
X958039Y-8538984D02*
X977086Y-8538984D01*
X977086Y-8538984D02*
X996134Y-8548508D01*
X996134Y-8548508D02*
X1005658Y-8558031D01*
X1005658Y-8558031D02*
X1015182Y-8577079D01*
X1015182Y-8577079D02*
X1024705Y-8615174D01*
X1024705Y-8615174D02*
X1024705Y-8662793D01*
X1024705Y-8662793D02*
X1015182Y-8700889D01*
X1015182Y-8700889D02*
X1005658Y-8719936D01*
X1005658Y-8719936D02*
X996134Y-8729460D01*
X996134Y-8729460D02*
X977086Y-8738984D01*
X977086Y-8738984D02*
X958039Y-8738984D01*
X958039Y-8738984D02*
X938991Y-8729460D01*
X938991Y-8729460D02*
X929467Y-8719936D01*
X929467Y-8719936D02*
X919943Y-8700889D01*
X919943Y-8700889D02*
X910420Y-8662793D01*
X910420Y-8662793D02*
X910420Y-8615174D01*
X910420Y-8615174D02*
X919943Y-8577079D01*
X919943Y-8577079D02*
X929467Y-8558031D01*
X929467Y-8558031D02*
X938991Y-8548508D01*
X938991Y-8548508D02*
X958039Y-8538984D01*
X1110420Y-8738984D02*
X1110420Y-8605650D01*
X1110420Y-8624698D02*
X1119944Y-8615174D01*
X1119944Y-8615174D02*
X1138991Y-8605650D01*
X1138991Y-8605650D02*
X1167563Y-8605650D01*
X1167563Y-8605650D02*
X1186610Y-8615174D01*
X1186610Y-8615174D02*
X1196134Y-8634222D01*
X1196134Y-8634222D02*
X1196134Y-8738984D01*
X1196134Y-8634222D02*
X1205658Y-8615174D01*
X1205658Y-8615174D02*
X1224705Y-8605650D01*
X1224705Y-8605650D02*
X1253277Y-8605650D01*
X1253277Y-8605650D02*
X1272325Y-8615174D01*
X1272325Y-8615174D02*
X1281848Y-8634222D01*
X1281848Y-8634222D02*
X1281848Y-8738984D01*
X1377086Y-8738984D02*
X1377086Y-8605650D01*
X1377086Y-8624698D02*
X1386610Y-8615174D01*
X1386610Y-8615174D02*
X1405658Y-8605650D01*
X1405658Y-8605650D02*
X1434229Y-8605650D01*
X1434229Y-8605650D02*
X1453277Y-8615174D01*
X1453277Y-8615174D02*
X1462801Y-8634222D01*
X1462801Y-8634222D02*
X1462801Y-8738984D01*
X1462801Y-8634222D02*
X1472324Y-8615174D01*
X1472324Y-8615174D02*
X1491372Y-8605650D01*
X1491372Y-8605650D02*
X1519943Y-8605650D01*
X1519943Y-8605650D02*
X1538991Y-8615174D01*
X1538991Y-8615174D02*
X1548515Y-8634222D01*
X1548515Y-8634222D02*
X1548515Y-8738984D01*
X1938991Y-8529460D02*
X1767563Y-8786603D01*
X2196134Y-8538984D02*
X2215182Y-8538984D01*
X2215182Y-8538984D02*
X2234229Y-8548508D01*
X2234229Y-8548508D02*
X2243753Y-8558031D01*
X2243753Y-8558031D02*
X2253277Y-8577079D01*
X2253277Y-8577079D02*
X2262801Y-8615174D01*
X2262801Y-8615174D02*
X2262801Y-8662793D01*
X2262801Y-8662793D02*
X2253277Y-8700889D01*
X2253277Y-8700889D02*
X2243753Y-8719936D01*
X2243753Y-8719936D02*
X2234229Y-8729460D01*
X2234229Y-8729460D02*
X2215182Y-8738984D01*
X2215182Y-8738984D02*
X2196134Y-8738984D01*
X2196134Y-8738984D02*
X2177087Y-8729460D01*
X2177087Y-8729460D02*
X2167563Y-8719936D01*
X2167563Y-8719936D02*
X2158039Y-8700889D01*
X2158039Y-8700889D02*
X2148515Y-8662793D01*
X2148515Y-8662793D02*
X2148515Y-8615174D01*
X2148515Y-8615174D02*
X2158039Y-8577079D01*
X2158039Y-8577079D02*
X2167563Y-8558031D01*
X2167563Y-8558031D02*
X2177087Y-8548508D01*
X2177087Y-8548508D02*
X2196134Y-8538984D01*
X2348515Y-8719936D02*
X2358039Y-8729460D01*
X2358039Y-8729460D02*
X2348515Y-8738984D01*
X2348515Y-8738984D02*
X2338991Y-8729460D01*
X2338991Y-8729460D02*
X2348515Y-8719936D01*
X2348515Y-8719936D02*
X2348515Y-8738984D01*
X2481848Y-8538984D02*
X2500896Y-8538984D01*
X2500896Y-8538984D02*
X2519944Y-8548508D01*
X2519944Y-8548508D02*
X2529468Y-8558031D01*
X2529468Y-8558031D02*
X2538991Y-8577079D01*
X2538991Y-8577079D02*
X2548515Y-8615174D01*
X2548515Y-8615174D02*
X2548515Y-8662793D01*
X2548515Y-8662793D02*
X2538991Y-8700889D01*
X2538991Y-8700889D02*
X2529468Y-8719936D01*
X2529468Y-8719936D02*
X2519944Y-8729460D01*
X2519944Y-8729460D02*
X2500896Y-8738984D01*
X2500896Y-8738984D02*
X2481848Y-8738984D01*
X2481848Y-8738984D02*
X2462801Y-8729460D01*
X2462801Y-8729460D02*
X2453277Y-8719936D01*
X2453277Y-8719936D02*
X2443753Y-8700889D01*
X2443753Y-8700889D02*
X2434229Y-8662793D01*
X2434229Y-8662793D02*
X2434229Y-8615174D01*
X2434229Y-8615174D02*
X2443753Y-8577079D01*
X2443753Y-8577079D02*
X2453277Y-8558031D01*
X2453277Y-8558031D02*
X2462801Y-8548508D01*
X2462801Y-8548508D02*
X2481848Y-8538984D01*
X2672325Y-8538984D02*
X2691372Y-8538984D01*
X2691372Y-8538984D02*
X2710420Y-8548508D01*
X2710420Y-8548508D02*
X2719944Y-8558031D01*
X2719944Y-8558031D02*
X2729468Y-8577079D01*
X2729468Y-8577079D02*
X2738991Y-8615174D01*
X2738991Y-8615174D02*
X2738991Y-8662793D01*
X2738991Y-8662793D02*
X2729468Y-8700889D01*
X2729468Y-8700889D02*
X2719944Y-8719936D01*
X2719944Y-8719936D02*
X2710420Y-8729460D01*
X2710420Y-8729460D02*
X2691372Y-8738984D01*
X2691372Y-8738984D02*
X2672325Y-8738984D01*
X2672325Y-8738984D02*
X2653277Y-8729460D01*
X2653277Y-8729460D02*
X2643753Y-8719936D01*
X2643753Y-8719936D02*
X2634229Y-8700889D01*
X2634229Y-8700889D02*
X2624706Y-8662793D01*
X2624706Y-8662793D02*
X2624706Y-8615174D01*
X2624706Y-8615174D02*
X2634229Y-8577079D01*
X2634229Y-8577079D02*
X2643753Y-8558031D01*
X2643753Y-8558031D02*
X2653277Y-8548508D01*
X2653277Y-8548508D02*
X2672325Y-8538984D01*
X2805658Y-8538984D02*
X2938991Y-8538984D01*
X2938991Y-8538984D02*
X2853277Y-8738984D01*
X3024706Y-8738984D02*
X3062801Y-8738984D01*
X3062801Y-8738984D02*
X3081848Y-8729460D01*
X3081848Y-8729460D02*
X3091372Y-8719936D01*
X3091372Y-8719936D02*
X3110420Y-8691365D01*
X3110420Y-8691365D02*
X3119944Y-8653270D01*
X3119944Y-8653270D02*
X3119944Y-8577079D01*
X3119944Y-8577079D02*
X3110420Y-8558031D01*
X3110420Y-8558031D02*
X3100896Y-8548508D01*
X3100896Y-8548508D02*
X3081848Y-8538984D01*
X3081848Y-8538984D02*
X3043753Y-8538984D01*
X3043753Y-8538984D02*
X3024706Y-8548508D01*
X3024706Y-8548508D02*
X3015182Y-8558031D01*
X3015182Y-8558031D02*
X3005658Y-8577079D01*
X3005658Y-8577079D02*
X3005658Y-8624698D01*
X3005658Y-8624698D02*
X3015182Y-8643746D01*
X3015182Y-8643746D02*
X3024706Y-8653270D01*
X3024706Y-8653270D02*
X3043753Y-8662793D01*
X3043753Y-8662793D02*
X3081848Y-8662793D01*
X3081848Y-8662793D02*
X3100896Y-8653270D01*
X3100896Y-8653270D02*
X3110420Y-8643746D01*
X3110420Y-8643746D02*
X3119944Y-8624698D01*
X3196134Y-8538984D02*
X3196134Y-8577079D01*
X3272325Y-8538984D02*
X3272325Y-8577079D01*
X3567563Y-8815174D02*
X3558039Y-8805650D01*
X3558039Y-8805650D02*
X3538991Y-8777079D01*
X3538991Y-8777079D02*
X3529468Y-8758031D01*
X3529468Y-8758031D02*
X3519944Y-8729460D01*
X3519944Y-8729460D02*
X3510420Y-8681841D01*
X3510420Y-8681841D02*
X3510420Y-8643746D01*
X3510420Y-8643746D02*
X3519944Y-8596127D01*
X3519944Y-8596127D02*
X3529468Y-8567555D01*
X3529468Y-8567555D02*
X3538991Y-8548508D01*
X3538991Y-8548508D02*
X3558039Y-8519936D01*
X3558039Y-8519936D02*
X3567563Y-8510412D01*
X3729468Y-8538984D02*
X3691372Y-8538984D01*
X3691372Y-8538984D02*
X3672325Y-8548508D01*
X3672325Y-8548508D02*
X3662801Y-8558031D01*
X3662801Y-8558031D02*
X3643753Y-8586603D01*
X3643753Y-8586603D02*
X3634229Y-8624698D01*
X3634229Y-8624698D02*
X3634229Y-8700889D01*
X3634229Y-8700889D02*
X3643753Y-8719936D01*
X3643753Y-8719936D02*
X3653277Y-8729460D01*
X3653277Y-8729460D02*
X3672325Y-8738984D01*
X3672325Y-8738984D02*
X3710420Y-8738984D01*
X3710420Y-8738984D02*
X3729468Y-8729460D01*
X3729468Y-8729460D02*
X3738991Y-8719936D01*
X3738991Y-8719936D02*
X3748515Y-8700889D01*
X3748515Y-8700889D02*
X3748515Y-8653270D01*
X3748515Y-8653270D02*
X3738991Y-8634222D01*
X3738991Y-8634222D02*
X3729468Y-8624698D01*
X3729468Y-8624698D02*
X3710420Y-8615174D01*
X3710420Y-8615174D02*
X3672325Y-8615174D01*
X3672325Y-8615174D02*
X3653277Y-8624698D01*
X3653277Y-8624698D02*
X3643753Y-8634222D01*
X3643753Y-8634222D02*
X3634229Y-8653270D01*
X3824706Y-8558031D02*
X3834229Y-8548508D01*
X3834229Y-8548508D02*
X3853277Y-8538984D01*
X3853277Y-8538984D02*
X3900896Y-8538984D01*
X3900896Y-8538984D02*
X3919944Y-8548508D01*
X3919944Y-8548508D02*
X3929468Y-8558031D01*
X3929468Y-8558031D02*
X3938991Y-8577079D01*
X3938991Y-8577079D02*
X3938991Y-8596127D01*
X3938991Y-8596127D02*
X3929468Y-8624698D01*
X3929468Y-8624698D02*
X3815182Y-8738984D01*
X3815182Y-8738984D02*
X3938991Y-8738984D01*
X4005658Y-8538984D02*
X4138991Y-8538984D01*
X4138991Y-8538984D02*
X4053277Y-8738984D01*
X4367563Y-8738984D02*
X4367563Y-8538984D01*
X4453277Y-8738984D02*
X4453277Y-8634222D01*
X4453277Y-8634222D02*
X4443753Y-8615174D01*
X4443753Y-8615174D02*
X4424706Y-8605650D01*
X4424706Y-8605650D02*
X4396134Y-8605650D01*
X4396134Y-8605650D02*
X4377087Y-8615174D01*
X4377087Y-8615174D02*
X4367563Y-8624698D01*
X4577087Y-8738984D02*
X4558039Y-8729460D01*
X4558039Y-8729460D02*
X4548515Y-8719936D01*
X4548515Y-8719936D02*
X4538992Y-8700889D01*
X4538992Y-8700889D02*
X4538992Y-8643746D01*
X4538992Y-8643746D02*
X4548515Y-8624698D01*
X4548515Y-8624698D02*
X4558039Y-8615174D01*
X4558039Y-8615174D02*
X4577087Y-8605650D01*
X4577087Y-8605650D02*
X4605658Y-8605650D01*
X4605658Y-8605650D02*
X4624706Y-8615174D01*
X4624706Y-8615174D02*
X4634230Y-8624698D01*
X4634230Y-8624698D02*
X4643753Y-8643746D01*
X4643753Y-8643746D02*
X4643753Y-8700889D01*
X4643753Y-8700889D02*
X4634230Y-8719936D01*
X4634230Y-8719936D02*
X4624706Y-8729460D01*
X4624706Y-8729460D02*
X4605658Y-8738984D01*
X4605658Y-8738984D02*
X4577087Y-8738984D01*
X4758039Y-8738984D02*
X4738992Y-8729460D01*
X4738992Y-8729460D02*
X4729468Y-8710412D01*
X4729468Y-8710412D02*
X4729468Y-8538984D01*
X4910420Y-8729460D02*
X4891373Y-8738984D01*
X4891373Y-8738984D02*
X4853277Y-8738984D01*
X4853277Y-8738984D02*
X4834230Y-8729460D01*
X4834230Y-8729460D02*
X4824706Y-8710412D01*
X4824706Y-8710412D02*
X4824706Y-8634222D01*
X4824706Y-8634222D02*
X4834230Y-8615174D01*
X4834230Y-8615174D02*
X4853277Y-8605650D01*
X4853277Y-8605650D02*
X4891373Y-8605650D01*
X4891373Y-8605650D02*
X4910420Y-8615174D01*
X4910420Y-8615174D02*
X4919944Y-8634222D01*
X4919944Y-8634222D02*
X4919944Y-8653270D01*
X4919944Y-8653270D02*
X4824706Y-8672317D01*
X4996134Y-8729460D02*
X5015182Y-8738984D01*
X5015182Y-8738984D02*
X5053277Y-8738984D01*
X5053277Y-8738984D02*
X5072325Y-8729460D01*
X5072325Y-8729460D02*
X5081849Y-8710412D01*
X5081849Y-8710412D02*
X5081849Y-8700889D01*
X5081849Y-8700889D02*
X5072325Y-8681841D01*
X5072325Y-8681841D02*
X5053277Y-8672317D01*
X5053277Y-8672317D02*
X5024706Y-8672317D01*
X5024706Y-8672317D02*
X5005658Y-8662793D01*
X5005658Y-8662793D02*
X4996134Y-8643746D01*
X4996134Y-8643746D02*
X4996134Y-8634222D01*
X4996134Y-8634222D02*
X5005658Y-8615174D01*
X5005658Y-8615174D02*
X5024706Y-8605650D01*
X5024706Y-8605650D02*
X5053277Y-8605650D01*
X5053277Y-8605650D02*
X5072325Y-8615174D01*
X5148515Y-8815174D02*
X5158039Y-8805650D01*
X5158039Y-8805650D02*
X5177087Y-8777079D01*
X5177087Y-8777079D02*
X5186611Y-8758031D01*
X5186611Y-8758031D02*
X5196134Y-8729460D01*
X5196134Y-8729460D02*
X5205658Y-8681841D01*
X5205658Y-8681841D02*
X5205658Y-8643746D01*
X5205658Y-8643746D02*
X5196134Y-8596127D01*
X5196134Y-8596127D02*
X5186611Y-8567555D01*
X5186611Y-8567555D02*
X5177087Y-8548508D01*
X5177087Y-8548508D02*
X5158039Y-8519936D01*
X5158039Y-8519936D02*
X5148515Y-8510412D01*
D12*
X-7500Y-8911500D02*
G75*
G03*
X-27500Y-8911500I-10000J0D01*
G01*
X-27500Y-8911500D02*
G75*
G03*
X-7500Y-8911500I10000J0D01*
G01*
D11*
X291372Y-8802984D02*
X310420Y-8802984D01*
X310420Y-8802984D02*
X329467Y-8812508D01*
X329467Y-8812508D02*
X338991Y-8822031D01*
X338991Y-8822031D02*
X348515Y-8841079D01*
X348515Y-8841079D02*
X358039Y-8879174D01*
X358039Y-8879174D02*
X358039Y-8926793D01*
X358039Y-8926793D02*
X348515Y-8964889D01*
X348515Y-8964889D02*
X338991Y-8983936D01*
X338991Y-8983936D02*
X329467Y-8993460D01*
X329467Y-8993460D02*
X310420Y-9002984D01*
X310420Y-9002984D02*
X291372Y-9002984D01*
X291372Y-9002984D02*
X272324Y-8993460D01*
X272324Y-8993460D02*
X262801Y-8983936D01*
X262801Y-8983936D02*
X253277Y-8964889D01*
X253277Y-8964889D02*
X243753Y-8926793D01*
X243753Y-8926793D02*
X243753Y-8879174D01*
X243753Y-8879174D02*
X253277Y-8841079D01*
X253277Y-8841079D02*
X262801Y-8822031D01*
X262801Y-8822031D02*
X272324Y-8812508D01*
X272324Y-8812508D02*
X291372Y-8802984D01*
X443753Y-8983936D02*
X453277Y-8993460D01*
X453277Y-8993460D02*
X443753Y-9002984D01*
X443753Y-9002984D02*
X434229Y-8993460D01*
X434229Y-8993460D02*
X443753Y-8983936D01*
X443753Y-8983936D02*
X443753Y-9002984D01*
X529467Y-8822031D02*
X538991Y-8812508D01*
X538991Y-8812508D02*
X558039Y-8802984D01*
X558039Y-8802984D02*
X605658Y-8802984D01*
X605658Y-8802984D02*
X624705Y-8812508D01*
X624705Y-8812508D02*
X634229Y-8822031D01*
X634229Y-8822031D02*
X643753Y-8841079D01*
X643753Y-8841079D02*
X643753Y-8860127D01*
X643753Y-8860127D02*
X634229Y-8888698D01*
X634229Y-8888698D02*
X519943Y-9002984D01*
X519943Y-9002984D02*
X643753Y-9002984D01*
X767562Y-8802984D02*
X786610Y-8802984D01*
X786610Y-8802984D02*
X805658Y-8812508D01*
X805658Y-8812508D02*
X815182Y-8822031D01*
X815182Y-8822031D02*
X824705Y-8841079D01*
X824705Y-8841079D02*
X834229Y-8879174D01*
X834229Y-8879174D02*
X834229Y-8926793D01*
X834229Y-8926793D02*
X824705Y-8964889D01*
X824705Y-8964889D02*
X815182Y-8983936D01*
X815182Y-8983936D02*
X805658Y-8993460D01*
X805658Y-8993460D02*
X786610Y-9002984D01*
X786610Y-9002984D02*
X767562Y-9002984D01*
X767562Y-9002984D02*
X748515Y-8993460D01*
X748515Y-8993460D02*
X738991Y-8983936D01*
X738991Y-8983936D02*
X729467Y-8964889D01*
X729467Y-8964889D02*
X719943Y-8926793D01*
X719943Y-8926793D02*
X719943Y-8879174D01*
X719943Y-8879174D02*
X729467Y-8841079D01*
X729467Y-8841079D02*
X738991Y-8822031D01*
X738991Y-8822031D02*
X748515Y-8812508D01*
X748515Y-8812508D02*
X767562Y-8802984D01*
X958039Y-8802984D02*
X977086Y-8802984D01*
X977086Y-8802984D02*
X996134Y-8812508D01*
X996134Y-8812508D02*
X1005658Y-8822031D01*
X1005658Y-8822031D02*
X1015182Y-8841079D01*
X1015182Y-8841079D02*
X1024705Y-8879174D01*
X1024705Y-8879174D02*
X1024705Y-8926793D01*
X1024705Y-8926793D02*
X1015182Y-8964889D01*
X1015182Y-8964889D02*
X1005658Y-8983936D01*
X1005658Y-8983936D02*
X996134Y-8993460D01*
X996134Y-8993460D02*
X977086Y-9002984D01*
X977086Y-9002984D02*
X958039Y-9002984D01*
X958039Y-9002984D02*
X938991Y-8993460D01*
X938991Y-8993460D02*
X929467Y-8983936D01*
X929467Y-8983936D02*
X919943Y-8964889D01*
X919943Y-8964889D02*
X910420Y-8926793D01*
X910420Y-8926793D02*
X910420Y-8879174D01*
X910420Y-8879174D02*
X919943Y-8841079D01*
X919943Y-8841079D02*
X929467Y-8822031D01*
X929467Y-8822031D02*
X938991Y-8812508D01*
X938991Y-8812508D02*
X958039Y-8802984D01*
X1110420Y-9002984D02*
X1110420Y-8869650D01*
X1110420Y-8888698D02*
X1119944Y-8879174D01*
X1119944Y-8879174D02*
X1138991Y-8869650D01*
X1138991Y-8869650D02*
X1167563Y-8869650D01*
X1167563Y-8869650D02*
X1186610Y-8879174D01*
X1186610Y-8879174D02*
X1196134Y-8898222D01*
X1196134Y-8898222D02*
X1196134Y-9002984D01*
X1196134Y-8898222D02*
X1205658Y-8879174D01*
X1205658Y-8879174D02*
X1224705Y-8869650D01*
X1224705Y-8869650D02*
X1253277Y-8869650D01*
X1253277Y-8869650D02*
X1272325Y-8879174D01*
X1272325Y-8879174D02*
X1281848Y-8898222D01*
X1281848Y-8898222D02*
X1281848Y-9002984D01*
X1377086Y-9002984D02*
X1377086Y-8869650D01*
X1377086Y-8888698D02*
X1386610Y-8879174D01*
X1386610Y-8879174D02*
X1405658Y-8869650D01*
X1405658Y-8869650D02*
X1434229Y-8869650D01*
X1434229Y-8869650D02*
X1453277Y-8879174D01*
X1453277Y-8879174D02*
X1462801Y-8898222D01*
X1462801Y-8898222D02*
X1462801Y-9002984D01*
X1462801Y-8898222D02*
X1472324Y-8879174D01*
X1472324Y-8879174D02*
X1491372Y-8869650D01*
X1491372Y-8869650D02*
X1519943Y-8869650D01*
X1519943Y-8869650D02*
X1538991Y-8879174D01*
X1538991Y-8879174D02*
X1548515Y-8898222D01*
X1548515Y-8898222D02*
X1548515Y-9002984D01*
X1938991Y-8793460D02*
X1767563Y-9050603D01*
X2196134Y-8802984D02*
X2215182Y-8802984D01*
X2215182Y-8802984D02*
X2234229Y-8812508D01*
X2234229Y-8812508D02*
X2243753Y-8822031D01*
X2243753Y-8822031D02*
X2253277Y-8841079D01*
X2253277Y-8841079D02*
X2262801Y-8879174D01*
X2262801Y-8879174D02*
X2262801Y-8926793D01*
X2262801Y-8926793D02*
X2253277Y-8964889D01*
X2253277Y-8964889D02*
X2243753Y-8983936D01*
X2243753Y-8983936D02*
X2234229Y-8993460D01*
X2234229Y-8993460D02*
X2215182Y-9002984D01*
X2215182Y-9002984D02*
X2196134Y-9002984D01*
X2196134Y-9002984D02*
X2177087Y-8993460D01*
X2177087Y-8993460D02*
X2167563Y-8983936D01*
X2167563Y-8983936D02*
X2158039Y-8964889D01*
X2158039Y-8964889D02*
X2148515Y-8926793D01*
X2148515Y-8926793D02*
X2148515Y-8879174D01*
X2148515Y-8879174D02*
X2158039Y-8841079D01*
X2158039Y-8841079D02*
X2167563Y-8822031D01*
X2167563Y-8822031D02*
X2177087Y-8812508D01*
X2177087Y-8812508D02*
X2196134Y-8802984D01*
X2348515Y-8983936D02*
X2358039Y-8993460D01*
X2358039Y-8993460D02*
X2348515Y-9002984D01*
X2348515Y-9002984D02*
X2338991Y-8993460D01*
X2338991Y-8993460D02*
X2348515Y-8983936D01*
X2348515Y-8983936D02*
X2348515Y-9002984D01*
X2481848Y-8802984D02*
X2500896Y-8802984D01*
X2500896Y-8802984D02*
X2519944Y-8812508D01*
X2519944Y-8812508D02*
X2529468Y-8822031D01*
X2529468Y-8822031D02*
X2538991Y-8841079D01*
X2538991Y-8841079D02*
X2548515Y-8879174D01*
X2548515Y-8879174D02*
X2548515Y-8926793D01*
X2548515Y-8926793D02*
X2538991Y-8964889D01*
X2538991Y-8964889D02*
X2529468Y-8983936D01*
X2529468Y-8983936D02*
X2519944Y-8993460D01*
X2519944Y-8993460D02*
X2500896Y-9002984D01*
X2500896Y-9002984D02*
X2481848Y-9002984D01*
X2481848Y-9002984D02*
X2462801Y-8993460D01*
X2462801Y-8993460D02*
X2453277Y-8983936D01*
X2453277Y-8983936D02*
X2443753Y-8964889D01*
X2443753Y-8964889D02*
X2434229Y-8926793D01*
X2434229Y-8926793D02*
X2434229Y-8879174D01*
X2434229Y-8879174D02*
X2443753Y-8841079D01*
X2443753Y-8841079D02*
X2453277Y-8822031D01*
X2453277Y-8822031D02*
X2462801Y-8812508D01*
X2462801Y-8812508D02*
X2481848Y-8802984D01*
X2672325Y-8802984D02*
X2691372Y-8802984D01*
X2691372Y-8802984D02*
X2710420Y-8812508D01*
X2710420Y-8812508D02*
X2719944Y-8822031D01*
X2719944Y-8822031D02*
X2729468Y-8841079D01*
X2729468Y-8841079D02*
X2738991Y-8879174D01*
X2738991Y-8879174D02*
X2738991Y-8926793D01*
X2738991Y-8926793D02*
X2729468Y-8964889D01*
X2729468Y-8964889D02*
X2719944Y-8983936D01*
X2719944Y-8983936D02*
X2710420Y-8993460D01*
X2710420Y-8993460D02*
X2691372Y-9002984D01*
X2691372Y-9002984D02*
X2672325Y-9002984D01*
X2672325Y-9002984D02*
X2653277Y-8993460D01*
X2653277Y-8993460D02*
X2643753Y-8983936D01*
X2643753Y-8983936D02*
X2634229Y-8964889D01*
X2634229Y-8964889D02*
X2624706Y-8926793D01*
X2624706Y-8926793D02*
X2624706Y-8879174D01*
X2624706Y-8879174D02*
X2634229Y-8841079D01*
X2634229Y-8841079D02*
X2643753Y-8822031D01*
X2643753Y-8822031D02*
X2653277Y-8812508D01*
X2653277Y-8812508D02*
X2672325Y-8802984D01*
X2805658Y-8802984D02*
X2938991Y-8802984D01*
X2938991Y-8802984D02*
X2853277Y-9002984D01*
X3024706Y-9002984D02*
X3062801Y-9002984D01*
X3062801Y-9002984D02*
X3081848Y-8993460D01*
X3081848Y-8993460D02*
X3091372Y-8983936D01*
X3091372Y-8983936D02*
X3110420Y-8955365D01*
X3110420Y-8955365D02*
X3119944Y-8917270D01*
X3119944Y-8917270D02*
X3119944Y-8841079D01*
X3119944Y-8841079D02*
X3110420Y-8822031D01*
X3110420Y-8822031D02*
X3100896Y-8812508D01*
X3100896Y-8812508D02*
X3081848Y-8802984D01*
X3081848Y-8802984D02*
X3043753Y-8802984D01*
X3043753Y-8802984D02*
X3024706Y-8812508D01*
X3024706Y-8812508D02*
X3015182Y-8822031D01*
X3015182Y-8822031D02*
X3005658Y-8841079D01*
X3005658Y-8841079D02*
X3005658Y-8888698D01*
X3005658Y-8888698D02*
X3015182Y-8907746D01*
X3015182Y-8907746D02*
X3024706Y-8917270D01*
X3024706Y-8917270D02*
X3043753Y-8926793D01*
X3043753Y-8926793D02*
X3081848Y-8926793D01*
X3081848Y-8926793D02*
X3100896Y-8917270D01*
X3100896Y-8917270D02*
X3110420Y-8907746D01*
X3110420Y-8907746D02*
X3119944Y-8888698D01*
X3196134Y-8802984D02*
X3196134Y-8841079D01*
X3272325Y-8802984D02*
X3272325Y-8841079D01*
X3567563Y-9079174D02*
X3558039Y-9069650D01*
X3558039Y-9069650D02*
X3538991Y-9041079D01*
X3538991Y-9041079D02*
X3529468Y-9022031D01*
X3529468Y-9022031D02*
X3519944Y-8993460D01*
X3519944Y-8993460D02*
X3510420Y-8945841D01*
X3510420Y-8945841D02*
X3510420Y-8907746D01*
X3510420Y-8907746D02*
X3519944Y-8860127D01*
X3519944Y-8860127D02*
X3529468Y-8831555D01*
X3529468Y-8831555D02*
X3538991Y-8812508D01*
X3538991Y-8812508D02*
X3558039Y-8783936D01*
X3558039Y-8783936D02*
X3567563Y-8774412D01*
X3748515Y-9002984D02*
X3634229Y-9002984D01*
X3691372Y-9002984D02*
X3691372Y-8802984D01*
X3691372Y-8802984D02*
X3672325Y-8831555D01*
X3672325Y-8831555D02*
X3653277Y-8850603D01*
X3653277Y-8850603D02*
X3634229Y-8860127D01*
X3824706Y-8822031D02*
X3834229Y-8812508D01*
X3834229Y-8812508D02*
X3853277Y-8802984D01*
X3853277Y-8802984D02*
X3900896Y-8802984D01*
X3900896Y-8802984D02*
X3919944Y-8812508D01*
X3919944Y-8812508D02*
X3929468Y-8822031D01*
X3929468Y-8822031D02*
X3938991Y-8841079D01*
X3938991Y-8841079D02*
X3938991Y-8860127D01*
X3938991Y-8860127D02*
X3929468Y-8888698D01*
X3929468Y-8888698D02*
X3815182Y-9002984D01*
X3815182Y-9002984D02*
X3938991Y-9002984D01*
X4177087Y-9002984D02*
X4177087Y-8802984D01*
X4262801Y-9002984D02*
X4262801Y-8898222D01*
X4262801Y-8898222D02*
X4253277Y-8879174D01*
X4253277Y-8879174D02*
X4234230Y-8869650D01*
X4234230Y-8869650D02*
X4205658Y-8869650D01*
X4205658Y-8869650D02*
X4186610Y-8879174D01*
X4186610Y-8879174D02*
X4177087Y-8888698D01*
X4386611Y-9002984D02*
X4367563Y-8993460D01*
X4367563Y-8993460D02*
X4358039Y-8983936D01*
X4358039Y-8983936D02*
X4348515Y-8964889D01*
X4348515Y-8964889D02*
X4348515Y-8907746D01*
X4348515Y-8907746D02*
X4358039Y-8888698D01*
X4358039Y-8888698D02*
X4367563Y-8879174D01*
X4367563Y-8879174D02*
X4386611Y-8869650D01*
X4386611Y-8869650D02*
X4415182Y-8869650D01*
X4415182Y-8869650D02*
X4434230Y-8879174D01*
X4434230Y-8879174D02*
X4443753Y-8888698D01*
X4443753Y-8888698D02*
X4453277Y-8907746D01*
X4453277Y-8907746D02*
X4453277Y-8964889D01*
X4453277Y-8964889D02*
X4443753Y-8983936D01*
X4443753Y-8983936D02*
X4434230Y-8993460D01*
X4434230Y-8993460D02*
X4415182Y-9002984D01*
X4415182Y-9002984D02*
X4386611Y-9002984D01*
X4567563Y-9002984D02*
X4548515Y-8993460D01*
X4548515Y-8993460D02*
X4538992Y-8974412D01*
X4538992Y-8974412D02*
X4538992Y-8802984D01*
X4719944Y-8993460D02*
X4700896Y-9002984D01*
X4700896Y-9002984D02*
X4662801Y-9002984D01*
X4662801Y-9002984D02*
X4643753Y-8993460D01*
X4643753Y-8993460D02*
X4634230Y-8974412D01*
X4634230Y-8974412D02*
X4634230Y-8898222D01*
X4634230Y-8898222D02*
X4643753Y-8879174D01*
X4643753Y-8879174D02*
X4662801Y-8869650D01*
X4662801Y-8869650D02*
X4700896Y-8869650D01*
X4700896Y-8869650D02*
X4719944Y-8879174D01*
X4719944Y-8879174D02*
X4729468Y-8898222D01*
X4729468Y-8898222D02*
X4729468Y-8917270D01*
X4729468Y-8917270D02*
X4634230Y-8936317D01*
X4805658Y-8993460D02*
X4824706Y-9002984D01*
X4824706Y-9002984D02*
X4862801Y-9002984D01*
X4862801Y-9002984D02*
X4881849Y-8993460D01*
X4881849Y-8993460D02*
X4891373Y-8974412D01*
X4891373Y-8974412D02*
X4891373Y-8964889D01*
X4891373Y-8964889D02*
X4881849Y-8945841D01*
X4881849Y-8945841D02*
X4862801Y-8936317D01*
X4862801Y-8936317D02*
X4834230Y-8936317D01*
X4834230Y-8936317D02*
X4815182Y-8926793D01*
X4815182Y-8926793D02*
X4805658Y-8907746D01*
X4805658Y-8907746D02*
X4805658Y-8898222D01*
X4805658Y-8898222D02*
X4815182Y-8879174D01*
X4815182Y-8879174D02*
X4834230Y-8869650D01*
X4834230Y-8869650D02*
X4862801Y-8869650D01*
X4862801Y-8869650D02*
X4881849Y-8879174D01*
X4958039Y-9079174D02*
X4967563Y-9069650D01*
X4967563Y-9069650D02*
X4986611Y-9041079D01*
X4986611Y-9041079D02*
X4996134Y-9022031D01*
X4996134Y-9022031D02*
X5005658Y-8993460D01*
X5005658Y-8993460D02*
X5015182Y-8945841D01*
X5015182Y-8945841D02*
X5015182Y-8907746D01*
X5015182Y-8907746D02*
X5005658Y-8860127D01*
X5005658Y-8860127D02*
X4996134Y-8831555D01*
X4996134Y-8831555D02*
X4986611Y-8812508D01*
X4986611Y-8812508D02*
X4967563Y-8783936D01*
X4967563Y-8783936D02*
X4958039Y-8774412D01*
D12*
X-22500Y-9160500D02*
X-22500Y-9190500D01*
X-37500Y-9175500D02*
X-7500Y-9175500D01*
D11*
X291372Y-9066984D02*
X310420Y-9066984D01*
X310420Y-9066984D02*
X329467Y-9076508D01*
X329467Y-9076508D02*
X338991Y-9086031D01*
X338991Y-9086031D02*
X348515Y-9105079D01*
X348515Y-9105079D02*
X358039Y-9143174D01*
X358039Y-9143174D02*
X358039Y-9190793D01*
X358039Y-9190793D02*
X348515Y-9228889D01*
X348515Y-9228889D02*
X338991Y-9247936D01*
X338991Y-9247936D02*
X329467Y-9257460D01*
X329467Y-9257460D02*
X310420Y-9266984D01*
X310420Y-9266984D02*
X291372Y-9266984D01*
X291372Y-9266984D02*
X272324Y-9257460D01*
X272324Y-9257460D02*
X262801Y-9247936D01*
X262801Y-9247936D02*
X253277Y-9228889D01*
X253277Y-9228889D02*
X243753Y-9190793D01*
X243753Y-9190793D02*
X243753Y-9143174D01*
X243753Y-9143174D02*
X253277Y-9105079D01*
X253277Y-9105079D02*
X262801Y-9086031D01*
X262801Y-9086031D02*
X272324Y-9076508D01*
X272324Y-9076508D02*
X291372Y-9066984D01*
X443753Y-9247936D02*
X453277Y-9257460D01*
X453277Y-9257460D02*
X443753Y-9266984D01*
X443753Y-9266984D02*
X434229Y-9257460D01*
X434229Y-9257460D02*
X443753Y-9247936D01*
X443753Y-9247936D02*
X443753Y-9266984D01*
X519943Y-9066984D02*
X643753Y-9066984D01*
X643753Y-9066984D02*
X577086Y-9143174D01*
X577086Y-9143174D02*
X605658Y-9143174D01*
X605658Y-9143174D02*
X624705Y-9152698D01*
X624705Y-9152698D02*
X634229Y-9162222D01*
X634229Y-9162222D02*
X643753Y-9181270D01*
X643753Y-9181270D02*
X643753Y-9228889D01*
X643753Y-9228889D02*
X634229Y-9247936D01*
X634229Y-9247936D02*
X624705Y-9257460D01*
X624705Y-9257460D02*
X605658Y-9266984D01*
X605658Y-9266984D02*
X548515Y-9266984D01*
X548515Y-9266984D02*
X529467Y-9257460D01*
X529467Y-9257460D02*
X519943Y-9247936D01*
X767562Y-9066984D02*
X786610Y-9066984D01*
X786610Y-9066984D02*
X805658Y-9076508D01*
X805658Y-9076508D02*
X815182Y-9086031D01*
X815182Y-9086031D02*
X824705Y-9105079D01*
X824705Y-9105079D02*
X834229Y-9143174D01*
X834229Y-9143174D02*
X834229Y-9190793D01*
X834229Y-9190793D02*
X824705Y-9228889D01*
X824705Y-9228889D02*
X815182Y-9247936D01*
X815182Y-9247936D02*
X805658Y-9257460D01*
X805658Y-9257460D02*
X786610Y-9266984D01*
X786610Y-9266984D02*
X767562Y-9266984D01*
X767562Y-9266984D02*
X748515Y-9257460D01*
X748515Y-9257460D02*
X738991Y-9247936D01*
X738991Y-9247936D02*
X729467Y-9228889D01*
X729467Y-9228889D02*
X719943Y-9190793D01*
X719943Y-9190793D02*
X719943Y-9143174D01*
X719943Y-9143174D02*
X729467Y-9105079D01*
X729467Y-9105079D02*
X738991Y-9086031D01*
X738991Y-9086031D02*
X748515Y-9076508D01*
X748515Y-9076508D02*
X767562Y-9066984D01*
X958039Y-9066984D02*
X977086Y-9066984D01*
X977086Y-9066984D02*
X996134Y-9076508D01*
X996134Y-9076508D02*
X1005658Y-9086031D01*
X1005658Y-9086031D02*
X1015182Y-9105079D01*
X1015182Y-9105079D02*
X1024705Y-9143174D01*
X1024705Y-9143174D02*
X1024705Y-9190793D01*
X1024705Y-9190793D02*
X1015182Y-9228889D01*
X1015182Y-9228889D02*
X1005658Y-9247936D01*
X1005658Y-9247936D02*
X996134Y-9257460D01*
X996134Y-9257460D02*
X977086Y-9266984D01*
X977086Y-9266984D02*
X958039Y-9266984D01*
X958039Y-9266984D02*
X938991Y-9257460D01*
X938991Y-9257460D02*
X929467Y-9247936D01*
X929467Y-9247936D02*
X919943Y-9228889D01*
X919943Y-9228889D02*
X910420Y-9190793D01*
X910420Y-9190793D02*
X910420Y-9143174D01*
X910420Y-9143174D02*
X919943Y-9105079D01*
X919943Y-9105079D02*
X929467Y-9086031D01*
X929467Y-9086031D02*
X938991Y-9076508D01*
X938991Y-9076508D02*
X958039Y-9066984D01*
X1110420Y-9266984D02*
X1110420Y-9133650D01*
X1110420Y-9152698D02*
X1119944Y-9143174D01*
X1119944Y-9143174D02*
X1138991Y-9133650D01*
X1138991Y-9133650D02*
X1167563Y-9133650D01*
X1167563Y-9133650D02*
X1186610Y-9143174D01*
X1186610Y-9143174D02*
X1196134Y-9162222D01*
X1196134Y-9162222D02*
X1196134Y-9266984D01*
X1196134Y-9162222D02*
X1205658Y-9143174D01*
X1205658Y-9143174D02*
X1224705Y-9133650D01*
X1224705Y-9133650D02*
X1253277Y-9133650D01*
X1253277Y-9133650D02*
X1272325Y-9143174D01*
X1272325Y-9143174D02*
X1281848Y-9162222D01*
X1281848Y-9162222D02*
X1281848Y-9266984D01*
X1377086Y-9266984D02*
X1377086Y-9133650D01*
X1377086Y-9152698D02*
X1386610Y-9143174D01*
X1386610Y-9143174D02*
X1405658Y-9133650D01*
X1405658Y-9133650D02*
X1434229Y-9133650D01*
X1434229Y-9133650D02*
X1453277Y-9143174D01*
X1453277Y-9143174D02*
X1462801Y-9162222D01*
X1462801Y-9162222D02*
X1462801Y-9266984D01*
X1462801Y-9162222D02*
X1472324Y-9143174D01*
X1472324Y-9143174D02*
X1491372Y-9133650D01*
X1491372Y-9133650D02*
X1519943Y-9133650D01*
X1519943Y-9133650D02*
X1538991Y-9143174D01*
X1538991Y-9143174D02*
X1548515Y-9162222D01*
X1548515Y-9162222D02*
X1548515Y-9266984D01*
X1938991Y-9057460D02*
X1767563Y-9314603D01*
X2196134Y-9066984D02*
X2215182Y-9066984D01*
X2215182Y-9066984D02*
X2234229Y-9076508D01*
X2234229Y-9076508D02*
X2243753Y-9086031D01*
X2243753Y-9086031D02*
X2253277Y-9105079D01*
X2253277Y-9105079D02*
X2262801Y-9143174D01*
X2262801Y-9143174D02*
X2262801Y-9190793D01*
X2262801Y-9190793D02*
X2253277Y-9228889D01*
X2253277Y-9228889D02*
X2243753Y-9247936D01*
X2243753Y-9247936D02*
X2234229Y-9257460D01*
X2234229Y-9257460D02*
X2215182Y-9266984D01*
X2215182Y-9266984D02*
X2196134Y-9266984D01*
X2196134Y-9266984D02*
X2177087Y-9257460D01*
X2177087Y-9257460D02*
X2167563Y-9247936D01*
X2167563Y-9247936D02*
X2158039Y-9228889D01*
X2158039Y-9228889D02*
X2148515Y-9190793D01*
X2148515Y-9190793D02*
X2148515Y-9143174D01*
X2148515Y-9143174D02*
X2158039Y-9105079D01*
X2158039Y-9105079D02*
X2167563Y-9086031D01*
X2167563Y-9086031D02*
X2177087Y-9076508D01*
X2177087Y-9076508D02*
X2196134Y-9066984D01*
X2348515Y-9247936D02*
X2358039Y-9257460D01*
X2358039Y-9257460D02*
X2348515Y-9266984D01*
X2348515Y-9266984D02*
X2338991Y-9257460D01*
X2338991Y-9257460D02*
X2348515Y-9247936D01*
X2348515Y-9247936D02*
X2348515Y-9266984D01*
X2481848Y-9066984D02*
X2500896Y-9066984D01*
X2500896Y-9066984D02*
X2519944Y-9076508D01*
X2519944Y-9076508D02*
X2529468Y-9086031D01*
X2529468Y-9086031D02*
X2538991Y-9105079D01*
X2538991Y-9105079D02*
X2548515Y-9143174D01*
X2548515Y-9143174D02*
X2548515Y-9190793D01*
X2548515Y-9190793D02*
X2538991Y-9228889D01*
X2538991Y-9228889D02*
X2529468Y-9247936D01*
X2529468Y-9247936D02*
X2519944Y-9257460D01*
X2519944Y-9257460D02*
X2500896Y-9266984D01*
X2500896Y-9266984D02*
X2481848Y-9266984D01*
X2481848Y-9266984D02*
X2462801Y-9257460D01*
X2462801Y-9257460D02*
X2453277Y-9247936D01*
X2453277Y-9247936D02*
X2443753Y-9228889D01*
X2443753Y-9228889D02*
X2434229Y-9190793D01*
X2434229Y-9190793D02*
X2434229Y-9143174D01*
X2434229Y-9143174D02*
X2443753Y-9105079D01*
X2443753Y-9105079D02*
X2453277Y-9086031D01*
X2453277Y-9086031D02*
X2462801Y-9076508D01*
X2462801Y-9076508D02*
X2481848Y-9066984D01*
X2738991Y-9266984D02*
X2624706Y-9266984D01*
X2681848Y-9266984D02*
X2681848Y-9066984D01*
X2681848Y-9066984D02*
X2662801Y-9095555D01*
X2662801Y-9095555D02*
X2643753Y-9114603D01*
X2643753Y-9114603D02*
X2624706Y-9124127D01*
X2929467Y-9266984D02*
X2815182Y-9266984D01*
X2872325Y-9266984D02*
X2872325Y-9066984D01*
X2872325Y-9066984D02*
X2853277Y-9095555D01*
X2853277Y-9095555D02*
X2834229Y-9114603D01*
X2834229Y-9114603D02*
X2815182Y-9124127D01*
X3043753Y-9152698D02*
X3024706Y-9143174D01*
X3024706Y-9143174D02*
X3015182Y-9133650D01*
X3015182Y-9133650D02*
X3005658Y-9114603D01*
X3005658Y-9114603D02*
X3005658Y-9105079D01*
X3005658Y-9105079D02*
X3015182Y-9086031D01*
X3015182Y-9086031D02*
X3024706Y-9076508D01*
X3024706Y-9076508D02*
X3043753Y-9066984D01*
X3043753Y-9066984D02*
X3081848Y-9066984D01*
X3081848Y-9066984D02*
X3100896Y-9076508D01*
X3100896Y-9076508D02*
X3110420Y-9086031D01*
X3110420Y-9086031D02*
X3119944Y-9105079D01*
X3119944Y-9105079D02*
X3119944Y-9114603D01*
X3119944Y-9114603D02*
X3110420Y-9133650D01*
X3110420Y-9133650D02*
X3100896Y-9143174D01*
X3100896Y-9143174D02*
X3081848Y-9152698D01*
X3081848Y-9152698D02*
X3043753Y-9152698D01*
X3043753Y-9152698D02*
X3024706Y-9162222D01*
X3024706Y-9162222D02*
X3015182Y-9171746D01*
X3015182Y-9171746D02*
X3005658Y-9190793D01*
X3005658Y-9190793D02*
X3005658Y-9228889D01*
X3005658Y-9228889D02*
X3015182Y-9247936D01*
X3015182Y-9247936D02*
X3024706Y-9257460D01*
X3024706Y-9257460D02*
X3043753Y-9266984D01*
X3043753Y-9266984D02*
X3081848Y-9266984D01*
X3081848Y-9266984D02*
X3100896Y-9257460D01*
X3100896Y-9257460D02*
X3110420Y-9247936D01*
X3110420Y-9247936D02*
X3119944Y-9228889D01*
X3119944Y-9228889D02*
X3119944Y-9190793D01*
X3119944Y-9190793D02*
X3110420Y-9171746D01*
X3110420Y-9171746D02*
X3100896Y-9162222D01*
X3100896Y-9162222D02*
X3081848Y-9152698D01*
X3196134Y-9066984D02*
X3196134Y-9105079D01*
X3272325Y-9066984D02*
X3272325Y-9105079D01*
X3567563Y-9343174D02*
X3558039Y-9333650D01*
X3558039Y-9333650D02*
X3538991Y-9305079D01*
X3538991Y-9305079D02*
X3529468Y-9286031D01*
X3529468Y-9286031D02*
X3519944Y-9257460D01*
X3519944Y-9257460D02*
X3510420Y-9209841D01*
X3510420Y-9209841D02*
X3510420Y-9171746D01*
X3510420Y-9171746D02*
X3519944Y-9124127D01*
X3519944Y-9124127D02*
X3529468Y-9095555D01*
X3529468Y-9095555D02*
X3538991Y-9076508D01*
X3538991Y-9076508D02*
X3558039Y-9047936D01*
X3558039Y-9047936D02*
X3567563Y-9038412D01*
X3672325Y-9152698D02*
X3653277Y-9143174D01*
X3653277Y-9143174D02*
X3643753Y-9133650D01*
X3643753Y-9133650D02*
X3634229Y-9114603D01*
X3634229Y-9114603D02*
X3634229Y-9105079D01*
X3634229Y-9105079D02*
X3643753Y-9086031D01*
X3643753Y-9086031D02*
X3653277Y-9076508D01*
X3653277Y-9076508D02*
X3672325Y-9066984D01*
X3672325Y-9066984D02*
X3710420Y-9066984D01*
X3710420Y-9066984D02*
X3729468Y-9076508D01*
X3729468Y-9076508D02*
X3738991Y-9086031D01*
X3738991Y-9086031D02*
X3748515Y-9105079D01*
X3748515Y-9105079D02*
X3748515Y-9114603D01*
X3748515Y-9114603D02*
X3738991Y-9133650D01*
X3738991Y-9133650D02*
X3729468Y-9143174D01*
X3729468Y-9143174D02*
X3710420Y-9152698D01*
X3710420Y-9152698D02*
X3672325Y-9152698D01*
X3672325Y-9152698D02*
X3653277Y-9162222D01*
X3653277Y-9162222D02*
X3643753Y-9171746D01*
X3643753Y-9171746D02*
X3634229Y-9190793D01*
X3634229Y-9190793D02*
X3634229Y-9228889D01*
X3634229Y-9228889D02*
X3643753Y-9247936D01*
X3643753Y-9247936D02*
X3653277Y-9257460D01*
X3653277Y-9257460D02*
X3672325Y-9266984D01*
X3672325Y-9266984D02*
X3710420Y-9266984D01*
X3710420Y-9266984D02*
X3729468Y-9257460D01*
X3729468Y-9257460D02*
X3738991Y-9247936D01*
X3738991Y-9247936D02*
X3748515Y-9228889D01*
X3748515Y-9228889D02*
X3748515Y-9190793D01*
X3748515Y-9190793D02*
X3738991Y-9171746D01*
X3738991Y-9171746D02*
X3729468Y-9162222D01*
X3729468Y-9162222D02*
X3710420Y-9152698D01*
X3872325Y-9066984D02*
X3891372Y-9066984D01*
X3891372Y-9066984D02*
X3910420Y-9076508D01*
X3910420Y-9076508D02*
X3919944Y-9086031D01*
X3919944Y-9086031D02*
X3929468Y-9105079D01*
X3929468Y-9105079D02*
X3938991Y-9143174D01*
X3938991Y-9143174D02*
X3938991Y-9190793D01*
X3938991Y-9190793D02*
X3929468Y-9228889D01*
X3929468Y-9228889D02*
X3919944Y-9247936D01*
X3919944Y-9247936D02*
X3910420Y-9257460D01*
X3910420Y-9257460D02*
X3891372Y-9266984D01*
X3891372Y-9266984D02*
X3872325Y-9266984D01*
X3872325Y-9266984D02*
X3853277Y-9257460D01*
X3853277Y-9257460D02*
X3843753Y-9247936D01*
X3843753Y-9247936D02*
X3834229Y-9228889D01*
X3834229Y-9228889D02*
X3824706Y-9190793D01*
X3824706Y-9190793D02*
X3824706Y-9143174D01*
X3824706Y-9143174D02*
X3834229Y-9105079D01*
X3834229Y-9105079D02*
X3843753Y-9086031D01*
X3843753Y-9086031D02*
X3853277Y-9076508D01*
X3853277Y-9076508D02*
X3872325Y-9066984D01*
X4177087Y-9266984D02*
X4177087Y-9066984D01*
X4262801Y-9266984D02*
X4262801Y-9162222D01*
X4262801Y-9162222D02*
X4253277Y-9143174D01*
X4253277Y-9143174D02*
X4234230Y-9133650D01*
X4234230Y-9133650D02*
X4205658Y-9133650D01*
X4205658Y-9133650D02*
X4186610Y-9143174D01*
X4186610Y-9143174D02*
X4177087Y-9152698D01*
X4386611Y-9266984D02*
X4367563Y-9257460D01*
X4367563Y-9257460D02*
X4358039Y-9247936D01*
X4358039Y-9247936D02*
X4348515Y-9228889D01*
X4348515Y-9228889D02*
X4348515Y-9171746D01*
X4348515Y-9171746D02*
X4358039Y-9152698D01*
X4358039Y-9152698D02*
X4367563Y-9143174D01*
X4367563Y-9143174D02*
X4386611Y-9133650D01*
X4386611Y-9133650D02*
X4415182Y-9133650D01*
X4415182Y-9133650D02*
X4434230Y-9143174D01*
X4434230Y-9143174D02*
X4443753Y-9152698D01*
X4443753Y-9152698D02*
X4453277Y-9171746D01*
X4453277Y-9171746D02*
X4453277Y-9228889D01*
X4453277Y-9228889D02*
X4443753Y-9247936D01*
X4443753Y-9247936D02*
X4434230Y-9257460D01*
X4434230Y-9257460D02*
X4415182Y-9266984D01*
X4415182Y-9266984D02*
X4386611Y-9266984D01*
X4567563Y-9266984D02*
X4548515Y-9257460D01*
X4548515Y-9257460D02*
X4538992Y-9238412D01*
X4538992Y-9238412D02*
X4538992Y-9066984D01*
X4719944Y-9257460D02*
X4700896Y-9266984D01*
X4700896Y-9266984D02*
X4662801Y-9266984D01*
X4662801Y-9266984D02*
X4643753Y-9257460D01*
X4643753Y-9257460D02*
X4634230Y-9238412D01*
X4634230Y-9238412D02*
X4634230Y-9162222D01*
X4634230Y-9162222D02*
X4643753Y-9143174D01*
X4643753Y-9143174D02*
X4662801Y-9133650D01*
X4662801Y-9133650D02*
X4700896Y-9133650D01*
X4700896Y-9133650D02*
X4719944Y-9143174D01*
X4719944Y-9143174D02*
X4729468Y-9162222D01*
X4729468Y-9162222D02*
X4729468Y-9181270D01*
X4729468Y-9181270D02*
X4634230Y-9200317D01*
X4805658Y-9257460D02*
X4824706Y-9266984D01*
X4824706Y-9266984D02*
X4862801Y-9266984D01*
X4862801Y-9266984D02*
X4881849Y-9257460D01*
X4881849Y-9257460D02*
X4891373Y-9238412D01*
X4891373Y-9238412D02*
X4891373Y-9228889D01*
X4891373Y-9228889D02*
X4881849Y-9209841D01*
X4881849Y-9209841D02*
X4862801Y-9200317D01*
X4862801Y-9200317D02*
X4834230Y-9200317D01*
X4834230Y-9200317D02*
X4815182Y-9190793D01*
X4815182Y-9190793D02*
X4805658Y-9171746D01*
X4805658Y-9171746D02*
X4805658Y-9162222D01*
X4805658Y-9162222D02*
X4815182Y-9143174D01*
X4815182Y-9143174D02*
X4834230Y-9133650D01*
X4834230Y-9133650D02*
X4862801Y-9133650D01*
X4862801Y-9133650D02*
X4881849Y-9143174D01*
X4958039Y-9343174D02*
X4967563Y-9333650D01*
X4967563Y-9333650D02*
X4986611Y-9305079D01*
X4986611Y-9305079D02*
X4996134Y-9286031D01*
X4996134Y-9286031D02*
X5005658Y-9257460D01*
X5005658Y-9257460D02*
X5015182Y-9209841D01*
X5015182Y-9209841D02*
X5015182Y-9171746D01*
X5015182Y-9171746D02*
X5005658Y-9124127D01*
X5005658Y-9124127D02*
X4996134Y-9095555D01*
X4996134Y-9095555D02*
X4986611Y-9076508D01*
X4986611Y-9076508D02*
X4967563Y-9047936D01*
X4967563Y-9047936D02*
X4958039Y-9038412D01*
D12*
X-16287Y-9460713D02*
X-16287Y-9418287D01*
X-58713Y-9418287D01*
X-58713Y-9460713D01*
X-16287Y-9460713D01*
D11*
X291372Y-9330984D02*
X310420Y-9330984D01*
X310420Y-9330984D02*
X329467Y-9340508D01*
X329467Y-9340508D02*
X338991Y-9350031D01*
X338991Y-9350031D02*
X348515Y-9369079D01*
X348515Y-9369079D02*
X358039Y-9407174D01*
X358039Y-9407174D02*
X358039Y-9454793D01*
X358039Y-9454793D02*
X348515Y-9492889D01*
X348515Y-9492889D02*
X338991Y-9511936D01*
X338991Y-9511936D02*
X329467Y-9521460D01*
X329467Y-9521460D02*
X310420Y-9530984D01*
X310420Y-9530984D02*
X291372Y-9530984D01*
X291372Y-9530984D02*
X272324Y-9521460D01*
X272324Y-9521460D02*
X262801Y-9511936D01*
X262801Y-9511936D02*
X253277Y-9492889D01*
X253277Y-9492889D02*
X243753Y-9454793D01*
X243753Y-9454793D02*
X243753Y-9407174D01*
X243753Y-9407174D02*
X253277Y-9369079D01*
X253277Y-9369079D02*
X262801Y-9350031D01*
X262801Y-9350031D02*
X272324Y-9340508D01*
X272324Y-9340508D02*
X291372Y-9330984D01*
X443753Y-9511936D02*
X453277Y-9521460D01*
X453277Y-9521460D02*
X443753Y-9530984D01*
X443753Y-9530984D02*
X434229Y-9521460D01*
X434229Y-9521460D02*
X443753Y-9511936D01*
X443753Y-9511936D02*
X443753Y-9530984D01*
X624705Y-9330984D02*
X586610Y-9330984D01*
X586610Y-9330984D02*
X567563Y-9340508D01*
X567563Y-9340508D02*
X558039Y-9350031D01*
X558039Y-9350031D02*
X538991Y-9378603D01*
X538991Y-9378603D02*
X529467Y-9416698D01*
X529467Y-9416698D02*
X529467Y-9492889D01*
X529467Y-9492889D02*
X538991Y-9511936D01*
X538991Y-9511936D02*
X548515Y-9521460D01*
X548515Y-9521460D02*
X567563Y-9530984D01*
X567563Y-9530984D02*
X605658Y-9530984D01*
X605658Y-9530984D02*
X624705Y-9521460D01*
X624705Y-9521460D02*
X634229Y-9511936D01*
X634229Y-9511936D02*
X643753Y-9492889D01*
X643753Y-9492889D02*
X643753Y-9445270D01*
X643753Y-9445270D02*
X634229Y-9426222D01*
X634229Y-9426222D02*
X624705Y-9416698D01*
X624705Y-9416698D02*
X605658Y-9407174D01*
X605658Y-9407174D02*
X567563Y-9407174D01*
X567563Y-9407174D02*
X548515Y-9416698D01*
X548515Y-9416698D02*
X538991Y-9426222D01*
X538991Y-9426222D02*
X529467Y-9445270D01*
X767562Y-9330984D02*
X786610Y-9330984D01*
X786610Y-9330984D02*
X805658Y-9340508D01*
X805658Y-9340508D02*
X815182Y-9350031D01*
X815182Y-9350031D02*
X824705Y-9369079D01*
X824705Y-9369079D02*
X834229Y-9407174D01*
X834229Y-9407174D02*
X834229Y-9454793D01*
X834229Y-9454793D02*
X824705Y-9492889D01*
X824705Y-9492889D02*
X815182Y-9511936D01*
X815182Y-9511936D02*
X805658Y-9521460D01*
X805658Y-9521460D02*
X786610Y-9530984D01*
X786610Y-9530984D02*
X767562Y-9530984D01*
X767562Y-9530984D02*
X748515Y-9521460D01*
X748515Y-9521460D02*
X738991Y-9511936D01*
X738991Y-9511936D02*
X729467Y-9492889D01*
X729467Y-9492889D02*
X719943Y-9454793D01*
X719943Y-9454793D02*
X719943Y-9407174D01*
X719943Y-9407174D02*
X729467Y-9369079D01*
X729467Y-9369079D02*
X738991Y-9350031D01*
X738991Y-9350031D02*
X748515Y-9340508D01*
X748515Y-9340508D02*
X767562Y-9330984D01*
X958039Y-9330984D02*
X977086Y-9330984D01*
X977086Y-9330984D02*
X996134Y-9340508D01*
X996134Y-9340508D02*
X1005658Y-9350031D01*
X1005658Y-9350031D02*
X1015182Y-9369079D01*
X1015182Y-9369079D02*
X1024705Y-9407174D01*
X1024705Y-9407174D02*
X1024705Y-9454793D01*
X1024705Y-9454793D02*
X1015182Y-9492889D01*
X1015182Y-9492889D02*
X1005658Y-9511936D01*
X1005658Y-9511936D02*
X996134Y-9521460D01*
X996134Y-9521460D02*
X977086Y-9530984D01*
X977086Y-9530984D02*
X958039Y-9530984D01*
X958039Y-9530984D02*
X938991Y-9521460D01*
X938991Y-9521460D02*
X929467Y-9511936D01*
X929467Y-9511936D02*
X919943Y-9492889D01*
X919943Y-9492889D02*
X910420Y-9454793D01*
X910420Y-9454793D02*
X910420Y-9407174D01*
X910420Y-9407174D02*
X919943Y-9369079D01*
X919943Y-9369079D02*
X929467Y-9350031D01*
X929467Y-9350031D02*
X938991Y-9340508D01*
X938991Y-9340508D02*
X958039Y-9330984D01*
X1110420Y-9530984D02*
X1110420Y-9397650D01*
X1110420Y-9416698D02*
X1119944Y-9407174D01*
X1119944Y-9407174D02*
X1138991Y-9397650D01*
X1138991Y-9397650D02*
X1167563Y-9397650D01*
X1167563Y-9397650D02*
X1186610Y-9407174D01*
X1186610Y-9407174D02*
X1196134Y-9426222D01*
X1196134Y-9426222D02*
X1196134Y-9530984D01*
X1196134Y-9426222D02*
X1205658Y-9407174D01*
X1205658Y-9407174D02*
X1224705Y-9397650D01*
X1224705Y-9397650D02*
X1253277Y-9397650D01*
X1253277Y-9397650D02*
X1272325Y-9407174D01*
X1272325Y-9407174D02*
X1281848Y-9426222D01*
X1281848Y-9426222D02*
X1281848Y-9530984D01*
X1377086Y-9530984D02*
X1377086Y-9397650D01*
X1377086Y-9416698D02*
X1386610Y-9407174D01*
X1386610Y-9407174D02*
X1405658Y-9397650D01*
X1405658Y-9397650D02*
X1434229Y-9397650D01*
X1434229Y-9397650D02*
X1453277Y-9407174D01*
X1453277Y-9407174D02*
X1462801Y-9426222D01*
X1462801Y-9426222D02*
X1462801Y-9530984D01*
X1462801Y-9426222D02*
X1472324Y-9407174D01*
X1472324Y-9407174D02*
X1491372Y-9397650D01*
X1491372Y-9397650D02*
X1519943Y-9397650D01*
X1519943Y-9397650D02*
X1538991Y-9407174D01*
X1538991Y-9407174D02*
X1548515Y-9426222D01*
X1548515Y-9426222D02*
X1548515Y-9530984D01*
X1938991Y-9321460D02*
X1767563Y-9578603D01*
X2196134Y-9330984D02*
X2215182Y-9330984D01*
X2215182Y-9330984D02*
X2234229Y-9340508D01*
X2234229Y-9340508D02*
X2243753Y-9350031D01*
X2243753Y-9350031D02*
X2253277Y-9369079D01*
X2253277Y-9369079D02*
X2262801Y-9407174D01*
X2262801Y-9407174D02*
X2262801Y-9454793D01*
X2262801Y-9454793D02*
X2253277Y-9492889D01*
X2253277Y-9492889D02*
X2243753Y-9511936D01*
X2243753Y-9511936D02*
X2234229Y-9521460D01*
X2234229Y-9521460D02*
X2215182Y-9530984D01*
X2215182Y-9530984D02*
X2196134Y-9530984D01*
X2196134Y-9530984D02*
X2177087Y-9521460D01*
X2177087Y-9521460D02*
X2167563Y-9511936D01*
X2167563Y-9511936D02*
X2158039Y-9492889D01*
X2158039Y-9492889D02*
X2148515Y-9454793D01*
X2148515Y-9454793D02*
X2148515Y-9407174D01*
X2148515Y-9407174D02*
X2158039Y-9369079D01*
X2158039Y-9369079D02*
X2167563Y-9350031D01*
X2167563Y-9350031D02*
X2177087Y-9340508D01*
X2177087Y-9340508D02*
X2196134Y-9330984D01*
X2348515Y-9511936D02*
X2358039Y-9521460D01*
X2358039Y-9521460D02*
X2348515Y-9530984D01*
X2348515Y-9530984D02*
X2338991Y-9521460D01*
X2338991Y-9521460D02*
X2348515Y-9511936D01*
X2348515Y-9511936D02*
X2348515Y-9530984D01*
X2481848Y-9330984D02*
X2500896Y-9330984D01*
X2500896Y-9330984D02*
X2519944Y-9340508D01*
X2519944Y-9340508D02*
X2529468Y-9350031D01*
X2529468Y-9350031D02*
X2538991Y-9369079D01*
X2538991Y-9369079D02*
X2548515Y-9407174D01*
X2548515Y-9407174D02*
X2548515Y-9454793D01*
X2548515Y-9454793D02*
X2538991Y-9492889D01*
X2538991Y-9492889D02*
X2529468Y-9511936D01*
X2529468Y-9511936D02*
X2519944Y-9521460D01*
X2519944Y-9521460D02*
X2500896Y-9530984D01*
X2500896Y-9530984D02*
X2481848Y-9530984D01*
X2481848Y-9530984D02*
X2462801Y-9521460D01*
X2462801Y-9521460D02*
X2453277Y-9511936D01*
X2453277Y-9511936D02*
X2443753Y-9492889D01*
X2443753Y-9492889D02*
X2434229Y-9454793D01*
X2434229Y-9454793D02*
X2434229Y-9407174D01*
X2434229Y-9407174D02*
X2443753Y-9369079D01*
X2443753Y-9369079D02*
X2453277Y-9350031D01*
X2453277Y-9350031D02*
X2462801Y-9340508D01*
X2462801Y-9340508D02*
X2481848Y-9330984D01*
X2624706Y-9350031D02*
X2634229Y-9340508D01*
X2634229Y-9340508D02*
X2653277Y-9330984D01*
X2653277Y-9330984D02*
X2700896Y-9330984D01*
X2700896Y-9330984D02*
X2719944Y-9340508D01*
X2719944Y-9340508D02*
X2729468Y-9350031D01*
X2729468Y-9350031D02*
X2738991Y-9369079D01*
X2738991Y-9369079D02*
X2738991Y-9388127D01*
X2738991Y-9388127D02*
X2729468Y-9416698D01*
X2729468Y-9416698D02*
X2615182Y-9530984D01*
X2615182Y-9530984D02*
X2738991Y-9530984D01*
X2805658Y-9330984D02*
X2929467Y-9330984D01*
X2929467Y-9330984D02*
X2862801Y-9407174D01*
X2862801Y-9407174D02*
X2891372Y-9407174D01*
X2891372Y-9407174D02*
X2910420Y-9416698D01*
X2910420Y-9416698D02*
X2919944Y-9426222D01*
X2919944Y-9426222D02*
X2929467Y-9445270D01*
X2929467Y-9445270D02*
X2929467Y-9492889D01*
X2929467Y-9492889D02*
X2919944Y-9511936D01*
X2919944Y-9511936D02*
X2910420Y-9521460D01*
X2910420Y-9521460D02*
X2891372Y-9530984D01*
X2891372Y-9530984D02*
X2834229Y-9530984D01*
X2834229Y-9530984D02*
X2815182Y-9521460D01*
X2815182Y-9521460D02*
X2805658Y-9511936D01*
X3100896Y-9330984D02*
X3062801Y-9330984D01*
X3062801Y-9330984D02*
X3043753Y-9340508D01*
X3043753Y-9340508D02*
X3034229Y-9350031D01*
X3034229Y-9350031D02*
X3015182Y-9378603D01*
X3015182Y-9378603D02*
X3005658Y-9416698D01*
X3005658Y-9416698D02*
X3005658Y-9492889D01*
X3005658Y-9492889D02*
X3015182Y-9511936D01*
X3015182Y-9511936D02*
X3024706Y-9521460D01*
X3024706Y-9521460D02*
X3043753Y-9530984D01*
X3043753Y-9530984D02*
X3081848Y-9530984D01*
X3081848Y-9530984D02*
X3100896Y-9521460D01*
X3100896Y-9521460D02*
X3110420Y-9511936D01*
X3110420Y-9511936D02*
X3119944Y-9492889D01*
X3119944Y-9492889D02*
X3119944Y-9445270D01*
X3119944Y-9445270D02*
X3110420Y-9426222D01*
X3110420Y-9426222D02*
X3100896Y-9416698D01*
X3100896Y-9416698D02*
X3081848Y-9407174D01*
X3081848Y-9407174D02*
X3043753Y-9407174D01*
X3043753Y-9407174D02*
X3024706Y-9416698D01*
X3024706Y-9416698D02*
X3015182Y-9426222D01*
X3015182Y-9426222D02*
X3005658Y-9445270D01*
X3196134Y-9330984D02*
X3196134Y-9369079D01*
X3272325Y-9330984D02*
X3272325Y-9369079D01*
X3567563Y-9607174D02*
X3558039Y-9597650D01*
X3558039Y-9597650D02*
X3538991Y-9569079D01*
X3538991Y-9569079D02*
X3529468Y-9550031D01*
X3529468Y-9550031D02*
X3519944Y-9521460D01*
X3519944Y-9521460D02*
X3510420Y-9473841D01*
X3510420Y-9473841D02*
X3510420Y-9435746D01*
X3510420Y-9435746D02*
X3519944Y-9388127D01*
X3519944Y-9388127D02*
X3529468Y-9359555D01*
X3529468Y-9359555D02*
X3538991Y-9340508D01*
X3538991Y-9340508D02*
X3558039Y-9311936D01*
X3558039Y-9311936D02*
X3567563Y-9302412D01*
X3681848Y-9330984D02*
X3700896Y-9330984D01*
X3700896Y-9330984D02*
X3719944Y-9340508D01*
X3719944Y-9340508D02*
X3729468Y-9350031D01*
X3729468Y-9350031D02*
X3738991Y-9369079D01*
X3738991Y-9369079D02*
X3748515Y-9407174D01*
X3748515Y-9407174D02*
X3748515Y-9454793D01*
X3748515Y-9454793D02*
X3738991Y-9492889D01*
X3738991Y-9492889D02*
X3729468Y-9511936D01*
X3729468Y-9511936D02*
X3719944Y-9521460D01*
X3719944Y-9521460D02*
X3700896Y-9530984D01*
X3700896Y-9530984D02*
X3681848Y-9530984D01*
X3681848Y-9530984D02*
X3662801Y-9521460D01*
X3662801Y-9521460D02*
X3653277Y-9511936D01*
X3653277Y-9511936D02*
X3643753Y-9492889D01*
X3643753Y-9492889D02*
X3634229Y-9454793D01*
X3634229Y-9454793D02*
X3634229Y-9407174D01*
X3634229Y-9407174D02*
X3643753Y-9369079D01*
X3643753Y-9369079D02*
X3653277Y-9350031D01*
X3653277Y-9350031D02*
X3662801Y-9340508D01*
X3662801Y-9340508D02*
X3681848Y-9330984D01*
X3986610Y-9530984D02*
X3986610Y-9330984D01*
X4072325Y-9530984D02*
X4072325Y-9426222D01*
X4072325Y-9426222D02*
X4062801Y-9407174D01*
X4062801Y-9407174D02*
X4043753Y-9397650D01*
X4043753Y-9397650D02*
X4015182Y-9397650D01*
X4015182Y-9397650D02*
X3996134Y-9407174D01*
X3996134Y-9407174D02*
X3986610Y-9416698D01*
X4196134Y-9530984D02*
X4177087Y-9521460D01*
X4177087Y-9521460D02*
X4167563Y-9511936D01*
X4167563Y-9511936D02*
X4158039Y-9492889D01*
X4158039Y-9492889D02*
X4158039Y-9435746D01*
X4158039Y-9435746D02*
X4167563Y-9416698D01*
X4167563Y-9416698D02*
X4177087Y-9407174D01*
X4177087Y-9407174D02*
X4196134Y-9397650D01*
X4196134Y-9397650D02*
X4224706Y-9397650D01*
X4224706Y-9397650D02*
X4243753Y-9407174D01*
X4243753Y-9407174D02*
X4253277Y-9416698D01*
X4253277Y-9416698D02*
X4262801Y-9435746D01*
X4262801Y-9435746D02*
X4262801Y-9492889D01*
X4262801Y-9492889D02*
X4253277Y-9511936D01*
X4253277Y-9511936D02*
X4243753Y-9521460D01*
X4243753Y-9521460D02*
X4224706Y-9530984D01*
X4224706Y-9530984D02*
X4196134Y-9530984D01*
X4377087Y-9530984D02*
X4358039Y-9521460D01*
X4358039Y-9521460D02*
X4348515Y-9502412D01*
X4348515Y-9502412D02*
X4348515Y-9330984D01*
X4529468Y-9521460D02*
X4510420Y-9530984D01*
X4510420Y-9530984D02*
X4472325Y-9530984D01*
X4472325Y-9530984D02*
X4453277Y-9521460D01*
X4453277Y-9521460D02*
X4443753Y-9502412D01*
X4443753Y-9502412D02*
X4443753Y-9426222D01*
X4443753Y-9426222D02*
X4453277Y-9407174D01*
X4453277Y-9407174D02*
X4472325Y-9397650D01*
X4472325Y-9397650D02*
X4510420Y-9397650D01*
X4510420Y-9397650D02*
X4529468Y-9407174D01*
X4529468Y-9407174D02*
X4538992Y-9426222D01*
X4538992Y-9426222D02*
X4538992Y-9445270D01*
X4538992Y-9445270D02*
X4443753Y-9464317D01*
X4615182Y-9521460D02*
X4634230Y-9530984D01*
X4634230Y-9530984D02*
X4672325Y-9530984D01*
X4672325Y-9530984D02*
X4691373Y-9521460D01*
X4691373Y-9521460D02*
X4700896Y-9502412D01*
X4700896Y-9502412D02*
X4700896Y-9492889D01*
X4700896Y-9492889D02*
X4691373Y-9473841D01*
X4691373Y-9473841D02*
X4672325Y-9464317D01*
X4672325Y-9464317D02*
X4643753Y-9464317D01*
X4643753Y-9464317D02*
X4624706Y-9454793D01*
X4624706Y-9454793D02*
X4615182Y-9435746D01*
X4615182Y-9435746D02*
X4615182Y-9426222D01*
X4615182Y-9426222D02*
X4624706Y-9407174D01*
X4624706Y-9407174D02*
X4643753Y-9397650D01*
X4643753Y-9397650D02*
X4672325Y-9397650D01*
X4672325Y-9397650D02*
X4691373Y-9407174D01*
X4938992Y-9454793D02*
X5091373Y-9454793D01*
X5015182Y-9530984D02*
X5015182Y-9378603D01*
X5424706Y-9397650D02*
X5424706Y-9530984D01*
X5377087Y-9321460D02*
X5329468Y-9464317D01*
X5329468Y-9464317D02*
X5453277Y-9464317D01*
X5672325Y-9521460D02*
X5691373Y-9530984D01*
X5691373Y-9530984D02*
X5729468Y-9530984D01*
X5729468Y-9530984D02*
X5748515Y-9521460D01*
X5748515Y-9521460D02*
X5758039Y-9502412D01*
X5758039Y-9502412D02*
X5758039Y-9492889D01*
X5758039Y-9492889D02*
X5748515Y-9473841D01*
X5748515Y-9473841D02*
X5729468Y-9464317D01*
X5729468Y-9464317D02*
X5700896Y-9464317D01*
X5700896Y-9464317D02*
X5681849Y-9454793D01*
X5681849Y-9454793D02*
X5672325Y-9435746D01*
X5672325Y-9435746D02*
X5672325Y-9426222D01*
X5672325Y-9426222D02*
X5681849Y-9407174D01*
X5681849Y-9407174D02*
X5700896Y-9397650D01*
X5700896Y-9397650D02*
X5729468Y-9397650D01*
X5729468Y-9397650D02*
X5748515Y-9407174D01*
X5872325Y-9530984D02*
X5853277Y-9521460D01*
X5853277Y-9521460D02*
X5843754Y-9502412D01*
X5843754Y-9502412D02*
X5843754Y-9330984D01*
X5977087Y-9530984D02*
X5958039Y-9521460D01*
X5958039Y-9521460D02*
X5948515Y-9511936D01*
X5948515Y-9511936D02*
X5938992Y-9492889D01*
X5938992Y-9492889D02*
X5938992Y-9435746D01*
X5938992Y-9435746D02*
X5948515Y-9416698D01*
X5948515Y-9416698D02*
X5958039Y-9407174D01*
X5958039Y-9407174D02*
X5977087Y-9397650D01*
X5977087Y-9397650D02*
X6005658Y-9397650D01*
X6005658Y-9397650D02*
X6024706Y-9407174D01*
X6024706Y-9407174D02*
X6034230Y-9416698D01*
X6034230Y-9416698D02*
X6043754Y-9435746D01*
X6043754Y-9435746D02*
X6043754Y-9492889D01*
X6043754Y-9492889D02*
X6034230Y-9511936D01*
X6034230Y-9511936D02*
X6024706Y-9521460D01*
X6024706Y-9521460D02*
X6005658Y-9530984D01*
X6005658Y-9530984D02*
X5977087Y-9530984D01*
X6100896Y-9397650D02*
X6177087Y-9397650D01*
X6129468Y-9330984D02*
X6129468Y-9502412D01*
X6129468Y-9502412D02*
X6138992Y-9521460D01*
X6138992Y-9521460D02*
X6158039Y-9530984D01*
X6158039Y-9530984D02*
X6177087Y-9530984D01*
X6234230Y-9521460D02*
X6253277Y-9530984D01*
X6253277Y-9530984D02*
X6291373Y-9530984D01*
X6291373Y-9530984D02*
X6310420Y-9521460D01*
X6310420Y-9521460D02*
X6319944Y-9502412D01*
X6319944Y-9502412D02*
X6319944Y-9492889D01*
X6319944Y-9492889D02*
X6310420Y-9473841D01*
X6310420Y-9473841D02*
X6291373Y-9464317D01*
X6291373Y-9464317D02*
X6262801Y-9464317D01*
X6262801Y-9464317D02*
X6243754Y-9454793D01*
X6243754Y-9454793D02*
X6234230Y-9435746D01*
X6234230Y-9435746D02*
X6234230Y-9426222D01*
X6234230Y-9426222D02*
X6243754Y-9407174D01*
X6243754Y-9407174D02*
X6262801Y-9397650D01*
X6262801Y-9397650D02*
X6291373Y-9397650D01*
X6291373Y-9397650D02*
X6310420Y-9407174D01*
X6386611Y-9607174D02*
X6396135Y-9597650D01*
X6396135Y-9597650D02*
X6415182Y-9569079D01*
X6415182Y-9569079D02*
X6424706Y-9550031D01*
X6424706Y-9550031D02*
X6434230Y-9521460D01*
X6434230Y-9521460D02*
X6443754Y-9473841D01*
X6443754Y-9473841D02*
X6443754Y-9435746D01*
X6443754Y-9435746D02*
X6434230Y-9388127D01*
X6434230Y-9388127D02*
X6424706Y-9359555D01*
X6424706Y-9359555D02*
X6415182Y-9340508D01*
X6415182Y-9340508D02*
X6396135Y-9311936D01*
X6396135Y-9311936D02*
X6386611Y-9302412D01*
D12*
X-45000Y-9741000D02*
X-7500Y-9703500D01*
X-45000Y-9666000D01*
X-82500Y-9703500D01*
X-45000Y-9741000D01*
D11*
X291372Y-9594984D02*
X310420Y-9594984D01*
X310420Y-9594984D02*
X329467Y-9604508D01*
X329467Y-9604508D02*
X338991Y-9614031D01*
X338991Y-9614031D02*
X348515Y-9633079D01*
X348515Y-9633079D02*
X358039Y-9671174D01*
X358039Y-9671174D02*
X358039Y-9718793D01*
X358039Y-9718793D02*
X348515Y-9756889D01*
X348515Y-9756889D02*
X338991Y-9775936D01*
X338991Y-9775936D02*
X329467Y-9785460D01*
X329467Y-9785460D02*
X310420Y-9794984D01*
X310420Y-9794984D02*
X291372Y-9794984D01*
X291372Y-9794984D02*
X272324Y-9785460D01*
X272324Y-9785460D02*
X262801Y-9775936D01*
X262801Y-9775936D02*
X253277Y-9756889D01*
X253277Y-9756889D02*
X243753Y-9718793D01*
X243753Y-9718793D02*
X243753Y-9671174D01*
X243753Y-9671174D02*
X253277Y-9633079D01*
X253277Y-9633079D02*
X262801Y-9614031D01*
X262801Y-9614031D02*
X272324Y-9604508D01*
X272324Y-9604508D02*
X291372Y-9594984D01*
X443753Y-9775936D02*
X453277Y-9785460D01*
X453277Y-9785460D02*
X443753Y-9794984D01*
X443753Y-9794984D02*
X434229Y-9785460D01*
X434229Y-9785460D02*
X443753Y-9775936D01*
X443753Y-9775936D02*
X443753Y-9794984D01*
X519943Y-9594984D02*
X653277Y-9594984D01*
X653277Y-9594984D02*
X567563Y-9794984D01*
X824705Y-9594984D02*
X729467Y-9594984D01*
X729467Y-9594984D02*
X719943Y-9690222D01*
X719943Y-9690222D02*
X729467Y-9680698D01*
X729467Y-9680698D02*
X748515Y-9671174D01*
X748515Y-9671174D02*
X796134Y-9671174D01*
X796134Y-9671174D02*
X815182Y-9680698D01*
X815182Y-9680698D02*
X824705Y-9690222D01*
X824705Y-9690222D02*
X834229Y-9709270D01*
X834229Y-9709270D02*
X834229Y-9756889D01*
X834229Y-9756889D02*
X824705Y-9775936D01*
X824705Y-9775936D02*
X815182Y-9785460D01*
X815182Y-9785460D02*
X796134Y-9794984D01*
X796134Y-9794984D02*
X748515Y-9794984D01*
X748515Y-9794984D02*
X729467Y-9785460D01*
X729467Y-9785460D02*
X719943Y-9775936D01*
X958039Y-9594984D02*
X977086Y-9594984D01*
X977086Y-9594984D02*
X996134Y-9604508D01*
X996134Y-9604508D02*
X1005658Y-9614031D01*
X1005658Y-9614031D02*
X1015182Y-9633079D01*
X1015182Y-9633079D02*
X1024705Y-9671174D01*
X1024705Y-9671174D02*
X1024705Y-9718793D01*
X1024705Y-9718793D02*
X1015182Y-9756889D01*
X1015182Y-9756889D02*
X1005658Y-9775936D01*
X1005658Y-9775936D02*
X996134Y-9785460D01*
X996134Y-9785460D02*
X977086Y-9794984D01*
X977086Y-9794984D02*
X958039Y-9794984D01*
X958039Y-9794984D02*
X938991Y-9785460D01*
X938991Y-9785460D02*
X929467Y-9775936D01*
X929467Y-9775936D02*
X919943Y-9756889D01*
X919943Y-9756889D02*
X910420Y-9718793D01*
X910420Y-9718793D02*
X910420Y-9671174D01*
X910420Y-9671174D02*
X919943Y-9633079D01*
X919943Y-9633079D02*
X929467Y-9614031D01*
X929467Y-9614031D02*
X938991Y-9604508D01*
X938991Y-9604508D02*
X958039Y-9594984D01*
X1110420Y-9794984D02*
X1110420Y-9661650D01*
X1110420Y-9680698D02*
X1119944Y-9671174D01*
X1119944Y-9671174D02*
X1138991Y-9661650D01*
X1138991Y-9661650D02*
X1167563Y-9661650D01*
X1167563Y-9661650D02*
X1186610Y-9671174D01*
X1186610Y-9671174D02*
X1196134Y-9690222D01*
X1196134Y-9690222D02*
X1196134Y-9794984D01*
X1196134Y-9690222D02*
X1205658Y-9671174D01*
X1205658Y-9671174D02*
X1224705Y-9661650D01*
X1224705Y-9661650D02*
X1253277Y-9661650D01*
X1253277Y-9661650D02*
X1272325Y-9671174D01*
X1272325Y-9671174D02*
X1281848Y-9690222D01*
X1281848Y-9690222D02*
X1281848Y-9794984D01*
X1377086Y-9794984D02*
X1377086Y-9661650D01*
X1377086Y-9680698D02*
X1386610Y-9671174D01*
X1386610Y-9671174D02*
X1405658Y-9661650D01*
X1405658Y-9661650D02*
X1434229Y-9661650D01*
X1434229Y-9661650D02*
X1453277Y-9671174D01*
X1453277Y-9671174D02*
X1462801Y-9690222D01*
X1462801Y-9690222D02*
X1462801Y-9794984D01*
X1462801Y-9690222D02*
X1472324Y-9671174D01*
X1472324Y-9671174D02*
X1491372Y-9661650D01*
X1491372Y-9661650D02*
X1519943Y-9661650D01*
X1519943Y-9661650D02*
X1538991Y-9671174D01*
X1538991Y-9671174D02*
X1548515Y-9690222D01*
X1548515Y-9690222D02*
X1548515Y-9794984D01*
X1938991Y-9585460D02*
X1767563Y-9842603D01*
X2196134Y-9594984D02*
X2215182Y-9594984D01*
X2215182Y-9594984D02*
X2234229Y-9604508D01*
X2234229Y-9604508D02*
X2243753Y-9614031D01*
X2243753Y-9614031D02*
X2253277Y-9633079D01*
X2253277Y-9633079D02*
X2262801Y-9671174D01*
X2262801Y-9671174D02*
X2262801Y-9718793D01*
X2262801Y-9718793D02*
X2253277Y-9756889D01*
X2253277Y-9756889D02*
X2243753Y-9775936D01*
X2243753Y-9775936D02*
X2234229Y-9785460D01*
X2234229Y-9785460D02*
X2215182Y-9794984D01*
X2215182Y-9794984D02*
X2196134Y-9794984D01*
X2196134Y-9794984D02*
X2177087Y-9785460D01*
X2177087Y-9785460D02*
X2167563Y-9775936D01*
X2167563Y-9775936D02*
X2158039Y-9756889D01*
X2158039Y-9756889D02*
X2148515Y-9718793D01*
X2148515Y-9718793D02*
X2148515Y-9671174D01*
X2148515Y-9671174D02*
X2158039Y-9633079D01*
X2158039Y-9633079D02*
X2167563Y-9614031D01*
X2167563Y-9614031D02*
X2177087Y-9604508D01*
X2177087Y-9604508D02*
X2196134Y-9594984D01*
X2348515Y-9775936D02*
X2358039Y-9785460D01*
X2358039Y-9785460D02*
X2348515Y-9794984D01*
X2348515Y-9794984D02*
X2338991Y-9785460D01*
X2338991Y-9785460D02*
X2348515Y-9775936D01*
X2348515Y-9775936D02*
X2348515Y-9794984D01*
X2481848Y-9594984D02*
X2500896Y-9594984D01*
X2500896Y-9594984D02*
X2519944Y-9604508D01*
X2519944Y-9604508D02*
X2529468Y-9614031D01*
X2529468Y-9614031D02*
X2538991Y-9633079D01*
X2538991Y-9633079D02*
X2548515Y-9671174D01*
X2548515Y-9671174D02*
X2548515Y-9718793D01*
X2548515Y-9718793D02*
X2538991Y-9756889D01*
X2538991Y-9756889D02*
X2529468Y-9775936D01*
X2529468Y-9775936D02*
X2519944Y-9785460D01*
X2519944Y-9785460D02*
X2500896Y-9794984D01*
X2500896Y-9794984D02*
X2481848Y-9794984D01*
X2481848Y-9794984D02*
X2462801Y-9785460D01*
X2462801Y-9785460D02*
X2453277Y-9775936D01*
X2453277Y-9775936D02*
X2443753Y-9756889D01*
X2443753Y-9756889D02*
X2434229Y-9718793D01*
X2434229Y-9718793D02*
X2434229Y-9671174D01*
X2434229Y-9671174D02*
X2443753Y-9633079D01*
X2443753Y-9633079D02*
X2453277Y-9614031D01*
X2453277Y-9614031D02*
X2462801Y-9604508D01*
X2462801Y-9604508D02*
X2481848Y-9594984D01*
X2624706Y-9614031D02*
X2634229Y-9604508D01*
X2634229Y-9604508D02*
X2653277Y-9594984D01*
X2653277Y-9594984D02*
X2700896Y-9594984D01*
X2700896Y-9594984D02*
X2719944Y-9604508D01*
X2719944Y-9604508D02*
X2729468Y-9614031D01*
X2729468Y-9614031D02*
X2738991Y-9633079D01*
X2738991Y-9633079D02*
X2738991Y-9652127D01*
X2738991Y-9652127D02*
X2729468Y-9680698D01*
X2729468Y-9680698D02*
X2615182Y-9794984D01*
X2615182Y-9794984D02*
X2738991Y-9794984D01*
X2834229Y-9794984D02*
X2872325Y-9794984D01*
X2872325Y-9794984D02*
X2891372Y-9785460D01*
X2891372Y-9785460D02*
X2900896Y-9775936D01*
X2900896Y-9775936D02*
X2919944Y-9747365D01*
X2919944Y-9747365D02*
X2929467Y-9709270D01*
X2929467Y-9709270D02*
X2929467Y-9633079D01*
X2929467Y-9633079D02*
X2919944Y-9614031D01*
X2919944Y-9614031D02*
X2910420Y-9604508D01*
X2910420Y-9604508D02*
X2891372Y-9594984D01*
X2891372Y-9594984D02*
X2853277Y-9594984D01*
X2853277Y-9594984D02*
X2834229Y-9604508D01*
X2834229Y-9604508D02*
X2824706Y-9614031D01*
X2824706Y-9614031D02*
X2815182Y-9633079D01*
X2815182Y-9633079D02*
X2815182Y-9680698D01*
X2815182Y-9680698D02*
X2824706Y-9699746D01*
X2824706Y-9699746D02*
X2834229Y-9709270D01*
X2834229Y-9709270D02*
X2853277Y-9718793D01*
X2853277Y-9718793D02*
X2891372Y-9718793D01*
X2891372Y-9718793D02*
X2910420Y-9709270D01*
X2910420Y-9709270D02*
X2919944Y-9699746D01*
X2919944Y-9699746D02*
X2929467Y-9680698D01*
X3110420Y-9594984D02*
X3015182Y-9594984D01*
X3015182Y-9594984D02*
X3005658Y-9690222D01*
X3005658Y-9690222D02*
X3015182Y-9680698D01*
X3015182Y-9680698D02*
X3034229Y-9671174D01*
X3034229Y-9671174D02*
X3081848Y-9671174D01*
X3081848Y-9671174D02*
X3100896Y-9680698D01*
X3100896Y-9680698D02*
X3110420Y-9690222D01*
X3110420Y-9690222D02*
X3119944Y-9709270D01*
X3119944Y-9709270D02*
X3119944Y-9756889D01*
X3119944Y-9756889D02*
X3110420Y-9775936D01*
X3110420Y-9775936D02*
X3100896Y-9785460D01*
X3100896Y-9785460D02*
X3081848Y-9794984D01*
X3081848Y-9794984D02*
X3034229Y-9794984D01*
X3034229Y-9794984D02*
X3015182Y-9785460D01*
X3015182Y-9785460D02*
X3005658Y-9775936D01*
X3196134Y-9594984D02*
X3196134Y-9633079D01*
X3272325Y-9594984D02*
X3272325Y-9633079D01*
X3567563Y-9871174D02*
X3558039Y-9861650D01*
X3558039Y-9861650D02*
X3538991Y-9833079D01*
X3538991Y-9833079D02*
X3529468Y-9814031D01*
X3529468Y-9814031D02*
X3519944Y-9785460D01*
X3519944Y-9785460D02*
X3510420Y-9737841D01*
X3510420Y-9737841D02*
X3510420Y-9699746D01*
X3510420Y-9699746D02*
X3519944Y-9652127D01*
X3519944Y-9652127D02*
X3529468Y-9623555D01*
X3529468Y-9623555D02*
X3538991Y-9604508D01*
X3538991Y-9604508D02*
X3558039Y-9575936D01*
X3558039Y-9575936D02*
X3567563Y-9566412D01*
X3672325Y-9680698D02*
X3653277Y-9671174D01*
X3653277Y-9671174D02*
X3643753Y-9661650D01*
X3643753Y-9661650D02*
X3634229Y-9642603D01*
X3634229Y-9642603D02*
X3634229Y-9633079D01*
X3634229Y-9633079D02*
X3643753Y-9614031D01*
X3643753Y-9614031D02*
X3653277Y-9604508D01*
X3653277Y-9604508D02*
X3672325Y-9594984D01*
X3672325Y-9594984D02*
X3710420Y-9594984D01*
X3710420Y-9594984D02*
X3729468Y-9604508D01*
X3729468Y-9604508D02*
X3738991Y-9614031D01*
X3738991Y-9614031D02*
X3748515Y-9633079D01*
X3748515Y-9633079D02*
X3748515Y-9642603D01*
X3748515Y-9642603D02*
X3738991Y-9661650D01*
X3738991Y-9661650D02*
X3729468Y-9671174D01*
X3729468Y-9671174D02*
X3710420Y-9680698D01*
X3710420Y-9680698D02*
X3672325Y-9680698D01*
X3672325Y-9680698D02*
X3653277Y-9690222D01*
X3653277Y-9690222D02*
X3643753Y-9699746D01*
X3643753Y-9699746D02*
X3634229Y-9718793D01*
X3634229Y-9718793D02*
X3634229Y-9756889D01*
X3634229Y-9756889D02*
X3643753Y-9775936D01*
X3643753Y-9775936D02*
X3653277Y-9785460D01*
X3653277Y-9785460D02*
X3672325Y-9794984D01*
X3672325Y-9794984D02*
X3710420Y-9794984D01*
X3710420Y-9794984D02*
X3729468Y-9785460D01*
X3729468Y-9785460D02*
X3738991Y-9775936D01*
X3738991Y-9775936D02*
X3748515Y-9756889D01*
X3748515Y-9756889D02*
X3748515Y-9718793D01*
X3748515Y-9718793D02*
X3738991Y-9699746D01*
X3738991Y-9699746D02*
X3729468Y-9690222D01*
X3729468Y-9690222D02*
X3710420Y-9680698D01*
X3986610Y-9794984D02*
X3986610Y-9594984D01*
X4072325Y-9794984D02*
X4072325Y-9690222D01*
X4072325Y-9690222D02*
X4062801Y-9671174D01*
X4062801Y-9671174D02*
X4043753Y-9661650D01*
X4043753Y-9661650D02*
X4015182Y-9661650D01*
X4015182Y-9661650D02*
X3996134Y-9671174D01*
X3996134Y-9671174D02*
X3986610Y-9680698D01*
X4196134Y-9794984D02*
X4177087Y-9785460D01*
X4177087Y-9785460D02*
X4167563Y-9775936D01*
X4167563Y-9775936D02*
X4158039Y-9756889D01*
X4158039Y-9756889D02*
X4158039Y-9699746D01*
X4158039Y-9699746D02*
X4167563Y-9680698D01*
X4167563Y-9680698D02*
X4177087Y-9671174D01*
X4177087Y-9671174D02*
X4196134Y-9661650D01*
X4196134Y-9661650D02*
X4224706Y-9661650D01*
X4224706Y-9661650D02*
X4243753Y-9671174D01*
X4243753Y-9671174D02*
X4253277Y-9680698D01*
X4253277Y-9680698D02*
X4262801Y-9699746D01*
X4262801Y-9699746D02*
X4262801Y-9756889D01*
X4262801Y-9756889D02*
X4253277Y-9775936D01*
X4253277Y-9775936D02*
X4243753Y-9785460D01*
X4243753Y-9785460D02*
X4224706Y-9794984D01*
X4224706Y-9794984D02*
X4196134Y-9794984D01*
X4377087Y-9794984D02*
X4358039Y-9785460D01*
X4358039Y-9785460D02*
X4348515Y-9766412D01*
X4348515Y-9766412D02*
X4348515Y-9594984D01*
X4529468Y-9785460D02*
X4510420Y-9794984D01*
X4510420Y-9794984D02*
X4472325Y-9794984D01*
X4472325Y-9794984D02*
X4453277Y-9785460D01*
X4453277Y-9785460D02*
X4443753Y-9766412D01*
X4443753Y-9766412D02*
X4443753Y-9690222D01*
X4443753Y-9690222D02*
X4453277Y-9671174D01*
X4453277Y-9671174D02*
X4472325Y-9661650D01*
X4472325Y-9661650D02*
X4510420Y-9661650D01*
X4510420Y-9661650D02*
X4529468Y-9671174D01*
X4529468Y-9671174D02*
X4538992Y-9690222D01*
X4538992Y-9690222D02*
X4538992Y-9709270D01*
X4538992Y-9709270D02*
X4443753Y-9728317D01*
X4615182Y-9785460D02*
X4634230Y-9794984D01*
X4634230Y-9794984D02*
X4672325Y-9794984D01*
X4672325Y-9794984D02*
X4691373Y-9785460D01*
X4691373Y-9785460D02*
X4700896Y-9766412D01*
X4700896Y-9766412D02*
X4700896Y-9756889D01*
X4700896Y-9756889D02*
X4691373Y-9737841D01*
X4691373Y-9737841D02*
X4672325Y-9728317D01*
X4672325Y-9728317D02*
X4643753Y-9728317D01*
X4643753Y-9728317D02*
X4624706Y-9718793D01*
X4624706Y-9718793D02*
X4615182Y-9699746D01*
X4615182Y-9699746D02*
X4615182Y-9690222D01*
X4615182Y-9690222D02*
X4624706Y-9671174D01*
X4624706Y-9671174D02*
X4643753Y-9661650D01*
X4643753Y-9661650D02*
X4672325Y-9661650D01*
X4672325Y-9661650D02*
X4691373Y-9671174D01*
X4767563Y-9871174D02*
X4777087Y-9861650D01*
X4777087Y-9861650D02*
X4796134Y-9833079D01*
X4796134Y-9833079D02*
X4805658Y-9814031D01*
X4805658Y-9814031D02*
X4815182Y-9785460D01*
X4815182Y-9785460D02*
X4824706Y-9737841D01*
X4824706Y-9737841D02*
X4824706Y-9699746D01*
X4824706Y-9699746D02*
X4815182Y-9652127D01*
X4815182Y-9652127D02*
X4805658Y-9623555D01*
X4805658Y-9623555D02*
X4796134Y-9604508D01*
X4796134Y-9604508D02*
X4777087Y-9575936D01*
X4777087Y-9575936D02*
X4767563Y-9566412D01*
D12*
X-102500Y-9920000D02*
X-7500Y-10015000D01*
X-7500Y-9920000D02*
X-102500Y-10015000D01*
X-7500Y-9967500D02*
G75*
G03*
X-102500Y-9967500I-47500J0D01*
G01*
X-102500Y-9967500D02*
G75*
G03*
X-7500Y-9967500I47500J0D01*
G01*
D11*
X291372Y-9858984D02*
X310420Y-9858984D01*
X310420Y-9858984D02*
X329467Y-9868508D01*
X329467Y-9868508D02*
X338991Y-9878031D01*
X338991Y-9878031D02*
X348515Y-9897079D01*
X348515Y-9897079D02*
X358039Y-9935174D01*
X358039Y-9935174D02*
X358039Y-9982793D01*
X358039Y-9982793D02*
X348515Y-10020889D01*
X348515Y-10020889D02*
X338991Y-10039936D01*
X338991Y-10039936D02*
X329467Y-10049460D01*
X329467Y-10049460D02*
X310420Y-10058984D01*
X310420Y-10058984D02*
X291372Y-10058984D01*
X291372Y-10058984D02*
X272324Y-10049460D01*
X272324Y-10049460D02*
X262801Y-10039936D01*
X262801Y-10039936D02*
X253277Y-10020889D01*
X253277Y-10020889D02*
X243753Y-9982793D01*
X243753Y-9982793D02*
X243753Y-9935174D01*
X243753Y-9935174D02*
X253277Y-9897079D01*
X253277Y-9897079D02*
X262801Y-9878031D01*
X262801Y-9878031D02*
X272324Y-9868508D01*
X272324Y-9868508D02*
X291372Y-9858984D01*
X443753Y-10039936D02*
X453277Y-10049460D01*
X453277Y-10049460D02*
X443753Y-10058984D01*
X443753Y-10058984D02*
X434229Y-10049460D01*
X434229Y-10049460D02*
X443753Y-10039936D01*
X443753Y-10039936D02*
X443753Y-10058984D01*
X548515Y-10058984D02*
X586610Y-10058984D01*
X586610Y-10058984D02*
X605658Y-10049460D01*
X605658Y-10049460D02*
X615182Y-10039936D01*
X615182Y-10039936D02*
X634229Y-10011365D01*
X634229Y-10011365D02*
X643753Y-9973270D01*
X643753Y-9973270D02*
X643753Y-9897079D01*
X643753Y-9897079D02*
X634229Y-9878031D01*
X634229Y-9878031D02*
X624705Y-9868508D01*
X624705Y-9868508D02*
X605658Y-9858984D01*
X605658Y-9858984D02*
X567563Y-9858984D01*
X567563Y-9858984D02*
X548515Y-9868508D01*
X548515Y-9868508D02*
X538991Y-9878031D01*
X538991Y-9878031D02*
X529467Y-9897079D01*
X529467Y-9897079D02*
X529467Y-9944698D01*
X529467Y-9944698D02*
X538991Y-9963746D01*
X538991Y-9963746D02*
X548515Y-9973270D01*
X548515Y-9973270D02*
X567563Y-9982793D01*
X567563Y-9982793D02*
X605658Y-9982793D01*
X605658Y-9982793D02*
X624705Y-9973270D01*
X624705Y-9973270D02*
X634229Y-9963746D01*
X634229Y-9963746D02*
X643753Y-9944698D01*
X824705Y-9858984D02*
X729467Y-9858984D01*
X729467Y-9858984D02*
X719943Y-9954222D01*
X719943Y-9954222D02*
X729467Y-9944698D01*
X729467Y-9944698D02*
X748515Y-9935174D01*
X748515Y-9935174D02*
X796134Y-9935174D01*
X796134Y-9935174D02*
X815182Y-9944698D01*
X815182Y-9944698D02*
X824705Y-9954222D01*
X824705Y-9954222D02*
X834229Y-9973270D01*
X834229Y-9973270D02*
X834229Y-10020889D01*
X834229Y-10020889D02*
X824705Y-10039936D01*
X824705Y-10039936D02*
X815182Y-10049460D01*
X815182Y-10049460D02*
X796134Y-10058984D01*
X796134Y-10058984D02*
X748515Y-10058984D01*
X748515Y-10058984D02*
X729467Y-10049460D01*
X729467Y-10049460D02*
X719943Y-10039936D01*
X958039Y-9858984D02*
X977086Y-9858984D01*
X977086Y-9858984D02*
X996134Y-9868508D01*
X996134Y-9868508D02*
X1005658Y-9878031D01*
X1005658Y-9878031D02*
X1015182Y-9897079D01*
X1015182Y-9897079D02*
X1024705Y-9935174D01*
X1024705Y-9935174D02*
X1024705Y-9982793D01*
X1024705Y-9982793D02*
X1015182Y-10020889D01*
X1015182Y-10020889D02*
X1005658Y-10039936D01*
X1005658Y-10039936D02*
X996134Y-10049460D01*
X996134Y-10049460D02*
X977086Y-10058984D01*
X977086Y-10058984D02*
X958039Y-10058984D01*
X958039Y-10058984D02*
X938991Y-10049460D01*
X938991Y-10049460D02*
X929467Y-10039936D01*
X929467Y-10039936D02*
X919943Y-10020889D01*
X919943Y-10020889D02*
X910420Y-9982793D01*
X910420Y-9982793D02*
X910420Y-9935174D01*
X910420Y-9935174D02*
X919943Y-9897079D01*
X919943Y-9897079D02*
X929467Y-9878031D01*
X929467Y-9878031D02*
X938991Y-9868508D01*
X938991Y-9868508D02*
X958039Y-9858984D01*
X1110420Y-10058984D02*
X1110420Y-9925650D01*
X1110420Y-9944698D02*
X1119944Y-9935174D01*
X1119944Y-9935174D02*
X1138991Y-9925650D01*
X1138991Y-9925650D02*
X1167563Y-9925650D01*
X1167563Y-9925650D02*
X1186610Y-9935174D01*
X1186610Y-9935174D02*
X1196134Y-9954222D01*
X1196134Y-9954222D02*
X1196134Y-10058984D01*
X1196134Y-9954222D02*
X1205658Y-9935174D01*
X1205658Y-9935174D02*
X1224705Y-9925650D01*
X1224705Y-9925650D02*
X1253277Y-9925650D01*
X1253277Y-9925650D02*
X1272325Y-9935174D01*
X1272325Y-9935174D02*
X1281848Y-9954222D01*
X1281848Y-9954222D02*
X1281848Y-10058984D01*
X1377086Y-10058984D02*
X1377086Y-9925650D01*
X1377086Y-9944698D02*
X1386610Y-9935174D01*
X1386610Y-9935174D02*
X1405658Y-9925650D01*
X1405658Y-9925650D02*
X1434229Y-9925650D01*
X1434229Y-9925650D02*
X1453277Y-9935174D01*
X1453277Y-9935174D02*
X1462801Y-9954222D01*
X1462801Y-9954222D02*
X1462801Y-10058984D01*
X1462801Y-9954222D02*
X1472324Y-9935174D01*
X1472324Y-9935174D02*
X1491372Y-9925650D01*
X1491372Y-9925650D02*
X1519943Y-9925650D01*
X1519943Y-9925650D02*
X1538991Y-9935174D01*
X1538991Y-9935174D02*
X1548515Y-9954222D01*
X1548515Y-9954222D02*
X1548515Y-10058984D01*
X1938991Y-9849460D02*
X1767563Y-10106603D01*
X2196134Y-9858984D02*
X2215182Y-9858984D01*
X2215182Y-9858984D02*
X2234229Y-9868508D01*
X2234229Y-9868508D02*
X2243753Y-9878031D01*
X2243753Y-9878031D02*
X2253277Y-9897079D01*
X2253277Y-9897079D02*
X2262801Y-9935174D01*
X2262801Y-9935174D02*
X2262801Y-9982793D01*
X2262801Y-9982793D02*
X2253277Y-10020889D01*
X2253277Y-10020889D02*
X2243753Y-10039936D01*
X2243753Y-10039936D02*
X2234229Y-10049460D01*
X2234229Y-10049460D02*
X2215182Y-10058984D01*
X2215182Y-10058984D02*
X2196134Y-10058984D01*
X2196134Y-10058984D02*
X2177087Y-10049460D01*
X2177087Y-10049460D02*
X2167563Y-10039936D01*
X2167563Y-10039936D02*
X2158039Y-10020889D01*
X2158039Y-10020889D02*
X2148515Y-9982793D01*
X2148515Y-9982793D02*
X2148515Y-9935174D01*
X2148515Y-9935174D02*
X2158039Y-9897079D01*
X2158039Y-9897079D02*
X2167563Y-9878031D01*
X2167563Y-9878031D02*
X2177087Y-9868508D01*
X2177087Y-9868508D02*
X2196134Y-9858984D01*
X2348515Y-10039936D02*
X2358039Y-10049460D01*
X2358039Y-10049460D02*
X2348515Y-10058984D01*
X2348515Y-10058984D02*
X2338991Y-10049460D01*
X2338991Y-10049460D02*
X2348515Y-10039936D01*
X2348515Y-10039936D02*
X2348515Y-10058984D01*
X2481848Y-9858984D02*
X2500896Y-9858984D01*
X2500896Y-9858984D02*
X2519944Y-9868508D01*
X2519944Y-9868508D02*
X2529468Y-9878031D01*
X2529468Y-9878031D02*
X2538991Y-9897079D01*
X2538991Y-9897079D02*
X2548515Y-9935174D01*
X2548515Y-9935174D02*
X2548515Y-9982793D01*
X2548515Y-9982793D02*
X2538991Y-10020889D01*
X2538991Y-10020889D02*
X2529468Y-10039936D01*
X2529468Y-10039936D02*
X2519944Y-10049460D01*
X2519944Y-10049460D02*
X2500896Y-10058984D01*
X2500896Y-10058984D02*
X2481848Y-10058984D01*
X2481848Y-10058984D02*
X2462801Y-10049460D01*
X2462801Y-10049460D02*
X2453277Y-10039936D01*
X2453277Y-10039936D02*
X2443753Y-10020889D01*
X2443753Y-10020889D02*
X2434229Y-9982793D01*
X2434229Y-9982793D02*
X2434229Y-9935174D01*
X2434229Y-9935174D02*
X2443753Y-9897079D01*
X2443753Y-9897079D02*
X2453277Y-9878031D01*
X2453277Y-9878031D02*
X2462801Y-9868508D01*
X2462801Y-9868508D02*
X2481848Y-9858984D01*
X2615182Y-9858984D02*
X2738991Y-9858984D01*
X2738991Y-9858984D02*
X2672325Y-9935174D01*
X2672325Y-9935174D02*
X2700896Y-9935174D01*
X2700896Y-9935174D02*
X2719944Y-9944698D01*
X2719944Y-9944698D02*
X2729468Y-9954222D01*
X2729468Y-9954222D02*
X2738991Y-9973270D01*
X2738991Y-9973270D02*
X2738991Y-10020889D01*
X2738991Y-10020889D02*
X2729468Y-10039936D01*
X2729468Y-10039936D02*
X2719944Y-10049460D01*
X2719944Y-10049460D02*
X2700896Y-10058984D01*
X2700896Y-10058984D02*
X2643753Y-10058984D01*
X2643753Y-10058984D02*
X2624706Y-10049460D01*
X2624706Y-10049460D02*
X2615182Y-10039936D01*
X2805658Y-9858984D02*
X2938991Y-9858984D01*
X2938991Y-9858984D02*
X2853277Y-10058984D01*
X3100896Y-9925650D02*
X3100896Y-10058984D01*
X3053277Y-9849460D02*
X3005658Y-9992317D01*
X3005658Y-9992317D02*
X3129467Y-9992317D01*
X3196134Y-9858984D02*
X3196134Y-9897079D01*
X3272325Y-9858984D02*
X3272325Y-9897079D01*
X3567563Y-10135174D02*
X3558039Y-10125650D01*
X3558039Y-10125650D02*
X3538991Y-10097079D01*
X3538991Y-10097079D02*
X3529468Y-10078031D01*
X3529468Y-10078031D02*
X3519944Y-10049460D01*
X3519944Y-10049460D02*
X3510420Y-10001841D01*
X3510420Y-10001841D02*
X3510420Y-9963746D01*
X3510420Y-9963746D02*
X3519944Y-9916127D01*
X3519944Y-9916127D02*
X3529468Y-9887555D01*
X3529468Y-9887555D02*
X3538991Y-9868508D01*
X3538991Y-9868508D02*
X3558039Y-9839936D01*
X3558039Y-9839936D02*
X3567563Y-9830412D01*
X3748515Y-10058984D02*
X3634229Y-10058984D01*
X3691372Y-10058984D02*
X3691372Y-9858984D01*
X3691372Y-9858984D02*
X3672325Y-9887555D01*
X3672325Y-9887555D02*
X3653277Y-9906603D01*
X3653277Y-9906603D02*
X3634229Y-9916127D01*
X3872325Y-9858984D02*
X3891372Y-9858984D01*
X3891372Y-9858984D02*
X3910420Y-9868508D01*
X3910420Y-9868508D02*
X3919944Y-9878031D01*
X3919944Y-9878031D02*
X3929468Y-9897079D01*
X3929468Y-9897079D02*
X3938991Y-9935174D01*
X3938991Y-9935174D02*
X3938991Y-9982793D01*
X3938991Y-9982793D02*
X3929468Y-10020889D01*
X3929468Y-10020889D02*
X3919944Y-10039936D01*
X3919944Y-10039936D02*
X3910420Y-10049460D01*
X3910420Y-10049460D02*
X3891372Y-10058984D01*
X3891372Y-10058984D02*
X3872325Y-10058984D01*
X3872325Y-10058984D02*
X3853277Y-10049460D01*
X3853277Y-10049460D02*
X3843753Y-10039936D01*
X3843753Y-10039936D02*
X3834229Y-10020889D01*
X3834229Y-10020889D02*
X3824706Y-9982793D01*
X3824706Y-9982793D02*
X3824706Y-9935174D01*
X3824706Y-9935174D02*
X3834229Y-9897079D01*
X3834229Y-9897079D02*
X3843753Y-9878031D01*
X3843753Y-9878031D02*
X3853277Y-9868508D01*
X3853277Y-9868508D02*
X3872325Y-9858984D01*
X4177087Y-10058984D02*
X4177087Y-9858984D01*
X4262801Y-10058984D02*
X4262801Y-9954222D01*
X4262801Y-9954222D02*
X4253277Y-9935174D01*
X4253277Y-9935174D02*
X4234230Y-9925650D01*
X4234230Y-9925650D02*
X4205658Y-9925650D01*
X4205658Y-9925650D02*
X4186610Y-9935174D01*
X4186610Y-9935174D02*
X4177087Y-9944698D01*
X4386611Y-10058984D02*
X4367563Y-10049460D01*
X4367563Y-10049460D02*
X4358039Y-10039936D01*
X4358039Y-10039936D02*
X4348515Y-10020889D01*
X4348515Y-10020889D02*
X4348515Y-9963746D01*
X4348515Y-9963746D02*
X4358039Y-9944698D01*
X4358039Y-9944698D02*
X4367563Y-9935174D01*
X4367563Y-9935174D02*
X4386611Y-9925650D01*
X4386611Y-9925650D02*
X4415182Y-9925650D01*
X4415182Y-9925650D02*
X4434230Y-9935174D01*
X4434230Y-9935174D02*
X4443753Y-9944698D01*
X4443753Y-9944698D02*
X4453277Y-9963746D01*
X4453277Y-9963746D02*
X4453277Y-10020889D01*
X4453277Y-10020889D02*
X4443753Y-10039936D01*
X4443753Y-10039936D02*
X4434230Y-10049460D01*
X4434230Y-10049460D02*
X4415182Y-10058984D01*
X4415182Y-10058984D02*
X4386611Y-10058984D01*
X4567563Y-10058984D02*
X4548515Y-10049460D01*
X4548515Y-10049460D02*
X4538992Y-10030412D01*
X4538992Y-10030412D02*
X4538992Y-9858984D01*
X4719944Y-10049460D02*
X4700896Y-10058984D01*
X4700896Y-10058984D02*
X4662801Y-10058984D01*
X4662801Y-10058984D02*
X4643753Y-10049460D01*
X4643753Y-10049460D02*
X4634230Y-10030412D01*
X4634230Y-10030412D02*
X4634230Y-9954222D01*
X4634230Y-9954222D02*
X4643753Y-9935174D01*
X4643753Y-9935174D02*
X4662801Y-9925650D01*
X4662801Y-9925650D02*
X4700896Y-9925650D01*
X4700896Y-9925650D02*
X4719944Y-9935174D01*
X4719944Y-9935174D02*
X4729468Y-9954222D01*
X4729468Y-9954222D02*
X4729468Y-9973270D01*
X4729468Y-9973270D02*
X4634230Y-9992317D01*
X4805658Y-10049460D02*
X4824706Y-10058984D01*
X4824706Y-10058984D02*
X4862801Y-10058984D01*
X4862801Y-10058984D02*
X4881849Y-10049460D01*
X4881849Y-10049460D02*
X4891373Y-10030412D01*
X4891373Y-10030412D02*
X4891373Y-10020889D01*
X4891373Y-10020889D02*
X4881849Y-10001841D01*
X4881849Y-10001841D02*
X4862801Y-9992317D01*
X4862801Y-9992317D02*
X4834230Y-9992317D01*
X4834230Y-9992317D02*
X4815182Y-9982793D01*
X4815182Y-9982793D02*
X4805658Y-9963746D01*
X4805658Y-9963746D02*
X4805658Y-9954222D01*
X4805658Y-9954222D02*
X4815182Y-9935174D01*
X4815182Y-9935174D02*
X4834230Y-9925650D01*
X4834230Y-9925650D02*
X4862801Y-9925650D01*
X4862801Y-9925650D02*
X4881849Y-9935174D01*
X4958039Y-10135174D02*
X4967563Y-10125650D01*
X4967563Y-10125650D02*
X4986611Y-10097079D01*
X4986611Y-10097079D02*
X4996134Y-10078031D01*
X4996134Y-10078031D02*
X5005658Y-10049460D01*
X5005658Y-10049460D02*
X5015182Y-10001841D01*
X5015182Y-10001841D02*
X5015182Y-9963746D01*
X5015182Y-9963746D02*
X5005658Y-9916127D01*
X5005658Y-9916127D02*
X4996134Y-9887555D01*
X4996134Y-9887555D02*
X4986611Y-9868508D01*
X4986611Y-9868508D02*
X4967563Y-9839936D01*
X4967563Y-9839936D02*
X4958039Y-9830412D01*
D12*
X-107500Y-10181500D02*
X-7500Y-10281500D01*
X-7500Y-10181500D02*
X-107500Y-10281500D01*
X-57500Y-10181500D02*
X-57500Y-10281500D01*
X-107500Y-10231500D02*
X-7500Y-10231500D01*
D11*
X358039Y-10322984D02*
X243753Y-10322984D01*
X300896Y-10322984D02*
X300896Y-10122984D01*
X300896Y-10122984D02*
X281848Y-10151555D01*
X281848Y-10151555D02*
X262801Y-10170603D01*
X262801Y-10170603D02*
X243753Y-10180127D01*
X443753Y-10303936D02*
X453277Y-10313460D01*
X453277Y-10313460D02*
X443753Y-10322984D01*
X443753Y-10322984D02*
X434229Y-10313460D01*
X434229Y-10313460D02*
X443753Y-10303936D01*
X443753Y-10303936D02*
X443753Y-10322984D01*
X577086Y-10122984D02*
X596134Y-10122984D01*
X596134Y-10122984D02*
X615182Y-10132508D01*
X615182Y-10132508D02*
X624705Y-10142031D01*
X624705Y-10142031D02*
X634229Y-10161079D01*
X634229Y-10161079D02*
X643753Y-10199174D01*
X643753Y-10199174D02*
X643753Y-10246793D01*
X643753Y-10246793D02*
X634229Y-10284889D01*
X634229Y-10284889D02*
X624705Y-10303936D01*
X624705Y-10303936D02*
X615182Y-10313460D01*
X615182Y-10313460D02*
X596134Y-10322984D01*
X596134Y-10322984D02*
X577086Y-10322984D01*
X577086Y-10322984D02*
X558039Y-10313460D01*
X558039Y-10313460D02*
X548515Y-10303936D01*
X548515Y-10303936D02*
X538991Y-10284889D01*
X538991Y-10284889D02*
X529467Y-10246793D01*
X529467Y-10246793D02*
X529467Y-10199174D01*
X529467Y-10199174D02*
X538991Y-10161079D01*
X538991Y-10161079D02*
X548515Y-10142031D01*
X548515Y-10142031D02*
X558039Y-10132508D01*
X558039Y-10132508D02*
X577086Y-10122984D01*
X767562Y-10122984D02*
X786610Y-10122984D01*
X786610Y-10122984D02*
X805658Y-10132508D01*
X805658Y-10132508D02*
X815182Y-10142031D01*
X815182Y-10142031D02*
X824705Y-10161079D01*
X824705Y-10161079D02*
X834229Y-10199174D01*
X834229Y-10199174D02*
X834229Y-10246793D01*
X834229Y-10246793D02*
X824705Y-10284889D01*
X824705Y-10284889D02*
X815182Y-10303936D01*
X815182Y-10303936D02*
X805658Y-10313460D01*
X805658Y-10313460D02*
X786610Y-10322984D01*
X786610Y-10322984D02*
X767562Y-10322984D01*
X767562Y-10322984D02*
X748515Y-10313460D01*
X748515Y-10313460D02*
X738991Y-10303936D01*
X738991Y-10303936D02*
X729467Y-10284889D01*
X729467Y-10284889D02*
X719943Y-10246793D01*
X719943Y-10246793D02*
X719943Y-10199174D01*
X719943Y-10199174D02*
X729467Y-10161079D01*
X729467Y-10161079D02*
X738991Y-10142031D01*
X738991Y-10142031D02*
X748515Y-10132508D01*
X748515Y-10132508D02*
X767562Y-10122984D01*
X958039Y-10122984D02*
X977086Y-10122984D01*
X977086Y-10122984D02*
X996134Y-10132508D01*
X996134Y-10132508D02*
X1005658Y-10142031D01*
X1005658Y-10142031D02*
X1015182Y-10161079D01*
X1015182Y-10161079D02*
X1024705Y-10199174D01*
X1024705Y-10199174D02*
X1024705Y-10246793D01*
X1024705Y-10246793D02*
X1015182Y-10284889D01*
X1015182Y-10284889D02*
X1005658Y-10303936D01*
X1005658Y-10303936D02*
X996134Y-10313460D01*
X996134Y-10313460D02*
X977086Y-10322984D01*
X977086Y-10322984D02*
X958039Y-10322984D01*
X958039Y-10322984D02*
X938991Y-10313460D01*
X938991Y-10313460D02*
X929467Y-10303936D01*
X929467Y-10303936D02*
X919943Y-10284889D01*
X919943Y-10284889D02*
X910420Y-10246793D01*
X910420Y-10246793D02*
X910420Y-10199174D01*
X910420Y-10199174D02*
X919943Y-10161079D01*
X919943Y-10161079D02*
X929467Y-10142031D01*
X929467Y-10142031D02*
X938991Y-10132508D01*
X938991Y-10132508D02*
X958039Y-10122984D01*
X1110420Y-10322984D02*
X1110420Y-10189650D01*
X1110420Y-10208698D02*
X1119944Y-10199174D01*
X1119944Y-10199174D02*
X1138991Y-10189650D01*
X1138991Y-10189650D02*
X1167563Y-10189650D01*
X1167563Y-10189650D02*
X1186610Y-10199174D01*
X1186610Y-10199174D02*
X1196134Y-10218222D01*
X1196134Y-10218222D02*
X1196134Y-10322984D01*
X1196134Y-10218222D02*
X1205658Y-10199174D01*
X1205658Y-10199174D02*
X1224705Y-10189650D01*
X1224705Y-10189650D02*
X1253277Y-10189650D01*
X1253277Y-10189650D02*
X1272325Y-10199174D01*
X1272325Y-10199174D02*
X1281848Y-10218222D01*
X1281848Y-10218222D02*
X1281848Y-10322984D01*
X1377086Y-10322984D02*
X1377086Y-10189650D01*
X1377086Y-10208698D02*
X1386610Y-10199174D01*
X1386610Y-10199174D02*
X1405658Y-10189650D01*
X1405658Y-10189650D02*
X1434229Y-10189650D01*
X1434229Y-10189650D02*
X1453277Y-10199174D01*
X1453277Y-10199174D02*
X1462801Y-10218222D01*
X1462801Y-10218222D02*
X1462801Y-10322984D01*
X1462801Y-10218222D02*
X1472324Y-10199174D01*
X1472324Y-10199174D02*
X1491372Y-10189650D01*
X1491372Y-10189650D02*
X1519943Y-10189650D01*
X1519943Y-10189650D02*
X1538991Y-10199174D01*
X1538991Y-10199174D02*
X1548515Y-10218222D01*
X1548515Y-10218222D02*
X1548515Y-10322984D01*
X1938991Y-10113460D02*
X1767563Y-10370603D01*
X2196134Y-10122984D02*
X2215182Y-10122984D01*
X2215182Y-10122984D02*
X2234229Y-10132508D01*
X2234229Y-10132508D02*
X2243753Y-10142031D01*
X2243753Y-10142031D02*
X2253277Y-10161079D01*
X2253277Y-10161079D02*
X2262801Y-10199174D01*
X2262801Y-10199174D02*
X2262801Y-10246793D01*
X2262801Y-10246793D02*
X2253277Y-10284889D01*
X2253277Y-10284889D02*
X2243753Y-10303936D01*
X2243753Y-10303936D02*
X2234229Y-10313460D01*
X2234229Y-10313460D02*
X2215182Y-10322984D01*
X2215182Y-10322984D02*
X2196134Y-10322984D01*
X2196134Y-10322984D02*
X2177087Y-10313460D01*
X2177087Y-10313460D02*
X2167563Y-10303936D01*
X2167563Y-10303936D02*
X2158039Y-10284889D01*
X2158039Y-10284889D02*
X2148515Y-10246793D01*
X2148515Y-10246793D02*
X2148515Y-10199174D01*
X2148515Y-10199174D02*
X2158039Y-10161079D01*
X2158039Y-10161079D02*
X2167563Y-10142031D01*
X2167563Y-10142031D02*
X2177087Y-10132508D01*
X2177087Y-10132508D02*
X2196134Y-10122984D01*
X2348515Y-10303936D02*
X2358039Y-10313460D01*
X2358039Y-10313460D02*
X2348515Y-10322984D01*
X2348515Y-10322984D02*
X2338991Y-10313460D01*
X2338991Y-10313460D02*
X2348515Y-10303936D01*
X2348515Y-10303936D02*
X2348515Y-10322984D01*
X2481848Y-10122984D02*
X2500896Y-10122984D01*
X2500896Y-10122984D02*
X2519944Y-10132508D01*
X2519944Y-10132508D02*
X2529468Y-10142031D01*
X2529468Y-10142031D02*
X2538991Y-10161079D01*
X2538991Y-10161079D02*
X2548515Y-10199174D01*
X2548515Y-10199174D02*
X2548515Y-10246793D01*
X2548515Y-10246793D02*
X2538991Y-10284889D01*
X2538991Y-10284889D02*
X2529468Y-10303936D01*
X2529468Y-10303936D02*
X2519944Y-10313460D01*
X2519944Y-10313460D02*
X2500896Y-10322984D01*
X2500896Y-10322984D02*
X2481848Y-10322984D01*
X2481848Y-10322984D02*
X2462801Y-10313460D01*
X2462801Y-10313460D02*
X2453277Y-10303936D01*
X2453277Y-10303936D02*
X2443753Y-10284889D01*
X2443753Y-10284889D02*
X2434229Y-10246793D01*
X2434229Y-10246793D02*
X2434229Y-10199174D01*
X2434229Y-10199174D02*
X2443753Y-10161079D01*
X2443753Y-10161079D02*
X2453277Y-10142031D01*
X2453277Y-10142031D02*
X2462801Y-10132508D01*
X2462801Y-10132508D02*
X2481848Y-10122984D01*
X2615182Y-10122984D02*
X2738991Y-10122984D01*
X2738991Y-10122984D02*
X2672325Y-10199174D01*
X2672325Y-10199174D02*
X2700896Y-10199174D01*
X2700896Y-10199174D02*
X2719944Y-10208698D01*
X2719944Y-10208698D02*
X2729468Y-10218222D01*
X2729468Y-10218222D02*
X2738991Y-10237270D01*
X2738991Y-10237270D02*
X2738991Y-10284889D01*
X2738991Y-10284889D02*
X2729468Y-10303936D01*
X2729468Y-10303936D02*
X2719944Y-10313460D01*
X2719944Y-10313460D02*
X2700896Y-10322984D01*
X2700896Y-10322984D02*
X2643753Y-10322984D01*
X2643753Y-10322984D02*
X2624706Y-10313460D01*
X2624706Y-10313460D02*
X2615182Y-10303936D01*
X2834229Y-10322984D02*
X2872325Y-10322984D01*
X2872325Y-10322984D02*
X2891372Y-10313460D01*
X2891372Y-10313460D02*
X2900896Y-10303936D01*
X2900896Y-10303936D02*
X2919944Y-10275365D01*
X2919944Y-10275365D02*
X2929467Y-10237270D01*
X2929467Y-10237270D02*
X2929467Y-10161079D01*
X2929467Y-10161079D02*
X2919944Y-10142031D01*
X2919944Y-10142031D02*
X2910420Y-10132508D01*
X2910420Y-10132508D02*
X2891372Y-10122984D01*
X2891372Y-10122984D02*
X2853277Y-10122984D01*
X2853277Y-10122984D02*
X2834229Y-10132508D01*
X2834229Y-10132508D02*
X2824706Y-10142031D01*
X2824706Y-10142031D02*
X2815182Y-10161079D01*
X2815182Y-10161079D02*
X2815182Y-10208698D01*
X2815182Y-10208698D02*
X2824706Y-10227746D01*
X2824706Y-10227746D02*
X2834229Y-10237270D01*
X2834229Y-10237270D02*
X2853277Y-10246793D01*
X2853277Y-10246793D02*
X2891372Y-10246793D01*
X2891372Y-10246793D02*
X2910420Y-10237270D01*
X2910420Y-10237270D02*
X2919944Y-10227746D01*
X2919944Y-10227746D02*
X2929467Y-10208698D01*
X3100896Y-10189650D02*
X3100896Y-10322984D01*
X3053277Y-10113460D02*
X3005658Y-10256317D01*
X3005658Y-10256317D02*
X3129467Y-10256317D01*
X3196134Y-10122984D02*
X3196134Y-10161079D01*
X3272325Y-10122984D02*
X3272325Y-10161079D01*
X3567563Y-10399174D02*
X3558039Y-10389650D01*
X3558039Y-10389650D02*
X3538991Y-10361079D01*
X3538991Y-10361079D02*
X3529468Y-10342031D01*
X3529468Y-10342031D02*
X3519944Y-10313460D01*
X3519944Y-10313460D02*
X3510420Y-10265841D01*
X3510420Y-10265841D02*
X3510420Y-10227746D01*
X3510420Y-10227746D02*
X3519944Y-10180127D01*
X3519944Y-10180127D02*
X3529468Y-10151555D01*
X3529468Y-10151555D02*
X3538991Y-10132508D01*
X3538991Y-10132508D02*
X3558039Y-10103936D01*
X3558039Y-10103936D02*
X3567563Y-10094412D01*
X3634229Y-10142031D02*
X3643753Y-10132508D01*
X3643753Y-10132508D02*
X3662801Y-10122984D01*
X3662801Y-10122984D02*
X3710420Y-10122984D01*
X3710420Y-10122984D02*
X3729468Y-10132508D01*
X3729468Y-10132508D02*
X3738991Y-10142031D01*
X3738991Y-10142031D02*
X3748515Y-10161079D01*
X3748515Y-10161079D02*
X3748515Y-10180127D01*
X3748515Y-10180127D02*
X3738991Y-10208698D01*
X3738991Y-10208698D02*
X3624706Y-10322984D01*
X3624706Y-10322984D02*
X3748515Y-10322984D01*
X3919944Y-10122984D02*
X3881848Y-10122984D01*
X3881848Y-10122984D02*
X3862801Y-10132508D01*
X3862801Y-10132508D02*
X3853277Y-10142031D01*
X3853277Y-10142031D02*
X3834229Y-10170603D01*
X3834229Y-10170603D02*
X3824706Y-10208698D01*
X3824706Y-10208698D02*
X3824706Y-10284889D01*
X3824706Y-10284889D02*
X3834229Y-10303936D01*
X3834229Y-10303936D02*
X3843753Y-10313460D01*
X3843753Y-10313460D02*
X3862801Y-10322984D01*
X3862801Y-10322984D02*
X3900896Y-10322984D01*
X3900896Y-10322984D02*
X3919944Y-10313460D01*
X3919944Y-10313460D02*
X3929468Y-10303936D01*
X3929468Y-10303936D02*
X3938991Y-10284889D01*
X3938991Y-10284889D02*
X3938991Y-10237270D01*
X3938991Y-10237270D02*
X3929468Y-10218222D01*
X3929468Y-10218222D02*
X3919944Y-10208698D01*
X3919944Y-10208698D02*
X3900896Y-10199174D01*
X3900896Y-10199174D02*
X3862801Y-10199174D01*
X3862801Y-10199174D02*
X3843753Y-10208698D01*
X3843753Y-10208698D02*
X3834229Y-10218222D01*
X3834229Y-10218222D02*
X3824706Y-10237270D01*
X4177087Y-10322984D02*
X4177087Y-10122984D01*
X4262801Y-10322984D02*
X4262801Y-10218222D01*
X4262801Y-10218222D02*
X4253277Y-10199174D01*
X4253277Y-10199174D02*
X4234230Y-10189650D01*
X4234230Y-10189650D02*
X4205658Y-10189650D01*
X4205658Y-10189650D02*
X4186610Y-10199174D01*
X4186610Y-10199174D02*
X4177087Y-10208698D01*
X4386611Y-10322984D02*
X4367563Y-10313460D01*
X4367563Y-10313460D02*
X4358039Y-10303936D01*
X4358039Y-10303936D02*
X4348515Y-10284889D01*
X4348515Y-10284889D02*
X4348515Y-10227746D01*
X4348515Y-10227746D02*
X4358039Y-10208698D01*
X4358039Y-10208698D02*
X4367563Y-10199174D01*
X4367563Y-10199174D02*
X4386611Y-10189650D01*
X4386611Y-10189650D02*
X4415182Y-10189650D01*
X4415182Y-10189650D02*
X4434230Y-10199174D01*
X4434230Y-10199174D02*
X4443753Y-10208698D01*
X4443753Y-10208698D02*
X4453277Y-10227746D01*
X4453277Y-10227746D02*
X4453277Y-10284889D01*
X4453277Y-10284889D02*
X4443753Y-10303936D01*
X4443753Y-10303936D02*
X4434230Y-10313460D01*
X4434230Y-10313460D02*
X4415182Y-10322984D01*
X4415182Y-10322984D02*
X4386611Y-10322984D01*
X4567563Y-10322984D02*
X4548515Y-10313460D01*
X4548515Y-10313460D02*
X4538992Y-10294412D01*
X4538992Y-10294412D02*
X4538992Y-10122984D01*
X4719944Y-10313460D02*
X4700896Y-10322984D01*
X4700896Y-10322984D02*
X4662801Y-10322984D01*
X4662801Y-10322984D02*
X4643753Y-10313460D01*
X4643753Y-10313460D02*
X4634230Y-10294412D01*
X4634230Y-10294412D02*
X4634230Y-10218222D01*
X4634230Y-10218222D02*
X4643753Y-10199174D01*
X4643753Y-10199174D02*
X4662801Y-10189650D01*
X4662801Y-10189650D02*
X4700896Y-10189650D01*
X4700896Y-10189650D02*
X4719944Y-10199174D01*
X4719944Y-10199174D02*
X4729468Y-10218222D01*
X4729468Y-10218222D02*
X4729468Y-10237270D01*
X4729468Y-10237270D02*
X4634230Y-10256317D01*
X4805658Y-10313460D02*
X4824706Y-10322984D01*
X4824706Y-10322984D02*
X4862801Y-10322984D01*
X4862801Y-10322984D02*
X4881849Y-10313460D01*
X4881849Y-10313460D02*
X4891373Y-10294412D01*
X4891373Y-10294412D02*
X4891373Y-10284889D01*
X4891373Y-10284889D02*
X4881849Y-10265841D01*
X4881849Y-10265841D02*
X4862801Y-10256317D01*
X4862801Y-10256317D02*
X4834230Y-10256317D01*
X4834230Y-10256317D02*
X4815182Y-10246793D01*
X4815182Y-10246793D02*
X4805658Y-10227746D01*
X4805658Y-10227746D02*
X4805658Y-10218222D01*
X4805658Y-10218222D02*
X4815182Y-10199174D01*
X4815182Y-10199174D02*
X4834230Y-10189650D01*
X4834230Y-10189650D02*
X4862801Y-10189650D01*
X4862801Y-10189650D02*
X4881849Y-10199174D01*
X4958039Y-10399174D02*
X4967563Y-10389650D01*
X4967563Y-10389650D02*
X4986611Y-10361079D01*
X4986611Y-10361079D02*
X4996134Y-10342031D01*
X4996134Y-10342031D02*
X5005658Y-10313460D01*
X5005658Y-10313460D02*
X5015182Y-10265841D01*
X5015182Y-10265841D02*
X5015182Y-10227746D01*
X5015182Y-10227746D02*
X5005658Y-10180127D01*
X5005658Y-10180127D02*
X4996134Y-10151555D01*
X4996134Y-10151555D02*
X4986611Y-10132508D01*
X4986611Y-10132508D02*
X4967563Y-10103936D01*
X4967563Y-10103936D02*
X4958039Y-10094412D01*
D13*
X-137500Y-10430500D02*
X-7500Y-10560500D01*
X-7500Y-10430500D02*
X-137500Y-10560500D01*
X-26538Y-10541462D02*
X-26538Y-10449538D01*
X-118462Y-10449538D01*
X-118462Y-10541462D01*
X-26538Y-10541462D01*
D11*
X358039Y-10586984D02*
X243753Y-10586984D01*
X300896Y-10586984D02*
X300896Y-10386984D01*
X300896Y-10386984D02*
X281848Y-10415555D01*
X281848Y-10415555D02*
X262801Y-10434603D01*
X262801Y-10434603D02*
X243753Y-10444127D01*
X443753Y-10567936D02*
X453277Y-10577460D01*
X453277Y-10577460D02*
X443753Y-10586984D01*
X443753Y-10586984D02*
X434229Y-10577460D01*
X434229Y-10577460D02*
X443753Y-10567936D01*
X443753Y-10567936D02*
X443753Y-10586984D01*
X519943Y-10386984D02*
X643753Y-10386984D01*
X643753Y-10386984D02*
X577086Y-10463174D01*
X577086Y-10463174D02*
X605658Y-10463174D01*
X605658Y-10463174D02*
X624705Y-10472698D01*
X624705Y-10472698D02*
X634229Y-10482222D01*
X634229Y-10482222D02*
X643753Y-10501270D01*
X643753Y-10501270D02*
X643753Y-10548889D01*
X643753Y-10548889D02*
X634229Y-10567936D01*
X634229Y-10567936D02*
X624705Y-10577460D01*
X624705Y-10577460D02*
X605658Y-10586984D01*
X605658Y-10586984D02*
X548515Y-10586984D01*
X548515Y-10586984D02*
X529467Y-10577460D01*
X529467Y-10577460D02*
X519943Y-10567936D01*
X767562Y-10386984D02*
X786610Y-10386984D01*
X786610Y-10386984D02*
X805658Y-10396508D01*
X805658Y-10396508D02*
X815182Y-10406031D01*
X815182Y-10406031D02*
X824705Y-10425079D01*
X824705Y-10425079D02*
X834229Y-10463174D01*
X834229Y-10463174D02*
X834229Y-10510793D01*
X834229Y-10510793D02*
X824705Y-10548889D01*
X824705Y-10548889D02*
X815182Y-10567936D01*
X815182Y-10567936D02*
X805658Y-10577460D01*
X805658Y-10577460D02*
X786610Y-10586984D01*
X786610Y-10586984D02*
X767562Y-10586984D01*
X767562Y-10586984D02*
X748515Y-10577460D01*
X748515Y-10577460D02*
X738991Y-10567936D01*
X738991Y-10567936D02*
X729467Y-10548889D01*
X729467Y-10548889D02*
X719943Y-10510793D01*
X719943Y-10510793D02*
X719943Y-10463174D01*
X719943Y-10463174D02*
X729467Y-10425079D01*
X729467Y-10425079D02*
X738991Y-10406031D01*
X738991Y-10406031D02*
X748515Y-10396508D01*
X748515Y-10396508D02*
X767562Y-10386984D01*
X958039Y-10386984D02*
X977086Y-10386984D01*
X977086Y-10386984D02*
X996134Y-10396508D01*
X996134Y-10396508D02*
X1005658Y-10406031D01*
X1005658Y-10406031D02*
X1015182Y-10425079D01*
X1015182Y-10425079D02*
X1024705Y-10463174D01*
X1024705Y-10463174D02*
X1024705Y-10510793D01*
X1024705Y-10510793D02*
X1015182Y-10548889D01*
X1015182Y-10548889D02*
X1005658Y-10567936D01*
X1005658Y-10567936D02*
X996134Y-10577460D01*
X996134Y-10577460D02*
X977086Y-10586984D01*
X977086Y-10586984D02*
X958039Y-10586984D01*
X958039Y-10586984D02*
X938991Y-10577460D01*
X938991Y-10577460D02*
X929467Y-10567936D01*
X929467Y-10567936D02*
X919943Y-10548889D01*
X919943Y-10548889D02*
X910420Y-10510793D01*
X910420Y-10510793D02*
X910420Y-10463174D01*
X910420Y-10463174D02*
X919943Y-10425079D01*
X919943Y-10425079D02*
X929467Y-10406031D01*
X929467Y-10406031D02*
X938991Y-10396508D01*
X938991Y-10396508D02*
X958039Y-10386984D01*
X1110420Y-10586984D02*
X1110420Y-10453650D01*
X1110420Y-10472698D02*
X1119944Y-10463174D01*
X1119944Y-10463174D02*
X1138991Y-10453650D01*
X1138991Y-10453650D02*
X1167563Y-10453650D01*
X1167563Y-10453650D02*
X1186610Y-10463174D01*
X1186610Y-10463174D02*
X1196134Y-10482222D01*
X1196134Y-10482222D02*
X1196134Y-10586984D01*
X1196134Y-10482222D02*
X1205658Y-10463174D01*
X1205658Y-10463174D02*
X1224705Y-10453650D01*
X1224705Y-10453650D02*
X1253277Y-10453650D01*
X1253277Y-10453650D02*
X1272325Y-10463174D01*
X1272325Y-10463174D02*
X1281848Y-10482222D01*
X1281848Y-10482222D02*
X1281848Y-10586984D01*
X1377086Y-10586984D02*
X1377086Y-10453650D01*
X1377086Y-10472698D02*
X1386610Y-10463174D01*
X1386610Y-10463174D02*
X1405658Y-10453650D01*
X1405658Y-10453650D02*
X1434229Y-10453650D01*
X1434229Y-10453650D02*
X1453277Y-10463174D01*
X1453277Y-10463174D02*
X1462801Y-10482222D01*
X1462801Y-10482222D02*
X1462801Y-10586984D01*
X1462801Y-10482222D02*
X1472324Y-10463174D01*
X1472324Y-10463174D02*
X1491372Y-10453650D01*
X1491372Y-10453650D02*
X1519943Y-10453650D01*
X1519943Y-10453650D02*
X1538991Y-10463174D01*
X1538991Y-10463174D02*
X1548515Y-10482222D01*
X1548515Y-10482222D02*
X1548515Y-10586984D01*
X1938991Y-10377460D02*
X1767563Y-10634603D01*
X2196134Y-10386984D02*
X2215182Y-10386984D01*
X2215182Y-10386984D02*
X2234229Y-10396508D01*
X2234229Y-10396508D02*
X2243753Y-10406031D01*
X2243753Y-10406031D02*
X2253277Y-10425079D01*
X2253277Y-10425079D02*
X2262801Y-10463174D01*
X2262801Y-10463174D02*
X2262801Y-10510793D01*
X2262801Y-10510793D02*
X2253277Y-10548889D01*
X2253277Y-10548889D02*
X2243753Y-10567936D01*
X2243753Y-10567936D02*
X2234229Y-10577460D01*
X2234229Y-10577460D02*
X2215182Y-10586984D01*
X2215182Y-10586984D02*
X2196134Y-10586984D01*
X2196134Y-10586984D02*
X2177087Y-10577460D01*
X2177087Y-10577460D02*
X2167563Y-10567936D01*
X2167563Y-10567936D02*
X2158039Y-10548889D01*
X2158039Y-10548889D02*
X2148515Y-10510793D01*
X2148515Y-10510793D02*
X2148515Y-10463174D01*
X2148515Y-10463174D02*
X2158039Y-10425079D01*
X2158039Y-10425079D02*
X2167563Y-10406031D01*
X2167563Y-10406031D02*
X2177087Y-10396508D01*
X2177087Y-10396508D02*
X2196134Y-10386984D01*
X2348515Y-10567936D02*
X2358039Y-10577460D01*
X2358039Y-10577460D02*
X2348515Y-10586984D01*
X2348515Y-10586984D02*
X2338991Y-10577460D01*
X2338991Y-10577460D02*
X2348515Y-10567936D01*
X2348515Y-10567936D02*
X2348515Y-10586984D01*
X2481848Y-10386984D02*
X2500896Y-10386984D01*
X2500896Y-10386984D02*
X2519944Y-10396508D01*
X2519944Y-10396508D02*
X2529468Y-10406031D01*
X2529468Y-10406031D02*
X2538991Y-10425079D01*
X2538991Y-10425079D02*
X2548515Y-10463174D01*
X2548515Y-10463174D02*
X2548515Y-10510793D01*
X2548515Y-10510793D02*
X2538991Y-10548889D01*
X2538991Y-10548889D02*
X2529468Y-10567936D01*
X2529468Y-10567936D02*
X2519944Y-10577460D01*
X2519944Y-10577460D02*
X2500896Y-10586984D01*
X2500896Y-10586984D02*
X2481848Y-10586984D01*
X2481848Y-10586984D02*
X2462801Y-10577460D01*
X2462801Y-10577460D02*
X2453277Y-10567936D01*
X2453277Y-10567936D02*
X2443753Y-10548889D01*
X2443753Y-10548889D02*
X2434229Y-10510793D01*
X2434229Y-10510793D02*
X2434229Y-10463174D01*
X2434229Y-10463174D02*
X2443753Y-10425079D01*
X2443753Y-10425079D02*
X2453277Y-10406031D01*
X2453277Y-10406031D02*
X2462801Y-10396508D01*
X2462801Y-10396508D02*
X2481848Y-10386984D01*
X2729468Y-10386984D02*
X2634229Y-10386984D01*
X2634229Y-10386984D02*
X2624706Y-10482222D01*
X2624706Y-10482222D02*
X2634229Y-10472698D01*
X2634229Y-10472698D02*
X2653277Y-10463174D01*
X2653277Y-10463174D02*
X2700896Y-10463174D01*
X2700896Y-10463174D02*
X2719944Y-10472698D01*
X2719944Y-10472698D02*
X2729468Y-10482222D01*
X2729468Y-10482222D02*
X2738991Y-10501270D01*
X2738991Y-10501270D02*
X2738991Y-10548889D01*
X2738991Y-10548889D02*
X2729468Y-10567936D01*
X2729468Y-10567936D02*
X2719944Y-10577460D01*
X2719944Y-10577460D02*
X2700896Y-10586984D01*
X2700896Y-10586984D02*
X2653277Y-10586984D01*
X2653277Y-10586984D02*
X2634229Y-10577460D01*
X2634229Y-10577460D02*
X2624706Y-10567936D01*
X2929467Y-10586984D02*
X2815182Y-10586984D01*
X2872325Y-10586984D02*
X2872325Y-10386984D01*
X2872325Y-10386984D02*
X2853277Y-10415555D01*
X2853277Y-10415555D02*
X2834229Y-10434603D01*
X2834229Y-10434603D02*
X2815182Y-10444127D01*
X3005658Y-10406031D02*
X3015182Y-10396508D01*
X3015182Y-10396508D02*
X3034229Y-10386984D01*
X3034229Y-10386984D02*
X3081848Y-10386984D01*
X3081848Y-10386984D02*
X3100896Y-10396508D01*
X3100896Y-10396508D02*
X3110420Y-10406031D01*
X3110420Y-10406031D02*
X3119944Y-10425079D01*
X3119944Y-10425079D02*
X3119944Y-10444127D01*
X3119944Y-10444127D02*
X3110420Y-10472698D01*
X3110420Y-10472698D02*
X2996134Y-10586984D01*
X2996134Y-10586984D02*
X3119944Y-10586984D01*
X3196134Y-10386984D02*
X3196134Y-10425079D01*
X3272325Y-10386984D02*
X3272325Y-10425079D01*
X3567563Y-10663174D02*
X3558039Y-10653650D01*
X3558039Y-10653650D02*
X3538991Y-10625079D01*
X3538991Y-10625079D02*
X3529468Y-10606031D01*
X3529468Y-10606031D02*
X3519944Y-10577460D01*
X3519944Y-10577460D02*
X3510420Y-10529841D01*
X3510420Y-10529841D02*
X3510420Y-10491746D01*
X3510420Y-10491746D02*
X3519944Y-10444127D01*
X3519944Y-10444127D02*
X3529468Y-10415555D01*
X3529468Y-10415555D02*
X3538991Y-10396508D01*
X3538991Y-10396508D02*
X3558039Y-10367936D01*
X3558039Y-10367936D02*
X3567563Y-10358412D01*
X3729468Y-10386984D02*
X3691372Y-10386984D01*
X3691372Y-10386984D02*
X3672325Y-10396508D01*
X3672325Y-10396508D02*
X3662801Y-10406031D01*
X3662801Y-10406031D02*
X3643753Y-10434603D01*
X3643753Y-10434603D02*
X3634229Y-10472698D01*
X3634229Y-10472698D02*
X3634229Y-10548889D01*
X3634229Y-10548889D02*
X3643753Y-10567936D01*
X3643753Y-10567936D02*
X3653277Y-10577460D01*
X3653277Y-10577460D02*
X3672325Y-10586984D01*
X3672325Y-10586984D02*
X3710420Y-10586984D01*
X3710420Y-10586984D02*
X3729468Y-10577460D01*
X3729468Y-10577460D02*
X3738991Y-10567936D01*
X3738991Y-10567936D02*
X3748515Y-10548889D01*
X3748515Y-10548889D02*
X3748515Y-10501270D01*
X3748515Y-10501270D02*
X3738991Y-10482222D01*
X3738991Y-10482222D02*
X3729468Y-10472698D01*
X3729468Y-10472698D02*
X3710420Y-10463174D01*
X3710420Y-10463174D02*
X3672325Y-10463174D01*
X3672325Y-10463174D02*
X3653277Y-10472698D01*
X3653277Y-10472698D02*
X3643753Y-10482222D01*
X3643753Y-10482222D02*
X3634229Y-10501270D01*
X3986610Y-10586984D02*
X3986610Y-10386984D01*
X4072325Y-10586984D02*
X4072325Y-10482222D01*
X4072325Y-10482222D02*
X4062801Y-10463174D01*
X4062801Y-10463174D02*
X4043753Y-10453650D01*
X4043753Y-10453650D02*
X4015182Y-10453650D01*
X4015182Y-10453650D02*
X3996134Y-10463174D01*
X3996134Y-10463174D02*
X3986610Y-10472698D01*
X4196134Y-10586984D02*
X4177087Y-10577460D01*
X4177087Y-10577460D02*
X4167563Y-10567936D01*
X4167563Y-10567936D02*
X4158039Y-10548889D01*
X4158039Y-10548889D02*
X4158039Y-10491746D01*
X4158039Y-10491746D02*
X4167563Y-10472698D01*
X4167563Y-10472698D02*
X4177087Y-10463174D01*
X4177087Y-10463174D02*
X4196134Y-10453650D01*
X4196134Y-10453650D02*
X4224706Y-10453650D01*
X4224706Y-10453650D02*
X4243753Y-10463174D01*
X4243753Y-10463174D02*
X4253277Y-10472698D01*
X4253277Y-10472698D02*
X4262801Y-10491746D01*
X4262801Y-10491746D02*
X4262801Y-10548889D01*
X4262801Y-10548889D02*
X4253277Y-10567936D01*
X4253277Y-10567936D02*
X4243753Y-10577460D01*
X4243753Y-10577460D02*
X4224706Y-10586984D01*
X4224706Y-10586984D02*
X4196134Y-10586984D01*
X4377087Y-10586984D02*
X4358039Y-10577460D01*
X4358039Y-10577460D02*
X4348515Y-10558412D01*
X4348515Y-10558412D02*
X4348515Y-10386984D01*
X4529468Y-10577460D02*
X4510420Y-10586984D01*
X4510420Y-10586984D02*
X4472325Y-10586984D01*
X4472325Y-10586984D02*
X4453277Y-10577460D01*
X4453277Y-10577460D02*
X4443753Y-10558412D01*
X4443753Y-10558412D02*
X4443753Y-10482222D01*
X4443753Y-10482222D02*
X4453277Y-10463174D01*
X4453277Y-10463174D02*
X4472325Y-10453650D01*
X4472325Y-10453650D02*
X4510420Y-10453650D01*
X4510420Y-10453650D02*
X4529468Y-10463174D01*
X4529468Y-10463174D02*
X4538992Y-10482222D01*
X4538992Y-10482222D02*
X4538992Y-10501270D01*
X4538992Y-10501270D02*
X4443753Y-10520317D01*
X4615182Y-10577460D02*
X4634230Y-10586984D01*
X4634230Y-10586984D02*
X4672325Y-10586984D01*
X4672325Y-10586984D02*
X4691373Y-10577460D01*
X4691373Y-10577460D02*
X4700896Y-10558412D01*
X4700896Y-10558412D02*
X4700896Y-10548889D01*
X4700896Y-10548889D02*
X4691373Y-10529841D01*
X4691373Y-10529841D02*
X4672325Y-10520317D01*
X4672325Y-10520317D02*
X4643753Y-10520317D01*
X4643753Y-10520317D02*
X4624706Y-10510793D01*
X4624706Y-10510793D02*
X4615182Y-10491746D01*
X4615182Y-10491746D02*
X4615182Y-10482222D01*
X4615182Y-10482222D02*
X4624706Y-10463174D01*
X4624706Y-10463174D02*
X4643753Y-10453650D01*
X4643753Y-10453650D02*
X4672325Y-10453650D01*
X4672325Y-10453650D02*
X4691373Y-10463174D01*
X4767563Y-10663174D02*
X4777087Y-10653650D01*
X4777087Y-10653650D02*
X4796134Y-10625079D01*
X4796134Y-10625079D02*
X4805658Y-10606031D01*
X4805658Y-10606031D02*
X4815182Y-10577460D01*
X4815182Y-10577460D02*
X4824706Y-10529841D01*
X4824706Y-10529841D02*
X4824706Y-10491746D01*
X4824706Y-10491746D02*
X4815182Y-10444127D01*
X4815182Y-10444127D02*
X4805658Y-10415555D01*
X4805658Y-10415555D02*
X4796134Y-10396508D01*
X4796134Y-10396508D02*
X4777087Y-10367936D01*
X4777087Y-10367936D02*
X4767563Y-10358412D01*
X-207500Y-10659500D02*
X-7500Y-10859500D01*
X-7500Y-10659500D02*
X-207500Y-10859500D01*
X-107500Y-10859500D02*
X-7500Y-10759500D01*
X-107500Y-10659500D01*
X-207500Y-10759500D01*
X-107500Y-10859500D01*
X243753Y-10670031D02*
X253277Y-10660508D01*
X253277Y-10660508D02*
X272324Y-10650984D01*
X272324Y-10650984D02*
X319944Y-10650984D01*
X319944Y-10650984D02*
X338991Y-10660508D01*
X338991Y-10660508D02*
X348515Y-10670031D01*
X348515Y-10670031D02*
X358039Y-10689079D01*
X358039Y-10689079D02*
X358039Y-10708127D01*
X358039Y-10708127D02*
X348515Y-10736698D01*
X348515Y-10736698D02*
X234229Y-10850984D01*
X234229Y-10850984D02*
X358039Y-10850984D01*
X443753Y-10831936D02*
X453277Y-10841460D01*
X453277Y-10841460D02*
X443753Y-10850984D01*
X443753Y-10850984D02*
X434229Y-10841460D01*
X434229Y-10841460D02*
X443753Y-10831936D01*
X443753Y-10831936D02*
X443753Y-10850984D01*
X519943Y-10650984D02*
X653277Y-10650984D01*
X653277Y-10650984D02*
X567563Y-10850984D01*
X767562Y-10650984D02*
X786610Y-10650984D01*
X786610Y-10650984D02*
X805658Y-10660508D01*
X805658Y-10660508D02*
X815182Y-10670031D01*
X815182Y-10670031D02*
X824705Y-10689079D01*
X824705Y-10689079D02*
X834229Y-10727174D01*
X834229Y-10727174D02*
X834229Y-10774793D01*
X834229Y-10774793D02*
X824705Y-10812889D01*
X824705Y-10812889D02*
X815182Y-10831936D01*
X815182Y-10831936D02*
X805658Y-10841460D01*
X805658Y-10841460D02*
X786610Y-10850984D01*
X786610Y-10850984D02*
X767562Y-10850984D01*
X767562Y-10850984D02*
X748515Y-10841460D01*
X748515Y-10841460D02*
X738991Y-10831936D01*
X738991Y-10831936D02*
X729467Y-10812889D01*
X729467Y-10812889D02*
X719943Y-10774793D01*
X719943Y-10774793D02*
X719943Y-10727174D01*
X719943Y-10727174D02*
X729467Y-10689079D01*
X729467Y-10689079D02*
X738991Y-10670031D01*
X738991Y-10670031D02*
X748515Y-10660508D01*
X748515Y-10660508D02*
X767562Y-10650984D01*
X958039Y-10650984D02*
X977086Y-10650984D01*
X977086Y-10650984D02*
X996134Y-10660508D01*
X996134Y-10660508D02*
X1005658Y-10670031D01*
X1005658Y-10670031D02*
X1015182Y-10689079D01*
X1015182Y-10689079D02*
X1024705Y-10727174D01*
X1024705Y-10727174D02*
X1024705Y-10774793D01*
X1024705Y-10774793D02*
X1015182Y-10812889D01*
X1015182Y-10812889D02*
X1005658Y-10831936D01*
X1005658Y-10831936D02*
X996134Y-10841460D01*
X996134Y-10841460D02*
X977086Y-10850984D01*
X977086Y-10850984D02*
X958039Y-10850984D01*
X958039Y-10850984D02*
X938991Y-10841460D01*
X938991Y-10841460D02*
X929467Y-10831936D01*
X929467Y-10831936D02*
X919943Y-10812889D01*
X919943Y-10812889D02*
X910420Y-10774793D01*
X910420Y-10774793D02*
X910420Y-10727174D01*
X910420Y-10727174D02*
X919943Y-10689079D01*
X919943Y-10689079D02*
X929467Y-10670031D01*
X929467Y-10670031D02*
X938991Y-10660508D01*
X938991Y-10660508D02*
X958039Y-10650984D01*
X1110420Y-10850984D02*
X1110420Y-10717650D01*
X1110420Y-10736698D02*
X1119944Y-10727174D01*
X1119944Y-10727174D02*
X1138991Y-10717650D01*
X1138991Y-10717650D02*
X1167563Y-10717650D01*
X1167563Y-10717650D02*
X1186610Y-10727174D01*
X1186610Y-10727174D02*
X1196134Y-10746222D01*
X1196134Y-10746222D02*
X1196134Y-10850984D01*
X1196134Y-10746222D02*
X1205658Y-10727174D01*
X1205658Y-10727174D02*
X1224705Y-10717650D01*
X1224705Y-10717650D02*
X1253277Y-10717650D01*
X1253277Y-10717650D02*
X1272325Y-10727174D01*
X1272325Y-10727174D02*
X1281848Y-10746222D01*
X1281848Y-10746222D02*
X1281848Y-10850984D01*
X1377086Y-10850984D02*
X1377086Y-10717650D01*
X1377086Y-10736698D02*
X1386610Y-10727174D01*
X1386610Y-10727174D02*
X1405658Y-10717650D01*
X1405658Y-10717650D02*
X1434229Y-10717650D01*
X1434229Y-10717650D02*
X1453277Y-10727174D01*
X1453277Y-10727174D02*
X1462801Y-10746222D01*
X1462801Y-10746222D02*
X1462801Y-10850984D01*
X1462801Y-10746222D02*
X1472324Y-10727174D01*
X1472324Y-10727174D02*
X1491372Y-10717650D01*
X1491372Y-10717650D02*
X1519943Y-10717650D01*
X1519943Y-10717650D02*
X1538991Y-10727174D01*
X1538991Y-10727174D02*
X1548515Y-10746222D01*
X1548515Y-10746222D02*
X1548515Y-10850984D01*
X1938991Y-10641460D02*
X1767563Y-10898603D01*
X2196134Y-10650984D02*
X2215182Y-10650984D01*
X2215182Y-10650984D02*
X2234229Y-10660508D01*
X2234229Y-10660508D02*
X2243753Y-10670031D01*
X2243753Y-10670031D02*
X2253277Y-10689079D01*
X2253277Y-10689079D02*
X2262801Y-10727174D01*
X2262801Y-10727174D02*
X2262801Y-10774793D01*
X2262801Y-10774793D02*
X2253277Y-10812889D01*
X2253277Y-10812889D02*
X2243753Y-10831936D01*
X2243753Y-10831936D02*
X2234229Y-10841460D01*
X2234229Y-10841460D02*
X2215182Y-10850984D01*
X2215182Y-10850984D02*
X2196134Y-10850984D01*
X2196134Y-10850984D02*
X2177087Y-10841460D01*
X2177087Y-10841460D02*
X2167563Y-10831936D01*
X2167563Y-10831936D02*
X2158039Y-10812889D01*
X2158039Y-10812889D02*
X2148515Y-10774793D01*
X2148515Y-10774793D02*
X2148515Y-10727174D01*
X2148515Y-10727174D02*
X2158039Y-10689079D01*
X2158039Y-10689079D02*
X2167563Y-10670031D01*
X2167563Y-10670031D02*
X2177087Y-10660508D01*
X2177087Y-10660508D02*
X2196134Y-10650984D01*
X2348515Y-10831936D02*
X2358039Y-10841460D01*
X2358039Y-10841460D02*
X2348515Y-10850984D01*
X2348515Y-10850984D02*
X2338991Y-10841460D01*
X2338991Y-10841460D02*
X2348515Y-10831936D01*
X2348515Y-10831936D02*
X2348515Y-10850984D01*
X2548515Y-10850984D02*
X2434229Y-10850984D01*
X2491372Y-10850984D02*
X2491372Y-10650984D01*
X2491372Y-10650984D02*
X2472325Y-10679555D01*
X2472325Y-10679555D02*
X2453277Y-10698603D01*
X2453277Y-10698603D02*
X2434229Y-10708127D01*
X2672325Y-10650984D02*
X2691372Y-10650984D01*
X2691372Y-10650984D02*
X2710420Y-10660508D01*
X2710420Y-10660508D02*
X2719944Y-10670031D01*
X2719944Y-10670031D02*
X2729468Y-10689079D01*
X2729468Y-10689079D02*
X2738991Y-10727174D01*
X2738991Y-10727174D02*
X2738991Y-10774793D01*
X2738991Y-10774793D02*
X2729468Y-10812889D01*
X2729468Y-10812889D02*
X2719944Y-10831936D01*
X2719944Y-10831936D02*
X2710420Y-10841460D01*
X2710420Y-10841460D02*
X2691372Y-10850984D01*
X2691372Y-10850984D02*
X2672325Y-10850984D01*
X2672325Y-10850984D02*
X2653277Y-10841460D01*
X2653277Y-10841460D02*
X2643753Y-10831936D01*
X2643753Y-10831936D02*
X2634229Y-10812889D01*
X2634229Y-10812889D02*
X2624706Y-10774793D01*
X2624706Y-10774793D02*
X2624706Y-10727174D01*
X2624706Y-10727174D02*
X2634229Y-10689079D01*
X2634229Y-10689079D02*
X2643753Y-10670031D01*
X2643753Y-10670031D02*
X2653277Y-10660508D01*
X2653277Y-10660508D02*
X2672325Y-10650984D01*
X2910420Y-10650984D02*
X2872325Y-10650984D01*
X2872325Y-10650984D02*
X2853277Y-10660508D01*
X2853277Y-10660508D02*
X2843753Y-10670031D01*
X2843753Y-10670031D02*
X2824706Y-10698603D01*
X2824706Y-10698603D02*
X2815182Y-10736698D01*
X2815182Y-10736698D02*
X2815182Y-10812889D01*
X2815182Y-10812889D02*
X2824706Y-10831936D01*
X2824706Y-10831936D02*
X2834229Y-10841460D01*
X2834229Y-10841460D02*
X2853277Y-10850984D01*
X2853277Y-10850984D02*
X2891372Y-10850984D01*
X2891372Y-10850984D02*
X2910420Y-10841460D01*
X2910420Y-10841460D02*
X2919944Y-10831936D01*
X2919944Y-10831936D02*
X2929467Y-10812889D01*
X2929467Y-10812889D02*
X2929467Y-10765270D01*
X2929467Y-10765270D02*
X2919944Y-10746222D01*
X2919944Y-10746222D02*
X2910420Y-10736698D01*
X2910420Y-10736698D02*
X2891372Y-10727174D01*
X2891372Y-10727174D02*
X2853277Y-10727174D01*
X2853277Y-10727174D02*
X2834229Y-10736698D01*
X2834229Y-10736698D02*
X2824706Y-10746222D01*
X2824706Y-10746222D02*
X2815182Y-10765270D01*
X2996134Y-10650984D02*
X3119944Y-10650984D01*
X3119944Y-10650984D02*
X3053277Y-10727174D01*
X3053277Y-10727174D02*
X3081848Y-10727174D01*
X3081848Y-10727174D02*
X3100896Y-10736698D01*
X3100896Y-10736698D02*
X3110420Y-10746222D01*
X3110420Y-10746222D02*
X3119944Y-10765270D01*
X3119944Y-10765270D02*
X3119944Y-10812889D01*
X3119944Y-10812889D02*
X3110420Y-10831936D01*
X3110420Y-10831936D02*
X3100896Y-10841460D01*
X3100896Y-10841460D02*
X3081848Y-10850984D01*
X3081848Y-10850984D02*
X3024706Y-10850984D01*
X3024706Y-10850984D02*
X3005658Y-10841460D01*
X3005658Y-10841460D02*
X2996134Y-10831936D01*
X3196134Y-10650984D02*
X3196134Y-10689079D01*
X3272325Y-10650984D02*
X3272325Y-10689079D01*
X3567563Y-10927174D02*
X3558039Y-10917650D01*
X3558039Y-10917650D02*
X3538991Y-10889079D01*
X3538991Y-10889079D02*
X3529468Y-10870031D01*
X3529468Y-10870031D02*
X3519944Y-10841460D01*
X3519944Y-10841460D02*
X3510420Y-10793841D01*
X3510420Y-10793841D02*
X3510420Y-10755746D01*
X3510420Y-10755746D02*
X3519944Y-10708127D01*
X3519944Y-10708127D02*
X3529468Y-10679555D01*
X3529468Y-10679555D02*
X3538991Y-10660508D01*
X3538991Y-10660508D02*
X3558039Y-10631936D01*
X3558039Y-10631936D02*
X3567563Y-10622412D01*
X3634229Y-10670031D02*
X3643753Y-10660508D01*
X3643753Y-10660508D02*
X3662801Y-10650984D01*
X3662801Y-10650984D02*
X3710420Y-10650984D01*
X3710420Y-10650984D02*
X3729468Y-10660508D01*
X3729468Y-10660508D02*
X3738991Y-10670031D01*
X3738991Y-10670031D02*
X3748515Y-10689079D01*
X3748515Y-10689079D02*
X3748515Y-10708127D01*
X3748515Y-10708127D02*
X3738991Y-10736698D01*
X3738991Y-10736698D02*
X3624706Y-10850984D01*
X3624706Y-10850984D02*
X3748515Y-10850984D01*
X3986610Y-10850984D02*
X3986610Y-10650984D01*
X4072325Y-10850984D02*
X4072325Y-10746222D01*
X4072325Y-10746222D02*
X4062801Y-10727174D01*
X4062801Y-10727174D02*
X4043753Y-10717650D01*
X4043753Y-10717650D02*
X4015182Y-10717650D01*
X4015182Y-10717650D02*
X3996134Y-10727174D01*
X3996134Y-10727174D02*
X3986610Y-10736698D01*
X4196134Y-10850984D02*
X4177087Y-10841460D01*
X4177087Y-10841460D02*
X4167563Y-10831936D01*
X4167563Y-10831936D02*
X4158039Y-10812889D01*
X4158039Y-10812889D02*
X4158039Y-10755746D01*
X4158039Y-10755746D02*
X4167563Y-10736698D01*
X4167563Y-10736698D02*
X4177087Y-10727174D01*
X4177087Y-10727174D02*
X4196134Y-10717650D01*
X4196134Y-10717650D02*
X4224706Y-10717650D01*
X4224706Y-10717650D02*
X4243753Y-10727174D01*
X4243753Y-10727174D02*
X4253277Y-10736698D01*
X4253277Y-10736698D02*
X4262801Y-10755746D01*
X4262801Y-10755746D02*
X4262801Y-10812889D01*
X4262801Y-10812889D02*
X4253277Y-10831936D01*
X4253277Y-10831936D02*
X4243753Y-10841460D01*
X4243753Y-10841460D02*
X4224706Y-10850984D01*
X4224706Y-10850984D02*
X4196134Y-10850984D01*
X4377087Y-10850984D02*
X4358039Y-10841460D01*
X4358039Y-10841460D02*
X4348515Y-10822412D01*
X4348515Y-10822412D02*
X4348515Y-10650984D01*
X4529468Y-10841460D02*
X4510420Y-10850984D01*
X4510420Y-10850984D02*
X4472325Y-10850984D01*
X4472325Y-10850984D02*
X4453277Y-10841460D01*
X4453277Y-10841460D02*
X4443753Y-10822412D01*
X4443753Y-10822412D02*
X4443753Y-10746222D01*
X4443753Y-10746222D02*
X4453277Y-10727174D01*
X4453277Y-10727174D02*
X4472325Y-10717650D01*
X4472325Y-10717650D02*
X4510420Y-10717650D01*
X4510420Y-10717650D02*
X4529468Y-10727174D01*
X4529468Y-10727174D02*
X4538992Y-10746222D01*
X4538992Y-10746222D02*
X4538992Y-10765270D01*
X4538992Y-10765270D02*
X4443753Y-10784317D01*
X4615182Y-10841460D02*
X4634230Y-10850984D01*
X4634230Y-10850984D02*
X4672325Y-10850984D01*
X4672325Y-10850984D02*
X4691373Y-10841460D01*
X4691373Y-10841460D02*
X4700896Y-10822412D01*
X4700896Y-10822412D02*
X4700896Y-10812889D01*
X4700896Y-10812889D02*
X4691373Y-10793841D01*
X4691373Y-10793841D02*
X4672325Y-10784317D01*
X4672325Y-10784317D02*
X4643753Y-10784317D01*
X4643753Y-10784317D02*
X4624706Y-10774793D01*
X4624706Y-10774793D02*
X4615182Y-10755746D01*
X4615182Y-10755746D02*
X4615182Y-10746222D01*
X4615182Y-10746222D02*
X4624706Y-10727174D01*
X4624706Y-10727174D02*
X4643753Y-10717650D01*
X4643753Y-10717650D02*
X4672325Y-10717650D01*
X4672325Y-10717650D02*
X4691373Y-10727174D01*
X4767563Y-10927174D02*
X4777087Y-10917650D01*
X4777087Y-10917650D02*
X4796134Y-10889079D01*
X4796134Y-10889079D02*
X4805658Y-10870031D01*
X4805658Y-10870031D02*
X4815182Y-10841460D01*
X4815182Y-10841460D02*
X4824706Y-10793841D01*
X4824706Y-10793841D02*
X4824706Y-10755746D01*
X4824706Y-10755746D02*
X4815182Y-10708127D01*
X4815182Y-10708127D02*
X4805658Y-10679555D01*
X4805658Y-10679555D02*
X4796134Y-10660508D01*
X4796134Y-10660508D02*
X4777087Y-10631936D01*
X4777087Y-10631936D02*
X4767563Y-10622412D01*
M02*
