M48
; DRILL file {KiCad 7.0.11+dfsg-1build4} date Tue Jul  7 08:58:30 2026
; FORMAT={-:-/ absolute / metric / decimal}
; #@! TF.CreationDate,2026-07-07T08:58:30+00:00
; #@! TF.GenerationSoftware,Kicad,Pcbnew,7.0.11+dfsg-1build4
; #@! TF.FileFunction,Plated,1,4,PTH
FMAT,2
METRIC
; #@! TA.AperFunction,Plated,PTH,ViaDrill
T1C0.200
; #@! TA.AperFunction,Plated,PTH,ComponentDrill
T2C0.200
; #@! TA.AperFunction,Plated,PTH,ComponentDrill
T3C0.300
; #@! TA.AperFunction,Plated,PTH,ComponentDrill
T4C0.600
; #@! TA.AperFunction,Plated,PTH,ComponentDrill
T5C0.750
; #@! TA.AperFunction,Plated,PTH,ComponentDrill
T6C0.950
; #@! TA.AperFunction,Plated,PTH,ComponentDrill
T7C1.000
; #@! TA.AperFunction,Plated,PTH,ComponentDrill
T8C1.300
; #@! TA.AperFunction,Plated,PTH,ComponentDrill
T9C2.700
%
G90
G05
T1
X1.925Y-1.925
X1.925Y-8.925
X1.925Y-11.925
X1.925Y-21.925
X1.925Y-22.925
X1.925Y-36.925
X1.925Y-50.925
X1.925Y-51.925
X1.925Y-61.925
X1.925Y-64.925
X1.925Y-71.925
X2.05Y-32.05
X3.3Y-51.55
X4.83Y-48.805
X4.83Y-48.805
X5.225Y-51.555
X5.225Y-51.555
X6.05Y-22.925
X8.675Y-55.05
X8.925Y-1.925
X8.925Y-8.925
X8.925Y-15.925
X8.925Y-22.925
X8.925Y-29.925
X8.925Y-36.925
X8.925Y-43.925
X8.925Y-50.925
X8.925Y-71.925
X9.8Y-58.55
X10.425Y-63.55
X11.3Y-52.8
X11.33Y-52.805
X11.33Y-52.805
X11.55Y-50.55
X11.925Y-1.925
X11.925Y-17.05
X11.925Y-21.925
X11.925Y-41.925
X12.175Y-51.8
X12.675Y-31.3
X12.8Y-50.3
X12.8Y-59.8
X13.675Y-52.8
X14.3Y-61.05
X15.925Y-1.925
X15.925Y-8.925
X15.925Y-36.925
X15.925Y-64.925
X15.925Y-71.925
X16.83Y-50.305
X16.83Y-50.305
X17.05Y-50.05
X17.05Y-56.925
X17.175Y-57.8
X18.3Y-52.8
X19.425Y-55.55
X20.037Y-53.512
X20.037Y-53.512
X20.175Y-60.8
X20.8Y-54.3
X20.83Y-50.305
X20.83Y-50.305
X21.55Y-69.925
X21.925Y-1.925
X21.925Y-21.925
X21.925Y-49.175
X21.925Y-70.8
X22.3Y-38.175
X22.565Y-59.023
X22.565Y-59.023
X22.675Y-46.925
X22.925Y-1.925
X22.925Y-8.925
X22.925Y-22.925
X22.925Y-29.925
X23.55Y-42.3
X23.675Y-66.05
X23.675Y-67.8
X24.175Y-58.175
X24.193Y-64.443
X24.193Y-64.443
X24.3Y-39.175
X24.425Y-43.925
X24.925Y-42.425
X24.925Y-58.8
X24.925Y-63.8
X25.425Y-60.675
X25.637Y-55.25
X25.637Y-55.25
X25.925Y-32.05
X26.175Y-36.55
X26.3Y-45.8
X26.55Y-44.55
X26.55Y-60.8
X27.05Y-66.8
X27.1Y-66.85
X27.1Y-66.85
X27.175Y-61.55
X27.3Y-33.425
X27.8Y-43.8
X27.8Y-64.05
X27.925Y-19.05
X28.3Y-46.3
X29.3Y-29.425
X29.3Y-37.925
X29.3Y-43.8
X29.35Y-35.925
X29.35Y-35.925
X29.35Y-36.575
X29.35Y-36.575
X29.35Y-37.225
X29.35Y-37.225
X29.425Y-31.55
X29.425Y-38.925
X29.8Y-26.55
X29.925Y-1.925
X29.925Y-22.925
X30.175Y-40.3
X30.75Y-28.125
X30.75Y-28.125
X30.75Y-33.325
X30.75Y-33.325
X30.8Y-26.425
X31.38Y-25.405
X31.38Y-25.405
X31.425Y-25.425
X31.65Y-50.837
X31.65Y-50.837
X31.925Y-1.925
X31.925Y-21.925
X32.163Y-58.75
X32.163Y-58.75
X32.925Y-41.3
X33.0Y-33.0
X33.0Y-33.0
X33.0Y-33.0
X33.0Y-33.0
X33.435Y-56.523
X33.435Y-56.523
X33.562Y-53.75
X33.562Y-53.75
X33.725Y-41.555
X33.725Y-41.555
X33.8Y-41.425
X34.3Y-43.425
X34.3Y-63.925
X34.55Y-63.3
X35.25Y-30.725
X35.25Y-30.725
X35.25Y-34.625
X35.25Y-34.625
X35.3Y-25.425
X35.3Y-52.05
X35.3Y-54.8
X35.33Y-25.405
X35.33Y-25.405
X35.425Y-43.8
X35.55Y-38.3
X36.05Y-60.3
X36.3Y-57.925
X36.518Y-51.348
X36.518Y-51.348
X36.65Y-32.675
X36.65Y-32.675
X36.675Y-29.425
X36.675Y-35.925
X36.925Y-1.925
X36.925Y-15.925
X36.925Y-22.925
X36.925Y-66.425
X37.425Y-37.8
X37.425Y-60.55
X37.55Y-41.05
X37.8Y-43.8
X37.83Y-41.305
X37.83Y-41.305
X37.925Y-41.05
X38.175Y-17.05
X38.175Y-32.175
X38.175Y-51.3
X38.225Y-60.555
X38.225Y-60.555
X38.3Y-35.05
X38.3Y-36.05
X38.55Y-30.425
X38.8Y-52.05
X39.925Y-60.55
X40.05Y-31.05
X40.05Y-50.3
X40.175Y-34.175
X40.175Y-37.175
X40.525Y-47.365
X40.525Y-47.365
X40.55Y-30.55
X40.8Y-28.55
X40.8Y-37.425
X40.8Y-47.925
X40.8Y-52.05
X40.925Y-26.3
X40.925Y-67.925
X40.925Y-71.3
X41.05Y-38.55
X41.05Y-62.925
X41.3Y-34.925
X41.425Y-47.3
X41.525Y-46.095
X41.525Y-46.095
X41.525Y-49.905
X41.525Y-49.905
X41.55Y-46.05
X41.55Y-49.925
X41.675Y-32.675
X41.675Y-41.175
X41.725Y-57.555
X41.725Y-57.555
X41.8Y-57.675
X41.83Y-41.305
X41.83Y-41.305
X41.925Y-1.925
X41.925Y-11.925
X41.925Y-21.925
X42.175Y-61.05
X42.232Y-49.342
X42.232Y-49.342
X42.3Y-42.8
X42.432Y-53.762
X42.432Y-53.762
X42.725Y-60.555
X42.725Y-60.555
X42.8Y-25.425
X42.925Y-38.675
X43.057Y-33.918
X43.057Y-33.918
X43.057Y-34.032
X43.057Y-34.032
X43.175Y-75.675
X43.35Y-33.975
X43.35Y-33.975
X43.35Y-35.925
X43.35Y-35.925
X43.35Y-36.575
X43.35Y-36.575
X43.35Y-37.225
X43.35Y-37.225
X43.38Y-25.405
X43.38Y-25.405
X43.425Y-68.3
X43.55Y-50.425
X43.75Y-28.125
X43.75Y-28.125
X43.925Y-1.925
X43.925Y-8.925
X43.925Y-22.925
X43.925Y-43.925
X44.05Y-64.05
X44.175Y-52.8
X44.175Y-74.55
X44.8Y-72.175
X45.05Y-43.675
X45.425Y-75.675
X45.55Y-54.8
X45.55Y-59.925
X45.825Y-76.0
X45.825Y-76.0
X46.0Y-33.0
X46.0Y-33.0
X46.0Y-33.0
X46.0Y-33.0
X46.05Y-50.3
X46.55Y-45.925
X46.55Y-58.925
X46.675Y-48.925
X47.55Y-52.925
X48.175Y-27.05
X48.25Y-30.725
X48.25Y-30.725
X48.25Y-32.675
X48.25Y-32.675
X48.25Y-34.625
X48.25Y-34.625
X48.3Y-26.175
X48.425Y-40.175
X48.675Y-56.05
X48.707Y-64.707
X48.707Y-64.707
X48.8Y-58.8
X49.3Y-60.55
X49.675Y-27.425
X49.675Y-29.425
X49.675Y-35.925
X49.675Y-37.925
X50.175Y-40.3
X50.3Y-55.55
X50.35Y-61.605
X50.35Y-61.605
X50.425Y-57.55
X50.675Y-31.3
X50.675Y-33.3
X50.675Y-35.175
X50.8Y-39.55
X50.925Y-1.925
X50.925Y-8.925
X50.925Y-15.925
X50.925Y-22.925
X50.925Y-42.8
X50.925Y-43.925
X50.925Y-71.925
X51.425Y-60.175
X51.527Y-56.108
X51.527Y-56.108
X51.55Y-61.675
X51.925Y-1.925
X51.925Y-11.925
X51.925Y-21.925
X51.925Y-51.925
X51.925Y-71.925
X52.05Y-46.175
X52.3Y-31.55
X52.3Y-36.8
X52.3Y-55.675
X52.425Y-62.3
X53.3Y-29.925
X53.55Y-44.675
X53.775Y-76.0
X53.775Y-76.0
X53.8Y-68.175
X53.88Y-41.105
X53.88Y-41.105
X53.925Y-17.05
X54.05Y-39.925
X54.05Y-60.3
X54.175Y-38.925
X54.425Y-31.8
X54.83Y-57.805
X54.83Y-57.805
X55.08Y-62.638
X55.08Y-62.638
X55.3Y-57.05
X55.675Y-52.925
X55.8Y-60.3
X55.925Y-57.05
X56.175Y-32.675
X56.175Y-76.05
X56.425Y-52.05
X56.675Y-24.425
X56.675Y-54.925
X57.675Y-58.8
X57.8Y-18.175
X57.925Y-1.925
X57.925Y-8.925
X58.05Y-67.8
X58.05Y-69.425
X58.3Y-66.175
X58.925Y-13.175
X59.38Y-10.305
X59.38Y-10.305
X59.425Y-15.3
X59.675Y-57.3
X59.8Y-66.05
X59.925Y-46.55
X60.175Y-25.175
X60.425Y-12.8
X60.425Y-43.3
X61.425Y-50.175
X61.425Y-50.675
X61.425Y-53.05
X61.8Y-43.55
X61.825Y-43.5
X61.825Y-43.5
X61.925Y-14.05
X61.925Y-21.925
X61.925Y-31.925
X61.925Y-51.675
X62.175Y-49.425
X62.55Y-65.425
X62.675Y-39.175
X62.8Y-54.425
X62.925Y-10.3
X64.05Y-52.175
X64.175Y-37.425
X64.253Y-46.897
X64.253Y-46.897
X64.425Y-20.3
X64.425Y-43.55
X64.55Y-39.175
X64.8Y-34.3
X64.925Y-22.925
X64.925Y-53.55
X65.05Y-48.55
X65.05Y-54.8
X65.3Y-46.8
X65.33Y-48.305
X65.33Y-48.305
X65.925Y-57.3
X66.175Y-34.8
X66.175Y-51.8
X66.175Y-54.925
X66.425Y-18.175
X66.8Y-53.05
X67.425Y-46.425
X67.425Y-49.675
X68.05Y-43.8
X68.125Y-53.555
X68.125Y-53.555
X68.2Y-27.0
X68.2Y-27.0
X68.2Y-38.0
X68.2Y-38.0
X68.675Y-15.925
X68.8Y-51.05
X69.05Y-47.175
X69.05Y-49.675
X69.175Y-59.675
X69.33Y-52.605
X69.33Y-52.605
X69.675Y-19.05
X69.95Y-34.8
X69.95Y-34.8
X69.95Y-43.8
X69.95Y-43.8
X70.3Y-34.8
X70.425Y-47.8
X71.35Y-55.725
X71.35Y-55.725
X71.925Y-1.925
X71.925Y-8.925
X71.925Y-21.925
X71.925Y-22.925
X71.925Y-29.925
X71.925Y-31.925
X71.925Y-41.925
X71.925Y-43.925
X71.925Y-57.925
X71.925Y-64.925
X72.05Y-47.05
X72.925Y-50.05
X73.05Y-30.925
X73.38Y-52.805
X73.38Y-52.805
X73.675Y-27.675
X73.675Y-38.05
X74.05Y-75.425
X74.3Y-34.675
X74.532Y-33.793
X74.532Y-33.793
X74.55Y-40.73
X74.55Y-40.73
X74.55Y-42.0
X74.55Y-42.0
X74.55Y-46.34
X74.55Y-46.34
X74.675Y-53.3
X74.675Y-71.925
X74.95Y-47.0
X74.95Y-47.0
X75.05Y-17.925
X75.175Y-54.925
X75.3Y-60.8
X75.3Y-69.675
X75.3Y-70.925
X75.3Y-73.425
X75.422Y-51.752
X75.422Y-51.752
X75.475Y-37.0
X75.475Y-37.0
X75.925Y-39.8
X75.925Y-66.925
X75.925Y-68.175
X76.175Y-46.175
X76.3Y-37.425
X76.425Y-51.425
X76.675Y-47.8
X76.675Y-48.675
X76.675Y-72.05
X76.8Y-41.55
X76.925Y-16.05
X76.947Y-75.563
X76.947Y-75.563
X77.38Y-55.205
X77.38Y-55.205
X77.425Y-62.05
X77.55Y-72.05
X77.775Y-34.5
X77.775Y-34.5
X78.175Y-43.55
X78.3Y-59.55
X78.425Y-72.05
X78.775Y-38.0
X78.775Y-38.0
X78.925Y-1.925
X78.925Y-8.925
X78.925Y-22.925
X78.925Y-29.925
X78.925Y-55.925
X78.925Y-64.925
X79.047Y-57.422
X79.047Y-57.422
X79.05Y-50.55
X79.103Y-49.032
X79.103Y-49.032
X79.3Y-60.925
X79.425Y-52.8
X79.55Y-59.55
X79.675Y-49.05
X79.925Y-19.175
X79.925Y-57.425
X80.05Y-37.425
X80.175Y-41.175
X80.175Y-44.05
X80.675Y-14.675
X80.675Y-43.3
X80.675Y-59.55
X81.05Y-45.425
X81.05Y-47.675
X81.8Y-19.3
X81.8Y-37.3
X81.8Y-52.3
X81.925Y-1.925
X81.925Y-31.925
X81.925Y-61.925
X82.175Y-56.05
X82.3Y-16.05
X82.55Y-38.55
X82.675Y-46.175
X82.7Y-27.0
X82.7Y-27.0
X82.85Y-47.7
X82.85Y-47.7
X82.925Y-70.3
X83.175Y-59.8
X83.425Y-53.925
X83.675Y-49.3
X84.05Y-47.55
X84.05Y-55.675
X84.675Y-43.175
X84.675Y-59.55
X84.85Y-41.225
X84.85Y-41.225
X85.175Y-42.675
X85.3Y-62.55
X85.5Y-69.54
X85.5Y-69.54
X85.675Y-18.3
X85.925Y-1.925
X85.925Y-8.925
X85.925Y-59.55
X86.05Y-37.05
X86.05Y-44.55
X86.175Y-24.925
X86.55Y-10.425
X86.55Y-30.675
X86.8Y-26.3
X86.925Y-60.05
X87.05Y-41.675
X87.175Y-42.425
X88.05Y-32.05
X88.05Y-35.675
X88.175Y-50.05
X88.175Y-72.05
X88.275Y-30.5
X88.275Y-30.5
X88.425Y-30.675
X88.425Y-42.05
X88.8Y-45.425
X88.8Y-47.425
X88.862Y-56.0
X88.862Y-56.0
X88.925Y-56.05
X88.925Y-71.55
X89.175Y-26.425
X89.175Y-72.175
X89.3Y-33.595
X89.3Y-33.595
X90.15Y-14.0
X90.15Y-14.0
X90.8Y-21.05
X91.175Y-55.05
X91.38Y-18.305
X91.38Y-18.305
X91.55Y-55.8
X91.55Y-63.925
X91.675Y-66.175
X91.675Y-67.05
X91.775Y-30.5
X91.775Y-30.5
X91.925Y-1.925
X91.925Y-11.925
X91.925Y-31.925
X91.95Y-24.0
X91.95Y-24.0
X92.0Y-35.5
X92.0Y-35.5
X92.0Y-35.5
X92.0Y-35.5
X92.05Y-49.55
X92.8Y-62.05
X92.8Y-63.3
X92.8Y-69.675
X92.8Y-70.925
X92.8Y-74.675
X92.925Y-1.925
X92.925Y-8.925
X92.925Y-15.925
X92.925Y-49.55
X92.925Y-54.425
X92.955Y-48.75
X92.955Y-48.75
X92.955Y-48.75
X92.955Y-48.75
X93.425Y-73.3
X93.55Y-22.55
X93.662Y-55.957
X93.662Y-55.957
X93.662Y-55.957
X93.662Y-55.957
X94.05Y-36.175
X94.05Y-65.3
X94.05Y-71.425
X94.447Y-75.563
X94.447Y-75.563
X94.675Y-24.3
X94.675Y-30.3
X94.675Y-37.425
X95.425Y-22.55
X96.175Y-41.175
X96.675Y-36.3
X97.8Y-31.8
T2
X84.1Y-68.84
X84.1Y-70.24
X84.8Y-68.14
X84.8Y-69.54
X84.8Y-70.94
X85.5Y-68.84
X85.5Y-70.24
X86.2Y-68.14
X86.2Y-69.54
X86.2Y-70.94
X86.9Y-68.84
X86.9Y-70.24
T3
X30.75Y-27.8
X30.75Y-29.1
X30.75Y-30.4
X30.75Y-31.7
X30.75Y-33.0
X30.75Y-34.3
X30.75Y-35.6
X30.75Y-36.9
X30.75Y-38.2
X32.25Y-27.8
X32.25Y-29.1
X32.25Y-30.4
X32.25Y-31.7
X32.25Y-33.0
X32.25Y-34.3
X32.25Y-35.6
X32.25Y-36.9
X32.25Y-38.2
X33.75Y-27.8
X33.75Y-29.1
X33.75Y-30.4
X33.75Y-31.7
X33.75Y-33.0
X33.75Y-34.3
X33.75Y-35.6
X33.75Y-36.9
X33.75Y-38.2
X35.25Y-27.8
X35.25Y-29.1
X35.25Y-30.4
X35.25Y-31.7
X35.25Y-33.0
X35.25Y-34.3
X35.25Y-35.6
X35.25Y-36.9
X35.25Y-38.2
X43.75Y-27.8
X43.75Y-29.1
X43.75Y-30.4
X43.75Y-31.7
X43.75Y-33.0
X43.75Y-34.3
X43.75Y-35.6
X43.75Y-36.9
X43.75Y-38.2
X45.25Y-27.8
X45.25Y-29.1
X45.25Y-30.4
X45.25Y-31.7
X45.25Y-33.0
X45.25Y-34.3
X45.25Y-35.6
X45.25Y-36.9
X45.25Y-38.2
X46.75Y-27.8
X46.75Y-29.1
X46.75Y-30.4
X46.75Y-31.7
X46.75Y-33.0
X46.75Y-34.3
X46.75Y-35.6
X46.75Y-36.9
X46.75Y-38.2
X48.25Y-27.8
X48.25Y-29.1
X48.25Y-30.4
X48.25Y-31.7
X48.25Y-33.0
X48.25Y-34.3
X48.25Y-35.6
X48.25Y-36.9
X48.25Y-38.2
X91.35Y-33.55
X91.35Y-34.85
X91.35Y-36.15
X91.35Y-37.45
X92.65Y-33.55
X92.65Y-34.85
X92.65Y-36.15
X92.65Y-37.45
T5
X40.0Y-70.0
X42.0Y-70.0
X44.0Y-70.0
X46.0Y-70.0
X48.0Y-70.0
X50.0Y-70.0
X52.0Y-70.0
X54.0Y-70.0
T6
X70.0Y-6.0
X72.5Y-6.0
X75.0Y-6.0
X77.5Y-6.0
X80.0Y-6.0
X86.5Y-6.0
X89.0Y-6.0
X91.5Y-6.0
X94.0Y-6.0
X96.5Y-6.0
T7
X14.0Y-76.5
X16.54Y-76.5
X19.08Y-76.5
X21.62Y-76.5
X24.16Y-76.5
X26.7Y-76.5
X29.24Y-76.5
X30.0Y-62.0
X30.0Y-64.54
X30.0Y-67.08
X30.0Y-69.62
X30.0Y-72.16
X31.78Y-76.5
X32.54Y-62.0
X32.54Y-64.54
X32.54Y-67.08
X32.54Y-69.62
X32.54Y-72.16
X34.32Y-76.5
X36.86Y-76.5
X60.0Y-48.0
X60.0Y-50.54
X60.0Y-53.08
X97.0Y-14.0
X97.0Y-16.54
X97.0Y-19.08
T8
X8.0Y-4.0
X13.08Y-4.0
X22.0Y-4.0
X27.08Y-4.0
X36.0Y-4.0
X41.08Y-4.0
T9
X58.0Y-5.0
X63.0Y-5.0
T4
X93.32Y-47.68G85X94.42Y-47.68
G05
X93.32Y-56.32G85X94.42Y-56.32
G05
X97.75Y-47.68G85X98.35Y-47.68
G05
X97.75Y-56.32G85X98.35Y-56.32
G05
M30
