%TF.GenerationSoftware,KiCad,Pcbnew,7.0.11+dfsg-1build4*%
%TF.CreationDate,2026-07-05T19:21:10+00:00*%
%TF.ProjectId,main-board,6d61696e-2d62-46f6-9172-642e6b696361,rev?*%
%TF.SameCoordinates,Original*%
%TF.FileFunction,Drillmap*%
%TF.FilePolarity,Positive*%
%FSLAX45Y45*%
G04 Gerber Fmt 4.5, Leading zero omitted, Abs format (unit mm)*
G04 Created by KiCad (PCBNEW 7.0.11+dfsg-1build4) date 2026-07-05 19:21:10*
%MOMM*%
%LPD*%
G01*
G04 APERTURE LIST*
%ADD10C,0.150000*%
%ADD11C,0.200000*%
%ADD12C,0.100000*%
%ADD13C,0.170000*%
%ADD14C,0.320000*%
G04 APERTURE END LIST*
D10*
X10000000Y0D02*
X10000000Y-8000000D01*
X0Y0D02*
X10000000Y0D01*
X10000000Y-8000000D02*
X0Y-8000000D01*
X0Y-8000000D02*
X0Y0D01*
D11*
D12*
X9927500Y-4878500D02*
X9992500Y-4943500D01*
X9992500Y-4878500D02*
X9927500Y-4943500D01*
X9927500Y-5456500D02*
X9992500Y-5521500D01*
X9992500Y-5456500D02*
X9927500Y-5521500D01*
D13*
X535000Y-7200000D02*
G75*
G03*
X365000Y-7200000I-85000J0D01*
G01*
X365000Y-7200000D02*
G75*
G03*
X535000Y-7200000I85000J0D01*
G01*
X1235000Y-7200000D02*
G75*
G03*
X1065000Y-7200000I-85000J0D01*
G01*
X1065000Y-7200000D02*
G75*
G03*
X1235000Y-7200000I85000J0D01*
G01*
D14*
X400000Y-4140000D02*
X400000Y-4460000D01*
X240000Y-4300000D02*
X560000Y-4300000D01*
X400000Y-5640000D02*
X400000Y-5960000D01*
X240000Y-5800000D02*
X560000Y-5800000D01*
X5200000Y-340000D02*
X5200000Y-660000D01*
X5040000Y-500000D02*
X5360000Y-500000D01*
X9650000Y-2640000D02*
X9650000Y-2960000D01*
X9490000Y-2800000D02*
X9810000Y-2800000D01*
D11*
X253277Y-8318984D02*
X253277Y-8118984D01*
X253277Y-8118984D02*
X300896Y-8118984D01*
X300896Y-8118984D02*
X329467Y-8128508D01*
X329467Y-8128508D02*
X348515Y-8147555D01*
X348515Y-8147555D02*
X358039Y-8166603D01*
X358039Y-8166603D02*
X367562Y-8204698D01*
X367562Y-8204698D02*
X367562Y-8233269D01*
X367562Y-8233269D02*
X358039Y-8271365D01*
X358039Y-8271365D02*
X348515Y-8290412D01*
X348515Y-8290412D02*
X329467Y-8309460D01*
X329467Y-8309460D02*
X300896Y-8318984D01*
X300896Y-8318984D02*
X253277Y-8318984D01*
X453277Y-8318984D02*
X453277Y-8185650D01*
X453277Y-8223746D02*
X462801Y-8204698D01*
X462801Y-8204698D02*
X472324Y-8195174D01*
X472324Y-8195174D02*
X491372Y-8185650D01*
X491372Y-8185650D02*
X510420Y-8185650D01*
X577086Y-8318984D02*
X577086Y-8185650D01*
X577086Y-8118984D02*
X567563Y-8128508D01*
X567563Y-8128508D02*
X577086Y-8138031D01*
X577086Y-8138031D02*
X586610Y-8128508D01*
X586610Y-8128508D02*
X577086Y-8118984D01*
X577086Y-8118984D02*
X577086Y-8138031D01*
X700896Y-8318984D02*
X681848Y-8309460D01*
X681848Y-8309460D02*
X672324Y-8290412D01*
X672324Y-8290412D02*
X672324Y-8118984D01*
X805658Y-8318984D02*
X786610Y-8309460D01*
X786610Y-8309460D02*
X777086Y-8290412D01*
X777086Y-8290412D02*
X777086Y-8118984D01*
X1034229Y-8318984D02*
X1034229Y-8118984D01*
X1034229Y-8118984D02*
X1100896Y-8261841D01*
X1100896Y-8261841D02*
X1167563Y-8118984D01*
X1167563Y-8118984D02*
X1167563Y-8318984D01*
X1348515Y-8318984D02*
X1348515Y-8214222D01*
X1348515Y-8214222D02*
X1338991Y-8195174D01*
X1338991Y-8195174D02*
X1319944Y-8185650D01*
X1319944Y-8185650D02*
X1281848Y-8185650D01*
X1281848Y-8185650D02*
X1262801Y-8195174D01*
X1348515Y-8309460D02*
X1329467Y-8318984D01*
X1329467Y-8318984D02*
X1281848Y-8318984D01*
X1281848Y-8318984D02*
X1262801Y-8309460D01*
X1262801Y-8309460D02*
X1253277Y-8290412D01*
X1253277Y-8290412D02*
X1253277Y-8271365D01*
X1253277Y-8271365D02*
X1262801Y-8252317D01*
X1262801Y-8252317D02*
X1281848Y-8242793D01*
X1281848Y-8242793D02*
X1329467Y-8242793D01*
X1329467Y-8242793D02*
X1348515Y-8233269D01*
X1443753Y-8185650D02*
X1443753Y-8385650D01*
X1443753Y-8195174D02*
X1462801Y-8185650D01*
X1462801Y-8185650D02*
X1500896Y-8185650D01*
X1500896Y-8185650D02*
X1519943Y-8195174D01*
X1519943Y-8195174D02*
X1529467Y-8204698D01*
X1529467Y-8204698D02*
X1538991Y-8223746D01*
X1538991Y-8223746D02*
X1538991Y-8280888D01*
X1538991Y-8280888D02*
X1529467Y-8299936D01*
X1529467Y-8299936D02*
X1519943Y-8309460D01*
X1519943Y-8309460D02*
X1500896Y-8318984D01*
X1500896Y-8318984D02*
X1462801Y-8318984D01*
X1462801Y-8318984D02*
X1443753Y-8309460D01*
X1624705Y-8299936D02*
X1634229Y-8309460D01*
X1634229Y-8309460D02*
X1624705Y-8318984D01*
X1624705Y-8318984D02*
X1615182Y-8309460D01*
X1615182Y-8309460D02*
X1624705Y-8299936D01*
X1624705Y-8299936D02*
X1624705Y-8318984D01*
X1624705Y-8195174D02*
X1634229Y-8204698D01*
X1634229Y-8204698D02*
X1624705Y-8214222D01*
X1624705Y-8214222D02*
X1615182Y-8204698D01*
X1615182Y-8204698D02*
X1624705Y-8195174D01*
X1624705Y-8195174D02*
X1624705Y-8214222D01*
D12*
X-72500Y-8615000D02*
X-7500Y-8680000D01*
X-7500Y-8615000D02*
X-72500Y-8680000D01*
D11*
X291372Y-8538984D02*
X310420Y-8538984D01*
X310420Y-8538984D02*
X329467Y-8548508D01*
X329467Y-8548508D02*
X338991Y-8558031D01*
X338991Y-8558031D02*
X348515Y-8577079D01*
X348515Y-8577079D02*
X358039Y-8615174D01*
X358039Y-8615174D02*
X358039Y-8662793D01*
X358039Y-8662793D02*
X348515Y-8700889D01*
X348515Y-8700889D02*
X338991Y-8719936D01*
X338991Y-8719936D02*
X329467Y-8729460D01*
X329467Y-8729460D02*
X310420Y-8738984D01*
X310420Y-8738984D02*
X291372Y-8738984D01*
X291372Y-8738984D02*
X272324Y-8729460D01*
X272324Y-8729460D02*
X262801Y-8719936D01*
X262801Y-8719936D02*
X253277Y-8700889D01*
X253277Y-8700889D02*
X243753Y-8662793D01*
X243753Y-8662793D02*
X243753Y-8615174D01*
X243753Y-8615174D02*
X253277Y-8577079D01*
X253277Y-8577079D02*
X262801Y-8558031D01*
X262801Y-8558031D02*
X272324Y-8548508D01*
X272324Y-8548508D02*
X291372Y-8538984D01*
X443753Y-8719936D02*
X453277Y-8729460D01*
X453277Y-8729460D02*
X443753Y-8738984D01*
X443753Y-8738984D02*
X434229Y-8729460D01*
X434229Y-8729460D02*
X443753Y-8719936D01*
X443753Y-8719936D02*
X443753Y-8738984D01*
X624705Y-8538984D02*
X586610Y-8538984D01*
X586610Y-8538984D02*
X567563Y-8548508D01*
X567563Y-8548508D02*
X558039Y-8558031D01*
X558039Y-8558031D02*
X538991Y-8586603D01*
X538991Y-8586603D02*
X529467Y-8624698D01*
X529467Y-8624698D02*
X529467Y-8700889D01*
X529467Y-8700889D02*
X538991Y-8719936D01*
X538991Y-8719936D02*
X548515Y-8729460D01*
X548515Y-8729460D02*
X567563Y-8738984D01*
X567563Y-8738984D02*
X605658Y-8738984D01*
X605658Y-8738984D02*
X624705Y-8729460D01*
X624705Y-8729460D02*
X634229Y-8719936D01*
X634229Y-8719936D02*
X643753Y-8700889D01*
X643753Y-8700889D02*
X643753Y-8653270D01*
X643753Y-8653270D02*
X634229Y-8634222D01*
X634229Y-8634222D02*
X624705Y-8624698D01*
X624705Y-8624698D02*
X605658Y-8615174D01*
X605658Y-8615174D02*
X567563Y-8615174D01*
X567563Y-8615174D02*
X548515Y-8624698D01*
X548515Y-8624698D02*
X538991Y-8634222D01*
X538991Y-8634222D02*
X529467Y-8653270D01*
X824705Y-8538984D02*
X729467Y-8538984D01*
X729467Y-8538984D02*
X719943Y-8634222D01*
X719943Y-8634222D02*
X729467Y-8624698D01*
X729467Y-8624698D02*
X748515Y-8615174D01*
X748515Y-8615174D02*
X796134Y-8615174D01*
X796134Y-8615174D02*
X815182Y-8624698D01*
X815182Y-8624698D02*
X824705Y-8634222D01*
X824705Y-8634222D02*
X834229Y-8653270D01*
X834229Y-8653270D02*
X834229Y-8700889D01*
X834229Y-8700889D02*
X824705Y-8719936D01*
X824705Y-8719936D02*
X815182Y-8729460D01*
X815182Y-8729460D02*
X796134Y-8738984D01*
X796134Y-8738984D02*
X748515Y-8738984D01*
X748515Y-8738984D02*
X729467Y-8729460D01*
X729467Y-8729460D02*
X719943Y-8719936D01*
X958039Y-8538984D02*
X977086Y-8538984D01*
X977086Y-8538984D02*
X996134Y-8548508D01*
X996134Y-8548508D02*
X1005658Y-8558031D01*
X1005658Y-8558031D02*
X1015182Y-8577079D01*
X1015182Y-8577079D02*
X1024705Y-8615174D01*
X1024705Y-8615174D02*
X1024705Y-8662793D01*
X1024705Y-8662793D02*
X1015182Y-8700889D01*
X1015182Y-8700889D02*
X1005658Y-8719936D01*
X1005658Y-8719936D02*
X996134Y-8729460D01*
X996134Y-8729460D02*
X977086Y-8738984D01*
X977086Y-8738984D02*
X958039Y-8738984D01*
X958039Y-8738984D02*
X938991Y-8729460D01*
X938991Y-8729460D02*
X929467Y-8719936D01*
X929467Y-8719936D02*
X919943Y-8700889D01*
X919943Y-8700889D02*
X910420Y-8662793D01*
X910420Y-8662793D02*
X910420Y-8615174D01*
X910420Y-8615174D02*
X919943Y-8577079D01*
X919943Y-8577079D02*
X929467Y-8558031D01*
X929467Y-8558031D02*
X938991Y-8548508D01*
X938991Y-8548508D02*
X958039Y-8538984D01*
X1110420Y-8738984D02*
X1110420Y-8605650D01*
X1110420Y-8624698D02*
X1119944Y-8615174D01*
X1119944Y-8615174D02*
X1138991Y-8605650D01*
X1138991Y-8605650D02*
X1167563Y-8605650D01*
X1167563Y-8605650D02*
X1186610Y-8615174D01*
X1186610Y-8615174D02*
X1196134Y-8634222D01*
X1196134Y-8634222D02*
X1196134Y-8738984D01*
X1196134Y-8634222D02*
X1205658Y-8615174D01*
X1205658Y-8615174D02*
X1224705Y-8605650D01*
X1224705Y-8605650D02*
X1253277Y-8605650D01*
X1253277Y-8605650D02*
X1272325Y-8615174D01*
X1272325Y-8615174D02*
X1281848Y-8634222D01*
X1281848Y-8634222D02*
X1281848Y-8738984D01*
X1377086Y-8738984D02*
X1377086Y-8605650D01*
X1377086Y-8624698D02*
X1386610Y-8615174D01*
X1386610Y-8615174D02*
X1405658Y-8605650D01*
X1405658Y-8605650D02*
X1434229Y-8605650D01*
X1434229Y-8605650D02*
X1453277Y-8615174D01*
X1453277Y-8615174D02*
X1462801Y-8634222D01*
X1462801Y-8634222D02*
X1462801Y-8738984D01*
X1462801Y-8634222D02*
X1472324Y-8615174D01*
X1472324Y-8615174D02*
X1491372Y-8605650D01*
X1491372Y-8605650D02*
X1519943Y-8605650D01*
X1519943Y-8605650D02*
X1538991Y-8615174D01*
X1538991Y-8615174D02*
X1548515Y-8634222D01*
X1548515Y-8634222D02*
X1548515Y-8738984D01*
X1938991Y-8529460D02*
X1767563Y-8786603D01*
X2196134Y-8538984D02*
X2215182Y-8538984D01*
X2215182Y-8538984D02*
X2234229Y-8548508D01*
X2234229Y-8548508D02*
X2243753Y-8558031D01*
X2243753Y-8558031D02*
X2253277Y-8577079D01*
X2253277Y-8577079D02*
X2262801Y-8615174D01*
X2262801Y-8615174D02*
X2262801Y-8662793D01*
X2262801Y-8662793D02*
X2253277Y-8700889D01*
X2253277Y-8700889D02*
X2243753Y-8719936D01*
X2243753Y-8719936D02*
X2234229Y-8729460D01*
X2234229Y-8729460D02*
X2215182Y-8738984D01*
X2215182Y-8738984D02*
X2196134Y-8738984D01*
X2196134Y-8738984D02*
X2177087Y-8729460D01*
X2177087Y-8729460D02*
X2167563Y-8719936D01*
X2167563Y-8719936D02*
X2158039Y-8700889D01*
X2158039Y-8700889D02*
X2148515Y-8662793D01*
X2148515Y-8662793D02*
X2148515Y-8615174D01*
X2148515Y-8615174D02*
X2158039Y-8577079D01*
X2158039Y-8577079D02*
X2167563Y-8558031D01*
X2167563Y-8558031D02*
X2177087Y-8548508D01*
X2177087Y-8548508D02*
X2196134Y-8538984D01*
X2348515Y-8719936D02*
X2358039Y-8729460D01*
X2358039Y-8729460D02*
X2348515Y-8738984D01*
X2348515Y-8738984D02*
X2338991Y-8729460D01*
X2338991Y-8729460D02*
X2348515Y-8719936D01*
X2348515Y-8719936D02*
X2348515Y-8738984D01*
X2481848Y-8538984D02*
X2500896Y-8538984D01*
X2500896Y-8538984D02*
X2519944Y-8548508D01*
X2519944Y-8548508D02*
X2529468Y-8558031D01*
X2529468Y-8558031D02*
X2538991Y-8577079D01*
X2538991Y-8577079D02*
X2548515Y-8615174D01*
X2548515Y-8615174D02*
X2548515Y-8662793D01*
X2548515Y-8662793D02*
X2538991Y-8700889D01*
X2538991Y-8700889D02*
X2529468Y-8719936D01*
X2529468Y-8719936D02*
X2519944Y-8729460D01*
X2519944Y-8729460D02*
X2500896Y-8738984D01*
X2500896Y-8738984D02*
X2481848Y-8738984D01*
X2481848Y-8738984D02*
X2462801Y-8729460D01*
X2462801Y-8729460D02*
X2453277Y-8719936D01*
X2453277Y-8719936D02*
X2443753Y-8700889D01*
X2443753Y-8700889D02*
X2434229Y-8662793D01*
X2434229Y-8662793D02*
X2434229Y-8615174D01*
X2434229Y-8615174D02*
X2443753Y-8577079D01*
X2443753Y-8577079D02*
X2453277Y-8558031D01*
X2453277Y-8558031D02*
X2462801Y-8548508D01*
X2462801Y-8548508D02*
X2481848Y-8538984D01*
X2624706Y-8558031D02*
X2634229Y-8548508D01*
X2634229Y-8548508D02*
X2653277Y-8538984D01*
X2653277Y-8538984D02*
X2700896Y-8538984D01*
X2700896Y-8538984D02*
X2719944Y-8548508D01*
X2719944Y-8548508D02*
X2729468Y-8558031D01*
X2729468Y-8558031D02*
X2738991Y-8577079D01*
X2738991Y-8577079D02*
X2738991Y-8596127D01*
X2738991Y-8596127D02*
X2729468Y-8624698D01*
X2729468Y-8624698D02*
X2615182Y-8738984D01*
X2615182Y-8738984D02*
X2738991Y-8738984D01*
X2919944Y-8538984D02*
X2824706Y-8538984D01*
X2824706Y-8538984D02*
X2815182Y-8634222D01*
X2815182Y-8634222D02*
X2824706Y-8624698D01*
X2824706Y-8624698D02*
X2843753Y-8615174D01*
X2843753Y-8615174D02*
X2891372Y-8615174D01*
X2891372Y-8615174D02*
X2910420Y-8624698D01*
X2910420Y-8624698D02*
X2919944Y-8634222D01*
X2919944Y-8634222D02*
X2929467Y-8653270D01*
X2929467Y-8653270D02*
X2929467Y-8700889D01*
X2929467Y-8700889D02*
X2919944Y-8719936D01*
X2919944Y-8719936D02*
X2910420Y-8729460D01*
X2910420Y-8729460D02*
X2891372Y-8738984D01*
X2891372Y-8738984D02*
X2843753Y-8738984D01*
X2843753Y-8738984D02*
X2824706Y-8729460D01*
X2824706Y-8729460D02*
X2815182Y-8719936D01*
X3100896Y-8538984D02*
X3062801Y-8538984D01*
X3062801Y-8538984D02*
X3043753Y-8548508D01*
X3043753Y-8548508D02*
X3034229Y-8558031D01*
X3034229Y-8558031D02*
X3015182Y-8586603D01*
X3015182Y-8586603D02*
X3005658Y-8624698D01*
X3005658Y-8624698D02*
X3005658Y-8700889D01*
X3005658Y-8700889D02*
X3015182Y-8719936D01*
X3015182Y-8719936D02*
X3024706Y-8729460D01*
X3024706Y-8729460D02*
X3043753Y-8738984D01*
X3043753Y-8738984D02*
X3081848Y-8738984D01*
X3081848Y-8738984D02*
X3100896Y-8729460D01*
X3100896Y-8729460D02*
X3110420Y-8719936D01*
X3110420Y-8719936D02*
X3119944Y-8700889D01*
X3119944Y-8700889D02*
X3119944Y-8653270D01*
X3119944Y-8653270D02*
X3110420Y-8634222D01*
X3110420Y-8634222D02*
X3100896Y-8624698D01*
X3100896Y-8624698D02*
X3081848Y-8615174D01*
X3081848Y-8615174D02*
X3043753Y-8615174D01*
X3043753Y-8615174D02*
X3024706Y-8624698D01*
X3024706Y-8624698D02*
X3015182Y-8634222D01*
X3015182Y-8634222D02*
X3005658Y-8653270D01*
X3196134Y-8538984D02*
X3196134Y-8577079D01*
X3272325Y-8538984D02*
X3272325Y-8577079D01*
X3567563Y-8815174D02*
X3558039Y-8805650D01*
X3558039Y-8805650D02*
X3538991Y-8777079D01*
X3538991Y-8777079D02*
X3529468Y-8758031D01*
X3529468Y-8758031D02*
X3519944Y-8729460D01*
X3519944Y-8729460D02*
X3510420Y-8681841D01*
X3510420Y-8681841D02*
X3510420Y-8643746D01*
X3510420Y-8643746D02*
X3519944Y-8596127D01*
X3519944Y-8596127D02*
X3529468Y-8567555D01*
X3529468Y-8567555D02*
X3538991Y-8548508D01*
X3538991Y-8548508D02*
X3558039Y-8519936D01*
X3558039Y-8519936D02*
X3567563Y-8510412D01*
X3634229Y-8558031D02*
X3643753Y-8548508D01*
X3643753Y-8548508D02*
X3662801Y-8538984D01*
X3662801Y-8538984D02*
X3710420Y-8538984D01*
X3710420Y-8538984D02*
X3729468Y-8548508D01*
X3729468Y-8548508D02*
X3738991Y-8558031D01*
X3738991Y-8558031D02*
X3748515Y-8577079D01*
X3748515Y-8577079D02*
X3748515Y-8596127D01*
X3748515Y-8596127D02*
X3738991Y-8624698D01*
X3738991Y-8624698D02*
X3624706Y-8738984D01*
X3624706Y-8738984D02*
X3748515Y-8738984D01*
X3986610Y-8738984D02*
X3986610Y-8538984D01*
X4072325Y-8738984D02*
X4072325Y-8634222D01*
X4072325Y-8634222D02*
X4062801Y-8615174D01*
X4062801Y-8615174D02*
X4043753Y-8605650D01*
X4043753Y-8605650D02*
X4015182Y-8605650D01*
X4015182Y-8605650D02*
X3996134Y-8615174D01*
X3996134Y-8615174D02*
X3986610Y-8624698D01*
X4196134Y-8738984D02*
X4177087Y-8729460D01*
X4177087Y-8729460D02*
X4167563Y-8719936D01*
X4167563Y-8719936D02*
X4158039Y-8700889D01*
X4158039Y-8700889D02*
X4158039Y-8643746D01*
X4158039Y-8643746D02*
X4167563Y-8624698D01*
X4167563Y-8624698D02*
X4177087Y-8615174D01*
X4177087Y-8615174D02*
X4196134Y-8605650D01*
X4196134Y-8605650D02*
X4224706Y-8605650D01*
X4224706Y-8605650D02*
X4243753Y-8615174D01*
X4243753Y-8615174D02*
X4253277Y-8624698D01*
X4253277Y-8624698D02*
X4262801Y-8643746D01*
X4262801Y-8643746D02*
X4262801Y-8700889D01*
X4262801Y-8700889D02*
X4253277Y-8719936D01*
X4253277Y-8719936D02*
X4243753Y-8729460D01*
X4243753Y-8729460D02*
X4224706Y-8738984D01*
X4224706Y-8738984D02*
X4196134Y-8738984D01*
X4377087Y-8738984D02*
X4358039Y-8729460D01*
X4358039Y-8729460D02*
X4348515Y-8710412D01*
X4348515Y-8710412D02*
X4348515Y-8538984D01*
X4529468Y-8729460D02*
X4510420Y-8738984D01*
X4510420Y-8738984D02*
X4472325Y-8738984D01*
X4472325Y-8738984D02*
X4453277Y-8729460D01*
X4453277Y-8729460D02*
X4443753Y-8710412D01*
X4443753Y-8710412D02*
X4443753Y-8634222D01*
X4443753Y-8634222D02*
X4453277Y-8615174D01*
X4453277Y-8615174D02*
X4472325Y-8605650D01*
X4472325Y-8605650D02*
X4510420Y-8605650D01*
X4510420Y-8605650D02*
X4529468Y-8615174D01*
X4529468Y-8615174D02*
X4538992Y-8634222D01*
X4538992Y-8634222D02*
X4538992Y-8653270D01*
X4538992Y-8653270D02*
X4443753Y-8672317D01*
X4615182Y-8729460D02*
X4634230Y-8738984D01*
X4634230Y-8738984D02*
X4672325Y-8738984D01*
X4672325Y-8738984D02*
X4691373Y-8729460D01*
X4691373Y-8729460D02*
X4700896Y-8710412D01*
X4700896Y-8710412D02*
X4700896Y-8700889D01*
X4700896Y-8700889D02*
X4691373Y-8681841D01*
X4691373Y-8681841D02*
X4672325Y-8672317D01*
X4672325Y-8672317D02*
X4643753Y-8672317D01*
X4643753Y-8672317D02*
X4624706Y-8662793D01*
X4624706Y-8662793D02*
X4615182Y-8643746D01*
X4615182Y-8643746D02*
X4615182Y-8634222D01*
X4615182Y-8634222D02*
X4624706Y-8615174D01*
X4624706Y-8615174D02*
X4643753Y-8605650D01*
X4643753Y-8605650D02*
X4672325Y-8605650D01*
X4672325Y-8605650D02*
X4691373Y-8615174D01*
X4767563Y-8815174D02*
X4777087Y-8805650D01*
X4777087Y-8805650D02*
X4796134Y-8777079D01*
X4796134Y-8777079D02*
X4805658Y-8758031D01*
X4805658Y-8758031D02*
X4815182Y-8729460D01*
X4815182Y-8729460D02*
X4824706Y-8681841D01*
X4824706Y-8681841D02*
X4824706Y-8643746D01*
X4824706Y-8643746D02*
X4815182Y-8596127D01*
X4815182Y-8596127D02*
X4805658Y-8567555D01*
X4805658Y-8567555D02*
X4796134Y-8548508D01*
X4796134Y-8548508D02*
X4777087Y-8519936D01*
X4777087Y-8519936D02*
X4767563Y-8510412D01*
X5129468Y-8815174D02*
X5119944Y-8805650D01*
X5119944Y-8805650D02*
X5100896Y-8777079D01*
X5100896Y-8777079D02*
X5091373Y-8758031D01*
X5091373Y-8758031D02*
X5081849Y-8729460D01*
X5081849Y-8729460D02*
X5072325Y-8681841D01*
X5072325Y-8681841D02*
X5072325Y-8643746D01*
X5072325Y-8643746D02*
X5081849Y-8596127D01*
X5081849Y-8596127D02*
X5091373Y-8567555D01*
X5091373Y-8567555D02*
X5100896Y-8548508D01*
X5100896Y-8548508D02*
X5119944Y-8519936D01*
X5119944Y-8519936D02*
X5129468Y-8510412D01*
X5205658Y-8605650D02*
X5205658Y-8738984D01*
X5205658Y-8624698D02*
X5215182Y-8615174D01*
X5215182Y-8615174D02*
X5234230Y-8605650D01*
X5234230Y-8605650D02*
X5262801Y-8605650D01*
X5262801Y-8605650D02*
X5281849Y-8615174D01*
X5281849Y-8615174D02*
X5291373Y-8634222D01*
X5291373Y-8634222D02*
X5291373Y-8738984D01*
X5415182Y-8738984D02*
X5396134Y-8729460D01*
X5396134Y-8729460D02*
X5386611Y-8719936D01*
X5386611Y-8719936D02*
X5377087Y-8700889D01*
X5377087Y-8700889D02*
X5377087Y-8643746D01*
X5377087Y-8643746D02*
X5386611Y-8624698D01*
X5386611Y-8624698D02*
X5396134Y-8615174D01*
X5396134Y-8615174D02*
X5415182Y-8605650D01*
X5415182Y-8605650D02*
X5443754Y-8605650D01*
X5443754Y-8605650D02*
X5462801Y-8615174D01*
X5462801Y-8615174D02*
X5472325Y-8624698D01*
X5472325Y-8624698D02*
X5481849Y-8643746D01*
X5481849Y-8643746D02*
X5481849Y-8700889D01*
X5481849Y-8700889D02*
X5472325Y-8719936D01*
X5472325Y-8719936D02*
X5462801Y-8729460D01*
X5462801Y-8729460D02*
X5443754Y-8738984D01*
X5443754Y-8738984D02*
X5415182Y-8738984D01*
X5538992Y-8605650D02*
X5615182Y-8605650D01*
X5567563Y-8538984D02*
X5567563Y-8710412D01*
X5567563Y-8710412D02*
X5577087Y-8729460D01*
X5577087Y-8729460D02*
X5596134Y-8738984D01*
X5596134Y-8738984D02*
X5615182Y-8738984D01*
X5834230Y-8605650D02*
X5834230Y-8805650D01*
X5834230Y-8615174D02*
X5853277Y-8605650D01*
X5853277Y-8605650D02*
X5891373Y-8605650D01*
X5891373Y-8605650D02*
X5910420Y-8615174D01*
X5910420Y-8615174D02*
X5919944Y-8624698D01*
X5919944Y-8624698D02*
X5929468Y-8643746D01*
X5929468Y-8643746D02*
X5929468Y-8700889D01*
X5929468Y-8700889D02*
X5919944Y-8719936D01*
X5919944Y-8719936D02*
X5910420Y-8729460D01*
X5910420Y-8729460D02*
X5891373Y-8738984D01*
X5891373Y-8738984D02*
X5853277Y-8738984D01*
X5853277Y-8738984D02*
X5834230Y-8729460D01*
X6043753Y-8738984D02*
X6024706Y-8729460D01*
X6024706Y-8729460D02*
X6015182Y-8710412D01*
X6015182Y-8710412D02*
X6015182Y-8538984D01*
X6205658Y-8738984D02*
X6205658Y-8634222D01*
X6205658Y-8634222D02*
X6196134Y-8615174D01*
X6196134Y-8615174D02*
X6177087Y-8605650D01*
X6177087Y-8605650D02*
X6138992Y-8605650D01*
X6138992Y-8605650D02*
X6119944Y-8615174D01*
X6205658Y-8729460D02*
X6186611Y-8738984D01*
X6186611Y-8738984D02*
X6138992Y-8738984D01*
X6138992Y-8738984D02*
X6119944Y-8729460D01*
X6119944Y-8729460D02*
X6110420Y-8710412D01*
X6110420Y-8710412D02*
X6110420Y-8691365D01*
X6110420Y-8691365D02*
X6119944Y-8672317D01*
X6119944Y-8672317D02*
X6138992Y-8662793D01*
X6138992Y-8662793D02*
X6186611Y-8662793D01*
X6186611Y-8662793D02*
X6205658Y-8653270D01*
X6272325Y-8605650D02*
X6348515Y-8605650D01*
X6300896Y-8538984D02*
X6300896Y-8710412D01*
X6300896Y-8710412D02*
X6310420Y-8729460D01*
X6310420Y-8729460D02*
X6329468Y-8738984D01*
X6329468Y-8738984D02*
X6348515Y-8738984D01*
X6491373Y-8729460D02*
X6472325Y-8738984D01*
X6472325Y-8738984D02*
X6434230Y-8738984D01*
X6434230Y-8738984D02*
X6415182Y-8729460D01*
X6415182Y-8729460D02*
X6405658Y-8710412D01*
X6405658Y-8710412D02*
X6405658Y-8634222D01*
X6405658Y-8634222D02*
X6415182Y-8615174D01*
X6415182Y-8615174D02*
X6434230Y-8605650D01*
X6434230Y-8605650D02*
X6472325Y-8605650D01*
X6472325Y-8605650D02*
X6491373Y-8615174D01*
X6491373Y-8615174D02*
X6500896Y-8634222D01*
X6500896Y-8634222D02*
X6500896Y-8653270D01*
X6500896Y-8653270D02*
X6405658Y-8672317D01*
X6672325Y-8738984D02*
X6672325Y-8538984D01*
X6672325Y-8729460D02*
X6653277Y-8738984D01*
X6653277Y-8738984D02*
X6615182Y-8738984D01*
X6615182Y-8738984D02*
X6596134Y-8729460D01*
X6596134Y-8729460D02*
X6586611Y-8719936D01*
X6586611Y-8719936D02*
X6577087Y-8700889D01*
X6577087Y-8700889D02*
X6577087Y-8643746D01*
X6577087Y-8643746D02*
X6586611Y-8624698D01*
X6586611Y-8624698D02*
X6596134Y-8615174D01*
X6596134Y-8615174D02*
X6615182Y-8605650D01*
X6615182Y-8605650D02*
X6653277Y-8605650D01*
X6653277Y-8605650D02*
X6672325Y-8615174D01*
X6748515Y-8815174D02*
X6758039Y-8805650D01*
X6758039Y-8805650D02*
X6777087Y-8777079D01*
X6777087Y-8777079D02*
X6786611Y-8758031D01*
X6786611Y-8758031D02*
X6796134Y-8729460D01*
X6796134Y-8729460D02*
X6805658Y-8681841D01*
X6805658Y-8681841D02*
X6805658Y-8643746D01*
X6805658Y-8643746D02*
X6796134Y-8596127D01*
X6796134Y-8596127D02*
X6786611Y-8567555D01*
X6786611Y-8567555D02*
X6777087Y-8548508D01*
X6777087Y-8548508D02*
X6758039Y-8519936D01*
X6758039Y-8519936D02*
X6748515Y-8510412D01*
D13*
X-7500Y-8911500D02*
G75*
G03*
X-177500Y-8911500I-85000J0D01*
G01*
X-177500Y-8911500D02*
G75*
G03*
X-7500Y-8911500I85000J0D01*
G01*
D11*
X358039Y-9002984D02*
X243753Y-9002984D01*
X300896Y-9002984D02*
X300896Y-8802984D01*
X300896Y-8802984D02*
X281848Y-8831555D01*
X281848Y-8831555D02*
X262801Y-8850603D01*
X262801Y-8850603D02*
X243753Y-8860127D01*
X443753Y-8983936D02*
X453277Y-8993460D01*
X453277Y-8993460D02*
X443753Y-9002984D01*
X443753Y-9002984D02*
X434229Y-8993460D01*
X434229Y-8993460D02*
X443753Y-8983936D01*
X443753Y-8983936D02*
X443753Y-9002984D01*
X519943Y-8802984D02*
X653277Y-8802984D01*
X653277Y-8802984D02*
X567563Y-9002984D01*
X767562Y-8802984D02*
X786610Y-8802984D01*
X786610Y-8802984D02*
X805658Y-8812508D01*
X805658Y-8812508D02*
X815182Y-8822031D01*
X815182Y-8822031D02*
X824705Y-8841079D01*
X824705Y-8841079D02*
X834229Y-8879174D01*
X834229Y-8879174D02*
X834229Y-8926793D01*
X834229Y-8926793D02*
X824705Y-8964889D01*
X824705Y-8964889D02*
X815182Y-8983936D01*
X815182Y-8983936D02*
X805658Y-8993460D01*
X805658Y-8993460D02*
X786610Y-9002984D01*
X786610Y-9002984D02*
X767562Y-9002984D01*
X767562Y-9002984D02*
X748515Y-8993460D01*
X748515Y-8993460D02*
X738991Y-8983936D01*
X738991Y-8983936D02*
X729467Y-8964889D01*
X729467Y-8964889D02*
X719943Y-8926793D01*
X719943Y-8926793D02*
X719943Y-8879174D01*
X719943Y-8879174D02*
X729467Y-8841079D01*
X729467Y-8841079D02*
X738991Y-8822031D01*
X738991Y-8822031D02*
X748515Y-8812508D01*
X748515Y-8812508D02*
X767562Y-8802984D01*
X958039Y-8802984D02*
X977086Y-8802984D01*
X977086Y-8802984D02*
X996134Y-8812508D01*
X996134Y-8812508D02*
X1005658Y-8822031D01*
X1005658Y-8822031D02*
X1015182Y-8841079D01*
X1015182Y-8841079D02*
X1024705Y-8879174D01*
X1024705Y-8879174D02*
X1024705Y-8926793D01*
X1024705Y-8926793D02*
X1015182Y-8964889D01*
X1015182Y-8964889D02*
X1005658Y-8983936D01*
X1005658Y-8983936D02*
X996134Y-8993460D01*
X996134Y-8993460D02*
X977086Y-9002984D01*
X977086Y-9002984D02*
X958039Y-9002984D01*
X958039Y-9002984D02*
X938991Y-8993460D01*
X938991Y-8993460D02*
X929467Y-8983936D01*
X929467Y-8983936D02*
X919943Y-8964889D01*
X919943Y-8964889D02*
X910420Y-8926793D01*
X910420Y-8926793D02*
X910420Y-8879174D01*
X910420Y-8879174D02*
X919943Y-8841079D01*
X919943Y-8841079D02*
X929467Y-8822031D01*
X929467Y-8822031D02*
X938991Y-8812508D01*
X938991Y-8812508D02*
X958039Y-8802984D01*
X1110420Y-9002984D02*
X1110420Y-8869650D01*
X1110420Y-8888698D02*
X1119944Y-8879174D01*
X1119944Y-8879174D02*
X1138991Y-8869650D01*
X1138991Y-8869650D02*
X1167563Y-8869650D01*
X1167563Y-8869650D02*
X1186610Y-8879174D01*
X1186610Y-8879174D02*
X1196134Y-8898222D01*
X1196134Y-8898222D02*
X1196134Y-9002984D01*
X1196134Y-8898222D02*
X1205658Y-8879174D01*
X1205658Y-8879174D02*
X1224705Y-8869650D01*
X1224705Y-8869650D02*
X1253277Y-8869650D01*
X1253277Y-8869650D02*
X1272325Y-8879174D01*
X1272325Y-8879174D02*
X1281848Y-8898222D01*
X1281848Y-8898222D02*
X1281848Y-9002984D01*
X1377086Y-9002984D02*
X1377086Y-8869650D01*
X1377086Y-8888698D02*
X1386610Y-8879174D01*
X1386610Y-8879174D02*
X1405658Y-8869650D01*
X1405658Y-8869650D02*
X1434229Y-8869650D01*
X1434229Y-8869650D02*
X1453277Y-8879174D01*
X1453277Y-8879174D02*
X1462801Y-8898222D01*
X1462801Y-8898222D02*
X1462801Y-9002984D01*
X1462801Y-8898222D02*
X1472324Y-8879174D01*
X1472324Y-8879174D02*
X1491372Y-8869650D01*
X1491372Y-8869650D02*
X1519943Y-8869650D01*
X1519943Y-8869650D02*
X1538991Y-8879174D01*
X1538991Y-8879174D02*
X1548515Y-8898222D01*
X1548515Y-8898222D02*
X1548515Y-9002984D01*
X1938991Y-8793460D02*
X1767563Y-9050603D01*
X2196134Y-8802984D02*
X2215182Y-8802984D01*
X2215182Y-8802984D02*
X2234229Y-8812508D01*
X2234229Y-8812508D02*
X2243753Y-8822031D01*
X2243753Y-8822031D02*
X2253277Y-8841079D01*
X2253277Y-8841079D02*
X2262801Y-8879174D01*
X2262801Y-8879174D02*
X2262801Y-8926793D01*
X2262801Y-8926793D02*
X2253277Y-8964889D01*
X2253277Y-8964889D02*
X2243753Y-8983936D01*
X2243753Y-8983936D02*
X2234229Y-8993460D01*
X2234229Y-8993460D02*
X2215182Y-9002984D01*
X2215182Y-9002984D02*
X2196134Y-9002984D01*
X2196134Y-9002984D02*
X2177087Y-8993460D01*
X2177087Y-8993460D02*
X2167563Y-8983936D01*
X2167563Y-8983936D02*
X2158039Y-8964889D01*
X2158039Y-8964889D02*
X2148515Y-8926793D01*
X2148515Y-8926793D02*
X2148515Y-8879174D01*
X2148515Y-8879174D02*
X2158039Y-8841079D01*
X2158039Y-8841079D02*
X2167563Y-8822031D01*
X2167563Y-8822031D02*
X2177087Y-8812508D01*
X2177087Y-8812508D02*
X2196134Y-8802984D01*
X2348515Y-8983936D02*
X2358039Y-8993460D01*
X2358039Y-8993460D02*
X2348515Y-9002984D01*
X2348515Y-9002984D02*
X2338991Y-8993460D01*
X2338991Y-8993460D02*
X2348515Y-8983936D01*
X2348515Y-8983936D02*
X2348515Y-9002984D01*
X2481848Y-8802984D02*
X2500896Y-8802984D01*
X2500896Y-8802984D02*
X2519944Y-8812508D01*
X2519944Y-8812508D02*
X2529468Y-8822031D01*
X2529468Y-8822031D02*
X2538991Y-8841079D01*
X2538991Y-8841079D02*
X2548515Y-8879174D01*
X2548515Y-8879174D02*
X2548515Y-8926793D01*
X2548515Y-8926793D02*
X2538991Y-8964889D01*
X2538991Y-8964889D02*
X2529468Y-8983936D01*
X2529468Y-8983936D02*
X2519944Y-8993460D01*
X2519944Y-8993460D02*
X2500896Y-9002984D01*
X2500896Y-9002984D02*
X2481848Y-9002984D01*
X2481848Y-9002984D02*
X2462801Y-8993460D01*
X2462801Y-8993460D02*
X2453277Y-8983936D01*
X2453277Y-8983936D02*
X2443753Y-8964889D01*
X2443753Y-8964889D02*
X2434229Y-8926793D01*
X2434229Y-8926793D02*
X2434229Y-8879174D01*
X2434229Y-8879174D02*
X2443753Y-8841079D01*
X2443753Y-8841079D02*
X2453277Y-8822031D01*
X2453277Y-8822031D02*
X2462801Y-8812508D01*
X2462801Y-8812508D02*
X2481848Y-8802984D01*
X2719944Y-8802984D02*
X2681848Y-8802984D01*
X2681848Y-8802984D02*
X2662801Y-8812508D01*
X2662801Y-8812508D02*
X2653277Y-8822031D01*
X2653277Y-8822031D02*
X2634229Y-8850603D01*
X2634229Y-8850603D02*
X2624706Y-8888698D01*
X2624706Y-8888698D02*
X2624706Y-8964889D01*
X2624706Y-8964889D02*
X2634229Y-8983936D01*
X2634229Y-8983936D02*
X2643753Y-8993460D01*
X2643753Y-8993460D02*
X2662801Y-9002984D01*
X2662801Y-9002984D02*
X2700896Y-9002984D01*
X2700896Y-9002984D02*
X2719944Y-8993460D01*
X2719944Y-8993460D02*
X2729468Y-8983936D01*
X2729468Y-8983936D02*
X2738991Y-8964889D01*
X2738991Y-8964889D02*
X2738991Y-8917270D01*
X2738991Y-8917270D02*
X2729468Y-8898222D01*
X2729468Y-8898222D02*
X2719944Y-8888698D01*
X2719944Y-8888698D02*
X2700896Y-8879174D01*
X2700896Y-8879174D02*
X2662801Y-8879174D01*
X2662801Y-8879174D02*
X2643753Y-8888698D01*
X2643753Y-8888698D02*
X2634229Y-8898222D01*
X2634229Y-8898222D02*
X2624706Y-8917270D01*
X2910420Y-8802984D02*
X2872325Y-8802984D01*
X2872325Y-8802984D02*
X2853277Y-8812508D01*
X2853277Y-8812508D02*
X2843753Y-8822031D01*
X2843753Y-8822031D02*
X2824706Y-8850603D01*
X2824706Y-8850603D02*
X2815182Y-8888698D01*
X2815182Y-8888698D02*
X2815182Y-8964889D01*
X2815182Y-8964889D02*
X2824706Y-8983936D01*
X2824706Y-8983936D02*
X2834229Y-8993460D01*
X2834229Y-8993460D02*
X2853277Y-9002984D01*
X2853277Y-9002984D02*
X2891372Y-9002984D01*
X2891372Y-9002984D02*
X2910420Y-8993460D01*
X2910420Y-8993460D02*
X2919944Y-8983936D01*
X2919944Y-8983936D02*
X2929467Y-8964889D01*
X2929467Y-8964889D02*
X2929467Y-8917270D01*
X2929467Y-8917270D02*
X2919944Y-8898222D01*
X2919944Y-8898222D02*
X2910420Y-8888698D01*
X2910420Y-8888698D02*
X2891372Y-8879174D01*
X2891372Y-8879174D02*
X2853277Y-8879174D01*
X2853277Y-8879174D02*
X2834229Y-8888698D01*
X2834229Y-8888698D02*
X2824706Y-8898222D01*
X2824706Y-8898222D02*
X2815182Y-8917270D01*
X3024706Y-9002984D02*
X3062801Y-9002984D01*
X3062801Y-9002984D02*
X3081848Y-8993460D01*
X3081848Y-8993460D02*
X3091372Y-8983936D01*
X3091372Y-8983936D02*
X3110420Y-8955365D01*
X3110420Y-8955365D02*
X3119944Y-8917270D01*
X3119944Y-8917270D02*
X3119944Y-8841079D01*
X3119944Y-8841079D02*
X3110420Y-8822031D01*
X3110420Y-8822031D02*
X3100896Y-8812508D01*
X3100896Y-8812508D02*
X3081848Y-8802984D01*
X3081848Y-8802984D02*
X3043753Y-8802984D01*
X3043753Y-8802984D02*
X3024706Y-8812508D01*
X3024706Y-8812508D02*
X3015182Y-8822031D01*
X3015182Y-8822031D02*
X3005658Y-8841079D01*
X3005658Y-8841079D02*
X3005658Y-8888698D01*
X3005658Y-8888698D02*
X3015182Y-8907746D01*
X3015182Y-8907746D02*
X3024706Y-8917270D01*
X3024706Y-8917270D02*
X3043753Y-8926793D01*
X3043753Y-8926793D02*
X3081848Y-8926793D01*
X3081848Y-8926793D02*
X3100896Y-8917270D01*
X3100896Y-8917270D02*
X3110420Y-8907746D01*
X3110420Y-8907746D02*
X3119944Y-8888698D01*
X3196134Y-8802984D02*
X3196134Y-8841079D01*
X3272325Y-8802984D02*
X3272325Y-8841079D01*
X3567563Y-9079174D02*
X3558039Y-9069650D01*
X3558039Y-9069650D02*
X3538991Y-9041079D01*
X3538991Y-9041079D02*
X3529468Y-9022031D01*
X3529468Y-9022031D02*
X3519944Y-8993460D01*
X3519944Y-8993460D02*
X3510420Y-8945841D01*
X3510420Y-8945841D02*
X3510420Y-8907746D01*
X3510420Y-8907746D02*
X3519944Y-8860127D01*
X3519944Y-8860127D02*
X3529468Y-8831555D01*
X3529468Y-8831555D02*
X3538991Y-8812508D01*
X3538991Y-8812508D02*
X3558039Y-8783936D01*
X3558039Y-8783936D02*
X3567563Y-8774412D01*
X3634229Y-8822031D02*
X3643753Y-8812508D01*
X3643753Y-8812508D02*
X3662801Y-8802984D01*
X3662801Y-8802984D02*
X3710420Y-8802984D01*
X3710420Y-8802984D02*
X3729468Y-8812508D01*
X3729468Y-8812508D02*
X3738991Y-8822031D01*
X3738991Y-8822031D02*
X3748515Y-8841079D01*
X3748515Y-8841079D02*
X3748515Y-8860127D01*
X3748515Y-8860127D02*
X3738991Y-8888698D01*
X3738991Y-8888698D02*
X3624706Y-9002984D01*
X3624706Y-9002984D02*
X3748515Y-9002984D01*
X3986610Y-9002984D02*
X3986610Y-8802984D01*
X4072325Y-9002984D02*
X4072325Y-8898222D01*
X4072325Y-8898222D02*
X4062801Y-8879174D01*
X4062801Y-8879174D02*
X4043753Y-8869650D01*
X4043753Y-8869650D02*
X4015182Y-8869650D01*
X4015182Y-8869650D02*
X3996134Y-8879174D01*
X3996134Y-8879174D02*
X3986610Y-8888698D01*
X4196134Y-9002984D02*
X4177087Y-8993460D01*
X4177087Y-8993460D02*
X4167563Y-8983936D01*
X4167563Y-8983936D02*
X4158039Y-8964889D01*
X4158039Y-8964889D02*
X4158039Y-8907746D01*
X4158039Y-8907746D02*
X4167563Y-8888698D01*
X4167563Y-8888698D02*
X4177087Y-8879174D01*
X4177087Y-8879174D02*
X4196134Y-8869650D01*
X4196134Y-8869650D02*
X4224706Y-8869650D01*
X4224706Y-8869650D02*
X4243753Y-8879174D01*
X4243753Y-8879174D02*
X4253277Y-8888698D01*
X4253277Y-8888698D02*
X4262801Y-8907746D01*
X4262801Y-8907746D02*
X4262801Y-8964889D01*
X4262801Y-8964889D02*
X4253277Y-8983936D01*
X4253277Y-8983936D02*
X4243753Y-8993460D01*
X4243753Y-8993460D02*
X4224706Y-9002984D01*
X4224706Y-9002984D02*
X4196134Y-9002984D01*
X4377087Y-9002984D02*
X4358039Y-8993460D01*
X4358039Y-8993460D02*
X4348515Y-8974412D01*
X4348515Y-8974412D02*
X4348515Y-8802984D01*
X4529468Y-8993460D02*
X4510420Y-9002984D01*
X4510420Y-9002984D02*
X4472325Y-9002984D01*
X4472325Y-9002984D02*
X4453277Y-8993460D01*
X4453277Y-8993460D02*
X4443753Y-8974412D01*
X4443753Y-8974412D02*
X4443753Y-8898222D01*
X4443753Y-8898222D02*
X4453277Y-8879174D01*
X4453277Y-8879174D02*
X4472325Y-8869650D01*
X4472325Y-8869650D02*
X4510420Y-8869650D01*
X4510420Y-8869650D02*
X4529468Y-8879174D01*
X4529468Y-8879174D02*
X4538992Y-8898222D01*
X4538992Y-8898222D02*
X4538992Y-8917270D01*
X4538992Y-8917270D02*
X4443753Y-8936317D01*
X4615182Y-8993460D02*
X4634230Y-9002984D01*
X4634230Y-9002984D02*
X4672325Y-9002984D01*
X4672325Y-9002984D02*
X4691373Y-8993460D01*
X4691373Y-8993460D02*
X4700896Y-8974412D01*
X4700896Y-8974412D02*
X4700896Y-8964889D01*
X4700896Y-8964889D02*
X4691373Y-8945841D01*
X4691373Y-8945841D02*
X4672325Y-8936317D01*
X4672325Y-8936317D02*
X4643753Y-8936317D01*
X4643753Y-8936317D02*
X4624706Y-8926793D01*
X4624706Y-8926793D02*
X4615182Y-8907746D01*
X4615182Y-8907746D02*
X4615182Y-8898222D01*
X4615182Y-8898222D02*
X4624706Y-8879174D01*
X4624706Y-8879174D02*
X4643753Y-8869650D01*
X4643753Y-8869650D02*
X4672325Y-8869650D01*
X4672325Y-8869650D02*
X4691373Y-8879174D01*
X4767563Y-9079174D02*
X4777087Y-9069650D01*
X4777087Y-9069650D02*
X4796134Y-9041079D01*
X4796134Y-9041079D02*
X4805658Y-9022031D01*
X4805658Y-9022031D02*
X4815182Y-8993460D01*
X4815182Y-8993460D02*
X4824706Y-8945841D01*
X4824706Y-8945841D02*
X4824706Y-8907746D01*
X4824706Y-8907746D02*
X4815182Y-8860127D01*
X4815182Y-8860127D02*
X4805658Y-8831555D01*
X4805658Y-8831555D02*
X4796134Y-8812508D01*
X4796134Y-8812508D02*
X4777087Y-8783936D01*
X4777087Y-8783936D02*
X4767563Y-8774412D01*
X5129468Y-9079174D02*
X5119944Y-9069650D01*
X5119944Y-9069650D02*
X5100896Y-9041079D01*
X5100896Y-9041079D02*
X5091373Y-9022031D01*
X5091373Y-9022031D02*
X5081849Y-8993460D01*
X5081849Y-8993460D02*
X5072325Y-8945841D01*
X5072325Y-8945841D02*
X5072325Y-8907746D01*
X5072325Y-8907746D02*
X5081849Y-8860127D01*
X5081849Y-8860127D02*
X5091373Y-8831555D01*
X5091373Y-8831555D02*
X5100896Y-8812508D01*
X5100896Y-8812508D02*
X5119944Y-8783936D01*
X5119944Y-8783936D02*
X5129468Y-8774412D01*
X5205658Y-8869650D02*
X5205658Y-9002984D01*
X5205658Y-8888698D02*
X5215182Y-8879174D01*
X5215182Y-8879174D02*
X5234230Y-8869650D01*
X5234230Y-8869650D02*
X5262801Y-8869650D01*
X5262801Y-8869650D02*
X5281849Y-8879174D01*
X5281849Y-8879174D02*
X5291373Y-8898222D01*
X5291373Y-8898222D02*
X5291373Y-9002984D01*
X5415182Y-9002984D02*
X5396134Y-8993460D01*
X5396134Y-8993460D02*
X5386611Y-8983936D01*
X5386611Y-8983936D02*
X5377087Y-8964889D01*
X5377087Y-8964889D02*
X5377087Y-8907746D01*
X5377087Y-8907746D02*
X5386611Y-8888698D01*
X5386611Y-8888698D02*
X5396134Y-8879174D01*
X5396134Y-8879174D02*
X5415182Y-8869650D01*
X5415182Y-8869650D02*
X5443754Y-8869650D01*
X5443754Y-8869650D02*
X5462801Y-8879174D01*
X5462801Y-8879174D02*
X5472325Y-8888698D01*
X5472325Y-8888698D02*
X5481849Y-8907746D01*
X5481849Y-8907746D02*
X5481849Y-8964889D01*
X5481849Y-8964889D02*
X5472325Y-8983936D01*
X5472325Y-8983936D02*
X5462801Y-8993460D01*
X5462801Y-8993460D02*
X5443754Y-9002984D01*
X5443754Y-9002984D02*
X5415182Y-9002984D01*
X5538992Y-8869650D02*
X5615182Y-8869650D01*
X5567563Y-8802984D02*
X5567563Y-8974412D01*
X5567563Y-8974412D02*
X5577087Y-8993460D01*
X5577087Y-8993460D02*
X5596134Y-9002984D01*
X5596134Y-9002984D02*
X5615182Y-9002984D01*
X5834230Y-8869650D02*
X5834230Y-9069650D01*
X5834230Y-8879174D02*
X5853277Y-8869650D01*
X5853277Y-8869650D02*
X5891373Y-8869650D01*
X5891373Y-8869650D02*
X5910420Y-8879174D01*
X5910420Y-8879174D02*
X5919944Y-8888698D01*
X5919944Y-8888698D02*
X5929468Y-8907746D01*
X5929468Y-8907746D02*
X5929468Y-8964889D01*
X5929468Y-8964889D02*
X5919944Y-8983936D01*
X5919944Y-8983936D02*
X5910420Y-8993460D01*
X5910420Y-8993460D02*
X5891373Y-9002984D01*
X5891373Y-9002984D02*
X5853277Y-9002984D01*
X5853277Y-9002984D02*
X5834230Y-8993460D01*
X6043753Y-9002984D02*
X6024706Y-8993460D01*
X6024706Y-8993460D02*
X6015182Y-8974412D01*
X6015182Y-8974412D02*
X6015182Y-8802984D01*
X6205658Y-9002984D02*
X6205658Y-8898222D01*
X6205658Y-8898222D02*
X6196134Y-8879174D01*
X6196134Y-8879174D02*
X6177087Y-8869650D01*
X6177087Y-8869650D02*
X6138992Y-8869650D01*
X6138992Y-8869650D02*
X6119944Y-8879174D01*
X6205658Y-8993460D02*
X6186611Y-9002984D01*
X6186611Y-9002984D02*
X6138992Y-9002984D01*
X6138992Y-9002984D02*
X6119944Y-8993460D01*
X6119944Y-8993460D02*
X6110420Y-8974412D01*
X6110420Y-8974412D02*
X6110420Y-8955365D01*
X6110420Y-8955365D02*
X6119944Y-8936317D01*
X6119944Y-8936317D02*
X6138992Y-8926793D01*
X6138992Y-8926793D02*
X6186611Y-8926793D01*
X6186611Y-8926793D02*
X6205658Y-8917270D01*
X6272325Y-8869650D02*
X6348515Y-8869650D01*
X6300896Y-8802984D02*
X6300896Y-8974412D01*
X6300896Y-8974412D02*
X6310420Y-8993460D01*
X6310420Y-8993460D02*
X6329468Y-9002984D01*
X6329468Y-9002984D02*
X6348515Y-9002984D01*
X6491373Y-8993460D02*
X6472325Y-9002984D01*
X6472325Y-9002984D02*
X6434230Y-9002984D01*
X6434230Y-9002984D02*
X6415182Y-8993460D01*
X6415182Y-8993460D02*
X6405658Y-8974412D01*
X6405658Y-8974412D02*
X6405658Y-8898222D01*
X6405658Y-8898222D02*
X6415182Y-8879174D01*
X6415182Y-8879174D02*
X6434230Y-8869650D01*
X6434230Y-8869650D02*
X6472325Y-8869650D01*
X6472325Y-8869650D02*
X6491373Y-8879174D01*
X6491373Y-8879174D02*
X6500896Y-8898222D01*
X6500896Y-8898222D02*
X6500896Y-8917270D01*
X6500896Y-8917270D02*
X6405658Y-8936317D01*
X6672325Y-9002984D02*
X6672325Y-8802984D01*
X6672325Y-8993460D02*
X6653277Y-9002984D01*
X6653277Y-9002984D02*
X6615182Y-9002984D01*
X6615182Y-9002984D02*
X6596134Y-8993460D01*
X6596134Y-8993460D02*
X6586611Y-8983936D01*
X6586611Y-8983936D02*
X6577087Y-8964889D01*
X6577087Y-8964889D02*
X6577087Y-8907746D01*
X6577087Y-8907746D02*
X6586611Y-8888698D01*
X6586611Y-8888698D02*
X6596134Y-8879174D01*
X6596134Y-8879174D02*
X6615182Y-8869650D01*
X6615182Y-8869650D02*
X6653277Y-8869650D01*
X6653277Y-8869650D02*
X6672325Y-8879174D01*
X6748515Y-9079174D02*
X6758039Y-9069650D01*
X6758039Y-9069650D02*
X6777087Y-9041079D01*
X6777087Y-9041079D02*
X6786611Y-9022031D01*
X6786611Y-9022031D02*
X6796134Y-8993460D01*
X6796134Y-8993460D02*
X6805658Y-8945841D01*
X6805658Y-8945841D02*
X6805658Y-8907746D01*
X6805658Y-8907746D02*
X6796134Y-8860127D01*
X6796134Y-8860127D02*
X6786611Y-8831555D01*
X6786611Y-8831555D02*
X6777087Y-8812508D01*
X6777087Y-8812508D02*
X6758039Y-8783936D01*
X6758039Y-8783936D02*
X6748515Y-8774412D01*
X-107500Y-9101500D02*
X-107500Y-9301500D01*
X-207500Y-9201500D02*
X-7500Y-9201500D01*
X234229Y-9092984D02*
X358039Y-9092984D01*
X358039Y-9092984D02*
X291372Y-9169174D01*
X291372Y-9169174D02*
X319944Y-9169174D01*
X319944Y-9169174D02*
X338991Y-9178698D01*
X338991Y-9178698D02*
X348515Y-9188222D01*
X348515Y-9188222D02*
X358039Y-9207270D01*
X358039Y-9207270D02*
X358039Y-9254889D01*
X358039Y-9254889D02*
X348515Y-9273936D01*
X348515Y-9273936D02*
X338991Y-9283460D01*
X338991Y-9283460D02*
X319944Y-9292984D01*
X319944Y-9292984D02*
X262801Y-9292984D01*
X262801Y-9292984D02*
X243753Y-9283460D01*
X243753Y-9283460D02*
X234229Y-9273936D01*
X443753Y-9273936D02*
X453277Y-9283460D01*
X453277Y-9283460D02*
X443753Y-9292984D01*
X443753Y-9292984D02*
X434229Y-9283460D01*
X434229Y-9283460D02*
X443753Y-9273936D01*
X443753Y-9273936D02*
X443753Y-9292984D01*
X529467Y-9112031D02*
X538991Y-9102508D01*
X538991Y-9102508D02*
X558039Y-9092984D01*
X558039Y-9092984D02*
X605658Y-9092984D01*
X605658Y-9092984D02*
X624705Y-9102508D01*
X624705Y-9102508D02*
X634229Y-9112031D01*
X634229Y-9112031D02*
X643753Y-9131079D01*
X643753Y-9131079D02*
X643753Y-9150127D01*
X643753Y-9150127D02*
X634229Y-9178698D01*
X634229Y-9178698D02*
X519943Y-9292984D01*
X519943Y-9292984D02*
X643753Y-9292984D01*
X767562Y-9092984D02*
X786610Y-9092984D01*
X786610Y-9092984D02*
X805658Y-9102508D01*
X805658Y-9102508D02*
X815182Y-9112031D01*
X815182Y-9112031D02*
X824705Y-9131079D01*
X824705Y-9131079D02*
X834229Y-9169174D01*
X834229Y-9169174D02*
X834229Y-9216793D01*
X834229Y-9216793D02*
X824705Y-9254889D01*
X824705Y-9254889D02*
X815182Y-9273936D01*
X815182Y-9273936D02*
X805658Y-9283460D01*
X805658Y-9283460D02*
X786610Y-9292984D01*
X786610Y-9292984D02*
X767562Y-9292984D01*
X767562Y-9292984D02*
X748515Y-9283460D01*
X748515Y-9283460D02*
X738991Y-9273936D01*
X738991Y-9273936D02*
X729467Y-9254889D01*
X729467Y-9254889D02*
X719943Y-9216793D01*
X719943Y-9216793D02*
X719943Y-9169174D01*
X719943Y-9169174D02*
X729467Y-9131079D01*
X729467Y-9131079D02*
X738991Y-9112031D01*
X738991Y-9112031D02*
X748515Y-9102508D01*
X748515Y-9102508D02*
X767562Y-9092984D01*
X958039Y-9092984D02*
X977086Y-9092984D01*
X977086Y-9092984D02*
X996134Y-9102508D01*
X996134Y-9102508D02*
X1005658Y-9112031D01*
X1005658Y-9112031D02*
X1015182Y-9131079D01*
X1015182Y-9131079D02*
X1024705Y-9169174D01*
X1024705Y-9169174D02*
X1024705Y-9216793D01*
X1024705Y-9216793D02*
X1015182Y-9254889D01*
X1015182Y-9254889D02*
X1005658Y-9273936D01*
X1005658Y-9273936D02*
X996134Y-9283460D01*
X996134Y-9283460D02*
X977086Y-9292984D01*
X977086Y-9292984D02*
X958039Y-9292984D01*
X958039Y-9292984D02*
X938991Y-9283460D01*
X938991Y-9283460D02*
X929467Y-9273936D01*
X929467Y-9273936D02*
X919943Y-9254889D01*
X919943Y-9254889D02*
X910420Y-9216793D01*
X910420Y-9216793D02*
X910420Y-9169174D01*
X910420Y-9169174D02*
X919943Y-9131079D01*
X919943Y-9131079D02*
X929467Y-9112031D01*
X929467Y-9112031D02*
X938991Y-9102508D01*
X938991Y-9102508D02*
X958039Y-9092984D01*
X1110420Y-9292984D02*
X1110420Y-9159650D01*
X1110420Y-9178698D02*
X1119944Y-9169174D01*
X1119944Y-9169174D02*
X1138991Y-9159650D01*
X1138991Y-9159650D02*
X1167563Y-9159650D01*
X1167563Y-9159650D02*
X1186610Y-9169174D01*
X1186610Y-9169174D02*
X1196134Y-9188222D01*
X1196134Y-9188222D02*
X1196134Y-9292984D01*
X1196134Y-9188222D02*
X1205658Y-9169174D01*
X1205658Y-9169174D02*
X1224705Y-9159650D01*
X1224705Y-9159650D02*
X1253277Y-9159650D01*
X1253277Y-9159650D02*
X1272325Y-9169174D01*
X1272325Y-9169174D02*
X1281848Y-9188222D01*
X1281848Y-9188222D02*
X1281848Y-9292984D01*
X1377086Y-9292984D02*
X1377086Y-9159650D01*
X1377086Y-9178698D02*
X1386610Y-9169174D01*
X1386610Y-9169174D02*
X1405658Y-9159650D01*
X1405658Y-9159650D02*
X1434229Y-9159650D01*
X1434229Y-9159650D02*
X1453277Y-9169174D01*
X1453277Y-9169174D02*
X1462801Y-9188222D01*
X1462801Y-9188222D02*
X1462801Y-9292984D01*
X1462801Y-9188222D02*
X1472324Y-9169174D01*
X1472324Y-9169174D02*
X1491372Y-9159650D01*
X1491372Y-9159650D02*
X1519943Y-9159650D01*
X1519943Y-9159650D02*
X1538991Y-9169174D01*
X1538991Y-9169174D02*
X1548515Y-9188222D01*
X1548515Y-9188222D02*
X1548515Y-9292984D01*
X1938991Y-9083460D02*
X1767563Y-9340603D01*
X2196134Y-9092984D02*
X2215182Y-9092984D01*
X2215182Y-9092984D02*
X2234229Y-9102508D01*
X2234229Y-9102508D02*
X2243753Y-9112031D01*
X2243753Y-9112031D02*
X2253277Y-9131079D01*
X2253277Y-9131079D02*
X2262801Y-9169174D01*
X2262801Y-9169174D02*
X2262801Y-9216793D01*
X2262801Y-9216793D02*
X2253277Y-9254889D01*
X2253277Y-9254889D02*
X2243753Y-9273936D01*
X2243753Y-9273936D02*
X2234229Y-9283460D01*
X2234229Y-9283460D02*
X2215182Y-9292984D01*
X2215182Y-9292984D02*
X2196134Y-9292984D01*
X2196134Y-9292984D02*
X2177087Y-9283460D01*
X2177087Y-9283460D02*
X2167563Y-9273936D01*
X2167563Y-9273936D02*
X2158039Y-9254889D01*
X2158039Y-9254889D02*
X2148515Y-9216793D01*
X2148515Y-9216793D02*
X2148515Y-9169174D01*
X2148515Y-9169174D02*
X2158039Y-9131079D01*
X2158039Y-9131079D02*
X2167563Y-9112031D01*
X2167563Y-9112031D02*
X2177087Y-9102508D01*
X2177087Y-9102508D02*
X2196134Y-9092984D01*
X2348515Y-9273936D02*
X2358039Y-9283460D01*
X2358039Y-9283460D02*
X2348515Y-9292984D01*
X2348515Y-9292984D02*
X2338991Y-9283460D01*
X2338991Y-9283460D02*
X2348515Y-9273936D01*
X2348515Y-9273936D02*
X2348515Y-9292984D01*
X2548515Y-9292984D02*
X2434229Y-9292984D01*
X2491372Y-9292984D02*
X2491372Y-9092984D01*
X2491372Y-9092984D02*
X2472325Y-9121555D01*
X2472325Y-9121555D02*
X2453277Y-9140603D01*
X2453277Y-9140603D02*
X2434229Y-9150127D01*
X2624706Y-9112031D02*
X2634229Y-9102508D01*
X2634229Y-9102508D02*
X2653277Y-9092984D01*
X2653277Y-9092984D02*
X2700896Y-9092984D01*
X2700896Y-9092984D02*
X2719944Y-9102508D01*
X2719944Y-9102508D02*
X2729468Y-9112031D01*
X2729468Y-9112031D02*
X2738991Y-9131079D01*
X2738991Y-9131079D02*
X2738991Y-9150127D01*
X2738991Y-9150127D02*
X2729468Y-9178698D01*
X2729468Y-9178698D02*
X2615182Y-9292984D01*
X2615182Y-9292984D02*
X2738991Y-9292984D01*
X2910420Y-9092984D02*
X2872325Y-9092984D01*
X2872325Y-9092984D02*
X2853277Y-9102508D01*
X2853277Y-9102508D02*
X2843753Y-9112031D01*
X2843753Y-9112031D02*
X2824706Y-9140603D01*
X2824706Y-9140603D02*
X2815182Y-9178698D01*
X2815182Y-9178698D02*
X2815182Y-9254889D01*
X2815182Y-9254889D02*
X2824706Y-9273936D01*
X2824706Y-9273936D02*
X2834229Y-9283460D01*
X2834229Y-9283460D02*
X2853277Y-9292984D01*
X2853277Y-9292984D02*
X2891372Y-9292984D01*
X2891372Y-9292984D02*
X2910420Y-9283460D01*
X2910420Y-9283460D02*
X2919944Y-9273936D01*
X2919944Y-9273936D02*
X2929467Y-9254889D01*
X2929467Y-9254889D02*
X2929467Y-9207270D01*
X2929467Y-9207270D02*
X2919944Y-9188222D01*
X2919944Y-9188222D02*
X2910420Y-9178698D01*
X2910420Y-9178698D02*
X2891372Y-9169174D01*
X2891372Y-9169174D02*
X2853277Y-9169174D01*
X2853277Y-9169174D02*
X2834229Y-9178698D01*
X2834229Y-9178698D02*
X2824706Y-9188222D01*
X2824706Y-9188222D02*
X2815182Y-9207270D01*
X3053277Y-9092984D02*
X3072325Y-9092984D01*
X3072325Y-9092984D02*
X3091372Y-9102508D01*
X3091372Y-9102508D02*
X3100896Y-9112031D01*
X3100896Y-9112031D02*
X3110420Y-9131079D01*
X3110420Y-9131079D02*
X3119944Y-9169174D01*
X3119944Y-9169174D02*
X3119944Y-9216793D01*
X3119944Y-9216793D02*
X3110420Y-9254889D01*
X3110420Y-9254889D02*
X3100896Y-9273936D01*
X3100896Y-9273936D02*
X3091372Y-9283460D01*
X3091372Y-9283460D02*
X3072325Y-9292984D01*
X3072325Y-9292984D02*
X3053277Y-9292984D01*
X3053277Y-9292984D02*
X3034229Y-9283460D01*
X3034229Y-9283460D02*
X3024706Y-9273936D01*
X3024706Y-9273936D02*
X3015182Y-9254889D01*
X3015182Y-9254889D02*
X3005658Y-9216793D01*
X3005658Y-9216793D02*
X3005658Y-9169174D01*
X3005658Y-9169174D02*
X3015182Y-9131079D01*
X3015182Y-9131079D02*
X3024706Y-9112031D01*
X3024706Y-9112031D02*
X3034229Y-9102508D01*
X3034229Y-9102508D02*
X3053277Y-9092984D01*
X3196134Y-9092984D02*
X3196134Y-9131079D01*
X3272325Y-9092984D02*
X3272325Y-9131079D01*
X3567563Y-9369174D02*
X3558039Y-9359650D01*
X3558039Y-9359650D02*
X3538991Y-9331079D01*
X3538991Y-9331079D02*
X3529468Y-9312031D01*
X3529468Y-9312031D02*
X3519944Y-9283460D01*
X3519944Y-9283460D02*
X3510420Y-9235841D01*
X3510420Y-9235841D02*
X3510420Y-9197746D01*
X3510420Y-9197746D02*
X3519944Y-9150127D01*
X3519944Y-9150127D02*
X3529468Y-9121555D01*
X3529468Y-9121555D02*
X3538991Y-9102508D01*
X3538991Y-9102508D02*
X3558039Y-9073936D01*
X3558039Y-9073936D02*
X3567563Y-9064412D01*
X3729468Y-9159650D02*
X3729468Y-9292984D01*
X3681848Y-9083460D02*
X3634229Y-9226317D01*
X3634229Y-9226317D02*
X3758039Y-9226317D01*
X3986610Y-9292984D02*
X3986610Y-9092984D01*
X4072325Y-9292984D02*
X4072325Y-9188222D01*
X4072325Y-9188222D02*
X4062801Y-9169174D01*
X4062801Y-9169174D02*
X4043753Y-9159650D01*
X4043753Y-9159650D02*
X4015182Y-9159650D01*
X4015182Y-9159650D02*
X3996134Y-9169174D01*
X3996134Y-9169174D02*
X3986610Y-9178698D01*
X4196134Y-9292984D02*
X4177087Y-9283460D01*
X4177087Y-9283460D02*
X4167563Y-9273936D01*
X4167563Y-9273936D02*
X4158039Y-9254889D01*
X4158039Y-9254889D02*
X4158039Y-9197746D01*
X4158039Y-9197746D02*
X4167563Y-9178698D01*
X4167563Y-9178698D02*
X4177087Y-9169174D01*
X4177087Y-9169174D02*
X4196134Y-9159650D01*
X4196134Y-9159650D02*
X4224706Y-9159650D01*
X4224706Y-9159650D02*
X4243753Y-9169174D01*
X4243753Y-9169174D02*
X4253277Y-9178698D01*
X4253277Y-9178698D02*
X4262801Y-9197746D01*
X4262801Y-9197746D02*
X4262801Y-9254889D01*
X4262801Y-9254889D02*
X4253277Y-9273936D01*
X4253277Y-9273936D02*
X4243753Y-9283460D01*
X4243753Y-9283460D02*
X4224706Y-9292984D01*
X4224706Y-9292984D02*
X4196134Y-9292984D01*
X4377087Y-9292984D02*
X4358039Y-9283460D01*
X4358039Y-9283460D02*
X4348515Y-9264412D01*
X4348515Y-9264412D02*
X4348515Y-9092984D01*
X4529468Y-9283460D02*
X4510420Y-9292984D01*
X4510420Y-9292984D02*
X4472325Y-9292984D01*
X4472325Y-9292984D02*
X4453277Y-9283460D01*
X4453277Y-9283460D02*
X4443753Y-9264412D01*
X4443753Y-9264412D02*
X4443753Y-9188222D01*
X4443753Y-9188222D02*
X4453277Y-9169174D01*
X4453277Y-9169174D02*
X4472325Y-9159650D01*
X4472325Y-9159650D02*
X4510420Y-9159650D01*
X4510420Y-9159650D02*
X4529468Y-9169174D01*
X4529468Y-9169174D02*
X4538992Y-9188222D01*
X4538992Y-9188222D02*
X4538992Y-9207270D01*
X4538992Y-9207270D02*
X4443753Y-9226317D01*
X4615182Y-9283460D02*
X4634230Y-9292984D01*
X4634230Y-9292984D02*
X4672325Y-9292984D01*
X4672325Y-9292984D02*
X4691373Y-9283460D01*
X4691373Y-9283460D02*
X4700896Y-9264412D01*
X4700896Y-9264412D02*
X4700896Y-9254889D01*
X4700896Y-9254889D02*
X4691373Y-9235841D01*
X4691373Y-9235841D02*
X4672325Y-9226317D01*
X4672325Y-9226317D02*
X4643753Y-9226317D01*
X4643753Y-9226317D02*
X4624706Y-9216793D01*
X4624706Y-9216793D02*
X4615182Y-9197746D01*
X4615182Y-9197746D02*
X4615182Y-9188222D01*
X4615182Y-9188222D02*
X4624706Y-9169174D01*
X4624706Y-9169174D02*
X4643753Y-9159650D01*
X4643753Y-9159650D02*
X4672325Y-9159650D01*
X4672325Y-9159650D02*
X4691373Y-9169174D01*
X4767563Y-9369174D02*
X4777087Y-9359650D01*
X4777087Y-9359650D02*
X4796134Y-9331079D01*
X4796134Y-9331079D02*
X4805658Y-9312031D01*
X4805658Y-9312031D02*
X4815182Y-9283460D01*
X4815182Y-9283460D02*
X4824706Y-9235841D01*
X4824706Y-9235841D02*
X4824706Y-9197746D01*
X4824706Y-9197746D02*
X4815182Y-9150127D01*
X4815182Y-9150127D02*
X4805658Y-9121555D01*
X4805658Y-9121555D02*
X4796134Y-9102508D01*
X4796134Y-9102508D02*
X4777087Y-9073936D01*
X4777087Y-9073936D02*
X4767563Y-9064412D01*
X5129468Y-9369174D02*
X5119944Y-9359650D01*
X5119944Y-9359650D02*
X5100896Y-9331079D01*
X5100896Y-9331079D02*
X5091373Y-9312031D01*
X5091373Y-9312031D02*
X5081849Y-9283460D01*
X5081849Y-9283460D02*
X5072325Y-9235841D01*
X5072325Y-9235841D02*
X5072325Y-9197746D01*
X5072325Y-9197746D02*
X5081849Y-9150127D01*
X5081849Y-9150127D02*
X5091373Y-9121555D01*
X5091373Y-9121555D02*
X5100896Y-9102508D01*
X5100896Y-9102508D02*
X5119944Y-9073936D01*
X5119944Y-9073936D02*
X5129468Y-9064412D01*
X5205658Y-9159650D02*
X5205658Y-9292984D01*
X5205658Y-9178698D02*
X5215182Y-9169174D01*
X5215182Y-9169174D02*
X5234230Y-9159650D01*
X5234230Y-9159650D02*
X5262801Y-9159650D01*
X5262801Y-9159650D02*
X5281849Y-9169174D01*
X5281849Y-9169174D02*
X5291373Y-9188222D01*
X5291373Y-9188222D02*
X5291373Y-9292984D01*
X5415182Y-9292984D02*
X5396134Y-9283460D01*
X5396134Y-9283460D02*
X5386611Y-9273936D01*
X5386611Y-9273936D02*
X5377087Y-9254889D01*
X5377087Y-9254889D02*
X5377087Y-9197746D01*
X5377087Y-9197746D02*
X5386611Y-9178698D01*
X5386611Y-9178698D02*
X5396134Y-9169174D01*
X5396134Y-9169174D02*
X5415182Y-9159650D01*
X5415182Y-9159650D02*
X5443754Y-9159650D01*
X5443754Y-9159650D02*
X5462801Y-9169174D01*
X5462801Y-9169174D02*
X5472325Y-9178698D01*
X5472325Y-9178698D02*
X5481849Y-9197746D01*
X5481849Y-9197746D02*
X5481849Y-9254889D01*
X5481849Y-9254889D02*
X5472325Y-9273936D01*
X5472325Y-9273936D02*
X5462801Y-9283460D01*
X5462801Y-9283460D02*
X5443754Y-9292984D01*
X5443754Y-9292984D02*
X5415182Y-9292984D01*
X5538992Y-9159650D02*
X5615182Y-9159650D01*
X5567563Y-9092984D02*
X5567563Y-9264412D01*
X5567563Y-9264412D02*
X5577087Y-9283460D01*
X5577087Y-9283460D02*
X5596134Y-9292984D01*
X5596134Y-9292984D02*
X5615182Y-9292984D01*
X5834230Y-9159650D02*
X5834230Y-9359650D01*
X5834230Y-9169174D02*
X5853277Y-9159650D01*
X5853277Y-9159650D02*
X5891373Y-9159650D01*
X5891373Y-9159650D02*
X5910420Y-9169174D01*
X5910420Y-9169174D02*
X5919944Y-9178698D01*
X5919944Y-9178698D02*
X5929468Y-9197746D01*
X5929468Y-9197746D02*
X5929468Y-9254889D01*
X5929468Y-9254889D02*
X5919944Y-9273936D01*
X5919944Y-9273936D02*
X5910420Y-9283460D01*
X5910420Y-9283460D02*
X5891373Y-9292984D01*
X5891373Y-9292984D02*
X5853277Y-9292984D01*
X5853277Y-9292984D02*
X5834230Y-9283460D01*
X6043753Y-9292984D02*
X6024706Y-9283460D01*
X6024706Y-9283460D02*
X6015182Y-9264412D01*
X6015182Y-9264412D02*
X6015182Y-9092984D01*
X6205658Y-9292984D02*
X6205658Y-9188222D01*
X6205658Y-9188222D02*
X6196134Y-9169174D01*
X6196134Y-9169174D02*
X6177087Y-9159650D01*
X6177087Y-9159650D02*
X6138992Y-9159650D01*
X6138992Y-9159650D02*
X6119944Y-9169174D01*
X6205658Y-9283460D02*
X6186611Y-9292984D01*
X6186611Y-9292984D02*
X6138992Y-9292984D01*
X6138992Y-9292984D02*
X6119944Y-9283460D01*
X6119944Y-9283460D02*
X6110420Y-9264412D01*
X6110420Y-9264412D02*
X6110420Y-9245365D01*
X6110420Y-9245365D02*
X6119944Y-9226317D01*
X6119944Y-9226317D02*
X6138992Y-9216793D01*
X6138992Y-9216793D02*
X6186611Y-9216793D01*
X6186611Y-9216793D02*
X6205658Y-9207270D01*
X6272325Y-9159650D02*
X6348515Y-9159650D01*
X6300896Y-9092984D02*
X6300896Y-9264412D01*
X6300896Y-9264412D02*
X6310420Y-9283460D01*
X6310420Y-9283460D02*
X6329468Y-9292984D01*
X6329468Y-9292984D02*
X6348515Y-9292984D01*
X6491373Y-9283460D02*
X6472325Y-9292984D01*
X6472325Y-9292984D02*
X6434230Y-9292984D01*
X6434230Y-9292984D02*
X6415182Y-9283460D01*
X6415182Y-9283460D02*
X6405658Y-9264412D01*
X6405658Y-9264412D02*
X6405658Y-9188222D01*
X6405658Y-9188222D02*
X6415182Y-9169174D01*
X6415182Y-9169174D02*
X6434230Y-9159650D01*
X6434230Y-9159650D02*
X6472325Y-9159650D01*
X6472325Y-9159650D02*
X6491373Y-9169174D01*
X6491373Y-9169174D02*
X6500896Y-9188222D01*
X6500896Y-9188222D02*
X6500896Y-9207270D01*
X6500896Y-9207270D02*
X6405658Y-9226317D01*
X6672325Y-9292984D02*
X6672325Y-9092984D01*
X6672325Y-9283460D02*
X6653277Y-9292984D01*
X6653277Y-9292984D02*
X6615182Y-9292984D01*
X6615182Y-9292984D02*
X6596134Y-9283460D01*
X6596134Y-9283460D02*
X6586611Y-9273936D01*
X6586611Y-9273936D02*
X6577087Y-9254889D01*
X6577087Y-9254889D02*
X6577087Y-9197746D01*
X6577087Y-9197746D02*
X6586611Y-9178698D01*
X6586611Y-9178698D02*
X6596134Y-9169174D01*
X6596134Y-9169174D02*
X6615182Y-9159650D01*
X6615182Y-9159650D02*
X6653277Y-9159650D01*
X6653277Y-9159650D02*
X6672325Y-9169174D01*
X6748515Y-9369174D02*
X6758039Y-9359650D01*
X6758039Y-9359650D02*
X6777087Y-9331079D01*
X6777087Y-9331079D02*
X6786611Y-9312031D01*
X6786611Y-9312031D02*
X6796134Y-9283460D01*
X6796134Y-9283460D02*
X6805658Y-9235841D01*
X6805658Y-9235841D02*
X6805658Y-9197746D01*
X6805658Y-9197746D02*
X6796134Y-9150127D01*
X6796134Y-9150127D02*
X6786611Y-9121555D01*
X6786611Y-9121555D02*
X6777087Y-9102508D01*
X6777087Y-9102508D02*
X6758039Y-9073936D01*
X6758039Y-9073936D02*
X6748515Y-9064412D01*
M02*
