M48
; DRILL file {KiCad 7.0.11+dfsg-1build4} date Mon Jul  6 23:33:38 2026
; FORMAT={-:-/ absolute / metric / decimal}
; #@! TF.CreationDate,2026-07-06T23:33:38+00:00
; #@! TF.GenerationSoftware,Kicad,Pcbnew,7.0.11+dfsg-1build4
; #@! TF.FileFunction,Plated,1,4,PTH
FMAT,2
METRIC
; #@! TA.AperFunction,Plated,PTH,ComponentDrill
T1C0.200
; #@! TA.AperFunction,Plated,PTH,ComponentDrill
T2C0.300
; #@! TA.AperFunction,Plated,PTH,ComponentDrill
T3C0.600
; #@! TA.AperFunction,Plated,PTH,ComponentDrill
T4C0.750
; #@! TA.AperFunction,Plated,PTH,ComponentDrill
T5C0.950
; #@! TA.AperFunction,Plated,PTH,ComponentDrill
T6C1.000
; #@! TA.AperFunction,Plated,PTH,ComponentDrill
T7C1.300
; #@! TA.AperFunction,Plated,PTH,ComponentDrill
T8C2.700
%
G90
G05
T1
X84.1Y-68.84
X84.1Y-70.24
X84.8Y-68.14
X84.8Y-69.54
X84.8Y-70.94
X85.5Y-68.84
X85.5Y-70.24
X86.2Y-68.14
X86.2Y-69.54
X86.2Y-70.94
X86.9Y-68.84
X86.9Y-70.24
T2
X30.75Y-27.8
X30.75Y-29.1
X30.75Y-30.4
X30.75Y-31.7
X30.75Y-33.0
X30.75Y-34.3
X30.75Y-35.6
X30.75Y-36.9
X30.75Y-38.2
X32.25Y-27.8
X32.25Y-29.1
X32.25Y-30.4
X32.25Y-31.7
X32.25Y-33.0
X32.25Y-34.3
X32.25Y-35.6
X32.25Y-36.9
X32.25Y-38.2
X33.75Y-27.8
X33.75Y-29.1
X33.75Y-30.4
X33.75Y-31.7
X33.75Y-33.0
X33.75Y-34.3
X33.75Y-35.6
X33.75Y-36.9
X33.75Y-38.2
X35.25Y-27.8
X35.25Y-29.1
X35.25Y-30.4
X35.25Y-31.7
X35.25Y-33.0
X35.25Y-34.3
X35.25Y-35.6
X35.25Y-36.9
X35.25Y-38.2
X43.75Y-27.8
X43.75Y-29.1
X43.75Y-30.4
X43.75Y-31.7
X43.75Y-33.0
X43.75Y-34.3
X43.75Y-35.6
X43.75Y-36.9
X43.75Y-38.2
X45.25Y-27.8
X45.25Y-29.1
X45.25Y-30.4
X45.25Y-31.7
X45.25Y-33.0
X45.25Y-34.3
X45.25Y-35.6
X45.25Y-36.9
X45.25Y-38.2
X46.75Y-27.8
X46.75Y-29.1
X46.75Y-30.4
X46.75Y-31.7
X46.75Y-33.0
X46.75Y-34.3
X46.75Y-35.6
X46.75Y-36.9
X46.75Y-38.2
X48.25Y-27.8
X48.25Y-29.1
X48.25Y-30.4
X48.25Y-31.7
X48.25Y-33.0
X48.25Y-34.3
X48.25Y-35.6
X48.25Y-36.9
X48.25Y-38.2
X91.35Y-33.55
X91.35Y-34.85
X91.35Y-36.15
X91.35Y-37.45
X92.65Y-33.55
X92.65Y-34.85
X92.65Y-36.15
X92.65Y-37.45
T4
X40.0Y-70.0
X42.0Y-70.0
X44.0Y-70.0
X46.0Y-70.0
X48.0Y-70.0
X50.0Y-70.0
X52.0Y-70.0
X54.0Y-70.0
T5
X70.0Y-6.0
X72.5Y-6.0
X75.0Y-6.0
X77.5Y-6.0
X80.0Y-6.0
X86.5Y-6.0
X89.0Y-6.0
X91.5Y-6.0
X94.0Y-6.0
X96.5Y-6.0
T6
X14.0Y-76.5
X16.54Y-76.5
X19.08Y-76.5
X21.62Y-76.5
X24.16Y-76.5
X26.7Y-76.5
X29.24Y-76.5
X30.0Y-62.0
X30.0Y-64.54
X30.0Y-67.08
X30.0Y-69.62
X30.0Y-72.16
X31.78Y-76.5
X32.54Y-62.0
X32.54Y-64.54
X32.54Y-67.08
X32.54Y-69.62
X32.54Y-72.16
X34.32Y-76.5
X36.86Y-76.5
X60.0Y-48.0
X60.0Y-50.54
X60.0Y-53.08
X97.0Y-14.0
X97.0Y-16.54
X97.0Y-19.08
T7
X8.0Y-4.0
X13.08Y-4.0
X22.0Y-4.0
X27.08Y-4.0
X36.0Y-4.0
X41.08Y-4.0
T8
X58.0Y-5.0
X63.0Y-5.0
T3
X93.32Y-47.68G85X94.42Y-47.68
G05
X93.32Y-56.32G85X94.42Y-56.32
G05
X97.75Y-47.68G85X98.35Y-47.68
G05
X97.75Y-56.32G85X98.35Y-56.32
G05
M30
