G04 #@! TF.GenerationSoftware,KiCad,Pcbnew,7.0.11+dfsg-1build4*
G04 #@! TF.CreationDate,2026-07-05T18:44:42+00:00*
G04 #@! TF.ProjectId,main-board,6d61696e-2d62-46f6-9172-642e6b696361,rev?*
G04 #@! TF.SameCoordinates,Original*
G04 #@! TF.FileFunction,Copper,L2,Bot*
G04 #@! TF.FilePolarity,Positive*
%FSLAX46Y46*%
G04 Gerber Fmt 4.6, Leading zero omitted, Abs format (unit mm)*
G04 Created by KiCad (PCBNEW 7.0.11+dfsg-1build4) date 2026-07-05 18:44:42*
%MOMM*%
%LPD*%
G01*
G04 APERTURE LIST*
G04 Aperture macros list*
%AMRoundRect*
0 Rectangle with rounded corners*
0 $1 Rounding radius*
0 $2 $3 $4 $5 $6 $7 $8 $9 X,Y pos of 4 corners*
0 Add a 4 corners polygon primitive as box body*
4,1,4,$2,$3,$4,$5,$6,$7,$8,$9,$2,$3,0*
0 Add four circle primitives for the rounded corners*
1,1,$1+$1,$2,$3*
1,1,$1+$1,$4,$5*
1,1,$1+$1,$6,$7*
1,1,$1+$1,$8,$9*
0 Add four rect primitives between the rounded corners*
20,1,$1+$1,$2,$3,$4,$5,0*
20,1,$1+$1,$4,$5,$6,$7,0*
20,1,$1+$1,$6,$7,$8,$9,0*
20,1,$1+$1,$8,$9,$2,$3,0*%
G04 Aperture macros list end*
G04 #@! TA.AperFunction,ComponentPad*
%ADD10R,3.800000X3.800000*%
G04 #@! TD*
G04 #@! TA.AperFunction,ComponentPad*
%ADD11C,3.800000*%
G04 #@! TD*
G04 #@! TA.AperFunction,ComponentPad*
%ADD12C,0.600000*%
G04 #@! TD*
G04 #@! TA.AperFunction,SMDPad,CuDef*
%ADD13R,2.950000X4.900000*%
G04 #@! TD*
G04 #@! TA.AperFunction,ComponentPad*
%ADD14R,1.700000X1.700000*%
G04 #@! TD*
G04 #@! TA.AperFunction,ComponentPad*
%ADD15O,1.700000X1.700000*%
G04 #@! TD*
G04 #@! TA.AperFunction,ComponentPad*
%ADD16RoundRect,0.250000X-0.600000X-0.725000X0.600000X-0.725000X0.600000X0.725000X-0.600000X0.725000X0*%
G04 #@! TD*
G04 #@! TA.AperFunction,ComponentPad*
%ADD17O,1.700000X1.950000*%
G04 #@! TD*
G04 #@! TA.AperFunction,HeatsinkPad*
%ADD18C,0.600000*%
G04 #@! TD*
G04 #@! TA.AperFunction,SMDPad,CuDef*
%ADD19R,5.200000X11.000000*%
G04 #@! TD*
G04 #@! TA.AperFunction,ComponentPad*
%ADD20R,2.600000X2.600000*%
G04 #@! TD*
G04 #@! TA.AperFunction,ComponentPad*
%ADD21C,2.600000*%
G04 #@! TD*
G04 #@! TA.AperFunction,ComponentPad*
%ADD22RoundRect,0.250000X-0.350000X-0.625000X0.350000X-0.625000X0.350000X0.625000X-0.350000X0.625000X0*%
G04 #@! TD*
G04 #@! TA.AperFunction,ComponentPad*
%ADD23O,1.200000X1.750000*%
G04 #@! TD*
G04 #@! TA.AperFunction,ComponentPad*
%ADD24O,2.100000X1.000000*%
G04 #@! TD*
G04 #@! TA.AperFunction,ComponentPad*
%ADD25O,1.600000X1.000000*%
G04 #@! TD*
G04 APERTURE END LIST*
D10*
G04 #@! TO.P,J1,1*
G04 #@! TO.N,VBAT_RAW*
X60000000Y-5000000D03*
D11*
G04 #@! TO.P,J1,2*
G04 #@! TO.N,GND*
X60000000Y0D03*
G04 #@! TD*
D12*
G04 #@! TO.P,U1,9*
G04 #@! TO.N,GND*
X91350000Y-33550000D03*
X91350000Y-34850000D03*
X91350000Y-36150000D03*
X91350000Y-37450000D03*
D13*
X92000000Y-35500000D03*
D12*
X92650000Y-33550000D03*
X92650000Y-34850000D03*
X92650000Y-36150000D03*
X92650000Y-37450000D03*
G04 #@! TD*
D14*
G04 #@! TO.P,J4,1*
G04 #@! TO.N,CHG_STAT*
X96000000Y-16000000D03*
D15*
G04 #@! TO.P,J4,2*
G04 #@! TO.N,FULL_STAT*
X98540000Y-16000000D03*
G04 #@! TO.P,J4,3*
G04 #@! TO.N,GND*
X101080000Y-16000000D03*
G04 #@! TD*
D16*
G04 #@! TO.P,J2,1*
G04 #@! TO.N,GND*
X70000000Y-6000000D03*
D17*
G04 #@! TO.P,J2,2*
G04 #@! TO.N,BAL1*
X72500000Y-6000000D03*
G04 #@! TO.P,J2,3*
G04 #@! TO.N,BAL2*
X75000000Y-6000000D03*
G04 #@! TO.P,J2,4*
G04 #@! TO.N,BAL3*
X77500000Y-6000000D03*
G04 #@! TO.P,J2,5*
G04 #@! TO.N,VBAT_RAW*
X80000000Y-6000000D03*
G04 #@! TD*
D18*
G04 #@! TO.P,U8,41*
G04 #@! TO.N,GND*
X86900000Y-70240000D03*
X86900000Y-68840000D03*
X86200000Y-70940000D03*
X86200000Y-69540000D03*
X86200000Y-68140000D03*
X85500000Y-70240000D03*
X85500000Y-68840000D03*
X84800000Y-70940000D03*
X84800000Y-69540000D03*
X84800000Y-68140000D03*
X84100000Y-70240000D03*
X84100000Y-68840000D03*
G04 #@! TD*
D12*
G04 #@! TO.P,U6,33*
G04 #@! TO.N,GND*
X30750000Y-27800000D03*
X30750000Y-29100000D03*
X30750000Y-30400000D03*
X30750000Y-31700000D03*
X30750000Y-33000000D03*
X30750000Y-34300000D03*
X30750000Y-35600000D03*
X30750000Y-36900000D03*
X30750000Y-38200000D03*
X32250000Y-27800000D03*
X32250000Y-29100000D03*
X32250000Y-30400000D03*
X32250000Y-31700000D03*
X32250000Y-33000000D03*
X32250000Y-34300000D03*
X32250000Y-35600000D03*
X32250000Y-36900000D03*
X32250000Y-38200000D03*
D19*
X33000000Y-33000000D03*
D12*
X33750000Y-27800000D03*
X33750000Y-29100000D03*
X33750000Y-30400000D03*
X33750000Y-31700000D03*
X33750000Y-33000000D03*
X33750000Y-34300000D03*
X33750000Y-35600000D03*
X33750000Y-36900000D03*
X33750000Y-38200000D03*
X35250000Y-27800000D03*
X35250000Y-29100000D03*
X35250000Y-30400000D03*
X35250000Y-31700000D03*
X35250000Y-33000000D03*
X35250000Y-34300000D03*
X35250000Y-35600000D03*
X35250000Y-36900000D03*
X35250000Y-38200000D03*
G04 #@! TD*
D20*
G04 #@! TO.P,J9,1*
G04 #@! TO.N,SUB_P*
X36000000Y-4000000D03*
D21*
G04 #@! TO.P,J9,2*
G04 #@! TO.N,SUB_N*
X41080000Y-4000000D03*
G04 #@! TD*
D22*
G04 #@! TO.P,J14,1*
G04 #@! TO.N,5V*
X40000000Y-70000000D03*
D23*
G04 #@! TO.P,J14,2*
G04 #@! TO.N,GND*
X42000000Y-70000000D03*
G04 #@! TO.P,J14,3*
G04 #@! TO.N,3V3*
X44000000Y-70000000D03*
G04 #@! TO.P,J14,4*
G04 #@! TO.N,SDA*
X46000000Y-70000000D03*
G04 #@! TO.P,J14,5*
G04 #@! TO.N,SCL*
X48000000Y-70000000D03*
G04 #@! TO.P,J14,6*
G04 #@! TO.N,LED_DATA*
X50000000Y-70000000D03*
G04 #@! TO.P,J14,7*
G04 #@! TO.N,BTN_ADC*
X52000000Y-70000000D03*
G04 #@! TO.P,J14,8*
G04 #@! TO.N,BTN_PWR*
X54000000Y-70000000D03*
G04 #@! TD*
D20*
G04 #@! TO.P,J7,1*
G04 #@! TO.N,FR_L_P*
X8000000Y-4000000D03*
D21*
G04 #@! TO.P,J7,2*
G04 #@! TO.N,FR_L_N*
X13080000Y-4000000D03*
G04 #@! TD*
D12*
G04 #@! TO.P,U7,33*
G04 #@! TO.N,GND*
X43750000Y-27800000D03*
X43750000Y-29100000D03*
X43750000Y-30400000D03*
X43750000Y-31700000D03*
X43750000Y-33000000D03*
X43750000Y-34300000D03*
X43750000Y-35600000D03*
X43750000Y-36900000D03*
X43750000Y-38200000D03*
X45250000Y-27800000D03*
X45250000Y-29100000D03*
X45250000Y-30400000D03*
X45250000Y-31700000D03*
X45250000Y-33000000D03*
X45250000Y-34300000D03*
X45250000Y-35600000D03*
X45250000Y-36900000D03*
X45250000Y-38200000D03*
D19*
X46000000Y-33000000D03*
D12*
X46750000Y-27800000D03*
X46750000Y-29100000D03*
X46750000Y-30400000D03*
X46750000Y-31700000D03*
X46750000Y-33000000D03*
X46750000Y-34300000D03*
X46750000Y-35600000D03*
X46750000Y-36900000D03*
X46750000Y-38200000D03*
X48250000Y-27800000D03*
X48250000Y-29100000D03*
X48250000Y-30400000D03*
X48250000Y-31700000D03*
X48250000Y-33000000D03*
X48250000Y-34300000D03*
X48250000Y-35600000D03*
X48250000Y-36900000D03*
X48250000Y-38200000D03*
G04 #@! TD*
D16*
G04 #@! TO.P,J3,1*
G04 #@! TO.N,GND*
X86500000Y-6000000D03*
D17*
G04 #@! TO.P,J3,2*
G04 #@! TO.N,BAL1*
X89000000Y-6000000D03*
G04 #@! TO.P,J3,3*
G04 #@! TO.N,BAL2*
X91500000Y-6000000D03*
G04 #@! TO.P,J3,4*
G04 #@! TO.N,BAL3*
X94000000Y-6000000D03*
G04 #@! TO.P,J3,5*
G04 #@! TO.N,VBAT_RAW*
X96500000Y-6000000D03*
G04 #@! TD*
D14*
G04 #@! TO.P,J5,1*
G04 #@! TO.N,3V3*
X30000000Y-62000000D03*
D15*
G04 #@! TO.P,J5,2*
G04 #@! TO.N,GND*
X32540000Y-62000000D03*
G04 #@! TO.P,J5,3*
G04 #@! TO.N,SCL*
X30000000Y-64540000D03*
G04 #@! TO.P,J5,4*
G04 #@! TO.N,SDA*
X32540000Y-64540000D03*
G04 #@! TO.P,J5,5*
G04 #@! TO.N,DSP_NRST*
X30000000Y-67080000D03*
G04 #@! TO.P,J5,6*
G04 #@! TO.N,SELFBOOT*
X32540000Y-67080000D03*
G04 #@! TO.P,J5,7*
G04 #@! TO.N,ADDR1*
X30000000Y-69620000D03*
G04 #@! TO.P,J5,8*
G04 #@! TO.N,EE_WP*
X32540000Y-69620000D03*
G04 #@! TO.P,J5,9*
G04 #@! TO.N,N/C*
X30000000Y-72160000D03*
G04 #@! TO.P,J5,10*
G04 #@! TO.N,GND*
X32540000Y-72160000D03*
G04 #@! TD*
D14*
G04 #@! TO.P,J10,1*
G04 #@! TO.N,UART0_TX*
X60000000Y-48000000D03*
D15*
G04 #@! TO.P,J10,2*
G04 #@! TO.N,UART0_RX*
X60000000Y-50540000D03*
G04 #@! TO.P,J10,3*
G04 #@! TO.N,GND*
X60000000Y-53080000D03*
G04 #@! TD*
D20*
G04 #@! TO.P,J8,1*
G04 #@! TO.N,FR_R_P*
X22000000Y-4000000D03*
D21*
G04 #@! TO.P,J8,2*
G04 #@! TO.N,FR_R_N*
X27080000Y-4000000D03*
G04 #@! TD*
D14*
G04 #@! TO.P,J13,1*
G04 #@! TO.N,3V3_BT*
X14000000Y-76500000D03*
D15*
G04 #@! TO.P,J13,2*
G04 #@! TO.N,GND*
X16540000Y-76500000D03*
G04 #@! TO.P,J13,3*
G04 #@! TO.N,BT_L*
X19080000Y-76500000D03*
G04 #@! TO.P,J13,4*
G04 #@! TO.N,BT_R*
X21620000Y-76500000D03*
G04 #@! TO.P,J13,5*
G04 #@! TO.N,AGND*
X24160000Y-76500000D03*
G04 #@! TO.P,J13,6*
G04 #@! TO.N,BT_RXD*
X26700000Y-76500000D03*
G04 #@! TO.P,J13,7*
G04 #@! TO.N,BT_TXD*
X29240000Y-76500000D03*
G04 #@! TO.P,J13,8*
G04 #@! TO.N,BT_STATUS*
X31780000Y-76500000D03*
G04 #@! TO.P,J13,9*
G04 #@! TO.N,BT_PAIR*
X34320000Y-76500000D03*
G04 #@! TO.P,J13,10*
G04 #@! TO.N,BT_EN*
X36860000Y-76500000D03*
G04 #@! TD*
D24*
G04 #@! TO.P,J11,S1*
G04 #@! TO.N,GND*
X100130000Y-47680000D03*
D25*
X95950000Y-47680000D03*
D24*
X100130000Y-56320000D03*
D25*
X95950000Y-56320000D03*
G04 #@! TD*
G04 #@! TA.AperFunction,Conductor*
G04 #@! TO.N,PVDD*
G36*
X99442539Y-8019685D02*
G01*
X99488294Y-8072489D01*
X99499500Y-8124000D01*
X99499500Y-15037051D01*
X99479815Y-15104090D01*
X99427011Y-15149845D01*
X99357853Y-15159789D01*
X99294297Y-15130764D01*
X99291962Y-15128688D01*
X99238562Y-15080008D01*
X99236302Y-15077948D01*
X99055019Y-14965702D01*
X99055017Y-14965701D01*
X98955608Y-14927190D01*
X98856198Y-14888679D01*
X98646610Y-14849500D01*
X98433390Y-14849500D01*
X98223802Y-14888679D01*
X98223799Y-14888679D01*
X98223799Y-14888680D01*
X98024982Y-14965701D01*
X98024980Y-14965702D01*
X97843699Y-15077947D01*
X97686127Y-15221593D01*
X97557632Y-15391746D01*
X97462596Y-15582605D01*
X97462596Y-15582607D01*
X97404244Y-15787689D01*
X97397970Y-15855394D01*
X97372183Y-15920331D01*
X97315383Y-15961018D01*
X97245602Y-15964538D01*
X97184995Y-15929772D01*
X97152806Y-15867759D01*
X97150499Y-15843952D01*
X97150499Y-15105143D01*
X97150499Y-15105136D01*
X97150378Y-15104090D01*
X97147586Y-15080012D01*
X97147585Y-15080010D01*
X97147585Y-15080009D01*
X97102206Y-14977235D01*
X97022765Y-14897794D01*
X97002124Y-14888680D01*
X96919992Y-14852415D01*
X96894865Y-14849500D01*
X95105143Y-14849500D01*
X95105117Y-14849502D01*
X95080012Y-14852413D01*
X95080008Y-14852415D01*
X94977235Y-14897793D01*
X94897794Y-14977234D01*
X94852415Y-15080006D01*
X94852415Y-15080008D01*
X94849500Y-15105131D01*
X94849500Y-16894856D01*
X94849502Y-16894882D01*
X94852413Y-16919987D01*
X94852415Y-16919991D01*
X94897793Y-17022764D01*
X94897794Y-17022765D01*
X94977235Y-17102206D01*
X95080009Y-17147585D01*
X95105135Y-17150500D01*
X96894864Y-17150499D01*
X96894879Y-17150497D01*
X96894882Y-17150497D01*
X96919987Y-17147586D01*
X96919988Y-17147585D01*
X96919991Y-17147585D01*
X97022765Y-17102206D01*
X97102206Y-17022765D01*
X97147585Y-16919991D01*
X97150500Y-16894865D01*
X97150499Y-16156046D01*
X97170183Y-16089009D01*
X97222987Y-16043254D01*
X97292146Y-16033310D01*
X97355702Y-16062335D01*
X97393476Y-16121113D01*
X97397970Y-16144606D01*
X97404244Y-16212310D01*
X97462596Y-16417392D01*
X97462596Y-16417394D01*
X97557632Y-16608253D01*
X97686127Y-16778406D01*
X97686128Y-16778407D01*
X97843698Y-16922052D01*
X98024981Y-17034298D01*
X98223802Y-17111321D01*
X98433390Y-17150500D01*
X98433392Y-17150500D01*
X98646608Y-17150500D01*
X98646610Y-17150500D01*
X98856198Y-17111321D01*
X99055019Y-17034298D01*
X99236302Y-16922052D01*
X99291962Y-16871310D01*
X99354765Y-16840694D01*
X99424152Y-16848891D01*
X99478093Y-16893301D01*
X99499461Y-16959823D01*
X99499500Y-16962948D01*
X99499500Y-41876000D01*
X99479815Y-41943039D01*
X99427011Y-41988794D01*
X99375500Y-42000000D01*
X52365413Y-42000000D01*
X52298374Y-41980315D01*
X52258375Y-41938600D01*
X52219679Y-41872436D01*
X52219674Y-41872428D01*
X52173918Y-41819623D01*
X52173908Y-41819612D01*
X52129192Y-41777451D01*
X52129189Y-41777449D01*
X52129187Y-41777447D01*
X52029111Y-41726561D01*
X52029110Y-41726560D01*
X52029109Y-41726560D01*
X51962078Y-41706877D01*
X51962072Y-41706876D01*
X51876000Y-41694500D01*
X28124000Y-41694500D01*
X28056961Y-41674815D01*
X28011206Y-41622011D01*
X28000000Y-41570500D01*
X28000000Y-38544856D01*
X30099500Y-38544856D01*
X30099502Y-38544882D01*
X30102413Y-38569987D01*
X30102415Y-38569991D01*
X30147793Y-38672764D01*
X30147794Y-38672765D01*
X30227235Y-38752206D01*
X30330009Y-38797585D01*
X30355135Y-38800500D01*
X30702508Y-38800499D01*
X30718695Y-38801559D01*
X30750000Y-38805682D01*
X30781304Y-38801559D01*
X30797492Y-38800499D01*
X32202506Y-38800499D01*
X32218692Y-38801560D01*
X32223908Y-38802246D01*
X32250000Y-38805682D01*
X32281306Y-38801560D01*
X32297493Y-38800499D01*
X33702506Y-38800499D01*
X33718692Y-38801560D01*
X33749999Y-38805682D01*
X33750000Y-38805682D01*
X33750001Y-38805682D01*
X33781308Y-38801560D01*
X33797494Y-38800499D01*
X35202505Y-38800499D01*
X35218689Y-38801559D01*
X35250000Y-38805682D01*
X35250001Y-38805682D01*
X35281309Y-38801560D01*
X35297495Y-38800499D01*
X35644856Y-38800499D01*
X35644864Y-38800499D01*
X35644879Y-38800497D01*
X35644882Y-38800497D01*
X35669987Y-38797586D01*
X35669988Y-38797585D01*
X35669991Y-38797585D01*
X35772765Y-38752206D01*
X35852206Y-38672765D01*
X35897585Y-38569991D01*
X35900500Y-38544865D01*
X35900500Y-38544856D01*
X43099500Y-38544856D01*
X43099502Y-38544882D01*
X43102413Y-38569987D01*
X43102415Y-38569991D01*
X43147793Y-38672764D01*
X43147794Y-38672765D01*
X43227235Y-38752206D01*
X43330009Y-38797585D01*
X43355135Y-38800500D01*
X43702508Y-38800499D01*
X43718695Y-38801559D01*
X43750000Y-38805682D01*
X43781304Y-38801559D01*
X43797492Y-38800499D01*
X45202506Y-38800499D01*
X45218692Y-38801560D01*
X45223908Y-38802246D01*
X45250000Y-38805682D01*
X45281306Y-38801560D01*
X45297493Y-38800499D01*
X46702506Y-38800499D01*
X46718692Y-38801560D01*
X46749999Y-38805682D01*
X46750000Y-38805682D01*
X46750001Y-38805682D01*
X46781308Y-38801560D01*
X46797494Y-38800499D01*
X48202505Y-38800499D01*
X48218689Y-38801559D01*
X48250000Y-38805682D01*
X48250001Y-38805682D01*
X48281309Y-38801560D01*
X48297495Y-38800499D01*
X48644856Y-38800499D01*
X48644864Y-38800499D01*
X48644879Y-38800497D01*
X48644882Y-38800497D01*
X48669987Y-38797586D01*
X48669988Y-38797585D01*
X48669991Y-38797585D01*
X48772765Y-38752206D01*
X48852206Y-38672765D01*
X48897585Y-38569991D01*
X48900500Y-38544865D01*
X48900500Y-37994856D01*
X90224500Y-37994856D01*
X90224502Y-37994882D01*
X90227413Y-38019987D01*
X90227415Y-38019991D01*
X90272793Y-38122764D01*
X90272794Y-38122765D01*
X90352235Y-38202206D01*
X90455009Y-38247585D01*
X90480135Y-38250500D01*
X93519864Y-38250499D01*
X93519879Y-38250497D01*
X93519882Y-38250497D01*
X93544987Y-38247586D01*
X93544988Y-38247585D01*
X93544991Y-38247585D01*
X93647765Y-38202206D01*
X93727206Y-38122765D01*
X93772585Y-38019991D01*
X93775500Y-37994865D01*
X93775499Y-33005136D01*
X93775497Y-33005117D01*
X93772586Y-32980012D01*
X93772585Y-32980010D01*
X93772585Y-32980009D01*
X93727206Y-32877235D01*
X93647765Y-32797794D01*
X93647763Y-32797793D01*
X93544992Y-32752415D01*
X93519865Y-32749500D01*
X90480143Y-32749500D01*
X90480117Y-32749502D01*
X90455012Y-32752413D01*
X90455008Y-32752415D01*
X90352235Y-32797793D01*
X90272794Y-32877234D01*
X90227415Y-32980006D01*
X90227415Y-32980008D01*
X90224500Y-33005131D01*
X90224500Y-37994856D01*
X48900500Y-37994856D01*
X48900499Y-27455136D01*
X48900497Y-27455117D01*
X48897586Y-27430012D01*
X48897585Y-27430010D01*
X48897585Y-27430009D01*
X48852206Y-27327235D01*
X48772765Y-27247794D01*
X48772763Y-27247793D01*
X48669992Y-27202415D01*
X48644868Y-27199500D01*
X48644865Y-27199500D01*
X48297487Y-27199500D01*
X48281302Y-27198439D01*
X48266090Y-27196436D01*
X48250001Y-27194318D01*
X48249999Y-27194318D01*
X48218696Y-27198439D01*
X48202511Y-27199500D01*
X46797489Y-27199500D01*
X46781304Y-27198439D01*
X46750001Y-27194318D01*
X46749999Y-27194318D01*
X46718695Y-27198439D01*
X46702510Y-27199500D01*
X45297490Y-27199500D01*
X45281306Y-27198439D01*
X45266291Y-27196462D01*
X45250001Y-27194318D01*
X45249998Y-27194318D01*
X45226954Y-27197351D01*
X45218692Y-27198439D01*
X45202510Y-27199500D01*
X43797497Y-27199500D01*
X43781316Y-27198440D01*
X43766562Y-27196498D01*
X43750000Y-27194318D01*
X43749999Y-27194318D01*
X43718683Y-27198440D01*
X43702502Y-27199500D01*
X43355143Y-27199500D01*
X43355117Y-27199502D01*
X43330012Y-27202413D01*
X43330008Y-27202415D01*
X43227235Y-27247793D01*
X43147794Y-27327234D01*
X43102415Y-27430006D01*
X43102415Y-27430008D01*
X43099500Y-27455131D01*
X43099500Y-38544856D01*
X35900500Y-38544856D01*
X35900499Y-27455136D01*
X35900497Y-27455117D01*
X35897586Y-27430012D01*
X35897585Y-27430010D01*
X35897585Y-27430009D01*
X35852206Y-27327235D01*
X35772765Y-27247794D01*
X35772763Y-27247793D01*
X35669992Y-27202415D01*
X35644868Y-27199500D01*
X35644865Y-27199500D01*
X35297487Y-27199500D01*
X35281302Y-27198439D01*
X35266090Y-27196436D01*
X35250001Y-27194318D01*
X35249999Y-27194318D01*
X35218696Y-27198439D01*
X35202511Y-27199500D01*
X33797489Y-27199500D01*
X33781304Y-27198439D01*
X33750001Y-27194318D01*
X33749999Y-27194318D01*
X33718695Y-27198439D01*
X33702510Y-27199500D01*
X32297490Y-27199500D01*
X32281306Y-27198439D01*
X32266291Y-27196462D01*
X32250001Y-27194318D01*
X32249998Y-27194318D01*
X32226954Y-27197351D01*
X32218692Y-27198439D01*
X32202510Y-27199500D01*
X30797497Y-27199500D01*
X30781316Y-27198440D01*
X30766562Y-27196498D01*
X30750000Y-27194318D01*
X30749999Y-27194318D01*
X30718683Y-27198440D01*
X30702502Y-27199500D01*
X30355143Y-27199500D01*
X30355117Y-27199502D01*
X30330012Y-27202413D01*
X30330008Y-27202415D01*
X30227235Y-27247793D01*
X30147794Y-27327234D01*
X30102415Y-27430006D01*
X30102415Y-27430008D01*
X30099500Y-27455131D01*
X30099500Y-38544856D01*
X28000000Y-38544856D01*
X28000000Y-24067763D01*
X94645787Y-24067763D01*
X94675413Y-24337013D01*
X94675415Y-24337024D01*
X94743926Y-24599082D01*
X94743928Y-24599088D01*
X94849870Y-24848390D01*
X94921998Y-24966575D01*
X94990979Y-25079605D01*
X94990986Y-25079615D01*
X95164253Y-25287819D01*
X95164259Y-25287824D01*
X95365998Y-25468582D01*
X95591910Y-25618044D01*
X95837176Y-25733020D01*
X95837183Y-25733022D01*
X95837185Y-25733023D01*
X96096557Y-25811057D01*
X96096564Y-25811058D01*
X96096569Y-25811060D01*
X96364561Y-25850500D01*
X96364566Y-25850500D01*
X96567629Y-25850500D01*
X96567631Y-25850500D01*
X96567636Y-25850499D01*
X96567648Y-25850499D01*
X96605191Y-25847750D01*
X96770156Y-25835677D01*
X96882758Y-25810593D01*
X97034546Y-25776782D01*
X97034548Y-25776781D01*
X97034553Y-25776780D01*
X97287558Y-25680014D01*
X97523777Y-25547441D01*
X97738177Y-25381888D01*
X97926186Y-25186881D01*
X98083799Y-24966579D01*
X98157787Y-24822669D01*
X98207649Y-24725690D01*
X98207651Y-24725684D01*
X98207656Y-24725675D01*
X98295118Y-24469305D01*
X98344319Y-24202933D01*
X98354212Y-23932235D01*
X98324586Y-23662982D01*
X98256072Y-23400912D01*
X98150130Y-23151610D01*
X98009018Y-22920390D01*
X97919747Y-22813119D01*
X97835746Y-22712180D01*
X97835740Y-22712175D01*
X97634002Y-22531418D01*
X97408092Y-22381957D01*
X97408090Y-22381956D01*
X97162824Y-22266980D01*
X97162819Y-22266978D01*
X97162814Y-22266976D01*
X96903442Y-22188942D01*
X96903428Y-22188939D01*
X96787791Y-22171921D01*
X96635439Y-22149500D01*
X96432369Y-22149500D01*
X96432351Y-22149500D01*
X96229844Y-22164323D01*
X96229831Y-22164325D01*
X95965453Y-22223217D01*
X95965446Y-22223220D01*
X95712439Y-22319987D01*
X95476226Y-22452557D01*
X95261822Y-22618112D01*
X95073822Y-22813109D01*
X95073816Y-22813116D01*
X94916202Y-23033419D01*
X94916199Y-23033424D01*
X94792350Y-23274309D01*
X94792343Y-23274327D01*
X94704884Y-23530685D01*
X94704881Y-23530699D01*
X94655681Y-23797068D01*
X94655680Y-23797075D01*
X94645787Y-24067763D01*
X28000000Y-24067763D01*
X28000000Y-8124000D01*
X28019685Y-8056961D01*
X28072489Y-8011206D01*
X28124000Y-8000000D01*
X99375500Y-8000000D01*
X99442539Y-8019685D01*
G37*
G04 #@! TD.AperFunction*
G04 #@! TD*
G04 #@! TA.AperFunction,Conductor*
G04 #@! TO.N,AGND*
G36*
X51943039Y-42019685D02*
G01*
X51988794Y-42072489D01*
X52000000Y-42124000D01*
X52000000Y-68703969D01*
X51980315Y-68771008D01*
X51927511Y-68816763D01*
X51901781Y-68825259D01*
X51720197Y-68863855D01*
X51720192Y-68863857D01*
X51547270Y-68940848D01*
X51547265Y-68940851D01*
X51394129Y-69052111D01*
X51267466Y-69192785D01*
X51172821Y-69356715D01*
X51172818Y-69356722D01*
X51117931Y-69525648D01*
X51078493Y-69583324D01*
X51014135Y-69610522D01*
X50945288Y-69598607D01*
X50893813Y-69551363D01*
X50882069Y-69525648D01*
X50827181Y-69356722D01*
X50827180Y-69356721D01*
X50827179Y-69356716D01*
X50732533Y-69192784D01*
X50605871Y-69052112D01*
X50550312Y-69011746D01*
X50452734Y-68940851D01*
X50452729Y-68940848D01*
X50279807Y-68863857D01*
X50279802Y-68863855D01*
X50134001Y-68832865D01*
X50094646Y-68824500D01*
X49905354Y-68824500D01*
X49872897Y-68831398D01*
X49720197Y-68863855D01*
X49720192Y-68863857D01*
X49547270Y-68940848D01*
X49547265Y-68940851D01*
X49394129Y-69052111D01*
X49267466Y-69192785D01*
X49172821Y-69356715D01*
X49172818Y-69356722D01*
X49117931Y-69525648D01*
X49078493Y-69583324D01*
X49014135Y-69610522D01*
X48945288Y-69598607D01*
X48893813Y-69551363D01*
X48882069Y-69525648D01*
X48827181Y-69356722D01*
X48827180Y-69356721D01*
X48827179Y-69356716D01*
X48732533Y-69192784D01*
X48605871Y-69052112D01*
X48550312Y-69011746D01*
X48452734Y-68940851D01*
X48452729Y-68940848D01*
X48279807Y-68863857D01*
X48279802Y-68863855D01*
X48134001Y-68832865D01*
X48094646Y-68824500D01*
X47905354Y-68824500D01*
X47872897Y-68831398D01*
X47720197Y-68863855D01*
X47720192Y-68863857D01*
X47547270Y-68940848D01*
X47547265Y-68940851D01*
X47394129Y-69052111D01*
X47267466Y-69192785D01*
X47172821Y-69356715D01*
X47172818Y-69356722D01*
X47117931Y-69525648D01*
X47078493Y-69583324D01*
X47014135Y-69610522D01*
X46945288Y-69598607D01*
X46893813Y-69551363D01*
X46882069Y-69525648D01*
X46827181Y-69356722D01*
X46827180Y-69356721D01*
X46827179Y-69356716D01*
X46732533Y-69192784D01*
X46605871Y-69052112D01*
X46550312Y-69011746D01*
X46452734Y-68940851D01*
X46452729Y-68940848D01*
X46279807Y-68863857D01*
X46279802Y-68863855D01*
X46134001Y-68832865D01*
X46094646Y-68824500D01*
X45905354Y-68824500D01*
X45872897Y-68831398D01*
X45720197Y-68863855D01*
X45720192Y-68863857D01*
X45547270Y-68940848D01*
X45547265Y-68940851D01*
X45394129Y-69052111D01*
X45267466Y-69192785D01*
X45172821Y-69356715D01*
X45172818Y-69356722D01*
X45117931Y-69525648D01*
X45078493Y-69583324D01*
X45014135Y-69610522D01*
X44945288Y-69598607D01*
X44893813Y-69551363D01*
X44882069Y-69525648D01*
X44827181Y-69356722D01*
X44827180Y-69356721D01*
X44827179Y-69356716D01*
X44732533Y-69192784D01*
X44605871Y-69052112D01*
X44550312Y-69011746D01*
X44452734Y-68940851D01*
X44452729Y-68940848D01*
X44279807Y-68863857D01*
X44279802Y-68863855D01*
X44134001Y-68832865D01*
X44094646Y-68824500D01*
X43905354Y-68824500D01*
X43872897Y-68831398D01*
X43720197Y-68863855D01*
X43720192Y-68863857D01*
X43547270Y-68940848D01*
X43547265Y-68940851D01*
X43394129Y-69052111D01*
X43267466Y-69192785D01*
X43172821Y-69356715D01*
X43172818Y-69356722D01*
X43117931Y-69525648D01*
X43078493Y-69583324D01*
X43014135Y-69610522D01*
X42945288Y-69598607D01*
X42893813Y-69551363D01*
X42882069Y-69525648D01*
X42827181Y-69356722D01*
X42827180Y-69356721D01*
X42827179Y-69356716D01*
X42732533Y-69192784D01*
X42605871Y-69052112D01*
X42550312Y-69011746D01*
X42452734Y-68940851D01*
X42452729Y-68940848D01*
X42279807Y-68863857D01*
X42279802Y-68863855D01*
X42134001Y-68832865D01*
X42094646Y-68824500D01*
X41905354Y-68824500D01*
X41872897Y-68831398D01*
X41720197Y-68863855D01*
X41720192Y-68863857D01*
X41547270Y-68940848D01*
X41547265Y-68940851D01*
X41394129Y-69052111D01*
X41267466Y-69192785D01*
X41172821Y-69356715D01*
X41172818Y-69356722D01*
X41142431Y-69450245D01*
X41102993Y-69507921D01*
X41038635Y-69535119D01*
X40969788Y-69523204D01*
X40918313Y-69475960D01*
X40900500Y-69411927D01*
X40900500Y-69331903D01*
X40900500Y-69331898D01*
X40889877Y-69243436D01*
X40834361Y-69102658D01*
X40834360Y-69102657D01*
X40834360Y-69102656D01*
X40742922Y-68982077D01*
X40622343Y-68890639D01*
X40526192Y-68852722D01*
X40481564Y-68835123D01*
X40481563Y-68835122D01*
X40481561Y-68835122D01*
X40435926Y-68829642D01*
X40393102Y-68824500D01*
X39606898Y-68824500D01*
X39567853Y-68829188D01*
X39518438Y-68835122D01*
X39377656Y-68890639D01*
X39257077Y-68982077D01*
X39165639Y-69102656D01*
X39110122Y-69243438D01*
X39104188Y-69292853D01*
X39099500Y-69331898D01*
X39099500Y-70668102D01*
X39105126Y-70714954D01*
X39110122Y-70756561D01*
X39165639Y-70897343D01*
X39257077Y-71017922D01*
X39377656Y-71109360D01*
X39377657Y-71109360D01*
X39377658Y-71109361D01*
X39518436Y-71164877D01*
X39606898Y-71175500D01*
X39606903Y-71175500D01*
X40393097Y-71175500D01*
X40393102Y-71175500D01*
X40481564Y-71164877D01*
X40622342Y-71109361D01*
X40742922Y-71017922D01*
X40834361Y-70897342D01*
X40889877Y-70756564D01*
X40900500Y-70668102D01*
X40900500Y-70588072D01*
X40920185Y-70521033D01*
X40972989Y-70475278D01*
X41042147Y-70465334D01*
X41105703Y-70494359D01*
X41142431Y-70549754D01*
X41172818Y-70643278D01*
X41172821Y-70643284D01*
X41267467Y-70807216D01*
X41386373Y-70939274D01*
X41394129Y-70947888D01*
X41547265Y-71059148D01*
X41547270Y-71059151D01*
X41720192Y-71136142D01*
X41720197Y-71136144D01*
X41905354Y-71175500D01*
X41905355Y-71175500D01*
X42094644Y-71175500D01*
X42094646Y-71175500D01*
X42279803Y-71136144D01*
X42452730Y-71059151D01*
X42605871Y-70947888D01*
X42732533Y-70807216D01*
X42827179Y-70643284D01*
X42882069Y-70474351D01*
X42921506Y-70416675D01*
X42985865Y-70389477D01*
X43054711Y-70401392D01*
X43106187Y-70448636D01*
X43117931Y-70474351D01*
X43172818Y-70643277D01*
X43172821Y-70643284D01*
X43267467Y-70807216D01*
X43386373Y-70939274D01*
X43394129Y-70947888D01*
X43547265Y-71059148D01*
X43547270Y-71059151D01*
X43720192Y-71136142D01*
X43720197Y-71136144D01*
X43905354Y-71175500D01*
X43905355Y-71175500D01*
X44094644Y-71175500D01*
X44094646Y-71175500D01*
X44279803Y-71136144D01*
X44452730Y-71059151D01*
X44605871Y-70947888D01*
X44732533Y-70807216D01*
X44827179Y-70643284D01*
X44882069Y-70474351D01*
X44921506Y-70416675D01*
X44985865Y-70389477D01*
X45054711Y-70401392D01*
X45106187Y-70448636D01*
X45117931Y-70474351D01*
X45172818Y-70643277D01*
X45172821Y-70643284D01*
X45267467Y-70807216D01*
X45386373Y-70939274D01*
X45394129Y-70947888D01*
X45547265Y-71059148D01*
X45547270Y-71059151D01*
X45720192Y-71136142D01*
X45720197Y-71136144D01*
X45905354Y-71175500D01*
X45905355Y-71175500D01*
X46094644Y-71175500D01*
X46094646Y-71175500D01*
X46279803Y-71136144D01*
X46452730Y-71059151D01*
X46605871Y-70947888D01*
X46732533Y-70807216D01*
X46827179Y-70643284D01*
X46882069Y-70474351D01*
X46921506Y-70416675D01*
X46985865Y-70389477D01*
X47054711Y-70401392D01*
X47106187Y-70448636D01*
X47117931Y-70474351D01*
X47172818Y-70643277D01*
X47172821Y-70643284D01*
X47267467Y-70807216D01*
X47386373Y-70939274D01*
X47394129Y-70947888D01*
X47547265Y-71059148D01*
X47547270Y-71059151D01*
X47720192Y-71136142D01*
X47720197Y-71136144D01*
X47905354Y-71175500D01*
X47905355Y-71175500D01*
X48094644Y-71175500D01*
X48094646Y-71175500D01*
X48279803Y-71136144D01*
X48452730Y-71059151D01*
X48605871Y-70947888D01*
X48732533Y-70807216D01*
X48827179Y-70643284D01*
X48882069Y-70474351D01*
X48921506Y-70416675D01*
X48985865Y-70389477D01*
X49054711Y-70401392D01*
X49106187Y-70448636D01*
X49117931Y-70474351D01*
X49172818Y-70643277D01*
X49172821Y-70643284D01*
X49267467Y-70807216D01*
X49386373Y-70939274D01*
X49394129Y-70947888D01*
X49547265Y-71059148D01*
X49547270Y-71059151D01*
X49720192Y-71136142D01*
X49720197Y-71136144D01*
X49905354Y-71175500D01*
X49905355Y-71175500D01*
X50094644Y-71175500D01*
X50094646Y-71175500D01*
X50279803Y-71136144D01*
X50452730Y-71059151D01*
X50605871Y-70947888D01*
X50732533Y-70807216D01*
X50827179Y-70643284D01*
X50882069Y-70474351D01*
X50921506Y-70416675D01*
X50985865Y-70389477D01*
X51054711Y-70401392D01*
X51106187Y-70448636D01*
X51117931Y-70474351D01*
X51172818Y-70643277D01*
X51172821Y-70643284D01*
X51267467Y-70807216D01*
X51386373Y-70939274D01*
X51394129Y-70947888D01*
X51547265Y-71059148D01*
X51547270Y-71059151D01*
X51720192Y-71136142D01*
X51720193Y-71136142D01*
X51720197Y-71136144D01*
X51901781Y-71174740D01*
X51963262Y-71207932D01*
X51997039Y-71269095D01*
X52000000Y-71296030D01*
X52000000Y-77876000D01*
X51980315Y-77943039D01*
X51927511Y-77988794D01*
X51876000Y-78000000D01*
X2124000Y-78000000D01*
X2056961Y-77980315D01*
X2011206Y-77927511D01*
X2000000Y-77876000D01*
X2000000Y-77394856D01*
X12849500Y-77394856D01*
X12849502Y-77394882D01*
X12852413Y-77419987D01*
X12852415Y-77419991D01*
X12897793Y-77522764D01*
X12897794Y-77522765D01*
X12977235Y-77602206D01*
X13080009Y-77647585D01*
X13105135Y-77650500D01*
X14894864Y-77650499D01*
X14894879Y-77650497D01*
X14894882Y-77650497D01*
X14919987Y-77647586D01*
X14919988Y-77647585D01*
X14919991Y-77647585D01*
X15022765Y-77602206D01*
X15102206Y-77522765D01*
X15147585Y-77419991D01*
X15150500Y-77394865D01*
X15150499Y-76656046D01*
X15170183Y-76589009D01*
X15222987Y-76543254D01*
X15292146Y-76533310D01*
X15355702Y-76562335D01*
X15393476Y-76621113D01*
X15397970Y-76644606D01*
X15404015Y-76709844D01*
X15404244Y-76712310D01*
X15441596Y-76843588D01*
X15462596Y-76917392D01*
X15462596Y-76917394D01*
X15557632Y-77108253D01*
X15686127Y-77278406D01*
X15686128Y-77278407D01*
X15843698Y-77422052D01*
X16024981Y-77534298D01*
X16223802Y-77611321D01*
X16433390Y-77650500D01*
X16433392Y-77650500D01*
X16646608Y-77650500D01*
X16646610Y-77650500D01*
X16856198Y-77611321D01*
X17055019Y-77534298D01*
X17236302Y-77422052D01*
X17393872Y-77278407D01*
X17522366Y-77108255D01*
X17576270Y-77000000D01*
X17617403Y-76917394D01*
X17617403Y-76917393D01*
X17617405Y-76917389D01*
X17675756Y-76712310D01*
X17686529Y-76596047D01*
X17712315Y-76531111D01*
X17754622Y-76500804D01*
X17863130Y-76500804D01*
X17899503Y-76521668D01*
X17931693Y-76583681D01*
X17933470Y-76596047D01*
X17944244Y-76712310D01*
X17981596Y-76843588D01*
X18002596Y-76917392D01*
X18002596Y-76917394D01*
X18097632Y-77108253D01*
X18226127Y-77278406D01*
X18226128Y-77278407D01*
X18383698Y-77422052D01*
X18564981Y-77534298D01*
X18763802Y-77611321D01*
X18973390Y-77650500D01*
X18973392Y-77650500D01*
X19186608Y-77650500D01*
X19186610Y-77650500D01*
X19396198Y-77611321D01*
X19595019Y-77534298D01*
X19776302Y-77422052D01*
X19933872Y-77278407D01*
X20062366Y-77108255D01*
X20116270Y-77000000D01*
X20157403Y-76917394D01*
X20157403Y-76917393D01*
X20157405Y-76917389D01*
X20215756Y-76712310D01*
X20226529Y-76596047D01*
X20252315Y-76531111D01*
X20294622Y-76500804D01*
X20403130Y-76500804D01*
X20439503Y-76521668D01*
X20471693Y-76583681D01*
X20473470Y-76596047D01*
X20484244Y-76712310D01*
X20521596Y-76843588D01*
X20542596Y-76917392D01*
X20542596Y-76917394D01*
X20637632Y-77108253D01*
X20766127Y-77278406D01*
X20766128Y-77278407D01*
X20923698Y-77422052D01*
X21104981Y-77534298D01*
X21303802Y-77611321D01*
X21513390Y-77650500D01*
X21513392Y-77650500D01*
X21726608Y-77650500D01*
X21726610Y-77650500D01*
X21936198Y-77611321D01*
X22135019Y-77534298D01*
X22316302Y-77422052D01*
X22473872Y-77278407D01*
X22602366Y-77108255D01*
X22656270Y-77000000D01*
X22697403Y-76917394D01*
X22697403Y-76917392D01*
X22697405Y-76917389D01*
X22718928Y-76841744D01*
X22756206Y-76782653D01*
X22819515Y-76753095D01*
X22888755Y-76762457D01*
X22941942Y-76807766D01*
X22957968Y-76843587D01*
X22980894Y-76929150D01*
X22980898Y-76929159D01*
X23073333Y-77127387D01*
X23198787Y-77306554D01*
X23353445Y-77461212D01*
X23532612Y-77586666D01*
X23730843Y-77679103D01*
X23910000Y-77727106D01*
X23910000Y-76935501D01*
X24017685Y-76984680D01*
X24124237Y-77000000D01*
X24195763Y-77000000D01*
X24302315Y-76984680D01*
X24410000Y-76935501D01*
X24410000Y-77727106D01*
X24589156Y-77679103D01*
X24589157Y-77679103D01*
X24787387Y-77586666D01*
X24966554Y-77461212D01*
X25121212Y-77306554D01*
X25246666Y-77127387D01*
X25339101Y-76929159D01*
X25339106Y-76929148D01*
X25362031Y-76843588D01*
X25398395Y-76783927D01*
X25461242Y-76753397D01*
X25530617Y-76761691D01*
X25584496Y-76806176D01*
X25601072Y-76841745D01*
X25622596Y-76917392D01*
X25622596Y-76917394D01*
X25717632Y-77108253D01*
X25846127Y-77278406D01*
X25846128Y-77278407D01*
X26003698Y-77422052D01*
X26184981Y-77534298D01*
X26383802Y-77611321D01*
X26593390Y-77650500D01*
X26593392Y-77650500D01*
X26806608Y-77650500D01*
X26806610Y-77650500D01*
X27016198Y-77611321D01*
X27215019Y-77534298D01*
X27396302Y-77422052D01*
X27553872Y-77278407D01*
X27682366Y-77108255D01*
X27736270Y-77000000D01*
X27777403Y-76917394D01*
X27777403Y-76917393D01*
X27777405Y-76917389D01*
X27835756Y-76712310D01*
X27846529Y-76596047D01*
X27872315Y-76531111D01*
X27914622Y-76500804D01*
X28023130Y-76500804D01*
X28059503Y-76521668D01*
X28091693Y-76583681D01*
X28093470Y-76596047D01*
X28104244Y-76712310D01*
X28141596Y-76843588D01*
X28162596Y-76917392D01*
X28162596Y-76917394D01*
X28257632Y-77108253D01*
X28386127Y-77278406D01*
X28386128Y-77278407D01*
X28543698Y-77422052D01*
X28724981Y-77534298D01*
X28923802Y-77611321D01*
X29133390Y-77650500D01*
X29133392Y-77650500D01*
X29346608Y-77650500D01*
X29346610Y-77650500D01*
X29556198Y-77611321D01*
X29755019Y-77534298D01*
X29936302Y-77422052D01*
X30093872Y-77278407D01*
X30222366Y-77108255D01*
X30276270Y-77000000D01*
X30317403Y-76917394D01*
X30317403Y-76917393D01*
X30317405Y-76917389D01*
X30375756Y-76712310D01*
X30386529Y-76596047D01*
X30412315Y-76531111D01*
X30454622Y-76500804D01*
X30563130Y-76500804D01*
X30599503Y-76521668D01*
X30631693Y-76583681D01*
X30633470Y-76596047D01*
X30644244Y-76712310D01*
X30681596Y-76843588D01*
X30702596Y-76917392D01*
X30702596Y-76917394D01*
X30797632Y-77108253D01*
X30926127Y-77278406D01*
X30926128Y-77278407D01*
X31083698Y-77422052D01*
X31264981Y-77534298D01*
X31463802Y-77611321D01*
X31673390Y-77650500D01*
X31673392Y-77650500D01*
X31886608Y-77650500D01*
X31886610Y-77650500D01*
X32096198Y-77611321D01*
X32295019Y-77534298D01*
X32476302Y-77422052D01*
X32633872Y-77278407D01*
X32762366Y-77108255D01*
X32816270Y-77000000D01*
X32857403Y-76917394D01*
X32857403Y-76917393D01*
X32857405Y-76917389D01*
X32915756Y-76712310D01*
X32926529Y-76596047D01*
X32952315Y-76531111D01*
X32994622Y-76500804D01*
X33103130Y-76500804D01*
X33139503Y-76521668D01*
X33171693Y-76583681D01*
X33173470Y-76596047D01*
X33184244Y-76712310D01*
X33221596Y-76843588D01*
X33242596Y-76917392D01*
X33242596Y-76917394D01*
X33337632Y-77108253D01*
X33466127Y-77278406D01*
X33466128Y-77278407D01*
X33623698Y-77422052D01*
X33804981Y-77534298D01*
X34003802Y-77611321D01*
X34213390Y-77650500D01*
X34213392Y-77650500D01*
X34426608Y-77650500D01*
X34426610Y-77650500D01*
X34636198Y-77611321D01*
X34835019Y-77534298D01*
X35016302Y-77422052D01*
X35173872Y-77278407D01*
X35302366Y-77108255D01*
X35356270Y-77000000D01*
X35397403Y-76917394D01*
X35397403Y-76917393D01*
X35397405Y-76917389D01*
X35455756Y-76712310D01*
X35466529Y-76596047D01*
X35492315Y-76531111D01*
X35534622Y-76500804D01*
X35643130Y-76500804D01*
X35679503Y-76521668D01*
X35711693Y-76583681D01*
X35713470Y-76596047D01*
X35724244Y-76712310D01*
X35761596Y-76843588D01*
X35782596Y-76917392D01*
X35782596Y-76917394D01*
X35877632Y-77108253D01*
X36006127Y-77278406D01*
X36006128Y-77278407D01*
X36163698Y-77422052D01*
X36344981Y-77534298D01*
X36543802Y-77611321D01*
X36753390Y-77650500D01*
X36753392Y-77650500D01*
X36966608Y-77650500D01*
X36966610Y-77650500D01*
X37176198Y-77611321D01*
X37375019Y-77534298D01*
X37556302Y-77422052D01*
X37713872Y-77278407D01*
X37842366Y-77108255D01*
X37896270Y-77000000D01*
X37937403Y-76917394D01*
X37937403Y-76917393D01*
X37937405Y-76917389D01*
X37995756Y-76712310D01*
X38015429Y-76500000D01*
X37995756Y-76287690D01*
X37937405Y-76082611D01*
X37937403Y-76082606D01*
X37937403Y-76082605D01*
X37842367Y-75891746D01*
X37713872Y-75721593D01*
X37586133Y-75605143D01*
X37556302Y-75577948D01*
X37375019Y-75465702D01*
X37375017Y-75465701D01*
X37239838Y-75413333D01*
X37176198Y-75388679D01*
X36966610Y-75349500D01*
X36753390Y-75349500D01*
X36543802Y-75388679D01*
X36543799Y-75388679D01*
X36543799Y-75388680D01*
X36344982Y-75465701D01*
X36344980Y-75465702D01*
X36163699Y-75577947D01*
X36006127Y-75721593D01*
X35877632Y-75891746D01*
X35782596Y-76082605D01*
X35782596Y-76082607D01*
X35724244Y-76287689D01*
X35713471Y-76403951D01*
X35687685Y-76468888D01*
X35643130Y-76500804D01*
X35534622Y-76500804D01*
X35536869Y-76499194D01*
X35500497Y-76478331D01*
X35468307Y-76416318D01*
X35466529Y-76403951D01*
X35463175Y-76367759D01*
X35455756Y-76287690D01*
X35397405Y-76082611D01*
X35397403Y-76082606D01*
X35397403Y-76082605D01*
X35302367Y-75891746D01*
X35173872Y-75721593D01*
X35046133Y-75605143D01*
X35016302Y-75577948D01*
X34835019Y-75465702D01*
X34835017Y-75465701D01*
X34699838Y-75413333D01*
X34636198Y-75388679D01*
X34426610Y-75349500D01*
X34213390Y-75349500D01*
X34003802Y-75388679D01*
X34003799Y-75388679D01*
X34003799Y-75388680D01*
X33804982Y-75465701D01*
X33804980Y-75465702D01*
X33623699Y-75577947D01*
X33466127Y-75721593D01*
X33337632Y-75891746D01*
X33242596Y-76082605D01*
X33242596Y-76082607D01*
X33184244Y-76287689D01*
X33173471Y-76403951D01*
X33147685Y-76468888D01*
X33103130Y-76500804D01*
X32994622Y-76500804D01*
X32996869Y-76499194D01*
X32960497Y-76478331D01*
X32928307Y-76416318D01*
X32926529Y-76403951D01*
X32923175Y-76367759D01*
X32915756Y-76287690D01*
X32857405Y-76082611D01*
X32857403Y-76082606D01*
X32857403Y-76082605D01*
X32762367Y-75891746D01*
X32633872Y-75721593D01*
X32506133Y-75605143D01*
X32476302Y-75577948D01*
X32295019Y-75465702D01*
X32295017Y-75465701D01*
X32159838Y-75413333D01*
X32096198Y-75388679D01*
X31886610Y-75349500D01*
X31673390Y-75349500D01*
X31463802Y-75388679D01*
X31463799Y-75388679D01*
X31463799Y-75388680D01*
X31264982Y-75465701D01*
X31264980Y-75465702D01*
X31083699Y-75577947D01*
X30926127Y-75721593D01*
X30797632Y-75891746D01*
X30702596Y-76082605D01*
X30702596Y-76082607D01*
X30644244Y-76287689D01*
X30633471Y-76403951D01*
X30607685Y-76468888D01*
X30563130Y-76500804D01*
X30454622Y-76500804D01*
X30456869Y-76499194D01*
X30420497Y-76478331D01*
X30388307Y-76416318D01*
X30386529Y-76403951D01*
X30383175Y-76367759D01*
X30375756Y-76287690D01*
X30317405Y-76082611D01*
X30317403Y-76082606D01*
X30317403Y-76082605D01*
X30222367Y-75891746D01*
X30093872Y-75721593D01*
X29966133Y-75605143D01*
X29936302Y-75577948D01*
X29755019Y-75465702D01*
X29755017Y-75465701D01*
X29619838Y-75413333D01*
X29556198Y-75388679D01*
X29346610Y-75349500D01*
X29133390Y-75349500D01*
X28923802Y-75388679D01*
X28923799Y-75388679D01*
X28923799Y-75388680D01*
X28724982Y-75465701D01*
X28724980Y-75465702D01*
X28543699Y-75577947D01*
X28386127Y-75721593D01*
X28257632Y-75891746D01*
X28162596Y-76082605D01*
X28162596Y-76082607D01*
X28104244Y-76287689D01*
X28093471Y-76403951D01*
X28067685Y-76468888D01*
X28023130Y-76500804D01*
X27914622Y-76500804D01*
X27916869Y-76499194D01*
X27880497Y-76478331D01*
X27848307Y-76416318D01*
X27846529Y-76403951D01*
X27843175Y-76367759D01*
X27835756Y-76287690D01*
X27777405Y-76082611D01*
X27777403Y-76082606D01*
X27777403Y-76082605D01*
X27682367Y-75891746D01*
X27553872Y-75721593D01*
X27426133Y-75605143D01*
X27396302Y-75577948D01*
X27215019Y-75465702D01*
X27215017Y-75465701D01*
X27079838Y-75413333D01*
X27016198Y-75388679D01*
X26806610Y-75349500D01*
X26593390Y-75349500D01*
X26383802Y-75388679D01*
X26383799Y-75388679D01*
X26383799Y-75388680D01*
X26184982Y-75465701D01*
X26184980Y-75465702D01*
X26003699Y-75577947D01*
X25846127Y-75721593D01*
X25717632Y-75891746D01*
X25622597Y-76082605D01*
X25601072Y-76158255D01*
X25563792Y-76217348D01*
X25500482Y-76246905D01*
X25431242Y-76237541D01*
X25378056Y-76192231D01*
X25362031Y-76156412D01*
X25339105Y-76070849D01*
X25339101Y-76070840D01*
X25246666Y-75872612D01*
X25246664Y-75872608D01*
X25121216Y-75693450D01*
X25121211Y-75693444D01*
X24966554Y-75538787D01*
X24787387Y-75413333D01*
X24589159Y-75320898D01*
X24589150Y-75320894D01*
X24410000Y-75272891D01*
X24410000Y-76064498D01*
X24302315Y-76015320D01*
X24195763Y-76000000D01*
X24124237Y-76000000D01*
X24017685Y-76015320D01*
X23910000Y-76064498D01*
X23910000Y-75272892D01*
X23909999Y-75272891D01*
X23730849Y-75320894D01*
X23730840Y-75320898D01*
X23532612Y-75413333D01*
X23532608Y-75413335D01*
X23353450Y-75538783D01*
X23353444Y-75538788D01*
X23198788Y-75693444D01*
X23198783Y-75693450D01*
X23073335Y-75872608D01*
X23073333Y-75872612D01*
X22980898Y-76070840D01*
X22980895Y-76070847D01*
X22957968Y-76156413D01*
X22921603Y-76216073D01*
X22858756Y-76246602D01*
X22789380Y-76238307D01*
X22735502Y-76193822D01*
X22718927Y-76158253D01*
X22697405Y-76082611D01*
X22697403Y-76082608D01*
X22697403Y-76082605D01*
X22602367Y-75891746D01*
X22473872Y-75721593D01*
X22346133Y-75605143D01*
X22316302Y-75577948D01*
X22135019Y-75465702D01*
X22135017Y-75465701D01*
X21999838Y-75413333D01*
X21936198Y-75388679D01*
X21726610Y-75349500D01*
X21513390Y-75349500D01*
X21303802Y-75388679D01*
X21303799Y-75388679D01*
X21303799Y-75388680D01*
X21104982Y-75465701D01*
X21104980Y-75465702D01*
X20923699Y-75577947D01*
X20766127Y-75721593D01*
X20637632Y-75891746D01*
X20542596Y-76082605D01*
X20542596Y-76082607D01*
X20484244Y-76287689D01*
X20473471Y-76403951D01*
X20447685Y-76468888D01*
X20403130Y-76500804D01*
X20294622Y-76500804D01*
X20296869Y-76499194D01*
X20260497Y-76478331D01*
X20228307Y-76416318D01*
X20226529Y-76403951D01*
X20223175Y-76367759D01*
X20215756Y-76287690D01*
X20157405Y-76082611D01*
X20157403Y-76082606D01*
X20157403Y-76082605D01*
X20062367Y-75891746D01*
X19933872Y-75721593D01*
X19806133Y-75605143D01*
X19776302Y-75577948D01*
X19595019Y-75465702D01*
X19595017Y-75465701D01*
X19459838Y-75413333D01*
X19396198Y-75388679D01*
X19186610Y-75349500D01*
X18973390Y-75349500D01*
X18763802Y-75388679D01*
X18763799Y-75388679D01*
X18763799Y-75388680D01*
X18564982Y-75465701D01*
X18564980Y-75465702D01*
X18383699Y-75577947D01*
X18226127Y-75721593D01*
X18097632Y-75891746D01*
X18002596Y-76082605D01*
X18002596Y-76082607D01*
X17944244Y-76287689D01*
X17933471Y-76403951D01*
X17907685Y-76468888D01*
X17863130Y-76500804D01*
X17754622Y-76500804D01*
X17756869Y-76499194D01*
X17720497Y-76478331D01*
X17688307Y-76416318D01*
X17686529Y-76403951D01*
X17683175Y-76367759D01*
X17675756Y-76287690D01*
X17617405Y-76082611D01*
X17617403Y-76082606D01*
X17617403Y-76082605D01*
X17522367Y-75891746D01*
X17393872Y-75721593D01*
X17266133Y-75605143D01*
X17236302Y-75577948D01*
X17055019Y-75465702D01*
X17055017Y-75465701D01*
X16919838Y-75413333D01*
X16856198Y-75388679D01*
X16646610Y-75349500D01*
X16433390Y-75349500D01*
X16223802Y-75388679D01*
X16223799Y-75388679D01*
X16223799Y-75388680D01*
X16024982Y-75465701D01*
X16024980Y-75465702D01*
X15843699Y-75577947D01*
X15686127Y-75721593D01*
X15557632Y-75891746D01*
X15462596Y-76082605D01*
X15462596Y-76082607D01*
X15404244Y-76287689D01*
X15397970Y-76355394D01*
X15372183Y-76420331D01*
X15315383Y-76461018D01*
X15245602Y-76464538D01*
X15184995Y-76429772D01*
X15152806Y-76367759D01*
X15150499Y-76343952D01*
X15150499Y-75605143D01*
X15150499Y-75605136D01*
X15150497Y-75605117D01*
X15147586Y-75580012D01*
X15147585Y-75580010D01*
X15147585Y-75580009D01*
X15102206Y-75477235D01*
X15022765Y-75397794D01*
X15002124Y-75388680D01*
X14919992Y-75352415D01*
X14894865Y-75349500D01*
X13105143Y-75349500D01*
X13105117Y-75349502D01*
X13080012Y-75352413D01*
X13080008Y-75352415D01*
X12977235Y-75397793D01*
X12897794Y-75477234D01*
X12852415Y-75580006D01*
X12852415Y-75580008D01*
X12849500Y-75605131D01*
X12849500Y-77394856D01*
X2000000Y-77394856D01*
X2000000Y-71947401D01*
X3395746Y-71947401D01*
X3405745Y-72157327D01*
X3455296Y-72361578D01*
X3455298Y-72361582D01*
X3542598Y-72552743D01*
X3542601Y-72552748D01*
X3542602Y-72552750D01*
X3542604Y-72552753D01*
X3605627Y-72641256D01*
X3664515Y-72723953D01*
X3664520Y-72723959D01*
X3816620Y-72868985D01*
X3957797Y-72959714D01*
X3993428Y-72982613D01*
X4188543Y-73060725D01*
X4291729Y-73080612D01*
X4394914Y-73100500D01*
X4394915Y-73100500D01*
X4552419Y-73100500D01*
X4552425Y-73100500D01*
X4709218Y-73085528D01*
X4910875Y-73026316D01*
X5097682Y-72930011D01*
X5262886Y-72800092D01*
X5400519Y-72641256D01*
X5505604Y-72459244D01*
X5574344Y-72260633D01*
X5604254Y-72052602D01*
X5599243Y-71947401D01*
X10395746Y-71947401D01*
X10405745Y-72157327D01*
X10455296Y-72361578D01*
X10455298Y-72361582D01*
X10542598Y-72552743D01*
X10542601Y-72552748D01*
X10542602Y-72552750D01*
X10542604Y-72552753D01*
X10605627Y-72641256D01*
X10664515Y-72723953D01*
X10664520Y-72723959D01*
X10816620Y-72868985D01*
X10957797Y-72959714D01*
X10993428Y-72982613D01*
X11188543Y-73060725D01*
X11291729Y-73080612D01*
X11394914Y-73100500D01*
X11394915Y-73100500D01*
X11552419Y-73100500D01*
X11552425Y-73100500D01*
X11709218Y-73085528D01*
X11910875Y-73026316D01*
X12097682Y-72930011D01*
X12262886Y-72800092D01*
X12400519Y-72641256D01*
X12505604Y-72459244D01*
X12574344Y-72260633D01*
X12588813Y-72160000D01*
X28844571Y-72160000D01*
X28864244Y-72372310D01*
X28915582Y-72552743D01*
X28922596Y-72577392D01*
X28922596Y-72577394D01*
X29017632Y-72768253D01*
X29146127Y-72938406D01*
X29146128Y-72938407D01*
X29303698Y-73082052D01*
X29484981Y-73194298D01*
X29683802Y-73271321D01*
X29893390Y-73310500D01*
X29893392Y-73310500D01*
X30106608Y-73310500D01*
X30106610Y-73310500D01*
X30316198Y-73271321D01*
X30515019Y-73194298D01*
X30696302Y-73082052D01*
X30853872Y-72938407D01*
X30982366Y-72768255D01*
X31004426Y-72723952D01*
X31077403Y-72577394D01*
X31077403Y-72577393D01*
X31077405Y-72577389D01*
X31135756Y-72372310D01*
X31146529Y-72256047D01*
X31172315Y-72191111D01*
X31216869Y-72159194D01*
X31180497Y-72138331D01*
X31148307Y-72076318D01*
X31146529Y-72063951D01*
X31145477Y-72052598D01*
X31135756Y-71947690D01*
X31077405Y-71742611D01*
X31077403Y-71742606D01*
X31077403Y-71742605D01*
X30982367Y-71551746D01*
X30853872Y-71381593D01*
X30738093Y-71276046D01*
X30696302Y-71237948D01*
X30515019Y-71125702D01*
X30515017Y-71125701D01*
X30371206Y-71069989D01*
X30316198Y-71048679D01*
X30119385Y-71011888D01*
X30057106Y-70980221D01*
X30021833Y-70919908D01*
X30024767Y-70850100D01*
X30064976Y-70792960D01*
X30119384Y-70768111D01*
X30316198Y-70731321D01*
X30515019Y-70654298D01*
X30696302Y-70542052D01*
X30853872Y-70398407D01*
X30982366Y-70228255D01*
X31077405Y-70037389D01*
X31135756Y-69832310D01*
X31146529Y-69716047D01*
X31172315Y-69651111D01*
X31216869Y-69619194D01*
X31180497Y-69598331D01*
X31148307Y-69536318D01*
X31146529Y-69523951D01*
X31145849Y-69516613D01*
X31135756Y-69407690D01*
X31077405Y-69202611D01*
X31077403Y-69202606D01*
X31077403Y-69202605D01*
X30982367Y-69011746D01*
X30853872Y-68841593D01*
X30846774Y-68835122D01*
X30696302Y-68697948D01*
X30515019Y-68585702D01*
X30515017Y-68585701D01*
X30415608Y-68547190D01*
X30316198Y-68508679D01*
X30119385Y-68471888D01*
X30057106Y-68440221D01*
X30021833Y-68379908D01*
X30024767Y-68310100D01*
X30064976Y-68252960D01*
X30119384Y-68228111D01*
X30316198Y-68191321D01*
X30515019Y-68114298D01*
X30696302Y-68002052D01*
X30853872Y-67858407D01*
X30982366Y-67688255D01*
X31077405Y-67497389D01*
X31135756Y-67292310D01*
X31146529Y-67176047D01*
X31172315Y-67111111D01*
X31216869Y-67079194D01*
X31180497Y-67058331D01*
X31148307Y-66996318D01*
X31146529Y-66983951D01*
X31145849Y-66976613D01*
X31135756Y-66867690D01*
X31077405Y-66662611D01*
X31077403Y-66662606D01*
X31077403Y-66662605D01*
X30982367Y-66471746D01*
X30853872Y-66301593D01*
X30696302Y-66157948D01*
X30515019Y-66045702D01*
X30515017Y-66045701D01*
X30415608Y-66007190D01*
X30316198Y-65968679D01*
X30119385Y-65931888D01*
X30057106Y-65900221D01*
X30021833Y-65839908D01*
X30024767Y-65770100D01*
X30064976Y-65712960D01*
X30119384Y-65688111D01*
X30316198Y-65651321D01*
X30515019Y-65574298D01*
X30696302Y-65462052D01*
X30853872Y-65318407D01*
X30982366Y-65148255D01*
X31077405Y-64957389D01*
X31135756Y-64752310D01*
X31146529Y-64636047D01*
X31172315Y-64571111D01*
X31216869Y-64539194D01*
X31180497Y-64518331D01*
X31148307Y-64456318D01*
X31146529Y-64443951D01*
X31145849Y-64436613D01*
X31135756Y-64327690D01*
X31077405Y-64122611D01*
X31077403Y-64122606D01*
X31077403Y-64122605D01*
X30982367Y-63931746D01*
X30853872Y-63761593D01*
X30696302Y-63617948D01*
X30515019Y-63505702D01*
X30515017Y-63505701D01*
X30415608Y-63467190D01*
X30316198Y-63428679D01*
X30143456Y-63396387D01*
X30081176Y-63364719D01*
X30045903Y-63304407D01*
X30048837Y-63234599D01*
X30089046Y-63177459D01*
X30153764Y-63151128D01*
X30166233Y-63150499D01*
X30894864Y-63150499D01*
X30894879Y-63150497D01*
X30894882Y-63150497D01*
X30919987Y-63147586D01*
X30919988Y-63147585D01*
X30919991Y-63147585D01*
X31022765Y-63102206D01*
X31102206Y-63022765D01*
X31147585Y-62919991D01*
X31150500Y-62894865D01*
X31150499Y-62156046D01*
X31170183Y-62089009D01*
X31222987Y-62043254D01*
X31292146Y-62033310D01*
X31355702Y-62062335D01*
X31393476Y-62121113D01*
X31397970Y-62144606D01*
X31404244Y-62212310D01*
X31462596Y-62417392D01*
X31462596Y-62417394D01*
X31557632Y-62608253D01*
X31557634Y-62608255D01*
X31686128Y-62778407D01*
X31843698Y-62922052D01*
X32024981Y-63034298D01*
X32223802Y-63111321D01*
X32420613Y-63148111D01*
X32482893Y-63179779D01*
X32518166Y-63240092D01*
X32515232Y-63309900D01*
X32475023Y-63367040D01*
X32420613Y-63391888D01*
X32223802Y-63428679D01*
X32223799Y-63428679D01*
X32223799Y-63428680D01*
X32024982Y-63505701D01*
X32024980Y-63505702D01*
X31843699Y-63617947D01*
X31686127Y-63761593D01*
X31557632Y-63931746D01*
X31462596Y-64122605D01*
X31462596Y-64122607D01*
X31404244Y-64327689D01*
X31393471Y-64443951D01*
X31367685Y-64508888D01*
X31323130Y-64540804D01*
X31359503Y-64561668D01*
X31391693Y-64623681D01*
X31393471Y-64636048D01*
X31404244Y-64752310D01*
X31462596Y-64957392D01*
X31462596Y-64957394D01*
X31557632Y-65148253D01*
X31557634Y-65148255D01*
X31686128Y-65318407D01*
X31843698Y-65462052D01*
X32024981Y-65574298D01*
X32223802Y-65651321D01*
X32420613Y-65688111D01*
X32482893Y-65719779D01*
X32518166Y-65780092D01*
X32515232Y-65849900D01*
X32475023Y-65907040D01*
X32420613Y-65931888D01*
X32223802Y-65968679D01*
X32223799Y-65968679D01*
X32223799Y-65968680D01*
X32024982Y-66045701D01*
X32024980Y-66045702D01*
X31843699Y-66157947D01*
X31686127Y-66301593D01*
X31557632Y-66471746D01*
X31462596Y-66662605D01*
X31462596Y-66662607D01*
X31404244Y-66867689D01*
X31393471Y-66983951D01*
X31367685Y-67048888D01*
X31323130Y-67080804D01*
X31359503Y-67101668D01*
X31391693Y-67163681D01*
X31393471Y-67176048D01*
X31404244Y-67292310D01*
X31462596Y-67497392D01*
X31462596Y-67497394D01*
X31557632Y-67688253D01*
X31557634Y-67688255D01*
X31686128Y-67858407D01*
X31843698Y-68002052D01*
X32024981Y-68114298D01*
X32223802Y-68191321D01*
X32420613Y-68228111D01*
X32482893Y-68259779D01*
X32518166Y-68320092D01*
X32515232Y-68389900D01*
X32475023Y-68447040D01*
X32420613Y-68471888D01*
X32223802Y-68508679D01*
X32223799Y-68508679D01*
X32223799Y-68508680D01*
X32024982Y-68585701D01*
X32024980Y-68585702D01*
X31843699Y-68697947D01*
X31686127Y-68841593D01*
X31557632Y-69011746D01*
X31462596Y-69202605D01*
X31462596Y-69202607D01*
X31404244Y-69407689D01*
X31393471Y-69523951D01*
X31367685Y-69588888D01*
X31323130Y-69620804D01*
X31359503Y-69641668D01*
X31391693Y-69703681D01*
X31393471Y-69716048D01*
X31404244Y-69832310D01*
X31462596Y-70037392D01*
X31462596Y-70037394D01*
X31557632Y-70228253D01*
X31679384Y-70389477D01*
X31686128Y-70398407D01*
X31843698Y-70542052D01*
X32024981Y-70654298D01*
X32223802Y-70731321D01*
X32420613Y-70768111D01*
X32482893Y-70799779D01*
X32518166Y-70860092D01*
X32515232Y-70929900D01*
X32475023Y-70987040D01*
X32420613Y-71011888D01*
X32223802Y-71048679D01*
X32223799Y-71048679D01*
X32223799Y-71048680D01*
X32024982Y-71125701D01*
X32024980Y-71125702D01*
X31843699Y-71237947D01*
X31686127Y-71381593D01*
X31557632Y-71551746D01*
X31462596Y-71742605D01*
X31462596Y-71742607D01*
X31404244Y-71947689D01*
X31393471Y-72063951D01*
X31367685Y-72128888D01*
X31323130Y-72160804D01*
X31359503Y-72181668D01*
X31391693Y-72243681D01*
X31393470Y-72256047D01*
X31404244Y-72372310D01*
X31455582Y-72552743D01*
X31462596Y-72577392D01*
X31462596Y-72577394D01*
X31557632Y-72768253D01*
X31686127Y-72938406D01*
X31686128Y-72938407D01*
X31843698Y-73082052D01*
X32024981Y-73194298D01*
X32223802Y-73271321D01*
X32433390Y-73310500D01*
X32433392Y-73310500D01*
X32646608Y-73310500D01*
X32646610Y-73310500D01*
X32856198Y-73271321D01*
X33055019Y-73194298D01*
X33236302Y-73082052D01*
X33393872Y-72938407D01*
X33522366Y-72768255D01*
X33544426Y-72723952D01*
X33617403Y-72577394D01*
X33617403Y-72577393D01*
X33617405Y-72577389D01*
X33675756Y-72372310D01*
X33695429Y-72160000D01*
X33675756Y-71947690D01*
X33617405Y-71742611D01*
X33617403Y-71742606D01*
X33617403Y-71742605D01*
X33522367Y-71551746D01*
X33393872Y-71381593D01*
X33278093Y-71276046D01*
X33236302Y-71237948D01*
X33055019Y-71125702D01*
X33055017Y-71125701D01*
X32911206Y-71069989D01*
X32856198Y-71048679D01*
X32659385Y-71011888D01*
X32597106Y-70980221D01*
X32561833Y-70919908D01*
X32564767Y-70850100D01*
X32604976Y-70792960D01*
X32659384Y-70768111D01*
X32856198Y-70731321D01*
X33055019Y-70654298D01*
X33236302Y-70542052D01*
X33393872Y-70398407D01*
X33522366Y-70228255D01*
X33617405Y-70037389D01*
X33675756Y-69832310D01*
X33695429Y-69620000D01*
X33675756Y-69407690D01*
X33617405Y-69202611D01*
X33617403Y-69202606D01*
X33617403Y-69202605D01*
X33522367Y-69011746D01*
X33393872Y-68841593D01*
X33386774Y-68835122D01*
X33236302Y-68697948D01*
X33055019Y-68585702D01*
X33055017Y-68585701D01*
X32955608Y-68547190D01*
X32856198Y-68508679D01*
X32659385Y-68471888D01*
X32597106Y-68440221D01*
X32561833Y-68379908D01*
X32564767Y-68310100D01*
X32604976Y-68252960D01*
X32659384Y-68228111D01*
X32856198Y-68191321D01*
X33055019Y-68114298D01*
X33236302Y-68002052D01*
X33393872Y-67858407D01*
X33522366Y-67688255D01*
X33617405Y-67497389D01*
X33675756Y-67292310D01*
X33695429Y-67080000D01*
X33675756Y-66867690D01*
X33617405Y-66662611D01*
X33617403Y-66662606D01*
X33617403Y-66662605D01*
X33522367Y-66471746D01*
X33393872Y-66301593D01*
X33236302Y-66157948D01*
X33055019Y-66045702D01*
X33055017Y-66045701D01*
X32955608Y-66007190D01*
X32856198Y-65968679D01*
X32659385Y-65931888D01*
X32597106Y-65900221D01*
X32561833Y-65839908D01*
X32564767Y-65770100D01*
X32604976Y-65712960D01*
X32659384Y-65688111D01*
X32856198Y-65651321D01*
X33055019Y-65574298D01*
X33236302Y-65462052D01*
X33393872Y-65318407D01*
X33522366Y-65148255D01*
X33617405Y-64957389D01*
X33675756Y-64752310D01*
X33695429Y-64540000D01*
X33675756Y-64327690D01*
X33617405Y-64122611D01*
X33617403Y-64122606D01*
X33617403Y-64122605D01*
X33522367Y-63931746D01*
X33393872Y-63761593D01*
X33236302Y-63617948D01*
X33055019Y-63505702D01*
X33055017Y-63505701D01*
X32955608Y-63467190D01*
X32856198Y-63428679D01*
X32659385Y-63391888D01*
X32597106Y-63360221D01*
X32561833Y-63299908D01*
X32564767Y-63230100D01*
X32604976Y-63172960D01*
X32659384Y-63148111D01*
X32856198Y-63111321D01*
X33055019Y-63034298D01*
X33236302Y-62922052D01*
X33393872Y-62778407D01*
X33522366Y-62608255D01*
X33617405Y-62417389D01*
X33675756Y-62212310D01*
X33695429Y-62000000D01*
X33675756Y-61787690D01*
X33617405Y-61582611D01*
X33617403Y-61582606D01*
X33617403Y-61582605D01*
X33522367Y-61391746D01*
X33393872Y-61221593D01*
X33266133Y-61105143D01*
X33236302Y-61077948D01*
X33055019Y-60965702D01*
X33055017Y-60965701D01*
X32955608Y-60927190D01*
X32856198Y-60888679D01*
X32646610Y-60849500D01*
X32433390Y-60849500D01*
X32223802Y-60888679D01*
X32223799Y-60888679D01*
X32223799Y-60888680D01*
X32024982Y-60965701D01*
X32024980Y-60965702D01*
X31843699Y-61077947D01*
X31686127Y-61221593D01*
X31557632Y-61391746D01*
X31462596Y-61582605D01*
X31462596Y-61582607D01*
X31404244Y-61787689D01*
X31397970Y-61855394D01*
X31372183Y-61920331D01*
X31315383Y-61961018D01*
X31245602Y-61964538D01*
X31184995Y-61929772D01*
X31152806Y-61867759D01*
X31150499Y-61843952D01*
X31150499Y-61105143D01*
X31150499Y-61105136D01*
X31150497Y-61105117D01*
X31147586Y-61080012D01*
X31147585Y-61080010D01*
X31147585Y-61080009D01*
X31102206Y-60977235D01*
X31022765Y-60897794D01*
X31002124Y-60888680D01*
X30919992Y-60852415D01*
X30894865Y-60849500D01*
X29105143Y-60849500D01*
X29105117Y-60849502D01*
X29080012Y-60852413D01*
X29080008Y-60852415D01*
X28977235Y-60897793D01*
X28897794Y-60977234D01*
X28852415Y-61080006D01*
X28852415Y-61080008D01*
X28849500Y-61105131D01*
X28849500Y-62894856D01*
X28849502Y-62894882D01*
X28852413Y-62919987D01*
X28852415Y-62919991D01*
X28897793Y-63022764D01*
X28897794Y-63022765D01*
X28977235Y-63102206D01*
X29080009Y-63147585D01*
X29105135Y-63150500D01*
X29833758Y-63150499D01*
X29900795Y-63170183D01*
X29946550Y-63222987D01*
X29956494Y-63292146D01*
X29927469Y-63355702D01*
X29868691Y-63393476D01*
X29856542Y-63396388D01*
X29800116Y-63406935D01*
X29683802Y-63428679D01*
X29683800Y-63428679D01*
X29683798Y-63428680D01*
X29484982Y-63505701D01*
X29484980Y-63505702D01*
X29303699Y-63617947D01*
X29146127Y-63761593D01*
X29017632Y-63931746D01*
X28922596Y-64122605D01*
X28922596Y-64122607D01*
X28864244Y-64327689D01*
X28844571Y-64539999D01*
X28844571Y-64540000D01*
X28864244Y-64752310D01*
X28922596Y-64957392D01*
X28922596Y-64957394D01*
X29017632Y-65148253D01*
X29017634Y-65148255D01*
X29146128Y-65318407D01*
X29303698Y-65462052D01*
X29484981Y-65574298D01*
X29683802Y-65651321D01*
X29880613Y-65688111D01*
X29942893Y-65719779D01*
X29978166Y-65780092D01*
X29975232Y-65849900D01*
X29935023Y-65907040D01*
X29880613Y-65931888D01*
X29683802Y-65968679D01*
X29683799Y-65968679D01*
X29683799Y-65968680D01*
X29484982Y-66045701D01*
X29484980Y-66045702D01*
X29303699Y-66157947D01*
X29146127Y-66301593D01*
X29017632Y-66471746D01*
X28922596Y-66662605D01*
X28922596Y-66662607D01*
X28864244Y-66867689D01*
X28844571Y-67079999D01*
X28844571Y-67080000D01*
X28864244Y-67292310D01*
X28922596Y-67497392D01*
X28922596Y-67497394D01*
X29017632Y-67688253D01*
X29017634Y-67688255D01*
X29146128Y-67858407D01*
X29303698Y-68002052D01*
X29484981Y-68114298D01*
X29683802Y-68191321D01*
X29880613Y-68228111D01*
X29942893Y-68259779D01*
X29978166Y-68320092D01*
X29975232Y-68389900D01*
X29935023Y-68447040D01*
X29880613Y-68471888D01*
X29683802Y-68508679D01*
X29683799Y-68508679D01*
X29683799Y-68508680D01*
X29484982Y-68585701D01*
X29484980Y-68585702D01*
X29303699Y-68697947D01*
X29146127Y-68841593D01*
X29017632Y-69011746D01*
X28922596Y-69202605D01*
X28922596Y-69202607D01*
X28864244Y-69407689D01*
X28844571Y-69619999D01*
X28844571Y-69620000D01*
X28864244Y-69832310D01*
X28922596Y-70037392D01*
X28922596Y-70037394D01*
X29017632Y-70228253D01*
X29139384Y-70389477D01*
X29146128Y-70398407D01*
X29303698Y-70542052D01*
X29484981Y-70654298D01*
X29683802Y-70731321D01*
X29880613Y-70768111D01*
X29942893Y-70799779D01*
X29978166Y-70860092D01*
X29975232Y-70929900D01*
X29935023Y-70987040D01*
X29880613Y-71011888D01*
X29683802Y-71048679D01*
X29683799Y-71048679D01*
X29683799Y-71048680D01*
X29484982Y-71125701D01*
X29484980Y-71125702D01*
X29303699Y-71237947D01*
X29146127Y-71381593D01*
X29017632Y-71551746D01*
X28922596Y-71742605D01*
X28922596Y-71742607D01*
X28894125Y-71842672D01*
X28864244Y-71947690D01*
X28844571Y-72160000D01*
X12588813Y-72160000D01*
X12604254Y-72052602D01*
X12594254Y-71842670D01*
X12544704Y-71638424D01*
X12544701Y-71638417D01*
X12457401Y-71447256D01*
X12457398Y-71447251D01*
X12457397Y-71447250D01*
X12457396Y-71447247D01*
X12335486Y-71276048D01*
X12335484Y-71276046D01*
X12335479Y-71276040D01*
X12183379Y-71131014D01*
X12006574Y-71017388D01*
X11992838Y-71011889D01*
X11897404Y-70973683D01*
X11811455Y-70939274D01*
X11605086Y-70899500D01*
X11605085Y-70899500D01*
X11447575Y-70899500D01*
X11290782Y-70914472D01*
X11290778Y-70914473D01*
X11089127Y-70973683D01*
X10902313Y-71069991D01*
X10737116Y-71199905D01*
X10737112Y-71199909D01*
X10599478Y-71358746D01*
X10494398Y-71540750D01*
X10425656Y-71739365D01*
X10425656Y-71739367D01*
X10410804Y-71842670D01*
X10395746Y-71947401D01*
X5599243Y-71947401D01*
X5594254Y-71842670D01*
X5544704Y-71638424D01*
X5544701Y-71638417D01*
X5457401Y-71447256D01*
X5457398Y-71447251D01*
X5457397Y-71447250D01*
X5457396Y-71447247D01*
X5335486Y-71276048D01*
X5335484Y-71276046D01*
X5335479Y-71276040D01*
X5183379Y-71131014D01*
X5006574Y-71017388D01*
X4992838Y-71011889D01*
X4897404Y-70973683D01*
X4811455Y-70939274D01*
X4605086Y-70899500D01*
X4605085Y-70899500D01*
X4447575Y-70899500D01*
X4290782Y-70914472D01*
X4290778Y-70914473D01*
X4089127Y-70973683D01*
X3902313Y-71069991D01*
X3737116Y-71199905D01*
X3737112Y-71199909D01*
X3599478Y-71358746D01*
X3494398Y-71540750D01*
X3425656Y-71739365D01*
X3425656Y-71739367D01*
X3410804Y-71842670D01*
X3395746Y-71947401D01*
X2000000Y-71947401D01*
X2000000Y-58630605D01*
X2019685Y-58563566D01*
X2072489Y-58517811D01*
X2141647Y-58507867D01*
X2205203Y-58536892D01*
X2242421Y-58594805D01*
X2242462Y-58594792D01*
X2242517Y-58594955D01*
X2242977Y-58595670D01*
X2243914Y-58599049D01*
X2243925Y-58599080D01*
X2243927Y-58599085D01*
X2243928Y-58599088D01*
X2349870Y-58848390D01*
X2421998Y-58966575D01*
X2490979Y-59079605D01*
X2490986Y-59079615D01*
X2664253Y-59287819D01*
X2664259Y-59287824D01*
X2865998Y-59468582D01*
X3091910Y-59618044D01*
X3337176Y-59733020D01*
X3337183Y-59733022D01*
X3337185Y-59733023D01*
X3596557Y-59811057D01*
X3596564Y-59811058D01*
X3596569Y-59811060D01*
X3864561Y-59850500D01*
X3864566Y-59850500D01*
X4067629Y-59850500D01*
X4067631Y-59850500D01*
X4067636Y-59850499D01*
X4067648Y-59850499D01*
X4105191Y-59847750D01*
X4270156Y-59835677D01*
X4382758Y-59810593D01*
X4534546Y-59776782D01*
X4534548Y-59776781D01*
X4534553Y-59776780D01*
X4787558Y-59680014D01*
X5023777Y-59547441D01*
X5238177Y-59381888D01*
X5426186Y-59186881D01*
X5583799Y-58966579D01*
X5657787Y-58822669D01*
X5707649Y-58725690D01*
X5707651Y-58725684D01*
X5707656Y-58725675D01*
X5795118Y-58469305D01*
X5844319Y-58202933D01*
X5854212Y-57932235D01*
X5824586Y-57662982D01*
X5756072Y-57400912D01*
X5650130Y-57151610D01*
X5509018Y-56920390D01*
X5419747Y-56813119D01*
X5335746Y-56712180D01*
X5335740Y-56712175D01*
X5134002Y-56531418D01*
X4908092Y-56381957D01*
X4908090Y-56381956D01*
X4662824Y-56266980D01*
X4662819Y-56266978D01*
X4662814Y-56266976D01*
X4403442Y-56188942D01*
X4403428Y-56188939D01*
X4287791Y-56171921D01*
X4135439Y-56149500D01*
X3932369Y-56149500D01*
X3932351Y-56149500D01*
X3729844Y-56164323D01*
X3729831Y-56164325D01*
X3465453Y-56223217D01*
X3465446Y-56223220D01*
X3212439Y-56319987D01*
X2976226Y-56452557D01*
X2761822Y-56618112D01*
X2573822Y-56813109D01*
X2573816Y-56813116D01*
X2416202Y-57033419D01*
X2416199Y-57033424D01*
X2292350Y-57274309D01*
X2292343Y-57274327D01*
X2241358Y-57423775D01*
X2201082Y-57480868D01*
X2136333Y-57507122D01*
X2067668Y-57494203D01*
X2016888Y-57446211D01*
X2000000Y-57383737D01*
X2000000Y-43630605D01*
X2019685Y-43563566D01*
X2072489Y-43517811D01*
X2141647Y-43507867D01*
X2205203Y-43536892D01*
X2242421Y-43594805D01*
X2242462Y-43594792D01*
X2242517Y-43594955D01*
X2242977Y-43595670D01*
X2243914Y-43599049D01*
X2243925Y-43599080D01*
X2243927Y-43599085D01*
X2243928Y-43599088D01*
X2349870Y-43848390D01*
X2421998Y-43966575D01*
X2490979Y-44079605D01*
X2490986Y-44079615D01*
X2664253Y-44287819D01*
X2664259Y-44287824D01*
X2865998Y-44468582D01*
X3091910Y-44618044D01*
X3337176Y-44733020D01*
X3337183Y-44733022D01*
X3337185Y-44733023D01*
X3596557Y-44811057D01*
X3596564Y-44811058D01*
X3596569Y-44811060D01*
X3864561Y-44850500D01*
X3864566Y-44850500D01*
X4067629Y-44850500D01*
X4067631Y-44850500D01*
X4067636Y-44850499D01*
X4067648Y-44850499D01*
X4105191Y-44847750D01*
X4270156Y-44835677D01*
X4382758Y-44810593D01*
X4534546Y-44776782D01*
X4534548Y-44776781D01*
X4534553Y-44776780D01*
X4787558Y-44680014D01*
X5023777Y-44547441D01*
X5238177Y-44381888D01*
X5426186Y-44186881D01*
X5583799Y-43966579D01*
X5657787Y-43822669D01*
X5707649Y-43725690D01*
X5707651Y-43725684D01*
X5707656Y-43725675D01*
X5795118Y-43469305D01*
X5844319Y-43202933D01*
X5854212Y-42932235D01*
X5824586Y-42662982D01*
X5756072Y-42400912D01*
X5659005Y-42172496D01*
X5650903Y-42103099D01*
X5681606Y-42040336D01*
X5741367Y-42004137D01*
X5773129Y-42000000D01*
X51876000Y-42000000D01*
X51943039Y-42019685D01*
G37*
G04 #@! TD.AperFunction*
G04 #@! TD*
G04 #@! TA.AperFunction,Conductor*
G04 #@! TO.N,GND*
G36*
X57719771Y-520185D02*
G01*
X57765526Y-572989D01*
X57771946Y-592806D01*
X57772555Y-592644D01*
X57773607Y-596573D01*
X57870514Y-882052D01*
X57870518Y-882062D01*
X58003868Y-1152469D01*
X58171371Y-1403155D01*
X58171374Y-1403159D01*
X58204973Y-1441470D01*
X58204974Y-1441470D01*
X58885073Y-761372D01*
X58961890Y-871078D01*
X59128922Y-1038110D01*
X59238626Y-1114925D01*
X58558528Y-1795024D01*
X58558528Y-1795025D01*
X58596840Y-1828625D01*
X58596844Y-1828628D01*
X58847530Y-1996131D01*
X59117937Y-2129481D01*
X59117947Y-2129485D01*
X59403426Y-2226392D01*
X59403446Y-2226397D01*
X59699135Y-2285213D01*
X59699147Y-2285215D01*
X60000000Y-2304934D01*
X60300852Y-2285215D01*
X60300864Y-2285213D01*
X60596553Y-2226397D01*
X60596573Y-2226392D01*
X60882052Y-2129485D01*
X60882062Y-2129481D01*
X61152469Y-1996131D01*
X61403157Y-1828627D01*
X61441470Y-1795025D01*
X61441470Y-1795023D01*
X60761373Y-1114926D01*
X60871078Y-1038110D01*
X61038110Y-871078D01*
X61114926Y-761373D01*
X61795023Y-1441470D01*
X61795025Y-1441470D01*
X61828627Y-1403157D01*
X61996131Y-1152469D01*
X62129481Y-882062D01*
X62129485Y-882052D01*
X62226392Y-596573D01*
X62227445Y-592644D01*
X62229337Y-593151D01*
X62258197Y-538231D01*
X62318977Y-503771D01*
X62347268Y-500500D01*
X99375500Y-500500D01*
X99442539Y-520185D01*
X99488294Y-572989D01*
X99499500Y-624500D01*
X99499500Y-7570500D01*
X99479815Y-7637539D01*
X99427011Y-7683294D01*
X99375500Y-7694500D01*
X28124000Y-7694500D01*
X28123991Y-7694500D01*
X28123990Y-7694501D01*
X28059064Y-7701481D01*
X28059052Y-7701483D01*
X28007546Y-7712688D01*
X27969345Y-7723644D01*
X27969341Y-7723646D01*
X27872431Y-7780323D01*
X27872428Y-7780325D01*
X27819623Y-7826081D01*
X27819612Y-7826091D01*
X27777451Y-7870807D01*
X27777445Y-7870816D01*
X27726560Y-7970890D01*
X27706877Y-8037921D01*
X27694500Y-8124002D01*
X27694500Y-41570500D01*
X27674815Y-41637539D01*
X27622011Y-41683294D01*
X27570500Y-41694500D01*
X5773129Y-41694500D01*
X5733667Y-41697059D01*
X5733659Y-41697060D01*
X5701907Y-41701196D01*
X5688172Y-41703303D01*
X5688161Y-41703306D01*
X5583089Y-41742835D01*
X5526887Y-41776878D01*
X5459348Y-41794773D01*
X5392855Y-41773313D01*
X5367333Y-41750137D01*
X5345285Y-41723644D01*
X5335745Y-41712180D01*
X5335741Y-41712176D01*
X5335740Y-41712175D01*
X5134002Y-41531418D01*
X4908092Y-41381957D01*
X4908090Y-41381956D01*
X4662824Y-41266980D01*
X4662819Y-41266978D01*
X4662814Y-41266976D01*
X4403442Y-41188942D01*
X4403428Y-41188939D01*
X4287791Y-41171921D01*
X4135439Y-41149500D01*
X3932369Y-41149500D01*
X3932351Y-41149500D01*
X3729844Y-41164323D01*
X3729831Y-41164325D01*
X3465453Y-41223217D01*
X3465446Y-41223220D01*
X3212439Y-41319987D01*
X2976226Y-41452557D01*
X2761822Y-41618112D01*
X2630828Y-41753981D01*
X2570126Y-41788581D01*
X2500355Y-41784870D01*
X2485358Y-41778448D01*
X2383311Y-41726560D01*
X2316280Y-41706877D01*
X2316274Y-41706876D01*
X2230202Y-41694500D01*
X2124000Y-41694500D01*
X2123991Y-41694500D01*
X2123990Y-41694501D01*
X2059064Y-41701481D01*
X2059052Y-41701483D01*
X2007546Y-41712688D01*
X1969345Y-41723644D01*
X1969341Y-41723646D01*
X1872431Y-41780323D01*
X1872428Y-41780325D01*
X1819623Y-41826081D01*
X1819612Y-41826091D01*
X1777451Y-41870807D01*
X1777445Y-41870816D01*
X1726560Y-41970890D01*
X1706877Y-42037921D01*
X1694500Y-42124002D01*
X1694500Y-42383740D01*
X1705084Y-42463453D01*
X1705088Y-42463470D01*
X1721972Y-42525928D01*
X1721973Y-42525932D01*
X1741009Y-42577441D01*
X1741011Y-42577445D01*
X1807048Y-42668241D01*
X1857828Y-42716233D01*
X1906539Y-42753756D01*
X1906540Y-42753756D01*
X1906541Y-42753757D01*
X1906540Y-42753757D01*
X2011180Y-42794435D01*
X2049901Y-42801720D01*
X2112145Y-42833461D01*
X2147348Y-42893814D01*
X2150891Y-42928110D01*
X2145787Y-43067763D01*
X2146844Y-43077370D01*
X2134606Y-43146159D01*
X2087120Y-43197412D01*
X2041238Y-43213662D01*
X2037060Y-43214263D01*
X2029006Y-43215421D01*
X1969343Y-43230250D01*
X1969339Y-43230252D01*
X1872436Y-43286925D01*
X1872428Y-43286930D01*
X1819623Y-43332686D01*
X1819612Y-43332696D01*
X1777451Y-43377412D01*
X1777445Y-43377421D01*
X1726560Y-43477495D01*
X1706877Y-43544526D01*
X1694500Y-43630607D01*
X1694500Y-57383740D01*
X1705084Y-57463453D01*
X1705088Y-57463470D01*
X1721972Y-57525928D01*
X1721973Y-57525932D01*
X1741009Y-57577441D01*
X1741011Y-57577445D01*
X1807048Y-57668241D01*
X1857828Y-57716233D01*
X1906539Y-57753756D01*
X1906540Y-57753756D01*
X1906541Y-57753757D01*
X1906540Y-57753757D01*
X2011180Y-57794435D01*
X2049901Y-57801720D01*
X2112145Y-57833461D01*
X2147348Y-57893814D01*
X2150891Y-57928110D01*
X2145787Y-58067763D01*
X2146844Y-58077370D01*
X2134606Y-58146159D01*
X2087120Y-58197412D01*
X2041238Y-58213662D01*
X2037060Y-58214263D01*
X2029006Y-58215421D01*
X1969343Y-58230250D01*
X1969339Y-58230252D01*
X1872436Y-58286925D01*
X1872428Y-58286930D01*
X1819623Y-58332686D01*
X1819612Y-58332696D01*
X1777451Y-58377412D01*
X1777445Y-58377421D01*
X1726560Y-58477495D01*
X1706877Y-58544526D01*
X1706876Y-58544533D01*
X1694500Y-58630605D01*
X1694500Y-61155000D01*
X1694500Y-64539999D01*
X1694500Y-67079999D01*
X1694500Y-69619999D01*
X1694500Y-71962005D01*
X1694500Y-75655000D01*
X1694500Y-77876000D01*
X1694501Y-77876009D01*
X1701481Y-77940935D01*
X1701483Y-77940947D01*
X1712688Y-77992453D01*
X1723644Y-78030654D01*
X1723646Y-78030658D01*
X1780323Y-78127568D01*
X1780325Y-78127571D01*
X1826081Y-78180376D01*
X1826091Y-78180387D01*
X1870807Y-78222548D01*
X1870809Y-78222549D01*
X1870813Y-78222553D01*
X1970889Y-78273439D01*
X2037928Y-78293124D01*
X2124000Y-78305500D01*
X2124003Y-78305500D01*
X51875990Y-78305500D01*
X51876000Y-78305500D01*
X51940941Y-78298518D01*
X51992452Y-78287312D01*
X52030658Y-78276354D01*
X52127571Y-78219675D01*
X52180375Y-78173920D01*
X52180382Y-78173912D01*
X52180387Y-78173908D01*
X52222548Y-78129192D01*
X52222553Y-78129187D01*
X52273439Y-78029111D01*
X52293124Y-77962072D01*
X52305500Y-77876000D01*
X52305500Y-71580140D01*
X84513411Y-71580140D01*
X84549951Y-71599317D01*
X84549950Y-71599317D01*
X84715006Y-71640000D01*
X84884994Y-71640000D01*
X85050044Y-71599318D01*
X85086585Y-71580140D01*
X85913411Y-71580140D01*
X85949951Y-71599317D01*
X85949950Y-71599317D01*
X86115006Y-71640000D01*
X86284994Y-71640000D01*
X86450044Y-71599318D01*
X86486587Y-71580139D01*
X86200001Y-71293553D01*
X86200000Y-71293553D01*
X85913411Y-71580140D01*
X85086585Y-71580140D01*
X85086587Y-71580139D01*
X84800001Y-71293553D01*
X84800000Y-71293553D01*
X84513411Y-71580140D01*
X52305500Y-71580140D01*
X52305500Y-71296030D01*
X52303671Y-71262647D01*
X52300710Y-71235712D01*
X52299761Y-71227988D01*
X52299760Y-71227986D01*
X52299217Y-71223563D01*
X52310577Y-71154623D01*
X52357406Y-71102769D01*
X52371838Y-71095166D01*
X52452730Y-71059151D01*
X52605871Y-70947888D01*
X52732533Y-70807216D01*
X52827179Y-70643284D01*
X52882069Y-70474351D01*
X52921506Y-70416675D01*
X52985865Y-70389477D01*
X53054711Y-70401392D01*
X53106187Y-70448636D01*
X53117931Y-70474351D01*
X53172818Y-70643277D01*
X53172821Y-70643284D01*
X53267467Y-70807216D01*
X53357771Y-70907508D01*
X53394129Y-70947888D01*
X53547265Y-71059148D01*
X53547270Y-71059151D01*
X53720192Y-71136142D01*
X53720197Y-71136144D01*
X53905354Y-71175500D01*
X53905355Y-71175500D01*
X54094644Y-71175500D01*
X54094646Y-71175500D01*
X54279803Y-71136144D01*
X54452730Y-71059151D01*
X54605871Y-70947888D01*
X54666872Y-70880140D01*
X83813411Y-70880140D01*
X83849952Y-70899317D01*
X84014218Y-70939806D01*
X84074599Y-70974963D01*
X84106387Y-71037182D01*
X84107639Y-71045256D01*
X84115349Y-71108752D01*
X84159989Y-71226457D01*
X84413955Y-70972492D01*
X84700000Y-70972492D01*
X84738197Y-71025065D01*
X84784162Y-71040000D01*
X84815838Y-71040000D01*
X84861803Y-71025065D01*
X84900000Y-70972492D01*
X84900000Y-70940000D01*
X85153553Y-70940000D01*
X85440009Y-71226456D01*
X85473973Y-71219166D01*
X85526024Y-71219166D01*
X85559989Y-71226457D01*
X85813955Y-70972492D01*
X86100000Y-70972492D01*
X86138197Y-71025065D01*
X86184162Y-71040000D01*
X86215838Y-71040000D01*
X86261803Y-71025065D01*
X86300000Y-70972492D01*
X86300000Y-70940000D01*
X86553553Y-70940000D01*
X86840009Y-71226456D01*
X86884650Y-71108751D01*
X86884651Y-71108747D01*
X86892360Y-71045258D01*
X86919981Y-70981080D01*
X86977915Y-70942022D01*
X86985781Y-70939806D01*
X87150044Y-70899318D01*
X87186586Y-70880139D01*
X86900000Y-70593553D01*
X86553553Y-70940000D01*
X86300000Y-70940000D01*
X86300000Y-70907508D01*
X86261803Y-70854935D01*
X86215838Y-70840000D01*
X86184162Y-70840000D01*
X86138197Y-70854935D01*
X86100000Y-70907508D01*
X86100000Y-70972492D01*
X85813955Y-70972492D01*
X85846447Y-70940000D01*
X85500000Y-70593553D01*
X85153553Y-70940000D01*
X84900000Y-70940000D01*
X84900000Y-70907508D01*
X84861803Y-70854935D01*
X84815838Y-70840000D01*
X84784162Y-70840000D01*
X84738197Y-70854935D01*
X84700000Y-70907508D01*
X84700000Y-70972492D01*
X84413955Y-70972492D01*
X84446447Y-70940000D01*
X84446447Y-70939999D01*
X84100001Y-70593553D01*
X84100000Y-70593553D01*
X83813411Y-70880140D01*
X54666872Y-70880140D01*
X54732533Y-70807216D01*
X54827179Y-70643284D01*
X54885674Y-70463256D01*
X54900500Y-70322192D01*
X54900500Y-70240000D01*
X83394859Y-70240000D01*
X83415348Y-70408751D01*
X83459989Y-70526457D01*
X83713955Y-70272492D01*
X84000000Y-70272492D01*
X84038197Y-70325065D01*
X84084162Y-70340000D01*
X84115838Y-70340000D01*
X84161803Y-70325065D01*
X84200000Y-70272492D01*
X84200000Y-70240000D01*
X84453553Y-70240000D01*
X84800000Y-70586447D01*
X85113955Y-70272492D01*
X85400000Y-70272492D01*
X85438197Y-70325065D01*
X85484162Y-70340000D01*
X85515838Y-70340000D01*
X85561803Y-70325065D01*
X85600000Y-70272492D01*
X85600000Y-70240000D01*
X85853553Y-70240000D01*
X86200000Y-70586447D01*
X86513955Y-70272492D01*
X86800000Y-70272492D01*
X86838197Y-70325065D01*
X86884162Y-70340000D01*
X86915838Y-70340000D01*
X86961803Y-70325065D01*
X87000000Y-70272492D01*
X87000000Y-70240000D01*
X87253553Y-70240000D01*
X87540009Y-70526456D01*
X87584650Y-70408751D01*
X87584651Y-70408748D01*
X87605141Y-70240000D01*
X87605141Y-70239999D01*
X87584651Y-70071251D01*
X87584650Y-70071248D01*
X87540009Y-69953542D01*
X87253553Y-70239999D01*
X87253553Y-70240000D01*
X87000000Y-70240000D01*
X87000000Y-70207508D01*
X86961803Y-70154935D01*
X86915838Y-70140000D01*
X86884162Y-70140000D01*
X86838197Y-70154935D01*
X86800000Y-70207508D01*
X86800000Y-70272492D01*
X86513955Y-70272492D01*
X86546447Y-70240000D01*
X86200000Y-69893553D01*
X85853553Y-70240000D01*
X85600000Y-70240000D01*
X85600000Y-70207508D01*
X85561803Y-70154935D01*
X85515838Y-70140000D01*
X85484162Y-70140000D01*
X85438197Y-70154935D01*
X85400000Y-70207508D01*
X85400000Y-70272492D01*
X85113955Y-70272492D01*
X85146447Y-70240000D01*
X84800000Y-69893553D01*
X84453553Y-70240000D01*
X84200000Y-70240000D01*
X84200000Y-70207508D01*
X84161803Y-70154935D01*
X84115838Y-70140000D01*
X84084162Y-70140000D01*
X84038197Y-70154935D01*
X84000000Y-70207508D01*
X84000000Y-70272492D01*
X83713955Y-70272492D01*
X83746447Y-70240000D01*
X83746447Y-70239999D01*
X83459989Y-69953541D01*
X83459988Y-69953542D01*
X83415349Y-70071248D01*
X83394859Y-70239999D01*
X83394859Y-70240000D01*
X54900500Y-70240000D01*
X54900500Y-69677808D01*
X54892307Y-69599859D01*
X83813411Y-69599859D01*
X84099999Y-69886447D01*
X84413955Y-69572492D01*
X84700000Y-69572492D01*
X84738197Y-69625065D01*
X84784162Y-69640000D01*
X84815838Y-69640000D01*
X84861803Y-69625065D01*
X84900000Y-69572492D01*
X84900000Y-69540000D01*
X85153553Y-69540000D01*
X85500000Y-69886447D01*
X85813955Y-69572492D01*
X86100000Y-69572492D01*
X86138197Y-69625065D01*
X86184162Y-69640000D01*
X86215838Y-69640000D01*
X86261803Y-69625065D01*
X86300000Y-69572492D01*
X86300000Y-69540000D01*
X86553553Y-69540000D01*
X86900000Y-69886447D01*
X86900001Y-69886447D01*
X87186586Y-69599860D01*
X87180315Y-69558661D01*
X87180315Y-69521341D01*
X87186586Y-69480139D01*
X86900000Y-69193553D01*
X86553553Y-69540000D01*
X86300000Y-69540000D01*
X86300000Y-69507508D01*
X86261803Y-69454935D01*
X86215838Y-69440000D01*
X86184162Y-69440000D01*
X86138197Y-69454935D01*
X86100000Y-69507508D01*
X86100000Y-69572492D01*
X85813955Y-69572492D01*
X85846447Y-69540000D01*
X85500000Y-69193553D01*
X85153553Y-69540000D01*
X84900000Y-69540000D01*
X84900000Y-69507508D01*
X84861803Y-69454935D01*
X84815838Y-69440000D01*
X84784162Y-69440000D01*
X84738197Y-69454935D01*
X84700000Y-69507508D01*
X84700000Y-69572492D01*
X84413955Y-69572492D01*
X84446447Y-69540000D01*
X84446447Y-69539999D01*
X84100001Y-69193553D01*
X84100000Y-69193553D01*
X83813411Y-69480140D01*
X83819683Y-69521342D01*
X83819683Y-69558660D01*
X83813411Y-69599859D01*
X54892307Y-69599859D01*
X54885674Y-69536744D01*
X54827179Y-69356716D01*
X54732533Y-69192784D01*
X54605871Y-69052112D01*
X54605870Y-69052111D01*
X54452734Y-68940851D01*
X54452729Y-68940848D01*
X54279807Y-68863857D01*
X54279802Y-68863855D01*
X54167570Y-68840000D01*
X83394859Y-68840000D01*
X83415348Y-69008751D01*
X83459989Y-69126457D01*
X83713955Y-68872492D01*
X84000000Y-68872492D01*
X84038197Y-68925065D01*
X84084162Y-68940000D01*
X84115838Y-68940000D01*
X84161803Y-68925065D01*
X84200000Y-68872492D01*
X84200000Y-68840000D01*
X84453553Y-68840000D01*
X84800000Y-69186447D01*
X85113955Y-68872492D01*
X85400000Y-68872492D01*
X85438197Y-68925065D01*
X85484162Y-68940000D01*
X85515838Y-68940000D01*
X85561803Y-68925065D01*
X85600000Y-68872492D01*
X85600000Y-68840000D01*
X85853553Y-68840000D01*
X86200000Y-69186447D01*
X86513955Y-68872492D01*
X86800000Y-68872492D01*
X86838197Y-68925065D01*
X86884162Y-68940000D01*
X86915838Y-68940000D01*
X86961803Y-68925065D01*
X87000000Y-68872492D01*
X87000000Y-68840000D01*
X87253553Y-68840000D01*
X87540009Y-69126456D01*
X87584650Y-69008751D01*
X87584651Y-69008748D01*
X87605141Y-68840000D01*
X87605141Y-68839999D01*
X87584651Y-68671251D01*
X87584650Y-68671248D01*
X87540009Y-68553542D01*
X87253553Y-68839999D01*
X87253553Y-68840000D01*
X87000000Y-68840000D01*
X87000000Y-68807508D01*
X86961803Y-68754935D01*
X86915838Y-68740000D01*
X86884162Y-68740000D01*
X86838197Y-68754935D01*
X86800000Y-68807508D01*
X86800000Y-68872492D01*
X86513955Y-68872492D01*
X86546447Y-68840000D01*
X86200000Y-68493553D01*
X85853553Y-68840000D01*
X85600000Y-68840000D01*
X85600000Y-68807508D01*
X85561803Y-68754935D01*
X85515838Y-68740000D01*
X85484162Y-68740000D01*
X85438197Y-68754935D01*
X85400000Y-68807508D01*
X85400000Y-68872492D01*
X85113955Y-68872492D01*
X85146447Y-68840000D01*
X84800000Y-68493553D01*
X84453553Y-68840000D01*
X84200000Y-68840000D01*
X84200000Y-68807508D01*
X84161803Y-68754935D01*
X84115838Y-68740000D01*
X84084162Y-68740000D01*
X84038197Y-68754935D01*
X84000000Y-68807508D01*
X84000000Y-68872492D01*
X83713955Y-68872492D01*
X83746447Y-68840000D01*
X83746447Y-68839999D01*
X83459989Y-68553541D01*
X83459988Y-68553542D01*
X83415349Y-68671248D01*
X83394859Y-68839999D01*
X83394859Y-68840000D01*
X54167570Y-68840000D01*
X54134001Y-68832865D01*
X54094646Y-68824500D01*
X53905354Y-68824500D01*
X53872897Y-68831398D01*
X53720197Y-68863855D01*
X53720192Y-68863857D01*
X53547270Y-68940848D01*
X53547265Y-68940851D01*
X53394129Y-69052111D01*
X53267466Y-69192785D01*
X53172821Y-69356715D01*
X53172818Y-69356722D01*
X53117931Y-69525648D01*
X53078493Y-69583324D01*
X53014135Y-69610522D01*
X52945288Y-69598607D01*
X52893813Y-69551363D01*
X52882069Y-69525648D01*
X52827181Y-69356722D01*
X52827180Y-69356721D01*
X52827179Y-69356716D01*
X52732533Y-69192784D01*
X52605871Y-69052112D01*
X52605870Y-69052111D01*
X52452734Y-68940851D01*
X52452729Y-68940848D01*
X52367991Y-68903120D01*
X52314754Y-68857870D01*
X52294433Y-68791020D01*
X52295689Y-68772198D01*
X52305500Y-68703969D01*
X52305500Y-68199859D01*
X83813411Y-68199859D01*
X84099999Y-68486447D01*
X84413955Y-68172492D01*
X84700000Y-68172492D01*
X84738197Y-68225065D01*
X84784162Y-68240000D01*
X84815838Y-68240000D01*
X84861803Y-68225065D01*
X84900000Y-68172492D01*
X84900000Y-68140000D01*
X85153553Y-68140000D01*
X85500000Y-68486447D01*
X85813955Y-68172492D01*
X86100000Y-68172492D01*
X86138197Y-68225065D01*
X86184162Y-68240000D01*
X86215838Y-68240000D01*
X86261803Y-68225065D01*
X86300000Y-68172492D01*
X86300000Y-68140000D01*
X86553553Y-68140000D01*
X86900000Y-68486447D01*
X86900001Y-68486447D01*
X87186587Y-68199860D01*
X87186586Y-68199859D01*
X87150046Y-68180682D01*
X86985780Y-68140193D01*
X86925400Y-68105036D01*
X86893612Y-68042816D01*
X86892360Y-68034741D01*
X86884651Y-67971252D01*
X86884650Y-67971248D01*
X86840009Y-67853542D01*
X86553553Y-68139999D01*
X86553553Y-68140000D01*
X86300000Y-68140000D01*
X86300000Y-68107508D01*
X86261803Y-68054935D01*
X86215838Y-68040000D01*
X86184162Y-68040000D01*
X86138197Y-68054935D01*
X86100000Y-68107508D01*
X86100000Y-68172492D01*
X85813955Y-68172492D01*
X85846447Y-68140000D01*
X85846447Y-68139999D01*
X85559989Y-67853541D01*
X85526025Y-67860832D01*
X85473976Y-67860833D01*
X85440009Y-67853542D01*
X85153553Y-68139999D01*
X85153553Y-68140000D01*
X84900000Y-68140000D01*
X84900000Y-68107508D01*
X84861803Y-68054935D01*
X84815838Y-68040000D01*
X84784162Y-68040000D01*
X84738197Y-68054935D01*
X84700000Y-68107508D01*
X84700000Y-68172492D01*
X84413955Y-68172492D01*
X84446447Y-68140000D01*
X84446447Y-68139999D01*
X84159989Y-67853541D01*
X84159988Y-67853542D01*
X84115349Y-67971247D01*
X84107639Y-68034743D01*
X84080017Y-68098921D01*
X84022082Y-68137977D01*
X84014219Y-68140193D01*
X83849953Y-68180682D01*
X83849946Y-68180684D01*
X83813412Y-68199858D01*
X83813411Y-68199859D01*
X52305500Y-68199859D01*
X52305500Y-67499859D01*
X84513411Y-67499859D01*
X84800000Y-67786447D01*
X84800001Y-67786447D01*
X85086587Y-67499860D01*
X85086586Y-67499859D01*
X85913411Y-67499859D01*
X86200000Y-67786447D01*
X86200001Y-67786447D01*
X86486587Y-67499860D01*
X86486586Y-67499859D01*
X86450046Y-67480682D01*
X86284994Y-67440000D01*
X86115006Y-67440000D01*
X85949953Y-67480682D01*
X85949946Y-67480684D01*
X85913412Y-67499858D01*
X85913411Y-67499859D01*
X85086586Y-67499859D01*
X85050046Y-67480682D01*
X84884994Y-67440000D01*
X84715006Y-67440000D01*
X84549953Y-67480682D01*
X84549946Y-67480684D01*
X84513412Y-67499858D01*
X84513411Y-67499859D01*
X52305500Y-67499859D01*
X52305500Y-56570000D01*
X94783033Y-56570000D01*
X94789334Y-56599645D01*
X94866286Y-56772481D01*
X94977487Y-56925535D01*
X95118081Y-57052127D01*
X95118084Y-57052129D01*
X95281915Y-57146716D01*
X95281927Y-57146721D01*
X95461845Y-57205180D01*
X95602841Y-57220000D01*
X95700000Y-57220000D01*
X95700000Y-56620000D01*
X96200000Y-56620000D01*
X96200000Y-57220000D01*
X96297159Y-57220000D01*
X96438154Y-57205180D01*
X96618072Y-57146721D01*
X96618084Y-57146716D01*
X96781915Y-57052129D01*
X96781918Y-57052127D01*
X96922509Y-56925539D01*
X96922511Y-56925536D01*
X97033717Y-56772477D01*
X97110664Y-56599648D01*
X97116967Y-56570000D01*
X96416111Y-56570000D01*
X96455610Y-56545543D01*
X96523201Y-56456038D01*
X96553895Y-56348160D01*
X96543546Y-56236479D01*
X96493552Y-56136078D01*
X96421069Y-56070000D01*
X97116967Y-56070000D01*
X97110665Y-56040354D01*
X97033713Y-55867518D01*
X96922512Y-55714464D01*
X96781918Y-55587872D01*
X96781915Y-55587870D01*
X96618084Y-55493283D01*
X96618072Y-55493278D01*
X96438154Y-55434819D01*
X96297159Y-55420000D01*
X96200000Y-55420000D01*
X96200000Y-56020000D01*
X95700000Y-56020000D01*
X95700000Y-55420000D01*
X95602841Y-55420000D01*
X95461845Y-55434819D01*
X95281927Y-55493278D01*
X95281915Y-55493283D01*
X95118084Y-55587870D01*
X95118081Y-55587872D01*
X94977490Y-55714460D01*
X94977488Y-55714463D01*
X94866282Y-55867522D01*
X94789335Y-56040351D01*
X94783033Y-56070000D01*
X95483889Y-56070000D01*
X95444390Y-56094457D01*
X95376799Y-56183962D01*
X95346105Y-56291840D01*
X95356454Y-56403521D01*
X95406448Y-56503922D01*
X95478931Y-56570000D01*
X94783033Y-56570000D01*
X52305500Y-56570000D01*
X52305500Y-52829999D01*
X58772891Y-52829999D01*
X58772892Y-52830000D01*
X59566314Y-52830000D01*
X59540507Y-52870156D01*
X59500000Y-53008111D01*
X59500000Y-53151889D01*
X59540507Y-53289844D01*
X59566314Y-53330000D01*
X58772892Y-53330000D01*
X58820894Y-53509150D01*
X58820898Y-53509159D01*
X58913333Y-53707387D01*
X59038787Y-53886554D01*
X59193445Y-54041212D01*
X59372612Y-54166666D01*
X59570843Y-54259103D01*
X59750000Y-54307106D01*
X59750000Y-53515501D01*
X59857685Y-53564680D01*
X59964237Y-53580000D01*
X60035763Y-53580000D01*
X60142315Y-53564680D01*
X60250000Y-53515501D01*
X60250000Y-54307105D01*
X60429156Y-54259103D01*
X60429157Y-54259103D01*
X60627387Y-54166666D01*
X60806554Y-54041212D01*
X60961212Y-53886554D01*
X61086666Y-53707387D01*
X61179101Y-53509159D01*
X61179105Y-53509150D01*
X61227108Y-53330000D01*
X60433686Y-53330000D01*
X60459493Y-53289844D01*
X60500000Y-53151889D01*
X60500000Y-53008111D01*
X60459493Y-52870156D01*
X60433686Y-52830000D01*
X61227108Y-52830000D01*
X61227108Y-52829999D01*
X61179105Y-52650849D01*
X61179101Y-52650840D01*
X61086666Y-52452612D01*
X61086664Y-52452608D01*
X60961216Y-52273450D01*
X60961211Y-52273444D01*
X60806554Y-52118787D01*
X60627387Y-51993333D01*
X60429159Y-51900898D01*
X60429150Y-51900894D01*
X60348263Y-51879221D01*
X60288602Y-51842856D01*
X60258073Y-51780009D01*
X60266368Y-51710634D01*
X60310853Y-51656756D01*
X60335558Y-51643820D01*
X60515019Y-51574298D01*
X60696302Y-51462052D01*
X60853872Y-51318407D01*
X60982366Y-51148255D01*
X61077405Y-50957389D01*
X61135756Y-50752310D01*
X61155429Y-50540000D01*
X61135756Y-50327690D01*
X61077405Y-50122611D01*
X61077403Y-50122606D01*
X61077403Y-50122605D01*
X60982367Y-49931746D01*
X60853872Y-49761593D01*
X60761335Y-49677234D01*
X60696302Y-49617948D01*
X60515019Y-49505702D01*
X60515017Y-49505701D01*
X60415608Y-49467190D01*
X60316198Y-49428679D01*
X60143456Y-49396387D01*
X60081176Y-49364719D01*
X60045903Y-49304407D01*
X60048837Y-49234599D01*
X60089046Y-49177459D01*
X60153764Y-49151128D01*
X60166233Y-49150499D01*
X60894864Y-49150499D01*
X60894879Y-49150497D01*
X60894882Y-49150497D01*
X60919987Y-49147586D01*
X60919988Y-49147585D01*
X60919991Y-49147585D01*
X61022765Y-49102206D01*
X61102206Y-49022765D01*
X61147585Y-48919991D01*
X61150500Y-48894865D01*
X61150499Y-47930000D01*
X94783033Y-47930000D01*
X94789334Y-47959645D01*
X94866286Y-48132481D01*
X94977487Y-48285535D01*
X95118081Y-48412127D01*
X95118084Y-48412129D01*
X95281915Y-48506716D01*
X95281927Y-48506721D01*
X95461845Y-48565180D01*
X95602841Y-48580000D01*
X95700000Y-48580000D01*
X95700000Y-47980000D01*
X96200000Y-47980000D01*
X96200000Y-48580000D01*
X96297159Y-48580000D01*
X96438154Y-48565180D01*
X96618072Y-48506721D01*
X96618084Y-48506716D01*
X96781915Y-48412129D01*
X96781918Y-48412127D01*
X96922509Y-48285539D01*
X96922511Y-48285536D01*
X97033717Y-48132477D01*
X97110664Y-47959648D01*
X97116967Y-47930000D01*
X96416111Y-47930000D01*
X96455610Y-47905543D01*
X96523201Y-47816038D01*
X96553895Y-47708160D01*
X96543546Y-47596479D01*
X96493552Y-47496078D01*
X96421069Y-47430000D01*
X97116967Y-47430000D01*
X97110665Y-47400354D01*
X97033713Y-47227518D01*
X96922512Y-47074464D01*
X96781918Y-46947872D01*
X96781915Y-46947870D01*
X96618084Y-46853283D01*
X96618072Y-46853278D01*
X96438154Y-46794819D01*
X96297159Y-46780000D01*
X96200000Y-46780000D01*
X96200000Y-47380000D01*
X95700000Y-47380000D01*
X95700000Y-46780000D01*
X95602841Y-46780000D01*
X95461845Y-46794819D01*
X95281927Y-46853278D01*
X95281915Y-46853283D01*
X95118084Y-46947870D01*
X95118081Y-46947872D01*
X94977490Y-47074460D01*
X94977488Y-47074463D01*
X94866282Y-47227522D01*
X94789335Y-47400351D01*
X94783033Y-47430000D01*
X95483889Y-47430000D01*
X95444390Y-47454457D01*
X95376799Y-47543962D01*
X95346105Y-47651840D01*
X95356454Y-47763521D01*
X95406448Y-47863922D01*
X95478931Y-47930000D01*
X94783033Y-47930000D01*
X61150499Y-47930000D01*
X61150499Y-47105136D01*
X61150497Y-47105117D01*
X61147586Y-47080012D01*
X61147585Y-47080010D01*
X61147585Y-47080009D01*
X61102206Y-46977235D01*
X61022765Y-46897794D01*
X61022763Y-46897793D01*
X60919992Y-46852415D01*
X60894865Y-46849500D01*
X59105143Y-46849500D01*
X59105117Y-46849502D01*
X59080012Y-46852413D01*
X59080008Y-46852415D01*
X58977235Y-46897793D01*
X58897794Y-46977234D01*
X58852415Y-47080006D01*
X58852415Y-47080008D01*
X58849500Y-47105131D01*
X58849500Y-48894856D01*
X58849502Y-48894882D01*
X58852413Y-48919987D01*
X58852415Y-48919991D01*
X58897793Y-49022764D01*
X58897794Y-49022765D01*
X58977235Y-49102206D01*
X59080009Y-49147585D01*
X59105135Y-49150500D01*
X59833758Y-49150499D01*
X59900795Y-49170183D01*
X59946550Y-49222987D01*
X59956494Y-49292146D01*
X59927469Y-49355702D01*
X59868691Y-49393476D01*
X59856542Y-49396388D01*
X59800116Y-49406935D01*
X59683802Y-49428679D01*
X59683800Y-49428679D01*
X59683798Y-49428680D01*
X59484982Y-49505701D01*
X59484980Y-49505702D01*
X59303699Y-49617947D01*
X59146127Y-49761593D01*
X59017632Y-49931746D01*
X58922596Y-50122605D01*
X58922596Y-50122607D01*
X58864244Y-50327689D01*
X58844571Y-50539999D01*
X58844571Y-50540000D01*
X58864244Y-50752310D01*
X58922596Y-50957392D01*
X58922596Y-50957394D01*
X59017632Y-51148253D01*
X59017634Y-51148255D01*
X59146128Y-51318407D01*
X59303698Y-51462052D01*
X59484981Y-51574298D01*
X59664437Y-51643819D01*
X59719838Y-51686392D01*
X59743429Y-51752159D01*
X59727718Y-51820239D01*
X59677694Y-51869018D01*
X59651737Y-51879221D01*
X59570847Y-51900895D01*
X59570840Y-51900898D01*
X59372612Y-51993333D01*
X59372608Y-51993335D01*
X59193450Y-52118783D01*
X59193444Y-52118788D01*
X59038788Y-52273444D01*
X59038783Y-52273450D01*
X58913335Y-52452608D01*
X58913333Y-52452612D01*
X58820898Y-52650840D01*
X58820894Y-52650849D01*
X58772891Y-52829999D01*
X52305500Y-52829999D01*
X52305500Y-42429500D01*
X52325185Y-42362461D01*
X52377989Y-42316706D01*
X52429500Y-42305500D01*
X99375500Y-42305500D01*
X99442539Y-42325185D01*
X99488294Y-42377989D01*
X99499500Y-42429500D01*
X99499500Y-46671853D01*
X99479815Y-46738892D01*
X99427011Y-46784647D01*
X99398012Y-46792569D01*
X99398203Y-46793468D01*
X99391845Y-46794819D01*
X99211927Y-46853278D01*
X99211915Y-46853283D01*
X99048084Y-46947870D01*
X99048081Y-46947872D01*
X98907490Y-47074460D01*
X98907488Y-47074463D01*
X98796282Y-47227522D01*
X98719335Y-47400351D01*
X98713033Y-47430000D01*
X99375500Y-47430000D01*
X99401540Y-47437646D01*
X99374390Y-47454457D01*
X99306799Y-47543962D01*
X99276105Y-47651840D01*
X99286454Y-47763521D01*
X99336448Y-47863922D01*
X99402490Y-47924128D01*
X99375500Y-47930000D01*
X98713033Y-47930000D01*
X98719334Y-47959645D01*
X98796286Y-48132481D01*
X98907487Y-48285535D01*
X99048079Y-48412125D01*
X99181840Y-48489351D01*
X99230056Y-48539918D01*
X99243280Y-48608525D01*
X99217312Y-48673390D01*
X99195331Y-48695112D01*
X99189551Y-48699547D01*
X99097300Y-48819770D01*
X99039313Y-48959763D01*
X99039312Y-48959765D01*
X99019534Y-49109999D01*
X99019534Y-49110000D01*
X99039312Y-49260234D01*
X99039313Y-49260236D01*
X99082591Y-49364719D01*
X99097302Y-49400233D01*
X99189549Y-49520451D01*
X99309767Y-49612698D01*
X99309770Y-49612699D01*
X99309771Y-49612700D01*
X99422952Y-49659581D01*
X99477356Y-49703422D01*
X99499421Y-49769716D01*
X99499500Y-49774142D01*
X99499500Y-54225857D01*
X99479815Y-54292896D01*
X99427011Y-54338651D01*
X99422953Y-54340418D01*
X99309770Y-54387300D01*
X99189549Y-54479549D01*
X99097300Y-54599770D01*
X99039313Y-54739763D01*
X99039312Y-54739765D01*
X99019534Y-54889999D01*
X99019534Y-54890000D01*
X99039312Y-55040234D01*
X99039313Y-55040236D01*
X99097302Y-55180233D01*
X99189549Y-55300451D01*
X99195327Y-55304884D01*
X99236529Y-55361310D01*
X99240685Y-55431056D01*
X99206474Y-55491977D01*
X99181841Y-55510647D01*
X99048081Y-55587873D01*
X98907490Y-55714460D01*
X98907488Y-55714463D01*
X98796282Y-55867522D01*
X98719335Y-56040351D01*
X98713033Y-56070000D01*
X99375500Y-56070000D01*
X99401540Y-56077646D01*
X99374390Y-56094457D01*
X99306799Y-56183962D01*
X99276105Y-56291840D01*
X99286454Y-56403521D01*
X99336448Y-56503922D01*
X99402490Y-56564128D01*
X99375500Y-56570000D01*
X98713033Y-56570000D01*
X98719334Y-56599645D01*
X98796286Y-56772481D01*
X98907487Y-56925535D01*
X99048081Y-57052127D01*
X99048084Y-57052129D01*
X99211915Y-57146716D01*
X99211927Y-57146721D01*
X99391853Y-57205183D01*
X99398211Y-57206535D01*
X99397760Y-57208653D01*
X99453070Y-57231406D01*
X99493058Y-57288701D01*
X99499500Y-57328147D01*
X99499500Y-78626000D01*
X99479815Y-78693039D01*
X99427011Y-78738794D01*
X99375500Y-78750000D01*
X60000000Y-78750000D01*
X60000000Y-79375500D01*
X59980315Y-79442539D01*
X59927511Y-79488294D01*
X59876000Y-79499500D01*
X624500Y-79499500D01*
X557461Y-79479815D01*
X511706Y-79427011D01*
X500500Y-79375500D01*
X500500Y-6944856D01*
X57799500Y-6944856D01*
X57799502Y-6944882D01*
X57802413Y-6969987D01*
X57802415Y-6969991D01*
X57847793Y-7072764D01*
X57847794Y-7072765D01*
X57927235Y-7152206D01*
X58030009Y-7197585D01*
X58055135Y-7200500D01*
X61944864Y-7200499D01*
X61944879Y-7200497D01*
X61944882Y-7200497D01*
X61969987Y-7197586D01*
X61969988Y-7197585D01*
X61969991Y-7197585D01*
X62072765Y-7152206D01*
X62152206Y-7072765D01*
X62197585Y-6969991D01*
X62200500Y-6944865D01*
X62200500Y-6790649D01*
X68750000Y-6790649D01*
X68752899Y-6827489D01*
X68752900Y-6827495D01*
X68798716Y-6985193D01*
X68798717Y-6985196D01*
X68882314Y-7126552D01*
X68882321Y-7126561D01*
X68998438Y-7242678D01*
X68998447Y-7242685D01*
X69139803Y-7326282D01*
X69139806Y-7326283D01*
X69297504Y-7372099D01*
X69297510Y-7372100D01*
X69334350Y-7374999D01*
X69334366Y-7375000D01*
X69750000Y-7375000D01*
X69750000Y-6408018D01*
X69864801Y-6460446D01*
X69966025Y-6475000D01*
X70033975Y-6475000D01*
X70135199Y-6460446D01*
X70250000Y-6408018D01*
X70250000Y-7375000D01*
X70665634Y-7375000D01*
X70665649Y-7374999D01*
X70702489Y-7372100D01*
X70702495Y-7372099D01*
X70860193Y-7326283D01*
X70860196Y-7326282D01*
X71001552Y-7242685D01*
X71001561Y-7242678D01*
X71117678Y-7126561D01*
X71117685Y-7126552D01*
X71201282Y-6985196D01*
X71201283Y-6985193D01*
X71247099Y-6827495D01*
X71247100Y-6827489D01*
X71249999Y-6790649D01*
X71250000Y-6790634D01*
X71250000Y-6722988D01*
X71269685Y-6655949D01*
X71322489Y-6610194D01*
X71391647Y-6600250D01*
X71455203Y-6629275D01*
X71484999Y-6667714D01*
X71512522Y-6722988D01*
X71517635Y-6733257D01*
X71576390Y-6811060D01*
X71646128Y-6903407D01*
X71803698Y-7047052D01*
X71984981Y-7159298D01*
X72183802Y-7236321D01*
X72393390Y-7275500D01*
X72393392Y-7275500D01*
X72606608Y-7275500D01*
X72606610Y-7275500D01*
X72816198Y-7236321D01*
X73015019Y-7159298D01*
X73196302Y-7047052D01*
X73353872Y-6903407D01*
X73482366Y-6733255D01*
X73515000Y-6667717D01*
X73577403Y-6542394D01*
X73577403Y-6542393D01*
X73577405Y-6542389D01*
X73630734Y-6354959D01*
X73668014Y-6295867D01*
X73731323Y-6266310D01*
X73800563Y-6275672D01*
X73853749Y-6320982D01*
X73869265Y-6354959D01*
X73901594Y-6468581D01*
X73922596Y-6542392D01*
X73922596Y-6542394D01*
X74017632Y-6733253D01*
X74050504Y-6776782D01*
X74146128Y-6903407D01*
X74303698Y-7047052D01*
X74484981Y-7159298D01*
X74683802Y-7236321D01*
X74893390Y-7275500D01*
X74893392Y-7275500D01*
X75106608Y-7275500D01*
X75106610Y-7275500D01*
X75316198Y-7236321D01*
X75515019Y-7159298D01*
X75696302Y-7047052D01*
X75853872Y-6903407D01*
X75982366Y-6733255D01*
X76015000Y-6667717D01*
X76077403Y-6542394D01*
X76077403Y-6542393D01*
X76077405Y-6542389D01*
X76130734Y-6354959D01*
X76168014Y-6295867D01*
X76231323Y-6266310D01*
X76300563Y-6275672D01*
X76353749Y-6320982D01*
X76369265Y-6354959D01*
X76401594Y-6468581D01*
X76422596Y-6542392D01*
X76422596Y-6542394D01*
X76517632Y-6733253D01*
X76550504Y-6776782D01*
X76646128Y-6903407D01*
X76803698Y-7047052D01*
X76984981Y-7159298D01*
X77183802Y-7236321D01*
X77393390Y-7275500D01*
X77393392Y-7275500D01*
X77606608Y-7275500D01*
X77606610Y-7275500D01*
X77816198Y-7236321D01*
X78015019Y-7159298D01*
X78196302Y-7047052D01*
X78353872Y-6903407D01*
X78482366Y-6733255D01*
X78515000Y-6667717D01*
X78577403Y-6542394D01*
X78577403Y-6542393D01*
X78577405Y-6542389D01*
X78630734Y-6354959D01*
X78668014Y-6295867D01*
X78731323Y-6266310D01*
X78800563Y-6275672D01*
X78853749Y-6320982D01*
X78869265Y-6354959D01*
X78901594Y-6468581D01*
X78922596Y-6542392D01*
X78922596Y-6542394D01*
X79017632Y-6733253D01*
X79050504Y-6776782D01*
X79146128Y-6903407D01*
X79303698Y-7047052D01*
X79484981Y-7159298D01*
X79683802Y-7236321D01*
X79893390Y-7275500D01*
X79893392Y-7275500D01*
X80106608Y-7275500D01*
X80106610Y-7275500D01*
X80316198Y-7236321D01*
X80515019Y-7159298D01*
X80696302Y-7047052D01*
X80853872Y-6903407D01*
X80939024Y-6790649D01*
X85250000Y-6790649D01*
X85252899Y-6827489D01*
X85252900Y-6827495D01*
X85298716Y-6985193D01*
X85298717Y-6985196D01*
X85382314Y-7126552D01*
X85382321Y-7126561D01*
X85498438Y-7242678D01*
X85498447Y-7242685D01*
X85639803Y-7326282D01*
X85639806Y-7326283D01*
X85797504Y-7372099D01*
X85797510Y-7372100D01*
X85834350Y-7374999D01*
X85834366Y-7375000D01*
X86250000Y-7375000D01*
X86250000Y-6408018D01*
X86364801Y-6460446D01*
X86466025Y-6475000D01*
X86533975Y-6475000D01*
X86635199Y-6460446D01*
X86750000Y-6408018D01*
X86750000Y-7375000D01*
X87165634Y-7375000D01*
X87165649Y-7374999D01*
X87202489Y-7372100D01*
X87202495Y-7372099D01*
X87360193Y-7326283D01*
X87360196Y-7326282D01*
X87501552Y-7242685D01*
X87501561Y-7242678D01*
X87617678Y-7126561D01*
X87617685Y-7126552D01*
X87701282Y-6985196D01*
X87701283Y-6985193D01*
X87747099Y-6827495D01*
X87747100Y-6827489D01*
X87749999Y-6790649D01*
X87750000Y-6790634D01*
X87750000Y-6722988D01*
X87769685Y-6655949D01*
X87822489Y-6610194D01*
X87891647Y-6600250D01*
X87955203Y-6629275D01*
X87984999Y-6667714D01*
X88012522Y-6722988D01*
X88017635Y-6733257D01*
X88076390Y-6811060D01*
X88146128Y-6903407D01*
X88303698Y-7047052D01*
X88484981Y-7159298D01*
X88683802Y-7236321D01*
X88893390Y-7275500D01*
X88893392Y-7275500D01*
X89106608Y-7275500D01*
X89106610Y-7275500D01*
X89316198Y-7236321D01*
X89515019Y-7159298D01*
X89696302Y-7047052D01*
X89853872Y-6903407D01*
X89982366Y-6733255D01*
X90015000Y-6667717D01*
X90077403Y-6542394D01*
X90077403Y-6542393D01*
X90077405Y-6542389D01*
X90130734Y-6354959D01*
X90168014Y-6295867D01*
X90231323Y-6266310D01*
X90300563Y-6275672D01*
X90353749Y-6320982D01*
X90369265Y-6354959D01*
X90401594Y-6468581D01*
X90422596Y-6542392D01*
X90422596Y-6542394D01*
X90517632Y-6733253D01*
X90550504Y-6776782D01*
X90646128Y-6903407D01*
X90803698Y-7047052D01*
X90984981Y-7159298D01*
X91183802Y-7236321D01*
X91393390Y-7275500D01*
X91393392Y-7275500D01*
X91606608Y-7275500D01*
X91606610Y-7275500D01*
X91816198Y-7236321D01*
X92015019Y-7159298D01*
X92196302Y-7047052D01*
X92353872Y-6903407D01*
X92482366Y-6733255D01*
X92515000Y-6667717D01*
X92577403Y-6542394D01*
X92577403Y-6542393D01*
X92577405Y-6542389D01*
X92630734Y-6354959D01*
X92668014Y-6295867D01*
X92731323Y-6266310D01*
X92800563Y-6275672D01*
X92853749Y-6320982D01*
X92869265Y-6354959D01*
X92901594Y-6468581D01*
X92922596Y-6542392D01*
X92922596Y-6542394D01*
X93017632Y-6733253D01*
X93050504Y-6776782D01*
X93146128Y-6903407D01*
X93303698Y-7047052D01*
X93484981Y-7159298D01*
X93683802Y-7236321D01*
X93893390Y-7275500D01*
X93893392Y-7275500D01*
X94106608Y-7275500D01*
X94106610Y-7275500D01*
X94316198Y-7236321D01*
X94515019Y-7159298D01*
X94696302Y-7047052D01*
X94853872Y-6903407D01*
X94982366Y-6733255D01*
X95015000Y-6667717D01*
X95077403Y-6542394D01*
X95077403Y-6542393D01*
X95077405Y-6542389D01*
X95130734Y-6354959D01*
X95168014Y-6295867D01*
X95231323Y-6266310D01*
X95300563Y-6275672D01*
X95353749Y-6320982D01*
X95369265Y-6354959D01*
X95401594Y-6468581D01*
X95422596Y-6542392D01*
X95422596Y-6542394D01*
X95517632Y-6733253D01*
X95550504Y-6776782D01*
X95646128Y-6903407D01*
X95803698Y-7047052D01*
X95984981Y-7159298D01*
X96183802Y-7236321D01*
X96393390Y-7275500D01*
X96393392Y-7275500D01*
X96606608Y-7275500D01*
X96606610Y-7275500D01*
X96816198Y-7236321D01*
X97015019Y-7159298D01*
X97196302Y-7047052D01*
X97353872Y-6903407D01*
X97482366Y-6733255D01*
X97515000Y-6667717D01*
X97577403Y-6542394D01*
X97577403Y-6542393D01*
X97577405Y-6542389D01*
X97635756Y-6337310D01*
X97650500Y-6178194D01*
X97650500Y-5821806D01*
X97635756Y-5662690D01*
X97577405Y-5457611D01*
X97577403Y-5457606D01*
X97577403Y-5457605D01*
X97482367Y-5266746D01*
X97353872Y-5096593D01*
X97322247Y-5067763D01*
X97196302Y-4952948D01*
X97015019Y-4840702D01*
X97015017Y-4840701D01*
X96902383Y-4797067D01*
X96816198Y-4763679D01*
X96606610Y-4724500D01*
X96393390Y-4724500D01*
X96183802Y-4763679D01*
X96183799Y-4763679D01*
X96183799Y-4763680D01*
X95984982Y-4840701D01*
X95984980Y-4840702D01*
X95803699Y-4952947D01*
X95646127Y-5096593D01*
X95517632Y-5266746D01*
X95422596Y-5457605D01*
X95422596Y-5457607D01*
X95369266Y-5645039D01*
X95331986Y-5704132D01*
X95268676Y-5733689D01*
X95199437Y-5724327D01*
X95146251Y-5679017D01*
X95130734Y-5645039D01*
X95104320Y-5552206D01*
X95077405Y-5457611D01*
X95077403Y-5457606D01*
X95077403Y-5457605D01*
X94982367Y-5266746D01*
X94853872Y-5096593D01*
X94822247Y-5067763D01*
X94696302Y-4952948D01*
X94515019Y-4840702D01*
X94515017Y-4840701D01*
X94402383Y-4797067D01*
X94316198Y-4763679D01*
X94106610Y-4724500D01*
X93893390Y-4724500D01*
X93683802Y-4763679D01*
X93683799Y-4763679D01*
X93683799Y-4763680D01*
X93484982Y-4840701D01*
X93484980Y-4840702D01*
X93303699Y-4952947D01*
X93146127Y-5096593D01*
X93017632Y-5266746D01*
X92922596Y-5457605D01*
X92922596Y-5457607D01*
X92869266Y-5645039D01*
X92831986Y-5704132D01*
X92768676Y-5733689D01*
X92699437Y-5724327D01*
X92646251Y-5679017D01*
X92630734Y-5645039D01*
X92604320Y-5552206D01*
X92577405Y-5457611D01*
X92577403Y-5457606D01*
X92577403Y-5457605D01*
X92482367Y-5266746D01*
X92353872Y-5096593D01*
X92322247Y-5067763D01*
X92196302Y-4952948D01*
X92015019Y-4840702D01*
X92015017Y-4840701D01*
X91902383Y-4797067D01*
X91816198Y-4763679D01*
X91606610Y-4724500D01*
X91393390Y-4724500D01*
X91183802Y-4763679D01*
X91183799Y-4763679D01*
X91183799Y-4763680D01*
X90984982Y-4840701D01*
X90984980Y-4840702D01*
X90803699Y-4952947D01*
X90646127Y-5096593D01*
X90517632Y-5266746D01*
X90422596Y-5457605D01*
X90422596Y-5457607D01*
X90369266Y-5645039D01*
X90331986Y-5704132D01*
X90268676Y-5733689D01*
X90199437Y-5724327D01*
X90146251Y-5679017D01*
X90130734Y-5645039D01*
X90104320Y-5552206D01*
X90077405Y-5457611D01*
X90077403Y-5457606D01*
X90077403Y-5457605D01*
X89982367Y-5266746D01*
X89853872Y-5096593D01*
X89822247Y-5067763D01*
X89696302Y-4952948D01*
X89515019Y-4840702D01*
X89515017Y-4840701D01*
X89402383Y-4797067D01*
X89316198Y-4763679D01*
X89106610Y-4724500D01*
X88893390Y-4724500D01*
X88683802Y-4763679D01*
X88683799Y-4763679D01*
X88683799Y-4763680D01*
X88484982Y-4840701D01*
X88484980Y-4840702D01*
X88303699Y-4952947D01*
X88146127Y-5096593D01*
X88017634Y-5266744D01*
X87985000Y-5332283D01*
X87937497Y-5383520D01*
X87869834Y-5400941D01*
X87803494Y-5379015D01*
X87759539Y-5324704D01*
X87750000Y-5277011D01*
X87750000Y-5209365D01*
X87749999Y-5209350D01*
X87747100Y-5172510D01*
X87747099Y-5172504D01*
X87701283Y-5014806D01*
X87701282Y-5014803D01*
X87617685Y-4873447D01*
X87617678Y-4873438D01*
X87501561Y-4757321D01*
X87501552Y-4757314D01*
X87360196Y-4673717D01*
X87360193Y-4673716D01*
X87202495Y-4627900D01*
X87202489Y-4627899D01*
X87165649Y-4625000D01*
X86750000Y-4625000D01*
X86750000Y-5591981D01*
X86635199Y-5539554D01*
X86533975Y-5525000D01*
X86466025Y-5525000D01*
X86364801Y-5539554D01*
X86250000Y-5591981D01*
X86250000Y-4625000D01*
X85834350Y-4625000D01*
X85797510Y-4627899D01*
X85797504Y-4627900D01*
X85639806Y-4673716D01*
X85639803Y-4673717D01*
X85498447Y-4757314D01*
X85498438Y-4757321D01*
X85382321Y-4873438D01*
X85382314Y-4873447D01*
X85298717Y-5014803D01*
X85298716Y-5014806D01*
X85252900Y-5172504D01*
X85252899Y-5172510D01*
X85250000Y-5209350D01*
X85250000Y-5750000D01*
X86096031Y-5750000D01*
X86063481Y-5800649D01*
X86025000Y-5931705D01*
X86025000Y-6068295D01*
X86063481Y-6199351D01*
X86096031Y-6250000D01*
X85250000Y-6250000D01*
X85250000Y-6790649D01*
X80939024Y-6790649D01*
X80982366Y-6733255D01*
X81015000Y-6667717D01*
X81077403Y-6542394D01*
X81077403Y-6542393D01*
X81077405Y-6542389D01*
X81135756Y-6337310D01*
X81150500Y-6178194D01*
X81150500Y-5821806D01*
X81135756Y-5662690D01*
X81077405Y-5457611D01*
X81077403Y-5457606D01*
X81077403Y-5457605D01*
X80982367Y-5266746D01*
X80853872Y-5096593D01*
X80822247Y-5067763D01*
X80696302Y-4952948D01*
X80515019Y-4840702D01*
X80515017Y-4840701D01*
X80402383Y-4797067D01*
X80316198Y-4763679D01*
X80106610Y-4724500D01*
X79893390Y-4724500D01*
X79683802Y-4763679D01*
X79683799Y-4763679D01*
X79683799Y-4763680D01*
X79484982Y-4840701D01*
X79484980Y-4840702D01*
X79303699Y-4952947D01*
X79146127Y-5096593D01*
X79017632Y-5266746D01*
X78922596Y-5457605D01*
X78922596Y-5457607D01*
X78869266Y-5645039D01*
X78831986Y-5704132D01*
X78768676Y-5733689D01*
X78699437Y-5724327D01*
X78646251Y-5679017D01*
X78630734Y-5645039D01*
X78604320Y-5552206D01*
X78577405Y-5457611D01*
X78577403Y-5457606D01*
X78577403Y-5457605D01*
X78482367Y-5266746D01*
X78353872Y-5096593D01*
X78322247Y-5067763D01*
X78196302Y-4952948D01*
X78015019Y-4840702D01*
X78015017Y-4840701D01*
X77902383Y-4797067D01*
X77816198Y-4763679D01*
X77606610Y-4724500D01*
X77393390Y-4724500D01*
X77183802Y-4763679D01*
X77183799Y-4763679D01*
X77183799Y-4763680D01*
X76984982Y-4840701D01*
X76984980Y-4840702D01*
X76803699Y-4952947D01*
X76646127Y-5096593D01*
X76517632Y-5266746D01*
X76422596Y-5457605D01*
X76422596Y-5457607D01*
X76369266Y-5645039D01*
X76331986Y-5704132D01*
X76268676Y-5733689D01*
X76199437Y-5724327D01*
X76146251Y-5679017D01*
X76130734Y-5645039D01*
X76104320Y-5552206D01*
X76077405Y-5457611D01*
X76077403Y-5457606D01*
X76077403Y-5457605D01*
X75982367Y-5266746D01*
X75853872Y-5096593D01*
X75822247Y-5067763D01*
X75696302Y-4952948D01*
X75515019Y-4840702D01*
X75515017Y-4840701D01*
X75402383Y-4797067D01*
X75316198Y-4763679D01*
X75106610Y-4724500D01*
X74893390Y-4724500D01*
X74683802Y-4763679D01*
X74683799Y-4763679D01*
X74683799Y-4763680D01*
X74484982Y-4840701D01*
X74484980Y-4840702D01*
X74303699Y-4952947D01*
X74146127Y-5096593D01*
X74017632Y-5266746D01*
X73922596Y-5457605D01*
X73922596Y-5457607D01*
X73869266Y-5645039D01*
X73831986Y-5704132D01*
X73768676Y-5733689D01*
X73699437Y-5724327D01*
X73646251Y-5679017D01*
X73630734Y-5645039D01*
X73604320Y-5552206D01*
X73577405Y-5457611D01*
X73577403Y-5457606D01*
X73577403Y-5457605D01*
X73482367Y-5266746D01*
X73353872Y-5096593D01*
X73322247Y-5067763D01*
X73196302Y-4952948D01*
X73015019Y-4840702D01*
X73015017Y-4840701D01*
X72902383Y-4797067D01*
X72816198Y-4763679D01*
X72606610Y-4724500D01*
X72393390Y-4724500D01*
X72183802Y-4763679D01*
X72183799Y-4763679D01*
X72183799Y-4763680D01*
X71984982Y-4840701D01*
X71984980Y-4840702D01*
X71803699Y-4952947D01*
X71646127Y-5096593D01*
X71517634Y-5266744D01*
X71485000Y-5332283D01*
X71437497Y-5383520D01*
X71369834Y-5400941D01*
X71303494Y-5379015D01*
X71259539Y-5324704D01*
X71250000Y-5277011D01*
X71250000Y-5209365D01*
X71249999Y-5209350D01*
X71247100Y-5172510D01*
X71247099Y-5172504D01*
X71201283Y-5014806D01*
X71201282Y-5014803D01*
X71117685Y-4873447D01*
X71117678Y-4873438D01*
X71001561Y-4757321D01*
X71001552Y-4757314D01*
X70860196Y-4673717D01*
X70860193Y-4673716D01*
X70702495Y-4627900D01*
X70702489Y-4627899D01*
X70665649Y-4625000D01*
X70250000Y-4625000D01*
X70250000Y-5591981D01*
X70135199Y-5539554D01*
X70033975Y-5525000D01*
X69966025Y-5525000D01*
X69864801Y-5539554D01*
X69750000Y-5591981D01*
X69750000Y-4625000D01*
X69334350Y-4625000D01*
X69297510Y-4627899D01*
X69297504Y-4627900D01*
X69139806Y-4673716D01*
X69139803Y-4673717D01*
X68998447Y-4757314D01*
X68998438Y-4757321D01*
X68882321Y-4873438D01*
X68882314Y-4873447D01*
X68798717Y-5014803D01*
X68798716Y-5014806D01*
X68752900Y-5172504D01*
X68752899Y-5172510D01*
X68750000Y-5209350D01*
X68750000Y-5750000D01*
X69596031Y-5750000D01*
X69563481Y-5800649D01*
X69525000Y-5931705D01*
X69525000Y-6068295D01*
X69563481Y-6199351D01*
X69596031Y-6250000D01*
X68750000Y-6250000D01*
X68750000Y-6790649D01*
X62200500Y-6790649D01*
X62200499Y-3055136D01*
X62200497Y-3055117D01*
X62197586Y-3030012D01*
X62197585Y-3030010D01*
X62197585Y-3030009D01*
X62152206Y-2927235D01*
X62072765Y-2847794D01*
X62072763Y-2847793D01*
X61969992Y-2802415D01*
X61944865Y-2799500D01*
X58055143Y-2799500D01*
X58055117Y-2799502D01*
X58030012Y-2802413D01*
X58030008Y-2802415D01*
X57927235Y-2847793D01*
X57847794Y-2927234D01*
X57802415Y-3030006D01*
X57802415Y-3030008D01*
X57799500Y-3055131D01*
X57799500Y-6944856D01*
X500500Y-6944856D01*
X500500Y-5344856D01*
X6399500Y-5344856D01*
X6399502Y-5344882D01*
X6402413Y-5369987D01*
X6402415Y-5369991D01*
X6447793Y-5472764D01*
X6447794Y-5472765D01*
X6527235Y-5552206D01*
X6630009Y-5597585D01*
X6655135Y-5600500D01*
X9344864Y-5600499D01*
X9344879Y-5600497D01*
X9344882Y-5600497D01*
X9369987Y-5597586D01*
X9369988Y-5597585D01*
X9369991Y-5597585D01*
X9472765Y-5552206D01*
X9552206Y-5472765D01*
X9597585Y-5369991D01*
X9600500Y-5344865D01*
X9600499Y-4000000D01*
X11474551Y-4000000D01*
X11494317Y-4251151D01*
X11553126Y-4496110D01*
X11649533Y-4728859D01*
X11781160Y-4943653D01*
X11781161Y-4943656D01*
X11836604Y-5008571D01*
X11944776Y-5135224D01*
X12031584Y-5209365D01*
X12136343Y-5298838D01*
X12136346Y-5298839D01*
X12351140Y-5430466D01*
X12453260Y-5472765D01*
X12583889Y-5526873D01*
X12828852Y-5585683D01*
X13080000Y-5605449D01*
X13331148Y-5585683D01*
X13576111Y-5526873D01*
X13808859Y-5430466D01*
X13948561Y-5344856D01*
X20399500Y-5344856D01*
X20399502Y-5344882D01*
X20402413Y-5369987D01*
X20402415Y-5369991D01*
X20447793Y-5472764D01*
X20447794Y-5472765D01*
X20527235Y-5552206D01*
X20630009Y-5597585D01*
X20655135Y-5600500D01*
X23344864Y-5600499D01*
X23344879Y-5600497D01*
X23344882Y-5600497D01*
X23369987Y-5597586D01*
X23369988Y-5597585D01*
X23369991Y-5597585D01*
X23472765Y-5552206D01*
X23552206Y-5472765D01*
X23597585Y-5369991D01*
X23600500Y-5344865D01*
X23600499Y-4000000D01*
X25474551Y-4000000D01*
X25494317Y-4251151D01*
X25553126Y-4496110D01*
X25649533Y-4728859D01*
X25781160Y-4943653D01*
X25781161Y-4943656D01*
X25836604Y-5008571D01*
X25944776Y-5135224D01*
X26031584Y-5209365D01*
X26136343Y-5298838D01*
X26136346Y-5298839D01*
X26351140Y-5430466D01*
X26453260Y-5472765D01*
X26583889Y-5526873D01*
X26828852Y-5585683D01*
X27080000Y-5605449D01*
X27331148Y-5585683D01*
X27576111Y-5526873D01*
X27808859Y-5430466D01*
X27948561Y-5344856D01*
X34399500Y-5344856D01*
X34399502Y-5344882D01*
X34402413Y-5369987D01*
X34402415Y-5369991D01*
X34447793Y-5472764D01*
X34447794Y-5472765D01*
X34527235Y-5552206D01*
X34630009Y-5597585D01*
X34655135Y-5600500D01*
X37344864Y-5600499D01*
X37344879Y-5600497D01*
X37344882Y-5600497D01*
X37369987Y-5597586D01*
X37369988Y-5597585D01*
X37369991Y-5597585D01*
X37472765Y-5552206D01*
X37552206Y-5472765D01*
X37597585Y-5369991D01*
X37600500Y-5344865D01*
X37600499Y-4000000D01*
X39474551Y-4000000D01*
X39494317Y-4251151D01*
X39553126Y-4496110D01*
X39649533Y-4728859D01*
X39781160Y-4943653D01*
X39781161Y-4943656D01*
X39836604Y-5008571D01*
X39944776Y-5135224D01*
X40031584Y-5209365D01*
X40136343Y-5298838D01*
X40136346Y-5298839D01*
X40351140Y-5430466D01*
X40453260Y-5472765D01*
X40583889Y-5526873D01*
X40828852Y-5585683D01*
X41080000Y-5605449D01*
X41331148Y-5585683D01*
X41576111Y-5526873D01*
X41808859Y-5430466D01*
X42023659Y-5298836D01*
X42215224Y-5135224D01*
X42272841Y-5067763D01*
X50145787Y-5067763D01*
X50175413Y-5337013D01*
X50175415Y-5337024D01*
X50243535Y-5597585D01*
X50243928Y-5599088D01*
X50349870Y-5848390D01*
X50400717Y-5931705D01*
X50490979Y-6079605D01*
X50490986Y-6079615D01*
X50664253Y-6287819D01*
X50664259Y-6287824D01*
X50701266Y-6320982D01*
X50865998Y-6468582D01*
X51091910Y-6618044D01*
X51337176Y-6733020D01*
X51337183Y-6733022D01*
X51337185Y-6733023D01*
X51596557Y-6811057D01*
X51596564Y-6811058D01*
X51596569Y-6811060D01*
X51864561Y-6850500D01*
X51864566Y-6850500D01*
X52067629Y-6850500D01*
X52067631Y-6850500D01*
X52067636Y-6850499D01*
X52067648Y-6850499D01*
X52105191Y-6847750D01*
X52270156Y-6835677D01*
X52382758Y-6810593D01*
X52534546Y-6776782D01*
X52534548Y-6776781D01*
X52534553Y-6776780D01*
X52787558Y-6680014D01*
X53023777Y-6547441D01*
X53238177Y-6381888D01*
X53426186Y-6186881D01*
X53583799Y-5966579D01*
X53703536Y-5733689D01*
X53707649Y-5725690D01*
X53707651Y-5725684D01*
X53707656Y-5725675D01*
X53795118Y-5469305D01*
X53844319Y-5202933D01*
X53854212Y-4932235D01*
X53824586Y-4662982D01*
X53756072Y-4400912D01*
X53650130Y-4151610D01*
X53509018Y-3920390D01*
X53419747Y-3813119D01*
X53335746Y-3712180D01*
X53335740Y-3712175D01*
X53134002Y-3531418D01*
X52908092Y-3381957D01*
X52908090Y-3381956D01*
X52662824Y-3266980D01*
X52662819Y-3266978D01*
X52662814Y-3266976D01*
X52403442Y-3188942D01*
X52403428Y-3188939D01*
X52287791Y-3171921D01*
X52135439Y-3149500D01*
X51932369Y-3149500D01*
X51932351Y-3149500D01*
X51729844Y-3164323D01*
X51729831Y-3164325D01*
X51465453Y-3223217D01*
X51465446Y-3223220D01*
X51212439Y-3319987D01*
X50976226Y-3452557D01*
X50761822Y-3618112D01*
X50573822Y-3813109D01*
X50573816Y-3813116D01*
X50416202Y-4033419D01*
X50416199Y-4033424D01*
X50292350Y-4274309D01*
X50292343Y-4274327D01*
X50204884Y-4530685D01*
X50204882Y-4530695D01*
X50163023Y-4757321D01*
X50155681Y-4797068D01*
X50155680Y-4797075D01*
X50145787Y-5067763D01*
X42272841Y-5067763D01*
X42378836Y-4943659D01*
X42510466Y-4728859D01*
X42606873Y-4496111D01*
X42665683Y-4251148D01*
X42685449Y-4000000D01*
X42665683Y-3748852D01*
X42606873Y-3503889D01*
X42585611Y-3452557D01*
X42510466Y-3271140D01*
X42378839Y-3056346D01*
X42378838Y-3056343D01*
X42341875Y-3013066D01*
X42215224Y-2864776D01*
X42088571Y-2756604D01*
X42023656Y-2701161D01*
X42023653Y-2701160D01*
X41808859Y-2569533D01*
X41576110Y-2473126D01*
X41331151Y-2414317D01*
X41080000Y-2394551D01*
X40828848Y-2414317D01*
X40583889Y-2473126D01*
X40351140Y-2569533D01*
X40136346Y-2701160D01*
X40136343Y-2701161D01*
X39944776Y-2864776D01*
X39781161Y-3056343D01*
X39781160Y-3056346D01*
X39649533Y-3271140D01*
X39553126Y-3503889D01*
X39494317Y-3748848D01*
X39474551Y-4000000D01*
X37600499Y-4000000D01*
X37600499Y-2655136D01*
X37600497Y-2655117D01*
X37597586Y-2630012D01*
X37597585Y-2630010D01*
X37597585Y-2630009D01*
X37552206Y-2527235D01*
X37472765Y-2447794D01*
X37396947Y-2414317D01*
X37369992Y-2402415D01*
X37344865Y-2399500D01*
X34655143Y-2399500D01*
X34655117Y-2399502D01*
X34630012Y-2402413D01*
X34630008Y-2402415D01*
X34527235Y-2447793D01*
X34447794Y-2527234D01*
X34402415Y-2630006D01*
X34402415Y-2630008D01*
X34399500Y-2655131D01*
X34399500Y-5344856D01*
X27948561Y-5344856D01*
X28023659Y-5298836D01*
X28215224Y-5135224D01*
X28378836Y-4943659D01*
X28510466Y-4728859D01*
X28606873Y-4496111D01*
X28665683Y-4251148D01*
X28685449Y-4000000D01*
X28665683Y-3748852D01*
X28606873Y-3503889D01*
X28585611Y-3452557D01*
X28510466Y-3271140D01*
X28378839Y-3056346D01*
X28378838Y-3056343D01*
X28341875Y-3013066D01*
X28215224Y-2864776D01*
X28088571Y-2756604D01*
X28023656Y-2701161D01*
X28023653Y-2701160D01*
X27808859Y-2569533D01*
X27576110Y-2473126D01*
X27331151Y-2414317D01*
X27080000Y-2394551D01*
X26828848Y-2414317D01*
X26583889Y-2473126D01*
X26351140Y-2569533D01*
X26136346Y-2701160D01*
X26136343Y-2701161D01*
X25944776Y-2864776D01*
X25781161Y-3056343D01*
X25781160Y-3056346D01*
X25649533Y-3271140D01*
X25553126Y-3503889D01*
X25494317Y-3748848D01*
X25474551Y-4000000D01*
X23600499Y-4000000D01*
X23600499Y-2655136D01*
X23600497Y-2655117D01*
X23597586Y-2630012D01*
X23597585Y-2630010D01*
X23597585Y-2630009D01*
X23552206Y-2527235D01*
X23472765Y-2447794D01*
X23396947Y-2414317D01*
X23369992Y-2402415D01*
X23344865Y-2399500D01*
X20655143Y-2399500D01*
X20655117Y-2399502D01*
X20630012Y-2402413D01*
X20630008Y-2402415D01*
X20527235Y-2447793D01*
X20447794Y-2527234D01*
X20402415Y-2630006D01*
X20402415Y-2630008D01*
X20399500Y-2655131D01*
X20399500Y-5344856D01*
X13948561Y-5344856D01*
X14023659Y-5298836D01*
X14215224Y-5135224D01*
X14378836Y-4943659D01*
X14510466Y-4728859D01*
X14606873Y-4496111D01*
X14665683Y-4251148D01*
X14685449Y-4000000D01*
X14665683Y-3748852D01*
X14606873Y-3503889D01*
X14585611Y-3452557D01*
X14510466Y-3271140D01*
X14378839Y-3056346D01*
X14378838Y-3056343D01*
X14341875Y-3013066D01*
X14215224Y-2864776D01*
X14088571Y-2756604D01*
X14023656Y-2701161D01*
X14023653Y-2701160D01*
X13808859Y-2569533D01*
X13576110Y-2473126D01*
X13331151Y-2414317D01*
X13080000Y-2394551D01*
X12828848Y-2414317D01*
X12583889Y-2473126D01*
X12351140Y-2569533D01*
X12136346Y-2701160D01*
X12136343Y-2701161D01*
X11944776Y-2864776D01*
X11781161Y-3056343D01*
X11781160Y-3056346D01*
X11649533Y-3271140D01*
X11553126Y-3503889D01*
X11494317Y-3748848D01*
X11474551Y-4000000D01*
X9600499Y-4000000D01*
X9600499Y-2655136D01*
X9600497Y-2655117D01*
X9597586Y-2630012D01*
X9597585Y-2630010D01*
X9597585Y-2630009D01*
X9552206Y-2527235D01*
X9472765Y-2447794D01*
X9396947Y-2414317D01*
X9369992Y-2402415D01*
X9344865Y-2399500D01*
X6655143Y-2399500D01*
X6655117Y-2399502D01*
X6630012Y-2402413D01*
X6630008Y-2402415D01*
X6527235Y-2447793D01*
X6447794Y-2527234D01*
X6402415Y-2630006D01*
X6402415Y-2630008D01*
X6399500Y-2655131D01*
X6399500Y-5344856D01*
X500500Y-5344856D01*
X500500Y-624500D01*
X520185Y-557461D01*
X572989Y-511706D01*
X624500Y-500500D01*
X57652732Y-500500D01*
X57719771Y-520185D01*
G37*
G04 #@! TD.AperFunction*
G04 #@! TD*
M02*
