G04 #@! TF.GenerationSoftware,KiCad,Pcbnew,7.0.11+dfsg-1build4*
G04 #@! TF.CreationDate,2026-07-07T08:58:32+00:00*
G04 #@! TF.ProjectId,button-board,62757474-6f6e-42d6-926f-6172642e6b69,rev?*
G04 #@! TF.SameCoordinates,Original*
G04 #@! TF.FileFunction,Legend,Top*
G04 #@! TF.FilePolarity,Positive*
%FSLAX46Y46*%
G04 Gerber Fmt 4.6, Leading zero omitted, Abs format (unit mm)*
G04 Created by KiCad (PCBNEW 7.0.11+dfsg-1build4) date 2026-07-07 08:58:32*
%MOMM*%
%LPD*%
G01*
G04 APERTURE LIST*
%ADD10C,0.150000*%
%ADD11C,0.120000*%
G04 APERTURE END LIST*
D10*
X30407200Y-7583332D02*
X30454819Y-7440475D01*
X30454819Y-7440475D02*
X30454819Y-7202380D01*
X30454819Y-7202380D02*
X30407200Y-7107142D01*
X30407200Y-7107142D02*
X30359580Y-7059523D01*
X30359580Y-7059523D02*
X30264342Y-7011904D01*
X30264342Y-7011904D02*
X30169104Y-7011904D01*
X30169104Y-7011904D02*
X30073866Y-7059523D01*
X30073866Y-7059523D02*
X30026247Y-7107142D01*
X30026247Y-7107142D02*
X29978628Y-7202380D01*
X29978628Y-7202380D02*
X29931009Y-7392856D01*
X29931009Y-7392856D02*
X29883390Y-7488094D01*
X29883390Y-7488094D02*
X29835771Y-7535713D01*
X29835771Y-7535713D02*
X29740533Y-7583332D01*
X29740533Y-7583332D02*
X29645295Y-7583332D01*
X29645295Y-7583332D02*
X29550057Y-7535713D01*
X29550057Y-7535713D02*
X29502438Y-7488094D01*
X29502438Y-7488094D02*
X29454819Y-7392856D01*
X29454819Y-7392856D02*
X29454819Y-7154761D01*
X29454819Y-7154761D02*
X29502438Y-7011904D01*
X29454819Y-6678570D02*
X30454819Y-6440475D01*
X30454819Y-6440475D02*
X29740533Y-6249999D01*
X29740533Y-6249999D02*
X30454819Y-6059523D01*
X30454819Y-6059523D02*
X29454819Y-5821428D01*
X29788152Y-5011904D02*
X30454819Y-5011904D01*
X29407200Y-5249999D02*
X30121485Y-5488094D01*
X30121485Y-5488094D02*
X30121485Y-4869047D01*
X57914286Y-11254819D02*
X57914286Y-10254819D01*
X57914286Y-10731009D02*
X58485714Y-10731009D01*
X58485714Y-11254819D02*
X58485714Y-10254819D01*
X12407200Y-7583332D02*
X12454819Y-7440475D01*
X12454819Y-7440475D02*
X12454819Y-7202380D01*
X12454819Y-7202380D02*
X12407200Y-7107142D01*
X12407200Y-7107142D02*
X12359580Y-7059523D01*
X12359580Y-7059523D02*
X12264342Y-7011904D01*
X12264342Y-7011904D02*
X12169104Y-7011904D01*
X12169104Y-7011904D02*
X12073866Y-7059523D01*
X12073866Y-7059523D02*
X12026247Y-7107142D01*
X12026247Y-7107142D02*
X11978628Y-7202380D01*
X11978628Y-7202380D02*
X11931009Y-7392856D01*
X11931009Y-7392856D02*
X11883390Y-7488094D01*
X11883390Y-7488094D02*
X11835771Y-7535713D01*
X11835771Y-7535713D02*
X11740533Y-7583332D01*
X11740533Y-7583332D02*
X11645295Y-7583332D01*
X11645295Y-7583332D02*
X11550057Y-7535713D01*
X11550057Y-7535713D02*
X11502438Y-7488094D01*
X11502438Y-7488094D02*
X11454819Y-7392856D01*
X11454819Y-7392856D02*
X11454819Y-7154761D01*
X11454819Y-7154761D02*
X11502438Y-7011904D01*
X11454819Y-6678570D02*
X12454819Y-6440475D01*
X12454819Y-6440475D02*
X11740533Y-6249999D01*
X11740533Y-6249999D02*
X12454819Y-6059523D01*
X12454819Y-6059523D02*
X11454819Y-5821428D01*
X11550057Y-5488094D02*
X11502438Y-5440475D01*
X11502438Y-5440475D02*
X11454819Y-5345237D01*
X11454819Y-5345237D02*
X11454819Y-5107142D01*
X11454819Y-5107142D02*
X11502438Y-5011904D01*
X11502438Y-5011904D02*
X11550057Y-4964285D01*
X11550057Y-4964285D02*
X11645295Y-4916666D01*
X11645295Y-4916666D02*
X11740533Y-4916666D01*
X11740533Y-4916666D02*
X11883390Y-4964285D01*
X11883390Y-4964285D02*
X12454819Y-5535713D01*
X12454819Y-5535713D02*
X12454819Y-4916666D01*
X38384819Y-17833333D02*
X39099104Y-17833333D01*
X39099104Y-17833333D02*
X39241961Y-17880952D01*
X39241961Y-17880952D02*
X39337200Y-17976190D01*
X39337200Y-17976190D02*
X39384819Y-18119047D01*
X39384819Y-18119047D02*
X39384819Y-18214285D01*
X38480057Y-17404761D02*
X38432438Y-17357142D01*
X38432438Y-17357142D02*
X38384819Y-17261904D01*
X38384819Y-17261904D02*
X38384819Y-17023809D01*
X38384819Y-17023809D02*
X38432438Y-16928571D01*
X38432438Y-16928571D02*
X38480057Y-16880952D01*
X38480057Y-16880952D02*
X38575295Y-16833333D01*
X38575295Y-16833333D02*
X38670533Y-16833333D01*
X38670533Y-16833333D02*
X38813390Y-16880952D01*
X38813390Y-16880952D02*
X39384819Y-17452380D01*
X39384819Y-17452380D02*
X39384819Y-16833333D01*
X41261905Y-14954819D02*
X41261905Y-13954819D01*
X41261905Y-13954819D02*
X41500000Y-13954819D01*
X41500000Y-13954819D02*
X41642857Y-14002438D01*
X41642857Y-14002438D02*
X41738095Y-14097676D01*
X41738095Y-14097676D02*
X41785714Y-14192914D01*
X41785714Y-14192914D02*
X41833333Y-14383390D01*
X41833333Y-14383390D02*
X41833333Y-14526247D01*
X41833333Y-14526247D02*
X41785714Y-14716723D01*
X41785714Y-14716723D02*
X41738095Y-14811961D01*
X41738095Y-14811961D02*
X41642857Y-14907200D01*
X41642857Y-14907200D02*
X41500000Y-14954819D01*
X41500000Y-14954819D02*
X41261905Y-14954819D01*
X42785714Y-14954819D02*
X42214286Y-14954819D01*
X42500000Y-14954819D02*
X42500000Y-13954819D01*
X42500000Y-13954819D02*
X42404762Y-14097676D01*
X42404762Y-14097676D02*
X42309524Y-14192914D01*
X42309524Y-14192914D02*
X42214286Y-14240533D01*
X6274819Y-12866666D02*
X5798628Y-13199999D01*
X6274819Y-13438094D02*
X5274819Y-13438094D01*
X5274819Y-13438094D02*
X5274819Y-13057142D01*
X5274819Y-13057142D02*
X5322438Y-12961904D01*
X5322438Y-12961904D02*
X5370057Y-12914285D01*
X5370057Y-12914285D02*
X5465295Y-12866666D01*
X5465295Y-12866666D02*
X5608152Y-12866666D01*
X5608152Y-12866666D02*
X5703390Y-12914285D01*
X5703390Y-12914285D02*
X5751009Y-12961904D01*
X5751009Y-12961904D02*
X5798628Y-13057142D01*
X5798628Y-13057142D02*
X5798628Y-13438094D01*
X6274819Y-11914285D02*
X6274819Y-12485713D01*
X6274819Y-12199999D02*
X5274819Y-12199999D01*
X5274819Y-12199999D02*
X5417676Y-12295237D01*
X5417676Y-12295237D02*
X5512914Y-12390475D01*
X5512914Y-12390475D02*
X5560533Y-12485713D01*
X46833333Y-17724819D02*
X46500000Y-17248628D01*
X46261905Y-17724819D02*
X46261905Y-16724819D01*
X46261905Y-16724819D02*
X46642857Y-16724819D01*
X46642857Y-16724819D02*
X46738095Y-16772438D01*
X46738095Y-16772438D02*
X46785714Y-16820057D01*
X46785714Y-16820057D02*
X46833333Y-16915295D01*
X46833333Y-16915295D02*
X46833333Y-17058152D01*
X46833333Y-17058152D02*
X46785714Y-17153390D01*
X46785714Y-17153390D02*
X46738095Y-17201009D01*
X46738095Y-17201009D02*
X46642857Y-17248628D01*
X46642857Y-17248628D02*
X46261905Y-17248628D01*
X47690476Y-16724819D02*
X47500000Y-16724819D01*
X47500000Y-16724819D02*
X47404762Y-16772438D01*
X47404762Y-16772438D02*
X47357143Y-16820057D01*
X47357143Y-16820057D02*
X47261905Y-16962914D01*
X47261905Y-16962914D02*
X47214286Y-17153390D01*
X47214286Y-17153390D02*
X47214286Y-17534342D01*
X47214286Y-17534342D02*
X47261905Y-17629580D01*
X47261905Y-17629580D02*
X47309524Y-17677200D01*
X47309524Y-17677200D02*
X47404762Y-17724819D01*
X47404762Y-17724819D02*
X47595238Y-17724819D01*
X47595238Y-17724819D02*
X47690476Y-17677200D01*
X47690476Y-17677200D02*
X47738095Y-17629580D01*
X47738095Y-17629580D02*
X47785714Y-17534342D01*
X47785714Y-17534342D02*
X47785714Y-17296247D01*
X47785714Y-17296247D02*
X47738095Y-17201009D01*
X47738095Y-17201009D02*
X47690476Y-17153390D01*
X47690476Y-17153390D02*
X47595238Y-17105771D01*
X47595238Y-17105771D02*
X47404762Y-17105771D01*
X47404762Y-17105771D02*
X47309524Y-17153390D01*
X47309524Y-17153390D02*
X47261905Y-17201009D01*
X47261905Y-17201009D02*
X47214286Y-17296247D01*
X24274819Y-12866666D02*
X23798628Y-13199999D01*
X24274819Y-13438094D02*
X23274819Y-13438094D01*
X23274819Y-13438094D02*
X23274819Y-13057142D01*
X23274819Y-13057142D02*
X23322438Y-12961904D01*
X23322438Y-12961904D02*
X23370057Y-12914285D01*
X23370057Y-12914285D02*
X23465295Y-12866666D01*
X23465295Y-12866666D02*
X23608152Y-12866666D01*
X23608152Y-12866666D02*
X23703390Y-12914285D01*
X23703390Y-12914285D02*
X23751009Y-12961904D01*
X23751009Y-12961904D02*
X23798628Y-13057142D01*
X23798628Y-13057142D02*
X23798628Y-13438094D01*
X23274819Y-12533332D02*
X23274819Y-11914285D01*
X23274819Y-11914285D02*
X23655771Y-12247618D01*
X23655771Y-12247618D02*
X23655771Y-12104761D01*
X23655771Y-12104761D02*
X23703390Y-12009523D01*
X23703390Y-12009523D02*
X23751009Y-11961904D01*
X23751009Y-11961904D02*
X23846247Y-11914285D01*
X23846247Y-11914285D02*
X24084342Y-11914285D01*
X24084342Y-11914285D02*
X24179580Y-11961904D01*
X24179580Y-11961904D02*
X24227200Y-12009523D01*
X24227200Y-12009523D02*
X24274819Y-12104761D01*
X24274819Y-12104761D02*
X24274819Y-12390475D01*
X24274819Y-12390475D02*
X24227200Y-12485713D01*
X24227200Y-12485713D02*
X24179580Y-12533332D01*
X15274819Y-12866666D02*
X14798628Y-13199999D01*
X15274819Y-13438094D02*
X14274819Y-13438094D01*
X14274819Y-13438094D02*
X14274819Y-13057142D01*
X14274819Y-13057142D02*
X14322438Y-12961904D01*
X14322438Y-12961904D02*
X14370057Y-12914285D01*
X14370057Y-12914285D02*
X14465295Y-12866666D01*
X14465295Y-12866666D02*
X14608152Y-12866666D01*
X14608152Y-12866666D02*
X14703390Y-12914285D01*
X14703390Y-12914285D02*
X14751009Y-12961904D01*
X14751009Y-12961904D02*
X14798628Y-13057142D01*
X14798628Y-13057142D02*
X14798628Y-13438094D01*
X14370057Y-12485713D02*
X14322438Y-12438094D01*
X14322438Y-12438094D02*
X14274819Y-12342856D01*
X14274819Y-12342856D02*
X14274819Y-12104761D01*
X14274819Y-12104761D02*
X14322438Y-12009523D01*
X14322438Y-12009523D02*
X14370057Y-11961904D01*
X14370057Y-11961904D02*
X14465295Y-11914285D01*
X14465295Y-11914285D02*
X14560533Y-11914285D01*
X14560533Y-11914285D02*
X14703390Y-11961904D01*
X14703390Y-11961904D02*
X15274819Y-12533332D01*
X15274819Y-12533332D02*
X15274819Y-11914285D01*
X45129580Y-12766666D02*
X45177200Y-12814285D01*
X45177200Y-12814285D02*
X45224819Y-12957142D01*
X45224819Y-12957142D02*
X45224819Y-13052380D01*
X45224819Y-13052380D02*
X45177200Y-13195237D01*
X45177200Y-13195237D02*
X45081961Y-13290475D01*
X45081961Y-13290475D02*
X44986723Y-13338094D01*
X44986723Y-13338094D02*
X44796247Y-13385713D01*
X44796247Y-13385713D02*
X44653390Y-13385713D01*
X44653390Y-13385713D02*
X44462914Y-13338094D01*
X44462914Y-13338094D02*
X44367676Y-13290475D01*
X44367676Y-13290475D02*
X44272438Y-13195237D01*
X44272438Y-13195237D02*
X44224819Y-13052380D01*
X44224819Y-13052380D02*
X44224819Y-12957142D01*
X44224819Y-12957142D02*
X44272438Y-12814285D01*
X44272438Y-12814285D02*
X44320057Y-12766666D01*
X44320057Y-12385713D02*
X44272438Y-12338094D01*
X44272438Y-12338094D02*
X44224819Y-12242856D01*
X44224819Y-12242856D02*
X44224819Y-12004761D01*
X44224819Y-12004761D02*
X44272438Y-11909523D01*
X44272438Y-11909523D02*
X44320057Y-11861904D01*
X44320057Y-11861904D02*
X44415295Y-11814285D01*
X44415295Y-11814285D02*
X44510533Y-11814285D01*
X44510533Y-11814285D02*
X44653390Y-11861904D01*
X44653390Y-11861904D02*
X45224819Y-12433332D01*
X45224819Y-12433332D02*
X45224819Y-11814285D01*
X49880952Y-10954819D02*
X49404762Y-10954819D01*
X49404762Y-10954819D02*
X49404762Y-9954819D01*
X50214286Y-10431009D02*
X50547619Y-10431009D01*
X50690476Y-10954819D02*
X50214286Y-10954819D01*
X50214286Y-10954819D02*
X50214286Y-9954819D01*
X50214286Y-9954819D02*
X50690476Y-9954819D01*
X51119048Y-10954819D02*
X51119048Y-9954819D01*
X51119048Y-9954819D02*
X51357143Y-9954819D01*
X51357143Y-9954819D02*
X51500000Y-10002438D01*
X51500000Y-10002438D02*
X51595238Y-10097676D01*
X51595238Y-10097676D02*
X51642857Y-10192914D01*
X51642857Y-10192914D02*
X51690476Y-10383390D01*
X51690476Y-10383390D02*
X51690476Y-10526247D01*
X51690476Y-10526247D02*
X51642857Y-10716723D01*
X51642857Y-10716723D02*
X51595238Y-10811961D01*
X51595238Y-10811961D02*
X51500000Y-10907200D01*
X51500000Y-10907200D02*
X51357143Y-10954819D01*
X51357143Y-10954819D02*
X51119048Y-10954819D01*
X52642857Y-10954819D02*
X52071429Y-10954819D01*
X52357143Y-10954819D02*
X52357143Y-9954819D01*
X52357143Y-9954819D02*
X52261905Y-10097676D01*
X52261905Y-10097676D02*
X52166667Y-10192914D01*
X52166667Y-10192914D02*
X52071429Y-10240533D01*
X47135714Y-12854819D02*
X46564286Y-12854819D01*
X46850000Y-12854819D02*
X46850000Y-11854819D01*
X46850000Y-11854819D02*
X46754762Y-11997676D01*
X46754762Y-11997676D02*
X46659524Y-12092914D01*
X46659524Y-12092914D02*
X46564286Y-12140533D01*
X3407200Y-7583332D02*
X3454819Y-7440475D01*
X3454819Y-7440475D02*
X3454819Y-7202380D01*
X3454819Y-7202380D02*
X3407200Y-7107142D01*
X3407200Y-7107142D02*
X3359580Y-7059523D01*
X3359580Y-7059523D02*
X3264342Y-7011904D01*
X3264342Y-7011904D02*
X3169104Y-7011904D01*
X3169104Y-7011904D02*
X3073866Y-7059523D01*
X3073866Y-7059523D02*
X3026247Y-7107142D01*
X3026247Y-7107142D02*
X2978628Y-7202380D01*
X2978628Y-7202380D02*
X2931009Y-7392856D01*
X2931009Y-7392856D02*
X2883390Y-7488094D01*
X2883390Y-7488094D02*
X2835771Y-7535713D01*
X2835771Y-7535713D02*
X2740533Y-7583332D01*
X2740533Y-7583332D02*
X2645295Y-7583332D01*
X2645295Y-7583332D02*
X2550057Y-7535713D01*
X2550057Y-7535713D02*
X2502438Y-7488094D01*
X2502438Y-7488094D02*
X2454819Y-7392856D01*
X2454819Y-7392856D02*
X2454819Y-7154761D01*
X2454819Y-7154761D02*
X2502438Y-7011904D01*
X2454819Y-6678570D02*
X3454819Y-6440475D01*
X3454819Y-6440475D02*
X2740533Y-6249999D01*
X2740533Y-6249999D02*
X3454819Y-6059523D01*
X3454819Y-6059523D02*
X2454819Y-5821428D01*
X3454819Y-4916666D02*
X3454819Y-5488094D01*
X3454819Y-5202380D02*
X2454819Y-5202380D01*
X2454819Y-5202380D02*
X2597676Y-5297618D01*
X2597676Y-5297618D02*
X2692914Y-5392856D01*
X2692914Y-5392856D02*
X2740533Y-5488094D01*
X48407200Y-7583332D02*
X48454819Y-7440475D01*
X48454819Y-7440475D02*
X48454819Y-7202380D01*
X48454819Y-7202380D02*
X48407200Y-7107142D01*
X48407200Y-7107142D02*
X48359580Y-7059523D01*
X48359580Y-7059523D02*
X48264342Y-7011904D01*
X48264342Y-7011904D02*
X48169104Y-7011904D01*
X48169104Y-7011904D02*
X48073866Y-7059523D01*
X48073866Y-7059523D02*
X48026247Y-7107142D01*
X48026247Y-7107142D02*
X47978628Y-7202380D01*
X47978628Y-7202380D02*
X47931009Y-7392856D01*
X47931009Y-7392856D02*
X47883390Y-7488094D01*
X47883390Y-7488094D02*
X47835771Y-7535713D01*
X47835771Y-7535713D02*
X47740533Y-7583332D01*
X47740533Y-7583332D02*
X47645295Y-7583332D01*
X47645295Y-7583332D02*
X47550057Y-7535713D01*
X47550057Y-7535713D02*
X47502438Y-7488094D01*
X47502438Y-7488094D02*
X47454819Y-7392856D01*
X47454819Y-7392856D02*
X47454819Y-7154761D01*
X47454819Y-7154761D02*
X47502438Y-7011904D01*
X47454819Y-6678570D02*
X48454819Y-6440475D01*
X48454819Y-6440475D02*
X47740533Y-6249999D01*
X47740533Y-6249999D02*
X48454819Y-6059523D01*
X48454819Y-6059523D02*
X47454819Y-5821428D01*
X47454819Y-5011904D02*
X47454819Y-5202380D01*
X47454819Y-5202380D02*
X47502438Y-5297618D01*
X47502438Y-5297618D02*
X47550057Y-5345237D01*
X47550057Y-5345237D02*
X47692914Y-5440475D01*
X47692914Y-5440475D02*
X47883390Y-5488094D01*
X47883390Y-5488094D02*
X48264342Y-5488094D01*
X48264342Y-5488094D02*
X48359580Y-5440475D01*
X48359580Y-5440475D02*
X48407200Y-5392856D01*
X48407200Y-5392856D02*
X48454819Y-5297618D01*
X48454819Y-5297618D02*
X48454819Y-5107142D01*
X48454819Y-5107142D02*
X48407200Y-5011904D01*
X48407200Y-5011904D02*
X48359580Y-4964285D01*
X48359580Y-4964285D02*
X48264342Y-4916666D01*
X48264342Y-4916666D02*
X48026247Y-4916666D01*
X48026247Y-4916666D02*
X47931009Y-4964285D01*
X47931009Y-4964285D02*
X47883390Y-5011904D01*
X47883390Y-5011904D02*
X47835771Y-5107142D01*
X47835771Y-5107142D02*
X47835771Y-5297618D01*
X47835771Y-5297618D02*
X47883390Y-5392856D01*
X47883390Y-5392856D02*
X47931009Y-5440475D01*
X47931009Y-5440475D02*
X48026247Y-5488094D01*
X50833333Y-17279580D02*
X50785714Y-17327200D01*
X50785714Y-17327200D02*
X50642857Y-17374819D01*
X50642857Y-17374819D02*
X50547619Y-17374819D01*
X50547619Y-17374819D02*
X50404762Y-17327200D01*
X50404762Y-17327200D02*
X50309524Y-17231961D01*
X50309524Y-17231961D02*
X50261905Y-17136723D01*
X50261905Y-17136723D02*
X50214286Y-16946247D01*
X50214286Y-16946247D02*
X50214286Y-16803390D01*
X50214286Y-16803390D02*
X50261905Y-16612914D01*
X50261905Y-16612914D02*
X50309524Y-16517676D01*
X50309524Y-16517676D02*
X50404762Y-16422438D01*
X50404762Y-16422438D02*
X50547619Y-16374819D01*
X50547619Y-16374819D02*
X50642857Y-16374819D01*
X50642857Y-16374819D02*
X50785714Y-16422438D01*
X50785714Y-16422438D02*
X50833333Y-16470057D01*
X51785714Y-17374819D02*
X51214286Y-17374819D01*
X51500000Y-17374819D02*
X51500000Y-16374819D01*
X51500000Y-16374819D02*
X51404762Y-16517676D01*
X51404762Y-16517676D02*
X51309524Y-16612914D01*
X51309524Y-16612914D02*
X51214286Y-16660533D01*
X33274819Y-12866666D02*
X32798628Y-13199999D01*
X33274819Y-13438094D02*
X32274819Y-13438094D01*
X32274819Y-13438094D02*
X32274819Y-13057142D01*
X32274819Y-13057142D02*
X32322438Y-12961904D01*
X32322438Y-12961904D02*
X32370057Y-12914285D01*
X32370057Y-12914285D02*
X32465295Y-12866666D01*
X32465295Y-12866666D02*
X32608152Y-12866666D01*
X32608152Y-12866666D02*
X32703390Y-12914285D01*
X32703390Y-12914285D02*
X32751009Y-12961904D01*
X32751009Y-12961904D02*
X32798628Y-13057142D01*
X32798628Y-13057142D02*
X32798628Y-13438094D01*
X32608152Y-12009523D02*
X33274819Y-12009523D01*
X32227200Y-12247618D02*
X32941485Y-12485713D01*
X32941485Y-12485713D02*
X32941485Y-11866666D01*
X42274819Y-12866666D02*
X41798628Y-13199999D01*
X42274819Y-13438094D02*
X41274819Y-13438094D01*
X41274819Y-13438094D02*
X41274819Y-13057142D01*
X41274819Y-13057142D02*
X41322438Y-12961904D01*
X41322438Y-12961904D02*
X41370057Y-12914285D01*
X41370057Y-12914285D02*
X41465295Y-12866666D01*
X41465295Y-12866666D02*
X41608152Y-12866666D01*
X41608152Y-12866666D02*
X41703390Y-12914285D01*
X41703390Y-12914285D02*
X41751009Y-12961904D01*
X41751009Y-12961904D02*
X41798628Y-13057142D01*
X41798628Y-13057142D02*
X41798628Y-13438094D01*
X41274819Y-11961904D02*
X41274819Y-12438094D01*
X41274819Y-12438094D02*
X41751009Y-12485713D01*
X41751009Y-12485713D02*
X41703390Y-12438094D01*
X41703390Y-12438094D02*
X41655771Y-12342856D01*
X41655771Y-12342856D02*
X41655771Y-12104761D01*
X41655771Y-12104761D02*
X41703390Y-12009523D01*
X41703390Y-12009523D02*
X41751009Y-11961904D01*
X41751009Y-11961904D02*
X41846247Y-11914285D01*
X41846247Y-11914285D02*
X42084342Y-11914285D01*
X42084342Y-11914285D02*
X42179580Y-11961904D01*
X42179580Y-11961904D02*
X42227200Y-12009523D01*
X42227200Y-12009523D02*
X42274819Y-12104761D01*
X42274819Y-12104761D02*
X42274819Y-12342856D01*
X42274819Y-12342856D02*
X42227200Y-12438094D01*
X42227200Y-12438094D02*
X42179580Y-12485713D01*
X39407200Y-7583332D02*
X39454819Y-7440475D01*
X39454819Y-7440475D02*
X39454819Y-7202380D01*
X39454819Y-7202380D02*
X39407200Y-7107142D01*
X39407200Y-7107142D02*
X39359580Y-7059523D01*
X39359580Y-7059523D02*
X39264342Y-7011904D01*
X39264342Y-7011904D02*
X39169104Y-7011904D01*
X39169104Y-7011904D02*
X39073866Y-7059523D01*
X39073866Y-7059523D02*
X39026247Y-7107142D01*
X39026247Y-7107142D02*
X38978628Y-7202380D01*
X38978628Y-7202380D02*
X38931009Y-7392856D01*
X38931009Y-7392856D02*
X38883390Y-7488094D01*
X38883390Y-7488094D02*
X38835771Y-7535713D01*
X38835771Y-7535713D02*
X38740533Y-7583332D01*
X38740533Y-7583332D02*
X38645295Y-7583332D01*
X38645295Y-7583332D02*
X38550057Y-7535713D01*
X38550057Y-7535713D02*
X38502438Y-7488094D01*
X38502438Y-7488094D02*
X38454819Y-7392856D01*
X38454819Y-7392856D02*
X38454819Y-7154761D01*
X38454819Y-7154761D02*
X38502438Y-7011904D01*
X38454819Y-6678570D02*
X39454819Y-6440475D01*
X39454819Y-6440475D02*
X38740533Y-6249999D01*
X38740533Y-6249999D02*
X39454819Y-6059523D01*
X39454819Y-6059523D02*
X38454819Y-5821428D01*
X38454819Y-4964285D02*
X38454819Y-5440475D01*
X38454819Y-5440475D02*
X38931009Y-5488094D01*
X38931009Y-5488094D02*
X38883390Y-5440475D01*
X38883390Y-5440475D02*
X38835771Y-5345237D01*
X38835771Y-5345237D02*
X38835771Y-5107142D01*
X38835771Y-5107142D02*
X38883390Y-5011904D01*
X38883390Y-5011904D02*
X38931009Y-4964285D01*
X38931009Y-4964285D02*
X39026247Y-4916666D01*
X39026247Y-4916666D02*
X39264342Y-4916666D01*
X39264342Y-4916666D02*
X39359580Y-4964285D01*
X39359580Y-4964285D02*
X39407200Y-5011904D01*
X39407200Y-5011904D02*
X39454819Y-5107142D01*
X39454819Y-5107142D02*
X39454819Y-5345237D01*
X39454819Y-5345237D02*
X39407200Y-5440475D01*
X39407200Y-5440475D02*
X39359580Y-5488094D01*
X16666666Y-13054819D02*
X16666666Y-13769104D01*
X16666666Y-13769104D02*
X16619047Y-13911961D01*
X16619047Y-13911961D02*
X16523809Y-14007200D01*
X16523809Y-14007200D02*
X16380952Y-14054819D01*
X16380952Y-14054819D02*
X16285714Y-14054819D01*
X17666666Y-14054819D02*
X17095238Y-14054819D01*
X17380952Y-14054819D02*
X17380952Y-13054819D01*
X17380952Y-13054819D02*
X17285714Y-13197676D01*
X17285714Y-13197676D02*
X17190476Y-13292914D01*
X17190476Y-13292914D02*
X17095238Y-13340533D01*
X2714286Y-13754819D02*
X2714286Y-12754819D01*
X2714286Y-13231009D02*
X3285714Y-13231009D01*
X3285714Y-13754819D02*
X3285714Y-12754819D01*
X21407200Y-7583332D02*
X21454819Y-7440475D01*
X21454819Y-7440475D02*
X21454819Y-7202380D01*
X21454819Y-7202380D02*
X21407200Y-7107142D01*
X21407200Y-7107142D02*
X21359580Y-7059523D01*
X21359580Y-7059523D02*
X21264342Y-7011904D01*
X21264342Y-7011904D02*
X21169104Y-7011904D01*
X21169104Y-7011904D02*
X21073866Y-7059523D01*
X21073866Y-7059523D02*
X21026247Y-7107142D01*
X21026247Y-7107142D02*
X20978628Y-7202380D01*
X20978628Y-7202380D02*
X20931009Y-7392856D01*
X20931009Y-7392856D02*
X20883390Y-7488094D01*
X20883390Y-7488094D02*
X20835771Y-7535713D01*
X20835771Y-7535713D02*
X20740533Y-7583332D01*
X20740533Y-7583332D02*
X20645295Y-7583332D01*
X20645295Y-7583332D02*
X20550057Y-7535713D01*
X20550057Y-7535713D02*
X20502438Y-7488094D01*
X20502438Y-7488094D02*
X20454819Y-7392856D01*
X20454819Y-7392856D02*
X20454819Y-7154761D01*
X20454819Y-7154761D02*
X20502438Y-7011904D01*
X20454819Y-6678570D02*
X21454819Y-6440475D01*
X21454819Y-6440475D02*
X20740533Y-6249999D01*
X20740533Y-6249999D02*
X21454819Y-6059523D01*
X21454819Y-6059523D02*
X20454819Y-5821428D01*
X20454819Y-5535713D02*
X20454819Y-4916666D01*
X20454819Y-4916666D02*
X20835771Y-5249999D01*
X20835771Y-5249999D02*
X20835771Y-5107142D01*
X20835771Y-5107142D02*
X20883390Y-5011904D01*
X20883390Y-5011904D02*
X20931009Y-4964285D01*
X20931009Y-4964285D02*
X21026247Y-4916666D01*
X21026247Y-4916666D02*
X21264342Y-4916666D01*
X21264342Y-4916666D02*
X21359580Y-4964285D01*
X21359580Y-4964285D02*
X21407200Y-5011904D01*
X21407200Y-5011904D02*
X21454819Y-5107142D01*
X21454819Y-5107142D02*
X21454819Y-5392856D01*
X21454819Y-5392856D02*
X21407200Y-5488094D01*
X21407200Y-5488094D02*
X21359580Y-5535713D01*
D11*
G04 #@! TO.C,SW4*
X33500000Y-9750000D02*
X35000000Y-9750000D01*
X37500000Y-8500000D02*
X37500000Y-4000000D01*
X31000000Y-4000000D02*
X31000000Y-8500000D01*
X35000000Y-2750000D02*
X33500000Y-2750000D01*
G04 #@! TO.C,SW2*
X15500000Y-9750000D02*
X17000000Y-9750000D01*
X19500000Y-8500000D02*
X19500000Y-4000000D01*
X13000000Y-4000000D02*
X13000000Y-8500000D01*
X17000000Y-2750000D02*
X15500000Y-2750000D01*
G04 #@! TO.C,J2*
X37930000Y-16170000D02*
X37930000Y-17500000D01*
X36600000Y-16170000D02*
X37930000Y-16170000D01*
X35330000Y-16170000D02*
X27650000Y-16170000D01*
X35330000Y-16170000D02*
X35330000Y-18830000D01*
X27650000Y-16170000D02*
X27650000Y-18830000D01*
X35330000Y-18830000D02*
X27650000Y-18830000D01*
G04 #@! TO.C,D1*
X38490000Y-15350000D02*
X38490000Y-18650000D01*
X38490000Y-15350000D02*
X44000000Y-15350000D01*
X38490000Y-18650000D02*
X44000000Y-18650000D01*
G04 #@! TO.C,R1*
X6727500Y-12937258D02*
X6727500Y-12462742D01*
X7772500Y-12937258D02*
X7772500Y-12462742D01*
G04 #@! TO.C,R6*
X46762742Y-18177500D02*
X47237258Y-18177500D01*
X46762742Y-19222500D02*
X47237258Y-19222500D01*
G04 #@! TO.C,R3*
X24727500Y-12937258D02*
X24727500Y-12462742D01*
X25772500Y-12937258D02*
X25772500Y-12462742D01*
G04 #@! TO.C,R2*
X15727500Y-12937258D02*
X15727500Y-12462742D01*
X16772500Y-12937258D02*
X16772500Y-12462742D01*
G04 #@! TO.C,C2*
X45690000Y-12740580D02*
X45690000Y-12459420D01*
X46710000Y-12740580D02*
X46710000Y-12459420D01*
G04 #@! TO.C,LED1*
X47350000Y-11250000D02*
X54650000Y-11250000D01*
X47350000Y-16750000D02*
X54650000Y-16750000D01*
X54650000Y-16750000D02*
X54650000Y-15600000D01*
G04 #@! TO.C,SW1*
X6500000Y-9750000D02*
X8000000Y-9750000D01*
X10500000Y-8500000D02*
X10500000Y-4000000D01*
X4000000Y-4000000D02*
X4000000Y-8500000D01*
X8000000Y-2750000D02*
X6500000Y-2750000D01*
G04 #@! TO.C,SW6*
X51500000Y-9750000D02*
X53000000Y-9750000D01*
X55500000Y-8500000D02*
X55500000Y-4000000D01*
X49000000Y-4000000D02*
X49000000Y-8500000D01*
X53000000Y-2750000D02*
X51500000Y-2750000D01*
G04 #@! TO.C,C1*
X50738748Y-17865000D02*
X51261252Y-17865000D01*
X50738748Y-19335000D02*
X51261252Y-19335000D01*
G04 #@! TO.C,R4*
X33727500Y-12937258D02*
X33727500Y-12462742D01*
X34772500Y-12937258D02*
X34772500Y-12462742D01*
G04 #@! TO.C,R5*
X42727500Y-12937258D02*
X42727500Y-12462742D01*
X43772500Y-12937258D02*
X43772500Y-12462742D01*
G04 #@! TO.C,SW5*
X42500000Y-9750000D02*
X44000000Y-9750000D01*
X46500000Y-8500000D02*
X46500000Y-4000000D01*
X40000000Y-4000000D02*
X40000000Y-8500000D01*
X44000000Y-2750000D02*
X42500000Y-2750000D01*
G04 #@! TO.C,J1*
X7640000Y-14390000D02*
X7640000Y-15640000D01*
X7940000Y-14690000D02*
X7940000Y-19410000D01*
X7940000Y-16000000D02*
X8550000Y-16000000D01*
X7940000Y-17300000D02*
X8550000Y-17300000D01*
X7940000Y-19410000D02*
X26060000Y-19410000D01*
X8550000Y-15300000D02*
X8550000Y-18800000D01*
X8550000Y-18800000D02*
X25450000Y-18800000D01*
X8890000Y-14390000D02*
X7640000Y-14390000D01*
X9400000Y-14490000D02*
X9400000Y-14690000D01*
X9700000Y-14490000D02*
X9400000Y-14490000D01*
X9700000Y-14590000D02*
X9400000Y-14590000D01*
X9700000Y-14690000D02*
X9700000Y-14490000D01*
X10500000Y-14690000D02*
X10500000Y-15300000D01*
X10500000Y-15300000D02*
X8550000Y-15300000D01*
X10900000Y-18300000D02*
X11100000Y-18300000D01*
X10900000Y-18800000D02*
X10900000Y-18300000D01*
X11000000Y-18800000D02*
X11000000Y-18300000D01*
X11100000Y-18300000D02*
X11100000Y-18800000D01*
X12900000Y-18300000D02*
X13100000Y-18300000D01*
X12900000Y-18800000D02*
X12900000Y-18300000D01*
X13000000Y-18800000D02*
X13000000Y-18300000D01*
X13100000Y-18300000D02*
X13100000Y-18800000D01*
X14900000Y-18300000D02*
X15100000Y-18300000D01*
X14900000Y-18800000D02*
X14900000Y-18300000D01*
X15000000Y-18800000D02*
X15000000Y-18300000D01*
X15100000Y-18300000D02*
X15100000Y-18800000D01*
X16900000Y-18300000D02*
X17100000Y-18300000D01*
X16900000Y-18800000D02*
X16900000Y-18300000D01*
X17000000Y-18800000D02*
X17000000Y-18300000D01*
X17100000Y-18300000D02*
X17100000Y-18800000D01*
X18900000Y-18300000D02*
X19100000Y-18300000D01*
X18900000Y-18800000D02*
X18900000Y-18300000D01*
X19000000Y-18800000D02*
X19000000Y-18300000D01*
X19100000Y-18300000D02*
X19100000Y-18800000D01*
X20900000Y-18300000D02*
X21100000Y-18300000D01*
X20900000Y-18800000D02*
X20900000Y-18300000D01*
X21000000Y-18800000D02*
X21000000Y-18300000D01*
X21100000Y-18300000D02*
X21100000Y-18800000D01*
X22900000Y-18300000D02*
X23100000Y-18300000D01*
X22900000Y-18800000D02*
X22900000Y-18300000D01*
X23000000Y-18800000D02*
X23000000Y-18300000D01*
X23100000Y-18300000D02*
X23100000Y-18800000D01*
X23500000Y-15300000D02*
X23500000Y-14690000D01*
X25450000Y-15300000D02*
X23500000Y-15300000D01*
X25450000Y-18800000D02*
X25450000Y-15300000D01*
X26060000Y-14690000D02*
X7940000Y-14690000D01*
X26060000Y-16000000D02*
X25450000Y-16000000D01*
X26060000Y-17300000D02*
X25450000Y-17300000D01*
X26060000Y-19410000D02*
X26060000Y-14690000D01*
G04 #@! TO.C,SW3*
X24500000Y-9750000D02*
X26000000Y-9750000D01*
X28500000Y-8500000D02*
X28500000Y-4000000D01*
X22000000Y-4000000D02*
X22000000Y-8500000D01*
X26000000Y-2750000D02*
X24500000Y-2750000D01*
G04 #@! TD*
M02*
