M48
; DRILL file {KiCad 7.0.11+dfsg-1build4} date Wed Jul  8 08:35:00 2026
; FORMAT={-:-/ absolute / metric / decimal}
; #@! TF.CreationDate,2026-07-08T08:35:00+00:00
; #@! TF.GenerationSoftware,Kicad,Pcbnew,7.0.11+dfsg-1build4
; #@! TF.FileFunction,Plated,1,2,PTH
FMAT,2
METRIC
; #@! TA.AperFunction,Plated,PTH,ViaDrill
T1C0.400
; #@! TA.AperFunction,Plated,PTH,ComponentDrill
T2C0.750
; #@! TA.AperFunction,Plated,PTH,ComponentDrill
T3C1.000
; #@! TA.AperFunction,Plated,PTH,ComponentDrill
T4C1.100
%
G90
G05
T1
X1.925Y-1.925
X1.925Y-6.925
X1.925Y-11.925
X6.925Y-1.925
X6.925Y-6.925
X6.925Y-16.925
X11.925Y-1.925
X11.925Y-6.925
X11.925Y-11.925
X13.925Y-14.425
X16.925Y-6.925
X21.925Y-6.925
X26.925Y-6.925
X31.925Y-11.925
X36.925Y-6.925
X39.175Y-14.425
X40.925Y-15.175
X41.675Y-18.675
X41.925Y-6.925
X42.175Y-16.925
X43.175Y-8.425
X44.675Y-11.925
X46.925Y-6.925
X46.925Y-16.925
X47.925Y-18.675
X51.425Y-14.425
X51.925Y-1.925
X51.925Y-6.925
X51.925Y-18.675
X52.675Y-14.925
X52.95Y-18.6
X54.45Y-15.65
X56.925Y-1.925
X56.925Y-6.925
X56.925Y-11.925
T2
X10.0Y-16.5
X12.0Y-16.5
X14.0Y-16.5
X16.0Y-16.5
X18.0Y-16.5
X20.0Y-16.5
X22.0Y-16.5
X24.0Y-16.5
T3
X28.98Y-17.5
X31.52Y-17.5
X34.06Y-17.5
X36.6Y-17.5
T4
X5.0Y-3.0
X5.0Y-9.5
X9.5Y-3.0
X9.5Y-9.5
X14.0Y-3.0
X14.0Y-9.5
X18.5Y-3.0
X18.5Y-9.5
X23.0Y-3.0
X23.0Y-9.5
X27.5Y-3.0
X27.5Y-9.5
X32.0Y-3.0
X32.0Y-9.5
X36.5Y-3.0
X36.5Y-9.5
X41.0Y-3.0
X41.0Y-9.5
X45.5Y-3.0
X45.5Y-9.5
X50.0Y-3.0
X50.0Y-9.5
X54.5Y-3.0
X54.5Y-9.5
M30
