G04 #@! TF.GenerationSoftware,KiCad,Pcbnew,7.0.11+dfsg-1build4*
G04 #@! TF.CreationDate,2026-07-10T19:42:36+00:00*
G04 #@! TF.ProjectId,button-board,62757474-6f6e-42d6-926f-6172642e6b69,rev?*
G04 #@! TF.SameCoordinates,Original*
G04 #@! TF.FileFunction,Soldermask,Top*
G04 #@! TF.FilePolarity,Negative*
%FSLAX46Y46*%
G04 Gerber Fmt 4.6, Leading zero omitted, Abs format (unit mm)*
G04 Created by KiCad (PCBNEW 7.0.11+dfsg-1build4) date 2026-07-10 19:42:36*
%MOMM*%
%LPD*%
G01*
G04 APERTURE LIST*
G04 Aperture macros list*
%AMRoundRect*
0 Rectangle with rounded corners*
0 $1 Rounding radius*
0 $2 $3 $4 $5 $6 $7 $8 $9 X,Y pos of 4 corners*
0 Add a 4 corners polygon primitive as box body*
4,1,4,$2,$3,$4,$5,$6,$7,$8,$9,$2,$3,0*
0 Add four circle primitives for the rounded corners*
1,1,$1+$1,$2,$3*
1,1,$1+$1,$4,$5*
1,1,$1+$1,$6,$7*
1,1,$1+$1,$8,$9*
0 Add four rect primitives between the rounded corners*
20,1,$1+$1,$2,$3,$4,$5,0*
20,1,$1+$1,$4,$5,$6,$7,0*
20,1,$1+$1,$6,$7,$8,$9,0*
20,1,$1+$1,$8,$9,$2,$3,0*%
G04 Aperture macros list end*
%ADD10C,2.000000*%
%ADD11C,3.200000*%
%ADD12R,1.700000X1.700000*%
%ADD13O,1.700000X1.700000*%
%ADD14RoundRect,0.250000X-1.000000X-0.650000X1.000000X-0.650000X1.000000X0.650000X-1.000000X0.650000X0*%
%ADD15RoundRect,0.200000X0.275000X-0.200000X0.275000X0.200000X-0.275000X0.200000X-0.275000X-0.200000X0*%
%ADD16RoundRect,0.200000X-0.200000X-0.275000X0.200000X-0.275000X0.200000X0.275000X-0.200000X0.275000X0*%
%ADD17RoundRect,0.225000X0.250000X-0.225000X0.250000X0.225000X-0.250000X0.225000X-0.250000X-0.225000X0*%
%ADD18R,1.500000X0.900000*%
%ADD19RoundRect,0.250000X-0.250000X-0.475000X0.250000X-0.475000X0.250000X0.475000X-0.250000X0.475000X0*%
%ADD20RoundRect,0.250000X-0.350000X-0.625000X0.350000X-0.625000X0.350000X0.625000X-0.350000X0.625000X0*%
%ADD21O,1.200000X1.750000*%
G04 APERTURE END LIST*
D10*
G04 #@! TO.C,SW4*
X32000000Y-9500000D03*
X32000000Y-3000000D03*
X36500000Y-9500000D03*
X36500000Y-3000000D03*
G04 #@! TD*
D11*
G04 #@! TO.C,H*
X58200000Y-15000000D03*
G04 #@! TD*
D10*
G04 #@! TO.C,SW2*
X14000000Y-9500000D03*
X14000000Y-3000000D03*
X18500000Y-9500000D03*
X18500000Y-3000000D03*
G04 #@! TD*
D12*
G04 #@! TO.C,J2*
X36600000Y-17500000D03*
D13*
X34060000Y-17500000D03*
X31520000Y-17500000D03*
X28980000Y-17500000D03*
G04 #@! TD*
D14*
G04 #@! TO.C,D1*
X40000000Y-17000000D03*
X44000000Y-17000000D03*
G04 #@! TD*
D15*
G04 #@! TO.C,R1*
X7250000Y-13525000D03*
X7250000Y-11875000D03*
G04 #@! TD*
D16*
G04 #@! TO.C,R6*
X46175000Y-18700000D03*
X47825000Y-18700000D03*
G04 #@! TD*
D15*
G04 #@! TO.C,R3*
X25250000Y-13525000D03*
X25250000Y-11875000D03*
G04 #@! TD*
G04 #@! TO.C,R2*
X16250000Y-13525000D03*
X16250000Y-11875000D03*
G04 #@! TD*
D17*
G04 #@! TO.C,C2*
X46200000Y-13375000D03*
X46200000Y-11825000D03*
G04 #@! TD*
D18*
G04 #@! TO.C,LED1*
X48550000Y-12350000D03*
X48550000Y-15650000D03*
X53450000Y-15650000D03*
X53450000Y-12350000D03*
G04 #@! TD*
D10*
G04 #@! TO.C,SW1*
X5000000Y-9500000D03*
X5000000Y-3000000D03*
X9500000Y-9500000D03*
X9500000Y-3000000D03*
G04 #@! TD*
G04 #@! TO.C,SW6*
X50000000Y-9500000D03*
X50000000Y-3000000D03*
X54500000Y-9500000D03*
X54500000Y-3000000D03*
G04 #@! TD*
D19*
G04 #@! TO.C,C1*
X50050000Y-18600000D03*
X51950000Y-18600000D03*
G04 #@! TD*
D15*
G04 #@! TO.C,R4*
X34250000Y-13525000D03*
X34250000Y-11875000D03*
G04 #@! TD*
G04 #@! TO.C,R5*
X43250000Y-13525000D03*
X43250000Y-11875000D03*
G04 #@! TD*
D10*
G04 #@! TO.C,SW5*
X41000000Y-9500000D03*
X41000000Y-3000000D03*
X45500000Y-9500000D03*
X45500000Y-3000000D03*
G04 #@! TD*
D20*
G04 #@! TO.C,J1*
X10000000Y-16500000D03*
D21*
X12000000Y-16500000D03*
X14000000Y-16500000D03*
X16000000Y-16500000D03*
X18000000Y-16500000D03*
X20000000Y-16500000D03*
X22000000Y-16500000D03*
X24000000Y-16500000D03*
G04 #@! TD*
D11*
G04 #@! TO.C,H*
X3000000Y-17500000D03*
G04 #@! TD*
D10*
G04 #@! TO.C,SW3*
X23000000Y-9500000D03*
X23000000Y-3000000D03*
X27500000Y-9500000D03*
X27500000Y-3000000D03*
G04 #@! TD*
M02*
