G04 #@! TF.GenerationSoftware,KiCad,Pcbnew,7.0.11+dfsg-1build4*
G04 #@! TF.CreationDate,2026-07-05T19:21:11+00:00*
G04 #@! TF.ProjectId,button-board,62757474-6f6e-42d6-926f-6172642e6b69,rev?*
G04 #@! TF.SameCoordinates,Original*
G04 #@! TF.FileFunction,Copper,L2,Bot*
G04 #@! TF.FilePolarity,Positive*
%FSLAX46Y46*%
G04 Gerber Fmt 4.6, Leading zero omitted, Abs format (unit mm)*
G04 Created by KiCad (PCBNEW 7.0.11+dfsg-1build4) date 2026-07-05 19:21:11*
%MOMM*%
%LPD*%
G01*
G04 APERTURE LIST*
G04 Aperture macros list*
%AMRoundRect*
0 Rectangle with rounded corners*
0 $1 Rounding radius*
0 $2 $3 $4 $5 $6 $7 $8 $9 X,Y pos of 4 corners*
0 Add a 4 corners polygon primitive as box body*
4,1,4,$2,$3,$4,$5,$6,$7,$8,$9,$2,$3,0*
0 Add four circle primitives for the rounded corners*
1,1,$1+$1,$2,$3*
1,1,$1+$1,$4,$5*
1,1,$1+$1,$6,$7*
1,1,$1+$1,$8,$9*
0 Add four rect primitives between the rounded corners*
20,1,$1+$1,$2,$3,$4,$5,0*
20,1,$1+$1,$4,$5,$6,$7,0*
20,1,$1+$1,$6,$7,$8,$9,0*
20,1,$1+$1,$8,$9,$2,$3,0*%
G04 Aperture macros list end*
G04 #@! TA.AperFunction,ComponentPad*
%ADD10C,2.000000*%
G04 #@! TD*
G04 #@! TA.AperFunction,ComponentPad*
%ADD11RoundRect,0.250000X-0.350000X-0.625000X0.350000X-0.625000X0.350000X0.625000X-0.350000X0.625000X0*%
G04 #@! TD*
G04 #@! TA.AperFunction,ComponentPad*
%ADD12O,1.200000X1.750000*%
G04 #@! TD*
G04 #@! TA.AperFunction,ComponentPad*
%ADD13R,1.700000X1.700000*%
G04 #@! TD*
G04 #@! TA.AperFunction,ComponentPad*
%ADD14O,1.700000X1.700000*%
G04 #@! TD*
G04 APERTURE END LIST*
D10*
G04 #@! TO.P,SW4,1*
G04 #@! TO.N,LAD2*
X32000000Y-6000000D03*
X32000000Y500000D03*
G04 #@! TO.P,SW4,2*
X36500000Y-6000000D03*
X36500000Y500000D03*
G04 #@! TD*
G04 #@! TO.P,SW3,1*
G04 #@! TO.N,LAD1*
X23000000Y-6000000D03*
X23000000Y500000D03*
G04 #@! TO.P,SW3,2*
X27500000Y-6000000D03*
X27500000Y500000D03*
G04 #@! TD*
G04 #@! TO.P,SW2,1*
G04 #@! TO.N,LAD0*
X14000000Y-6000000D03*
X14000000Y500000D03*
G04 #@! TO.P,SW2,2*
X18500000Y-6000000D03*
X18500000Y500000D03*
G04 #@! TD*
D11*
G04 #@! TO.P,J1,1*
G04 #@! TO.N,5V*
X12000000Y-16500000D03*
D12*
G04 #@! TO.P,J1,2*
G04 #@! TO.N,GND*
X14000000Y-16500000D03*
G04 #@! TO.P,J1,3*
G04 #@! TO.N,3V3*
X16000000Y-16500000D03*
G04 #@! TO.P,J1,4*
G04 #@! TO.N,SDA*
X18000000Y-16500000D03*
G04 #@! TO.P,J1,5*
G04 #@! TO.N,SCL*
X20000000Y-16500000D03*
G04 #@! TO.P,J1,6*
G04 #@! TO.N,LED_DATA*
X22000000Y-16500000D03*
G04 #@! TO.P,J1,7*
G04 #@! TO.N,BTN_ADC*
X24000000Y-16500000D03*
G04 #@! TO.P,J1,8*
G04 #@! TO.N,BTN_PWR*
X26000000Y-16500000D03*
G04 #@! TD*
D10*
G04 #@! TO.P,SW1,1*
G04 #@! TO.N,BTN_PWR*
X5000000Y-6000000D03*
X5000000Y500000D03*
G04 #@! TO.P,SW1,2*
X9500000Y-6000000D03*
X9500000Y500000D03*
G04 #@! TD*
G04 #@! TO.P,SW6,1*
G04 #@! TO.N,LAD4*
X50000000Y-6000000D03*
X50000000Y500000D03*
G04 #@! TO.P,SW6,2*
X54500000Y-6000000D03*
X54500000Y500000D03*
G04 #@! TD*
D13*
G04 #@! TO.P,J2,1*
G04 #@! TO.N,GND*
X36000000Y-16500000D03*
D14*
G04 #@! TO.P,J2,2*
G04 #@! TO.N,3V3*
X36000000Y-19040000D03*
G04 #@! TO.P,J2,3*
G04 #@! TO.N,SCL*
X36000000Y-21580000D03*
G04 #@! TO.P,J2,4*
G04 #@! TO.N,SDA*
X36000000Y-24120000D03*
G04 #@! TD*
D10*
G04 #@! TO.P,SW5,1*
G04 #@! TO.N,LAD3*
X41000000Y-6000000D03*
X41000000Y500000D03*
G04 #@! TO.P,SW5,2*
X45500000Y-6000000D03*
X45500000Y500000D03*
G04 #@! TD*
G04 #@! TA.AperFunction,Conductor*
G04 #@! TO.N,GND*
G36*
X4189451Y-520185D02*
G01*
X4193523Y-522917D01*
X4347266Y-630568D01*
X4553504Y-726739D01*
X4773308Y-785635D01*
X4935230Y-799801D01*
X4999998Y-805468D01*
X5000000Y-805468D01*
X5000002Y-805468D01*
X5056673Y-800509D01*
X5226692Y-785635D01*
X5446496Y-726739D01*
X5652734Y-630568D01*
X5806465Y-522924D01*
X5872671Y-500598D01*
X5877588Y-500500D01*
X8622412Y-500500D01*
X8689451Y-520185D01*
X8693523Y-522917D01*
X8847266Y-630568D01*
X9053504Y-726739D01*
X9273308Y-785635D01*
X9435230Y-799801D01*
X9499998Y-805468D01*
X9500000Y-805468D01*
X9500002Y-805468D01*
X9556673Y-800509D01*
X9726692Y-785635D01*
X9946496Y-726739D01*
X10152734Y-630568D01*
X10306465Y-522924D01*
X10372671Y-500598D01*
X10377588Y-500500D01*
X13122412Y-500500D01*
X13189451Y-520185D01*
X13193523Y-522917D01*
X13347266Y-630568D01*
X13553504Y-726739D01*
X13773308Y-785635D01*
X13935230Y-799801D01*
X13999998Y-805468D01*
X14000000Y-805468D01*
X14000002Y-805468D01*
X14056673Y-800509D01*
X14226692Y-785635D01*
X14446496Y-726739D01*
X14652734Y-630568D01*
X14806465Y-522924D01*
X14872671Y-500598D01*
X14877588Y-500500D01*
X17622412Y-500500D01*
X17689451Y-520185D01*
X17693523Y-522917D01*
X17847266Y-630568D01*
X18053504Y-726739D01*
X18273308Y-785635D01*
X18435230Y-799801D01*
X18499998Y-805468D01*
X18500000Y-805468D01*
X18500002Y-805468D01*
X18556673Y-800509D01*
X18726692Y-785635D01*
X18946496Y-726739D01*
X19152734Y-630568D01*
X19306465Y-522924D01*
X19372671Y-500598D01*
X19377588Y-500500D01*
X22122412Y-500500D01*
X22189451Y-520185D01*
X22193523Y-522917D01*
X22347266Y-630568D01*
X22553504Y-726739D01*
X22773308Y-785635D01*
X22935230Y-799801D01*
X22999998Y-805468D01*
X23000000Y-805468D01*
X23000002Y-805468D01*
X23056673Y-800509D01*
X23226692Y-785635D01*
X23446496Y-726739D01*
X23652734Y-630568D01*
X23806465Y-522924D01*
X23872671Y-500598D01*
X23877588Y-500500D01*
X26622412Y-500500D01*
X26689451Y-520185D01*
X26693523Y-522917D01*
X26847266Y-630568D01*
X27053504Y-726739D01*
X27273308Y-785635D01*
X27435230Y-799801D01*
X27499998Y-805468D01*
X27500000Y-805468D01*
X27500002Y-805468D01*
X27556673Y-800509D01*
X27726692Y-785635D01*
X27946496Y-726739D01*
X28152734Y-630568D01*
X28306465Y-522924D01*
X28372671Y-500598D01*
X28377588Y-500500D01*
X31122412Y-500500D01*
X31189451Y-520185D01*
X31193523Y-522917D01*
X31347266Y-630568D01*
X31553504Y-726739D01*
X31773308Y-785635D01*
X31935230Y-799801D01*
X31999998Y-805468D01*
X32000000Y-805468D01*
X32000002Y-805468D01*
X32056673Y-800509D01*
X32226692Y-785635D01*
X32446496Y-726739D01*
X32652734Y-630568D01*
X32806465Y-522924D01*
X32872671Y-500598D01*
X32877588Y-500500D01*
X35622412Y-500500D01*
X35689451Y-520185D01*
X35693523Y-522917D01*
X35847266Y-630568D01*
X36053504Y-726739D01*
X36273308Y-785635D01*
X36435230Y-799801D01*
X36499998Y-805468D01*
X36500000Y-805468D01*
X36500002Y-805468D01*
X36556673Y-800509D01*
X36726692Y-785635D01*
X36946496Y-726739D01*
X37152734Y-630568D01*
X37306465Y-522924D01*
X37372671Y-500598D01*
X37377588Y-500500D01*
X40122412Y-500500D01*
X40189451Y-520185D01*
X40193523Y-522917D01*
X40347266Y-630568D01*
X40553504Y-726739D01*
X40773308Y-785635D01*
X40935230Y-799801D01*
X40999998Y-805468D01*
X41000000Y-805468D01*
X41000002Y-805468D01*
X41056673Y-800509D01*
X41226692Y-785635D01*
X41446496Y-726739D01*
X41652734Y-630568D01*
X41806465Y-522924D01*
X41872671Y-500598D01*
X41877588Y-500500D01*
X44622412Y-500500D01*
X44689451Y-520185D01*
X44693523Y-522917D01*
X44847266Y-630568D01*
X45053504Y-726739D01*
X45273308Y-785635D01*
X45435230Y-799801D01*
X45499998Y-805468D01*
X45500000Y-805468D01*
X45500002Y-805468D01*
X45556673Y-800509D01*
X45726692Y-785635D01*
X45946496Y-726739D01*
X46152734Y-630568D01*
X46306465Y-522924D01*
X46372671Y-500598D01*
X46377588Y-500500D01*
X49122412Y-500500D01*
X49189451Y-520185D01*
X49193523Y-522917D01*
X49347266Y-630568D01*
X49553504Y-726739D01*
X49773308Y-785635D01*
X49935230Y-799801D01*
X49999998Y-805468D01*
X50000000Y-805468D01*
X50000002Y-805468D01*
X50056673Y-800509D01*
X50226692Y-785635D01*
X50446496Y-726739D01*
X50652734Y-630568D01*
X50806465Y-522924D01*
X50872671Y-500598D01*
X50877588Y-500500D01*
X53622412Y-500500D01*
X53689451Y-520185D01*
X53693523Y-522917D01*
X53847266Y-630568D01*
X54053504Y-726739D01*
X54273308Y-785635D01*
X54435230Y-799801D01*
X54499998Y-805468D01*
X54500000Y-805468D01*
X54500002Y-805468D01*
X54556673Y-800509D01*
X54726692Y-785635D01*
X54946496Y-726739D01*
X55152734Y-630568D01*
X55306465Y-522924D01*
X55372671Y-500598D01*
X55377588Y-500500D01*
X59375500Y-500500D01*
X59442539Y-520185D01*
X59488294Y-572989D01*
X59499500Y-624500D01*
X59499500Y-16867482D01*
X59479815Y-16934521D01*
X59427011Y-16980276D01*
X59357853Y-16990220D01*
X59294297Y-16961195D01*
X59258176Y-16904990D01*
X59257538Y-16905208D01*
X59256656Y-16902624D01*
X59256523Y-16902417D01*
X59256250Y-16901433D01*
X59256074Y-16900919D01*
X59256073Y-16900917D01*
X59256072Y-16900912D01*
X59150130Y-16651610D01*
X59009018Y-16420390D01*
X58997600Y-16406670D01*
X58835746Y-16212180D01*
X58835740Y-16212175D01*
X58634002Y-16031418D01*
X58408092Y-15881957D01*
X58369078Y-15863668D01*
X58162824Y-15766980D01*
X58162819Y-15766978D01*
X58162814Y-15766976D01*
X57903442Y-15688942D01*
X57903428Y-15688939D01*
X57787791Y-15671921D01*
X57635439Y-15649500D01*
X57432369Y-15649500D01*
X57432351Y-15649500D01*
X57229844Y-15664323D01*
X57229831Y-15664325D01*
X56965453Y-15723217D01*
X56965446Y-15723220D01*
X56712439Y-15819987D01*
X56476226Y-15952557D01*
X56261822Y-16118112D01*
X56073822Y-16313109D01*
X56073816Y-16313116D01*
X55916202Y-16533419D01*
X55916199Y-16533424D01*
X55792350Y-16774309D01*
X55792343Y-16774327D01*
X55704884Y-17030685D01*
X55704881Y-17030699D01*
X55655681Y-17297068D01*
X55655680Y-17297075D01*
X55645787Y-17567763D01*
X55675413Y-17837013D01*
X55675415Y-17837024D01*
X55743926Y-18099082D01*
X55743928Y-18099088D01*
X55849870Y-18348390D01*
X55900741Y-18431745D01*
X55990979Y-18579605D01*
X55990986Y-18579615D01*
X56164253Y-18787819D01*
X56164259Y-18787824D01*
X56269240Y-18881887D01*
X56365998Y-18968582D01*
X56591910Y-19118044D01*
X56837176Y-19233020D01*
X56837183Y-19233022D01*
X56837185Y-19233023D01*
X56916075Y-19256758D01*
X56974601Y-19294922D01*
X57003203Y-19358669D01*
X56992801Y-19427760D01*
X56946696Y-19480258D01*
X56880351Y-19499500D01*
X37229626Y-19499500D01*
X37162587Y-19479815D01*
X37116832Y-19427011D01*
X37106888Y-19357853D01*
X37110360Y-19341565D01*
X37135756Y-19252310D01*
X37155429Y-19040000D01*
X37135756Y-18827690D01*
X37077405Y-18622611D01*
X37077403Y-18622606D01*
X37077403Y-18622605D01*
X36982367Y-18431746D01*
X36853872Y-18261593D01*
X36696302Y-18117948D01*
X36515019Y-18005702D01*
X36515017Y-18005701D01*
X36496217Y-17998418D01*
X36473520Y-17989625D01*
X36418120Y-17947053D01*
X36394529Y-17881286D01*
X36410240Y-17813206D01*
X36460264Y-17764427D01*
X36518315Y-17749999D01*
X36881479Y-17749999D01*
X36975149Y-17735164D01*
X36975155Y-17735162D01*
X37088041Y-17677643D01*
X37088050Y-17677636D01*
X37177636Y-17588050D01*
X37177639Y-17588046D01*
X37235166Y-17475144D01*
X37250000Y-17381486D01*
X37250000Y-16750000D01*
X36433686Y-16750000D01*
X36459493Y-16709844D01*
X36500000Y-16571889D01*
X36500000Y-16428111D01*
X36459493Y-16290156D01*
X36433686Y-16250000D01*
X37249999Y-16250000D01*
X37249999Y-15618520D01*
X37235164Y-15524850D01*
X37235162Y-15524844D01*
X37177643Y-15411958D01*
X37177636Y-15411949D01*
X37088050Y-15322363D01*
X37088046Y-15322360D01*
X36975144Y-15264833D01*
X36881486Y-15250000D01*
X36250000Y-15250000D01*
X36250000Y-16064498D01*
X36142315Y-16015320D01*
X36035763Y-16000000D01*
X35964237Y-16000000D01*
X35857685Y-16015320D01*
X35750000Y-16064498D01*
X35750000Y-15250000D01*
X35118520Y-15250000D01*
X35024850Y-15264835D01*
X35024844Y-15264837D01*
X34911958Y-15322356D01*
X34911949Y-15322363D01*
X34822363Y-15411949D01*
X34822360Y-15411953D01*
X34764833Y-15524855D01*
X34750000Y-15618513D01*
X34750000Y-16250000D01*
X35566314Y-16250000D01*
X35540507Y-16290156D01*
X35500000Y-16428111D01*
X35500000Y-16571889D01*
X35540507Y-16709844D01*
X35566314Y-16750000D01*
X34750001Y-16750000D01*
X34750001Y-17381479D01*
X34764835Y-17475149D01*
X34764837Y-17475155D01*
X34822356Y-17588041D01*
X34822363Y-17588050D01*
X34911949Y-17677636D01*
X34911953Y-17677639D01*
X35024855Y-17735166D01*
X35118514Y-17749999D01*
X35481682Y-17749999D01*
X35548721Y-17769683D01*
X35594476Y-17822487D01*
X35604420Y-17891646D01*
X35575395Y-17955201D01*
X35526478Y-17989625D01*
X35484985Y-18005700D01*
X35484980Y-18005702D01*
X35303699Y-18117947D01*
X35146127Y-18261593D01*
X35017632Y-18431746D01*
X34922596Y-18622605D01*
X34922596Y-18622607D01*
X34922595Y-18622611D01*
X34864244Y-18827690D01*
X34844571Y-19040000D01*
X34864244Y-19252310D01*
X34887964Y-19335677D01*
X34889640Y-19341565D01*
X34889054Y-19411432D01*
X34850788Y-19469891D01*
X34786991Y-19498382D01*
X34770374Y-19499500D01*
X3623554Y-19499500D01*
X3556515Y-19479815D01*
X3510760Y-19427011D01*
X3500816Y-19357853D01*
X3529841Y-19294297D01*
X3579256Y-19259682D01*
X3787558Y-19180014D01*
X4023777Y-19047441D01*
X4238177Y-18881888D01*
X4426186Y-18686881D01*
X4583799Y-18466579D01*
X4657787Y-18322669D01*
X4707649Y-18225690D01*
X4707651Y-18225684D01*
X4707656Y-18225675D01*
X4795118Y-17969305D01*
X4844319Y-17702933D01*
X4854212Y-17432235D01*
X4825149Y-17168102D01*
X11099500Y-17168102D01*
X11105126Y-17214954D01*
X11110122Y-17256561D01*
X11165639Y-17397343D01*
X11257077Y-17517922D01*
X11377656Y-17609360D01*
X11377657Y-17609360D01*
X11377658Y-17609361D01*
X11518436Y-17664877D01*
X11606898Y-17675500D01*
X11606903Y-17675500D01*
X12393097Y-17675500D01*
X12393102Y-17675500D01*
X12481564Y-17664877D01*
X12622342Y-17609361D01*
X12742922Y-17517922D01*
X12834361Y-17397342D01*
X12889877Y-17256564D01*
X12889877Y-17256560D01*
X12890614Y-17254693D01*
X12933520Y-17199549D01*
X12999428Y-17176356D01*
X13067412Y-17192476D01*
X13114388Y-17240005D01*
X13175005Y-17349215D01*
X13175005Y-17349216D01*
X13307478Y-17503530D01*
X13307479Y-17503531D01*
X13468304Y-17628018D01*
X13650907Y-17717589D01*
X13750000Y-17743244D01*
X13750000Y-16780617D01*
X13819052Y-16834363D01*
X13937424Y-16875000D01*
X14031073Y-16875000D01*
X14123446Y-16859586D01*
X14233514Y-16800019D01*
X14250000Y-16782110D01*
X14250000Y-17748365D01*
X14251944Y-17748069D01*
X14251945Y-17748069D01*
X14442660Y-17677436D01*
X14442664Y-17677434D01*
X14615267Y-17569850D01*
X14762668Y-17429735D01*
X14762669Y-17429733D01*
X14878856Y-17262804D01*
X14938245Y-17124411D01*
X14982772Y-17070567D01*
X15049340Y-17049344D01*
X15116815Y-17067479D01*
X15163774Y-17119215D01*
X15170126Y-17134991D01*
X15172821Y-17143284D01*
X15267467Y-17307216D01*
X15348617Y-17397342D01*
X15394129Y-17447888D01*
X15547265Y-17559148D01*
X15547270Y-17559151D01*
X15720192Y-17636142D01*
X15720197Y-17636144D01*
X15905354Y-17675500D01*
X15905355Y-17675500D01*
X16094644Y-17675500D01*
X16094646Y-17675500D01*
X16279803Y-17636144D01*
X16452730Y-17559151D01*
X16605871Y-17447888D01*
X16732533Y-17307216D01*
X16827179Y-17143284D01*
X16882069Y-16974351D01*
X16921506Y-16916675D01*
X16985865Y-16889477D01*
X17054711Y-16901392D01*
X17106187Y-16948636D01*
X17117931Y-16974351D01*
X17172818Y-17143277D01*
X17172820Y-17143281D01*
X17172821Y-17143284D01*
X17267467Y-17307216D01*
X17348617Y-17397342D01*
X17394129Y-17447888D01*
X17547265Y-17559148D01*
X17547270Y-17559151D01*
X17720192Y-17636142D01*
X17720197Y-17636144D01*
X17905354Y-17675500D01*
X17905355Y-17675500D01*
X18094644Y-17675500D01*
X18094646Y-17675500D01*
X18279803Y-17636144D01*
X18452730Y-17559151D01*
X18605871Y-17447888D01*
X18732533Y-17307216D01*
X18827179Y-17143284D01*
X18882069Y-16974351D01*
X18921506Y-16916675D01*
X18985865Y-16889477D01*
X19054711Y-16901392D01*
X19106187Y-16948636D01*
X19117931Y-16974351D01*
X19172818Y-17143277D01*
X19172820Y-17143281D01*
X19172821Y-17143284D01*
X19267467Y-17307216D01*
X19348617Y-17397342D01*
X19394129Y-17447888D01*
X19547265Y-17559148D01*
X19547270Y-17559151D01*
X19720192Y-17636142D01*
X19720197Y-17636144D01*
X19905354Y-17675500D01*
X19905355Y-17675500D01*
X20094644Y-17675500D01*
X20094646Y-17675500D01*
X20279803Y-17636144D01*
X20452730Y-17559151D01*
X20605871Y-17447888D01*
X20732533Y-17307216D01*
X20827179Y-17143284D01*
X20882069Y-16974351D01*
X20921506Y-16916675D01*
X20985865Y-16889477D01*
X21054711Y-16901392D01*
X21106187Y-16948636D01*
X21117931Y-16974351D01*
X21172818Y-17143277D01*
X21172820Y-17143281D01*
X21172821Y-17143284D01*
X21267467Y-17307216D01*
X21348617Y-17397342D01*
X21394129Y-17447888D01*
X21547265Y-17559148D01*
X21547270Y-17559151D01*
X21720192Y-17636142D01*
X21720197Y-17636144D01*
X21905354Y-17675500D01*
X21905355Y-17675500D01*
X22094644Y-17675500D01*
X22094646Y-17675500D01*
X22279803Y-17636144D01*
X22452730Y-17559151D01*
X22605871Y-17447888D01*
X22732533Y-17307216D01*
X22827179Y-17143284D01*
X22882069Y-16974351D01*
X22921506Y-16916675D01*
X22985865Y-16889477D01*
X23054711Y-16901392D01*
X23106187Y-16948636D01*
X23117931Y-16974351D01*
X23172818Y-17143277D01*
X23172820Y-17143281D01*
X23172821Y-17143284D01*
X23267467Y-17307216D01*
X23348617Y-17397342D01*
X23394129Y-17447888D01*
X23547265Y-17559148D01*
X23547270Y-17559151D01*
X23720192Y-17636142D01*
X23720197Y-17636144D01*
X23905354Y-17675500D01*
X23905355Y-17675500D01*
X24094644Y-17675500D01*
X24094646Y-17675500D01*
X24279803Y-17636144D01*
X24452730Y-17559151D01*
X24605871Y-17447888D01*
X24732533Y-17307216D01*
X24827179Y-17143284D01*
X24882069Y-16974351D01*
X24921506Y-16916675D01*
X24985865Y-16889477D01*
X25054711Y-16901392D01*
X25106187Y-16948636D01*
X25117931Y-16974351D01*
X25172818Y-17143277D01*
X25172820Y-17143281D01*
X25172821Y-17143284D01*
X25267467Y-17307216D01*
X25348617Y-17397342D01*
X25394129Y-17447888D01*
X25547265Y-17559148D01*
X25547270Y-17559151D01*
X25720192Y-17636142D01*
X25720197Y-17636144D01*
X25905354Y-17675500D01*
X25905355Y-17675500D01*
X26094644Y-17675500D01*
X26094646Y-17675500D01*
X26279803Y-17636144D01*
X26452730Y-17559151D01*
X26605871Y-17447888D01*
X26732533Y-17307216D01*
X26827179Y-17143284D01*
X26885674Y-16963256D01*
X26900500Y-16822192D01*
X26900500Y-16177808D01*
X26885674Y-16036744D01*
X26827179Y-15856716D01*
X26732533Y-15692784D01*
X26605871Y-15552112D01*
X26568355Y-15524855D01*
X26452734Y-15440851D01*
X26452729Y-15440848D01*
X26279807Y-15363857D01*
X26279802Y-15363855D01*
X26134001Y-15332865D01*
X26094646Y-15324500D01*
X25905354Y-15324500D01*
X25872897Y-15331398D01*
X25720197Y-15363855D01*
X25720192Y-15363857D01*
X25547270Y-15440848D01*
X25547265Y-15440851D01*
X25394129Y-15552111D01*
X25267466Y-15692785D01*
X25172821Y-15856715D01*
X25172818Y-15856722D01*
X25117931Y-16025648D01*
X25078493Y-16083324D01*
X25014135Y-16110522D01*
X24945288Y-16098607D01*
X24893813Y-16051363D01*
X24882069Y-16025648D01*
X24827181Y-15856722D01*
X24827180Y-15856721D01*
X24827179Y-15856716D01*
X24732533Y-15692784D01*
X24605871Y-15552112D01*
X24568355Y-15524855D01*
X24452734Y-15440851D01*
X24452729Y-15440848D01*
X24279807Y-15363857D01*
X24279802Y-15363855D01*
X24134001Y-15332865D01*
X24094646Y-15324500D01*
X23905354Y-15324500D01*
X23872897Y-15331398D01*
X23720197Y-15363855D01*
X23720192Y-15363857D01*
X23547270Y-15440848D01*
X23547265Y-15440851D01*
X23394129Y-15552111D01*
X23267466Y-15692785D01*
X23172821Y-15856715D01*
X23172818Y-15856722D01*
X23117931Y-16025648D01*
X23078493Y-16083324D01*
X23014135Y-16110522D01*
X22945288Y-16098607D01*
X22893813Y-16051363D01*
X22882069Y-16025648D01*
X22827181Y-15856722D01*
X22827180Y-15856721D01*
X22827179Y-15856716D01*
X22732533Y-15692784D01*
X22605871Y-15552112D01*
X22568355Y-15524855D01*
X22452734Y-15440851D01*
X22452729Y-15440848D01*
X22279807Y-15363857D01*
X22279802Y-15363855D01*
X22134001Y-15332865D01*
X22094646Y-15324500D01*
X21905354Y-15324500D01*
X21872897Y-15331398D01*
X21720197Y-15363855D01*
X21720192Y-15363857D01*
X21547270Y-15440848D01*
X21547265Y-15440851D01*
X21394129Y-15552111D01*
X21267466Y-15692785D01*
X21172821Y-15856715D01*
X21172818Y-15856722D01*
X21117931Y-16025648D01*
X21078493Y-16083324D01*
X21014135Y-16110522D01*
X20945288Y-16098607D01*
X20893813Y-16051363D01*
X20882069Y-16025648D01*
X20827181Y-15856722D01*
X20827180Y-15856721D01*
X20827179Y-15856716D01*
X20732533Y-15692784D01*
X20605871Y-15552112D01*
X20568355Y-15524855D01*
X20452734Y-15440851D01*
X20452729Y-15440848D01*
X20279807Y-15363857D01*
X20279802Y-15363855D01*
X20134001Y-15332865D01*
X20094646Y-15324500D01*
X19905354Y-15324500D01*
X19872897Y-15331398D01*
X19720197Y-15363855D01*
X19720192Y-15363857D01*
X19547270Y-15440848D01*
X19547265Y-15440851D01*
X19394129Y-15552111D01*
X19267466Y-15692785D01*
X19172821Y-15856715D01*
X19172818Y-15856722D01*
X19117931Y-16025648D01*
X19078493Y-16083324D01*
X19014135Y-16110522D01*
X18945288Y-16098607D01*
X18893813Y-16051363D01*
X18882069Y-16025648D01*
X18827181Y-15856722D01*
X18827180Y-15856721D01*
X18827179Y-15856716D01*
X18732533Y-15692784D01*
X18605871Y-15552112D01*
X18568355Y-15524855D01*
X18452734Y-15440851D01*
X18452729Y-15440848D01*
X18279807Y-15363857D01*
X18279802Y-15363855D01*
X18134001Y-15332865D01*
X18094646Y-15324500D01*
X17905354Y-15324500D01*
X17872897Y-15331398D01*
X17720197Y-15363855D01*
X17720192Y-15363857D01*
X17547270Y-15440848D01*
X17547265Y-15440851D01*
X17394129Y-15552111D01*
X17267466Y-15692785D01*
X17172821Y-15856715D01*
X17172818Y-15856722D01*
X17117931Y-16025648D01*
X17078493Y-16083324D01*
X17014135Y-16110522D01*
X16945288Y-16098607D01*
X16893813Y-16051363D01*
X16882069Y-16025648D01*
X16827181Y-15856722D01*
X16827180Y-15856721D01*
X16827179Y-15856716D01*
X16732533Y-15692784D01*
X16605871Y-15552112D01*
X16568355Y-15524855D01*
X16452734Y-15440851D01*
X16452729Y-15440848D01*
X16279807Y-15363857D01*
X16279802Y-15363855D01*
X16134001Y-15332865D01*
X16094646Y-15324500D01*
X15905354Y-15324500D01*
X15872897Y-15331398D01*
X15720197Y-15363855D01*
X15720192Y-15363857D01*
X15547270Y-15440848D01*
X15547265Y-15440851D01*
X15394129Y-15552111D01*
X15267466Y-15692785D01*
X15172821Y-15856715D01*
X15172817Y-15856725D01*
X15170561Y-15863668D01*
X15131120Y-15921342D01*
X15066760Y-15948536D01*
X14997915Y-15936618D01*
X14946441Y-15889372D01*
X14934318Y-15862463D01*
X14923698Y-15828614D01*
X14923695Y-15828608D01*
X14824994Y-15650784D01*
X14824994Y-15650783D01*
X14692521Y-15496469D01*
X14692520Y-15496468D01*
X14531695Y-15371981D01*
X14349093Y-15282411D01*
X14250000Y-15256753D01*
X14250000Y-16219382D01*
X14180948Y-16165637D01*
X14062576Y-16125000D01*
X13968927Y-16125000D01*
X13876554Y-16140414D01*
X13766486Y-16199981D01*
X13750000Y-16217889D01*
X13750000Y-15251633D01*
X13748053Y-15251931D01*
X13748047Y-15251933D01*
X13557342Y-15322562D01*
X13557335Y-15322565D01*
X13384732Y-15430149D01*
X13237331Y-15570264D01*
X13237330Y-15570266D01*
X13121142Y-15737197D01*
X13121141Y-15737199D01*
X13118135Y-15744204D01*
X13073606Y-15798046D01*
X13007036Y-15819265D01*
X12939562Y-15801126D01*
X12892606Y-15749387D01*
X12888839Y-15740805D01*
X12834361Y-15602658D01*
X12834360Y-15602657D01*
X12834360Y-15602656D01*
X12742922Y-15482077D01*
X12622343Y-15390639D01*
X12481561Y-15335122D01*
X12435926Y-15329642D01*
X12393102Y-15324500D01*
X11606898Y-15324500D01*
X11567853Y-15329188D01*
X11518438Y-15335122D01*
X11377656Y-15390639D01*
X11257077Y-15482077D01*
X11165639Y-15602656D01*
X11110122Y-15743438D01*
X11104188Y-15792853D01*
X11099500Y-15831898D01*
X11099500Y-17168102D01*
X4825149Y-17168102D01*
X4824586Y-17162982D01*
X4756072Y-16900912D01*
X4650130Y-16651610D01*
X4509018Y-16420390D01*
X4497600Y-16406670D01*
X4335746Y-16212180D01*
X4335740Y-16212175D01*
X4134002Y-16031418D01*
X3908092Y-15881957D01*
X3869078Y-15863668D01*
X3662824Y-15766980D01*
X3662819Y-15766978D01*
X3662814Y-15766976D01*
X3403442Y-15688942D01*
X3403428Y-15688939D01*
X3287791Y-15671921D01*
X3135439Y-15649500D01*
X2932369Y-15649500D01*
X2932351Y-15649500D01*
X2729844Y-15664323D01*
X2729831Y-15664325D01*
X2465453Y-15723217D01*
X2465446Y-15723220D01*
X2212439Y-15819987D01*
X1976226Y-15952557D01*
X1761822Y-16118112D01*
X1573822Y-16313109D01*
X1573816Y-16313116D01*
X1416202Y-16533419D01*
X1416199Y-16533424D01*
X1292350Y-16774309D01*
X1292343Y-16774327D01*
X1204884Y-17030685D01*
X1204881Y-17030699D01*
X1155681Y-17297068D01*
X1155680Y-17297075D01*
X1145787Y-17567763D01*
X1175413Y-17837013D01*
X1175415Y-17837024D01*
X1243926Y-18099082D01*
X1243928Y-18099088D01*
X1349870Y-18348390D01*
X1400741Y-18431745D01*
X1490979Y-18579605D01*
X1490986Y-18579615D01*
X1664253Y-18787819D01*
X1664259Y-18787824D01*
X1769240Y-18881887D01*
X1865998Y-18968582D01*
X2091910Y-19118044D01*
X2337176Y-19233020D01*
X2337183Y-19233022D01*
X2337185Y-19233023D01*
X2416075Y-19256758D01*
X2474601Y-19294922D01*
X2503203Y-19358669D01*
X2492801Y-19427760D01*
X2446696Y-19480258D01*
X2380351Y-19499500D01*
X624500Y-19499500D01*
X557461Y-19479815D01*
X511706Y-19427011D01*
X500500Y-19375500D01*
X500500Y-6000001D01*
X3694532Y-6000001D01*
X3714364Y-6226686D01*
X3714366Y-6226697D01*
X3773258Y-6446488D01*
X3773261Y-6446497D01*
X3869431Y-6652732D01*
X3869432Y-6652734D01*
X3999954Y-6839141D01*
X4160858Y-7000045D01*
X4160861Y-7000047D01*
X4347266Y-7130568D01*
X4553504Y-7226739D01*
X4773308Y-7285635D01*
X4935230Y-7299801D01*
X4999998Y-7305468D01*
X5000000Y-7305468D01*
X5000002Y-7305468D01*
X5056673Y-7300509D01*
X5226692Y-7285635D01*
X5446496Y-7226739D01*
X5652734Y-7130568D01*
X5839139Y-7000047D01*
X6000047Y-6839139D01*
X6130568Y-6652734D01*
X6226739Y-6446496D01*
X6285635Y-6226692D01*
X6305468Y-6000001D01*
X8194532Y-6000001D01*
X8214364Y-6226686D01*
X8214366Y-6226697D01*
X8273258Y-6446488D01*
X8273261Y-6446497D01*
X8369431Y-6652732D01*
X8369432Y-6652734D01*
X8499954Y-6839141D01*
X8660858Y-7000045D01*
X8660861Y-7000047D01*
X8847266Y-7130568D01*
X9053504Y-7226739D01*
X9273308Y-7285635D01*
X9435230Y-7299801D01*
X9499998Y-7305468D01*
X9500000Y-7305468D01*
X9500002Y-7305468D01*
X9556673Y-7300509D01*
X9726692Y-7285635D01*
X9946496Y-7226739D01*
X10152734Y-7130568D01*
X10339139Y-7000047D01*
X10500047Y-6839139D01*
X10630568Y-6652734D01*
X10726739Y-6446496D01*
X10785635Y-6226692D01*
X10805468Y-6000001D01*
X12694532Y-6000001D01*
X12714364Y-6226686D01*
X12714366Y-6226697D01*
X12773258Y-6446488D01*
X12773261Y-6446497D01*
X12869431Y-6652732D01*
X12869432Y-6652734D01*
X12999954Y-6839141D01*
X13160858Y-7000045D01*
X13160861Y-7000047D01*
X13347266Y-7130568D01*
X13553504Y-7226739D01*
X13773308Y-7285635D01*
X13935230Y-7299801D01*
X13999998Y-7305468D01*
X14000000Y-7305468D01*
X14000002Y-7305468D01*
X14056673Y-7300509D01*
X14226692Y-7285635D01*
X14446496Y-7226739D01*
X14652734Y-7130568D01*
X14839139Y-7000047D01*
X15000047Y-6839139D01*
X15130568Y-6652734D01*
X15226739Y-6446496D01*
X15285635Y-6226692D01*
X15305468Y-6000001D01*
X17194532Y-6000001D01*
X17214364Y-6226686D01*
X17214366Y-6226697D01*
X17273258Y-6446488D01*
X17273261Y-6446497D01*
X17369431Y-6652732D01*
X17369432Y-6652734D01*
X17499954Y-6839141D01*
X17660858Y-7000045D01*
X17660861Y-7000047D01*
X17847266Y-7130568D01*
X18053504Y-7226739D01*
X18273308Y-7285635D01*
X18435230Y-7299801D01*
X18499998Y-7305468D01*
X18500000Y-7305468D01*
X18500002Y-7305468D01*
X18556673Y-7300509D01*
X18726692Y-7285635D01*
X18946496Y-7226739D01*
X19152734Y-7130568D01*
X19339139Y-7000047D01*
X19500047Y-6839139D01*
X19630568Y-6652734D01*
X19726739Y-6446496D01*
X19785635Y-6226692D01*
X19805468Y-6000001D01*
X21694532Y-6000001D01*
X21714364Y-6226686D01*
X21714366Y-6226697D01*
X21773258Y-6446488D01*
X21773261Y-6446497D01*
X21869431Y-6652732D01*
X21869432Y-6652734D01*
X21999954Y-6839141D01*
X22160858Y-7000045D01*
X22160861Y-7000047D01*
X22347266Y-7130568D01*
X22553504Y-7226739D01*
X22773308Y-7285635D01*
X22935230Y-7299801D01*
X22999998Y-7305468D01*
X23000000Y-7305468D01*
X23000002Y-7305468D01*
X23056673Y-7300509D01*
X23226692Y-7285635D01*
X23446496Y-7226739D01*
X23652734Y-7130568D01*
X23839139Y-7000047D01*
X24000047Y-6839139D01*
X24130568Y-6652734D01*
X24226739Y-6446496D01*
X24285635Y-6226692D01*
X24305468Y-6000001D01*
X26194532Y-6000001D01*
X26214364Y-6226686D01*
X26214366Y-6226697D01*
X26273258Y-6446488D01*
X26273261Y-6446497D01*
X26369431Y-6652732D01*
X26369432Y-6652734D01*
X26499954Y-6839141D01*
X26660858Y-7000045D01*
X26660861Y-7000047D01*
X26847266Y-7130568D01*
X27053504Y-7226739D01*
X27273308Y-7285635D01*
X27435230Y-7299801D01*
X27499998Y-7305468D01*
X27500000Y-7305468D01*
X27500002Y-7305468D01*
X27556673Y-7300509D01*
X27726692Y-7285635D01*
X27946496Y-7226739D01*
X28152734Y-7130568D01*
X28339139Y-7000047D01*
X28500047Y-6839139D01*
X28630568Y-6652734D01*
X28726739Y-6446496D01*
X28785635Y-6226692D01*
X28805468Y-6000001D01*
X30694532Y-6000001D01*
X30714364Y-6226686D01*
X30714366Y-6226697D01*
X30773258Y-6446488D01*
X30773261Y-6446497D01*
X30869431Y-6652732D01*
X30869432Y-6652734D01*
X30999954Y-6839141D01*
X31160858Y-7000045D01*
X31160861Y-7000047D01*
X31347266Y-7130568D01*
X31553504Y-7226739D01*
X31773308Y-7285635D01*
X31935230Y-7299801D01*
X31999998Y-7305468D01*
X32000000Y-7305468D01*
X32000002Y-7305468D01*
X32056673Y-7300509D01*
X32226692Y-7285635D01*
X32446496Y-7226739D01*
X32652734Y-7130568D01*
X32839139Y-7000047D01*
X33000047Y-6839139D01*
X33130568Y-6652734D01*
X33226739Y-6446496D01*
X33285635Y-6226692D01*
X33305468Y-6000001D01*
X35194532Y-6000001D01*
X35214364Y-6226686D01*
X35214366Y-6226697D01*
X35273258Y-6446488D01*
X35273261Y-6446497D01*
X35369431Y-6652732D01*
X35369432Y-6652734D01*
X35499954Y-6839141D01*
X35660858Y-7000045D01*
X35660861Y-7000047D01*
X35847266Y-7130568D01*
X36053504Y-7226739D01*
X36273308Y-7285635D01*
X36435230Y-7299801D01*
X36499998Y-7305468D01*
X36500000Y-7305468D01*
X36500002Y-7305468D01*
X36556673Y-7300509D01*
X36726692Y-7285635D01*
X36946496Y-7226739D01*
X37152734Y-7130568D01*
X37339139Y-7000047D01*
X37500047Y-6839139D01*
X37630568Y-6652734D01*
X37726739Y-6446496D01*
X37785635Y-6226692D01*
X37805468Y-6000001D01*
X39694532Y-6000001D01*
X39714364Y-6226686D01*
X39714366Y-6226697D01*
X39773258Y-6446488D01*
X39773261Y-6446497D01*
X39869431Y-6652732D01*
X39869432Y-6652734D01*
X39999954Y-6839141D01*
X40160858Y-7000045D01*
X40160861Y-7000047D01*
X40347266Y-7130568D01*
X40553504Y-7226739D01*
X40773308Y-7285635D01*
X40935230Y-7299801D01*
X40999998Y-7305468D01*
X41000000Y-7305468D01*
X41000002Y-7305468D01*
X41056673Y-7300509D01*
X41226692Y-7285635D01*
X41446496Y-7226739D01*
X41652734Y-7130568D01*
X41839139Y-7000047D01*
X42000047Y-6839139D01*
X42130568Y-6652734D01*
X42226739Y-6446496D01*
X42285635Y-6226692D01*
X42305468Y-6000001D01*
X44194532Y-6000001D01*
X44214364Y-6226686D01*
X44214366Y-6226697D01*
X44273258Y-6446488D01*
X44273261Y-6446497D01*
X44369431Y-6652732D01*
X44369432Y-6652734D01*
X44499954Y-6839141D01*
X44660858Y-7000045D01*
X44660861Y-7000047D01*
X44847266Y-7130568D01*
X45053504Y-7226739D01*
X45273308Y-7285635D01*
X45435230Y-7299801D01*
X45499998Y-7305468D01*
X45500000Y-7305468D01*
X45500002Y-7305468D01*
X45556673Y-7300509D01*
X45726692Y-7285635D01*
X45946496Y-7226739D01*
X46152734Y-7130568D01*
X46339139Y-7000047D01*
X46500047Y-6839139D01*
X46630568Y-6652734D01*
X46726739Y-6446496D01*
X46785635Y-6226692D01*
X46805468Y-6000001D01*
X48694532Y-6000001D01*
X48714364Y-6226686D01*
X48714366Y-6226697D01*
X48773258Y-6446488D01*
X48773261Y-6446497D01*
X48869431Y-6652732D01*
X48869432Y-6652734D01*
X48999954Y-6839141D01*
X49160858Y-7000045D01*
X49160861Y-7000047D01*
X49347266Y-7130568D01*
X49553504Y-7226739D01*
X49773308Y-7285635D01*
X49935230Y-7299801D01*
X49999998Y-7305468D01*
X50000000Y-7305468D01*
X50000002Y-7305468D01*
X50056673Y-7300509D01*
X50226692Y-7285635D01*
X50446496Y-7226739D01*
X50652734Y-7130568D01*
X50839139Y-7000047D01*
X51000047Y-6839139D01*
X51130568Y-6652734D01*
X51226739Y-6446496D01*
X51285635Y-6226692D01*
X51305468Y-6000001D01*
X53194532Y-6000001D01*
X53214364Y-6226686D01*
X53214366Y-6226697D01*
X53273258Y-6446488D01*
X53273261Y-6446497D01*
X53369431Y-6652732D01*
X53369432Y-6652734D01*
X53499954Y-6839141D01*
X53660858Y-7000045D01*
X53660861Y-7000047D01*
X53847266Y-7130568D01*
X54053504Y-7226739D01*
X54273308Y-7285635D01*
X54435230Y-7299801D01*
X54499998Y-7305468D01*
X54500000Y-7305468D01*
X54500002Y-7305468D01*
X54556673Y-7300509D01*
X54726692Y-7285635D01*
X54946496Y-7226739D01*
X55152734Y-7130568D01*
X55339139Y-7000047D01*
X55500047Y-6839139D01*
X55630568Y-6652734D01*
X55726739Y-6446496D01*
X55785635Y-6226692D01*
X55805468Y-6000000D01*
X55785635Y-5773308D01*
X55726739Y-5553504D01*
X55630568Y-5347266D01*
X55500047Y-5160861D01*
X55500045Y-5160858D01*
X55339141Y-4999954D01*
X55152734Y-4869432D01*
X55152732Y-4869431D01*
X54946497Y-4773261D01*
X54946488Y-4773258D01*
X54726697Y-4714366D01*
X54726693Y-4714365D01*
X54726692Y-4714365D01*
X54726691Y-4714364D01*
X54726686Y-4714364D01*
X54500002Y-4694532D01*
X54499998Y-4694532D01*
X54273313Y-4714364D01*
X54273302Y-4714366D01*
X54053511Y-4773258D01*
X54053502Y-4773261D01*
X53847267Y-4869431D01*
X53847265Y-4869432D01*
X53660858Y-4999954D01*
X53499954Y-5160858D01*
X53369432Y-5347265D01*
X53369431Y-5347267D01*
X53273261Y-5553502D01*
X53273258Y-5553511D01*
X53214366Y-5773302D01*
X53214364Y-5773313D01*
X53194532Y-5999998D01*
X53194532Y-6000001D01*
X51305468Y-6000001D01*
X51305468Y-6000000D01*
X51285635Y-5773308D01*
X51226739Y-5553504D01*
X51130568Y-5347266D01*
X51000047Y-5160861D01*
X51000045Y-5160858D01*
X50839141Y-4999954D01*
X50652734Y-4869432D01*
X50652732Y-4869431D01*
X50446497Y-4773261D01*
X50446488Y-4773258D01*
X50226697Y-4714366D01*
X50226693Y-4714365D01*
X50226692Y-4714365D01*
X50226691Y-4714364D01*
X50226686Y-4714364D01*
X50000002Y-4694532D01*
X49999998Y-4694532D01*
X49773313Y-4714364D01*
X49773302Y-4714366D01*
X49553511Y-4773258D01*
X49553502Y-4773261D01*
X49347267Y-4869431D01*
X49347265Y-4869432D01*
X49160858Y-4999954D01*
X48999954Y-5160858D01*
X48869432Y-5347265D01*
X48869431Y-5347267D01*
X48773261Y-5553502D01*
X48773258Y-5553511D01*
X48714366Y-5773302D01*
X48714364Y-5773313D01*
X48694532Y-5999998D01*
X48694532Y-6000001D01*
X46805468Y-6000001D01*
X46805468Y-6000000D01*
X46785635Y-5773308D01*
X46726739Y-5553504D01*
X46630568Y-5347266D01*
X46500047Y-5160861D01*
X46500045Y-5160858D01*
X46339141Y-4999954D01*
X46152734Y-4869432D01*
X46152732Y-4869431D01*
X45946497Y-4773261D01*
X45946488Y-4773258D01*
X45726697Y-4714366D01*
X45726693Y-4714365D01*
X45726692Y-4714365D01*
X45726691Y-4714364D01*
X45726686Y-4714364D01*
X45500002Y-4694532D01*
X45499998Y-4694532D01*
X45273313Y-4714364D01*
X45273302Y-4714366D01*
X45053511Y-4773258D01*
X45053502Y-4773261D01*
X44847267Y-4869431D01*
X44847265Y-4869432D01*
X44660858Y-4999954D01*
X44499954Y-5160858D01*
X44369432Y-5347265D01*
X44369431Y-5347267D01*
X44273261Y-5553502D01*
X44273258Y-5553511D01*
X44214366Y-5773302D01*
X44214364Y-5773313D01*
X44194532Y-5999998D01*
X44194532Y-6000001D01*
X42305468Y-6000001D01*
X42305468Y-6000000D01*
X42285635Y-5773308D01*
X42226739Y-5553504D01*
X42130568Y-5347266D01*
X42000047Y-5160861D01*
X42000045Y-5160858D01*
X41839141Y-4999954D01*
X41652734Y-4869432D01*
X41652732Y-4869431D01*
X41446497Y-4773261D01*
X41446488Y-4773258D01*
X41226697Y-4714366D01*
X41226693Y-4714365D01*
X41226692Y-4714365D01*
X41226691Y-4714364D01*
X41226686Y-4714364D01*
X41000002Y-4694532D01*
X40999998Y-4694532D01*
X40773313Y-4714364D01*
X40773302Y-4714366D01*
X40553511Y-4773258D01*
X40553502Y-4773261D01*
X40347267Y-4869431D01*
X40347265Y-4869432D01*
X40160858Y-4999954D01*
X39999954Y-5160858D01*
X39869432Y-5347265D01*
X39869431Y-5347267D01*
X39773261Y-5553502D01*
X39773258Y-5553511D01*
X39714366Y-5773302D01*
X39714364Y-5773313D01*
X39694532Y-5999998D01*
X39694532Y-6000001D01*
X37805468Y-6000001D01*
X37805468Y-6000000D01*
X37785635Y-5773308D01*
X37726739Y-5553504D01*
X37630568Y-5347266D01*
X37500047Y-5160861D01*
X37500045Y-5160858D01*
X37339141Y-4999954D01*
X37152734Y-4869432D01*
X37152732Y-4869431D01*
X36946497Y-4773261D01*
X36946488Y-4773258D01*
X36726697Y-4714366D01*
X36726693Y-4714365D01*
X36726692Y-4714365D01*
X36726691Y-4714364D01*
X36726686Y-4714364D01*
X36500002Y-4694532D01*
X36499998Y-4694532D01*
X36273313Y-4714364D01*
X36273302Y-4714366D01*
X36053511Y-4773258D01*
X36053502Y-4773261D01*
X35847267Y-4869431D01*
X35847265Y-4869432D01*
X35660858Y-4999954D01*
X35499954Y-5160858D01*
X35369432Y-5347265D01*
X35369431Y-5347267D01*
X35273261Y-5553502D01*
X35273258Y-5553511D01*
X35214366Y-5773302D01*
X35214364Y-5773313D01*
X35194532Y-5999998D01*
X35194532Y-6000001D01*
X33305468Y-6000001D01*
X33305468Y-6000000D01*
X33285635Y-5773308D01*
X33226739Y-5553504D01*
X33130568Y-5347266D01*
X33000047Y-5160861D01*
X33000045Y-5160858D01*
X32839141Y-4999954D01*
X32652734Y-4869432D01*
X32652732Y-4869431D01*
X32446497Y-4773261D01*
X32446488Y-4773258D01*
X32226697Y-4714366D01*
X32226693Y-4714365D01*
X32226692Y-4714365D01*
X32226691Y-4714364D01*
X32226686Y-4714364D01*
X32000002Y-4694532D01*
X31999998Y-4694532D01*
X31773313Y-4714364D01*
X31773302Y-4714366D01*
X31553511Y-4773258D01*
X31553502Y-4773261D01*
X31347267Y-4869431D01*
X31347265Y-4869432D01*
X31160858Y-4999954D01*
X30999954Y-5160858D01*
X30869432Y-5347265D01*
X30869431Y-5347267D01*
X30773261Y-5553502D01*
X30773258Y-5553511D01*
X30714366Y-5773302D01*
X30714364Y-5773313D01*
X30694532Y-5999998D01*
X30694532Y-6000001D01*
X28805468Y-6000001D01*
X28805468Y-6000000D01*
X28785635Y-5773308D01*
X28726739Y-5553504D01*
X28630568Y-5347266D01*
X28500047Y-5160861D01*
X28500045Y-5160858D01*
X28339141Y-4999954D01*
X28152734Y-4869432D01*
X28152732Y-4869431D01*
X27946497Y-4773261D01*
X27946488Y-4773258D01*
X27726697Y-4714366D01*
X27726693Y-4714365D01*
X27726692Y-4714365D01*
X27726691Y-4714364D01*
X27726686Y-4714364D01*
X27500002Y-4694532D01*
X27499998Y-4694532D01*
X27273313Y-4714364D01*
X27273302Y-4714366D01*
X27053511Y-4773258D01*
X27053502Y-4773261D01*
X26847267Y-4869431D01*
X26847265Y-4869432D01*
X26660858Y-4999954D01*
X26499954Y-5160858D01*
X26369432Y-5347265D01*
X26369431Y-5347267D01*
X26273261Y-5553502D01*
X26273258Y-5553511D01*
X26214366Y-5773302D01*
X26214364Y-5773313D01*
X26194532Y-5999998D01*
X26194532Y-6000001D01*
X24305468Y-6000001D01*
X24305468Y-6000000D01*
X24285635Y-5773308D01*
X24226739Y-5553504D01*
X24130568Y-5347266D01*
X24000047Y-5160861D01*
X24000045Y-5160858D01*
X23839141Y-4999954D01*
X23652734Y-4869432D01*
X23652732Y-4869431D01*
X23446497Y-4773261D01*
X23446488Y-4773258D01*
X23226697Y-4714366D01*
X23226693Y-4714365D01*
X23226692Y-4714365D01*
X23226691Y-4714364D01*
X23226686Y-4714364D01*
X23000002Y-4694532D01*
X22999998Y-4694532D01*
X22773313Y-4714364D01*
X22773302Y-4714366D01*
X22553511Y-4773258D01*
X22553502Y-4773261D01*
X22347267Y-4869431D01*
X22347265Y-4869432D01*
X22160858Y-4999954D01*
X21999954Y-5160858D01*
X21869432Y-5347265D01*
X21869431Y-5347267D01*
X21773261Y-5553502D01*
X21773258Y-5553511D01*
X21714366Y-5773302D01*
X21714364Y-5773313D01*
X21694532Y-5999998D01*
X21694532Y-6000001D01*
X19805468Y-6000001D01*
X19805468Y-6000000D01*
X19785635Y-5773308D01*
X19726739Y-5553504D01*
X19630568Y-5347266D01*
X19500047Y-5160861D01*
X19500045Y-5160858D01*
X19339141Y-4999954D01*
X19152734Y-4869432D01*
X19152732Y-4869431D01*
X18946497Y-4773261D01*
X18946488Y-4773258D01*
X18726697Y-4714366D01*
X18726693Y-4714365D01*
X18726692Y-4714365D01*
X18726691Y-4714364D01*
X18726686Y-4714364D01*
X18500002Y-4694532D01*
X18499998Y-4694532D01*
X18273313Y-4714364D01*
X18273302Y-4714366D01*
X18053511Y-4773258D01*
X18053502Y-4773261D01*
X17847267Y-4869431D01*
X17847265Y-4869432D01*
X17660858Y-4999954D01*
X17499954Y-5160858D01*
X17369432Y-5347265D01*
X17369431Y-5347267D01*
X17273261Y-5553502D01*
X17273258Y-5553511D01*
X17214366Y-5773302D01*
X17214364Y-5773313D01*
X17194532Y-5999998D01*
X17194532Y-6000001D01*
X15305468Y-6000001D01*
X15305468Y-6000000D01*
X15285635Y-5773308D01*
X15226739Y-5553504D01*
X15130568Y-5347266D01*
X15000047Y-5160861D01*
X15000045Y-5160858D01*
X14839141Y-4999954D01*
X14652734Y-4869432D01*
X14652732Y-4869431D01*
X14446497Y-4773261D01*
X14446488Y-4773258D01*
X14226697Y-4714366D01*
X14226693Y-4714365D01*
X14226692Y-4714365D01*
X14226691Y-4714364D01*
X14226686Y-4714364D01*
X14000002Y-4694532D01*
X13999998Y-4694532D01*
X13773313Y-4714364D01*
X13773302Y-4714366D01*
X13553511Y-4773258D01*
X13553502Y-4773261D01*
X13347267Y-4869431D01*
X13347265Y-4869432D01*
X13160858Y-4999954D01*
X12999954Y-5160858D01*
X12869432Y-5347265D01*
X12869431Y-5347267D01*
X12773261Y-5553502D01*
X12773258Y-5553511D01*
X12714366Y-5773302D01*
X12714364Y-5773313D01*
X12694532Y-5999998D01*
X12694532Y-6000001D01*
X10805468Y-6000001D01*
X10805468Y-6000000D01*
X10785635Y-5773308D01*
X10726739Y-5553504D01*
X10630568Y-5347266D01*
X10500047Y-5160861D01*
X10500045Y-5160858D01*
X10339141Y-4999954D01*
X10152734Y-4869432D01*
X10152732Y-4869431D01*
X9946497Y-4773261D01*
X9946488Y-4773258D01*
X9726697Y-4714366D01*
X9726693Y-4714365D01*
X9726692Y-4714365D01*
X9726691Y-4714364D01*
X9726686Y-4714364D01*
X9500002Y-4694532D01*
X9499998Y-4694532D01*
X9273313Y-4714364D01*
X9273302Y-4714366D01*
X9053511Y-4773258D01*
X9053502Y-4773261D01*
X8847267Y-4869431D01*
X8847265Y-4869432D01*
X8660858Y-4999954D01*
X8499954Y-5160858D01*
X8369432Y-5347265D01*
X8369431Y-5347267D01*
X8273261Y-5553502D01*
X8273258Y-5553511D01*
X8214366Y-5773302D01*
X8214364Y-5773313D01*
X8194532Y-5999998D01*
X8194532Y-6000001D01*
X6305468Y-6000001D01*
X6305468Y-6000000D01*
X6285635Y-5773308D01*
X6226739Y-5553504D01*
X6130568Y-5347266D01*
X6000047Y-5160861D01*
X6000045Y-5160858D01*
X5839141Y-4999954D01*
X5652734Y-4869432D01*
X5652732Y-4869431D01*
X5446497Y-4773261D01*
X5446488Y-4773258D01*
X5226697Y-4714366D01*
X5226693Y-4714365D01*
X5226692Y-4714365D01*
X5226691Y-4714364D01*
X5226686Y-4714364D01*
X5000002Y-4694532D01*
X4999998Y-4694532D01*
X4773313Y-4714364D01*
X4773302Y-4714366D01*
X4553511Y-4773258D01*
X4553502Y-4773261D01*
X4347267Y-4869431D01*
X4347265Y-4869432D01*
X4160858Y-4999954D01*
X3999954Y-5160858D01*
X3869432Y-5347265D01*
X3869431Y-5347267D01*
X3773261Y-5553502D01*
X3773258Y-5553511D01*
X3714366Y-5773302D01*
X3714364Y-5773313D01*
X3694532Y-5999998D01*
X3694532Y-6000001D01*
X500500Y-6000001D01*
X500500Y-624500D01*
X520185Y-557461D01*
X572989Y-511706D01*
X624500Y-500500D01*
X4122412Y-500500D01*
X4189451Y-520185D01*
G37*
G04 #@! TD.AperFunction*
G04 #@! TD*
M02*
