%TF.GenerationSoftware,KiCad,Pcbnew,7.0.11+dfsg-1build4*%
%TF.CreationDate,2026-07-10T19:42:36+00:00*%
%TF.ProjectId,button-board,62757474-6f6e-42d6-926f-6172642e6b69,rev?*%
%TF.SameCoordinates,Original*%
%TF.FileFunction,Drillmap*%
%TF.FilePolarity,Positive*%
%FSLAX45Y45*%
G04 Gerber Fmt 4.5, Leading zero omitted, Abs format (unit mm)*
G04 Created by KiCad (PCBNEW 7.0.11+dfsg-1build4) date 2026-07-10 19:42:36*
%MOMM*%
%LPD*%
G01*
G04 APERTURE LIST*
%ADD10C,0.150000*%
%ADD11C,0.200000*%
%ADD12C,0.100000*%
%ADD13C,0.110000*%
G04 APERTURE END LIST*
D10*
X6000000Y-2000000D02*
X0Y-2000000D01*
X6000000Y0D02*
X6000000Y-2000000D01*
X0Y0D02*
X6000000Y0D01*
X0Y-2000000D02*
X0Y0D01*
D11*
D12*
X172500Y-172500D02*
X212500Y-212500D01*
X212500Y-172500D02*
X172500Y-212500D01*
X172500Y-672500D02*
X212500Y-712500D01*
X212500Y-672500D02*
X172500Y-712500D01*
X172500Y-1172500D02*
X212500Y-1212500D01*
X212500Y-1172500D02*
X172500Y-1212500D01*
X672500Y-172500D02*
X712500Y-212500D01*
X712500Y-172500D02*
X672500Y-212500D01*
X672500Y-672500D02*
X712500Y-712500D01*
X712500Y-672500D02*
X672500Y-712500D01*
X672500Y-1672500D02*
X712500Y-1712500D01*
X712500Y-1672500D02*
X672500Y-1712500D01*
X1172500Y-172500D02*
X1212500Y-212500D01*
X1212500Y-172500D02*
X1172500Y-212500D01*
X1172500Y-672500D02*
X1212500Y-712500D01*
X1212500Y-672500D02*
X1172500Y-712500D01*
X1172500Y-1172500D02*
X1212500Y-1212500D01*
X1212500Y-1172500D02*
X1172500Y-1212500D01*
X1372500Y-1422500D02*
X1412500Y-1462500D01*
X1412500Y-1422500D02*
X1372500Y-1462500D01*
X1672500Y-672500D02*
X1712500Y-712500D01*
X1712500Y-672500D02*
X1672500Y-712500D01*
X2172500Y-672500D02*
X2212500Y-712500D01*
X2212500Y-672500D02*
X2172500Y-712500D01*
X2672500Y-672500D02*
X2712500Y-712500D01*
X2712500Y-672500D02*
X2672500Y-712500D01*
X3172500Y-1172500D02*
X3212500Y-1212500D01*
X3212500Y-1172500D02*
X3172500Y-1212500D01*
X3672500Y-672500D02*
X3712500Y-712500D01*
X3712500Y-672500D02*
X3672500Y-712500D01*
X3897500Y-1422500D02*
X3937500Y-1462500D01*
X3937500Y-1422500D02*
X3897500Y-1462500D01*
X4072500Y-1497500D02*
X4112500Y-1537500D01*
X4112500Y-1497500D02*
X4072500Y-1537500D01*
X4147500Y-1847500D02*
X4187500Y-1887500D01*
X4187500Y-1847500D02*
X4147500Y-1887500D01*
X4172500Y-672500D02*
X4212500Y-712500D01*
X4212500Y-672500D02*
X4172500Y-712500D01*
X4197500Y-1672500D02*
X4237500Y-1712500D01*
X4237500Y-1672500D02*
X4197500Y-1712500D01*
X4297500Y-822500D02*
X4337500Y-862500D01*
X4337500Y-822500D02*
X4297500Y-862500D01*
X4447500Y-1172500D02*
X4487500Y-1212500D01*
X4487500Y-1172500D02*
X4447500Y-1212500D01*
X4672500Y-672500D02*
X4712500Y-712500D01*
X4712500Y-672500D02*
X4672500Y-712500D01*
X4672500Y-1672500D02*
X4712500Y-1712500D01*
X4712500Y-1672500D02*
X4672500Y-1712500D01*
X4772500Y-1847500D02*
X4812500Y-1887500D01*
X4812500Y-1847500D02*
X4772500Y-1887500D01*
X5122500Y-1422500D02*
X5162500Y-1462500D01*
X5162500Y-1422500D02*
X5122500Y-1462500D01*
X5172500Y-172500D02*
X5212500Y-212500D01*
X5212500Y-172500D02*
X5172500Y-212500D01*
X5172500Y-672500D02*
X5212500Y-712500D01*
X5212500Y-672500D02*
X5172500Y-712500D01*
X5172500Y-1847500D02*
X5212500Y-1887500D01*
X5212500Y-1847500D02*
X5172500Y-1887500D01*
X5247500Y-1472500D02*
X5287500Y-1512500D01*
X5287500Y-1472500D02*
X5247500Y-1512500D01*
X5275000Y-1840000D02*
X5315000Y-1880000D01*
X5315000Y-1840000D02*
X5275000Y-1880000D01*
X5425000Y-1545000D02*
X5465000Y-1585000D01*
X5465000Y-1545000D02*
X5425000Y-1585000D01*
X5672500Y-172500D02*
X5712500Y-212500D01*
X5712500Y-172500D02*
X5672500Y-212500D01*
X5672500Y-672500D02*
X5712500Y-712500D01*
X5712500Y-672500D02*
X5672500Y-712500D01*
X5672500Y-1172500D02*
X5712500Y-1212500D01*
X5712500Y-1172500D02*
X5672500Y-1212500D01*
X1037500Y-1650000D02*
G75*
G03*
X962500Y-1650000I-37500J0D01*
G01*
X962500Y-1650000D02*
G75*
G03*
X1037500Y-1650000I37500J0D01*
G01*
X1237500Y-1650000D02*
G75*
G03*
X1162500Y-1650000I-37500J0D01*
G01*
X1162500Y-1650000D02*
G75*
G03*
X1237500Y-1650000I37500J0D01*
G01*
X1437500Y-1650000D02*
G75*
G03*
X1362500Y-1650000I-37500J0D01*
G01*
X1362500Y-1650000D02*
G75*
G03*
X1437500Y-1650000I37500J0D01*
G01*
X1637500Y-1650000D02*
G75*
G03*
X1562500Y-1650000I-37500J0D01*
G01*
X1562500Y-1650000D02*
G75*
G03*
X1637500Y-1650000I37500J0D01*
G01*
X1837500Y-1650000D02*
G75*
G03*
X1762500Y-1650000I-37500J0D01*
G01*
X1762500Y-1650000D02*
G75*
G03*
X1837500Y-1650000I37500J0D01*
G01*
X2037500Y-1650000D02*
G75*
G03*
X1962500Y-1650000I-37500J0D01*
G01*
X1962500Y-1650000D02*
G75*
G03*
X2037500Y-1650000I37500J0D01*
G01*
X2237500Y-1650000D02*
G75*
G03*
X2162500Y-1650000I-37500J0D01*
G01*
X2162500Y-1650000D02*
G75*
G03*
X2237500Y-1650000I37500J0D01*
G01*
X2437500Y-1650000D02*
G75*
G03*
X2362500Y-1650000I-37500J0D01*
G01*
X2362500Y-1650000D02*
G75*
G03*
X2437500Y-1650000I37500J0D01*
G01*
X2898000Y-1700000D02*
X2898000Y-1800000D01*
X2848000Y-1750000D02*
X2948000Y-1750000D01*
X3152000Y-1700000D02*
X3152000Y-1800000D01*
X3102000Y-1750000D02*
X3202000Y-1750000D01*
X3406000Y-1700000D02*
X3406000Y-1800000D01*
X3356000Y-1750000D02*
X3456000Y-1750000D01*
X3660000Y-1700000D02*
X3660000Y-1800000D01*
X3610000Y-1750000D02*
X3710000Y-1750000D01*
D13*
X538891Y-338891D02*
X538891Y-261109D01*
X461109Y-261109D01*
X461109Y-338891D01*
X538891Y-338891D01*
X538891Y-988891D02*
X538891Y-911109D01*
X461109Y-911109D01*
X461109Y-988891D01*
X538891Y-988891D01*
X988891Y-338891D02*
X988891Y-261109D01*
X911109Y-261109D01*
X911109Y-338891D01*
X988891Y-338891D01*
X988891Y-988891D02*
X988891Y-911109D01*
X911109Y-911109D01*
X911109Y-988891D01*
X988891Y-988891D01*
X1438891Y-338891D02*
X1438891Y-261109D01*
X1361109Y-261109D01*
X1361109Y-338891D01*
X1438891Y-338891D01*
X1438891Y-988891D02*
X1438891Y-911109D01*
X1361109Y-911109D01*
X1361109Y-988891D01*
X1438891Y-988891D01*
X1888891Y-338891D02*
X1888891Y-261109D01*
X1811109Y-261109D01*
X1811109Y-338891D01*
X1888891Y-338891D01*
X1888891Y-988891D02*
X1888891Y-911109D01*
X1811109Y-911109D01*
X1811109Y-988891D01*
X1888891Y-988891D01*
X2338891Y-338891D02*
X2338891Y-261109D01*
X2261109Y-261109D01*
X2261109Y-338891D01*
X2338891Y-338891D01*
X2338891Y-988891D02*
X2338891Y-911109D01*
X2261109Y-911109D01*
X2261109Y-988891D01*
X2338891Y-988891D01*
X2788891Y-338891D02*
X2788891Y-261109D01*
X2711109Y-261109D01*
X2711109Y-338891D01*
X2788891Y-338891D01*
X2788891Y-988891D02*
X2788891Y-911109D01*
X2711109Y-911109D01*
X2711109Y-988891D01*
X2788891Y-988891D01*
X3238891Y-338891D02*
X3238891Y-261109D01*
X3161109Y-261109D01*
X3161109Y-338891D01*
X3238891Y-338891D01*
X3238891Y-988891D02*
X3238891Y-911109D01*
X3161109Y-911109D01*
X3161109Y-988891D01*
X3238891Y-988891D01*
X3688891Y-338891D02*
X3688891Y-261109D01*
X3611109Y-261109D01*
X3611109Y-338891D01*
X3688891Y-338891D01*
X3688891Y-988891D02*
X3688891Y-911109D01*
X3611109Y-911109D01*
X3611109Y-988891D01*
X3688891Y-988891D01*
X4138891Y-338891D02*
X4138891Y-261109D01*
X4061109Y-261109D01*
X4061109Y-338891D01*
X4138891Y-338891D01*
X4138891Y-988891D02*
X4138891Y-911109D01*
X4061109Y-911109D01*
X4061109Y-988891D01*
X4138891Y-988891D01*
X4588891Y-338891D02*
X4588891Y-261109D01*
X4511109Y-261109D01*
X4511109Y-338891D01*
X4588891Y-338891D01*
X4588891Y-988891D02*
X4588891Y-911109D01*
X4511109Y-911109D01*
X4511109Y-988891D01*
X4588891Y-988891D01*
X5038891Y-338891D02*
X5038891Y-261109D01*
X4961109Y-261109D01*
X4961109Y-338891D01*
X5038891Y-338891D01*
X5038891Y-988891D02*
X5038891Y-911109D01*
X4961109Y-911109D01*
X4961109Y-988891D01*
X5038891Y-988891D01*
X5488891Y-338891D02*
X5488891Y-261109D01*
X5411109Y-261109D01*
X5411109Y-338891D01*
X5488891Y-338891D01*
X5488891Y-988891D02*
X5488891Y-911109D01*
X5411109Y-911109D01*
X5411109Y-988891D01*
X5488891Y-988891D01*
D11*
X253277Y-2318984D02*
X253277Y-2118984D01*
X253277Y-2118984D02*
X300896Y-2118984D01*
X300896Y-2118984D02*
X329467Y-2128508D01*
X329467Y-2128508D02*
X348515Y-2147555D01*
X348515Y-2147555D02*
X358039Y-2166603D01*
X358039Y-2166603D02*
X367562Y-2204698D01*
X367562Y-2204698D02*
X367562Y-2233270D01*
X367562Y-2233270D02*
X358039Y-2271365D01*
X358039Y-2271365D02*
X348515Y-2290412D01*
X348515Y-2290412D02*
X329467Y-2309460D01*
X329467Y-2309460D02*
X300896Y-2318984D01*
X300896Y-2318984D02*
X253277Y-2318984D01*
X453277Y-2318984D02*
X453277Y-2185650D01*
X453277Y-2223746D02*
X462801Y-2204698D01*
X462801Y-2204698D02*
X472324Y-2195174D01*
X472324Y-2195174D02*
X491372Y-2185650D01*
X491372Y-2185650D02*
X510420Y-2185650D01*
X577086Y-2318984D02*
X577086Y-2185650D01*
X577086Y-2118984D02*
X567563Y-2128508D01*
X567563Y-2128508D02*
X577086Y-2138031D01*
X577086Y-2138031D02*
X586610Y-2128508D01*
X586610Y-2128508D02*
X577086Y-2118984D01*
X577086Y-2118984D02*
X577086Y-2138031D01*
X700896Y-2318984D02*
X681848Y-2309460D01*
X681848Y-2309460D02*
X672324Y-2290412D01*
X672324Y-2290412D02*
X672324Y-2118984D01*
X805658Y-2318984D02*
X786610Y-2309460D01*
X786610Y-2309460D02*
X777086Y-2290412D01*
X777086Y-2290412D02*
X777086Y-2118984D01*
X1034229Y-2318984D02*
X1034229Y-2118984D01*
X1034229Y-2118984D02*
X1100896Y-2261841D01*
X1100896Y-2261841D02*
X1167563Y-2118984D01*
X1167563Y-2118984D02*
X1167563Y-2318984D01*
X1348515Y-2318984D02*
X1348515Y-2214222D01*
X1348515Y-2214222D02*
X1338991Y-2195174D01*
X1338991Y-2195174D02*
X1319944Y-2185650D01*
X1319944Y-2185650D02*
X1281848Y-2185650D01*
X1281848Y-2185650D02*
X1262801Y-2195174D01*
X1348515Y-2309460D02*
X1329467Y-2318984D01*
X1329467Y-2318984D02*
X1281848Y-2318984D01*
X1281848Y-2318984D02*
X1262801Y-2309460D01*
X1262801Y-2309460D02*
X1253277Y-2290412D01*
X1253277Y-2290412D02*
X1253277Y-2271365D01*
X1253277Y-2271365D02*
X1262801Y-2252317D01*
X1262801Y-2252317D02*
X1281848Y-2242793D01*
X1281848Y-2242793D02*
X1329467Y-2242793D01*
X1329467Y-2242793D02*
X1348515Y-2233270D01*
X1443753Y-2185650D02*
X1443753Y-2385650D01*
X1443753Y-2195174D02*
X1462801Y-2185650D01*
X1462801Y-2185650D02*
X1500896Y-2185650D01*
X1500896Y-2185650D02*
X1519943Y-2195174D01*
X1519943Y-2195174D02*
X1529467Y-2204698D01*
X1529467Y-2204698D02*
X1538991Y-2223746D01*
X1538991Y-2223746D02*
X1538991Y-2280889D01*
X1538991Y-2280889D02*
X1529467Y-2299936D01*
X1529467Y-2299936D02*
X1519943Y-2309460D01*
X1519943Y-2309460D02*
X1500896Y-2318984D01*
X1500896Y-2318984D02*
X1462801Y-2318984D01*
X1462801Y-2318984D02*
X1443753Y-2309460D01*
X1624705Y-2299936D02*
X1634229Y-2309460D01*
X1634229Y-2309460D02*
X1624705Y-2318984D01*
X1624705Y-2318984D02*
X1615182Y-2309460D01*
X1615182Y-2309460D02*
X1624705Y-2299936D01*
X1624705Y-2299936D02*
X1624705Y-2318984D01*
X1624705Y-2195174D02*
X1634229Y-2204698D01*
X1634229Y-2204698D02*
X1624705Y-2214222D01*
X1624705Y-2214222D02*
X1615182Y-2204698D01*
X1615182Y-2204698D02*
X1624705Y-2195174D01*
X1624705Y-2195174D02*
X1624705Y-2214222D01*
D12*
X-47500Y-2627500D02*
X-7500Y-2667500D01*
X-7500Y-2627500D02*
X-47500Y-2667500D01*
D11*
X291372Y-2538984D02*
X310420Y-2538984D01*
X310420Y-2538984D02*
X329467Y-2548508D01*
X329467Y-2548508D02*
X338991Y-2558031D01*
X338991Y-2558031D02*
X348515Y-2577079D01*
X348515Y-2577079D02*
X358039Y-2615174D01*
X358039Y-2615174D02*
X358039Y-2662793D01*
X358039Y-2662793D02*
X348515Y-2700889D01*
X348515Y-2700889D02*
X338991Y-2719936D01*
X338991Y-2719936D02*
X329467Y-2729460D01*
X329467Y-2729460D02*
X310420Y-2738984D01*
X310420Y-2738984D02*
X291372Y-2738984D01*
X291372Y-2738984D02*
X272324Y-2729460D01*
X272324Y-2729460D02*
X262801Y-2719936D01*
X262801Y-2719936D02*
X253277Y-2700889D01*
X253277Y-2700889D02*
X243753Y-2662793D01*
X243753Y-2662793D02*
X243753Y-2615174D01*
X243753Y-2615174D02*
X253277Y-2577079D01*
X253277Y-2577079D02*
X262801Y-2558031D01*
X262801Y-2558031D02*
X272324Y-2548508D01*
X272324Y-2548508D02*
X291372Y-2538984D01*
X443753Y-2719936D02*
X453277Y-2729460D01*
X453277Y-2729460D02*
X443753Y-2738984D01*
X443753Y-2738984D02*
X434229Y-2729460D01*
X434229Y-2729460D02*
X443753Y-2719936D01*
X443753Y-2719936D02*
X443753Y-2738984D01*
X624705Y-2605650D02*
X624705Y-2738984D01*
X577086Y-2529460D02*
X529467Y-2672317D01*
X529467Y-2672317D02*
X653277Y-2672317D01*
X767562Y-2538984D02*
X786610Y-2538984D01*
X786610Y-2538984D02*
X805658Y-2548508D01*
X805658Y-2548508D02*
X815182Y-2558031D01*
X815182Y-2558031D02*
X824705Y-2577079D01*
X824705Y-2577079D02*
X834229Y-2615174D01*
X834229Y-2615174D02*
X834229Y-2662793D01*
X834229Y-2662793D02*
X824705Y-2700889D01*
X824705Y-2700889D02*
X815182Y-2719936D01*
X815182Y-2719936D02*
X805658Y-2729460D01*
X805658Y-2729460D02*
X786610Y-2738984D01*
X786610Y-2738984D02*
X767562Y-2738984D01*
X767562Y-2738984D02*
X748515Y-2729460D01*
X748515Y-2729460D02*
X738991Y-2719936D01*
X738991Y-2719936D02*
X729467Y-2700889D01*
X729467Y-2700889D02*
X719943Y-2662793D01*
X719943Y-2662793D02*
X719943Y-2615174D01*
X719943Y-2615174D02*
X729467Y-2577079D01*
X729467Y-2577079D02*
X738991Y-2558031D01*
X738991Y-2558031D02*
X748515Y-2548508D01*
X748515Y-2548508D02*
X767562Y-2538984D01*
X958039Y-2538984D02*
X977086Y-2538984D01*
X977086Y-2538984D02*
X996134Y-2548508D01*
X996134Y-2548508D02*
X1005658Y-2558031D01*
X1005658Y-2558031D02*
X1015182Y-2577079D01*
X1015182Y-2577079D02*
X1024705Y-2615174D01*
X1024705Y-2615174D02*
X1024705Y-2662793D01*
X1024705Y-2662793D02*
X1015182Y-2700889D01*
X1015182Y-2700889D02*
X1005658Y-2719936D01*
X1005658Y-2719936D02*
X996134Y-2729460D01*
X996134Y-2729460D02*
X977086Y-2738984D01*
X977086Y-2738984D02*
X958039Y-2738984D01*
X958039Y-2738984D02*
X938991Y-2729460D01*
X938991Y-2729460D02*
X929467Y-2719936D01*
X929467Y-2719936D02*
X919943Y-2700889D01*
X919943Y-2700889D02*
X910420Y-2662793D01*
X910420Y-2662793D02*
X910420Y-2615174D01*
X910420Y-2615174D02*
X919943Y-2577079D01*
X919943Y-2577079D02*
X929467Y-2558031D01*
X929467Y-2558031D02*
X938991Y-2548508D01*
X938991Y-2548508D02*
X958039Y-2538984D01*
X1110420Y-2738984D02*
X1110420Y-2605650D01*
X1110420Y-2624698D02*
X1119944Y-2615174D01*
X1119944Y-2615174D02*
X1138991Y-2605650D01*
X1138991Y-2605650D02*
X1167563Y-2605650D01*
X1167563Y-2605650D02*
X1186610Y-2615174D01*
X1186610Y-2615174D02*
X1196134Y-2634222D01*
X1196134Y-2634222D02*
X1196134Y-2738984D01*
X1196134Y-2634222D02*
X1205658Y-2615174D01*
X1205658Y-2615174D02*
X1224705Y-2605650D01*
X1224705Y-2605650D02*
X1253277Y-2605650D01*
X1253277Y-2605650D02*
X1272325Y-2615174D01*
X1272325Y-2615174D02*
X1281848Y-2634222D01*
X1281848Y-2634222D02*
X1281848Y-2738984D01*
X1377086Y-2738984D02*
X1377086Y-2605650D01*
X1377086Y-2624698D02*
X1386610Y-2615174D01*
X1386610Y-2615174D02*
X1405658Y-2605650D01*
X1405658Y-2605650D02*
X1434229Y-2605650D01*
X1434229Y-2605650D02*
X1453277Y-2615174D01*
X1453277Y-2615174D02*
X1462801Y-2634222D01*
X1462801Y-2634222D02*
X1462801Y-2738984D01*
X1462801Y-2634222D02*
X1472324Y-2615174D01*
X1472324Y-2615174D02*
X1491372Y-2605650D01*
X1491372Y-2605650D02*
X1519943Y-2605650D01*
X1519943Y-2605650D02*
X1538991Y-2615174D01*
X1538991Y-2615174D02*
X1548515Y-2634222D01*
X1548515Y-2634222D02*
X1548515Y-2738984D01*
X1938991Y-2529460D02*
X1767563Y-2786603D01*
X2196134Y-2538984D02*
X2215182Y-2538984D01*
X2215182Y-2538984D02*
X2234229Y-2548508D01*
X2234229Y-2548508D02*
X2243753Y-2558031D01*
X2243753Y-2558031D02*
X2253277Y-2577079D01*
X2253277Y-2577079D02*
X2262801Y-2615174D01*
X2262801Y-2615174D02*
X2262801Y-2662793D01*
X2262801Y-2662793D02*
X2253277Y-2700889D01*
X2253277Y-2700889D02*
X2243753Y-2719936D01*
X2243753Y-2719936D02*
X2234229Y-2729460D01*
X2234229Y-2729460D02*
X2215182Y-2738984D01*
X2215182Y-2738984D02*
X2196134Y-2738984D01*
X2196134Y-2738984D02*
X2177087Y-2729460D01*
X2177087Y-2729460D02*
X2167563Y-2719936D01*
X2167563Y-2719936D02*
X2158039Y-2700889D01*
X2158039Y-2700889D02*
X2148515Y-2662793D01*
X2148515Y-2662793D02*
X2148515Y-2615174D01*
X2148515Y-2615174D02*
X2158039Y-2577079D01*
X2158039Y-2577079D02*
X2167563Y-2558031D01*
X2167563Y-2558031D02*
X2177087Y-2548508D01*
X2177087Y-2548508D02*
X2196134Y-2538984D01*
X2348515Y-2719936D02*
X2358039Y-2729460D01*
X2358039Y-2729460D02*
X2348515Y-2738984D01*
X2348515Y-2738984D02*
X2338991Y-2729460D01*
X2338991Y-2729460D02*
X2348515Y-2719936D01*
X2348515Y-2719936D02*
X2348515Y-2738984D01*
X2481848Y-2538984D02*
X2500896Y-2538984D01*
X2500896Y-2538984D02*
X2519944Y-2548508D01*
X2519944Y-2548508D02*
X2529468Y-2558031D01*
X2529468Y-2558031D02*
X2538991Y-2577079D01*
X2538991Y-2577079D02*
X2548515Y-2615174D01*
X2548515Y-2615174D02*
X2548515Y-2662793D01*
X2548515Y-2662793D02*
X2538991Y-2700889D01*
X2538991Y-2700889D02*
X2529468Y-2719936D01*
X2529468Y-2719936D02*
X2519944Y-2729460D01*
X2519944Y-2729460D02*
X2500896Y-2738984D01*
X2500896Y-2738984D02*
X2481848Y-2738984D01*
X2481848Y-2738984D02*
X2462801Y-2729460D01*
X2462801Y-2729460D02*
X2453277Y-2719936D01*
X2453277Y-2719936D02*
X2443753Y-2700889D01*
X2443753Y-2700889D02*
X2434229Y-2662793D01*
X2434229Y-2662793D02*
X2434229Y-2615174D01*
X2434229Y-2615174D02*
X2443753Y-2577079D01*
X2443753Y-2577079D02*
X2453277Y-2558031D01*
X2453277Y-2558031D02*
X2462801Y-2548508D01*
X2462801Y-2548508D02*
X2481848Y-2538984D01*
X2738991Y-2738984D02*
X2624706Y-2738984D01*
X2681848Y-2738984D02*
X2681848Y-2538984D01*
X2681848Y-2538984D02*
X2662801Y-2567555D01*
X2662801Y-2567555D02*
X2643753Y-2586603D01*
X2643753Y-2586603D02*
X2624706Y-2596127D01*
X2919944Y-2538984D02*
X2824706Y-2538984D01*
X2824706Y-2538984D02*
X2815182Y-2634222D01*
X2815182Y-2634222D02*
X2824706Y-2624698D01*
X2824706Y-2624698D02*
X2843753Y-2615174D01*
X2843753Y-2615174D02*
X2891372Y-2615174D01*
X2891372Y-2615174D02*
X2910420Y-2624698D01*
X2910420Y-2624698D02*
X2919944Y-2634222D01*
X2919944Y-2634222D02*
X2929467Y-2653270D01*
X2929467Y-2653270D02*
X2929467Y-2700889D01*
X2929467Y-2700889D02*
X2919944Y-2719936D01*
X2919944Y-2719936D02*
X2910420Y-2729460D01*
X2910420Y-2729460D02*
X2891372Y-2738984D01*
X2891372Y-2738984D02*
X2843753Y-2738984D01*
X2843753Y-2738984D02*
X2824706Y-2729460D01*
X2824706Y-2729460D02*
X2815182Y-2719936D01*
X2996134Y-2538984D02*
X3129467Y-2538984D01*
X3129467Y-2538984D02*
X3043753Y-2738984D01*
X3196134Y-2538984D02*
X3196134Y-2577079D01*
X3272325Y-2538984D02*
X3272325Y-2577079D01*
X3567563Y-2815174D02*
X3558039Y-2805650D01*
X3558039Y-2805650D02*
X3538991Y-2777079D01*
X3538991Y-2777079D02*
X3529468Y-2758031D01*
X3529468Y-2758031D02*
X3519944Y-2729460D01*
X3519944Y-2729460D02*
X3510420Y-2681841D01*
X3510420Y-2681841D02*
X3510420Y-2643746D01*
X3510420Y-2643746D02*
X3519944Y-2596127D01*
X3519944Y-2596127D02*
X3529468Y-2567555D01*
X3529468Y-2567555D02*
X3538991Y-2548508D01*
X3538991Y-2548508D02*
X3558039Y-2519936D01*
X3558039Y-2519936D02*
X3567563Y-2510412D01*
X3624706Y-2538984D02*
X3748515Y-2538984D01*
X3748515Y-2538984D02*
X3681848Y-2615174D01*
X3681848Y-2615174D02*
X3710420Y-2615174D01*
X3710420Y-2615174D02*
X3729468Y-2624698D01*
X3729468Y-2624698D02*
X3738991Y-2634222D01*
X3738991Y-2634222D02*
X3748515Y-2653270D01*
X3748515Y-2653270D02*
X3748515Y-2700889D01*
X3748515Y-2700889D02*
X3738991Y-2719936D01*
X3738991Y-2719936D02*
X3729468Y-2729460D01*
X3729468Y-2729460D02*
X3710420Y-2738984D01*
X3710420Y-2738984D02*
X3653277Y-2738984D01*
X3653277Y-2738984D02*
X3634229Y-2729460D01*
X3634229Y-2729460D02*
X3624706Y-2719936D01*
X3929468Y-2538984D02*
X3834229Y-2538984D01*
X3834229Y-2538984D02*
X3824706Y-2634222D01*
X3824706Y-2634222D02*
X3834229Y-2624698D01*
X3834229Y-2624698D02*
X3853277Y-2615174D01*
X3853277Y-2615174D02*
X3900896Y-2615174D01*
X3900896Y-2615174D02*
X3919944Y-2624698D01*
X3919944Y-2624698D02*
X3929468Y-2634222D01*
X3929468Y-2634222D02*
X3938991Y-2653270D01*
X3938991Y-2653270D02*
X3938991Y-2700889D01*
X3938991Y-2700889D02*
X3929468Y-2719936D01*
X3929468Y-2719936D02*
X3919944Y-2729460D01*
X3919944Y-2729460D02*
X3900896Y-2738984D01*
X3900896Y-2738984D02*
X3853277Y-2738984D01*
X3853277Y-2738984D02*
X3834229Y-2729460D01*
X3834229Y-2729460D02*
X3824706Y-2719936D01*
X4177087Y-2738984D02*
X4177087Y-2538984D01*
X4262801Y-2738984D02*
X4262801Y-2634222D01*
X4262801Y-2634222D02*
X4253277Y-2615174D01*
X4253277Y-2615174D02*
X4234230Y-2605650D01*
X4234230Y-2605650D02*
X4205658Y-2605650D01*
X4205658Y-2605650D02*
X4186610Y-2615174D01*
X4186610Y-2615174D02*
X4177087Y-2624698D01*
X4386611Y-2738984D02*
X4367563Y-2729460D01*
X4367563Y-2729460D02*
X4358039Y-2719936D01*
X4358039Y-2719936D02*
X4348515Y-2700889D01*
X4348515Y-2700889D02*
X4348515Y-2643746D01*
X4348515Y-2643746D02*
X4358039Y-2624698D01*
X4358039Y-2624698D02*
X4367563Y-2615174D01*
X4367563Y-2615174D02*
X4386611Y-2605650D01*
X4386611Y-2605650D02*
X4415182Y-2605650D01*
X4415182Y-2605650D02*
X4434230Y-2615174D01*
X4434230Y-2615174D02*
X4443753Y-2624698D01*
X4443753Y-2624698D02*
X4453277Y-2643746D01*
X4453277Y-2643746D02*
X4453277Y-2700889D01*
X4453277Y-2700889D02*
X4443753Y-2719936D01*
X4443753Y-2719936D02*
X4434230Y-2729460D01*
X4434230Y-2729460D02*
X4415182Y-2738984D01*
X4415182Y-2738984D02*
X4386611Y-2738984D01*
X4567563Y-2738984D02*
X4548515Y-2729460D01*
X4548515Y-2729460D02*
X4538992Y-2710412D01*
X4538992Y-2710412D02*
X4538992Y-2538984D01*
X4719944Y-2729460D02*
X4700896Y-2738984D01*
X4700896Y-2738984D02*
X4662801Y-2738984D01*
X4662801Y-2738984D02*
X4643753Y-2729460D01*
X4643753Y-2729460D02*
X4634230Y-2710412D01*
X4634230Y-2710412D02*
X4634230Y-2634222D01*
X4634230Y-2634222D02*
X4643753Y-2615174D01*
X4643753Y-2615174D02*
X4662801Y-2605650D01*
X4662801Y-2605650D02*
X4700896Y-2605650D01*
X4700896Y-2605650D02*
X4719944Y-2615174D01*
X4719944Y-2615174D02*
X4729468Y-2634222D01*
X4729468Y-2634222D02*
X4729468Y-2653270D01*
X4729468Y-2653270D02*
X4634230Y-2672317D01*
X4805658Y-2729460D02*
X4824706Y-2738984D01*
X4824706Y-2738984D02*
X4862801Y-2738984D01*
X4862801Y-2738984D02*
X4881849Y-2729460D01*
X4881849Y-2729460D02*
X4891373Y-2710412D01*
X4891373Y-2710412D02*
X4891373Y-2700889D01*
X4891373Y-2700889D02*
X4881849Y-2681841D01*
X4881849Y-2681841D02*
X4862801Y-2672317D01*
X4862801Y-2672317D02*
X4834230Y-2672317D01*
X4834230Y-2672317D02*
X4815182Y-2662793D01*
X4815182Y-2662793D02*
X4805658Y-2643746D01*
X4805658Y-2643746D02*
X4805658Y-2634222D01*
X4805658Y-2634222D02*
X4815182Y-2615174D01*
X4815182Y-2615174D02*
X4834230Y-2605650D01*
X4834230Y-2605650D02*
X4862801Y-2605650D01*
X4862801Y-2605650D02*
X4881849Y-2615174D01*
X4958039Y-2815174D02*
X4967563Y-2805650D01*
X4967563Y-2805650D02*
X4986611Y-2777079D01*
X4986611Y-2777079D02*
X4996134Y-2758031D01*
X4996134Y-2758031D02*
X5005658Y-2729460D01*
X5005658Y-2729460D02*
X5015182Y-2681841D01*
X5015182Y-2681841D02*
X5015182Y-2643746D01*
X5015182Y-2643746D02*
X5005658Y-2596127D01*
X5005658Y-2596127D02*
X4996134Y-2567555D01*
X4996134Y-2567555D02*
X4986611Y-2548508D01*
X4986611Y-2548508D02*
X4967563Y-2519936D01*
X4967563Y-2519936D02*
X4958039Y-2510412D01*
D12*
X-7500Y-2911500D02*
G75*
G03*
X-82500Y-2911500I-37500J0D01*
G01*
X-82500Y-2911500D02*
G75*
G03*
X-7500Y-2911500I37500J0D01*
G01*
D11*
X291372Y-2802984D02*
X310420Y-2802984D01*
X310420Y-2802984D02*
X329467Y-2812508D01*
X329467Y-2812508D02*
X338991Y-2822031D01*
X338991Y-2822031D02*
X348515Y-2841079D01*
X348515Y-2841079D02*
X358039Y-2879174D01*
X358039Y-2879174D02*
X358039Y-2926793D01*
X358039Y-2926793D02*
X348515Y-2964888D01*
X348515Y-2964888D02*
X338991Y-2983936D01*
X338991Y-2983936D02*
X329467Y-2993460D01*
X329467Y-2993460D02*
X310420Y-3002984D01*
X310420Y-3002984D02*
X291372Y-3002984D01*
X291372Y-3002984D02*
X272324Y-2993460D01*
X272324Y-2993460D02*
X262801Y-2983936D01*
X262801Y-2983936D02*
X253277Y-2964888D01*
X253277Y-2964888D02*
X243753Y-2926793D01*
X243753Y-2926793D02*
X243753Y-2879174D01*
X243753Y-2879174D02*
X253277Y-2841079D01*
X253277Y-2841079D02*
X262801Y-2822031D01*
X262801Y-2822031D02*
X272324Y-2812508D01*
X272324Y-2812508D02*
X291372Y-2802984D01*
X443753Y-2983936D02*
X453277Y-2993460D01*
X453277Y-2993460D02*
X443753Y-3002984D01*
X443753Y-3002984D02*
X434229Y-2993460D01*
X434229Y-2993460D02*
X443753Y-2983936D01*
X443753Y-2983936D02*
X443753Y-3002984D01*
X519943Y-2802984D02*
X653277Y-2802984D01*
X653277Y-2802984D02*
X567563Y-3002984D01*
X824705Y-2802984D02*
X729467Y-2802984D01*
X729467Y-2802984D02*
X719943Y-2898222D01*
X719943Y-2898222D02*
X729467Y-2888698D01*
X729467Y-2888698D02*
X748515Y-2879174D01*
X748515Y-2879174D02*
X796134Y-2879174D01*
X796134Y-2879174D02*
X815182Y-2888698D01*
X815182Y-2888698D02*
X824705Y-2898222D01*
X824705Y-2898222D02*
X834229Y-2917269D01*
X834229Y-2917269D02*
X834229Y-2964888D01*
X834229Y-2964888D02*
X824705Y-2983936D01*
X824705Y-2983936D02*
X815182Y-2993460D01*
X815182Y-2993460D02*
X796134Y-3002984D01*
X796134Y-3002984D02*
X748515Y-3002984D01*
X748515Y-3002984D02*
X729467Y-2993460D01*
X729467Y-2993460D02*
X719943Y-2983936D01*
X958039Y-2802984D02*
X977086Y-2802984D01*
X977086Y-2802984D02*
X996134Y-2812508D01*
X996134Y-2812508D02*
X1005658Y-2822031D01*
X1005658Y-2822031D02*
X1015182Y-2841079D01*
X1015182Y-2841079D02*
X1024705Y-2879174D01*
X1024705Y-2879174D02*
X1024705Y-2926793D01*
X1024705Y-2926793D02*
X1015182Y-2964888D01*
X1015182Y-2964888D02*
X1005658Y-2983936D01*
X1005658Y-2983936D02*
X996134Y-2993460D01*
X996134Y-2993460D02*
X977086Y-3002984D01*
X977086Y-3002984D02*
X958039Y-3002984D01*
X958039Y-3002984D02*
X938991Y-2993460D01*
X938991Y-2993460D02*
X929467Y-2983936D01*
X929467Y-2983936D02*
X919943Y-2964888D01*
X919943Y-2964888D02*
X910420Y-2926793D01*
X910420Y-2926793D02*
X910420Y-2879174D01*
X910420Y-2879174D02*
X919943Y-2841079D01*
X919943Y-2841079D02*
X929467Y-2822031D01*
X929467Y-2822031D02*
X938991Y-2812508D01*
X938991Y-2812508D02*
X958039Y-2802984D01*
X1110420Y-3002984D02*
X1110420Y-2869650D01*
X1110420Y-2888698D02*
X1119944Y-2879174D01*
X1119944Y-2879174D02*
X1138991Y-2869650D01*
X1138991Y-2869650D02*
X1167563Y-2869650D01*
X1167563Y-2869650D02*
X1186610Y-2879174D01*
X1186610Y-2879174D02*
X1196134Y-2898222D01*
X1196134Y-2898222D02*
X1196134Y-3002984D01*
X1196134Y-2898222D02*
X1205658Y-2879174D01*
X1205658Y-2879174D02*
X1224705Y-2869650D01*
X1224705Y-2869650D02*
X1253277Y-2869650D01*
X1253277Y-2869650D02*
X1272325Y-2879174D01*
X1272325Y-2879174D02*
X1281848Y-2898222D01*
X1281848Y-2898222D02*
X1281848Y-3002984D01*
X1377086Y-3002984D02*
X1377086Y-2869650D01*
X1377086Y-2888698D02*
X1386610Y-2879174D01*
X1386610Y-2879174D02*
X1405658Y-2869650D01*
X1405658Y-2869650D02*
X1434229Y-2869650D01*
X1434229Y-2869650D02*
X1453277Y-2879174D01*
X1453277Y-2879174D02*
X1462801Y-2898222D01*
X1462801Y-2898222D02*
X1462801Y-3002984D01*
X1462801Y-2898222D02*
X1472324Y-2879174D01*
X1472324Y-2879174D02*
X1491372Y-2869650D01*
X1491372Y-2869650D02*
X1519943Y-2869650D01*
X1519943Y-2869650D02*
X1538991Y-2879174D01*
X1538991Y-2879174D02*
X1548515Y-2898222D01*
X1548515Y-2898222D02*
X1548515Y-3002984D01*
X1938991Y-2793460D02*
X1767563Y-3050603D01*
X2196134Y-2802984D02*
X2215182Y-2802984D01*
X2215182Y-2802984D02*
X2234229Y-2812508D01*
X2234229Y-2812508D02*
X2243753Y-2822031D01*
X2243753Y-2822031D02*
X2253277Y-2841079D01*
X2253277Y-2841079D02*
X2262801Y-2879174D01*
X2262801Y-2879174D02*
X2262801Y-2926793D01*
X2262801Y-2926793D02*
X2253277Y-2964888D01*
X2253277Y-2964888D02*
X2243753Y-2983936D01*
X2243753Y-2983936D02*
X2234229Y-2993460D01*
X2234229Y-2993460D02*
X2215182Y-3002984D01*
X2215182Y-3002984D02*
X2196134Y-3002984D01*
X2196134Y-3002984D02*
X2177087Y-2993460D01*
X2177087Y-2993460D02*
X2167563Y-2983936D01*
X2167563Y-2983936D02*
X2158039Y-2964888D01*
X2158039Y-2964888D02*
X2148515Y-2926793D01*
X2148515Y-2926793D02*
X2148515Y-2879174D01*
X2148515Y-2879174D02*
X2158039Y-2841079D01*
X2158039Y-2841079D02*
X2167563Y-2822031D01*
X2167563Y-2822031D02*
X2177087Y-2812508D01*
X2177087Y-2812508D02*
X2196134Y-2802984D01*
X2348515Y-2983936D02*
X2358039Y-2993460D01*
X2358039Y-2993460D02*
X2348515Y-3002984D01*
X2348515Y-3002984D02*
X2338991Y-2993460D01*
X2338991Y-2993460D02*
X2348515Y-2983936D01*
X2348515Y-2983936D02*
X2348515Y-3002984D01*
X2481848Y-2802984D02*
X2500896Y-2802984D01*
X2500896Y-2802984D02*
X2519944Y-2812508D01*
X2519944Y-2812508D02*
X2529468Y-2822031D01*
X2529468Y-2822031D02*
X2538991Y-2841079D01*
X2538991Y-2841079D02*
X2548515Y-2879174D01*
X2548515Y-2879174D02*
X2548515Y-2926793D01*
X2548515Y-2926793D02*
X2538991Y-2964888D01*
X2538991Y-2964888D02*
X2529468Y-2983936D01*
X2529468Y-2983936D02*
X2519944Y-2993460D01*
X2519944Y-2993460D02*
X2500896Y-3002984D01*
X2500896Y-3002984D02*
X2481848Y-3002984D01*
X2481848Y-3002984D02*
X2462801Y-2993460D01*
X2462801Y-2993460D02*
X2453277Y-2983936D01*
X2453277Y-2983936D02*
X2443753Y-2964888D01*
X2443753Y-2964888D02*
X2434229Y-2926793D01*
X2434229Y-2926793D02*
X2434229Y-2879174D01*
X2434229Y-2879174D02*
X2443753Y-2841079D01*
X2443753Y-2841079D02*
X2453277Y-2822031D01*
X2453277Y-2822031D02*
X2462801Y-2812508D01*
X2462801Y-2812508D02*
X2481848Y-2802984D01*
X2624706Y-2822031D02*
X2634229Y-2812508D01*
X2634229Y-2812508D02*
X2653277Y-2802984D01*
X2653277Y-2802984D02*
X2700896Y-2802984D01*
X2700896Y-2802984D02*
X2719944Y-2812508D01*
X2719944Y-2812508D02*
X2729468Y-2822031D01*
X2729468Y-2822031D02*
X2738991Y-2841079D01*
X2738991Y-2841079D02*
X2738991Y-2860127D01*
X2738991Y-2860127D02*
X2729468Y-2888698D01*
X2729468Y-2888698D02*
X2615182Y-3002984D01*
X2615182Y-3002984D02*
X2738991Y-3002984D01*
X2834229Y-3002984D02*
X2872325Y-3002984D01*
X2872325Y-3002984D02*
X2891372Y-2993460D01*
X2891372Y-2993460D02*
X2900896Y-2983936D01*
X2900896Y-2983936D02*
X2919944Y-2955365D01*
X2919944Y-2955365D02*
X2929467Y-2917269D01*
X2929467Y-2917269D02*
X2929467Y-2841079D01*
X2929467Y-2841079D02*
X2919944Y-2822031D01*
X2919944Y-2822031D02*
X2910420Y-2812508D01*
X2910420Y-2812508D02*
X2891372Y-2802984D01*
X2891372Y-2802984D02*
X2853277Y-2802984D01*
X2853277Y-2802984D02*
X2834229Y-2812508D01*
X2834229Y-2812508D02*
X2824706Y-2822031D01*
X2824706Y-2822031D02*
X2815182Y-2841079D01*
X2815182Y-2841079D02*
X2815182Y-2888698D01*
X2815182Y-2888698D02*
X2824706Y-2907746D01*
X2824706Y-2907746D02*
X2834229Y-2917269D01*
X2834229Y-2917269D02*
X2853277Y-2926793D01*
X2853277Y-2926793D02*
X2891372Y-2926793D01*
X2891372Y-2926793D02*
X2910420Y-2917269D01*
X2910420Y-2917269D02*
X2919944Y-2907746D01*
X2919944Y-2907746D02*
X2929467Y-2888698D01*
X3110420Y-2802984D02*
X3015182Y-2802984D01*
X3015182Y-2802984D02*
X3005658Y-2898222D01*
X3005658Y-2898222D02*
X3015182Y-2888698D01*
X3015182Y-2888698D02*
X3034229Y-2879174D01*
X3034229Y-2879174D02*
X3081848Y-2879174D01*
X3081848Y-2879174D02*
X3100896Y-2888698D01*
X3100896Y-2888698D02*
X3110420Y-2898222D01*
X3110420Y-2898222D02*
X3119944Y-2917269D01*
X3119944Y-2917269D02*
X3119944Y-2964888D01*
X3119944Y-2964888D02*
X3110420Y-2983936D01*
X3110420Y-2983936D02*
X3100896Y-2993460D01*
X3100896Y-2993460D02*
X3081848Y-3002984D01*
X3081848Y-3002984D02*
X3034229Y-3002984D01*
X3034229Y-3002984D02*
X3015182Y-2993460D01*
X3015182Y-2993460D02*
X3005658Y-2983936D01*
X3196134Y-2802984D02*
X3196134Y-2841079D01*
X3272325Y-2802984D02*
X3272325Y-2841079D01*
X3567563Y-3079174D02*
X3558039Y-3069650D01*
X3558039Y-3069650D02*
X3538991Y-3041079D01*
X3538991Y-3041079D02*
X3529468Y-3022031D01*
X3529468Y-3022031D02*
X3519944Y-2993460D01*
X3519944Y-2993460D02*
X3510420Y-2945841D01*
X3510420Y-2945841D02*
X3510420Y-2907746D01*
X3510420Y-2907746D02*
X3519944Y-2860127D01*
X3519944Y-2860127D02*
X3529468Y-2831555D01*
X3529468Y-2831555D02*
X3538991Y-2812508D01*
X3538991Y-2812508D02*
X3558039Y-2783936D01*
X3558039Y-2783936D02*
X3567563Y-2774412D01*
X3672325Y-2888698D02*
X3653277Y-2879174D01*
X3653277Y-2879174D02*
X3643753Y-2869650D01*
X3643753Y-2869650D02*
X3634229Y-2850603D01*
X3634229Y-2850603D02*
X3634229Y-2841079D01*
X3634229Y-2841079D02*
X3643753Y-2822031D01*
X3643753Y-2822031D02*
X3653277Y-2812508D01*
X3653277Y-2812508D02*
X3672325Y-2802984D01*
X3672325Y-2802984D02*
X3710420Y-2802984D01*
X3710420Y-2802984D02*
X3729468Y-2812508D01*
X3729468Y-2812508D02*
X3738991Y-2822031D01*
X3738991Y-2822031D02*
X3748515Y-2841079D01*
X3748515Y-2841079D02*
X3748515Y-2850603D01*
X3748515Y-2850603D02*
X3738991Y-2869650D01*
X3738991Y-2869650D02*
X3729468Y-2879174D01*
X3729468Y-2879174D02*
X3710420Y-2888698D01*
X3710420Y-2888698D02*
X3672325Y-2888698D01*
X3672325Y-2888698D02*
X3653277Y-2898222D01*
X3653277Y-2898222D02*
X3643753Y-2907746D01*
X3643753Y-2907746D02*
X3634229Y-2926793D01*
X3634229Y-2926793D02*
X3634229Y-2964888D01*
X3634229Y-2964888D02*
X3643753Y-2983936D01*
X3643753Y-2983936D02*
X3653277Y-2993460D01*
X3653277Y-2993460D02*
X3672325Y-3002984D01*
X3672325Y-3002984D02*
X3710420Y-3002984D01*
X3710420Y-3002984D02*
X3729468Y-2993460D01*
X3729468Y-2993460D02*
X3738991Y-2983936D01*
X3738991Y-2983936D02*
X3748515Y-2964888D01*
X3748515Y-2964888D02*
X3748515Y-2926793D01*
X3748515Y-2926793D02*
X3738991Y-2907746D01*
X3738991Y-2907746D02*
X3729468Y-2898222D01*
X3729468Y-2898222D02*
X3710420Y-2888698D01*
X3986610Y-3002984D02*
X3986610Y-2802984D01*
X4072325Y-3002984D02*
X4072325Y-2898222D01*
X4072325Y-2898222D02*
X4062801Y-2879174D01*
X4062801Y-2879174D02*
X4043753Y-2869650D01*
X4043753Y-2869650D02*
X4015182Y-2869650D01*
X4015182Y-2869650D02*
X3996134Y-2879174D01*
X3996134Y-2879174D02*
X3986610Y-2888698D01*
X4196134Y-3002984D02*
X4177087Y-2993460D01*
X4177087Y-2993460D02*
X4167563Y-2983936D01*
X4167563Y-2983936D02*
X4158039Y-2964888D01*
X4158039Y-2964888D02*
X4158039Y-2907746D01*
X4158039Y-2907746D02*
X4167563Y-2888698D01*
X4167563Y-2888698D02*
X4177087Y-2879174D01*
X4177087Y-2879174D02*
X4196134Y-2869650D01*
X4196134Y-2869650D02*
X4224706Y-2869650D01*
X4224706Y-2869650D02*
X4243753Y-2879174D01*
X4243753Y-2879174D02*
X4253277Y-2888698D01*
X4253277Y-2888698D02*
X4262801Y-2907746D01*
X4262801Y-2907746D02*
X4262801Y-2964888D01*
X4262801Y-2964888D02*
X4253277Y-2983936D01*
X4253277Y-2983936D02*
X4243753Y-2993460D01*
X4243753Y-2993460D02*
X4224706Y-3002984D01*
X4224706Y-3002984D02*
X4196134Y-3002984D01*
X4377087Y-3002984D02*
X4358039Y-2993460D01*
X4358039Y-2993460D02*
X4348515Y-2974412D01*
X4348515Y-2974412D02*
X4348515Y-2802984D01*
X4529468Y-2993460D02*
X4510420Y-3002984D01*
X4510420Y-3002984D02*
X4472325Y-3002984D01*
X4472325Y-3002984D02*
X4453277Y-2993460D01*
X4453277Y-2993460D02*
X4443753Y-2974412D01*
X4443753Y-2974412D02*
X4443753Y-2898222D01*
X4443753Y-2898222D02*
X4453277Y-2879174D01*
X4453277Y-2879174D02*
X4472325Y-2869650D01*
X4472325Y-2869650D02*
X4510420Y-2869650D01*
X4510420Y-2869650D02*
X4529468Y-2879174D01*
X4529468Y-2879174D02*
X4538992Y-2898222D01*
X4538992Y-2898222D02*
X4538992Y-2917269D01*
X4538992Y-2917269D02*
X4443753Y-2936317D01*
X4615182Y-2993460D02*
X4634230Y-3002984D01*
X4634230Y-3002984D02*
X4672325Y-3002984D01*
X4672325Y-3002984D02*
X4691373Y-2993460D01*
X4691373Y-2993460D02*
X4700896Y-2974412D01*
X4700896Y-2974412D02*
X4700896Y-2964888D01*
X4700896Y-2964888D02*
X4691373Y-2945841D01*
X4691373Y-2945841D02*
X4672325Y-2936317D01*
X4672325Y-2936317D02*
X4643753Y-2936317D01*
X4643753Y-2936317D02*
X4624706Y-2926793D01*
X4624706Y-2926793D02*
X4615182Y-2907746D01*
X4615182Y-2907746D02*
X4615182Y-2898222D01*
X4615182Y-2898222D02*
X4624706Y-2879174D01*
X4624706Y-2879174D02*
X4643753Y-2869650D01*
X4643753Y-2869650D02*
X4672325Y-2869650D01*
X4672325Y-2869650D02*
X4691373Y-2879174D01*
X4767563Y-3079174D02*
X4777087Y-3069650D01*
X4777087Y-3069650D02*
X4796134Y-3041079D01*
X4796134Y-3041079D02*
X4805658Y-3022031D01*
X4805658Y-3022031D02*
X4815182Y-2993460D01*
X4815182Y-2993460D02*
X4824706Y-2945841D01*
X4824706Y-2945841D02*
X4824706Y-2907746D01*
X4824706Y-2907746D02*
X4815182Y-2860127D01*
X4815182Y-2860127D02*
X4805658Y-2831555D01*
X4805658Y-2831555D02*
X4796134Y-2812508D01*
X4796134Y-2812508D02*
X4777087Y-2783936D01*
X4777087Y-2783936D02*
X4767563Y-2774412D01*
D12*
X-57500Y-3125500D02*
X-57500Y-3225500D01*
X-107500Y-3175500D02*
X-7500Y-3175500D01*
D11*
X358039Y-3266984D02*
X243753Y-3266984D01*
X300896Y-3266984D02*
X300896Y-3066984D01*
X300896Y-3066984D02*
X281848Y-3095555D01*
X281848Y-3095555D02*
X262801Y-3114603D01*
X262801Y-3114603D02*
X243753Y-3124127D01*
X443753Y-3247936D02*
X453277Y-3257460D01*
X453277Y-3257460D02*
X443753Y-3266984D01*
X443753Y-3266984D02*
X434229Y-3257460D01*
X434229Y-3257460D02*
X443753Y-3247936D01*
X443753Y-3247936D02*
X443753Y-3266984D01*
X577086Y-3066984D02*
X596134Y-3066984D01*
X596134Y-3066984D02*
X615182Y-3076508D01*
X615182Y-3076508D02*
X624705Y-3086031D01*
X624705Y-3086031D02*
X634229Y-3105079D01*
X634229Y-3105079D02*
X643753Y-3143174D01*
X643753Y-3143174D02*
X643753Y-3190793D01*
X643753Y-3190793D02*
X634229Y-3228888D01*
X634229Y-3228888D02*
X624705Y-3247936D01*
X624705Y-3247936D02*
X615182Y-3257460D01*
X615182Y-3257460D02*
X596134Y-3266984D01*
X596134Y-3266984D02*
X577086Y-3266984D01*
X577086Y-3266984D02*
X558039Y-3257460D01*
X558039Y-3257460D02*
X548515Y-3247936D01*
X548515Y-3247936D02*
X538991Y-3228888D01*
X538991Y-3228888D02*
X529467Y-3190793D01*
X529467Y-3190793D02*
X529467Y-3143174D01*
X529467Y-3143174D02*
X538991Y-3105079D01*
X538991Y-3105079D02*
X548515Y-3086031D01*
X548515Y-3086031D02*
X558039Y-3076508D01*
X558039Y-3076508D02*
X577086Y-3066984D01*
X767562Y-3066984D02*
X786610Y-3066984D01*
X786610Y-3066984D02*
X805658Y-3076508D01*
X805658Y-3076508D02*
X815182Y-3086031D01*
X815182Y-3086031D02*
X824705Y-3105079D01*
X824705Y-3105079D02*
X834229Y-3143174D01*
X834229Y-3143174D02*
X834229Y-3190793D01*
X834229Y-3190793D02*
X824705Y-3228888D01*
X824705Y-3228888D02*
X815182Y-3247936D01*
X815182Y-3247936D02*
X805658Y-3257460D01*
X805658Y-3257460D02*
X786610Y-3266984D01*
X786610Y-3266984D02*
X767562Y-3266984D01*
X767562Y-3266984D02*
X748515Y-3257460D01*
X748515Y-3257460D02*
X738991Y-3247936D01*
X738991Y-3247936D02*
X729467Y-3228888D01*
X729467Y-3228888D02*
X719943Y-3190793D01*
X719943Y-3190793D02*
X719943Y-3143174D01*
X719943Y-3143174D02*
X729467Y-3105079D01*
X729467Y-3105079D02*
X738991Y-3086031D01*
X738991Y-3086031D02*
X748515Y-3076508D01*
X748515Y-3076508D02*
X767562Y-3066984D01*
X958039Y-3066984D02*
X977086Y-3066984D01*
X977086Y-3066984D02*
X996134Y-3076508D01*
X996134Y-3076508D02*
X1005658Y-3086031D01*
X1005658Y-3086031D02*
X1015182Y-3105079D01*
X1015182Y-3105079D02*
X1024705Y-3143174D01*
X1024705Y-3143174D02*
X1024705Y-3190793D01*
X1024705Y-3190793D02*
X1015182Y-3228888D01*
X1015182Y-3228888D02*
X1005658Y-3247936D01*
X1005658Y-3247936D02*
X996134Y-3257460D01*
X996134Y-3257460D02*
X977086Y-3266984D01*
X977086Y-3266984D02*
X958039Y-3266984D01*
X958039Y-3266984D02*
X938991Y-3257460D01*
X938991Y-3257460D02*
X929467Y-3247936D01*
X929467Y-3247936D02*
X919943Y-3228888D01*
X919943Y-3228888D02*
X910420Y-3190793D01*
X910420Y-3190793D02*
X910420Y-3143174D01*
X910420Y-3143174D02*
X919943Y-3105079D01*
X919943Y-3105079D02*
X929467Y-3086031D01*
X929467Y-3086031D02*
X938991Y-3076508D01*
X938991Y-3076508D02*
X958039Y-3066984D01*
X1110420Y-3266984D02*
X1110420Y-3133650D01*
X1110420Y-3152698D02*
X1119944Y-3143174D01*
X1119944Y-3143174D02*
X1138991Y-3133650D01*
X1138991Y-3133650D02*
X1167563Y-3133650D01*
X1167563Y-3133650D02*
X1186610Y-3143174D01*
X1186610Y-3143174D02*
X1196134Y-3162222D01*
X1196134Y-3162222D02*
X1196134Y-3266984D01*
X1196134Y-3162222D02*
X1205658Y-3143174D01*
X1205658Y-3143174D02*
X1224705Y-3133650D01*
X1224705Y-3133650D02*
X1253277Y-3133650D01*
X1253277Y-3133650D02*
X1272325Y-3143174D01*
X1272325Y-3143174D02*
X1281848Y-3162222D01*
X1281848Y-3162222D02*
X1281848Y-3266984D01*
X1377086Y-3266984D02*
X1377086Y-3133650D01*
X1377086Y-3152698D02*
X1386610Y-3143174D01*
X1386610Y-3143174D02*
X1405658Y-3133650D01*
X1405658Y-3133650D02*
X1434229Y-3133650D01*
X1434229Y-3133650D02*
X1453277Y-3143174D01*
X1453277Y-3143174D02*
X1462801Y-3162222D01*
X1462801Y-3162222D02*
X1462801Y-3266984D01*
X1462801Y-3162222D02*
X1472324Y-3143174D01*
X1472324Y-3143174D02*
X1491372Y-3133650D01*
X1491372Y-3133650D02*
X1519943Y-3133650D01*
X1519943Y-3133650D02*
X1538991Y-3143174D01*
X1538991Y-3143174D02*
X1548515Y-3162222D01*
X1548515Y-3162222D02*
X1548515Y-3266984D01*
X1938991Y-3057460D02*
X1767563Y-3314603D01*
X2196134Y-3066984D02*
X2215182Y-3066984D01*
X2215182Y-3066984D02*
X2234229Y-3076508D01*
X2234229Y-3076508D02*
X2243753Y-3086031D01*
X2243753Y-3086031D02*
X2253277Y-3105079D01*
X2253277Y-3105079D02*
X2262801Y-3143174D01*
X2262801Y-3143174D02*
X2262801Y-3190793D01*
X2262801Y-3190793D02*
X2253277Y-3228888D01*
X2253277Y-3228888D02*
X2243753Y-3247936D01*
X2243753Y-3247936D02*
X2234229Y-3257460D01*
X2234229Y-3257460D02*
X2215182Y-3266984D01*
X2215182Y-3266984D02*
X2196134Y-3266984D01*
X2196134Y-3266984D02*
X2177087Y-3257460D01*
X2177087Y-3257460D02*
X2167563Y-3247936D01*
X2167563Y-3247936D02*
X2158039Y-3228888D01*
X2158039Y-3228888D02*
X2148515Y-3190793D01*
X2148515Y-3190793D02*
X2148515Y-3143174D01*
X2148515Y-3143174D02*
X2158039Y-3105079D01*
X2158039Y-3105079D02*
X2167563Y-3086031D01*
X2167563Y-3086031D02*
X2177087Y-3076508D01*
X2177087Y-3076508D02*
X2196134Y-3066984D01*
X2348515Y-3247936D02*
X2358039Y-3257460D01*
X2358039Y-3257460D02*
X2348515Y-3266984D01*
X2348515Y-3266984D02*
X2338991Y-3257460D01*
X2338991Y-3257460D02*
X2348515Y-3247936D01*
X2348515Y-3247936D02*
X2348515Y-3266984D01*
X2481848Y-3066984D02*
X2500896Y-3066984D01*
X2500896Y-3066984D02*
X2519944Y-3076508D01*
X2519944Y-3076508D02*
X2529468Y-3086031D01*
X2529468Y-3086031D02*
X2538991Y-3105079D01*
X2538991Y-3105079D02*
X2548515Y-3143174D01*
X2548515Y-3143174D02*
X2548515Y-3190793D01*
X2548515Y-3190793D02*
X2538991Y-3228888D01*
X2538991Y-3228888D02*
X2529468Y-3247936D01*
X2529468Y-3247936D02*
X2519944Y-3257460D01*
X2519944Y-3257460D02*
X2500896Y-3266984D01*
X2500896Y-3266984D02*
X2481848Y-3266984D01*
X2481848Y-3266984D02*
X2462801Y-3257460D01*
X2462801Y-3257460D02*
X2453277Y-3247936D01*
X2453277Y-3247936D02*
X2443753Y-3228888D01*
X2443753Y-3228888D02*
X2434229Y-3190793D01*
X2434229Y-3190793D02*
X2434229Y-3143174D01*
X2434229Y-3143174D02*
X2443753Y-3105079D01*
X2443753Y-3105079D02*
X2453277Y-3086031D01*
X2453277Y-3086031D02*
X2462801Y-3076508D01*
X2462801Y-3076508D02*
X2481848Y-3066984D01*
X2615182Y-3066984D02*
X2738991Y-3066984D01*
X2738991Y-3066984D02*
X2672325Y-3143174D01*
X2672325Y-3143174D02*
X2700896Y-3143174D01*
X2700896Y-3143174D02*
X2719944Y-3152698D01*
X2719944Y-3152698D02*
X2729468Y-3162222D01*
X2729468Y-3162222D02*
X2738991Y-3181269D01*
X2738991Y-3181269D02*
X2738991Y-3228888D01*
X2738991Y-3228888D02*
X2729468Y-3247936D01*
X2729468Y-3247936D02*
X2719944Y-3257460D01*
X2719944Y-3257460D02*
X2700896Y-3266984D01*
X2700896Y-3266984D02*
X2643753Y-3266984D01*
X2643753Y-3266984D02*
X2624706Y-3257460D01*
X2624706Y-3257460D02*
X2615182Y-3247936D01*
X2834229Y-3266984D02*
X2872325Y-3266984D01*
X2872325Y-3266984D02*
X2891372Y-3257460D01*
X2891372Y-3257460D02*
X2900896Y-3247936D01*
X2900896Y-3247936D02*
X2919944Y-3219365D01*
X2919944Y-3219365D02*
X2929467Y-3181269D01*
X2929467Y-3181269D02*
X2929467Y-3105079D01*
X2929467Y-3105079D02*
X2919944Y-3086031D01*
X2919944Y-3086031D02*
X2910420Y-3076508D01*
X2910420Y-3076508D02*
X2891372Y-3066984D01*
X2891372Y-3066984D02*
X2853277Y-3066984D01*
X2853277Y-3066984D02*
X2834229Y-3076508D01*
X2834229Y-3076508D02*
X2824706Y-3086031D01*
X2824706Y-3086031D02*
X2815182Y-3105079D01*
X2815182Y-3105079D02*
X2815182Y-3152698D01*
X2815182Y-3152698D02*
X2824706Y-3171746D01*
X2824706Y-3171746D02*
X2834229Y-3181269D01*
X2834229Y-3181269D02*
X2853277Y-3190793D01*
X2853277Y-3190793D02*
X2891372Y-3190793D01*
X2891372Y-3190793D02*
X2910420Y-3181269D01*
X2910420Y-3181269D02*
X2919944Y-3171746D01*
X2919944Y-3171746D02*
X2929467Y-3152698D01*
X3100896Y-3133650D02*
X3100896Y-3266984D01*
X3053277Y-3057460D02*
X3005658Y-3200317D01*
X3005658Y-3200317D02*
X3129467Y-3200317D01*
X3196134Y-3066984D02*
X3196134Y-3105079D01*
X3272325Y-3066984D02*
X3272325Y-3105079D01*
X3567563Y-3343174D02*
X3558039Y-3333650D01*
X3558039Y-3333650D02*
X3538991Y-3305079D01*
X3538991Y-3305079D02*
X3529468Y-3286031D01*
X3529468Y-3286031D02*
X3519944Y-3257460D01*
X3519944Y-3257460D02*
X3510420Y-3209841D01*
X3510420Y-3209841D02*
X3510420Y-3171746D01*
X3510420Y-3171746D02*
X3519944Y-3124127D01*
X3519944Y-3124127D02*
X3529468Y-3095555D01*
X3529468Y-3095555D02*
X3538991Y-3076508D01*
X3538991Y-3076508D02*
X3558039Y-3047936D01*
X3558039Y-3047936D02*
X3567563Y-3038412D01*
X3729468Y-3133650D02*
X3729468Y-3266984D01*
X3681848Y-3057460D02*
X3634229Y-3200317D01*
X3634229Y-3200317D02*
X3758039Y-3200317D01*
X3986610Y-3266984D02*
X3986610Y-3066984D01*
X4072325Y-3266984D02*
X4072325Y-3162222D01*
X4072325Y-3162222D02*
X4062801Y-3143174D01*
X4062801Y-3143174D02*
X4043753Y-3133650D01*
X4043753Y-3133650D02*
X4015182Y-3133650D01*
X4015182Y-3133650D02*
X3996134Y-3143174D01*
X3996134Y-3143174D02*
X3986610Y-3152698D01*
X4196134Y-3266984D02*
X4177087Y-3257460D01*
X4177087Y-3257460D02*
X4167563Y-3247936D01*
X4167563Y-3247936D02*
X4158039Y-3228888D01*
X4158039Y-3228888D02*
X4158039Y-3171746D01*
X4158039Y-3171746D02*
X4167563Y-3152698D01*
X4167563Y-3152698D02*
X4177087Y-3143174D01*
X4177087Y-3143174D02*
X4196134Y-3133650D01*
X4196134Y-3133650D02*
X4224706Y-3133650D01*
X4224706Y-3133650D02*
X4243753Y-3143174D01*
X4243753Y-3143174D02*
X4253277Y-3152698D01*
X4253277Y-3152698D02*
X4262801Y-3171746D01*
X4262801Y-3171746D02*
X4262801Y-3228888D01*
X4262801Y-3228888D02*
X4253277Y-3247936D01*
X4253277Y-3247936D02*
X4243753Y-3257460D01*
X4243753Y-3257460D02*
X4224706Y-3266984D01*
X4224706Y-3266984D02*
X4196134Y-3266984D01*
X4377087Y-3266984D02*
X4358039Y-3257460D01*
X4358039Y-3257460D02*
X4348515Y-3238412D01*
X4348515Y-3238412D02*
X4348515Y-3066984D01*
X4529468Y-3257460D02*
X4510420Y-3266984D01*
X4510420Y-3266984D02*
X4472325Y-3266984D01*
X4472325Y-3266984D02*
X4453277Y-3257460D01*
X4453277Y-3257460D02*
X4443753Y-3238412D01*
X4443753Y-3238412D02*
X4443753Y-3162222D01*
X4443753Y-3162222D02*
X4453277Y-3143174D01*
X4453277Y-3143174D02*
X4472325Y-3133650D01*
X4472325Y-3133650D02*
X4510420Y-3133650D01*
X4510420Y-3133650D02*
X4529468Y-3143174D01*
X4529468Y-3143174D02*
X4538992Y-3162222D01*
X4538992Y-3162222D02*
X4538992Y-3181269D01*
X4538992Y-3181269D02*
X4443753Y-3200317D01*
X4615182Y-3257460D02*
X4634230Y-3266984D01*
X4634230Y-3266984D02*
X4672325Y-3266984D01*
X4672325Y-3266984D02*
X4691373Y-3257460D01*
X4691373Y-3257460D02*
X4700896Y-3238412D01*
X4700896Y-3238412D02*
X4700896Y-3228888D01*
X4700896Y-3228888D02*
X4691373Y-3209841D01*
X4691373Y-3209841D02*
X4672325Y-3200317D01*
X4672325Y-3200317D02*
X4643753Y-3200317D01*
X4643753Y-3200317D02*
X4624706Y-3190793D01*
X4624706Y-3190793D02*
X4615182Y-3171746D01*
X4615182Y-3171746D02*
X4615182Y-3162222D01*
X4615182Y-3162222D02*
X4624706Y-3143174D01*
X4624706Y-3143174D02*
X4643753Y-3133650D01*
X4643753Y-3133650D02*
X4672325Y-3133650D01*
X4672325Y-3133650D02*
X4691373Y-3143174D01*
X4767563Y-3343174D02*
X4777087Y-3333650D01*
X4777087Y-3333650D02*
X4796134Y-3305079D01*
X4796134Y-3305079D02*
X4805658Y-3286031D01*
X4805658Y-3286031D02*
X4815182Y-3257460D01*
X4815182Y-3257460D02*
X4824706Y-3209841D01*
X4824706Y-3209841D02*
X4824706Y-3171746D01*
X4824706Y-3171746D02*
X4815182Y-3124127D01*
X4815182Y-3124127D02*
X4805658Y-3095555D01*
X4805658Y-3095555D02*
X4796134Y-3076508D01*
X4796134Y-3076508D02*
X4777087Y-3047936D01*
X4777087Y-3047936D02*
X4767563Y-3038412D01*
D13*
X-23609Y-3478391D02*
X-23609Y-3400609D01*
X-101391Y-3400609D01*
X-101391Y-3478391D01*
X-23609Y-3478391D01*
D11*
X358039Y-3530984D02*
X243753Y-3530984D01*
X300896Y-3530984D02*
X300896Y-3330984D01*
X300896Y-3330984D02*
X281848Y-3359555D01*
X281848Y-3359555D02*
X262801Y-3378603D01*
X262801Y-3378603D02*
X243753Y-3388127D01*
X443753Y-3511936D02*
X453277Y-3521460D01*
X453277Y-3521460D02*
X443753Y-3530984D01*
X443753Y-3530984D02*
X434229Y-3521460D01*
X434229Y-3521460D02*
X443753Y-3511936D01*
X443753Y-3511936D02*
X443753Y-3530984D01*
X643753Y-3530984D02*
X529467Y-3530984D01*
X586610Y-3530984D02*
X586610Y-3330984D01*
X586610Y-3330984D02*
X567563Y-3359555D01*
X567563Y-3359555D02*
X548515Y-3378603D01*
X548515Y-3378603D02*
X529467Y-3388127D01*
X767562Y-3330984D02*
X786610Y-3330984D01*
X786610Y-3330984D02*
X805658Y-3340508D01*
X805658Y-3340508D02*
X815182Y-3350031D01*
X815182Y-3350031D02*
X824705Y-3369079D01*
X824705Y-3369079D02*
X834229Y-3407174D01*
X834229Y-3407174D02*
X834229Y-3454793D01*
X834229Y-3454793D02*
X824705Y-3492888D01*
X824705Y-3492888D02*
X815182Y-3511936D01*
X815182Y-3511936D02*
X805658Y-3521460D01*
X805658Y-3521460D02*
X786610Y-3530984D01*
X786610Y-3530984D02*
X767562Y-3530984D01*
X767562Y-3530984D02*
X748515Y-3521460D01*
X748515Y-3521460D02*
X738991Y-3511936D01*
X738991Y-3511936D02*
X729467Y-3492888D01*
X729467Y-3492888D02*
X719943Y-3454793D01*
X719943Y-3454793D02*
X719943Y-3407174D01*
X719943Y-3407174D02*
X729467Y-3369079D01*
X729467Y-3369079D02*
X738991Y-3350031D01*
X738991Y-3350031D02*
X748515Y-3340508D01*
X748515Y-3340508D02*
X767562Y-3330984D01*
X958039Y-3330984D02*
X977086Y-3330984D01*
X977086Y-3330984D02*
X996134Y-3340508D01*
X996134Y-3340508D02*
X1005658Y-3350031D01*
X1005658Y-3350031D02*
X1015182Y-3369079D01*
X1015182Y-3369079D02*
X1024705Y-3407174D01*
X1024705Y-3407174D02*
X1024705Y-3454793D01*
X1024705Y-3454793D02*
X1015182Y-3492888D01*
X1015182Y-3492888D02*
X1005658Y-3511936D01*
X1005658Y-3511936D02*
X996134Y-3521460D01*
X996134Y-3521460D02*
X977086Y-3530984D01*
X977086Y-3530984D02*
X958039Y-3530984D01*
X958039Y-3530984D02*
X938991Y-3521460D01*
X938991Y-3521460D02*
X929467Y-3511936D01*
X929467Y-3511936D02*
X919943Y-3492888D01*
X919943Y-3492888D02*
X910420Y-3454793D01*
X910420Y-3454793D02*
X910420Y-3407174D01*
X910420Y-3407174D02*
X919943Y-3369079D01*
X919943Y-3369079D02*
X929467Y-3350031D01*
X929467Y-3350031D02*
X938991Y-3340508D01*
X938991Y-3340508D02*
X958039Y-3330984D01*
X1110420Y-3530984D02*
X1110420Y-3397650D01*
X1110420Y-3416698D02*
X1119944Y-3407174D01*
X1119944Y-3407174D02*
X1138991Y-3397650D01*
X1138991Y-3397650D02*
X1167563Y-3397650D01*
X1167563Y-3397650D02*
X1186610Y-3407174D01*
X1186610Y-3407174D02*
X1196134Y-3426222D01*
X1196134Y-3426222D02*
X1196134Y-3530984D01*
X1196134Y-3426222D02*
X1205658Y-3407174D01*
X1205658Y-3407174D02*
X1224705Y-3397650D01*
X1224705Y-3397650D02*
X1253277Y-3397650D01*
X1253277Y-3397650D02*
X1272325Y-3407174D01*
X1272325Y-3407174D02*
X1281848Y-3426222D01*
X1281848Y-3426222D02*
X1281848Y-3530984D01*
X1377086Y-3530984D02*
X1377086Y-3397650D01*
X1377086Y-3416698D02*
X1386610Y-3407174D01*
X1386610Y-3407174D02*
X1405658Y-3397650D01*
X1405658Y-3397650D02*
X1434229Y-3397650D01*
X1434229Y-3397650D02*
X1453277Y-3407174D01*
X1453277Y-3407174D02*
X1462801Y-3426222D01*
X1462801Y-3426222D02*
X1462801Y-3530984D01*
X1462801Y-3426222D02*
X1472324Y-3407174D01*
X1472324Y-3407174D02*
X1491372Y-3397650D01*
X1491372Y-3397650D02*
X1519943Y-3397650D01*
X1519943Y-3397650D02*
X1538991Y-3407174D01*
X1538991Y-3407174D02*
X1548515Y-3426222D01*
X1548515Y-3426222D02*
X1548515Y-3530984D01*
X1938991Y-3321460D02*
X1767563Y-3578603D01*
X2196134Y-3330984D02*
X2215182Y-3330984D01*
X2215182Y-3330984D02*
X2234229Y-3340508D01*
X2234229Y-3340508D02*
X2243753Y-3350031D01*
X2243753Y-3350031D02*
X2253277Y-3369079D01*
X2253277Y-3369079D02*
X2262801Y-3407174D01*
X2262801Y-3407174D02*
X2262801Y-3454793D01*
X2262801Y-3454793D02*
X2253277Y-3492888D01*
X2253277Y-3492888D02*
X2243753Y-3511936D01*
X2243753Y-3511936D02*
X2234229Y-3521460D01*
X2234229Y-3521460D02*
X2215182Y-3530984D01*
X2215182Y-3530984D02*
X2196134Y-3530984D01*
X2196134Y-3530984D02*
X2177087Y-3521460D01*
X2177087Y-3521460D02*
X2167563Y-3511936D01*
X2167563Y-3511936D02*
X2158039Y-3492888D01*
X2158039Y-3492888D02*
X2148515Y-3454793D01*
X2148515Y-3454793D02*
X2148515Y-3407174D01*
X2148515Y-3407174D02*
X2158039Y-3369079D01*
X2158039Y-3369079D02*
X2167563Y-3350031D01*
X2167563Y-3350031D02*
X2177087Y-3340508D01*
X2177087Y-3340508D02*
X2196134Y-3330984D01*
X2348515Y-3511936D02*
X2358039Y-3521460D01*
X2358039Y-3521460D02*
X2348515Y-3530984D01*
X2348515Y-3530984D02*
X2338991Y-3521460D01*
X2338991Y-3521460D02*
X2348515Y-3511936D01*
X2348515Y-3511936D02*
X2348515Y-3530984D01*
X2481848Y-3330984D02*
X2500896Y-3330984D01*
X2500896Y-3330984D02*
X2519944Y-3340508D01*
X2519944Y-3340508D02*
X2529468Y-3350031D01*
X2529468Y-3350031D02*
X2538991Y-3369079D01*
X2538991Y-3369079D02*
X2548515Y-3407174D01*
X2548515Y-3407174D02*
X2548515Y-3454793D01*
X2548515Y-3454793D02*
X2538991Y-3492888D01*
X2538991Y-3492888D02*
X2529468Y-3511936D01*
X2529468Y-3511936D02*
X2519944Y-3521460D01*
X2519944Y-3521460D02*
X2500896Y-3530984D01*
X2500896Y-3530984D02*
X2481848Y-3530984D01*
X2481848Y-3530984D02*
X2462801Y-3521460D01*
X2462801Y-3521460D02*
X2453277Y-3511936D01*
X2453277Y-3511936D02*
X2443753Y-3492888D01*
X2443753Y-3492888D02*
X2434229Y-3454793D01*
X2434229Y-3454793D02*
X2434229Y-3407174D01*
X2434229Y-3407174D02*
X2443753Y-3369079D01*
X2443753Y-3369079D02*
X2453277Y-3350031D01*
X2453277Y-3350031D02*
X2462801Y-3340508D01*
X2462801Y-3340508D02*
X2481848Y-3330984D01*
X2719944Y-3397650D02*
X2719944Y-3530984D01*
X2672325Y-3321460D02*
X2624706Y-3464317D01*
X2624706Y-3464317D02*
X2748515Y-3464317D01*
X2805658Y-3330984D02*
X2929467Y-3330984D01*
X2929467Y-3330984D02*
X2862801Y-3407174D01*
X2862801Y-3407174D02*
X2891372Y-3407174D01*
X2891372Y-3407174D02*
X2910420Y-3416698D01*
X2910420Y-3416698D02*
X2919944Y-3426222D01*
X2919944Y-3426222D02*
X2929467Y-3445269D01*
X2929467Y-3445269D02*
X2929467Y-3492888D01*
X2929467Y-3492888D02*
X2919944Y-3511936D01*
X2919944Y-3511936D02*
X2910420Y-3521460D01*
X2910420Y-3521460D02*
X2891372Y-3530984D01*
X2891372Y-3530984D02*
X2834229Y-3530984D01*
X2834229Y-3530984D02*
X2815182Y-3521460D01*
X2815182Y-3521460D02*
X2805658Y-3511936D01*
X2996134Y-3330984D02*
X3119944Y-3330984D01*
X3119944Y-3330984D02*
X3053277Y-3407174D01*
X3053277Y-3407174D02*
X3081848Y-3407174D01*
X3081848Y-3407174D02*
X3100896Y-3416698D01*
X3100896Y-3416698D02*
X3110420Y-3426222D01*
X3110420Y-3426222D02*
X3119944Y-3445269D01*
X3119944Y-3445269D02*
X3119944Y-3492888D01*
X3119944Y-3492888D02*
X3110420Y-3511936D01*
X3110420Y-3511936D02*
X3100896Y-3521460D01*
X3100896Y-3521460D02*
X3081848Y-3530984D01*
X3081848Y-3530984D02*
X3024706Y-3530984D01*
X3024706Y-3530984D02*
X3005658Y-3521460D01*
X3005658Y-3521460D02*
X2996134Y-3511936D01*
X3196134Y-3330984D02*
X3196134Y-3369079D01*
X3272325Y-3330984D02*
X3272325Y-3369079D01*
X3567563Y-3607174D02*
X3558039Y-3597650D01*
X3558039Y-3597650D02*
X3538991Y-3569079D01*
X3538991Y-3569079D02*
X3529468Y-3550031D01*
X3529468Y-3550031D02*
X3519944Y-3521460D01*
X3519944Y-3521460D02*
X3510420Y-3473841D01*
X3510420Y-3473841D02*
X3510420Y-3435746D01*
X3510420Y-3435746D02*
X3519944Y-3388127D01*
X3519944Y-3388127D02*
X3529468Y-3359555D01*
X3529468Y-3359555D02*
X3538991Y-3340508D01*
X3538991Y-3340508D02*
X3558039Y-3311936D01*
X3558039Y-3311936D02*
X3567563Y-3302412D01*
X3634229Y-3350031D02*
X3643753Y-3340508D01*
X3643753Y-3340508D02*
X3662801Y-3330984D01*
X3662801Y-3330984D02*
X3710420Y-3330984D01*
X3710420Y-3330984D02*
X3729468Y-3340508D01*
X3729468Y-3340508D02*
X3738991Y-3350031D01*
X3738991Y-3350031D02*
X3748515Y-3369079D01*
X3748515Y-3369079D02*
X3748515Y-3388127D01*
X3748515Y-3388127D02*
X3738991Y-3416698D01*
X3738991Y-3416698D02*
X3624706Y-3530984D01*
X3624706Y-3530984D02*
X3748515Y-3530984D01*
X3919944Y-3397650D02*
X3919944Y-3530984D01*
X3872325Y-3321460D02*
X3824706Y-3464317D01*
X3824706Y-3464317D02*
X3948515Y-3464317D01*
X4177087Y-3530984D02*
X4177087Y-3330984D01*
X4262801Y-3530984D02*
X4262801Y-3426222D01*
X4262801Y-3426222D02*
X4253277Y-3407174D01*
X4253277Y-3407174D02*
X4234230Y-3397650D01*
X4234230Y-3397650D02*
X4205658Y-3397650D01*
X4205658Y-3397650D02*
X4186610Y-3407174D01*
X4186610Y-3407174D02*
X4177087Y-3416698D01*
X4386611Y-3530984D02*
X4367563Y-3521460D01*
X4367563Y-3521460D02*
X4358039Y-3511936D01*
X4358039Y-3511936D02*
X4348515Y-3492888D01*
X4348515Y-3492888D02*
X4348515Y-3435746D01*
X4348515Y-3435746D02*
X4358039Y-3416698D01*
X4358039Y-3416698D02*
X4367563Y-3407174D01*
X4367563Y-3407174D02*
X4386611Y-3397650D01*
X4386611Y-3397650D02*
X4415182Y-3397650D01*
X4415182Y-3397650D02*
X4434230Y-3407174D01*
X4434230Y-3407174D02*
X4443753Y-3416698D01*
X4443753Y-3416698D02*
X4453277Y-3435746D01*
X4453277Y-3435746D02*
X4453277Y-3492888D01*
X4453277Y-3492888D02*
X4443753Y-3511936D01*
X4443753Y-3511936D02*
X4434230Y-3521460D01*
X4434230Y-3521460D02*
X4415182Y-3530984D01*
X4415182Y-3530984D02*
X4386611Y-3530984D01*
X4567563Y-3530984D02*
X4548515Y-3521460D01*
X4548515Y-3521460D02*
X4538992Y-3502412D01*
X4538992Y-3502412D02*
X4538992Y-3330984D01*
X4719944Y-3521460D02*
X4700896Y-3530984D01*
X4700896Y-3530984D02*
X4662801Y-3530984D01*
X4662801Y-3530984D02*
X4643753Y-3521460D01*
X4643753Y-3521460D02*
X4634230Y-3502412D01*
X4634230Y-3502412D02*
X4634230Y-3426222D01*
X4634230Y-3426222D02*
X4643753Y-3407174D01*
X4643753Y-3407174D02*
X4662801Y-3397650D01*
X4662801Y-3397650D02*
X4700896Y-3397650D01*
X4700896Y-3397650D02*
X4719944Y-3407174D01*
X4719944Y-3407174D02*
X4729468Y-3426222D01*
X4729468Y-3426222D02*
X4729468Y-3445269D01*
X4729468Y-3445269D02*
X4634230Y-3464317D01*
X4805658Y-3521460D02*
X4824706Y-3530984D01*
X4824706Y-3530984D02*
X4862801Y-3530984D01*
X4862801Y-3530984D02*
X4881849Y-3521460D01*
X4881849Y-3521460D02*
X4891373Y-3502412D01*
X4891373Y-3502412D02*
X4891373Y-3492888D01*
X4891373Y-3492888D02*
X4881849Y-3473841D01*
X4881849Y-3473841D02*
X4862801Y-3464317D01*
X4862801Y-3464317D02*
X4834230Y-3464317D01*
X4834230Y-3464317D02*
X4815182Y-3454793D01*
X4815182Y-3454793D02*
X4805658Y-3435746D01*
X4805658Y-3435746D02*
X4805658Y-3426222D01*
X4805658Y-3426222D02*
X4815182Y-3407174D01*
X4815182Y-3407174D02*
X4834230Y-3397650D01*
X4834230Y-3397650D02*
X4862801Y-3397650D01*
X4862801Y-3397650D02*
X4881849Y-3407174D01*
X4958039Y-3607174D02*
X4967563Y-3597650D01*
X4967563Y-3597650D02*
X4986611Y-3569079D01*
X4986611Y-3569079D02*
X4996134Y-3550031D01*
X4996134Y-3550031D02*
X5005658Y-3521460D01*
X5005658Y-3521460D02*
X5015182Y-3473841D01*
X5015182Y-3473841D02*
X5015182Y-3435746D01*
X5015182Y-3435746D02*
X5005658Y-3388127D01*
X5005658Y-3388127D02*
X4996134Y-3359555D01*
X4996134Y-3359555D02*
X4986611Y-3340508D01*
X4986611Y-3340508D02*
X4967563Y-3311936D01*
X4967563Y-3311936D02*
X4958039Y-3302412D01*
M02*
