G04 #@! TF.GenerationSoftware,KiCad,Pcbnew,7.0.11+dfsg-1build4*
G04 #@! TF.CreationDate,2026-07-05T19:21:11+00:00*
G04 #@! TF.ProjectId,button-board,62757474-6f6e-42d6-926f-6172642e6b69,rev?*
G04 #@! TF.SameCoordinates,Original*
G04 #@! TF.FileFunction,Copper,L1,Top*
G04 #@! TF.FilePolarity,Positive*
%FSLAX46Y46*%
G04 Gerber Fmt 4.6, Leading zero omitted, Abs format (unit mm)*
G04 Created by KiCad (PCBNEW 7.0.11+dfsg-1build4) date 2026-07-05 19:21:11*
%MOMM*%
%LPD*%
G01*
G04 APERTURE LIST*
G04 Aperture macros list*
%AMRoundRect*
0 Rectangle with rounded corners*
0 $1 Rounding radius*
0 $2 $3 $4 $5 $6 $7 $8 $9 X,Y pos of 4 corners*
0 Add a 4 corners polygon primitive as box body*
4,1,4,$2,$3,$4,$5,$6,$7,$8,$9,$2,$3,0*
0 Add four circle primitives for the rounded corners*
1,1,$1+$1,$2,$3*
1,1,$1+$1,$4,$5*
1,1,$1+$1,$6,$7*
1,1,$1+$1,$8,$9*
0 Add four rect primitives between the rounded corners*
20,1,$1+$1,$2,$3,$4,$5,0*
20,1,$1+$1,$4,$5,$6,$7,0*
20,1,$1+$1,$6,$7,$8,$9,0*
20,1,$1+$1,$8,$9,$2,$3,0*%
G04 Aperture macros list end*
G04 #@! TA.AperFunction,SMDPad,CuDef*
%ADD10RoundRect,0.250000X-1.000000X-0.650000X1.000000X-0.650000X1.000000X0.650000X-1.000000X0.650000X0*%
G04 #@! TD*
G04 #@! TA.AperFunction,SMDPad,CuDef*
%ADD11RoundRect,0.200000X-0.200000X-0.275000X0.200000X-0.275000X0.200000X0.275000X-0.200000X0.275000X0*%
G04 #@! TD*
G04 #@! TA.AperFunction,ComponentPad*
%ADD12C,2.000000*%
G04 #@! TD*
G04 #@! TA.AperFunction,SMDPad,CuDef*
%ADD13R,1.500000X0.900000*%
G04 #@! TD*
G04 #@! TA.AperFunction,ComponentPad*
%ADD14RoundRect,0.250000X-0.350000X-0.625000X0.350000X-0.625000X0.350000X0.625000X-0.350000X0.625000X0*%
G04 #@! TD*
G04 #@! TA.AperFunction,ComponentPad*
%ADD15O,1.200000X1.750000*%
G04 #@! TD*
G04 #@! TA.AperFunction,SMDPad,CuDef*
%ADD16RoundRect,0.250000X-0.250000X-0.475000X0.250000X-0.475000X0.250000X0.475000X-0.250000X0.475000X0*%
G04 #@! TD*
G04 #@! TA.AperFunction,ComponentPad*
%ADD17R,1.700000X1.700000*%
G04 #@! TD*
G04 #@! TA.AperFunction,ComponentPad*
%ADD18O,1.700000X1.700000*%
G04 #@! TD*
G04 #@! TA.AperFunction,SMDPad,CuDef*
%ADD19RoundRect,0.225000X-0.225000X-0.250000X0.225000X-0.250000X0.225000X0.250000X-0.225000X0.250000X0*%
G04 #@! TD*
G04 APERTURE END LIST*
D10*
G04 #@! TO.P,D1,1*
G04 #@! TO.N,LED_VDD*
X42500000Y-14000000D03*
G04 #@! TO.P,D1,2*
G04 #@! TO.N,5V*
X46500000Y-14000000D03*
G04 #@! TD*
D11*
G04 #@! TO.P,R2,1*
G04 #@! TO.N,BTN_ADC*
X6980000Y-12055000D03*
G04 #@! TO.P,R2,2*
G04 #@! TO.N,LAD1*
X8630000Y-12055000D03*
G04 #@! TD*
D12*
G04 #@! TO.P,SW4,1*
G04 #@! TO.N,LAD2*
X32000000Y-6000000D03*
X32000000Y500000D03*
G04 #@! TO.P,SW4,2*
X36500000Y-6000000D03*
X36500000Y500000D03*
G04 #@! TD*
D11*
G04 #@! TO.P,R6,1*
G04 #@! TO.N,LED_DATA*
X26980000Y-12055000D03*
G04 #@! TO.P,R6,2*
G04 #@! TO.N,LED_DIN*
X28630000Y-12055000D03*
G04 #@! TD*
G04 #@! TO.P,R4,1*
G04 #@! TO.N,BTN_ADC*
X14980000Y-12055000D03*
G04 #@! TO.P,R4,2*
G04 #@! TO.N,LAD3*
X16630000Y-12055000D03*
G04 #@! TD*
D12*
G04 #@! TO.P,SW3,1*
G04 #@! TO.N,LAD1*
X23000000Y-6000000D03*
X23000000Y500000D03*
G04 #@! TO.P,SW3,2*
X27500000Y-6000000D03*
X27500000Y500000D03*
G04 #@! TD*
G04 #@! TO.P,SW2,1*
G04 #@! TO.N,LAD0*
X14000000Y-6000000D03*
X14000000Y500000D03*
G04 #@! TO.P,SW2,2*
X18500000Y-6000000D03*
X18500000Y500000D03*
G04 #@! TD*
D13*
G04 #@! TO.P,LED1,1*
G04 #@! TO.N,LED_VDD*
X48050000Y-13350000D03*
G04 #@! TO.P,LED1,2*
G04 #@! TO.N,N/C*
X48050000Y-16650000D03*
G04 #@! TO.P,LED1,3*
G04 #@! TO.N,GND*
X52950000Y-16650000D03*
G04 #@! TO.P,LED1,4*
G04 #@! TO.N,LED_DIN*
X52950000Y-13350000D03*
G04 #@! TD*
D14*
G04 #@! TO.P,J1,1*
G04 #@! TO.N,5V*
X12000000Y-16500000D03*
D15*
G04 #@! TO.P,J1,2*
G04 #@! TO.N,GND*
X14000000Y-16500000D03*
G04 #@! TO.P,J1,3*
G04 #@! TO.N,3V3*
X16000000Y-16500000D03*
G04 #@! TO.P,J1,4*
G04 #@! TO.N,SDA*
X18000000Y-16500000D03*
G04 #@! TO.P,J1,5*
G04 #@! TO.N,SCL*
X20000000Y-16500000D03*
G04 #@! TO.P,J1,6*
G04 #@! TO.N,LED_DATA*
X22000000Y-16500000D03*
G04 #@! TO.P,J1,7*
G04 #@! TO.N,BTN_ADC*
X24000000Y-16500000D03*
G04 #@! TO.P,J1,8*
G04 #@! TO.N,BTN_PWR*
X26000000Y-16500000D03*
G04 #@! TD*
D16*
G04 #@! TO.P,C1,1*
G04 #@! TO.N,LED_VDD*
X43050000Y-17500000D03*
G04 #@! TO.P,C1,2*
G04 #@! TO.N,GND*
X44950000Y-17500000D03*
G04 #@! TD*
D11*
G04 #@! TO.P,R5,1*
G04 #@! TO.N,BTN_ADC*
X18980000Y-12055000D03*
G04 #@! TO.P,R5,2*
G04 #@! TO.N,LAD4*
X20630000Y-12055000D03*
G04 #@! TD*
D12*
G04 #@! TO.P,SW1,1*
G04 #@! TO.N,BTN_PWR*
X5000000Y-6000000D03*
X5000000Y500000D03*
G04 #@! TO.P,SW1,2*
X9500000Y-6000000D03*
X9500000Y500000D03*
G04 #@! TD*
D11*
G04 #@! TO.P,R3,1*
G04 #@! TO.N,BTN_ADC*
X10980000Y-12055000D03*
G04 #@! TO.P,R3,2*
G04 #@! TO.N,LAD2*
X12630000Y-12055000D03*
G04 #@! TD*
D12*
G04 #@! TO.P,SW6,1*
G04 #@! TO.N,LAD4*
X50000000Y-6000000D03*
X50000000Y500000D03*
G04 #@! TO.P,SW6,2*
X54500000Y-6000000D03*
X54500000Y500000D03*
G04 #@! TD*
D17*
G04 #@! TO.P,J2,1*
G04 #@! TO.N,GND*
X36000000Y-16500000D03*
D18*
G04 #@! TO.P,J2,2*
G04 #@! TO.N,3V3*
X36000000Y-19040000D03*
G04 #@! TO.P,J2,3*
G04 #@! TO.N,SCL*
X36000000Y-21580000D03*
G04 #@! TO.P,J2,4*
G04 #@! TO.N,SDA*
X36000000Y-24120000D03*
G04 #@! TD*
D12*
G04 #@! TO.P,SW5,1*
G04 #@! TO.N,LAD3*
X41000000Y-6000000D03*
X41000000Y500000D03*
G04 #@! TO.P,SW5,2*
X45500000Y-6000000D03*
X45500000Y500000D03*
G04 #@! TD*
D11*
G04 #@! TO.P,R1,1*
G04 #@! TO.N,BTN_ADC*
X2979999Y-12055000D03*
G04 #@! TO.P,R1,2*
G04 #@! TO.N,LAD0*
X4629999Y-12055000D03*
G04 #@! TD*
D19*
G04 #@! TO.P,C2,1*
G04 #@! TO.N,LED_VDD*
X23030000Y-12055000D03*
G04 #@! TO.P,C2,2*
G04 #@! TO.N,GND*
X24580000Y-12055000D03*
G04 #@! TD*
G04 #@! TA.AperFunction,Conductor*
G04 #@! TO.N,GND*
G36*
X4189451Y-520185D02*
G01*
X4193523Y-522917D01*
X4347266Y-630568D01*
X4553504Y-726739D01*
X4773308Y-785635D01*
X4935230Y-799801D01*
X4999998Y-805468D01*
X5000000Y-805468D01*
X5000002Y-805468D01*
X5056673Y-800509D01*
X5226692Y-785635D01*
X5446496Y-726739D01*
X5652734Y-630568D01*
X5806465Y-522924D01*
X5872671Y-500598D01*
X5877588Y-500500D01*
X8622412Y-500500D01*
X8689451Y-520185D01*
X8693523Y-522917D01*
X8847266Y-630568D01*
X9053504Y-726739D01*
X9273308Y-785635D01*
X9435230Y-799801D01*
X9499998Y-805468D01*
X9500000Y-805468D01*
X9500002Y-805468D01*
X9556673Y-800509D01*
X9726692Y-785635D01*
X9946496Y-726739D01*
X10152734Y-630568D01*
X10306465Y-522924D01*
X10372671Y-500598D01*
X10377588Y-500500D01*
X13122412Y-500500D01*
X13189451Y-520185D01*
X13193523Y-522917D01*
X13347266Y-630568D01*
X13553504Y-726739D01*
X13773308Y-785635D01*
X13935230Y-799801D01*
X13999998Y-805468D01*
X14000000Y-805468D01*
X14000002Y-805468D01*
X14056673Y-800509D01*
X14226692Y-785635D01*
X14446496Y-726739D01*
X14652734Y-630568D01*
X14806465Y-522924D01*
X14872671Y-500598D01*
X14877588Y-500500D01*
X17622412Y-500500D01*
X17689451Y-520185D01*
X17693523Y-522917D01*
X17847266Y-630568D01*
X18053504Y-726739D01*
X18273308Y-785635D01*
X18435230Y-799801D01*
X18499998Y-805468D01*
X18500000Y-805468D01*
X18500002Y-805468D01*
X18556673Y-800509D01*
X18726692Y-785635D01*
X18946496Y-726739D01*
X19152734Y-630568D01*
X19306465Y-522924D01*
X19372671Y-500598D01*
X19377588Y-500500D01*
X22122412Y-500500D01*
X22189451Y-520185D01*
X22193523Y-522917D01*
X22347266Y-630568D01*
X22553504Y-726739D01*
X22773308Y-785635D01*
X22935230Y-799801D01*
X22999998Y-805468D01*
X23000000Y-805468D01*
X23000002Y-805468D01*
X23056673Y-800509D01*
X23226692Y-785635D01*
X23446496Y-726739D01*
X23652734Y-630568D01*
X23806465Y-522924D01*
X23872671Y-500598D01*
X23877588Y-500500D01*
X26622412Y-500500D01*
X26689451Y-520185D01*
X26693523Y-522917D01*
X26847266Y-630568D01*
X27053504Y-726739D01*
X27273308Y-785635D01*
X27435230Y-799801D01*
X27499998Y-805468D01*
X27500000Y-805468D01*
X27500002Y-805468D01*
X27556673Y-800509D01*
X27726692Y-785635D01*
X27946496Y-726739D01*
X28152734Y-630568D01*
X28306465Y-522924D01*
X28372671Y-500598D01*
X28377588Y-500500D01*
X31122412Y-500500D01*
X31189451Y-520185D01*
X31193523Y-522917D01*
X31347266Y-630568D01*
X31553504Y-726739D01*
X31773308Y-785635D01*
X31935230Y-799801D01*
X31999998Y-805468D01*
X32000000Y-805468D01*
X32000002Y-805468D01*
X32056673Y-800509D01*
X32226692Y-785635D01*
X32446496Y-726739D01*
X32652734Y-630568D01*
X32806465Y-522924D01*
X32872671Y-500598D01*
X32877588Y-500500D01*
X35622412Y-500500D01*
X35689451Y-520185D01*
X35693523Y-522917D01*
X35847266Y-630568D01*
X36053504Y-726739D01*
X36273308Y-785635D01*
X36435230Y-799801D01*
X36499998Y-805468D01*
X36500000Y-805468D01*
X36500002Y-805468D01*
X36556673Y-800509D01*
X36726692Y-785635D01*
X36946496Y-726739D01*
X37152734Y-630568D01*
X37306465Y-522924D01*
X37372671Y-500598D01*
X37377588Y-500500D01*
X40122412Y-500500D01*
X40189451Y-520185D01*
X40193523Y-522917D01*
X40347266Y-630568D01*
X40553504Y-726739D01*
X40773308Y-785635D01*
X40935230Y-799801D01*
X40999998Y-805468D01*
X41000000Y-805468D01*
X41000002Y-805468D01*
X41056673Y-800509D01*
X41226692Y-785635D01*
X41446496Y-726739D01*
X41652734Y-630568D01*
X41806465Y-522924D01*
X41872671Y-500598D01*
X41877588Y-500500D01*
X44622412Y-500500D01*
X44689451Y-520185D01*
X44693523Y-522917D01*
X44847266Y-630568D01*
X45053504Y-726739D01*
X45273308Y-785635D01*
X45435230Y-799801D01*
X45499998Y-805468D01*
X45500000Y-805468D01*
X45500002Y-805468D01*
X45556673Y-800509D01*
X45726692Y-785635D01*
X45946496Y-726739D01*
X46152734Y-630568D01*
X46306465Y-522924D01*
X46372671Y-500598D01*
X46377588Y-500500D01*
X49122412Y-500500D01*
X49189451Y-520185D01*
X49193523Y-522917D01*
X49347266Y-630568D01*
X49553504Y-726739D01*
X49773308Y-785635D01*
X49935230Y-799801D01*
X49999998Y-805468D01*
X50000000Y-805468D01*
X50000002Y-805468D01*
X50056673Y-800509D01*
X50226692Y-785635D01*
X50446496Y-726739D01*
X50652734Y-630568D01*
X50806465Y-522924D01*
X50872671Y-500598D01*
X50877588Y-500500D01*
X53622412Y-500500D01*
X53689451Y-520185D01*
X53693523Y-522917D01*
X53847266Y-630568D01*
X54053504Y-726739D01*
X54273308Y-785635D01*
X54435230Y-799801D01*
X54499998Y-805468D01*
X54500000Y-805468D01*
X54500002Y-805468D01*
X54556673Y-800509D01*
X54726692Y-785635D01*
X54946496Y-726739D01*
X55152734Y-630568D01*
X55306465Y-522924D01*
X55372671Y-500598D01*
X55377588Y-500500D01*
X59375500Y-500500D01*
X59442539Y-520185D01*
X59488294Y-572989D01*
X59499500Y-624500D01*
X59499500Y-16867482D01*
X59479815Y-16934521D01*
X59427011Y-16980276D01*
X59357853Y-16990220D01*
X59294297Y-16961195D01*
X59258176Y-16904990D01*
X59257538Y-16905208D01*
X59256656Y-16902624D01*
X59256523Y-16902417D01*
X59256250Y-16901433D01*
X59256074Y-16900919D01*
X59256073Y-16900917D01*
X59256072Y-16900912D01*
X59150130Y-16651610D01*
X59009018Y-16420390D01*
X58973657Y-16377899D01*
X58835746Y-16212180D01*
X58835740Y-16212175D01*
X58634002Y-16031418D01*
X58408092Y-15881957D01*
X58369078Y-15863668D01*
X58162824Y-15766980D01*
X58162819Y-15766978D01*
X58162814Y-15766976D01*
X57903442Y-15688942D01*
X57903428Y-15688939D01*
X57787791Y-15671921D01*
X57635439Y-15649500D01*
X57432369Y-15649500D01*
X57432351Y-15649500D01*
X57229844Y-15664323D01*
X57229831Y-15664325D01*
X56965453Y-15723217D01*
X56965446Y-15723220D01*
X56712439Y-15819987D01*
X56476226Y-15952557D01*
X56476224Y-15952558D01*
X56476223Y-15952559D01*
X56464051Y-15961958D01*
X56261822Y-16118112D01*
X56073822Y-16313109D01*
X56073816Y-16313116D01*
X55916202Y-16533419D01*
X55916199Y-16533424D01*
X55792350Y-16774309D01*
X55792343Y-16774327D01*
X55704884Y-17030685D01*
X55704881Y-17030699D01*
X55655681Y-17297068D01*
X55655680Y-17297075D01*
X55645787Y-17567763D01*
X55675413Y-17837013D01*
X55675415Y-17837024D01*
X55743926Y-18099082D01*
X55743928Y-18099088D01*
X55849870Y-18348390D01*
X55951476Y-18514877D01*
X55990979Y-18579605D01*
X55990986Y-18579615D01*
X56164253Y-18787819D01*
X56164259Y-18787824D01*
X56269240Y-18881887D01*
X56365998Y-18968582D01*
X56591910Y-19118044D01*
X56837176Y-19233020D01*
X56837183Y-19233022D01*
X56837185Y-19233023D01*
X56916075Y-19256758D01*
X56974601Y-19294922D01*
X57003203Y-19358669D01*
X56992801Y-19427760D01*
X56946696Y-19480258D01*
X56880351Y-19499500D01*
X37229626Y-19499500D01*
X37162587Y-19479815D01*
X37116832Y-19427011D01*
X37106888Y-19357853D01*
X37110360Y-19341565D01*
X37135756Y-19252310D01*
X37155429Y-19040000D01*
X37135756Y-18827690D01*
X37077405Y-18622611D01*
X37077403Y-18622606D01*
X37077403Y-18622605D01*
X36982367Y-18431746D01*
X36853872Y-18261593D01*
X36838241Y-18247343D01*
X36696302Y-18117948D01*
X36535046Y-18018102D01*
X42249500Y-18018102D01*
X42254369Y-18058650D01*
X42260122Y-18106561D01*
X42315639Y-18247343D01*
X42407077Y-18367922D01*
X42527656Y-18459360D01*
X42527657Y-18459360D01*
X42527658Y-18459361D01*
X42668436Y-18514877D01*
X42756898Y-18525500D01*
X42756903Y-18525500D01*
X43343097Y-18525500D01*
X43343102Y-18525500D01*
X43431564Y-18514877D01*
X43572342Y-18459361D01*
X43692922Y-18367922D01*
X43784361Y-18247342D01*
X43834237Y-18120864D01*
X43877141Y-18065724D01*
X43943048Y-18042530D01*
X44011033Y-18058650D01*
X44059510Y-18108967D01*
X44068666Y-18131762D01*
X44098715Y-18235193D01*
X44098717Y-18235196D01*
X44182314Y-18376552D01*
X44182321Y-18376561D01*
X44298438Y-18492678D01*
X44298447Y-18492685D01*
X44439803Y-18576282D01*
X44439806Y-18576283D01*
X44597504Y-18622099D01*
X44597510Y-18622100D01*
X44634350Y-18624999D01*
X44634366Y-18625000D01*
X44700000Y-18625000D01*
X44700000Y-17750000D01*
X45200000Y-17750000D01*
X45200000Y-18625000D01*
X45265634Y-18625000D01*
X45265649Y-18624999D01*
X45302489Y-18622100D01*
X45302495Y-18622099D01*
X45460193Y-18576283D01*
X45460196Y-18576282D01*
X45601552Y-18492685D01*
X45601561Y-18492678D01*
X45717678Y-18376561D01*
X45717685Y-18376552D01*
X45801282Y-18235196D01*
X45801283Y-18235193D01*
X45847099Y-18077495D01*
X45847100Y-18077489D01*
X45849999Y-18040649D01*
X45850000Y-18040634D01*
X45850000Y-17750000D01*
X45200000Y-17750000D01*
X44700000Y-17750000D01*
X44700000Y-16375000D01*
X45200000Y-16375000D01*
X45200000Y-17250000D01*
X45850000Y-17250000D01*
X45850000Y-17144856D01*
X46999500Y-17144856D01*
X46999502Y-17144882D01*
X47002413Y-17169987D01*
X47002415Y-17169991D01*
X47047793Y-17272764D01*
X47047794Y-17272765D01*
X47127235Y-17352206D01*
X47230009Y-17397585D01*
X47255135Y-17400500D01*
X48844864Y-17400499D01*
X48844879Y-17400497D01*
X48844882Y-17400497D01*
X48869987Y-17397586D01*
X48869988Y-17397585D01*
X48869991Y-17397585D01*
X48972765Y-17352206D01*
X49052206Y-17272765D01*
X49097585Y-17169991D01*
X49100500Y-17144865D01*
X49100500Y-16900000D01*
X51800001Y-16900000D01*
X51800001Y-17131479D01*
X51814835Y-17225149D01*
X51814837Y-17225155D01*
X51872356Y-17338041D01*
X51872363Y-17338050D01*
X51961949Y-17427636D01*
X51961953Y-17427639D01*
X52074855Y-17485166D01*
X52168514Y-17499999D01*
X52699999Y-17499999D01*
X52700000Y-17499998D01*
X52700000Y-16900000D01*
X53200000Y-16900000D01*
X53200000Y-17499999D01*
X53731479Y-17499999D01*
X53825149Y-17485164D01*
X53825155Y-17485162D01*
X53938041Y-17427643D01*
X53938050Y-17427636D01*
X54027636Y-17338050D01*
X54027639Y-17338046D01*
X54085166Y-17225144D01*
X54100000Y-17131486D01*
X54100000Y-16900000D01*
X53200000Y-16900000D01*
X52700000Y-16900000D01*
X51800001Y-16900000D01*
X49100500Y-16900000D01*
X49100499Y-16400000D01*
X51800000Y-16400000D01*
X52700000Y-16400000D01*
X52700000Y-15800000D01*
X53200000Y-15800000D01*
X53200000Y-16400000D01*
X54099999Y-16400000D01*
X54099999Y-16168520D01*
X54085164Y-16074850D01*
X54085162Y-16074844D01*
X54027643Y-15961958D01*
X54027636Y-15961949D01*
X53938050Y-15872363D01*
X53938046Y-15872360D01*
X53825144Y-15814833D01*
X53731486Y-15800000D01*
X53200000Y-15800000D01*
X52700000Y-15800000D01*
X52168520Y-15800000D01*
X52074850Y-15814835D01*
X52074844Y-15814837D01*
X51961958Y-15872356D01*
X51961949Y-15872363D01*
X51872363Y-15961949D01*
X51872360Y-15961953D01*
X51814833Y-16074855D01*
X51800000Y-16168513D01*
X51800000Y-16400000D01*
X49100499Y-16400000D01*
X49100499Y-16155136D01*
X49098792Y-16140414D01*
X49097586Y-16130012D01*
X49097585Y-16130010D01*
X49097585Y-16130009D01*
X49052206Y-16027235D01*
X48972765Y-15947794D01*
X48912857Y-15921342D01*
X48869992Y-15902415D01*
X48844865Y-15899500D01*
X47255143Y-15899500D01*
X47255117Y-15899502D01*
X47230012Y-15902413D01*
X47230008Y-15902415D01*
X47127235Y-15947793D01*
X47047794Y-16027234D01*
X47002415Y-16130006D01*
X47002415Y-16130008D01*
X46999500Y-16155131D01*
X46999500Y-17144856D01*
X45850000Y-17144856D01*
X45850000Y-16959365D01*
X45849999Y-16959350D01*
X45847100Y-16922510D01*
X45847099Y-16922504D01*
X45801283Y-16764806D01*
X45801282Y-16764803D01*
X45717685Y-16623447D01*
X45717678Y-16623438D01*
X45601561Y-16507321D01*
X45601552Y-16507314D01*
X45460196Y-16423717D01*
X45460193Y-16423716D01*
X45302495Y-16377900D01*
X45302489Y-16377899D01*
X45265649Y-16375000D01*
X45200000Y-16375000D01*
X44700000Y-16375000D01*
X44634350Y-16375000D01*
X44597510Y-16377899D01*
X44597504Y-16377900D01*
X44439806Y-16423716D01*
X44439803Y-16423717D01*
X44298447Y-16507314D01*
X44298438Y-16507321D01*
X44182321Y-16623438D01*
X44182314Y-16623447D01*
X44098717Y-16764803D01*
X44098716Y-16764804D01*
X44068666Y-16868238D01*
X44031059Y-16927123D01*
X43967587Y-16956329D01*
X43898400Y-16946583D01*
X43845466Y-16900978D01*
X43834238Y-16879137D01*
X43792906Y-16774327D01*
X43784361Y-16752657D01*
X43692922Y-16632077D01*
X43572343Y-16540639D01*
X43431561Y-16485122D01*
X43385926Y-16479642D01*
X43343102Y-16474500D01*
X42756898Y-16474500D01*
X42717853Y-16479188D01*
X42668438Y-16485122D01*
X42527656Y-16540639D01*
X42407077Y-16632077D01*
X42315639Y-16752656D01*
X42260122Y-16893438D01*
X42255189Y-16934521D01*
X42249500Y-16981898D01*
X42249500Y-18018102D01*
X36535046Y-18018102D01*
X36515019Y-18005702D01*
X36515017Y-18005701D01*
X36496217Y-17998418D01*
X36473520Y-17989625D01*
X36418120Y-17947053D01*
X36394529Y-17881286D01*
X36410240Y-17813206D01*
X36460264Y-17764427D01*
X36518315Y-17749999D01*
X36881479Y-17749999D01*
X36975149Y-17735164D01*
X36975155Y-17735162D01*
X37088041Y-17677643D01*
X37088050Y-17677636D01*
X37177636Y-17588050D01*
X37177639Y-17588046D01*
X37235166Y-17475144D01*
X37250000Y-17381486D01*
X37250000Y-16750000D01*
X36433686Y-16750000D01*
X36459493Y-16709844D01*
X36500000Y-16571889D01*
X36500000Y-16428111D01*
X36459493Y-16290156D01*
X36433686Y-16250000D01*
X37249999Y-16250000D01*
X37249999Y-15618520D01*
X37235164Y-15524850D01*
X37235162Y-15524844D01*
X37177643Y-15411958D01*
X37177636Y-15411949D01*
X37088050Y-15322363D01*
X37088046Y-15322360D01*
X36975144Y-15264833D01*
X36881486Y-15250000D01*
X36250000Y-15250000D01*
X36250000Y-16064498D01*
X36142315Y-16015320D01*
X36035763Y-16000000D01*
X35964237Y-16000000D01*
X35857685Y-16015320D01*
X35750000Y-16064498D01*
X35750000Y-15250000D01*
X35118520Y-15250000D01*
X35024850Y-15264835D01*
X35024844Y-15264837D01*
X34911958Y-15322356D01*
X34911949Y-15322363D01*
X34822363Y-15411949D01*
X34822360Y-15411953D01*
X34764833Y-15524855D01*
X34750000Y-15618513D01*
X34750000Y-16250000D01*
X35566314Y-16250000D01*
X35540507Y-16290156D01*
X35500000Y-16428111D01*
X35500000Y-16571889D01*
X35540507Y-16709844D01*
X35566314Y-16750000D01*
X34750001Y-16750000D01*
X34750001Y-17381479D01*
X34764835Y-17475149D01*
X34764837Y-17475155D01*
X34822356Y-17588041D01*
X34822363Y-17588050D01*
X34911949Y-17677636D01*
X34911953Y-17677639D01*
X35024855Y-17735166D01*
X35118514Y-17749999D01*
X35481682Y-17749999D01*
X35548721Y-17769683D01*
X35594476Y-17822487D01*
X35604420Y-17891646D01*
X35575395Y-17955201D01*
X35526478Y-17989625D01*
X35484985Y-18005700D01*
X35484980Y-18005702D01*
X35303699Y-18117947D01*
X35146127Y-18261593D01*
X35017632Y-18431746D01*
X34922596Y-18622605D01*
X34922596Y-18622607D01*
X34921916Y-18624999D01*
X34864244Y-18827690D01*
X34844571Y-19040000D01*
X34864244Y-19252310D01*
X34887964Y-19335677D01*
X34889640Y-19341565D01*
X34889054Y-19411432D01*
X34850788Y-19469891D01*
X34786991Y-19498382D01*
X34770374Y-19499500D01*
X3623554Y-19499500D01*
X3556515Y-19479815D01*
X3510760Y-19427011D01*
X3500816Y-19357853D01*
X3529841Y-19294297D01*
X3579256Y-19259682D01*
X3787558Y-19180014D01*
X4023777Y-19047441D01*
X4238177Y-18881888D01*
X4426186Y-18686881D01*
X4583799Y-18466579D01*
X4657787Y-18322669D01*
X4707649Y-18225690D01*
X4707651Y-18225684D01*
X4707656Y-18225675D01*
X4795118Y-17969305D01*
X4844319Y-17702933D01*
X4854212Y-17432235D01*
X4825149Y-17168102D01*
X11099500Y-17168102D01*
X11105126Y-17214954D01*
X11110122Y-17256561D01*
X11110122Y-17256563D01*
X11110123Y-17256564D01*
X11116512Y-17272765D01*
X11165639Y-17397343D01*
X11257077Y-17517922D01*
X11377656Y-17609360D01*
X11377657Y-17609360D01*
X11377658Y-17609361D01*
X11518436Y-17664877D01*
X11606898Y-17675500D01*
X11606903Y-17675500D01*
X12393097Y-17675500D01*
X12393102Y-17675500D01*
X12481564Y-17664877D01*
X12622342Y-17609361D01*
X12742922Y-17517922D01*
X12834361Y-17397342D01*
X12889877Y-17256564D01*
X12889877Y-17256560D01*
X12890614Y-17254693D01*
X12933520Y-17199549D01*
X12999428Y-17176356D01*
X13067412Y-17192476D01*
X13114388Y-17240005D01*
X13175005Y-17349215D01*
X13175005Y-17349216D01*
X13307478Y-17503530D01*
X13307479Y-17503531D01*
X13468304Y-17628018D01*
X13650907Y-17717589D01*
X13750000Y-17743244D01*
X13750000Y-16780617D01*
X13819052Y-16834363D01*
X13937424Y-16875000D01*
X14031073Y-16875000D01*
X14123446Y-16859586D01*
X14233514Y-16800019D01*
X14250000Y-16782110D01*
X14250000Y-17748365D01*
X14251944Y-17748069D01*
X14251945Y-17748069D01*
X14442660Y-17677436D01*
X14442664Y-17677434D01*
X14615267Y-17569850D01*
X14762668Y-17429735D01*
X14762669Y-17429733D01*
X14878856Y-17262804D01*
X14938245Y-17124411D01*
X14982772Y-17070567D01*
X15049340Y-17049344D01*
X15116815Y-17067479D01*
X15163774Y-17119215D01*
X15170126Y-17134991D01*
X15172821Y-17143284D01*
X15267467Y-17307216D01*
X15348617Y-17397342D01*
X15394129Y-17447888D01*
X15547265Y-17559148D01*
X15547270Y-17559151D01*
X15720192Y-17636142D01*
X15720197Y-17636144D01*
X15905354Y-17675500D01*
X15905355Y-17675500D01*
X16094644Y-17675500D01*
X16094646Y-17675500D01*
X16279803Y-17636144D01*
X16452730Y-17559151D01*
X16605871Y-17447888D01*
X16732533Y-17307216D01*
X16827179Y-17143284D01*
X16882069Y-16974351D01*
X16921506Y-16916675D01*
X16985865Y-16889477D01*
X17054711Y-16901392D01*
X17106187Y-16948636D01*
X17117931Y-16974351D01*
X17172818Y-17143277D01*
X17172820Y-17143281D01*
X17172821Y-17143284D01*
X17267467Y-17307216D01*
X17348617Y-17397342D01*
X17394129Y-17447888D01*
X17547265Y-17559148D01*
X17547270Y-17559151D01*
X17720192Y-17636142D01*
X17720197Y-17636144D01*
X17905354Y-17675500D01*
X17905355Y-17675500D01*
X18094644Y-17675500D01*
X18094646Y-17675500D01*
X18279803Y-17636144D01*
X18452730Y-17559151D01*
X18605871Y-17447888D01*
X18732533Y-17307216D01*
X18827179Y-17143284D01*
X18882069Y-16974351D01*
X18921506Y-16916675D01*
X18985865Y-16889477D01*
X19054711Y-16901392D01*
X19106187Y-16948636D01*
X19117931Y-16974351D01*
X19172818Y-17143277D01*
X19172820Y-17143281D01*
X19172821Y-17143284D01*
X19267467Y-17307216D01*
X19348617Y-17397342D01*
X19394129Y-17447888D01*
X19547265Y-17559148D01*
X19547270Y-17559151D01*
X19720192Y-17636142D01*
X19720197Y-17636144D01*
X19905354Y-17675500D01*
X19905355Y-17675500D01*
X20094644Y-17675500D01*
X20094646Y-17675500D01*
X20279803Y-17636144D01*
X20452730Y-17559151D01*
X20605871Y-17447888D01*
X20732533Y-17307216D01*
X20827179Y-17143284D01*
X20882069Y-16974351D01*
X20921506Y-16916675D01*
X20985865Y-16889477D01*
X21054711Y-16901392D01*
X21106187Y-16948636D01*
X21117931Y-16974351D01*
X21172818Y-17143277D01*
X21172820Y-17143281D01*
X21172821Y-17143284D01*
X21267467Y-17307216D01*
X21348617Y-17397342D01*
X21394129Y-17447888D01*
X21547265Y-17559148D01*
X21547270Y-17559151D01*
X21720192Y-17636142D01*
X21720197Y-17636144D01*
X21905354Y-17675500D01*
X21905355Y-17675500D01*
X22094644Y-17675500D01*
X22094646Y-17675500D01*
X22279803Y-17636144D01*
X22452730Y-17559151D01*
X22605871Y-17447888D01*
X22732533Y-17307216D01*
X22827179Y-17143284D01*
X22882069Y-16974351D01*
X22921506Y-16916675D01*
X22985865Y-16889477D01*
X23054711Y-16901392D01*
X23106187Y-16948636D01*
X23117931Y-16974351D01*
X23172818Y-17143277D01*
X23172820Y-17143281D01*
X23172821Y-17143284D01*
X23267467Y-17307216D01*
X23348617Y-17397342D01*
X23394129Y-17447888D01*
X23547265Y-17559148D01*
X23547270Y-17559151D01*
X23720192Y-17636142D01*
X23720197Y-17636144D01*
X23905354Y-17675500D01*
X23905355Y-17675500D01*
X24094644Y-17675500D01*
X24094646Y-17675500D01*
X24279803Y-17636144D01*
X24452730Y-17559151D01*
X24605871Y-17447888D01*
X24732533Y-17307216D01*
X24827179Y-17143284D01*
X24882069Y-16974351D01*
X24921506Y-16916675D01*
X24985865Y-16889477D01*
X25054711Y-16901392D01*
X25106187Y-16948636D01*
X25117931Y-16974351D01*
X25172818Y-17143277D01*
X25172820Y-17143281D01*
X25172821Y-17143284D01*
X25267467Y-17307216D01*
X25348617Y-17397342D01*
X25394129Y-17447888D01*
X25547265Y-17559148D01*
X25547270Y-17559151D01*
X25720192Y-17636142D01*
X25720197Y-17636144D01*
X25905354Y-17675500D01*
X25905355Y-17675500D01*
X26094644Y-17675500D01*
X26094646Y-17675500D01*
X26279803Y-17636144D01*
X26452730Y-17559151D01*
X26605871Y-17447888D01*
X26732533Y-17307216D01*
X26827179Y-17143284D01*
X26885674Y-16963256D01*
X26900500Y-16822192D01*
X26900500Y-16177808D01*
X26885674Y-16036744D01*
X26827179Y-15856716D01*
X26732533Y-15692784D01*
X26605871Y-15552112D01*
X26568355Y-15524855D01*
X26452734Y-15440851D01*
X26452729Y-15440848D01*
X26279807Y-15363857D01*
X26279802Y-15363855D01*
X26134001Y-15332865D01*
X26094646Y-15324500D01*
X25905354Y-15324500D01*
X25872897Y-15331398D01*
X25720197Y-15363855D01*
X25720192Y-15363857D01*
X25547270Y-15440848D01*
X25547265Y-15440851D01*
X25394129Y-15552111D01*
X25267466Y-15692785D01*
X25172821Y-15856715D01*
X25172818Y-15856722D01*
X25117931Y-16025648D01*
X25078493Y-16083324D01*
X25014135Y-16110522D01*
X24945288Y-16098607D01*
X24893813Y-16051363D01*
X24882069Y-16025648D01*
X24827181Y-15856722D01*
X24827180Y-15856721D01*
X24827179Y-15856716D01*
X24732533Y-15692784D01*
X24605871Y-15552112D01*
X24568355Y-15524855D01*
X24452734Y-15440851D01*
X24452729Y-15440848D01*
X24279807Y-15363857D01*
X24279802Y-15363855D01*
X24134001Y-15332865D01*
X24094646Y-15324500D01*
X23905354Y-15324500D01*
X23872897Y-15331398D01*
X23720197Y-15363855D01*
X23720192Y-15363857D01*
X23547270Y-15440848D01*
X23547265Y-15440851D01*
X23394129Y-15552111D01*
X23267466Y-15692785D01*
X23172821Y-15856715D01*
X23172818Y-15856722D01*
X23117931Y-16025648D01*
X23078493Y-16083324D01*
X23014135Y-16110522D01*
X22945288Y-16098607D01*
X22893813Y-16051363D01*
X22882069Y-16025648D01*
X22827181Y-15856722D01*
X22827180Y-15856721D01*
X22827179Y-15856716D01*
X22732533Y-15692784D01*
X22605871Y-15552112D01*
X22568355Y-15524855D01*
X22452734Y-15440851D01*
X22452729Y-15440848D01*
X22279807Y-15363857D01*
X22279802Y-15363855D01*
X22134001Y-15332865D01*
X22094646Y-15324500D01*
X21905354Y-15324500D01*
X21872897Y-15331398D01*
X21720197Y-15363855D01*
X21720192Y-15363857D01*
X21547270Y-15440848D01*
X21547265Y-15440851D01*
X21394129Y-15552111D01*
X21267466Y-15692785D01*
X21172821Y-15856715D01*
X21172818Y-15856722D01*
X21117931Y-16025648D01*
X21078493Y-16083324D01*
X21014135Y-16110522D01*
X20945288Y-16098607D01*
X20893813Y-16051363D01*
X20882069Y-16025648D01*
X20827181Y-15856722D01*
X20827180Y-15856721D01*
X20827179Y-15856716D01*
X20732533Y-15692784D01*
X20605871Y-15552112D01*
X20568355Y-15524855D01*
X20452734Y-15440851D01*
X20452729Y-15440848D01*
X20279807Y-15363857D01*
X20279802Y-15363855D01*
X20134001Y-15332865D01*
X20094646Y-15324500D01*
X19905354Y-15324500D01*
X19872897Y-15331398D01*
X19720197Y-15363855D01*
X19720192Y-15363857D01*
X19547270Y-15440848D01*
X19547265Y-15440851D01*
X19394129Y-15552111D01*
X19267466Y-15692785D01*
X19172821Y-15856715D01*
X19172818Y-15856722D01*
X19117931Y-16025648D01*
X19078493Y-16083324D01*
X19014135Y-16110522D01*
X18945288Y-16098607D01*
X18893813Y-16051363D01*
X18882069Y-16025648D01*
X18827181Y-15856722D01*
X18827180Y-15856721D01*
X18827179Y-15856716D01*
X18732533Y-15692784D01*
X18605871Y-15552112D01*
X18568355Y-15524855D01*
X18452734Y-15440851D01*
X18452729Y-15440848D01*
X18279807Y-15363857D01*
X18279802Y-15363855D01*
X18134001Y-15332865D01*
X18094646Y-15324500D01*
X17905354Y-15324500D01*
X17872897Y-15331398D01*
X17720197Y-15363855D01*
X17720192Y-15363857D01*
X17547270Y-15440848D01*
X17547265Y-15440851D01*
X17394129Y-15552111D01*
X17267466Y-15692785D01*
X17172821Y-15856715D01*
X17172818Y-15856722D01*
X17117931Y-16025648D01*
X17078493Y-16083324D01*
X17014135Y-16110522D01*
X16945288Y-16098607D01*
X16893813Y-16051363D01*
X16882069Y-16025648D01*
X16827181Y-15856722D01*
X16827180Y-15856721D01*
X16827179Y-15856716D01*
X16732533Y-15692784D01*
X16605871Y-15552112D01*
X16568355Y-15524855D01*
X16452734Y-15440851D01*
X16452729Y-15440848D01*
X16279807Y-15363857D01*
X16279802Y-15363855D01*
X16134001Y-15332865D01*
X16094646Y-15324500D01*
X15905354Y-15324500D01*
X15872897Y-15331398D01*
X15720197Y-15363855D01*
X15720192Y-15363857D01*
X15547270Y-15440848D01*
X15547265Y-15440851D01*
X15394129Y-15552111D01*
X15267466Y-15692785D01*
X15172821Y-15856715D01*
X15172817Y-15856725D01*
X15170561Y-15863668D01*
X15131120Y-15921342D01*
X15066760Y-15948536D01*
X14997915Y-15936618D01*
X14946441Y-15889372D01*
X14934318Y-15862463D01*
X14923698Y-15828614D01*
X14923695Y-15828608D01*
X14824994Y-15650784D01*
X14824994Y-15650783D01*
X14692521Y-15496469D01*
X14692520Y-15496468D01*
X14531695Y-15371981D01*
X14349093Y-15282411D01*
X14250000Y-15256753D01*
X14250000Y-16219382D01*
X14180948Y-16165637D01*
X14062576Y-16125000D01*
X13968927Y-16125000D01*
X13876554Y-16140414D01*
X13766486Y-16199981D01*
X13750000Y-16217889D01*
X13750000Y-15251633D01*
X13748053Y-15251931D01*
X13748047Y-15251933D01*
X13557342Y-15322562D01*
X13557335Y-15322565D01*
X13384732Y-15430149D01*
X13237331Y-15570264D01*
X13237330Y-15570266D01*
X13121142Y-15737197D01*
X13121141Y-15737199D01*
X13118135Y-15744204D01*
X13073606Y-15798046D01*
X13007036Y-15819265D01*
X12939562Y-15801126D01*
X12892606Y-15749387D01*
X12888839Y-15740805D01*
X12834361Y-15602658D01*
X12834360Y-15602657D01*
X12834360Y-15602656D01*
X12742922Y-15482077D01*
X12622343Y-15390639D01*
X12481561Y-15335122D01*
X12435926Y-15329642D01*
X12393102Y-15324500D01*
X11606898Y-15324500D01*
X11567853Y-15329188D01*
X11518438Y-15335122D01*
X11377656Y-15390639D01*
X11257077Y-15482077D01*
X11165639Y-15602656D01*
X11110122Y-15743438D01*
X11104188Y-15792853D01*
X11099500Y-15831898D01*
X11099500Y-17168102D01*
X4825149Y-17168102D01*
X4824586Y-17162982D01*
X4756072Y-16900912D01*
X4650130Y-16651610D01*
X4509018Y-16420390D01*
X4473657Y-16377899D01*
X4335746Y-16212180D01*
X4335740Y-16212175D01*
X4134002Y-16031418D01*
X3908092Y-15881957D01*
X3869078Y-15863668D01*
X3662824Y-15766980D01*
X3662819Y-15766978D01*
X3662814Y-15766976D01*
X3403442Y-15688942D01*
X3403428Y-15688939D01*
X3287791Y-15671921D01*
X3135439Y-15649500D01*
X2932369Y-15649500D01*
X2932351Y-15649500D01*
X2729844Y-15664323D01*
X2729831Y-15664325D01*
X2465453Y-15723217D01*
X2465446Y-15723220D01*
X2212439Y-15819987D01*
X1976226Y-15952557D01*
X1976224Y-15952558D01*
X1976223Y-15952559D01*
X1964051Y-15961958D01*
X1761822Y-16118112D01*
X1573822Y-16313109D01*
X1573816Y-16313116D01*
X1416202Y-16533419D01*
X1416199Y-16533424D01*
X1292350Y-16774309D01*
X1292343Y-16774327D01*
X1204884Y-17030685D01*
X1204881Y-17030699D01*
X1155681Y-17297068D01*
X1155680Y-17297075D01*
X1145787Y-17567763D01*
X1175413Y-17837013D01*
X1175415Y-17837024D01*
X1243926Y-18099082D01*
X1243928Y-18099088D01*
X1349870Y-18348390D01*
X1451476Y-18514877D01*
X1490979Y-18579605D01*
X1490986Y-18579615D01*
X1664253Y-18787819D01*
X1664259Y-18787824D01*
X1769240Y-18881887D01*
X1865998Y-18968582D01*
X2091910Y-19118044D01*
X2337176Y-19233020D01*
X2337183Y-19233022D01*
X2337185Y-19233023D01*
X2416075Y-19256758D01*
X2474601Y-19294922D01*
X2503203Y-19358669D01*
X2492801Y-19427760D01*
X2446696Y-19480258D01*
X2380351Y-19499500D01*
X624500Y-19499500D01*
X557461Y-19479815D01*
X511706Y-19427011D01*
X500500Y-19375500D01*
X500500Y-14693102D01*
X40949500Y-14693102D01*
X40955126Y-14739954D01*
X40960122Y-14781561D01*
X41015639Y-14922343D01*
X41107077Y-15042922D01*
X41227656Y-15134360D01*
X41227657Y-15134360D01*
X41227658Y-15134361D01*
X41368436Y-15189877D01*
X41456898Y-15200500D01*
X41456903Y-15200500D01*
X43543097Y-15200500D01*
X43543102Y-15200500D01*
X43631564Y-15189877D01*
X43772342Y-15134361D01*
X43892922Y-15042922D01*
X43984361Y-14922342D01*
X44039877Y-14781564D01*
X44050500Y-14693102D01*
X44949500Y-14693102D01*
X44955126Y-14739954D01*
X44960122Y-14781561D01*
X45015639Y-14922343D01*
X45107077Y-15042922D01*
X45227656Y-15134360D01*
X45227657Y-15134360D01*
X45227658Y-15134361D01*
X45368436Y-15189877D01*
X45456898Y-15200500D01*
X45456903Y-15200500D01*
X47543097Y-15200500D01*
X47543102Y-15200500D01*
X47631564Y-15189877D01*
X47772342Y-15134361D01*
X47892922Y-15042922D01*
X47984361Y-14922342D01*
X48039877Y-14781564D01*
X48050500Y-14693102D01*
X48050500Y-14224499D01*
X48070185Y-14157460D01*
X48122989Y-14111705D01*
X48174500Y-14100499D01*
X48844856Y-14100499D01*
X48844864Y-14100499D01*
X48844879Y-14100497D01*
X48844882Y-14100497D01*
X48869987Y-14097586D01*
X48869988Y-14097585D01*
X48869991Y-14097585D01*
X48972765Y-14052206D01*
X49052206Y-13972765D01*
X49097585Y-13869991D01*
X49100500Y-13844865D01*
X49100500Y-13844856D01*
X51899500Y-13844856D01*
X51899502Y-13844882D01*
X51902413Y-13869987D01*
X51902415Y-13869991D01*
X51947793Y-13972764D01*
X51947794Y-13972765D01*
X52027235Y-14052206D01*
X52130009Y-14097585D01*
X52155135Y-14100500D01*
X53744864Y-14100499D01*
X53744879Y-14100497D01*
X53744882Y-14100497D01*
X53769987Y-14097586D01*
X53769988Y-14097585D01*
X53769991Y-14097585D01*
X53872765Y-14052206D01*
X53952206Y-13972765D01*
X53997585Y-13869991D01*
X54000500Y-13844865D01*
X54000499Y-12855136D01*
X54000497Y-12855117D01*
X53997586Y-12830012D01*
X53997585Y-12830010D01*
X53997585Y-12830009D01*
X53952206Y-12727235D01*
X53872765Y-12647794D01*
X53872763Y-12647793D01*
X53769992Y-12602415D01*
X53744865Y-12599500D01*
X52155143Y-12599500D01*
X52155117Y-12599502D01*
X52130012Y-12602413D01*
X52130008Y-12602415D01*
X52027235Y-12647793D01*
X51947794Y-12727234D01*
X51902415Y-12830006D01*
X51902415Y-12830008D01*
X51899500Y-12855131D01*
X51899500Y-13844856D01*
X49100500Y-13844856D01*
X49100499Y-12855136D01*
X49100497Y-12855117D01*
X49097586Y-12830012D01*
X49097585Y-12830010D01*
X49097585Y-12830009D01*
X49052206Y-12727235D01*
X48972765Y-12647794D01*
X48972763Y-12647793D01*
X48869992Y-12602415D01*
X48844865Y-12599500D01*
X47255143Y-12599500D01*
X47255117Y-12599502D01*
X47230012Y-12602413D01*
X47230008Y-12602415D01*
X47127235Y-12647793D01*
X47047794Y-12727234D01*
X47041301Y-12736714D01*
X47039921Y-12735768D01*
X47003436Y-12778963D01*
X46936650Y-12799490D01*
X46935088Y-12799500D01*
X45456898Y-12799500D01*
X45417853Y-12804188D01*
X45368438Y-12810122D01*
X45227656Y-12865639D01*
X45107077Y-12957077D01*
X45015639Y-13077656D01*
X44960122Y-13218438D01*
X44954188Y-13267853D01*
X44949500Y-13306898D01*
X44949500Y-14693102D01*
X44050500Y-14693102D01*
X44050500Y-13306898D01*
X44039877Y-13218436D01*
X43984361Y-13077658D01*
X43984360Y-13077657D01*
X43984360Y-13077656D01*
X43892922Y-12957077D01*
X43772343Y-12865639D01*
X43666979Y-12824089D01*
X43631564Y-12810123D01*
X43631563Y-12810122D01*
X43631561Y-12810122D01*
X43585926Y-12804642D01*
X43543102Y-12799500D01*
X41456898Y-12799500D01*
X41417853Y-12804188D01*
X41368438Y-12810122D01*
X41227656Y-12865639D01*
X41107077Y-12957077D01*
X41015639Y-13077656D01*
X40960122Y-13218438D01*
X40954188Y-13267853D01*
X40949500Y-13306898D01*
X40949500Y-14693102D01*
X500500Y-14693102D01*
X500500Y-12377870D01*
X2279499Y-12377870D01*
X2279500Y-12377876D01*
X2285907Y-12437483D01*
X2336201Y-12572328D01*
X2336205Y-12572335D01*
X2422451Y-12687544D01*
X2422454Y-12687547D01*
X2537663Y-12773793D01*
X2537670Y-12773797D01*
X2551521Y-12778963D01*
X2672516Y-12824091D01*
X2732126Y-12830500D01*
X3227871Y-12830499D01*
X3287482Y-12824091D01*
X3422330Y-12773796D01*
X3537545Y-12687546D01*
X3623795Y-12572331D01*
X3674090Y-12437483D01*
X3680499Y-12377873D01*
X3680499Y-12377870D01*
X3929499Y-12377870D01*
X3929500Y-12377876D01*
X3935907Y-12437483D01*
X3986201Y-12572328D01*
X3986205Y-12572335D01*
X4072451Y-12687544D01*
X4072454Y-12687547D01*
X4187663Y-12773793D01*
X4187670Y-12773797D01*
X4201521Y-12778963D01*
X4322516Y-12824091D01*
X4382126Y-12830500D01*
X4877871Y-12830499D01*
X4937482Y-12824091D01*
X5072330Y-12773796D01*
X5187545Y-12687546D01*
X5273795Y-12572331D01*
X5324090Y-12437483D01*
X5330499Y-12377873D01*
X5330499Y-12377870D01*
X6279500Y-12377870D01*
X6279501Y-12377876D01*
X6285908Y-12437483D01*
X6336202Y-12572328D01*
X6336206Y-12572335D01*
X6422452Y-12687544D01*
X6422455Y-12687547D01*
X6537664Y-12773793D01*
X6537671Y-12773797D01*
X6551522Y-12778963D01*
X6672517Y-12824091D01*
X6732127Y-12830500D01*
X7227872Y-12830499D01*
X7287483Y-12824091D01*
X7422331Y-12773796D01*
X7537546Y-12687546D01*
X7623796Y-12572331D01*
X7674091Y-12437483D01*
X7680500Y-12377873D01*
X7680500Y-12377870D01*
X7929500Y-12377870D01*
X7929501Y-12377876D01*
X7935908Y-12437483D01*
X7986202Y-12572328D01*
X7986206Y-12572335D01*
X8072452Y-12687544D01*
X8072455Y-12687547D01*
X8187664Y-12773793D01*
X8187671Y-12773797D01*
X8201522Y-12778963D01*
X8322517Y-12824091D01*
X8382127Y-12830500D01*
X8877872Y-12830499D01*
X8937483Y-12824091D01*
X9072331Y-12773796D01*
X9187546Y-12687546D01*
X9273796Y-12572331D01*
X9324091Y-12437483D01*
X9330500Y-12377873D01*
X9330500Y-12377870D01*
X10279500Y-12377870D01*
X10279501Y-12377876D01*
X10285908Y-12437483D01*
X10336202Y-12572328D01*
X10336206Y-12572335D01*
X10422452Y-12687544D01*
X10422455Y-12687547D01*
X10537664Y-12773793D01*
X10537671Y-12773797D01*
X10551522Y-12778963D01*
X10672517Y-12824091D01*
X10732127Y-12830500D01*
X11227872Y-12830499D01*
X11287483Y-12824091D01*
X11422331Y-12773796D01*
X11537546Y-12687546D01*
X11623796Y-12572331D01*
X11674091Y-12437483D01*
X11680500Y-12377873D01*
X11680500Y-12377870D01*
X11929500Y-12377870D01*
X11929501Y-12377876D01*
X11935908Y-12437483D01*
X11986202Y-12572328D01*
X11986206Y-12572335D01*
X12072452Y-12687544D01*
X12072455Y-12687547D01*
X12187664Y-12773793D01*
X12187671Y-12773797D01*
X12201522Y-12778963D01*
X12322517Y-12824091D01*
X12382127Y-12830500D01*
X12877872Y-12830499D01*
X12937483Y-12824091D01*
X13072331Y-12773796D01*
X13187546Y-12687546D01*
X13273796Y-12572331D01*
X13324091Y-12437483D01*
X13330500Y-12377873D01*
X13330500Y-12377870D01*
X14279500Y-12377870D01*
X14279501Y-12377876D01*
X14285908Y-12437483D01*
X14336202Y-12572328D01*
X14336206Y-12572335D01*
X14422452Y-12687544D01*
X14422455Y-12687547D01*
X14537664Y-12773793D01*
X14537671Y-12773797D01*
X14551522Y-12778963D01*
X14672517Y-12824091D01*
X14732127Y-12830500D01*
X15227872Y-12830499D01*
X15287483Y-12824091D01*
X15422331Y-12773796D01*
X15537546Y-12687546D01*
X15623796Y-12572331D01*
X15674091Y-12437483D01*
X15680500Y-12377873D01*
X15680500Y-12377870D01*
X15929500Y-12377870D01*
X15929501Y-12377876D01*
X15935908Y-12437483D01*
X15986202Y-12572328D01*
X15986206Y-12572335D01*
X16072452Y-12687544D01*
X16072455Y-12687547D01*
X16187664Y-12773793D01*
X16187671Y-12773797D01*
X16201522Y-12778963D01*
X16322517Y-12824091D01*
X16382127Y-12830500D01*
X16877872Y-12830499D01*
X16937483Y-12824091D01*
X17072331Y-12773796D01*
X17187546Y-12687546D01*
X17273796Y-12572331D01*
X17324091Y-12437483D01*
X17330500Y-12377873D01*
X17330500Y-12377870D01*
X18279500Y-12377870D01*
X18279501Y-12377876D01*
X18285908Y-12437483D01*
X18336202Y-12572328D01*
X18336206Y-12572335D01*
X18422452Y-12687544D01*
X18422455Y-12687547D01*
X18537664Y-12773793D01*
X18537671Y-12773797D01*
X18551522Y-12778963D01*
X18672517Y-12824091D01*
X18732127Y-12830500D01*
X19227872Y-12830499D01*
X19287483Y-12824091D01*
X19422331Y-12773796D01*
X19537546Y-12687546D01*
X19623796Y-12572331D01*
X19674091Y-12437483D01*
X19680500Y-12377873D01*
X19680500Y-12377870D01*
X19929500Y-12377870D01*
X19929501Y-12377876D01*
X19935908Y-12437483D01*
X19986202Y-12572328D01*
X19986206Y-12572335D01*
X20072452Y-12687544D01*
X20072455Y-12687547D01*
X20187664Y-12773793D01*
X20187671Y-12773797D01*
X20201522Y-12778963D01*
X20322517Y-12824091D01*
X20382127Y-12830500D01*
X20877872Y-12830499D01*
X20937483Y-12824091D01*
X21072331Y-12773796D01*
X21187546Y-12687546D01*
X21273796Y-12572331D01*
X21324091Y-12437483D01*
X21330500Y-12377873D01*
X21330500Y-12346144D01*
X22279500Y-12346144D01*
X22283311Y-12377876D01*
X22289640Y-12430588D01*
X22342636Y-12564976D01*
X22429921Y-12680078D01*
X22545023Y-12767363D01*
X22545024Y-12767363D01*
X22545025Y-12767364D01*
X22679410Y-12820359D01*
X22763856Y-12830500D01*
X22763862Y-12830500D01*
X23296138Y-12830500D01*
X23296144Y-12830500D01*
X23380590Y-12820359D01*
X23514975Y-12767364D01*
X23630078Y-12680078D01*
X23642477Y-12663727D01*
X23698667Y-12622204D01*
X23768388Y-12617651D01*
X23829503Y-12651515D01*
X23848011Y-12675528D01*
X23857223Y-12691105D01*
X23857232Y-12691116D01*
X23968883Y-12802767D01*
X23968891Y-12802773D01*
X24104811Y-12883155D01*
X24104814Y-12883156D01*
X24256446Y-12927210D01*
X24256452Y-12927211D01*
X24291881Y-12929999D01*
X24291894Y-12930000D01*
X24330000Y-12930000D01*
X24330000Y-12305000D01*
X24830000Y-12305000D01*
X24830000Y-12930000D01*
X24868106Y-12930000D01*
X24868118Y-12929999D01*
X24903547Y-12927211D01*
X24903553Y-12927210D01*
X25055185Y-12883156D01*
X25055188Y-12883155D01*
X25191108Y-12802773D01*
X25191116Y-12802767D01*
X25302767Y-12691116D01*
X25302773Y-12691108D01*
X25383155Y-12555188D01*
X25383156Y-12555185D01*
X25427210Y-12403553D01*
X25427211Y-12403547D01*
X25429232Y-12377870D01*
X26279500Y-12377870D01*
X26279501Y-12377876D01*
X26285908Y-12437483D01*
X26336202Y-12572328D01*
X26336206Y-12572335D01*
X26422452Y-12687544D01*
X26422455Y-12687547D01*
X26537664Y-12773793D01*
X26537671Y-12773797D01*
X26551522Y-12778963D01*
X26672517Y-12824091D01*
X26732127Y-12830500D01*
X27227872Y-12830499D01*
X27287483Y-12824091D01*
X27422331Y-12773796D01*
X27537546Y-12687546D01*
X27623796Y-12572331D01*
X27674091Y-12437483D01*
X27680500Y-12377873D01*
X27680500Y-12377870D01*
X27929500Y-12377870D01*
X27929501Y-12377876D01*
X27935908Y-12437483D01*
X27986202Y-12572328D01*
X27986206Y-12572335D01*
X28072452Y-12687544D01*
X28072455Y-12687547D01*
X28187664Y-12773793D01*
X28187671Y-12773797D01*
X28201522Y-12778963D01*
X28322517Y-12824091D01*
X28382127Y-12830500D01*
X28877872Y-12830499D01*
X28937483Y-12824091D01*
X29072331Y-12773796D01*
X29187546Y-12687546D01*
X29273796Y-12572331D01*
X29324091Y-12437483D01*
X29330500Y-12377873D01*
X29330499Y-11732128D01*
X29324091Y-11672517D01*
X29273796Y-11537669D01*
X29273795Y-11537668D01*
X29273793Y-11537664D01*
X29187547Y-11422455D01*
X29187544Y-11422452D01*
X29072335Y-11336206D01*
X29072328Y-11336202D01*
X28937486Y-11285910D01*
X28937485Y-11285909D01*
X28937483Y-11285909D01*
X28877873Y-11279500D01*
X28877863Y-11279500D01*
X28382129Y-11279500D01*
X28382123Y-11279501D01*
X28322516Y-11285908D01*
X28187671Y-11336202D01*
X28187664Y-11336206D01*
X28072455Y-11422452D01*
X28072452Y-11422455D01*
X27986206Y-11537664D01*
X27986202Y-11537671D01*
X27935910Y-11672513D01*
X27935909Y-11672517D01*
X27929500Y-11732127D01*
X27929500Y-11732134D01*
X27929500Y-11732135D01*
X27929500Y-12377870D01*
X27680500Y-12377870D01*
X27680499Y-11732128D01*
X27674091Y-11672517D01*
X27623796Y-11537669D01*
X27623795Y-11537668D01*
X27623793Y-11537664D01*
X27537547Y-11422455D01*
X27537544Y-11422452D01*
X27422335Y-11336206D01*
X27422328Y-11336202D01*
X27287486Y-11285910D01*
X27287485Y-11285909D01*
X27287483Y-11285909D01*
X27227873Y-11279500D01*
X27227863Y-11279500D01*
X26732129Y-11279500D01*
X26732123Y-11279501D01*
X26672516Y-11285908D01*
X26537671Y-11336202D01*
X26537664Y-11336206D01*
X26422455Y-11422452D01*
X26422452Y-11422455D01*
X26336206Y-11537664D01*
X26336202Y-11537671D01*
X26285910Y-11672513D01*
X26285909Y-11672517D01*
X26279500Y-11732127D01*
X26279500Y-11732134D01*
X26279500Y-11732135D01*
X26279500Y-12377870D01*
X25429232Y-12377870D01*
X25429999Y-12368118D01*
X25430000Y-12368105D01*
X25430000Y-12305000D01*
X24830000Y-12305000D01*
X24330000Y-12305000D01*
X24330000Y-11180000D01*
X24830000Y-11180000D01*
X24830000Y-11805000D01*
X25430000Y-11805000D01*
X25430000Y-11741894D01*
X25429999Y-11741881D01*
X25427211Y-11706452D01*
X25427210Y-11706446D01*
X25383156Y-11554814D01*
X25383155Y-11554811D01*
X25302773Y-11418891D01*
X25302767Y-11418883D01*
X25191116Y-11307232D01*
X25191108Y-11307226D01*
X25055188Y-11226844D01*
X25055185Y-11226843D01*
X24903553Y-11182789D01*
X24903547Y-11182788D01*
X24868118Y-11180000D01*
X24830000Y-11180000D01*
X24330000Y-11180000D01*
X24291881Y-11180000D01*
X24256452Y-11182788D01*
X24256446Y-11182789D01*
X24104814Y-11226843D01*
X24104811Y-11226844D01*
X23968891Y-11307226D01*
X23968883Y-11307232D01*
X23857232Y-11418883D01*
X23857223Y-11418894D01*
X23848010Y-11434473D01*
X23796939Y-11482154D01*
X23728196Y-11494655D01*
X23663608Y-11468006D01*
X23642477Y-11446272D01*
X23630078Y-11429921D01*
X23514976Y-11342636D01*
X23380588Y-11289640D01*
X23337242Y-11284435D01*
X23296144Y-11279500D01*
X22763856Y-11279500D01*
X22725841Y-11284065D01*
X22679411Y-11289640D01*
X22545023Y-11342636D01*
X22429921Y-11429921D01*
X22342636Y-11545023D01*
X22289640Y-11679411D01*
X22284065Y-11725841D01*
X22279500Y-11763856D01*
X22279500Y-12346144D01*
X21330500Y-12346144D01*
X21330499Y-11732128D01*
X21324091Y-11672517D01*
X21273796Y-11537669D01*
X21273795Y-11537668D01*
X21273793Y-11537664D01*
X21187547Y-11422455D01*
X21187544Y-11422452D01*
X21072335Y-11336206D01*
X21072328Y-11336202D01*
X20937486Y-11285910D01*
X20937485Y-11285909D01*
X20937483Y-11285909D01*
X20877873Y-11279500D01*
X20877863Y-11279500D01*
X20382129Y-11279500D01*
X20382123Y-11279501D01*
X20322516Y-11285908D01*
X20187671Y-11336202D01*
X20187664Y-11336206D01*
X20072455Y-11422452D01*
X20072452Y-11422455D01*
X19986206Y-11537664D01*
X19986202Y-11537671D01*
X19935910Y-11672513D01*
X19935909Y-11672517D01*
X19929500Y-11732127D01*
X19929500Y-11732134D01*
X19929500Y-11732135D01*
X19929500Y-12377870D01*
X19680500Y-12377870D01*
X19680499Y-11732128D01*
X19674091Y-11672517D01*
X19623796Y-11537669D01*
X19623795Y-11537668D01*
X19623793Y-11537664D01*
X19537547Y-11422455D01*
X19537544Y-11422452D01*
X19422335Y-11336206D01*
X19422328Y-11336202D01*
X19287486Y-11285910D01*
X19287485Y-11285909D01*
X19287483Y-11285909D01*
X19227873Y-11279500D01*
X19227863Y-11279500D01*
X18732129Y-11279500D01*
X18732123Y-11279501D01*
X18672516Y-11285908D01*
X18537671Y-11336202D01*
X18537664Y-11336206D01*
X18422455Y-11422452D01*
X18422452Y-11422455D01*
X18336206Y-11537664D01*
X18336202Y-11537671D01*
X18285910Y-11672513D01*
X18285909Y-11672517D01*
X18279500Y-11732127D01*
X18279500Y-11732134D01*
X18279500Y-11732135D01*
X18279500Y-12377870D01*
X17330500Y-12377870D01*
X17330499Y-11732128D01*
X17324091Y-11672517D01*
X17273796Y-11537669D01*
X17273795Y-11537668D01*
X17273793Y-11537664D01*
X17187547Y-11422455D01*
X17187544Y-11422452D01*
X17072335Y-11336206D01*
X17072328Y-11336202D01*
X16937486Y-11285910D01*
X16937485Y-11285909D01*
X16937483Y-11285909D01*
X16877873Y-11279500D01*
X16877863Y-11279500D01*
X16382129Y-11279500D01*
X16382123Y-11279501D01*
X16322516Y-11285908D01*
X16187671Y-11336202D01*
X16187664Y-11336206D01*
X16072455Y-11422452D01*
X16072452Y-11422455D01*
X15986206Y-11537664D01*
X15986202Y-11537671D01*
X15935910Y-11672513D01*
X15935909Y-11672517D01*
X15929500Y-11732127D01*
X15929500Y-11732134D01*
X15929500Y-11732135D01*
X15929500Y-12377870D01*
X15680500Y-12377870D01*
X15680499Y-11732128D01*
X15674091Y-11672517D01*
X15623796Y-11537669D01*
X15623795Y-11537668D01*
X15623793Y-11537664D01*
X15537547Y-11422455D01*
X15537544Y-11422452D01*
X15422335Y-11336206D01*
X15422328Y-11336202D01*
X15287486Y-11285910D01*
X15287485Y-11285909D01*
X15287483Y-11285909D01*
X15227873Y-11279500D01*
X15227863Y-11279500D01*
X14732129Y-11279500D01*
X14732123Y-11279501D01*
X14672516Y-11285908D01*
X14537671Y-11336202D01*
X14537664Y-11336206D01*
X14422455Y-11422452D01*
X14422452Y-11422455D01*
X14336206Y-11537664D01*
X14336202Y-11537671D01*
X14285910Y-11672513D01*
X14285909Y-11672517D01*
X14279500Y-11732127D01*
X14279500Y-11732134D01*
X14279500Y-11732135D01*
X14279500Y-12377870D01*
X13330500Y-12377870D01*
X13330499Y-11732128D01*
X13324091Y-11672517D01*
X13273796Y-11537669D01*
X13273795Y-11537668D01*
X13273793Y-11537664D01*
X13187547Y-11422455D01*
X13187544Y-11422452D01*
X13072335Y-11336206D01*
X13072328Y-11336202D01*
X12937486Y-11285910D01*
X12937485Y-11285909D01*
X12937483Y-11285909D01*
X12877873Y-11279500D01*
X12877863Y-11279500D01*
X12382129Y-11279500D01*
X12382123Y-11279501D01*
X12322516Y-11285908D01*
X12187671Y-11336202D01*
X12187664Y-11336206D01*
X12072455Y-11422452D01*
X12072452Y-11422455D01*
X11986206Y-11537664D01*
X11986202Y-11537671D01*
X11935910Y-11672513D01*
X11935909Y-11672517D01*
X11929500Y-11732127D01*
X11929500Y-11732134D01*
X11929500Y-11732135D01*
X11929500Y-12377870D01*
X11680500Y-12377870D01*
X11680499Y-11732128D01*
X11674091Y-11672517D01*
X11623796Y-11537669D01*
X11623795Y-11537668D01*
X11623793Y-11537664D01*
X11537547Y-11422455D01*
X11537544Y-11422452D01*
X11422335Y-11336206D01*
X11422328Y-11336202D01*
X11287486Y-11285910D01*
X11287485Y-11285909D01*
X11287483Y-11285909D01*
X11227873Y-11279500D01*
X11227863Y-11279500D01*
X10732129Y-11279500D01*
X10732123Y-11279501D01*
X10672516Y-11285908D01*
X10537671Y-11336202D01*
X10537664Y-11336206D01*
X10422455Y-11422452D01*
X10422452Y-11422455D01*
X10336206Y-11537664D01*
X10336202Y-11537671D01*
X10285910Y-11672513D01*
X10285909Y-11672517D01*
X10279500Y-11732127D01*
X10279500Y-11732134D01*
X10279500Y-11732135D01*
X10279500Y-12377870D01*
X9330500Y-12377870D01*
X9330499Y-11732128D01*
X9324091Y-11672517D01*
X9273796Y-11537669D01*
X9273795Y-11537668D01*
X9273793Y-11537664D01*
X9187547Y-11422455D01*
X9187544Y-11422452D01*
X9072335Y-11336206D01*
X9072328Y-11336202D01*
X8937486Y-11285910D01*
X8937485Y-11285909D01*
X8937483Y-11285909D01*
X8877873Y-11279500D01*
X8877863Y-11279500D01*
X8382129Y-11279500D01*
X8382123Y-11279501D01*
X8322516Y-11285908D01*
X8187671Y-11336202D01*
X8187664Y-11336206D01*
X8072455Y-11422452D01*
X8072452Y-11422455D01*
X7986206Y-11537664D01*
X7986202Y-11537671D01*
X7935910Y-11672513D01*
X7935909Y-11672517D01*
X7929500Y-11732127D01*
X7929500Y-11732134D01*
X7929500Y-11732135D01*
X7929500Y-12377870D01*
X7680500Y-12377870D01*
X7680499Y-11732128D01*
X7674091Y-11672517D01*
X7623796Y-11537669D01*
X7623795Y-11537668D01*
X7623793Y-11537664D01*
X7537547Y-11422455D01*
X7537544Y-11422452D01*
X7422335Y-11336206D01*
X7422328Y-11336202D01*
X7287486Y-11285910D01*
X7287485Y-11285909D01*
X7287483Y-11285909D01*
X7227873Y-11279500D01*
X7227863Y-11279500D01*
X6732129Y-11279500D01*
X6732123Y-11279501D01*
X6672516Y-11285908D01*
X6537671Y-11336202D01*
X6537664Y-11336206D01*
X6422455Y-11422452D01*
X6422452Y-11422455D01*
X6336206Y-11537664D01*
X6336202Y-11537671D01*
X6285910Y-11672513D01*
X6285909Y-11672517D01*
X6279500Y-11732127D01*
X6279500Y-11732134D01*
X6279500Y-11732135D01*
X6279500Y-12377870D01*
X5330499Y-12377870D01*
X5330498Y-11732128D01*
X5324090Y-11672517D01*
X5273795Y-11537669D01*
X5273794Y-11537668D01*
X5273792Y-11537664D01*
X5187546Y-11422455D01*
X5187543Y-11422452D01*
X5072334Y-11336206D01*
X5072327Y-11336202D01*
X4937485Y-11285910D01*
X4937484Y-11285909D01*
X4937482Y-11285909D01*
X4877872Y-11279500D01*
X4877862Y-11279500D01*
X4382128Y-11279500D01*
X4382122Y-11279501D01*
X4322515Y-11285908D01*
X4187670Y-11336202D01*
X4187663Y-11336206D01*
X4072454Y-11422452D01*
X4072451Y-11422455D01*
X3986205Y-11537664D01*
X3986201Y-11537671D01*
X3935909Y-11672513D01*
X3935908Y-11672517D01*
X3929499Y-11732127D01*
X3929499Y-11732134D01*
X3929499Y-11732135D01*
X3929499Y-12377870D01*
X3680499Y-12377870D01*
X3680498Y-11732128D01*
X3674090Y-11672517D01*
X3623795Y-11537669D01*
X3623794Y-11537668D01*
X3623792Y-11537664D01*
X3537546Y-11422455D01*
X3537543Y-11422452D01*
X3422334Y-11336206D01*
X3422327Y-11336202D01*
X3287485Y-11285910D01*
X3287484Y-11285909D01*
X3287482Y-11285909D01*
X3227872Y-11279500D01*
X3227862Y-11279500D01*
X2732128Y-11279500D01*
X2732122Y-11279501D01*
X2672515Y-11285908D01*
X2537670Y-11336202D01*
X2537663Y-11336206D01*
X2422454Y-11422452D01*
X2422451Y-11422455D01*
X2336205Y-11537664D01*
X2336201Y-11537671D01*
X2285909Y-11672513D01*
X2285908Y-11672517D01*
X2279499Y-11732127D01*
X2279499Y-11732134D01*
X2279499Y-11732135D01*
X2279499Y-12377870D01*
X500500Y-12377870D01*
X500500Y-6000001D01*
X3694532Y-6000001D01*
X3714364Y-6226686D01*
X3714366Y-6226697D01*
X3773258Y-6446488D01*
X3773261Y-6446497D01*
X3869431Y-6652732D01*
X3869432Y-6652734D01*
X3999954Y-6839141D01*
X4160858Y-7000045D01*
X4160861Y-7000047D01*
X4347266Y-7130568D01*
X4553504Y-7226739D01*
X4773308Y-7285635D01*
X4935230Y-7299801D01*
X4999998Y-7305468D01*
X5000000Y-7305468D01*
X5000002Y-7305468D01*
X5056673Y-7300509D01*
X5226692Y-7285635D01*
X5446496Y-7226739D01*
X5652734Y-7130568D01*
X5839139Y-7000047D01*
X6000047Y-6839139D01*
X6130568Y-6652734D01*
X6226739Y-6446496D01*
X6285635Y-6226692D01*
X6305468Y-6000001D01*
X8194532Y-6000001D01*
X8214364Y-6226686D01*
X8214366Y-6226697D01*
X8273258Y-6446488D01*
X8273261Y-6446497D01*
X8369431Y-6652732D01*
X8369432Y-6652734D01*
X8499954Y-6839141D01*
X8660858Y-7000045D01*
X8660861Y-7000047D01*
X8847266Y-7130568D01*
X9053504Y-7226739D01*
X9273308Y-7285635D01*
X9435230Y-7299801D01*
X9499998Y-7305468D01*
X9500000Y-7305468D01*
X9500002Y-7305468D01*
X9556673Y-7300509D01*
X9726692Y-7285635D01*
X9946496Y-7226739D01*
X10152734Y-7130568D01*
X10339139Y-7000047D01*
X10500047Y-6839139D01*
X10630568Y-6652734D01*
X10726739Y-6446496D01*
X10785635Y-6226692D01*
X10805468Y-6000001D01*
X12694532Y-6000001D01*
X12714364Y-6226686D01*
X12714366Y-6226697D01*
X12773258Y-6446488D01*
X12773261Y-6446497D01*
X12869431Y-6652732D01*
X12869432Y-6652734D01*
X12999954Y-6839141D01*
X13160858Y-7000045D01*
X13160861Y-7000047D01*
X13347266Y-7130568D01*
X13553504Y-7226739D01*
X13773308Y-7285635D01*
X13935230Y-7299801D01*
X13999998Y-7305468D01*
X14000000Y-7305468D01*
X14000002Y-7305468D01*
X14056673Y-7300509D01*
X14226692Y-7285635D01*
X14446496Y-7226739D01*
X14652734Y-7130568D01*
X14839139Y-7000047D01*
X15000047Y-6839139D01*
X15130568Y-6652734D01*
X15226739Y-6446496D01*
X15285635Y-6226692D01*
X15305468Y-6000001D01*
X17194532Y-6000001D01*
X17214364Y-6226686D01*
X17214366Y-6226697D01*
X17273258Y-6446488D01*
X17273261Y-6446497D01*
X17369431Y-6652732D01*
X17369432Y-6652734D01*
X17499954Y-6839141D01*
X17660858Y-7000045D01*
X17660861Y-7000047D01*
X17847266Y-7130568D01*
X18053504Y-7226739D01*
X18273308Y-7285635D01*
X18435230Y-7299801D01*
X18499998Y-7305468D01*
X18500000Y-7305468D01*
X18500002Y-7305468D01*
X18556673Y-7300509D01*
X18726692Y-7285635D01*
X18946496Y-7226739D01*
X19152734Y-7130568D01*
X19339139Y-7000047D01*
X19500047Y-6839139D01*
X19630568Y-6652734D01*
X19726739Y-6446496D01*
X19785635Y-6226692D01*
X19805468Y-6000001D01*
X21694532Y-6000001D01*
X21714364Y-6226686D01*
X21714366Y-6226697D01*
X21773258Y-6446488D01*
X21773261Y-6446497D01*
X21869431Y-6652732D01*
X21869432Y-6652734D01*
X21999954Y-6839141D01*
X22160858Y-7000045D01*
X22160861Y-7000047D01*
X22347266Y-7130568D01*
X22553504Y-7226739D01*
X22773308Y-7285635D01*
X22935230Y-7299801D01*
X22999998Y-7305468D01*
X23000000Y-7305468D01*
X23000002Y-7305468D01*
X23056673Y-7300509D01*
X23226692Y-7285635D01*
X23446496Y-7226739D01*
X23652734Y-7130568D01*
X23839139Y-7000047D01*
X24000047Y-6839139D01*
X24130568Y-6652734D01*
X24226739Y-6446496D01*
X24285635Y-6226692D01*
X24305468Y-6000001D01*
X26194532Y-6000001D01*
X26214364Y-6226686D01*
X26214366Y-6226697D01*
X26273258Y-6446488D01*
X26273261Y-6446497D01*
X26369431Y-6652732D01*
X26369432Y-6652734D01*
X26499954Y-6839141D01*
X26660858Y-7000045D01*
X26660861Y-7000047D01*
X26847266Y-7130568D01*
X27053504Y-7226739D01*
X27273308Y-7285635D01*
X27435230Y-7299801D01*
X27499998Y-7305468D01*
X27500000Y-7305468D01*
X27500002Y-7305468D01*
X27556673Y-7300509D01*
X27726692Y-7285635D01*
X27946496Y-7226739D01*
X28152734Y-7130568D01*
X28339139Y-7000047D01*
X28500047Y-6839139D01*
X28630568Y-6652734D01*
X28726739Y-6446496D01*
X28785635Y-6226692D01*
X28805468Y-6000001D01*
X30694532Y-6000001D01*
X30714364Y-6226686D01*
X30714366Y-6226697D01*
X30773258Y-6446488D01*
X30773261Y-6446497D01*
X30869431Y-6652732D01*
X30869432Y-6652734D01*
X30999954Y-6839141D01*
X31160858Y-7000045D01*
X31160861Y-7000047D01*
X31347266Y-7130568D01*
X31553504Y-7226739D01*
X31773308Y-7285635D01*
X31935230Y-7299801D01*
X31999998Y-7305468D01*
X32000000Y-7305468D01*
X32000002Y-7305468D01*
X32056673Y-7300509D01*
X32226692Y-7285635D01*
X32446496Y-7226739D01*
X32652734Y-7130568D01*
X32839139Y-7000047D01*
X33000047Y-6839139D01*
X33130568Y-6652734D01*
X33226739Y-6446496D01*
X33285635Y-6226692D01*
X33305468Y-6000001D01*
X35194532Y-6000001D01*
X35214364Y-6226686D01*
X35214366Y-6226697D01*
X35273258Y-6446488D01*
X35273261Y-6446497D01*
X35369431Y-6652732D01*
X35369432Y-6652734D01*
X35499954Y-6839141D01*
X35660858Y-7000045D01*
X35660861Y-7000047D01*
X35847266Y-7130568D01*
X36053504Y-7226739D01*
X36273308Y-7285635D01*
X36435230Y-7299801D01*
X36499998Y-7305468D01*
X36500000Y-7305468D01*
X36500002Y-7305468D01*
X36556673Y-7300509D01*
X36726692Y-7285635D01*
X36946496Y-7226739D01*
X37152734Y-7130568D01*
X37339139Y-7000047D01*
X37500047Y-6839139D01*
X37630568Y-6652734D01*
X37726739Y-6446496D01*
X37785635Y-6226692D01*
X37805468Y-6000001D01*
X39694532Y-6000001D01*
X39714364Y-6226686D01*
X39714366Y-6226697D01*
X39773258Y-6446488D01*
X39773261Y-6446497D01*
X39869431Y-6652732D01*
X39869432Y-6652734D01*
X39999954Y-6839141D01*
X40160858Y-7000045D01*
X40160861Y-7000047D01*
X40347266Y-7130568D01*
X40553504Y-7226739D01*
X40773308Y-7285635D01*
X40935230Y-7299801D01*
X40999998Y-7305468D01*
X41000000Y-7305468D01*
X41000002Y-7305468D01*
X41056673Y-7300509D01*
X41226692Y-7285635D01*
X41446496Y-7226739D01*
X41652734Y-7130568D01*
X41839139Y-7000047D01*
X42000047Y-6839139D01*
X42130568Y-6652734D01*
X42226739Y-6446496D01*
X42285635Y-6226692D01*
X42305468Y-6000001D01*
X44194532Y-6000001D01*
X44214364Y-6226686D01*
X44214366Y-6226697D01*
X44273258Y-6446488D01*
X44273261Y-6446497D01*
X44369431Y-6652732D01*
X44369432Y-6652734D01*
X44499954Y-6839141D01*
X44660858Y-7000045D01*
X44660861Y-7000047D01*
X44847266Y-7130568D01*
X45053504Y-7226739D01*
X45273308Y-7285635D01*
X45435230Y-7299801D01*
X45499998Y-7305468D01*
X45500000Y-7305468D01*
X45500002Y-7305468D01*
X45556673Y-7300509D01*
X45726692Y-7285635D01*
X45946496Y-7226739D01*
X46152734Y-7130568D01*
X46339139Y-7000047D01*
X46500047Y-6839139D01*
X46630568Y-6652734D01*
X46726739Y-6446496D01*
X46785635Y-6226692D01*
X46805468Y-6000001D01*
X48694532Y-6000001D01*
X48714364Y-6226686D01*
X48714366Y-6226697D01*
X48773258Y-6446488D01*
X48773261Y-6446497D01*
X48869431Y-6652732D01*
X48869432Y-6652734D01*
X48999954Y-6839141D01*
X49160858Y-7000045D01*
X49160861Y-7000047D01*
X49347266Y-7130568D01*
X49553504Y-7226739D01*
X49773308Y-7285635D01*
X49935230Y-7299801D01*
X49999998Y-7305468D01*
X50000000Y-7305468D01*
X50000002Y-7305468D01*
X50056673Y-7300509D01*
X50226692Y-7285635D01*
X50446496Y-7226739D01*
X50652734Y-7130568D01*
X50839139Y-7000047D01*
X51000047Y-6839139D01*
X51130568Y-6652734D01*
X51226739Y-6446496D01*
X51285635Y-6226692D01*
X51305468Y-6000001D01*
X53194532Y-6000001D01*
X53214364Y-6226686D01*
X53214366Y-6226697D01*
X53273258Y-6446488D01*
X53273261Y-6446497D01*
X53369431Y-6652732D01*
X53369432Y-6652734D01*
X53499954Y-6839141D01*
X53660858Y-7000045D01*
X53660861Y-7000047D01*
X53847266Y-7130568D01*
X54053504Y-7226739D01*
X54273308Y-7285635D01*
X54435230Y-7299801D01*
X54499998Y-7305468D01*
X54500000Y-7305468D01*
X54500002Y-7305468D01*
X54556673Y-7300509D01*
X54726692Y-7285635D01*
X54946496Y-7226739D01*
X55152734Y-7130568D01*
X55339139Y-7000047D01*
X55500047Y-6839139D01*
X55630568Y-6652734D01*
X55726739Y-6446496D01*
X55785635Y-6226692D01*
X55805468Y-6000000D01*
X55785635Y-5773308D01*
X55726739Y-5553504D01*
X55630568Y-5347266D01*
X55500047Y-5160861D01*
X55500045Y-5160858D01*
X55339141Y-4999954D01*
X55152734Y-4869432D01*
X55152732Y-4869431D01*
X54946497Y-4773261D01*
X54946488Y-4773258D01*
X54726697Y-4714366D01*
X54726693Y-4714365D01*
X54726692Y-4714365D01*
X54726691Y-4714364D01*
X54726686Y-4714364D01*
X54500002Y-4694532D01*
X54499998Y-4694532D01*
X54273313Y-4714364D01*
X54273302Y-4714366D01*
X54053511Y-4773258D01*
X54053502Y-4773261D01*
X53847267Y-4869431D01*
X53847265Y-4869432D01*
X53660858Y-4999954D01*
X53499954Y-5160858D01*
X53369432Y-5347265D01*
X53369431Y-5347267D01*
X53273261Y-5553502D01*
X53273258Y-5553511D01*
X53214366Y-5773302D01*
X53214364Y-5773313D01*
X53194532Y-5999998D01*
X53194532Y-6000001D01*
X51305468Y-6000001D01*
X51305468Y-6000000D01*
X51285635Y-5773308D01*
X51226739Y-5553504D01*
X51130568Y-5347266D01*
X51000047Y-5160861D01*
X51000045Y-5160858D01*
X50839141Y-4999954D01*
X50652734Y-4869432D01*
X50652732Y-4869431D01*
X50446497Y-4773261D01*
X50446488Y-4773258D01*
X50226697Y-4714366D01*
X50226693Y-4714365D01*
X50226692Y-4714365D01*
X50226691Y-4714364D01*
X50226686Y-4714364D01*
X50000002Y-4694532D01*
X49999998Y-4694532D01*
X49773313Y-4714364D01*
X49773302Y-4714366D01*
X49553511Y-4773258D01*
X49553502Y-4773261D01*
X49347267Y-4869431D01*
X49347265Y-4869432D01*
X49160858Y-4999954D01*
X48999954Y-5160858D01*
X48869432Y-5347265D01*
X48869431Y-5347267D01*
X48773261Y-5553502D01*
X48773258Y-5553511D01*
X48714366Y-5773302D01*
X48714364Y-5773313D01*
X48694532Y-5999998D01*
X48694532Y-6000001D01*
X46805468Y-6000001D01*
X46805468Y-6000000D01*
X46785635Y-5773308D01*
X46726739Y-5553504D01*
X46630568Y-5347266D01*
X46500047Y-5160861D01*
X46500045Y-5160858D01*
X46339141Y-4999954D01*
X46152734Y-4869432D01*
X46152732Y-4869431D01*
X45946497Y-4773261D01*
X45946488Y-4773258D01*
X45726697Y-4714366D01*
X45726693Y-4714365D01*
X45726692Y-4714365D01*
X45726691Y-4714364D01*
X45726686Y-4714364D01*
X45500002Y-4694532D01*
X45499998Y-4694532D01*
X45273313Y-4714364D01*
X45273302Y-4714366D01*
X45053511Y-4773258D01*
X45053502Y-4773261D01*
X44847267Y-4869431D01*
X44847265Y-4869432D01*
X44660858Y-4999954D01*
X44499954Y-5160858D01*
X44369432Y-5347265D01*
X44369431Y-5347267D01*
X44273261Y-5553502D01*
X44273258Y-5553511D01*
X44214366Y-5773302D01*
X44214364Y-5773313D01*
X44194532Y-5999998D01*
X44194532Y-6000001D01*
X42305468Y-6000001D01*
X42305468Y-6000000D01*
X42285635Y-5773308D01*
X42226739Y-5553504D01*
X42130568Y-5347266D01*
X42000047Y-5160861D01*
X42000045Y-5160858D01*
X41839141Y-4999954D01*
X41652734Y-4869432D01*
X41652732Y-4869431D01*
X41446497Y-4773261D01*
X41446488Y-4773258D01*
X41226697Y-4714366D01*
X41226693Y-4714365D01*
X41226692Y-4714365D01*
X41226691Y-4714364D01*
X41226686Y-4714364D01*
X41000002Y-4694532D01*
X40999998Y-4694532D01*
X40773313Y-4714364D01*
X40773302Y-4714366D01*
X40553511Y-4773258D01*
X40553502Y-4773261D01*
X40347267Y-4869431D01*
X40347265Y-4869432D01*
X40160858Y-4999954D01*
X39999954Y-5160858D01*
X39869432Y-5347265D01*
X39869431Y-5347267D01*
X39773261Y-5553502D01*
X39773258Y-5553511D01*
X39714366Y-5773302D01*
X39714364Y-5773313D01*
X39694532Y-5999998D01*
X39694532Y-6000001D01*
X37805468Y-6000001D01*
X37805468Y-6000000D01*
X37785635Y-5773308D01*
X37726739Y-5553504D01*
X37630568Y-5347266D01*
X37500047Y-5160861D01*
X37500045Y-5160858D01*
X37339141Y-4999954D01*
X37152734Y-4869432D01*
X37152732Y-4869431D01*
X36946497Y-4773261D01*
X36946488Y-4773258D01*
X36726697Y-4714366D01*
X36726693Y-4714365D01*
X36726692Y-4714365D01*
X36726691Y-4714364D01*
X36726686Y-4714364D01*
X36500002Y-4694532D01*
X36499998Y-4694532D01*
X36273313Y-4714364D01*
X36273302Y-4714366D01*
X36053511Y-4773258D01*
X36053502Y-4773261D01*
X35847267Y-4869431D01*
X35847265Y-4869432D01*
X35660858Y-4999954D01*
X35499954Y-5160858D01*
X35369432Y-5347265D01*
X35369431Y-5347267D01*
X35273261Y-5553502D01*
X35273258Y-5553511D01*
X35214366Y-5773302D01*
X35214364Y-5773313D01*
X35194532Y-5999998D01*
X35194532Y-6000001D01*
X33305468Y-6000001D01*
X33305468Y-6000000D01*
X33285635Y-5773308D01*
X33226739Y-5553504D01*
X33130568Y-5347266D01*
X33000047Y-5160861D01*
X33000045Y-5160858D01*
X32839141Y-4999954D01*
X32652734Y-4869432D01*
X32652732Y-4869431D01*
X32446497Y-4773261D01*
X32446488Y-4773258D01*
X32226697Y-4714366D01*
X32226693Y-4714365D01*
X32226692Y-4714365D01*
X32226691Y-4714364D01*
X32226686Y-4714364D01*
X32000002Y-4694532D01*
X31999998Y-4694532D01*
X31773313Y-4714364D01*
X31773302Y-4714366D01*
X31553511Y-4773258D01*
X31553502Y-4773261D01*
X31347267Y-4869431D01*
X31347265Y-4869432D01*
X31160858Y-4999954D01*
X30999954Y-5160858D01*
X30869432Y-5347265D01*
X30869431Y-5347267D01*
X30773261Y-5553502D01*
X30773258Y-5553511D01*
X30714366Y-5773302D01*
X30714364Y-5773313D01*
X30694532Y-5999998D01*
X30694532Y-6000001D01*
X28805468Y-6000001D01*
X28805468Y-6000000D01*
X28785635Y-5773308D01*
X28726739Y-5553504D01*
X28630568Y-5347266D01*
X28500047Y-5160861D01*
X28500045Y-5160858D01*
X28339141Y-4999954D01*
X28152734Y-4869432D01*
X28152732Y-4869431D01*
X27946497Y-4773261D01*
X27946488Y-4773258D01*
X27726697Y-4714366D01*
X27726693Y-4714365D01*
X27726692Y-4714365D01*
X27726691Y-4714364D01*
X27726686Y-4714364D01*
X27500002Y-4694532D01*
X27499998Y-4694532D01*
X27273313Y-4714364D01*
X27273302Y-4714366D01*
X27053511Y-4773258D01*
X27053502Y-4773261D01*
X26847267Y-4869431D01*
X26847265Y-4869432D01*
X26660858Y-4999954D01*
X26499954Y-5160858D01*
X26369432Y-5347265D01*
X26369431Y-5347267D01*
X26273261Y-5553502D01*
X26273258Y-5553511D01*
X26214366Y-5773302D01*
X26214364Y-5773313D01*
X26194532Y-5999998D01*
X26194532Y-6000001D01*
X24305468Y-6000001D01*
X24305468Y-6000000D01*
X24285635Y-5773308D01*
X24226739Y-5553504D01*
X24130568Y-5347266D01*
X24000047Y-5160861D01*
X24000045Y-5160858D01*
X23839141Y-4999954D01*
X23652734Y-4869432D01*
X23652732Y-4869431D01*
X23446497Y-4773261D01*
X23446488Y-4773258D01*
X23226697Y-4714366D01*
X23226693Y-4714365D01*
X23226692Y-4714365D01*
X23226691Y-4714364D01*
X23226686Y-4714364D01*
X23000002Y-4694532D01*
X22999998Y-4694532D01*
X22773313Y-4714364D01*
X22773302Y-4714366D01*
X22553511Y-4773258D01*
X22553502Y-4773261D01*
X22347267Y-4869431D01*
X22347265Y-4869432D01*
X22160858Y-4999954D01*
X21999954Y-5160858D01*
X21869432Y-5347265D01*
X21869431Y-5347267D01*
X21773261Y-5553502D01*
X21773258Y-5553511D01*
X21714366Y-5773302D01*
X21714364Y-5773313D01*
X21694532Y-5999998D01*
X21694532Y-6000001D01*
X19805468Y-6000001D01*
X19805468Y-6000000D01*
X19785635Y-5773308D01*
X19726739Y-5553504D01*
X19630568Y-5347266D01*
X19500047Y-5160861D01*
X19500045Y-5160858D01*
X19339141Y-4999954D01*
X19152734Y-4869432D01*
X19152732Y-4869431D01*
X18946497Y-4773261D01*
X18946488Y-4773258D01*
X18726697Y-4714366D01*
X18726693Y-4714365D01*
X18726692Y-4714365D01*
X18726691Y-4714364D01*
X18726686Y-4714364D01*
X18500002Y-4694532D01*
X18499998Y-4694532D01*
X18273313Y-4714364D01*
X18273302Y-4714366D01*
X18053511Y-4773258D01*
X18053502Y-4773261D01*
X17847267Y-4869431D01*
X17847265Y-4869432D01*
X17660858Y-4999954D01*
X17499954Y-5160858D01*
X17369432Y-5347265D01*
X17369431Y-5347267D01*
X17273261Y-5553502D01*
X17273258Y-5553511D01*
X17214366Y-5773302D01*
X17214364Y-5773313D01*
X17194532Y-5999998D01*
X17194532Y-6000001D01*
X15305468Y-6000001D01*
X15305468Y-6000000D01*
X15285635Y-5773308D01*
X15226739Y-5553504D01*
X15130568Y-5347266D01*
X15000047Y-5160861D01*
X15000045Y-5160858D01*
X14839141Y-4999954D01*
X14652734Y-4869432D01*
X14652732Y-4869431D01*
X14446497Y-4773261D01*
X14446488Y-4773258D01*
X14226697Y-4714366D01*
X14226693Y-4714365D01*
X14226692Y-4714365D01*
X14226691Y-4714364D01*
X14226686Y-4714364D01*
X14000002Y-4694532D01*
X13999998Y-4694532D01*
X13773313Y-4714364D01*
X13773302Y-4714366D01*
X13553511Y-4773258D01*
X13553502Y-4773261D01*
X13347267Y-4869431D01*
X13347265Y-4869432D01*
X13160858Y-4999954D01*
X12999954Y-5160858D01*
X12869432Y-5347265D01*
X12869431Y-5347267D01*
X12773261Y-5553502D01*
X12773258Y-5553511D01*
X12714366Y-5773302D01*
X12714364Y-5773313D01*
X12694532Y-5999998D01*
X12694532Y-6000001D01*
X10805468Y-6000001D01*
X10805468Y-6000000D01*
X10785635Y-5773308D01*
X10726739Y-5553504D01*
X10630568Y-5347266D01*
X10500047Y-5160861D01*
X10500045Y-5160858D01*
X10339141Y-4999954D01*
X10152734Y-4869432D01*
X10152732Y-4869431D01*
X9946497Y-4773261D01*
X9946488Y-4773258D01*
X9726697Y-4714366D01*
X9726693Y-4714365D01*
X9726692Y-4714365D01*
X9726691Y-4714364D01*
X9726686Y-4714364D01*
X9500002Y-4694532D01*
X9499998Y-4694532D01*
X9273313Y-4714364D01*
X9273302Y-4714366D01*
X9053511Y-4773258D01*
X9053502Y-4773261D01*
X8847267Y-4869431D01*
X8847265Y-4869432D01*
X8660858Y-4999954D01*
X8499954Y-5160858D01*
X8369432Y-5347265D01*
X8369431Y-5347267D01*
X8273261Y-5553502D01*
X8273258Y-5553511D01*
X8214366Y-5773302D01*
X8214364Y-5773313D01*
X8194532Y-5999998D01*
X8194532Y-6000001D01*
X6305468Y-6000001D01*
X6305468Y-6000000D01*
X6285635Y-5773308D01*
X6226739Y-5553504D01*
X6130568Y-5347266D01*
X6000047Y-5160861D01*
X6000045Y-5160858D01*
X5839141Y-4999954D01*
X5652734Y-4869432D01*
X5652732Y-4869431D01*
X5446497Y-4773261D01*
X5446488Y-4773258D01*
X5226697Y-4714366D01*
X5226693Y-4714365D01*
X5226692Y-4714365D01*
X5226691Y-4714364D01*
X5226686Y-4714364D01*
X5000002Y-4694532D01*
X4999998Y-4694532D01*
X4773313Y-4714364D01*
X4773302Y-4714366D01*
X4553511Y-4773258D01*
X4553502Y-4773261D01*
X4347267Y-4869431D01*
X4347265Y-4869432D01*
X4160858Y-4999954D01*
X3999954Y-5160858D01*
X3869432Y-5347265D01*
X3869431Y-5347267D01*
X3773261Y-5553502D01*
X3773258Y-5553511D01*
X3714366Y-5773302D01*
X3714364Y-5773313D01*
X3694532Y-5999998D01*
X3694532Y-6000001D01*
X500500Y-6000001D01*
X500500Y-624500D01*
X520185Y-557461D01*
X572989Y-511706D01*
X624500Y-500500D01*
X4122412Y-500500D01*
X4189451Y-520185D01*
G37*
G04 #@! TD.AperFunction*
G04 #@! TD*
M02*
