G04 #@! TF.GenerationSoftware,KiCad,Pcbnew,7.0.11+dfsg-1build4*
G04 #@! TF.CreationDate,2026-07-05T19:21:11+00:00*
G04 #@! TF.ProjectId,button-board,62757474-6f6e-42d6-926f-6172642e6b69,rev?*
G04 #@! TF.SameCoordinates,Original*
G04 #@! TF.FileFunction,Legend,Top*
G04 #@! TF.FilePolarity,Positive*
%FSLAX46Y46*%
G04 Gerber Fmt 4.6, Leading zero omitted, Abs format (unit mm)*
G04 Created by KiCad (PCBNEW 7.0.11+dfsg-1build4) date 2026-07-05 19:21:11*
%MOMM*%
%LPD*%
G01*
G04 APERTURE LIST*
%ADD10C,0.150000*%
%ADD11C,0.120000*%
G04 APERTURE END LIST*
D10*
X43761905Y-11954819D02*
X43761905Y-10954819D01*
X43761905Y-10954819D02*
X44000000Y-10954819D01*
X44000000Y-10954819D02*
X44142857Y-11002438D01*
X44142857Y-11002438D02*
X44238095Y-11097676D01*
X44238095Y-11097676D02*
X44285714Y-11192914D01*
X44285714Y-11192914D02*
X44333333Y-11383390D01*
X44333333Y-11383390D02*
X44333333Y-11526247D01*
X44333333Y-11526247D02*
X44285714Y-11716723D01*
X44285714Y-11716723D02*
X44238095Y-11811961D01*
X44238095Y-11811961D02*
X44142857Y-11907200D01*
X44142857Y-11907200D02*
X44000000Y-11954819D01*
X44000000Y-11954819D02*
X43761905Y-11954819D01*
X45285714Y-11954819D02*
X44714286Y-11954819D01*
X45000000Y-11954819D02*
X45000000Y-10954819D01*
X45000000Y-10954819D02*
X44904762Y-11097676D01*
X44904762Y-11097676D02*
X44809524Y-11192914D01*
X44809524Y-11192914D02*
X44714286Y-11240533D01*
X7638333Y-11079819D02*
X7305000Y-10603628D01*
X7066905Y-11079819D02*
X7066905Y-10079819D01*
X7066905Y-10079819D02*
X7447857Y-10079819D01*
X7447857Y-10079819D02*
X7543095Y-10127438D01*
X7543095Y-10127438D02*
X7590714Y-10175057D01*
X7590714Y-10175057D02*
X7638333Y-10270295D01*
X7638333Y-10270295D02*
X7638333Y-10413152D01*
X7638333Y-10413152D02*
X7590714Y-10508390D01*
X7590714Y-10508390D02*
X7543095Y-10556009D01*
X7543095Y-10556009D02*
X7447857Y-10603628D01*
X7447857Y-10603628D02*
X7066905Y-10603628D01*
X8019286Y-10175057D02*
X8066905Y-10127438D01*
X8066905Y-10127438D02*
X8162143Y-10079819D01*
X8162143Y-10079819D02*
X8400238Y-10079819D01*
X8400238Y-10079819D02*
X8495476Y-10127438D01*
X8495476Y-10127438D02*
X8543095Y-10175057D01*
X8543095Y-10175057D02*
X8590714Y-10270295D01*
X8590714Y-10270295D02*
X8590714Y-10365533D01*
X8590714Y-10365533D02*
X8543095Y-10508390D01*
X8543095Y-10508390D02*
X7971667Y-11079819D01*
X7971667Y-11079819D02*
X8590714Y-11079819D01*
X30407200Y-4083332D02*
X30454819Y-3940475D01*
X30454819Y-3940475D02*
X30454819Y-3702380D01*
X30454819Y-3702380D02*
X30407200Y-3607142D01*
X30407200Y-3607142D02*
X30359580Y-3559523D01*
X30359580Y-3559523D02*
X30264342Y-3511904D01*
X30264342Y-3511904D02*
X30169104Y-3511904D01*
X30169104Y-3511904D02*
X30073866Y-3559523D01*
X30073866Y-3559523D02*
X30026247Y-3607142D01*
X30026247Y-3607142D02*
X29978628Y-3702380D01*
X29978628Y-3702380D02*
X29931009Y-3892856D01*
X29931009Y-3892856D02*
X29883390Y-3988094D01*
X29883390Y-3988094D02*
X29835771Y-4035713D01*
X29835771Y-4035713D02*
X29740533Y-4083332D01*
X29740533Y-4083332D02*
X29645295Y-4083332D01*
X29645295Y-4083332D02*
X29550057Y-4035713D01*
X29550057Y-4035713D02*
X29502438Y-3988094D01*
X29502438Y-3988094D02*
X29454819Y-3892856D01*
X29454819Y-3892856D02*
X29454819Y-3654761D01*
X29454819Y-3654761D02*
X29502438Y-3511904D01*
X29454819Y-3178570D02*
X30454819Y-2940475D01*
X30454819Y-2940475D02*
X29740533Y-2749999D01*
X29740533Y-2749999D02*
X30454819Y-2559523D01*
X30454819Y-2559523D02*
X29454819Y-2321428D01*
X29788152Y-1511904D02*
X30454819Y-1511904D01*
X29407200Y-1749999D02*
X30121485Y-1988094D01*
X30121485Y-1988094D02*
X30121485Y-1369047D01*
X27638333Y-11079819D02*
X27305000Y-10603628D01*
X27066905Y-11079819D02*
X27066905Y-10079819D01*
X27066905Y-10079819D02*
X27447857Y-10079819D01*
X27447857Y-10079819D02*
X27543095Y-10127438D01*
X27543095Y-10127438D02*
X27590714Y-10175057D01*
X27590714Y-10175057D02*
X27638333Y-10270295D01*
X27638333Y-10270295D02*
X27638333Y-10413152D01*
X27638333Y-10413152D02*
X27590714Y-10508390D01*
X27590714Y-10508390D02*
X27543095Y-10556009D01*
X27543095Y-10556009D02*
X27447857Y-10603628D01*
X27447857Y-10603628D02*
X27066905Y-10603628D01*
X28495476Y-10079819D02*
X28305000Y-10079819D01*
X28305000Y-10079819D02*
X28209762Y-10127438D01*
X28209762Y-10127438D02*
X28162143Y-10175057D01*
X28162143Y-10175057D02*
X28066905Y-10317914D01*
X28066905Y-10317914D02*
X28019286Y-10508390D01*
X28019286Y-10508390D02*
X28019286Y-10889342D01*
X28019286Y-10889342D02*
X28066905Y-10984580D01*
X28066905Y-10984580D02*
X28114524Y-11032200D01*
X28114524Y-11032200D02*
X28209762Y-11079819D01*
X28209762Y-11079819D02*
X28400238Y-11079819D01*
X28400238Y-11079819D02*
X28495476Y-11032200D01*
X28495476Y-11032200D02*
X28543095Y-10984580D01*
X28543095Y-10984580D02*
X28590714Y-10889342D01*
X28590714Y-10889342D02*
X28590714Y-10651247D01*
X28590714Y-10651247D02*
X28543095Y-10556009D01*
X28543095Y-10556009D02*
X28495476Y-10508390D01*
X28495476Y-10508390D02*
X28400238Y-10460771D01*
X28400238Y-10460771D02*
X28209762Y-10460771D01*
X28209762Y-10460771D02*
X28114524Y-10508390D01*
X28114524Y-10508390D02*
X28066905Y-10556009D01*
X28066905Y-10556009D02*
X28019286Y-10651247D01*
X15638333Y-11079819D02*
X15305000Y-10603628D01*
X15066905Y-11079819D02*
X15066905Y-10079819D01*
X15066905Y-10079819D02*
X15447857Y-10079819D01*
X15447857Y-10079819D02*
X15543095Y-10127438D01*
X15543095Y-10127438D02*
X15590714Y-10175057D01*
X15590714Y-10175057D02*
X15638333Y-10270295D01*
X15638333Y-10270295D02*
X15638333Y-10413152D01*
X15638333Y-10413152D02*
X15590714Y-10508390D01*
X15590714Y-10508390D02*
X15543095Y-10556009D01*
X15543095Y-10556009D02*
X15447857Y-10603628D01*
X15447857Y-10603628D02*
X15066905Y-10603628D01*
X16495476Y-10413152D02*
X16495476Y-11079819D01*
X16257381Y-10032200D02*
X16019286Y-10746485D01*
X16019286Y-10746485D02*
X16638333Y-10746485D01*
X21407200Y-4083332D02*
X21454819Y-3940475D01*
X21454819Y-3940475D02*
X21454819Y-3702380D01*
X21454819Y-3702380D02*
X21407200Y-3607142D01*
X21407200Y-3607142D02*
X21359580Y-3559523D01*
X21359580Y-3559523D02*
X21264342Y-3511904D01*
X21264342Y-3511904D02*
X21169104Y-3511904D01*
X21169104Y-3511904D02*
X21073866Y-3559523D01*
X21073866Y-3559523D02*
X21026247Y-3607142D01*
X21026247Y-3607142D02*
X20978628Y-3702380D01*
X20978628Y-3702380D02*
X20931009Y-3892856D01*
X20931009Y-3892856D02*
X20883390Y-3988094D01*
X20883390Y-3988094D02*
X20835771Y-4035713D01*
X20835771Y-4035713D02*
X20740533Y-4083332D01*
X20740533Y-4083332D02*
X20645295Y-4083332D01*
X20645295Y-4083332D02*
X20550057Y-4035713D01*
X20550057Y-4035713D02*
X20502438Y-3988094D01*
X20502438Y-3988094D02*
X20454819Y-3892856D01*
X20454819Y-3892856D02*
X20454819Y-3654761D01*
X20454819Y-3654761D02*
X20502438Y-3511904D01*
X20454819Y-3178570D02*
X21454819Y-2940475D01*
X21454819Y-2940475D02*
X20740533Y-2749999D01*
X20740533Y-2749999D02*
X21454819Y-2559523D01*
X21454819Y-2559523D02*
X20454819Y-2321428D01*
X20454819Y-2035713D02*
X20454819Y-1416666D01*
X20454819Y-1416666D02*
X20835771Y-1749999D01*
X20835771Y-1749999D02*
X20835771Y-1607142D01*
X20835771Y-1607142D02*
X20883390Y-1511904D01*
X20883390Y-1511904D02*
X20931009Y-1464285D01*
X20931009Y-1464285D02*
X21026247Y-1416666D01*
X21026247Y-1416666D02*
X21264342Y-1416666D01*
X21264342Y-1416666D02*
X21359580Y-1464285D01*
X21359580Y-1464285D02*
X21407200Y-1511904D01*
X21407200Y-1511904D02*
X21454819Y-1607142D01*
X21454819Y-1607142D02*
X21454819Y-1892856D01*
X21454819Y-1892856D02*
X21407200Y-1988094D01*
X21407200Y-1988094D02*
X21359580Y-2035713D01*
X12407200Y-4083332D02*
X12454819Y-3940475D01*
X12454819Y-3940475D02*
X12454819Y-3702380D01*
X12454819Y-3702380D02*
X12407200Y-3607142D01*
X12407200Y-3607142D02*
X12359580Y-3559523D01*
X12359580Y-3559523D02*
X12264342Y-3511904D01*
X12264342Y-3511904D02*
X12169104Y-3511904D01*
X12169104Y-3511904D02*
X12073866Y-3559523D01*
X12073866Y-3559523D02*
X12026247Y-3607142D01*
X12026247Y-3607142D02*
X11978628Y-3702380D01*
X11978628Y-3702380D02*
X11931009Y-3892856D01*
X11931009Y-3892856D02*
X11883390Y-3988094D01*
X11883390Y-3988094D02*
X11835771Y-4035713D01*
X11835771Y-4035713D02*
X11740533Y-4083332D01*
X11740533Y-4083332D02*
X11645295Y-4083332D01*
X11645295Y-4083332D02*
X11550057Y-4035713D01*
X11550057Y-4035713D02*
X11502438Y-3988094D01*
X11502438Y-3988094D02*
X11454819Y-3892856D01*
X11454819Y-3892856D02*
X11454819Y-3654761D01*
X11454819Y-3654761D02*
X11502438Y-3511904D01*
X11454819Y-3178570D02*
X12454819Y-2940475D01*
X12454819Y-2940475D02*
X11740533Y-2749999D01*
X11740533Y-2749999D02*
X12454819Y-2559523D01*
X12454819Y-2559523D02*
X11454819Y-2321428D01*
X11550057Y-1988094D02*
X11502438Y-1940475D01*
X11502438Y-1940475D02*
X11454819Y-1845237D01*
X11454819Y-1845237D02*
X11454819Y-1607142D01*
X11454819Y-1607142D02*
X11502438Y-1511904D01*
X11502438Y-1511904D02*
X11550057Y-1464285D01*
X11550057Y-1464285D02*
X11645295Y-1416666D01*
X11645295Y-1416666D02*
X11740533Y-1416666D01*
X11740533Y-1416666D02*
X11883390Y-1464285D01*
X11883390Y-1464285D02*
X12454819Y-2035713D01*
X12454819Y-2035713D02*
X12454819Y-1416666D01*
X49380952Y-11954819D02*
X48904762Y-11954819D01*
X48904762Y-11954819D02*
X48904762Y-10954819D01*
X49714286Y-11431009D02*
X50047619Y-11431009D01*
X50190476Y-11954819D02*
X49714286Y-11954819D01*
X49714286Y-11954819D02*
X49714286Y-10954819D01*
X49714286Y-10954819D02*
X50190476Y-10954819D01*
X50619048Y-11954819D02*
X50619048Y-10954819D01*
X50619048Y-10954819D02*
X50857143Y-10954819D01*
X50857143Y-10954819D02*
X51000000Y-11002438D01*
X51000000Y-11002438D02*
X51095238Y-11097676D01*
X51095238Y-11097676D02*
X51142857Y-11192914D01*
X51142857Y-11192914D02*
X51190476Y-11383390D01*
X51190476Y-11383390D02*
X51190476Y-11526247D01*
X51190476Y-11526247D02*
X51142857Y-11716723D01*
X51142857Y-11716723D02*
X51095238Y-11811961D01*
X51095238Y-11811961D02*
X51000000Y-11907200D01*
X51000000Y-11907200D02*
X50857143Y-11954819D01*
X50857143Y-11954819D02*
X50619048Y-11954819D01*
X52142857Y-11954819D02*
X51571429Y-11954819D01*
X51857143Y-11954819D02*
X51857143Y-10954819D01*
X51857143Y-10954819D02*
X51761905Y-11097676D01*
X51761905Y-11097676D02*
X51666667Y-11192914D01*
X51666667Y-11192914D02*
X51571429Y-11240533D01*
X46635714Y-13854819D02*
X46064286Y-13854819D01*
X46350000Y-13854819D02*
X46350000Y-12854819D01*
X46350000Y-12854819D02*
X46254762Y-12997676D01*
X46254762Y-12997676D02*
X46159524Y-13092914D01*
X46159524Y-13092914D02*
X46064286Y-13140533D01*
X18666666Y-13054819D02*
X18666666Y-13769104D01*
X18666666Y-13769104D02*
X18619047Y-13911961D01*
X18619047Y-13911961D02*
X18523809Y-14007200D01*
X18523809Y-14007200D02*
X18380952Y-14054819D01*
X18380952Y-14054819D02*
X18285714Y-14054819D01*
X19666666Y-14054819D02*
X19095238Y-14054819D01*
X19380952Y-14054819D02*
X19380952Y-13054819D01*
X19380952Y-13054819D02*
X19285714Y-13197676D01*
X19285714Y-13197676D02*
X19190476Y-13292914D01*
X19190476Y-13292914D02*
X19095238Y-13340533D01*
X43833333Y-16179580D02*
X43785714Y-16227200D01*
X43785714Y-16227200D02*
X43642857Y-16274819D01*
X43642857Y-16274819D02*
X43547619Y-16274819D01*
X43547619Y-16274819D02*
X43404762Y-16227200D01*
X43404762Y-16227200D02*
X43309524Y-16131961D01*
X43309524Y-16131961D02*
X43261905Y-16036723D01*
X43261905Y-16036723D02*
X43214286Y-15846247D01*
X43214286Y-15846247D02*
X43214286Y-15703390D01*
X43214286Y-15703390D02*
X43261905Y-15512914D01*
X43261905Y-15512914D02*
X43309524Y-15417676D01*
X43309524Y-15417676D02*
X43404762Y-15322438D01*
X43404762Y-15322438D02*
X43547619Y-15274819D01*
X43547619Y-15274819D02*
X43642857Y-15274819D01*
X43642857Y-15274819D02*
X43785714Y-15322438D01*
X43785714Y-15322438D02*
X43833333Y-15370057D01*
X44785714Y-16274819D02*
X44214286Y-16274819D01*
X44500000Y-16274819D02*
X44500000Y-15274819D01*
X44500000Y-15274819D02*
X44404762Y-15417676D01*
X44404762Y-15417676D02*
X44309524Y-15512914D01*
X44309524Y-15512914D02*
X44214286Y-15560533D01*
X19638333Y-11079819D02*
X19305000Y-10603628D01*
X19066905Y-11079819D02*
X19066905Y-10079819D01*
X19066905Y-10079819D02*
X19447857Y-10079819D01*
X19447857Y-10079819D02*
X19543095Y-10127438D01*
X19543095Y-10127438D02*
X19590714Y-10175057D01*
X19590714Y-10175057D02*
X19638333Y-10270295D01*
X19638333Y-10270295D02*
X19638333Y-10413152D01*
X19638333Y-10413152D02*
X19590714Y-10508390D01*
X19590714Y-10508390D02*
X19543095Y-10556009D01*
X19543095Y-10556009D02*
X19447857Y-10603628D01*
X19447857Y-10603628D02*
X19066905Y-10603628D01*
X20543095Y-10079819D02*
X20066905Y-10079819D01*
X20066905Y-10079819D02*
X20019286Y-10556009D01*
X20019286Y-10556009D02*
X20066905Y-10508390D01*
X20066905Y-10508390D02*
X20162143Y-10460771D01*
X20162143Y-10460771D02*
X20400238Y-10460771D01*
X20400238Y-10460771D02*
X20495476Y-10508390D01*
X20495476Y-10508390D02*
X20543095Y-10556009D01*
X20543095Y-10556009D02*
X20590714Y-10651247D01*
X20590714Y-10651247D02*
X20590714Y-10889342D01*
X20590714Y-10889342D02*
X20543095Y-10984580D01*
X20543095Y-10984580D02*
X20495476Y-11032200D01*
X20495476Y-11032200D02*
X20400238Y-11079819D01*
X20400238Y-11079819D02*
X20162143Y-11079819D01*
X20162143Y-11079819D02*
X20066905Y-11032200D01*
X20066905Y-11032200D02*
X20019286Y-10984580D01*
X3407200Y-4083332D02*
X3454819Y-3940475D01*
X3454819Y-3940475D02*
X3454819Y-3702380D01*
X3454819Y-3702380D02*
X3407200Y-3607142D01*
X3407200Y-3607142D02*
X3359580Y-3559523D01*
X3359580Y-3559523D02*
X3264342Y-3511904D01*
X3264342Y-3511904D02*
X3169104Y-3511904D01*
X3169104Y-3511904D02*
X3073866Y-3559523D01*
X3073866Y-3559523D02*
X3026247Y-3607142D01*
X3026247Y-3607142D02*
X2978628Y-3702380D01*
X2978628Y-3702380D02*
X2931009Y-3892856D01*
X2931009Y-3892856D02*
X2883390Y-3988094D01*
X2883390Y-3988094D02*
X2835771Y-4035713D01*
X2835771Y-4035713D02*
X2740533Y-4083332D01*
X2740533Y-4083332D02*
X2645295Y-4083332D01*
X2645295Y-4083332D02*
X2550057Y-4035713D01*
X2550057Y-4035713D02*
X2502438Y-3988094D01*
X2502438Y-3988094D02*
X2454819Y-3892856D01*
X2454819Y-3892856D02*
X2454819Y-3654761D01*
X2454819Y-3654761D02*
X2502438Y-3511904D01*
X2454819Y-3178570D02*
X3454819Y-2940475D01*
X3454819Y-2940475D02*
X2740533Y-2749999D01*
X2740533Y-2749999D02*
X3454819Y-2559523D01*
X3454819Y-2559523D02*
X2454819Y-2321428D01*
X3454819Y-1416666D02*
X3454819Y-1988094D01*
X3454819Y-1702380D02*
X2454819Y-1702380D01*
X2454819Y-1702380D02*
X2597676Y-1797618D01*
X2597676Y-1797618D02*
X2692914Y-1892856D01*
X2692914Y-1892856D02*
X2740533Y-1988094D01*
X11638333Y-11079819D02*
X11305000Y-10603628D01*
X11066905Y-11079819D02*
X11066905Y-10079819D01*
X11066905Y-10079819D02*
X11447857Y-10079819D01*
X11447857Y-10079819D02*
X11543095Y-10127438D01*
X11543095Y-10127438D02*
X11590714Y-10175057D01*
X11590714Y-10175057D02*
X11638333Y-10270295D01*
X11638333Y-10270295D02*
X11638333Y-10413152D01*
X11638333Y-10413152D02*
X11590714Y-10508390D01*
X11590714Y-10508390D02*
X11543095Y-10556009D01*
X11543095Y-10556009D02*
X11447857Y-10603628D01*
X11447857Y-10603628D02*
X11066905Y-10603628D01*
X11971667Y-10079819D02*
X12590714Y-10079819D01*
X12590714Y-10079819D02*
X12257381Y-10460771D01*
X12257381Y-10460771D02*
X12400238Y-10460771D01*
X12400238Y-10460771D02*
X12495476Y-10508390D01*
X12495476Y-10508390D02*
X12543095Y-10556009D01*
X12543095Y-10556009D02*
X12590714Y-10651247D01*
X12590714Y-10651247D02*
X12590714Y-10889342D01*
X12590714Y-10889342D02*
X12543095Y-10984580D01*
X12543095Y-10984580D02*
X12495476Y-11032200D01*
X12495476Y-11032200D02*
X12400238Y-11079819D01*
X12400238Y-11079819D02*
X12114524Y-11079819D01*
X12114524Y-11079819D02*
X12019286Y-11032200D01*
X12019286Y-11032200D02*
X11971667Y-10984580D01*
X57214286Y-13754819D02*
X57214286Y-12754819D01*
X57214286Y-13231009D02*
X57785714Y-13231009D01*
X57785714Y-13754819D02*
X57785714Y-12754819D01*
X48407200Y-4083332D02*
X48454819Y-3940475D01*
X48454819Y-3940475D02*
X48454819Y-3702380D01*
X48454819Y-3702380D02*
X48407200Y-3607142D01*
X48407200Y-3607142D02*
X48359580Y-3559523D01*
X48359580Y-3559523D02*
X48264342Y-3511904D01*
X48264342Y-3511904D02*
X48169104Y-3511904D01*
X48169104Y-3511904D02*
X48073866Y-3559523D01*
X48073866Y-3559523D02*
X48026247Y-3607142D01*
X48026247Y-3607142D02*
X47978628Y-3702380D01*
X47978628Y-3702380D02*
X47931009Y-3892856D01*
X47931009Y-3892856D02*
X47883390Y-3988094D01*
X47883390Y-3988094D02*
X47835771Y-4035713D01*
X47835771Y-4035713D02*
X47740533Y-4083332D01*
X47740533Y-4083332D02*
X47645295Y-4083332D01*
X47645295Y-4083332D02*
X47550057Y-4035713D01*
X47550057Y-4035713D02*
X47502438Y-3988094D01*
X47502438Y-3988094D02*
X47454819Y-3892856D01*
X47454819Y-3892856D02*
X47454819Y-3654761D01*
X47454819Y-3654761D02*
X47502438Y-3511904D01*
X47454819Y-3178570D02*
X48454819Y-2940475D01*
X48454819Y-2940475D02*
X47740533Y-2749999D01*
X47740533Y-2749999D02*
X48454819Y-2559523D01*
X48454819Y-2559523D02*
X47454819Y-2321428D01*
X47454819Y-1511904D02*
X47454819Y-1702380D01*
X47454819Y-1702380D02*
X47502438Y-1797618D01*
X47502438Y-1797618D02*
X47550057Y-1845237D01*
X47550057Y-1845237D02*
X47692914Y-1940475D01*
X47692914Y-1940475D02*
X47883390Y-1988094D01*
X47883390Y-1988094D02*
X48264342Y-1988094D01*
X48264342Y-1988094D02*
X48359580Y-1940475D01*
X48359580Y-1940475D02*
X48407200Y-1892856D01*
X48407200Y-1892856D02*
X48454819Y-1797618D01*
X48454819Y-1797618D02*
X48454819Y-1607142D01*
X48454819Y-1607142D02*
X48407200Y-1511904D01*
X48407200Y-1511904D02*
X48359580Y-1464285D01*
X48359580Y-1464285D02*
X48264342Y-1416666D01*
X48264342Y-1416666D02*
X48026247Y-1416666D01*
X48026247Y-1416666D02*
X47931009Y-1464285D01*
X47931009Y-1464285D02*
X47883390Y-1511904D01*
X47883390Y-1511904D02*
X47835771Y-1607142D01*
X47835771Y-1607142D02*
X47835771Y-1797618D01*
X47835771Y-1797618D02*
X47883390Y-1892856D01*
X47883390Y-1892856D02*
X47931009Y-1940475D01*
X47931009Y-1940475D02*
X48026247Y-1988094D01*
X35666666Y-13624819D02*
X35666666Y-14339104D01*
X35666666Y-14339104D02*
X35619047Y-14481961D01*
X35619047Y-14481961D02*
X35523809Y-14577200D01*
X35523809Y-14577200D02*
X35380952Y-14624819D01*
X35380952Y-14624819D02*
X35285714Y-14624819D01*
X36095238Y-13720057D02*
X36142857Y-13672438D01*
X36142857Y-13672438D02*
X36238095Y-13624819D01*
X36238095Y-13624819D02*
X36476190Y-13624819D01*
X36476190Y-13624819D02*
X36571428Y-13672438D01*
X36571428Y-13672438D02*
X36619047Y-13720057D01*
X36619047Y-13720057D02*
X36666666Y-13815295D01*
X36666666Y-13815295D02*
X36666666Y-13910533D01*
X36666666Y-13910533D02*
X36619047Y-14053390D01*
X36619047Y-14053390D02*
X36047619Y-14624819D01*
X36047619Y-14624819D02*
X36666666Y-14624819D01*
X39407200Y-4083332D02*
X39454819Y-3940475D01*
X39454819Y-3940475D02*
X39454819Y-3702380D01*
X39454819Y-3702380D02*
X39407200Y-3607142D01*
X39407200Y-3607142D02*
X39359580Y-3559523D01*
X39359580Y-3559523D02*
X39264342Y-3511904D01*
X39264342Y-3511904D02*
X39169104Y-3511904D01*
X39169104Y-3511904D02*
X39073866Y-3559523D01*
X39073866Y-3559523D02*
X39026247Y-3607142D01*
X39026247Y-3607142D02*
X38978628Y-3702380D01*
X38978628Y-3702380D02*
X38931009Y-3892856D01*
X38931009Y-3892856D02*
X38883390Y-3988094D01*
X38883390Y-3988094D02*
X38835771Y-4035713D01*
X38835771Y-4035713D02*
X38740533Y-4083332D01*
X38740533Y-4083332D02*
X38645295Y-4083332D01*
X38645295Y-4083332D02*
X38550057Y-4035713D01*
X38550057Y-4035713D02*
X38502438Y-3988094D01*
X38502438Y-3988094D02*
X38454819Y-3892856D01*
X38454819Y-3892856D02*
X38454819Y-3654761D01*
X38454819Y-3654761D02*
X38502438Y-3511904D01*
X38454819Y-3178570D02*
X39454819Y-2940475D01*
X39454819Y-2940475D02*
X38740533Y-2749999D01*
X38740533Y-2749999D02*
X39454819Y-2559523D01*
X39454819Y-2559523D02*
X38454819Y-2321428D01*
X38454819Y-1464285D02*
X38454819Y-1940475D01*
X38454819Y-1940475D02*
X38931009Y-1988094D01*
X38931009Y-1988094D02*
X38883390Y-1940475D01*
X38883390Y-1940475D02*
X38835771Y-1845237D01*
X38835771Y-1845237D02*
X38835771Y-1607142D01*
X38835771Y-1607142D02*
X38883390Y-1511904D01*
X38883390Y-1511904D02*
X38931009Y-1464285D01*
X38931009Y-1464285D02*
X39026247Y-1416666D01*
X39026247Y-1416666D02*
X39264342Y-1416666D01*
X39264342Y-1416666D02*
X39359580Y-1464285D01*
X39359580Y-1464285D02*
X39407200Y-1511904D01*
X39407200Y-1511904D02*
X39454819Y-1607142D01*
X39454819Y-1607142D02*
X39454819Y-1845237D01*
X39454819Y-1845237D02*
X39407200Y-1940475D01*
X39407200Y-1940475D02*
X39359580Y-1988094D01*
X2714286Y-13754819D02*
X2714286Y-12754819D01*
X2714286Y-13231009D02*
X3285714Y-13231009D01*
X3285714Y-13754819D02*
X3285714Y-12754819D01*
X3638332Y-11079819D02*
X3304999Y-10603628D01*
X3066904Y-11079819D02*
X3066904Y-10079819D01*
X3066904Y-10079819D02*
X3447856Y-10079819D01*
X3447856Y-10079819D02*
X3543094Y-10127438D01*
X3543094Y-10127438D02*
X3590713Y-10175057D01*
X3590713Y-10175057D02*
X3638332Y-10270295D01*
X3638332Y-10270295D02*
X3638332Y-10413152D01*
X3638332Y-10413152D02*
X3590713Y-10508390D01*
X3590713Y-10508390D02*
X3543094Y-10556009D01*
X3543094Y-10556009D02*
X3447856Y-10603628D01*
X3447856Y-10603628D02*
X3066904Y-10603628D01*
X4590713Y-11079819D02*
X4019285Y-11079819D01*
X4304999Y-11079819D02*
X4304999Y-10079819D01*
X4304999Y-10079819D02*
X4209761Y-10222676D01*
X4209761Y-10222676D02*
X4114523Y-10317914D01*
X4114523Y-10317914D02*
X4019285Y-10365533D01*
X23638333Y-10984580D02*
X23590714Y-11032200D01*
X23590714Y-11032200D02*
X23447857Y-11079819D01*
X23447857Y-11079819D02*
X23352619Y-11079819D01*
X23352619Y-11079819D02*
X23209762Y-11032200D01*
X23209762Y-11032200D02*
X23114524Y-10936961D01*
X23114524Y-10936961D02*
X23066905Y-10841723D01*
X23066905Y-10841723D02*
X23019286Y-10651247D01*
X23019286Y-10651247D02*
X23019286Y-10508390D01*
X23019286Y-10508390D02*
X23066905Y-10317914D01*
X23066905Y-10317914D02*
X23114524Y-10222676D01*
X23114524Y-10222676D02*
X23209762Y-10127438D01*
X23209762Y-10127438D02*
X23352619Y-10079819D01*
X23352619Y-10079819D02*
X23447857Y-10079819D01*
X23447857Y-10079819D02*
X23590714Y-10127438D01*
X23590714Y-10127438D02*
X23638333Y-10175057D01*
X24019286Y-10175057D02*
X24066905Y-10127438D01*
X24066905Y-10127438D02*
X24162143Y-10079819D01*
X24162143Y-10079819D02*
X24400238Y-10079819D01*
X24400238Y-10079819D02*
X24495476Y-10127438D01*
X24495476Y-10127438D02*
X24543095Y-10175057D01*
X24543095Y-10175057D02*
X24590714Y-10270295D01*
X24590714Y-10270295D02*
X24590714Y-10365533D01*
X24590714Y-10365533D02*
X24543095Y-10508390D01*
X24543095Y-10508390D02*
X23971667Y-11079819D01*
X23971667Y-11079819D02*
X24590714Y-11079819D01*
D11*
G04 #@! TO.C,D1*
X40990000Y-12350000D02*
X40990000Y-15650000D01*
X40990000Y-12350000D02*
X46500000Y-12350000D01*
X40990000Y-15650000D02*
X46500000Y-15650000D01*
G04 #@! TO.C,R2*
X7567742Y-11532500D02*
X8042258Y-11532500D01*
X7567742Y-12577500D02*
X8042258Y-12577500D01*
G04 #@! TO.C,SW4*
X33500000Y-6250000D02*
X35000000Y-6250000D01*
X37500000Y-5000000D02*
X37500000Y-500000D01*
X31000000Y-500000D02*
X31000000Y-5000000D01*
X35000000Y750000D02*
X33500000Y750000D01*
G04 #@! TO.C,R6*
X27567742Y-11532500D02*
X28042258Y-11532500D01*
X27567742Y-12577500D02*
X28042258Y-12577500D01*
G04 #@! TO.C,R4*
X15567742Y-11532500D02*
X16042258Y-11532500D01*
X15567742Y-12577500D02*
X16042258Y-12577500D01*
G04 #@! TO.C,SW3*
X24500000Y-6250000D02*
X26000000Y-6250000D01*
X28500000Y-5000000D02*
X28500000Y-500000D01*
X22000000Y-500000D02*
X22000000Y-5000000D01*
X26000000Y750000D02*
X24500000Y750000D01*
G04 #@! TO.C,SW2*
X15500000Y-6250000D02*
X17000000Y-6250000D01*
X19500000Y-5000000D02*
X19500000Y-500000D01*
X13000000Y-500000D02*
X13000000Y-5000000D01*
X17000000Y750000D02*
X15500000Y750000D01*
G04 #@! TO.C,LED1*
X46850000Y-12250000D02*
X54150000Y-12250000D01*
X46850000Y-17750000D02*
X54150000Y-17750000D01*
X54150000Y-17750000D02*
X54150000Y-16600000D01*
G04 #@! TO.C,J1*
X9640000Y-14390000D02*
X9640000Y-15640000D01*
X9940000Y-14690000D02*
X9940000Y-19410000D01*
X9940000Y-16000000D02*
X10550000Y-16000000D01*
X9940000Y-17300000D02*
X10550000Y-17300000D01*
X9940000Y-19410000D02*
X28060000Y-19410000D01*
X10550000Y-15300000D02*
X10550000Y-18800000D01*
X10550000Y-18800000D02*
X27450000Y-18800000D01*
X10890000Y-14390000D02*
X9640000Y-14390000D01*
X11400000Y-14490000D02*
X11400000Y-14690000D01*
X11700000Y-14490000D02*
X11400000Y-14490000D01*
X11700000Y-14590000D02*
X11400000Y-14590000D01*
X11700000Y-14690000D02*
X11700000Y-14490000D01*
X12500000Y-14690000D02*
X12500000Y-15300000D01*
X12500000Y-15300000D02*
X10550000Y-15300000D01*
X12900000Y-18300000D02*
X13100000Y-18300000D01*
X12900000Y-18800000D02*
X12900000Y-18300000D01*
X13000000Y-18800000D02*
X13000000Y-18300000D01*
X13100000Y-18300000D02*
X13100000Y-18800000D01*
X14900000Y-18300000D02*
X15100000Y-18300000D01*
X14900000Y-18800000D02*
X14900000Y-18300000D01*
X15000000Y-18800000D02*
X15000000Y-18300000D01*
X15100000Y-18300000D02*
X15100000Y-18800000D01*
X16900000Y-18300000D02*
X17100000Y-18300000D01*
X16900000Y-18800000D02*
X16900000Y-18300000D01*
X17000000Y-18800000D02*
X17000000Y-18300000D01*
X17100000Y-18300000D02*
X17100000Y-18800000D01*
X18900000Y-18300000D02*
X19100000Y-18300000D01*
X18900000Y-18800000D02*
X18900000Y-18300000D01*
X19000000Y-18800000D02*
X19000000Y-18300000D01*
X19100000Y-18300000D02*
X19100000Y-18800000D01*
X20900000Y-18300000D02*
X21100000Y-18300000D01*
X20900000Y-18800000D02*
X20900000Y-18300000D01*
X21000000Y-18800000D02*
X21000000Y-18300000D01*
X21100000Y-18300000D02*
X21100000Y-18800000D01*
X22900000Y-18300000D02*
X23100000Y-18300000D01*
X22900000Y-18800000D02*
X22900000Y-18300000D01*
X23000000Y-18800000D02*
X23000000Y-18300000D01*
X23100000Y-18300000D02*
X23100000Y-18800000D01*
X24900000Y-18300000D02*
X25100000Y-18300000D01*
X24900000Y-18800000D02*
X24900000Y-18300000D01*
X25000000Y-18800000D02*
X25000000Y-18300000D01*
X25100000Y-18300000D02*
X25100000Y-18800000D01*
X25500000Y-15300000D02*
X25500000Y-14690000D01*
X27450000Y-15300000D02*
X25500000Y-15300000D01*
X27450000Y-18800000D02*
X27450000Y-15300000D01*
X28060000Y-14690000D02*
X9940000Y-14690000D01*
X28060000Y-16000000D02*
X27450000Y-16000000D01*
X28060000Y-17300000D02*
X27450000Y-17300000D01*
X28060000Y-19410000D02*
X28060000Y-14690000D01*
G04 #@! TO.C,C1*
X43738748Y-16765000D02*
X44261252Y-16765000D01*
X43738748Y-18235000D02*
X44261252Y-18235000D01*
G04 #@! TO.C,R5*
X19567742Y-11532500D02*
X20042258Y-11532500D01*
X19567742Y-12577500D02*
X20042258Y-12577500D01*
G04 #@! TO.C,SW1*
X6500000Y-6250000D02*
X8000000Y-6250000D01*
X10500000Y-5000000D02*
X10500000Y-500000D01*
X4000000Y-500000D02*
X4000000Y-5000000D01*
X8000000Y750000D02*
X6500000Y750000D01*
G04 #@! TO.C,R3*
X11567742Y-11532500D02*
X12042258Y-11532500D01*
X11567742Y-12577500D02*
X12042258Y-12577500D01*
G04 #@! TO.C,SW6*
X51500000Y-6250000D02*
X53000000Y-6250000D01*
X55500000Y-5000000D02*
X55500000Y-500000D01*
X49000000Y-500000D02*
X49000000Y-5000000D01*
X53000000Y750000D02*
X51500000Y750000D01*
G04 #@! TO.C,J2*
X34670000Y-15170000D02*
X36000000Y-15170000D01*
X34670000Y-16500000D02*
X34670000Y-15170000D01*
X34670000Y-17770000D02*
X34670000Y-25450000D01*
X34670000Y-17770000D02*
X37330000Y-17770000D01*
X34670000Y-25450000D02*
X37330000Y-25450000D01*
X37330000Y-17770000D02*
X37330000Y-25450000D01*
G04 #@! TO.C,SW5*
X42500000Y-6250000D02*
X44000000Y-6250000D01*
X46500000Y-5000000D02*
X46500000Y-500000D01*
X40000000Y-500000D02*
X40000000Y-5000000D01*
X44000000Y750000D02*
X42500000Y750000D01*
G04 #@! TO.C,R1*
X3567741Y-11532500D02*
X4042257Y-11532500D01*
X3567741Y-12577500D02*
X4042257Y-12577500D01*
G04 #@! TO.C,C2*
X23664420Y-11545000D02*
X23945580Y-11545000D01*
X23664420Y-12565000D02*
X23945580Y-12565000D01*
G04 #@! TD*
M02*
