G04 #@! TF.GenerationSoftware,KiCad,Pcbnew,7.0.11+dfsg-1build4*
G04 #@! TF.CreationDate,2026-07-05T18:44:44+00:00*
G04 #@! TF.ProjectId,button-board,62757474-6f6e-42d6-926f-6172642e6b69,rev?*
G04 #@! TF.SameCoordinates,Original*
G04 #@! TF.FileFunction,Soldermask,Top*
G04 #@! TF.FilePolarity,Negative*
%FSLAX46Y46*%
G04 Gerber Fmt 4.6, Leading zero omitted, Abs format (unit mm)*
G04 Created by KiCad (PCBNEW 7.0.11+dfsg-1build4) date 2026-07-05 18:44:44*
%MOMM*%
%LPD*%
G01*
G04 APERTURE LIST*
G04 Aperture macros list*
%AMRoundRect*
0 Rectangle with rounded corners*
0 $1 Rounding radius*
0 $2 $3 $4 $5 $6 $7 $8 $9 X,Y pos of 4 corners*
0 Add a 4 corners polygon primitive as box body*
4,1,4,$2,$3,$4,$5,$6,$7,$8,$9,$2,$3,0*
0 Add four circle primitives for the rounded corners*
1,1,$1+$1,$2,$3*
1,1,$1+$1,$4,$5*
1,1,$1+$1,$6,$7*
1,1,$1+$1,$8,$9*
0 Add four rect primitives between the rounded corners*
20,1,$1+$1,$2,$3,$4,$5,0*
20,1,$1+$1,$4,$5,$6,$7,0*
20,1,$1+$1,$6,$7,$8,$9,0*
20,1,$1+$1,$8,$9,$2,$3,0*%
G04 Aperture macros list end*
%ADD10RoundRect,0.250000X-1.000000X-0.650000X1.000000X-0.650000X1.000000X0.650000X-1.000000X0.650000X0*%
%ADD11RoundRect,0.200000X-0.200000X-0.275000X0.200000X-0.275000X0.200000X0.275000X-0.200000X0.275000X0*%
%ADD12C,2.000000*%
%ADD13R,1.500000X0.900000*%
%ADD14RoundRect,0.250000X-0.350000X-0.625000X0.350000X-0.625000X0.350000X0.625000X-0.350000X0.625000X0*%
%ADD15O,1.200000X1.750000*%
%ADD16RoundRect,0.250000X-0.250000X-0.475000X0.250000X-0.475000X0.250000X0.475000X-0.250000X0.475000X0*%
%ADD17C,3.200000*%
%ADD18R,1.700000X1.700000*%
%ADD19O,1.700000X1.700000*%
%ADD20RoundRect,0.225000X-0.225000X-0.250000X0.225000X-0.250000X0.225000X0.250000X-0.225000X0.250000X0*%
G04 APERTURE END LIST*
D10*
G04 #@! TO.C,D1*
X42500000Y-14000000D03*
X46500000Y-14000000D03*
G04 #@! TD*
D11*
G04 #@! TO.C,R2*
X6980000Y-12055000D03*
X8630000Y-12055000D03*
G04 #@! TD*
D12*
G04 #@! TO.C,SW4*
X32000000Y-6000000D03*
X32000000Y500000D03*
X36500000Y-6000000D03*
X36500000Y500000D03*
G04 #@! TD*
D11*
G04 #@! TO.C,R6*
X26980000Y-12055000D03*
X28630000Y-12055000D03*
G04 #@! TD*
G04 #@! TO.C,R4*
X14980000Y-12055000D03*
X16630000Y-12055000D03*
G04 #@! TD*
D12*
G04 #@! TO.C,SW3*
X23000000Y-6000000D03*
X23000000Y500000D03*
X27500000Y-6000000D03*
X27500000Y500000D03*
G04 #@! TD*
G04 #@! TO.C,SW2*
X14000000Y-6000000D03*
X14000000Y500000D03*
X18500000Y-6000000D03*
X18500000Y500000D03*
G04 #@! TD*
D13*
G04 #@! TO.C,LED1*
X48050000Y-13350000D03*
X48050000Y-16650000D03*
X52950000Y-16650000D03*
X52950000Y-13350000D03*
G04 #@! TD*
D14*
G04 #@! TO.C,J1*
X12000000Y-16500000D03*
D15*
X14000000Y-16500000D03*
X16000000Y-16500000D03*
X18000000Y-16500000D03*
X20000000Y-16500000D03*
X22000000Y-16500000D03*
X24000000Y-16500000D03*
X26000000Y-16500000D03*
G04 #@! TD*
D16*
G04 #@! TO.C,C1*
X43050000Y-17500000D03*
X44950000Y-17500000D03*
G04 #@! TD*
D11*
G04 #@! TO.C,R5*
X18980000Y-12055000D03*
X20630000Y-12055000D03*
G04 #@! TD*
D12*
G04 #@! TO.C,SW1*
X5000000Y-6000000D03*
X5000000Y500000D03*
X9500000Y-6000000D03*
X9500000Y500000D03*
G04 #@! TD*
D11*
G04 #@! TO.C,R3*
X10980000Y-12055000D03*
X12630000Y-12055000D03*
G04 #@! TD*
D17*
G04 #@! TO.C,H*
X57500000Y-17500000D03*
G04 #@! TD*
D12*
G04 #@! TO.C,SW6*
X50000000Y-6000000D03*
X50000000Y500000D03*
X54500000Y-6000000D03*
X54500000Y500000D03*
G04 #@! TD*
D18*
G04 #@! TO.C,J2*
X36000000Y-16500000D03*
D19*
X36000000Y-19040000D03*
X36000000Y-21580000D03*
X36000000Y-24120000D03*
G04 #@! TD*
D12*
G04 #@! TO.C,SW5*
X41000000Y-6000000D03*
X41000000Y500000D03*
X45500000Y-6000000D03*
X45500000Y500000D03*
G04 #@! TD*
D17*
G04 #@! TO.C,H*
X3000000Y-17500000D03*
G04 #@! TD*
D11*
G04 #@! TO.C,R1*
X2979999Y-12055000D03*
X4629999Y-12055000D03*
G04 #@! TD*
D20*
G04 #@! TO.C,C2*
X23030000Y-12055000D03*
X24580000Y-12055000D03*
G04 #@! TD*
M02*
