G04 #@! TF.GenerationSoftware,KiCad,Pcbnew,7.0.11+dfsg-1build4*
G04 #@! TF.CreationDate,2026-07-08T08:35:00+00:00*
G04 #@! TF.ProjectId,button-board,62757474-6f6e-42d6-926f-6172642e6b69,rev?*
G04 #@! TF.SameCoordinates,Original*
G04 #@! TF.FileFunction,Copper,L1,Top*
G04 #@! TF.FilePolarity,Positive*
%FSLAX46Y46*%
G04 Gerber Fmt 4.6, Leading zero omitted, Abs format (unit mm)*
G04 Created by KiCad (PCBNEW 7.0.11+dfsg-1build4) date 2026-07-08 08:35:00*
%MOMM*%
%LPD*%
G01*
G04 APERTURE LIST*
G04 Aperture macros list*
%AMRoundRect*
0 Rectangle with rounded corners*
0 $1 Rounding radius*
0 $2 $3 $4 $5 $6 $7 $8 $9 X,Y pos of 4 corners*
0 Add a 4 corners polygon primitive as box body*
4,1,4,$2,$3,$4,$5,$6,$7,$8,$9,$2,$3,0*
0 Add four circle primitives for the rounded corners*
1,1,$1+$1,$2,$3*
1,1,$1+$1,$4,$5*
1,1,$1+$1,$6,$7*
1,1,$1+$1,$8,$9*
0 Add four rect primitives between the rounded corners*
20,1,$1+$1,$2,$3,$4,$5,0*
20,1,$1+$1,$4,$5,$6,$7,0*
20,1,$1+$1,$6,$7,$8,$9,0*
20,1,$1+$1,$8,$9,$2,$3,0*%
G04 Aperture macros list end*
G04 #@! TA.AperFunction,ComponentPad*
%ADD10C,2.000000*%
G04 #@! TD*
G04 #@! TA.AperFunction,ComponentPad*
%ADD11R,1.700000X1.700000*%
G04 #@! TD*
G04 #@! TA.AperFunction,ComponentPad*
%ADD12O,1.700000X1.700000*%
G04 #@! TD*
G04 #@! TA.AperFunction,SMDPad,CuDef*
%ADD13RoundRect,0.250000X-1.000000X-0.650000X1.000000X-0.650000X1.000000X0.650000X-1.000000X0.650000X0*%
G04 #@! TD*
G04 #@! TA.AperFunction,SMDPad,CuDef*
%ADD14RoundRect,0.200000X0.275000X-0.200000X0.275000X0.200000X-0.275000X0.200000X-0.275000X-0.200000X0*%
G04 #@! TD*
G04 #@! TA.AperFunction,SMDPad,CuDef*
%ADD15RoundRect,0.200000X-0.200000X-0.275000X0.200000X-0.275000X0.200000X0.275000X-0.200000X0.275000X0*%
G04 #@! TD*
G04 #@! TA.AperFunction,SMDPad,CuDef*
%ADD16RoundRect,0.225000X0.250000X-0.225000X0.250000X0.225000X-0.250000X0.225000X-0.250000X-0.225000X0*%
G04 #@! TD*
G04 #@! TA.AperFunction,SMDPad,CuDef*
%ADD17R,1.500000X0.900000*%
G04 #@! TD*
G04 #@! TA.AperFunction,SMDPad,CuDef*
%ADD18RoundRect,0.250000X-0.250000X-0.475000X0.250000X-0.475000X0.250000X0.475000X-0.250000X0.475000X0*%
G04 #@! TD*
G04 #@! TA.AperFunction,ComponentPad*
%ADD19RoundRect,0.250000X-0.350000X-0.625000X0.350000X-0.625000X0.350000X0.625000X-0.350000X0.625000X0*%
G04 #@! TD*
G04 #@! TA.AperFunction,ComponentPad*
%ADD20O,1.200000X1.750000*%
G04 #@! TD*
G04 #@! TA.AperFunction,ViaPad*
%ADD21C,0.700000*%
G04 #@! TD*
G04 #@! TA.AperFunction,Conductor*
%ADD22C,0.300000*%
G04 #@! TD*
G04 #@! TA.AperFunction,Conductor*
%ADD23C,0.500000*%
G04 #@! TD*
G04 #@! TA.AperFunction,Conductor*
%ADD24C,0.400000*%
G04 #@! TD*
G04 APERTURE END LIST*
D10*
G04 #@! TO.P,SW4,1*
G04 #@! TO.N,LAD2*
X32000000Y-9500000D03*
X32000000Y-3000000D03*
G04 #@! TO.P,SW4,2*
X36500000Y-9500000D03*
X36500000Y-3000000D03*
G04 #@! TD*
G04 #@! TO.P,SW2,1*
G04 #@! TO.N,LAD0*
X14000000Y-9500000D03*
X14000000Y-3000000D03*
G04 #@! TO.P,SW2,2*
X18500000Y-9500000D03*
X18500000Y-3000000D03*
G04 #@! TD*
D11*
G04 #@! TO.P,J2,1*
G04 #@! TO.N,GND*
X36600000Y-17500000D03*
D12*
G04 #@! TO.P,J2,2*
G04 #@! TO.N,3V3*
X34060000Y-17500000D03*
G04 #@! TO.P,J2,3*
G04 #@! TO.N,SCL*
X31520000Y-17500000D03*
G04 #@! TO.P,J2,4*
G04 #@! TO.N,SDA*
X28980000Y-17500000D03*
G04 #@! TD*
D13*
G04 #@! TO.P,D1,1*
G04 #@! TO.N,LED_VDD*
X40000000Y-17000000D03*
G04 #@! TO.P,D1,2*
G04 #@! TO.N,5V*
X44000000Y-17000000D03*
G04 #@! TD*
D14*
G04 #@! TO.P,R1,1*
G04 #@! TO.N,BTN_ADC*
X7250000Y-13525000D03*
G04 #@! TO.P,R1,2*
G04 #@! TO.N,LAD0*
X7250000Y-11875000D03*
G04 #@! TD*
D15*
G04 #@! TO.P,R6,1*
G04 #@! TO.N,LED_DATA*
X46175000Y-18700000D03*
G04 #@! TO.P,R6,2*
G04 #@! TO.N,LED_DIN*
X47825000Y-18700000D03*
G04 #@! TD*
D14*
G04 #@! TO.P,R3,1*
G04 #@! TO.N,BTN_ADC*
X25250000Y-13525000D03*
G04 #@! TO.P,R3,2*
G04 #@! TO.N,LAD2*
X25250000Y-11875000D03*
G04 #@! TD*
G04 #@! TO.P,R2,1*
G04 #@! TO.N,BTN_ADC*
X16250000Y-13525000D03*
G04 #@! TO.P,R2,2*
G04 #@! TO.N,LAD1*
X16250000Y-11875000D03*
G04 #@! TD*
D16*
G04 #@! TO.P,C2,1*
G04 #@! TO.N,LED_VDD*
X46200000Y-13375000D03*
G04 #@! TO.P,C2,2*
G04 #@! TO.N,GND*
X46200000Y-11825000D03*
G04 #@! TD*
D17*
G04 #@! TO.P,LED1,1*
G04 #@! TO.N,LED_VDD*
X48550000Y-12350000D03*
G04 #@! TO.P,LED1,2*
G04 #@! TO.N,N/C*
X48550000Y-15650000D03*
G04 #@! TO.P,LED1,3*
G04 #@! TO.N,GND*
X53450000Y-15650000D03*
G04 #@! TO.P,LED1,4*
G04 #@! TO.N,LED_DIN*
X53450000Y-12350000D03*
G04 #@! TD*
D10*
G04 #@! TO.P,SW1,1*
G04 #@! TO.N,BTN_PWR*
X5000000Y-9500000D03*
X5000000Y-3000000D03*
G04 #@! TO.P,SW1,2*
X9500000Y-9500000D03*
X9500000Y-3000000D03*
G04 #@! TD*
G04 #@! TO.P,SW6,1*
G04 #@! TO.N,LAD4*
X50000000Y-9500000D03*
X50000000Y-3000000D03*
G04 #@! TO.P,SW6,2*
X54500000Y-9500000D03*
X54500000Y-3000000D03*
G04 #@! TD*
D18*
G04 #@! TO.P,C1,1*
G04 #@! TO.N,LED_VDD*
X50050000Y-18600000D03*
G04 #@! TO.P,C1,2*
G04 #@! TO.N,GND*
X51950000Y-18600000D03*
G04 #@! TD*
D14*
G04 #@! TO.P,R4,1*
G04 #@! TO.N,BTN_ADC*
X34250000Y-13525000D03*
G04 #@! TO.P,R4,2*
G04 #@! TO.N,LAD3*
X34250000Y-11875000D03*
G04 #@! TD*
G04 #@! TO.P,R5,1*
G04 #@! TO.N,BTN_ADC*
X43250000Y-13525000D03*
G04 #@! TO.P,R5,2*
G04 #@! TO.N,LAD4*
X43250000Y-11875000D03*
G04 #@! TD*
D10*
G04 #@! TO.P,SW5,1*
G04 #@! TO.N,LAD3*
X41000000Y-9500000D03*
X41000000Y-3000000D03*
G04 #@! TO.P,SW5,2*
X45500000Y-9500000D03*
X45500000Y-3000000D03*
G04 #@! TD*
D19*
G04 #@! TO.P,J1,1*
G04 #@! TO.N,5V*
X10000000Y-16500000D03*
D20*
G04 #@! TO.P,J1,2*
G04 #@! TO.N,GND*
X12000000Y-16500000D03*
G04 #@! TO.P,J1,3*
G04 #@! TO.N,3V3*
X14000000Y-16500000D03*
G04 #@! TO.P,J1,4*
G04 #@! TO.N,SDA*
X16000000Y-16500000D03*
G04 #@! TO.P,J1,5*
G04 #@! TO.N,SCL*
X18000000Y-16500000D03*
G04 #@! TO.P,J1,6*
G04 #@! TO.N,LED_DATA*
X20000000Y-16500000D03*
G04 #@! TO.P,J1,7*
G04 #@! TO.N,BTN_ADC*
X22000000Y-16500000D03*
G04 #@! TO.P,J1,8*
G04 #@! TO.N,BTN_PWR*
X24000000Y-16500000D03*
G04 #@! TD*
D10*
G04 #@! TO.P,SW3,1*
G04 #@! TO.N,LAD1*
X23000000Y-9500000D03*
X23000000Y-3000000D03*
G04 #@! TO.P,SW3,2*
X27500000Y-9500000D03*
X27500000Y-3000000D03*
G04 #@! TD*
D21*
G04 #@! TO.N,LAD4*
X44675000Y-11925000D03*
G04 #@! TO.N,GND*
X6925000Y-6925000D03*
X56925000Y-11925000D03*
X54450000Y-15650000D03*
X51925000Y-18675000D03*
X11925000Y-6925000D03*
X52675000Y-14925000D03*
X43175000Y-8425000D03*
X51925000Y-6925000D03*
X11925000Y-11925000D03*
X31925000Y-11925000D03*
X39175000Y-14425000D03*
X21925000Y-6925000D03*
X56925000Y-6925000D03*
X52950000Y-18600000D03*
X36925000Y-6925000D03*
X16925000Y-6925000D03*
X1925000Y-1925000D03*
X11925000Y-1925000D03*
X6925000Y-16925000D03*
X1925000Y-11925000D03*
X26925000Y-6925000D03*
X41925000Y-6925000D03*
X40925000Y-15175000D03*
X46925000Y-6925000D03*
X1925000Y-6925000D03*
X46925000Y-16925000D03*
X51925000Y-1925000D03*
X56925000Y-1925000D03*
X6925000Y-1925000D03*
G04 #@! TO.N,LED_DIN*
X51425000Y-14425000D03*
X47925000Y-18675000D03*
G04 #@! TO.N,5V*
X42175000Y-16925000D03*
G04 #@! TO.N,LED_DATA*
X13925000Y-14425000D03*
X41675000Y-18675000D03*
G04 #@! TD*
D22*
G04 #@! TO.N,BTN_PWR*
X9425000Y-9425000D02*
X4925000Y-9425000D01*
X9425000Y-2925000D02*
X4925000Y-2925000D01*
G04 #@! TO.N,LAD0*
X7925000Y-11175000D02*
X10925000Y-11175000D01*
X10925000Y-11175000D02*
X12675000Y-9425000D01*
X7175000Y-11925000D02*
X7925000Y-11175000D01*
X18425000Y-9425000D02*
X13925000Y-9425000D01*
X18425000Y-2925000D02*
X13925000Y-2925000D01*
X12675000Y-9425000D02*
X13925000Y-9425000D01*
G04 #@! TO.N,LAD1*
X27425000Y-2925000D02*
X22925000Y-2925000D01*
X27425000Y-9425000D02*
X22925000Y-9425000D01*
X22925000Y-9425000D02*
X20425000Y-11925000D01*
X20425000Y-11925000D02*
X16175000Y-11925000D01*
G04 #@! TO.N,LAD2*
X36425000Y-2925000D02*
X31925000Y-2925000D01*
X36425000Y-9425000D02*
X31925000Y-9425000D01*
X25925000Y-11175000D02*
X28925000Y-11175000D01*
X28925000Y-11175000D02*
X30675000Y-9425000D01*
X30675000Y-9425000D02*
X31925000Y-9425000D01*
X25175000Y-11925000D02*
X25925000Y-11175000D01*
G04 #@! TO.N,LAD3*
X40925000Y-9425000D02*
X38425000Y-11925000D01*
X45425000Y-9425000D02*
X40925000Y-9425000D01*
X38425000Y-11925000D02*
X34175000Y-11925000D01*
X45425000Y-2925000D02*
X40925000Y-2925000D01*
G04 #@! TO.N,LAD4*
X54425000Y-9425000D02*
X49925000Y-9425000D01*
X43175000Y-11925000D02*
X44675000Y-11925000D01*
X54425000Y-2925000D02*
X49925000Y-2925000D01*
G04 #@! TO.N,BTN_ADC*
X21425000Y-15175000D02*
X19675000Y-13425000D01*
X16175000Y-13425000D02*
X7175000Y-13425000D01*
X43175000Y-13425000D02*
X34175000Y-13425000D01*
X22925000Y-14925000D02*
X21925000Y-15925000D01*
X23675000Y-14925000D02*
X22925000Y-14925000D01*
X21425000Y-15925000D02*
X21425000Y-15175000D01*
X34175000Y-13425000D02*
X25175000Y-13425000D01*
X21925000Y-16425000D02*
X21425000Y-15925000D01*
X25175000Y-13425000D02*
X23675000Y-14925000D01*
X21925000Y-15925000D02*
X21925000Y-16425000D01*
X19675000Y-13425000D02*
X16175000Y-13425000D01*
D23*
G04 #@! TO.N,LED_VDD*
X40675000Y-16925000D02*
X39925000Y-16925000D01*
X42175000Y-15425000D02*
X40675000Y-16925000D01*
X48425000Y-12425000D02*
X47425000Y-13425000D01*
X44175000Y-15425000D02*
X42175000Y-15425000D01*
X49925000Y-18675000D02*
X49925000Y-16925000D01*
X49925000Y-16925000D02*
X50175000Y-16675000D01*
X50175000Y-14675000D02*
X48425000Y-12925000D01*
X50175000Y-16675000D02*
X50175000Y-14675000D01*
X47425000Y-13425000D02*
X46175000Y-13425000D01*
X48425000Y-12925000D02*
X48425000Y-12425000D01*
X46175000Y-13425000D02*
X44175000Y-15425000D01*
D24*
G04 #@! TO.N,GND*
X46925000Y-7675000D02*
X43925000Y-7675000D01*
X36675000Y-16925000D02*
X36675000Y-17425000D01*
X38175000Y-15425000D02*
X36675000Y-16925000D01*
X43925000Y-7675000D02*
X43175000Y-8425000D01*
X40675000Y-15425000D02*
X38175000Y-15425000D01*
X40925000Y-15175000D02*
X40675000Y-15425000D01*
X39175000Y-14425000D02*
X36675000Y-16925000D01*
X53425000Y-15675000D02*
X52675000Y-14925000D01*
X46175000Y-11925000D02*
X47175000Y-10925000D01*
X36675000Y-16925000D02*
X36675000Y-17425000D01*
X36675000Y-16925000D02*
X36675000Y-17425000D01*
X47175000Y-10925000D02*
X47175000Y-7925000D01*
X38175000Y-15425000D02*
X36675000Y-16925000D01*
X40925000Y-15175000D02*
X40675000Y-15425000D01*
X40675000Y-15425000D02*
X38175000Y-15425000D01*
X47175000Y-7925000D02*
X46925000Y-7675000D01*
D22*
G04 #@! TO.N,LED_DIN*
X53425000Y-12425000D02*
X51425000Y-14425000D01*
D23*
G04 #@! TO.N,5V*
X42175000Y-16925000D02*
X43925000Y-16925000D01*
D22*
G04 #@! TO.N,LED_DATA*
X41675000Y-18675000D02*
X46175000Y-18675000D01*
X14425000Y-14925000D02*
X13925000Y-14425000D01*
X19925000Y-16425000D02*
X19925000Y-15675000D01*
X19925000Y-15675000D02*
X19175000Y-14925000D01*
X19175000Y-14925000D02*
X14425000Y-14925000D01*
G04 #@! TO.N,SDA*
X25175000Y-18175000D02*
X25925000Y-17425000D01*
X16925000Y-18175000D02*
X25175000Y-18175000D01*
X16675000Y-17175000D02*
X16675000Y-17925000D01*
X16675000Y-17925000D02*
X16925000Y-18175000D01*
X25925000Y-17425000D02*
X28925000Y-17425000D01*
X15925000Y-16425000D02*
X16675000Y-17175000D01*
G04 #@! TD*
G04 #@! TA.AperFunction,Conductor*
G04 #@! TO.N,GND*
G36*
X59442539Y-520185D02*
G01*
X59488294Y-572989D01*
X59499500Y-624500D01*
X59499500Y-13410191D01*
X59479815Y-13477230D01*
X59427011Y-13522985D01*
X59357853Y-13532929D01*
X59307081Y-13513607D01*
X59108092Y-13381957D01*
X59030563Y-13345613D01*
X58862824Y-13266980D01*
X58862819Y-13266978D01*
X58862814Y-13266976D01*
X58603442Y-13188942D01*
X58603428Y-13188939D01*
X58487791Y-13171921D01*
X58335439Y-13149500D01*
X58132369Y-13149500D01*
X58132351Y-13149500D01*
X57929844Y-13164323D01*
X57929831Y-13164325D01*
X57665453Y-13223217D01*
X57665446Y-13223220D01*
X57412439Y-13319987D01*
X57176226Y-13452557D01*
X56961822Y-13618112D01*
X56773822Y-13813109D01*
X56773816Y-13813116D01*
X56616202Y-14033419D01*
X56616199Y-14033424D01*
X56492350Y-14274309D01*
X56492343Y-14274327D01*
X56404884Y-14530685D01*
X56404881Y-14530699D01*
X56355681Y-14797068D01*
X56355680Y-14797075D01*
X56345787Y-15067763D01*
X56375413Y-15337013D01*
X56375415Y-15337024D01*
X56442675Y-15594297D01*
X56443928Y-15599088D01*
X56549870Y-15848390D01*
X56689791Y-16077658D01*
X56690979Y-16079605D01*
X56690986Y-16079615D01*
X56864253Y-16287819D01*
X56864259Y-16287824D01*
X56933094Y-16349500D01*
X57065998Y-16468582D01*
X57291910Y-16618044D01*
X57537176Y-16733020D01*
X57537183Y-16733022D01*
X57537185Y-16733023D01*
X57796557Y-16811057D01*
X57796564Y-16811058D01*
X57796569Y-16811060D01*
X58064561Y-16850500D01*
X58064566Y-16850500D01*
X58267629Y-16850500D01*
X58267631Y-16850500D01*
X58267636Y-16850499D01*
X58267648Y-16850499D01*
X58305191Y-16847750D01*
X58470156Y-16835677D01*
X58582758Y-16810593D01*
X58734546Y-16776782D01*
X58734548Y-16776781D01*
X58734553Y-16776780D01*
X58987558Y-16680014D01*
X59223777Y-16547441D01*
X59299717Y-16488801D01*
X59364807Y-16463411D01*
X59433294Y-16477241D01*
X59483432Y-16525903D01*
X59499500Y-16586949D01*
X59499500Y-19375500D01*
X59479815Y-19442539D01*
X59427011Y-19488294D01*
X59375500Y-19499500D01*
X50906551Y-19499500D01*
X50839512Y-19479815D01*
X50793757Y-19427011D01*
X50783813Y-19357853D01*
X50791196Y-19330010D01*
X50812187Y-19276780D01*
X50839877Y-19206564D01*
X50850500Y-19118102D01*
X50850500Y-18081898D01*
X50839877Y-17993436D01*
X50784361Y-17852658D01*
X50784360Y-17852657D01*
X50784360Y-17852656D01*
X50692922Y-17732077D01*
X50572343Y-17640639D01*
X50560944Y-17636144D01*
X50554009Y-17633409D01*
X50498866Y-17590504D01*
X50475673Y-17524596D01*
X50475500Y-17518055D01*
X50475500Y-17204386D01*
X50495185Y-17137347D01*
X50511818Y-17116706D01*
X50556117Y-17072406D01*
X50559130Y-17069493D01*
X50606044Y-17025680D01*
X50627391Y-16990572D01*
X50634539Y-16980072D01*
X50639357Y-16973720D01*
X50659361Y-16947342D01*
X50665945Y-16930643D01*
X50675344Y-16911719D01*
X50684672Y-16896382D01*
X50695758Y-16856813D01*
X50699802Y-16844787D01*
X50703395Y-16835677D01*
X50714876Y-16806565D01*
X50716710Y-16788715D01*
X50720659Y-16767941D01*
X50725500Y-16750666D01*
X50725500Y-16709574D01*
X50726150Y-16696894D01*
X50727885Y-16680014D01*
X50730351Y-16656029D01*
X50727303Y-16638348D01*
X50725500Y-16617281D01*
X50725500Y-14949873D01*
X50745185Y-14882834D01*
X50797989Y-14837079D01*
X50867147Y-14827135D01*
X50930703Y-14856160D01*
X50931727Y-14857058D01*
X50934516Y-14859529D01*
X50934517Y-14859530D01*
X51034148Y-14947794D01*
X51052759Y-14964282D01*
X51052761Y-14964284D01*
X51192634Y-15037696D01*
X51346014Y-15075500D01*
X51346015Y-15075500D01*
X51503985Y-15075500D01*
X51657365Y-15037696D01*
X51667166Y-15032552D01*
X51797240Y-14964283D01*
X51915483Y-14859530D01*
X52005220Y-14729523D01*
X52061237Y-14581818D01*
X52077632Y-14446789D01*
X52105254Y-14382612D01*
X52113037Y-14374065D01*
X53350284Y-13136817D01*
X53411607Y-13103333D01*
X53437965Y-13100499D01*
X54244856Y-13100499D01*
X54244864Y-13100499D01*
X54244879Y-13100497D01*
X54244882Y-13100497D01*
X54269987Y-13097586D01*
X54269988Y-13097585D01*
X54269991Y-13097585D01*
X54372765Y-13052206D01*
X54452206Y-12972765D01*
X54497585Y-12869991D01*
X54500500Y-12844865D01*
X54500499Y-11855136D01*
X54500497Y-11855117D01*
X54497586Y-11830012D01*
X54497585Y-11830010D01*
X54497585Y-11830009D01*
X54452206Y-11727235D01*
X54372765Y-11647794D01*
X54325959Y-11627127D01*
X54269992Y-11602415D01*
X54244865Y-11599500D01*
X52655143Y-11599500D01*
X52655117Y-11599502D01*
X52630012Y-11602413D01*
X52630008Y-11602415D01*
X52527235Y-11647793D01*
X52447794Y-11727234D01*
X52402415Y-11830006D01*
X52402415Y-11830008D01*
X52399500Y-11855131D01*
X52399500Y-12762034D01*
X52379815Y-12829073D01*
X52363181Y-12849715D01*
X51474716Y-13738181D01*
X51413393Y-13771666D01*
X51387035Y-13774500D01*
X51346014Y-13774500D01*
X51192634Y-13812303D01*
X51052762Y-13885715D01*
X50934516Y-13990471D01*
X50844781Y-14120474D01*
X50790339Y-14264025D01*
X50748160Y-14319727D01*
X50682563Y-14343784D01*
X50614373Y-14328557D01*
X50578209Y-14298308D01*
X50554278Y-14268892D01*
X50539612Y-14258539D01*
X50523445Y-14244920D01*
X49489429Y-13210904D01*
X49455944Y-13149581D01*
X49460928Y-13079889D01*
X49489429Y-13035542D01*
X49510443Y-13014528D01*
X49552206Y-12972765D01*
X49597585Y-12869991D01*
X49600500Y-12844865D01*
X49600499Y-11855136D01*
X49600497Y-11855117D01*
X49597586Y-11830012D01*
X49597585Y-11830010D01*
X49597585Y-11830009D01*
X49552206Y-11727235D01*
X49472765Y-11647794D01*
X49425959Y-11627127D01*
X49369992Y-11602415D01*
X49344865Y-11599500D01*
X47755143Y-11599500D01*
X47755117Y-11599502D01*
X47730012Y-11602413D01*
X47730008Y-11602415D01*
X47627235Y-11647793D01*
X47547794Y-11727234D01*
X47502415Y-11830006D01*
X47502415Y-11830008D01*
X47499500Y-11855131D01*
X47499500Y-12520612D01*
X47479815Y-12587651D01*
X47463181Y-12608293D01*
X47233294Y-12838181D01*
X47171971Y-12871666D01*
X47145613Y-12874500D01*
X46962181Y-12874500D01*
X46895142Y-12854815D01*
X46863378Y-12825426D01*
X46825079Y-12774922D01*
X46709976Y-12687636D01*
X46575588Y-12634640D01*
X46532242Y-12629435D01*
X46491144Y-12624500D01*
X45908856Y-12624500D01*
X45870841Y-12629065D01*
X45824411Y-12634640D01*
X45690023Y-12687636D01*
X45574921Y-12774921D01*
X45487636Y-12890023D01*
X45434640Y-13024411D01*
X45430665Y-13057519D01*
X45424500Y-13108856D01*
X45424500Y-13108862D01*
X45424500Y-13345613D01*
X45404815Y-13412652D01*
X45388181Y-13433294D01*
X43983294Y-14838181D01*
X43921971Y-14871666D01*
X43895613Y-14874500D01*
X42186522Y-14874500D01*
X42182290Y-14874428D01*
X42167570Y-14873925D01*
X42118174Y-14872238D01*
X42118173Y-14872238D01*
X42118171Y-14872238D01*
X42078255Y-14881965D01*
X42065784Y-14884335D01*
X42025079Y-14889930D01*
X42008616Y-14897081D01*
X41988575Y-14903820D01*
X41971150Y-14908066D01*
X41971145Y-14908068D01*
X41935334Y-14928203D01*
X41923970Y-14933847D01*
X41886278Y-14950220D01*
X41872357Y-14961546D01*
X41854883Y-14973438D01*
X41839244Y-14982231D01*
X41839240Y-14982235D01*
X41810186Y-15011287D01*
X41800767Y-15019788D01*
X41768892Y-15045722D01*
X41758541Y-15060385D01*
X41744920Y-15076554D01*
X41058294Y-15763181D01*
X40996971Y-15796666D01*
X40970613Y-15799500D01*
X38956898Y-15799500D01*
X38917853Y-15804188D01*
X38868438Y-15810122D01*
X38727656Y-15865639D01*
X38607077Y-15957077D01*
X38515639Y-16077656D01*
X38460122Y-16218438D01*
X38457941Y-16236603D01*
X38449500Y-16306898D01*
X38449500Y-17693102D01*
X38454332Y-17733338D01*
X38460122Y-17781561D01*
X38460122Y-17781563D01*
X38460123Y-17781564D01*
X38467196Y-17799500D01*
X38515639Y-17922343D01*
X38607077Y-18042922D01*
X38727656Y-18134360D01*
X38727657Y-18134360D01*
X38727658Y-18134361D01*
X38868436Y-18189877D01*
X38956898Y-18200500D01*
X38956903Y-18200500D01*
X40979599Y-18200500D01*
X41046638Y-18220185D01*
X41092393Y-18272989D01*
X41102337Y-18342147D01*
X41095541Y-18368471D01*
X41038762Y-18518181D01*
X41019722Y-18674999D01*
X41019722Y-18675000D01*
X41038762Y-18831818D01*
X41066441Y-18904800D01*
X41094780Y-18979523D01*
X41184517Y-19109530D01*
X41264076Y-19180012D01*
X41302762Y-19214285D01*
X41400732Y-19265704D01*
X41450945Y-19314289D01*
X41466919Y-19382308D01*
X41443584Y-19448165D01*
X41388347Y-19490952D01*
X41343106Y-19499500D01*
X3623554Y-19499500D01*
X3556515Y-19479815D01*
X3510760Y-19427011D01*
X3500816Y-19357853D01*
X3529841Y-19294297D01*
X3579256Y-19259682D01*
X3787558Y-19180014D01*
X4023777Y-19047441D01*
X4238177Y-18881888D01*
X4426186Y-18686881D01*
X4583799Y-18466579D01*
X4680545Y-18278407D01*
X4707649Y-18225690D01*
X4707651Y-18225684D01*
X4707656Y-18225675D01*
X4795118Y-17969305D01*
X4844319Y-17702933D01*
X4854212Y-17432235D01*
X4825149Y-17168102D01*
X9099500Y-17168102D01*
X9103367Y-17200300D01*
X9110122Y-17256561D01*
X9165639Y-17397343D01*
X9257077Y-17517922D01*
X9377656Y-17609360D01*
X9377657Y-17609360D01*
X9377658Y-17609361D01*
X9518436Y-17664877D01*
X9606898Y-17675500D01*
X9606903Y-17675500D01*
X10393097Y-17675500D01*
X10393102Y-17675500D01*
X10481564Y-17664877D01*
X10622342Y-17609361D01*
X10742922Y-17517922D01*
X10834361Y-17397342D01*
X10889877Y-17256564D01*
X10900500Y-17168102D01*
X10900500Y-15831898D01*
X10889877Y-15743436D01*
X10834361Y-15602658D01*
X10834360Y-15602657D01*
X10834360Y-15602656D01*
X10742922Y-15482077D01*
X10622343Y-15390639D01*
X10494111Y-15340071D01*
X10481564Y-15335123D01*
X10481563Y-15335122D01*
X10481561Y-15335122D01*
X10435926Y-15329642D01*
X10393102Y-15324500D01*
X9606898Y-15324500D01*
X9567853Y-15329188D01*
X9518438Y-15335122D01*
X9377656Y-15390639D01*
X9257077Y-15482077D01*
X9165639Y-15602656D01*
X9110122Y-15743438D01*
X9106711Y-15771846D01*
X9099500Y-15831898D01*
X9099500Y-17168102D01*
X4825149Y-17168102D01*
X4824586Y-17162982D01*
X4756072Y-16900912D01*
X4650130Y-16651610D01*
X4509018Y-16420390D01*
X4500183Y-16409773D01*
X4335746Y-16212180D01*
X4335740Y-16212175D01*
X4134002Y-16031418D01*
X3908092Y-15881957D01*
X3908090Y-15881956D01*
X3662824Y-15766980D01*
X3662819Y-15766978D01*
X3662814Y-15766976D01*
X3403442Y-15688942D01*
X3403428Y-15688939D01*
X3287791Y-15671921D01*
X3135439Y-15649500D01*
X2932369Y-15649500D01*
X2932351Y-15649500D01*
X2729844Y-15664323D01*
X2729831Y-15664325D01*
X2465453Y-15723217D01*
X2465446Y-15723220D01*
X2212439Y-15819987D01*
X1976226Y-15952557D01*
X1761822Y-16118112D01*
X1573822Y-16313109D01*
X1573816Y-16313116D01*
X1416202Y-16533419D01*
X1416199Y-16533424D01*
X1292350Y-16774309D01*
X1292343Y-16774327D01*
X1204884Y-17030685D01*
X1204881Y-17030699D01*
X1155681Y-17297068D01*
X1155680Y-17297075D01*
X1145787Y-17567763D01*
X1175413Y-17837013D01*
X1175415Y-17837024D01*
X1243926Y-18099082D01*
X1243928Y-18099088D01*
X1349870Y-18348390D01*
X1489874Y-18577795D01*
X1490979Y-18579605D01*
X1490986Y-18579615D01*
X1664253Y-18787819D01*
X1664259Y-18787824D01*
X1865998Y-18968582D01*
X2091910Y-19118044D01*
X2337176Y-19233020D01*
X2337183Y-19233022D01*
X2337185Y-19233023D01*
X2416075Y-19256758D01*
X2474601Y-19294922D01*
X2503203Y-19358669D01*
X2492801Y-19427760D01*
X2446696Y-19480258D01*
X2380351Y-19499500D01*
X624500Y-19499500D01*
X557461Y-19479815D01*
X511706Y-19427011D01*
X500500Y-19375500D01*
X500500Y-13772870D01*
X6474500Y-13772870D01*
X6474501Y-13772876D01*
X6480908Y-13832483D01*
X6531202Y-13967328D01*
X6531206Y-13967335D01*
X6617452Y-14082544D01*
X6617455Y-14082547D01*
X6732664Y-14168793D01*
X6732671Y-14168797D01*
X6777618Y-14185561D01*
X6867517Y-14219091D01*
X6927127Y-14225500D01*
X7572872Y-14225499D01*
X7632483Y-14219091D01*
X7767331Y-14168796D01*
X7882546Y-14082546D01*
X7968796Y-13967331D01*
X7972960Y-13956165D01*
X8014829Y-13900234D01*
X8080293Y-13875816D01*
X8089141Y-13875500D01*
X13277613Y-13875500D01*
X13344652Y-13895185D01*
X13390407Y-13947989D01*
X13400351Y-14017147D01*
X13379663Y-14069940D01*
X13344781Y-14120475D01*
X13344780Y-14120476D01*
X13288762Y-14268181D01*
X13269722Y-14424999D01*
X13269722Y-14425000D01*
X13288762Y-14581818D01*
X13318386Y-14659928D01*
X13344780Y-14729523D01*
X13434517Y-14859530D01*
X13552760Y-14964283D01*
X13552762Y-14964284D01*
X13692634Y-15037696D01*
X13846014Y-15075500D01*
X13846015Y-15075500D01*
X13887035Y-15075500D01*
X13954074Y-15095185D01*
X13974716Y-15111819D01*
X13976745Y-15113848D01*
X14010230Y-15175171D01*
X14005246Y-15244863D01*
X13963374Y-15300796D01*
X13911300Y-15321218D01*
X13911711Y-15323149D01*
X13905355Y-15324500D01*
X13905354Y-15324500D01*
X13889862Y-15327793D01*
X13720197Y-15363855D01*
X13720192Y-15363857D01*
X13547270Y-15440848D01*
X13547265Y-15440851D01*
X13394129Y-15552111D01*
X13267466Y-15692785D01*
X13172821Y-15856715D01*
X13172818Y-15856722D01*
X13114327Y-16036740D01*
X13114326Y-16036744D01*
X13099500Y-16177808D01*
X13099500Y-16822192D01*
X13114326Y-16963256D01*
X13114327Y-16963259D01*
X13172818Y-17143277D01*
X13172821Y-17143284D01*
X13267467Y-17307216D01*
X13354568Y-17403951D01*
X13394129Y-17447888D01*
X13547265Y-17559148D01*
X13547270Y-17559151D01*
X13720192Y-17636142D01*
X13720197Y-17636144D01*
X13905354Y-17675500D01*
X13905355Y-17675500D01*
X14094644Y-17675500D01*
X14094646Y-17675500D01*
X14279803Y-17636144D01*
X14452730Y-17559151D01*
X14605871Y-17447888D01*
X14732533Y-17307216D01*
X14827179Y-17143284D01*
X14882069Y-16974351D01*
X14921506Y-16916675D01*
X14985865Y-16889477D01*
X15054711Y-16901392D01*
X15106187Y-16948636D01*
X15117931Y-16974351D01*
X15172818Y-17143277D01*
X15172821Y-17143284D01*
X15267467Y-17307216D01*
X15354568Y-17403951D01*
X15394129Y-17447888D01*
X15547265Y-17559148D01*
X15547270Y-17559151D01*
X15720192Y-17636142D01*
X15720197Y-17636144D01*
X15905354Y-17675500D01*
X15905355Y-17675500D01*
X16100500Y-17675500D01*
X16167539Y-17695185D01*
X16213294Y-17747989D01*
X16224500Y-17799500D01*
X16224500Y-17892738D01*
X16223720Y-17906623D01*
X16219729Y-17942036D01*
X16230355Y-17998196D01*
X16231132Y-18002765D01*
X16239652Y-18059291D01*
X16242162Y-18067427D01*
X16244976Y-18075470D01*
X16244976Y-18075471D01*
X16244977Y-18075472D01*
X16262303Y-18108255D01*
X16271688Y-18126011D01*
X16273776Y-18130149D01*
X16298574Y-18181641D01*
X16303362Y-18188665D01*
X16308431Y-18195532D01*
X16308434Y-18195538D01*
X16308438Y-18195542D01*
X16348847Y-18235951D01*
X16352064Y-18239290D01*
X16390947Y-18281196D01*
X16398210Y-18286988D01*
X16397689Y-18287641D01*
X16409930Y-18297034D01*
X16583634Y-18470738D01*
X16592899Y-18481105D01*
X16615121Y-18508970D01*
X16628632Y-18518182D01*
X16662335Y-18541160D01*
X16666117Y-18543843D01*
X16712121Y-18577795D01*
X16719672Y-18581785D01*
X16727322Y-18585468D01*
X16727327Y-18585472D01*
X16781965Y-18602325D01*
X16786353Y-18603769D01*
X16807936Y-18611321D01*
X16840300Y-18622646D01*
X16848688Y-18624232D01*
X16857095Y-18625500D01*
X16857098Y-18625500D01*
X16914261Y-18625500D01*
X16918898Y-18625587D01*
X16976009Y-18627724D01*
X16976009Y-18627723D01*
X16976010Y-18627724D01*
X16976010Y-18627723D01*
X16985243Y-18626684D01*
X16985336Y-18627513D01*
X17000636Y-18625500D01*
X25142738Y-18625500D01*
X25156620Y-18626279D01*
X25160208Y-18626684D01*
X25192033Y-18630270D01*
X25192033Y-18630269D01*
X25192035Y-18630270D01*
X25248236Y-18619635D01*
X25252726Y-18618872D01*
X25309287Y-18610348D01*
X25309291Y-18610345D01*
X25317447Y-18607830D01*
X25325469Y-18605024D01*
X25325470Y-18605023D01*
X25325472Y-18605023D01*
X25376088Y-18578270D01*
X25380093Y-18576248D01*
X25431642Y-18551425D01*
X25431643Y-18551423D01*
X25431645Y-18551423D01*
X25438695Y-18546616D01*
X25445534Y-18541567D01*
X25445538Y-18541566D01*
X25485974Y-18501128D01*
X25489260Y-18497962D01*
X25531194Y-18459055D01*
X25531196Y-18459050D01*
X25536987Y-18451790D01*
X25537643Y-18452313D01*
X25547032Y-18440070D01*
X26075284Y-17911819D01*
X26136607Y-17878334D01*
X26162965Y-17875500D01*
X27804959Y-17875500D01*
X27871998Y-17895185D01*
X27915959Y-17944229D01*
X27997632Y-18108253D01*
X28096588Y-18239290D01*
X28126128Y-18278407D01*
X28283698Y-18422052D01*
X28464981Y-18534298D01*
X28663802Y-18611321D01*
X28873390Y-18650500D01*
X28873392Y-18650500D01*
X29086608Y-18650500D01*
X29086610Y-18650500D01*
X29296198Y-18611321D01*
X29495019Y-18534298D01*
X29676302Y-18422052D01*
X29833872Y-18278407D01*
X29962366Y-18108255D01*
X29982696Y-18067427D01*
X30057403Y-17917394D01*
X30057403Y-17917393D01*
X30057405Y-17917389D01*
X30115756Y-17712310D01*
X30126529Y-17596047D01*
X30152315Y-17531111D01*
X30194622Y-17500804D01*
X30303130Y-17500804D01*
X30339503Y-17521668D01*
X30371693Y-17583681D01*
X30373470Y-17596047D01*
X30384244Y-17712310D01*
X30432768Y-17882853D01*
X30442596Y-17917392D01*
X30442596Y-17917394D01*
X30537632Y-18108253D01*
X30636588Y-18239290D01*
X30666128Y-18278407D01*
X30823698Y-18422052D01*
X31004981Y-18534298D01*
X31203802Y-18611321D01*
X31413390Y-18650500D01*
X31413392Y-18650500D01*
X31626608Y-18650500D01*
X31626610Y-18650500D01*
X31836198Y-18611321D01*
X32035019Y-18534298D01*
X32216302Y-18422052D01*
X32373872Y-18278407D01*
X32502366Y-18108255D01*
X32522696Y-18067427D01*
X32597403Y-17917394D01*
X32597403Y-17917393D01*
X32597405Y-17917389D01*
X32655756Y-17712310D01*
X32666529Y-17596047D01*
X32692315Y-17531111D01*
X32734622Y-17500804D01*
X32843130Y-17500804D01*
X32879503Y-17521668D01*
X32911693Y-17583681D01*
X32913470Y-17596047D01*
X32924244Y-17712310D01*
X32972768Y-17882853D01*
X32982596Y-17917392D01*
X32982596Y-17917394D01*
X33077632Y-18108253D01*
X33176588Y-18239290D01*
X33206128Y-18278407D01*
X33363698Y-18422052D01*
X33544981Y-18534298D01*
X33743802Y-18611321D01*
X33953390Y-18650500D01*
X33953392Y-18650500D01*
X34166608Y-18650500D01*
X34166610Y-18650500D01*
X34376198Y-18611321D01*
X34575019Y-18534298D01*
X34756302Y-18422052D01*
X34913872Y-18278407D01*
X35042366Y-18108255D01*
X35062696Y-18067427D01*
X35137403Y-17917394D01*
X35137403Y-17917393D01*
X35137405Y-17917389D01*
X35195756Y-17712310D01*
X35215429Y-17500000D01*
X35195756Y-17287690D01*
X35137405Y-17082611D01*
X35137403Y-17082606D01*
X35137403Y-17082605D01*
X35042367Y-16891746D01*
X34913872Y-16721593D01*
X34900688Y-16709574D01*
X34756302Y-16577948D01*
X34575019Y-16465702D01*
X34575017Y-16465701D01*
X34475608Y-16427190D01*
X34376198Y-16388679D01*
X34166610Y-16349500D01*
X33953390Y-16349500D01*
X33743802Y-16388679D01*
X33743799Y-16388679D01*
X33743799Y-16388680D01*
X33544982Y-16465701D01*
X33544980Y-16465702D01*
X33363699Y-16577947D01*
X33206127Y-16721593D01*
X33077632Y-16891746D01*
X32982596Y-17082605D01*
X32982596Y-17082607D01*
X32924244Y-17287689D01*
X32913471Y-17403951D01*
X32887685Y-17468888D01*
X32843130Y-17500804D01*
X32734622Y-17500804D01*
X32736869Y-17499194D01*
X32700497Y-17478331D01*
X32668307Y-17416318D01*
X32666529Y-17403951D01*
X32665568Y-17393579D01*
X32655756Y-17287690D01*
X32597405Y-17082611D01*
X32597403Y-17082606D01*
X32597403Y-17082605D01*
X32502367Y-16891746D01*
X32373872Y-16721593D01*
X32360688Y-16709574D01*
X32216302Y-16577948D01*
X32035019Y-16465702D01*
X32035017Y-16465701D01*
X31935608Y-16427190D01*
X31836198Y-16388679D01*
X31626610Y-16349500D01*
X31413390Y-16349500D01*
X31203802Y-16388679D01*
X31203799Y-16388679D01*
X31203799Y-16388680D01*
X31004982Y-16465701D01*
X31004980Y-16465702D01*
X30823699Y-16577947D01*
X30666127Y-16721593D01*
X30537632Y-16891746D01*
X30442596Y-17082605D01*
X30442596Y-17082607D01*
X30384244Y-17287689D01*
X30373471Y-17403951D01*
X30347685Y-17468888D01*
X30303130Y-17500804D01*
X30194622Y-17500804D01*
X30196869Y-17499194D01*
X30160497Y-17478331D01*
X30128307Y-17416318D01*
X30126529Y-17403951D01*
X30125568Y-17393579D01*
X30115756Y-17287690D01*
X30057405Y-17082611D01*
X30057403Y-17082606D01*
X30057403Y-17082605D01*
X29962367Y-16891746D01*
X29833872Y-16721593D01*
X29820688Y-16709574D01*
X29676302Y-16577948D01*
X29495019Y-16465702D01*
X29495017Y-16465701D01*
X29395608Y-16427190D01*
X29296198Y-16388679D01*
X29086610Y-16349500D01*
X28873390Y-16349500D01*
X28663802Y-16388679D01*
X28663799Y-16388679D01*
X28663799Y-16388680D01*
X28464982Y-16465701D01*
X28464980Y-16465702D01*
X28283699Y-16577947D01*
X28126127Y-16721593D01*
X27997636Y-16891741D01*
X27997634Y-16891744D01*
X27997634Y-16891745D01*
X27990649Y-16905771D01*
X27943150Y-16957007D01*
X27879650Y-16974500D01*
X25957262Y-16974500D01*
X25943379Y-16973720D01*
X25938370Y-16973155D01*
X25907963Y-16969729D01*
X25851810Y-16980354D01*
X25847241Y-16981131D01*
X25790715Y-16989651D01*
X25782532Y-16992175D01*
X25774529Y-16994976D01*
X25723985Y-17021689D01*
X25719848Y-17023777D01*
X25668358Y-17048573D01*
X25661338Y-17053359D01*
X25654460Y-17058435D01*
X25614058Y-17098837D01*
X25610722Y-17102051D01*
X25568804Y-17140946D01*
X25563013Y-17148208D01*
X25562362Y-17147688D01*
X25552967Y-17159928D01*
X25024716Y-17688181D01*
X24963393Y-17721666D01*
X24937035Y-17724500D01*
X24606780Y-17724500D01*
X24539741Y-17704815D01*
X24493986Y-17652011D01*
X24484042Y-17582853D01*
X24513067Y-17519297D01*
X24533894Y-17500182D01*
X24605871Y-17447888D01*
X24732533Y-17307216D01*
X24827179Y-17143284D01*
X24885674Y-16963256D01*
X24900500Y-16822192D01*
X24900500Y-16177808D01*
X24885674Y-16036744D01*
X24827179Y-15856716D01*
X24732533Y-15692784D01*
X24605871Y-15552112D01*
X24605870Y-15552111D01*
X24452734Y-15440851D01*
X24452729Y-15440848D01*
X24279807Y-15363857D01*
X24279802Y-15363855D01*
X24167902Y-15340071D01*
X24106420Y-15306879D01*
X24072644Y-15245716D01*
X24077296Y-15176001D01*
X24106000Y-15131102D01*
X24975285Y-14261818D01*
X25036608Y-14228333D01*
X25062966Y-14225499D01*
X25572871Y-14225499D01*
X25572872Y-14225499D01*
X25632483Y-14219091D01*
X25767331Y-14168796D01*
X25882546Y-14082546D01*
X25968796Y-13967331D01*
X25972960Y-13956165D01*
X26014829Y-13900234D01*
X26080293Y-13875816D01*
X26089141Y-13875500D01*
X33410859Y-13875500D01*
X33477898Y-13895185D01*
X33523653Y-13947989D01*
X33527030Y-13956140D01*
X33531204Y-13967331D01*
X33531205Y-13967332D01*
X33531206Y-13967335D01*
X33617452Y-14082544D01*
X33617455Y-14082547D01*
X33732664Y-14168793D01*
X33732671Y-14168797D01*
X33777618Y-14185561D01*
X33867517Y-14219091D01*
X33927127Y-14225500D01*
X34572872Y-14225499D01*
X34632483Y-14219091D01*
X34767331Y-14168796D01*
X34882546Y-14082546D01*
X34968796Y-13967331D01*
X34972960Y-13956165D01*
X35014829Y-13900234D01*
X35080293Y-13875816D01*
X35089141Y-13875500D01*
X42410859Y-13875500D01*
X42477898Y-13895185D01*
X42523653Y-13947989D01*
X42527030Y-13956140D01*
X42531204Y-13967331D01*
X42531205Y-13967332D01*
X42531206Y-13967335D01*
X42617452Y-14082544D01*
X42617455Y-14082547D01*
X42732664Y-14168793D01*
X42732671Y-14168797D01*
X42777618Y-14185561D01*
X42867517Y-14219091D01*
X42927127Y-14225500D01*
X43572872Y-14225499D01*
X43632483Y-14219091D01*
X43767331Y-14168796D01*
X43882546Y-14082546D01*
X43968796Y-13967331D01*
X44019091Y-13832483D01*
X44025500Y-13772873D01*
X44025499Y-13277128D01*
X44019091Y-13217517D01*
X44008433Y-13188942D01*
X43968797Y-13082671D01*
X43968793Y-13082664D01*
X43882547Y-12967455D01*
X43882544Y-12967452D01*
X43767335Y-12881206D01*
X43767328Y-12881202D01*
X43632486Y-12830910D01*
X43632485Y-12830909D01*
X43632483Y-12830909D01*
X43572873Y-12824500D01*
X43572863Y-12824500D01*
X42927129Y-12824500D01*
X42927123Y-12824501D01*
X42867516Y-12830908D01*
X42732671Y-12881202D01*
X42732668Y-12881204D01*
X42641080Y-12949767D01*
X42575615Y-12974184D01*
X42566769Y-12974500D01*
X34933231Y-12974500D01*
X34866192Y-12954815D01*
X34858920Y-12949767D01*
X34767331Y-12881204D01*
X34767328Y-12881202D01*
X34632486Y-12830910D01*
X34632485Y-12830909D01*
X34632483Y-12830909D01*
X34572873Y-12824500D01*
X34572863Y-12824500D01*
X33927129Y-12824500D01*
X33927123Y-12824501D01*
X33867516Y-12830908D01*
X33732671Y-12881202D01*
X33732668Y-12881204D01*
X33641080Y-12949767D01*
X33575615Y-12974184D01*
X33566769Y-12974500D01*
X25933231Y-12974500D01*
X25866192Y-12954815D01*
X25858920Y-12949767D01*
X25767331Y-12881204D01*
X25767328Y-12881202D01*
X25632486Y-12830910D01*
X25632485Y-12830909D01*
X25632483Y-12830909D01*
X25572873Y-12824500D01*
X25572863Y-12824500D01*
X24927129Y-12824500D01*
X24927123Y-12824501D01*
X24867516Y-12830908D01*
X24732671Y-12881202D01*
X24732664Y-12881206D01*
X24617455Y-12967452D01*
X24617452Y-12967455D01*
X24531206Y-13082664D01*
X24531202Y-13082671D01*
X24480908Y-13217517D01*
X24475591Y-13266976D01*
X24474501Y-13277123D01*
X24474500Y-13277135D01*
X24474500Y-13437034D01*
X24454815Y-13504073D01*
X24438181Y-13524715D01*
X23524716Y-14438181D01*
X23463393Y-14471666D01*
X23437035Y-14474500D01*
X22957262Y-14474500D01*
X22943379Y-14473720D01*
X22939371Y-14473268D01*
X22907965Y-14469729D01*
X22851782Y-14480358D01*
X22847218Y-14481133D01*
X22790715Y-14489651D01*
X22782556Y-14492167D01*
X22774529Y-14494976D01*
X22728373Y-14519370D01*
X22723964Y-14521700D01*
X22719833Y-14523784D01*
X22668358Y-14548575D01*
X22661308Y-14553380D01*
X22654459Y-14558435D01*
X22614059Y-14598836D01*
X22610722Y-14602051D01*
X22568804Y-14640946D01*
X22563013Y-14648208D01*
X22562362Y-14647688D01*
X22552967Y-14659928D01*
X22074879Y-15138016D01*
X22013556Y-15171501D01*
X21943864Y-15166517D01*
X21887931Y-15124645D01*
X21864583Y-15068813D01*
X21863313Y-15060385D01*
X21860348Y-15040713D01*
X21860347Y-15040710D01*
X21857831Y-15032552D01*
X21855024Y-15024528D01*
X21828306Y-14973977D01*
X21826215Y-14969835D01*
X21801424Y-14918356D01*
X21796642Y-14911342D01*
X21791567Y-14904466D01*
X21791566Y-14904463D01*
X21751165Y-14864062D01*
X21747947Y-14860721D01*
X21709060Y-14818809D01*
X21701792Y-14813014D01*
X21702312Y-14812361D01*
X21690067Y-14802964D01*
X20016368Y-13129265D01*
X20007102Y-13118897D01*
X19984879Y-13091030D01*
X19984878Y-13091029D01*
X19984877Y-13091028D01*
X19959350Y-13073624D01*
X19937633Y-13058818D01*
X19933869Y-13056147D01*
X19887886Y-13022209D01*
X19880297Y-13018198D01*
X19872675Y-13014528D01*
X19818049Y-12997679D01*
X19813644Y-12996230D01*
X19759695Y-12977352D01*
X19751326Y-12975768D01*
X19742904Y-12974500D01*
X19742902Y-12974500D01*
X19685738Y-12974500D01*
X19681101Y-12974413D01*
X19679085Y-12974337D01*
X19623989Y-12972275D01*
X19614756Y-12973316D01*
X19614662Y-12972486D01*
X19599364Y-12974500D01*
X16933231Y-12974500D01*
X16866192Y-12954815D01*
X16858920Y-12949767D01*
X16767331Y-12881204D01*
X16767328Y-12881202D01*
X16632486Y-12830910D01*
X16632485Y-12830909D01*
X16632483Y-12830909D01*
X16572873Y-12824500D01*
X16572863Y-12824500D01*
X15927129Y-12824500D01*
X15927123Y-12824501D01*
X15867516Y-12830908D01*
X15732671Y-12881202D01*
X15732668Y-12881204D01*
X15641080Y-12949767D01*
X15575615Y-12974184D01*
X15566769Y-12974500D01*
X7933231Y-12974500D01*
X7866192Y-12954815D01*
X7858920Y-12949767D01*
X7767331Y-12881204D01*
X7767328Y-12881202D01*
X7632486Y-12830910D01*
X7632485Y-12830909D01*
X7632483Y-12830909D01*
X7572873Y-12824500D01*
X7572863Y-12824500D01*
X6927129Y-12824500D01*
X6927123Y-12824501D01*
X6867516Y-12830908D01*
X6732671Y-12881202D01*
X6732664Y-12881206D01*
X6617455Y-12967452D01*
X6617452Y-12967455D01*
X6531206Y-13082664D01*
X6531202Y-13082671D01*
X6483375Y-13210904D01*
X6480909Y-13217517D01*
X6474500Y-13277127D01*
X6474500Y-13277134D01*
X6474500Y-13277135D01*
X6474500Y-13772870D01*
X500500Y-13772870D01*
X500500Y-9500001D01*
X3694532Y-9500001D01*
X3714364Y-9726686D01*
X3714366Y-9726697D01*
X3773258Y-9946488D01*
X3773261Y-9946497D01*
X3869431Y-10152732D01*
X3869432Y-10152734D01*
X3999954Y-10339141D01*
X4160858Y-10500045D01*
X4166302Y-10503857D01*
X4347266Y-10630568D01*
X4553504Y-10726739D01*
X4773308Y-10785635D01*
X4921190Y-10798573D01*
X4999998Y-10805468D01*
X5000000Y-10805468D01*
X5000002Y-10805468D01*
X5056673Y-10800509D01*
X5226692Y-10785635D01*
X5446496Y-10726739D01*
X5652734Y-10630568D01*
X5839139Y-10500047D01*
X6000047Y-10339139D01*
X6130568Y-10152734D01*
X6226460Y-9947093D01*
X6272631Y-9894656D01*
X6338841Y-9875500D01*
X8161159Y-9875500D01*
X8228198Y-9895185D01*
X8273539Y-9947093D01*
X8323879Y-10055045D01*
X8369431Y-10152732D01*
X8369432Y-10152734D01*
X8499954Y-10339141D01*
X8660861Y-10500048D01*
X8665006Y-10503526D01*
X8663946Y-10504789D01*
X8702884Y-10553502D01*
X8710076Y-10623001D01*
X8678554Y-10685355D01*
X8618324Y-10720769D01*
X8588135Y-10724500D01*
X7957262Y-10724500D01*
X7943379Y-10723720D01*
X7938370Y-10723155D01*
X7907963Y-10719729D01*
X7851810Y-10730354D01*
X7847241Y-10731131D01*
X7790715Y-10739651D01*
X7782532Y-10742175D01*
X7774529Y-10744976D01*
X7723985Y-10771689D01*
X7719848Y-10773777D01*
X7668358Y-10798573D01*
X7661338Y-10803359D01*
X7654460Y-10808435D01*
X7614058Y-10848837D01*
X7610722Y-10852051D01*
X7568804Y-10890946D01*
X7563013Y-10898208D01*
X7562362Y-10897688D01*
X7552967Y-10909928D01*
X7324714Y-11138181D01*
X7263391Y-11171666D01*
X7237033Y-11174500D01*
X6927130Y-11174500D01*
X6927123Y-11174501D01*
X6867516Y-11180908D01*
X6732671Y-11231202D01*
X6732664Y-11231206D01*
X6617455Y-11317452D01*
X6617452Y-11317455D01*
X6531206Y-11432664D01*
X6531202Y-11432671D01*
X6480910Y-11567513D01*
X6480909Y-11567517D01*
X6474500Y-11627127D01*
X6474500Y-11627134D01*
X6474500Y-11627135D01*
X6474500Y-12122870D01*
X6474501Y-12122876D01*
X6480908Y-12182483D01*
X6531202Y-12317328D01*
X6531206Y-12317335D01*
X6617452Y-12432544D01*
X6617455Y-12432547D01*
X6732664Y-12518793D01*
X6732671Y-12518797D01*
X6777618Y-12535561D01*
X6867517Y-12569091D01*
X6927127Y-12575500D01*
X7572872Y-12575499D01*
X7632483Y-12569091D01*
X7767331Y-12518796D01*
X7882546Y-12432546D01*
X7968796Y-12317331D01*
X8019091Y-12182483D01*
X8025500Y-12122873D01*
X8025500Y-12122870D01*
X15474500Y-12122870D01*
X15474501Y-12122876D01*
X15480908Y-12182483D01*
X15531202Y-12317328D01*
X15531206Y-12317335D01*
X15617452Y-12432544D01*
X15617455Y-12432547D01*
X15732664Y-12518793D01*
X15732671Y-12518797D01*
X15777618Y-12535561D01*
X15867517Y-12569091D01*
X15927127Y-12575500D01*
X16572872Y-12575499D01*
X16632483Y-12569091D01*
X16767331Y-12518796D01*
X16882546Y-12432546D01*
X16888052Y-12425191D01*
X16943985Y-12383319D01*
X16987320Y-12375500D01*
X20392738Y-12375500D01*
X20406620Y-12376279D01*
X20419421Y-12377722D01*
X20442033Y-12380270D01*
X20442033Y-12380269D01*
X20442035Y-12380270D01*
X20498236Y-12369635D01*
X20502726Y-12368872D01*
X20559287Y-12360348D01*
X20559291Y-12360345D01*
X20567447Y-12357830D01*
X20575469Y-12355024D01*
X20575470Y-12355023D01*
X20575472Y-12355023D01*
X20626088Y-12328270D01*
X20630093Y-12326248D01*
X20681642Y-12301425D01*
X20681643Y-12301423D01*
X20681645Y-12301423D01*
X20688695Y-12296616D01*
X20695534Y-12291567D01*
X20695538Y-12291566D01*
X20735974Y-12251128D01*
X20739260Y-12247962D01*
X20781194Y-12209055D01*
X20781196Y-12209050D01*
X20786987Y-12201790D01*
X20787643Y-12202313D01*
X20797032Y-12190070D01*
X22292193Y-10694908D01*
X22353514Y-10661425D01*
X22423206Y-10666409D01*
X22432272Y-10670207D01*
X22553504Y-10726739D01*
X22773308Y-10785635D01*
X22921190Y-10798573D01*
X22999998Y-10805468D01*
X23000000Y-10805468D01*
X23000002Y-10805468D01*
X23056673Y-10800509D01*
X23226692Y-10785635D01*
X23446496Y-10726739D01*
X23652734Y-10630568D01*
X23839139Y-10500047D01*
X24000047Y-10339139D01*
X24130568Y-10152734D01*
X24226460Y-9947093D01*
X24272631Y-9894656D01*
X24338841Y-9875500D01*
X26161159Y-9875500D01*
X26228198Y-9895185D01*
X26273539Y-9947093D01*
X26323879Y-10055045D01*
X26369431Y-10152732D01*
X26369432Y-10152734D01*
X26499954Y-10339141D01*
X26660861Y-10500048D01*
X26665006Y-10503526D01*
X26663946Y-10504789D01*
X26702884Y-10553502D01*
X26710076Y-10623001D01*
X26678554Y-10685355D01*
X26618324Y-10720769D01*
X26588135Y-10724500D01*
X25957262Y-10724500D01*
X25943379Y-10723720D01*
X25938370Y-10723155D01*
X25907963Y-10719729D01*
X25851810Y-10730354D01*
X25847241Y-10731131D01*
X25790715Y-10739651D01*
X25782532Y-10742175D01*
X25774529Y-10744976D01*
X25723985Y-10771689D01*
X25719848Y-10773777D01*
X25668358Y-10798573D01*
X25661338Y-10803359D01*
X25654460Y-10808435D01*
X25614058Y-10848837D01*
X25610722Y-10852051D01*
X25568804Y-10890946D01*
X25563013Y-10898208D01*
X25562362Y-10897688D01*
X25552967Y-10909928D01*
X25324714Y-11138181D01*
X25263391Y-11171666D01*
X25237033Y-11174500D01*
X24927130Y-11174500D01*
X24927123Y-11174501D01*
X24867516Y-11180908D01*
X24732671Y-11231202D01*
X24732664Y-11231206D01*
X24617455Y-11317452D01*
X24617452Y-11317455D01*
X24531206Y-11432664D01*
X24531202Y-11432671D01*
X24480910Y-11567513D01*
X24480909Y-11567517D01*
X24474500Y-11627127D01*
X24474500Y-11627134D01*
X24474500Y-11627135D01*
X24474500Y-12122870D01*
X24474501Y-12122876D01*
X24480908Y-12182483D01*
X24531202Y-12317328D01*
X24531206Y-12317335D01*
X24617452Y-12432544D01*
X24617455Y-12432547D01*
X24732664Y-12518793D01*
X24732671Y-12518797D01*
X24777618Y-12535561D01*
X24867517Y-12569091D01*
X24927127Y-12575500D01*
X25572872Y-12575499D01*
X25632483Y-12569091D01*
X25767331Y-12518796D01*
X25882546Y-12432546D01*
X25968796Y-12317331D01*
X26019091Y-12182483D01*
X26025500Y-12122873D01*
X26025500Y-12122870D01*
X33474500Y-12122870D01*
X33474501Y-12122876D01*
X33480908Y-12182483D01*
X33531202Y-12317328D01*
X33531206Y-12317335D01*
X33617452Y-12432544D01*
X33617455Y-12432547D01*
X33732664Y-12518793D01*
X33732671Y-12518797D01*
X33777618Y-12535561D01*
X33867517Y-12569091D01*
X33927127Y-12575500D01*
X34572872Y-12575499D01*
X34632483Y-12569091D01*
X34767331Y-12518796D01*
X34882546Y-12432546D01*
X34888052Y-12425191D01*
X34943985Y-12383319D01*
X34987320Y-12375500D01*
X38392738Y-12375500D01*
X38406620Y-12376279D01*
X38419421Y-12377722D01*
X38442033Y-12380270D01*
X38442033Y-12380269D01*
X38442035Y-12380270D01*
X38498236Y-12369635D01*
X38502726Y-12368872D01*
X38559287Y-12360348D01*
X38559291Y-12360345D01*
X38567447Y-12357830D01*
X38575469Y-12355024D01*
X38575470Y-12355023D01*
X38575472Y-12355023D01*
X38626088Y-12328270D01*
X38630093Y-12326248D01*
X38681642Y-12301425D01*
X38681643Y-12301423D01*
X38681645Y-12301423D01*
X38688695Y-12296616D01*
X38695534Y-12291567D01*
X38695538Y-12291566D01*
X38735974Y-12251128D01*
X38739260Y-12247962D01*
X38781194Y-12209055D01*
X38781196Y-12209050D01*
X38786987Y-12201790D01*
X38787643Y-12202313D01*
X38797032Y-12190070D01*
X38864232Y-12122870D01*
X42474500Y-12122870D01*
X42474501Y-12122876D01*
X42480908Y-12182483D01*
X42531202Y-12317328D01*
X42531206Y-12317335D01*
X42617452Y-12432544D01*
X42617455Y-12432547D01*
X42732664Y-12518793D01*
X42732671Y-12518797D01*
X42777618Y-12535561D01*
X42867517Y-12569091D01*
X42927127Y-12575500D01*
X43572872Y-12575499D01*
X43632483Y-12569091D01*
X43767331Y-12518796D01*
X43882546Y-12432546D01*
X43888052Y-12425191D01*
X43943985Y-12383319D01*
X43987320Y-12375500D01*
X44155517Y-12375500D01*
X44222556Y-12395185D01*
X44237741Y-12406682D01*
X44302760Y-12464283D01*
X44302762Y-12464284D01*
X44442634Y-12537696D01*
X44596014Y-12575500D01*
X44596015Y-12575500D01*
X44753985Y-12575500D01*
X44907365Y-12537696D01*
X44939915Y-12520612D01*
X45047240Y-12464283D01*
X45165483Y-12359530D01*
X45255220Y-12229523D01*
X45311237Y-12081818D01*
X45330278Y-11925000D01*
X45321795Y-11855131D01*
X45311237Y-11768181D01*
X45276004Y-11675281D01*
X45255220Y-11620477D01*
X45165483Y-11490470D01*
X45047240Y-11385717D01*
X45047238Y-11385716D01*
X45047237Y-11385715D01*
X44907365Y-11312303D01*
X44753986Y-11274500D01*
X44753985Y-11274500D01*
X44596015Y-11274500D01*
X44596014Y-11274500D01*
X44442634Y-11312303D01*
X44302762Y-11385715D01*
X44302760Y-11385717D01*
X44249768Y-11432664D01*
X44237744Y-11443316D01*
X44174510Y-11473037D01*
X44155517Y-11474500D01*
X44062180Y-11474500D01*
X43995141Y-11454815D01*
X43962913Y-11424811D01*
X43882546Y-11317454D01*
X43825167Y-11274500D01*
X43767335Y-11231206D01*
X43767328Y-11231202D01*
X43632486Y-11180910D01*
X43632485Y-11180909D01*
X43632483Y-11180909D01*
X43572873Y-11174500D01*
X43572863Y-11174500D01*
X42927129Y-11174500D01*
X42927123Y-11174501D01*
X42867516Y-11180908D01*
X42732671Y-11231202D01*
X42732664Y-11231206D01*
X42617455Y-11317452D01*
X42617452Y-11317455D01*
X42531206Y-11432664D01*
X42531202Y-11432671D01*
X42480910Y-11567513D01*
X42480909Y-11567517D01*
X42474500Y-11627127D01*
X42474500Y-11627134D01*
X42474500Y-11627135D01*
X42474500Y-12122870D01*
X38864232Y-12122870D01*
X40292193Y-10694908D01*
X40353514Y-10661425D01*
X40423206Y-10666409D01*
X40432272Y-10670207D01*
X40553504Y-10726739D01*
X40773308Y-10785635D01*
X40921190Y-10798573D01*
X40999998Y-10805468D01*
X41000000Y-10805468D01*
X41000002Y-10805468D01*
X41056673Y-10800509D01*
X41226692Y-10785635D01*
X41446496Y-10726739D01*
X41652734Y-10630568D01*
X41839139Y-10500047D01*
X42000047Y-10339139D01*
X42130568Y-10152734D01*
X42226460Y-9947093D01*
X42272631Y-9894656D01*
X42338841Y-9875500D01*
X44161159Y-9875500D01*
X44228198Y-9895185D01*
X44273539Y-9947093D01*
X44323879Y-10055045D01*
X44369431Y-10152732D01*
X44369432Y-10152734D01*
X44499954Y-10339141D01*
X44660858Y-10500045D01*
X44666302Y-10503857D01*
X44847266Y-10630568D01*
X45053504Y-10726739D01*
X45273308Y-10785635D01*
X45421190Y-10798573D01*
X45499998Y-10805468D01*
X45500000Y-10805468D01*
X45500002Y-10805468D01*
X45556673Y-10800509D01*
X45726692Y-10785635D01*
X45946496Y-10726739D01*
X46152734Y-10630568D01*
X46339139Y-10500047D01*
X46500047Y-10339139D01*
X46630568Y-10152734D01*
X46726739Y-9946496D01*
X46785635Y-9726692D01*
X46805468Y-9500001D01*
X48694532Y-9500001D01*
X48714364Y-9726686D01*
X48714366Y-9726697D01*
X48773258Y-9946488D01*
X48773261Y-9946497D01*
X48869431Y-10152732D01*
X48869432Y-10152734D01*
X48999954Y-10339141D01*
X49160858Y-10500045D01*
X49166302Y-10503857D01*
X49347266Y-10630568D01*
X49553504Y-10726739D01*
X49773308Y-10785635D01*
X49921190Y-10798573D01*
X49999998Y-10805468D01*
X50000000Y-10805468D01*
X50000002Y-10805468D01*
X50056673Y-10800509D01*
X50226692Y-10785635D01*
X50446496Y-10726739D01*
X50652734Y-10630568D01*
X50839139Y-10500047D01*
X51000047Y-10339139D01*
X51130568Y-10152734D01*
X51226460Y-9947093D01*
X51272631Y-9894656D01*
X51338841Y-9875500D01*
X53161159Y-9875500D01*
X53228198Y-9895185D01*
X53273539Y-9947093D01*
X53323879Y-10055045D01*
X53369431Y-10152732D01*
X53369432Y-10152734D01*
X53499954Y-10339141D01*
X53660858Y-10500045D01*
X53666302Y-10503857D01*
X53847266Y-10630568D01*
X54053504Y-10726739D01*
X54273308Y-10785635D01*
X54421190Y-10798573D01*
X54499998Y-10805468D01*
X54500000Y-10805468D01*
X54500002Y-10805468D01*
X54556673Y-10800509D01*
X54726692Y-10785635D01*
X54946496Y-10726739D01*
X55152734Y-10630568D01*
X55339139Y-10500047D01*
X55500047Y-10339139D01*
X55630568Y-10152734D01*
X55726739Y-9946496D01*
X55785635Y-9726692D01*
X55805468Y-9500000D01*
X55785635Y-9273308D01*
X55726739Y-9053504D01*
X55630568Y-8847266D01*
X55500047Y-8660861D01*
X55500045Y-8660858D01*
X55339141Y-8499954D01*
X55152734Y-8369432D01*
X55152732Y-8369431D01*
X54946497Y-8273261D01*
X54946488Y-8273258D01*
X54726697Y-8214366D01*
X54726693Y-8214365D01*
X54726692Y-8214365D01*
X54726691Y-8214364D01*
X54726686Y-8214364D01*
X54500002Y-8194532D01*
X54499998Y-8194532D01*
X54273313Y-8214364D01*
X54273302Y-8214366D01*
X54053511Y-8273258D01*
X54053502Y-8273261D01*
X53847267Y-8369431D01*
X53847265Y-8369432D01*
X53660858Y-8499954D01*
X53499954Y-8660858D01*
X53369430Y-8847268D01*
X53343487Y-8902905D01*
X53297315Y-8955344D01*
X53231105Y-8974500D01*
X51268895Y-8974500D01*
X51201856Y-8954815D01*
X51156513Y-8902905D01*
X51130569Y-8847268D01*
X51000045Y-8660858D01*
X50839141Y-8499954D01*
X50652734Y-8369432D01*
X50652732Y-8369431D01*
X50446497Y-8273261D01*
X50446488Y-8273258D01*
X50226697Y-8214366D01*
X50226693Y-8214365D01*
X50226692Y-8214365D01*
X50226691Y-8214364D01*
X50226686Y-8214364D01*
X50000002Y-8194532D01*
X49999998Y-8194532D01*
X49773313Y-8214364D01*
X49773302Y-8214366D01*
X49553511Y-8273258D01*
X49553502Y-8273261D01*
X49347267Y-8369431D01*
X49347265Y-8369432D01*
X49160858Y-8499954D01*
X48999954Y-8660858D01*
X48869432Y-8847265D01*
X48869431Y-8847267D01*
X48773261Y-9053502D01*
X48773258Y-9053511D01*
X48714366Y-9273302D01*
X48714364Y-9273313D01*
X48694532Y-9499998D01*
X48694532Y-9500001D01*
X46805468Y-9500001D01*
X46805468Y-9500000D01*
X46785635Y-9273308D01*
X46726739Y-9053504D01*
X46630568Y-8847266D01*
X46500047Y-8660861D01*
X46500045Y-8660858D01*
X46339141Y-8499954D01*
X46152734Y-8369432D01*
X46152732Y-8369431D01*
X45946497Y-8273261D01*
X45946488Y-8273258D01*
X45726697Y-8214366D01*
X45726693Y-8214365D01*
X45726692Y-8214365D01*
X45726691Y-8214364D01*
X45726686Y-8214364D01*
X45500002Y-8194532D01*
X45499998Y-8194532D01*
X45273313Y-8214364D01*
X45273302Y-8214366D01*
X45053511Y-8273258D01*
X45053502Y-8273261D01*
X44847267Y-8369431D01*
X44847265Y-8369432D01*
X44660858Y-8499954D01*
X44499954Y-8660858D01*
X44369430Y-8847268D01*
X44343487Y-8902905D01*
X44297315Y-8955344D01*
X44231105Y-8974500D01*
X42268895Y-8974500D01*
X42201856Y-8954815D01*
X42156513Y-8902905D01*
X42130569Y-8847268D01*
X42000045Y-8660858D01*
X41839141Y-8499954D01*
X41652734Y-8369432D01*
X41652732Y-8369431D01*
X41446497Y-8273261D01*
X41446488Y-8273258D01*
X41226697Y-8214366D01*
X41226693Y-8214365D01*
X41226692Y-8214365D01*
X41226691Y-8214364D01*
X41226686Y-8214364D01*
X41000002Y-8194532D01*
X40999998Y-8194532D01*
X40773313Y-8214364D01*
X40773302Y-8214366D01*
X40553511Y-8273258D01*
X40553502Y-8273261D01*
X40347267Y-8369431D01*
X40347265Y-8369432D01*
X40160858Y-8499954D01*
X39999954Y-8660858D01*
X39869432Y-8847265D01*
X39869431Y-8847267D01*
X39773261Y-9053502D01*
X39773258Y-9053511D01*
X39714366Y-9273302D01*
X39714364Y-9273313D01*
X39694532Y-9499998D01*
X39694532Y-9500001D01*
X39714364Y-9726686D01*
X39714366Y-9726697D01*
X39753282Y-9871933D01*
X39751619Y-9941783D01*
X39721188Y-9991707D01*
X38274716Y-11438181D01*
X38213393Y-11471666D01*
X38187035Y-11474500D01*
X35062180Y-11474500D01*
X34995141Y-11454815D01*
X34962913Y-11424811D01*
X34882546Y-11317454D01*
X34825167Y-11274500D01*
X34767335Y-11231206D01*
X34767328Y-11231202D01*
X34632486Y-11180910D01*
X34632485Y-11180909D01*
X34632483Y-11180909D01*
X34572873Y-11174500D01*
X34572863Y-11174500D01*
X33927129Y-11174500D01*
X33927123Y-11174501D01*
X33867516Y-11180908D01*
X33732671Y-11231202D01*
X33732664Y-11231206D01*
X33617455Y-11317452D01*
X33617452Y-11317455D01*
X33531206Y-11432664D01*
X33531202Y-11432671D01*
X33480910Y-11567513D01*
X33480909Y-11567517D01*
X33474500Y-11627127D01*
X33474500Y-11627134D01*
X33474500Y-11627135D01*
X33474500Y-12122870D01*
X26025500Y-12122870D01*
X26025499Y-11762964D01*
X26045183Y-11695926D01*
X26061816Y-11675286D01*
X26075287Y-11661816D01*
X26136611Y-11628333D01*
X26162965Y-11625500D01*
X28892738Y-11625500D01*
X28906620Y-11626279D01*
X28919421Y-11627722D01*
X28942033Y-11630270D01*
X28942033Y-11630269D01*
X28942035Y-11630270D01*
X28998236Y-11619635D01*
X29002726Y-11618872D01*
X29059287Y-11610348D01*
X29059291Y-11610345D01*
X29067447Y-11607830D01*
X29075469Y-11605024D01*
X29075470Y-11605023D01*
X29075472Y-11605023D01*
X29126088Y-11578270D01*
X29130093Y-11576248D01*
X29181642Y-11551425D01*
X29181643Y-11551423D01*
X29181645Y-11551423D01*
X29188695Y-11546616D01*
X29195534Y-11541567D01*
X29195538Y-11541566D01*
X29235974Y-11501128D01*
X29239260Y-11497962D01*
X29281194Y-11459055D01*
X29281196Y-11459050D01*
X29286987Y-11451790D01*
X29287643Y-11452313D01*
X29297032Y-11440070D01*
X30653557Y-10083544D01*
X30714878Y-10050061D01*
X30784570Y-10055045D01*
X30840503Y-10096917D01*
X30853617Y-10118820D01*
X30869430Y-10152731D01*
X30869432Y-10152734D01*
X30999954Y-10339141D01*
X31160858Y-10500045D01*
X31166302Y-10503857D01*
X31347266Y-10630568D01*
X31553504Y-10726739D01*
X31773308Y-10785635D01*
X31921190Y-10798573D01*
X31999998Y-10805468D01*
X32000000Y-10805468D01*
X32000002Y-10805468D01*
X32056673Y-10800509D01*
X32226692Y-10785635D01*
X32446496Y-10726739D01*
X32652734Y-10630568D01*
X32839139Y-10500047D01*
X33000047Y-10339139D01*
X33130568Y-10152734D01*
X33226460Y-9947093D01*
X33272631Y-9894656D01*
X33338841Y-9875500D01*
X35161159Y-9875500D01*
X35228198Y-9895185D01*
X35273539Y-9947093D01*
X35323879Y-10055045D01*
X35369431Y-10152732D01*
X35369432Y-10152734D01*
X35499954Y-10339141D01*
X35660858Y-10500045D01*
X35666302Y-10503857D01*
X35847266Y-10630568D01*
X36053504Y-10726739D01*
X36273308Y-10785635D01*
X36421190Y-10798573D01*
X36499998Y-10805468D01*
X36500000Y-10805468D01*
X36500002Y-10805468D01*
X36556673Y-10800509D01*
X36726692Y-10785635D01*
X36946496Y-10726739D01*
X37152734Y-10630568D01*
X37339139Y-10500047D01*
X37500047Y-10339139D01*
X37630568Y-10152734D01*
X37726739Y-9946496D01*
X37785635Y-9726692D01*
X37805468Y-9500000D01*
X37785635Y-9273308D01*
X37726739Y-9053504D01*
X37630568Y-8847266D01*
X37500047Y-8660861D01*
X37500045Y-8660858D01*
X37339141Y-8499954D01*
X37152734Y-8369432D01*
X37152732Y-8369431D01*
X36946497Y-8273261D01*
X36946488Y-8273258D01*
X36726697Y-8214366D01*
X36726693Y-8214365D01*
X36726692Y-8214365D01*
X36726691Y-8214364D01*
X36726686Y-8214364D01*
X36500002Y-8194532D01*
X36499998Y-8194532D01*
X36273313Y-8214364D01*
X36273302Y-8214366D01*
X36053511Y-8273258D01*
X36053502Y-8273261D01*
X35847267Y-8369431D01*
X35847265Y-8369432D01*
X35660858Y-8499954D01*
X35499954Y-8660858D01*
X35369430Y-8847268D01*
X35343487Y-8902905D01*
X35297315Y-8955344D01*
X35231105Y-8974500D01*
X33268895Y-8974500D01*
X33201856Y-8954815D01*
X33156513Y-8902905D01*
X33130569Y-8847268D01*
X33000045Y-8660858D01*
X32839141Y-8499954D01*
X32652734Y-8369432D01*
X32652732Y-8369431D01*
X32446497Y-8273261D01*
X32446488Y-8273258D01*
X32226697Y-8214366D01*
X32226693Y-8214365D01*
X32226692Y-8214365D01*
X32226691Y-8214364D01*
X32226686Y-8214364D01*
X32000002Y-8194532D01*
X31999998Y-8194532D01*
X31773313Y-8214364D01*
X31773302Y-8214366D01*
X31553511Y-8273258D01*
X31553502Y-8273261D01*
X31347267Y-8369431D01*
X31347265Y-8369432D01*
X31160858Y-8499954D01*
X30999954Y-8660858D01*
X30869430Y-8847268D01*
X30843487Y-8902905D01*
X30797315Y-8955344D01*
X30731105Y-8974500D01*
X30707262Y-8974500D01*
X30693379Y-8973720D01*
X30689371Y-8973268D01*
X30657965Y-8969729D01*
X30601782Y-8980358D01*
X30597218Y-8981133D01*
X30540715Y-8989651D01*
X30532556Y-8992167D01*
X30524529Y-8994976D01*
X30473964Y-9021700D01*
X30469829Y-9023787D01*
X30418358Y-9048575D01*
X30411308Y-9053380D01*
X30404459Y-9058435D01*
X30364059Y-9098836D01*
X30360722Y-9102051D01*
X30318804Y-9140946D01*
X30313013Y-9148208D01*
X30312362Y-9147688D01*
X30302967Y-9159928D01*
X28774716Y-10688181D01*
X28713393Y-10721666D01*
X28687035Y-10724500D01*
X28411865Y-10724500D01*
X28344826Y-10704815D01*
X28299071Y-10652011D01*
X28289127Y-10582853D01*
X28318152Y-10519297D01*
X28335271Y-10503857D01*
X28334994Y-10503526D01*
X28339138Y-10500048D01*
X28500045Y-10339141D01*
X28500047Y-10339139D01*
X28630568Y-10152734D01*
X28726739Y-9946496D01*
X28785635Y-9726692D01*
X28805468Y-9500000D01*
X28785635Y-9273308D01*
X28726739Y-9053504D01*
X28630568Y-8847266D01*
X28500047Y-8660861D01*
X28500045Y-8660858D01*
X28339141Y-8499954D01*
X28152734Y-8369432D01*
X28152732Y-8369431D01*
X27946497Y-8273261D01*
X27946488Y-8273258D01*
X27726697Y-8214366D01*
X27726693Y-8214365D01*
X27726692Y-8214365D01*
X27726691Y-8214364D01*
X27726686Y-8214364D01*
X27500002Y-8194532D01*
X27499998Y-8194532D01*
X27273313Y-8214364D01*
X27273302Y-8214366D01*
X27053511Y-8273258D01*
X27053502Y-8273261D01*
X26847267Y-8369431D01*
X26847265Y-8369432D01*
X26660858Y-8499954D01*
X26499954Y-8660858D01*
X26369430Y-8847268D01*
X26343487Y-8902905D01*
X26297315Y-8955344D01*
X26231105Y-8974500D01*
X24268895Y-8974500D01*
X24201856Y-8954815D01*
X24156513Y-8902905D01*
X24130569Y-8847268D01*
X24000045Y-8660858D01*
X23839141Y-8499954D01*
X23652734Y-8369432D01*
X23652732Y-8369431D01*
X23446497Y-8273261D01*
X23446488Y-8273258D01*
X23226697Y-8214366D01*
X23226693Y-8214365D01*
X23226692Y-8214365D01*
X23226691Y-8214364D01*
X23226686Y-8214364D01*
X23000002Y-8194532D01*
X22999998Y-8194532D01*
X22773313Y-8214364D01*
X22773302Y-8214366D01*
X22553511Y-8273258D01*
X22553502Y-8273261D01*
X22347267Y-8369431D01*
X22347265Y-8369432D01*
X22160858Y-8499954D01*
X21999954Y-8660858D01*
X21869432Y-8847265D01*
X21869431Y-8847267D01*
X21773261Y-9053502D01*
X21773258Y-9053511D01*
X21714366Y-9273302D01*
X21714364Y-9273313D01*
X21694532Y-9499998D01*
X21694532Y-9500001D01*
X21714364Y-9726686D01*
X21714366Y-9726697D01*
X21753282Y-9871933D01*
X21751619Y-9941783D01*
X21721188Y-9991707D01*
X20274716Y-11438181D01*
X20213393Y-11471666D01*
X20187035Y-11474500D01*
X17062180Y-11474500D01*
X16995141Y-11454815D01*
X16962913Y-11424811D01*
X16882546Y-11317454D01*
X16825167Y-11274500D01*
X16767335Y-11231206D01*
X16767328Y-11231202D01*
X16632486Y-11180910D01*
X16632485Y-11180909D01*
X16632483Y-11180909D01*
X16572873Y-11174500D01*
X16572863Y-11174500D01*
X15927129Y-11174500D01*
X15927123Y-11174501D01*
X15867516Y-11180908D01*
X15732671Y-11231202D01*
X15732664Y-11231206D01*
X15617455Y-11317452D01*
X15617452Y-11317455D01*
X15531206Y-11432664D01*
X15531202Y-11432671D01*
X15480910Y-11567513D01*
X15480909Y-11567517D01*
X15474500Y-11627127D01*
X15474500Y-11627134D01*
X15474500Y-11627135D01*
X15474500Y-12122870D01*
X8025500Y-12122870D01*
X8025499Y-11762964D01*
X8045183Y-11695926D01*
X8061816Y-11675286D01*
X8075287Y-11661816D01*
X8136611Y-11628333D01*
X8162965Y-11625500D01*
X10892738Y-11625500D01*
X10906620Y-11626279D01*
X10919421Y-11627722D01*
X10942033Y-11630270D01*
X10942033Y-11630269D01*
X10942035Y-11630270D01*
X10998236Y-11619635D01*
X11002726Y-11618872D01*
X11059287Y-11610348D01*
X11059291Y-11610345D01*
X11067447Y-11607830D01*
X11075469Y-11605024D01*
X11075470Y-11605023D01*
X11075472Y-11605023D01*
X11126088Y-11578270D01*
X11130093Y-11576248D01*
X11181642Y-11551425D01*
X11181643Y-11551423D01*
X11181645Y-11551423D01*
X11188695Y-11546616D01*
X11195534Y-11541567D01*
X11195538Y-11541566D01*
X11235974Y-11501128D01*
X11239260Y-11497962D01*
X11281194Y-11459055D01*
X11281196Y-11459050D01*
X11286987Y-11451790D01*
X11287643Y-11452313D01*
X11297032Y-11440070D01*
X12653557Y-10083544D01*
X12714878Y-10050061D01*
X12784570Y-10055045D01*
X12840503Y-10096917D01*
X12853617Y-10118820D01*
X12869430Y-10152731D01*
X12869432Y-10152734D01*
X12999954Y-10339141D01*
X13160858Y-10500045D01*
X13166302Y-10503857D01*
X13347266Y-10630568D01*
X13553504Y-10726739D01*
X13773308Y-10785635D01*
X13921190Y-10798573D01*
X13999998Y-10805468D01*
X14000000Y-10805468D01*
X14000002Y-10805468D01*
X14056673Y-10800509D01*
X14226692Y-10785635D01*
X14446496Y-10726739D01*
X14652734Y-10630568D01*
X14839139Y-10500047D01*
X15000047Y-10339139D01*
X15130568Y-10152734D01*
X15226460Y-9947093D01*
X15272631Y-9894656D01*
X15338841Y-9875500D01*
X17161159Y-9875500D01*
X17228198Y-9895185D01*
X17273539Y-9947093D01*
X17323879Y-10055045D01*
X17369431Y-10152732D01*
X17369432Y-10152734D01*
X17499954Y-10339141D01*
X17660858Y-10500045D01*
X17666302Y-10503857D01*
X17847266Y-10630568D01*
X18053504Y-10726739D01*
X18273308Y-10785635D01*
X18421190Y-10798573D01*
X18499998Y-10805468D01*
X18500000Y-10805468D01*
X18500002Y-10805468D01*
X18556673Y-10800509D01*
X18726692Y-10785635D01*
X18946496Y-10726739D01*
X19152734Y-10630568D01*
X19339139Y-10500047D01*
X19500047Y-10339139D01*
X19630568Y-10152734D01*
X19726739Y-9946496D01*
X19785635Y-9726692D01*
X19805468Y-9500000D01*
X19785635Y-9273308D01*
X19726739Y-9053504D01*
X19630568Y-8847266D01*
X19500047Y-8660861D01*
X19500045Y-8660858D01*
X19339141Y-8499954D01*
X19152734Y-8369432D01*
X19152732Y-8369431D01*
X18946497Y-8273261D01*
X18946488Y-8273258D01*
X18726697Y-8214366D01*
X18726693Y-8214365D01*
X18726692Y-8214365D01*
X18726691Y-8214364D01*
X18726686Y-8214364D01*
X18500002Y-8194532D01*
X18499998Y-8194532D01*
X18273313Y-8214364D01*
X18273302Y-8214366D01*
X18053511Y-8273258D01*
X18053502Y-8273261D01*
X17847267Y-8369431D01*
X17847265Y-8369432D01*
X17660858Y-8499954D01*
X17499954Y-8660858D01*
X17369430Y-8847268D01*
X17343487Y-8902905D01*
X17297315Y-8955344D01*
X17231105Y-8974500D01*
X15268895Y-8974500D01*
X15201856Y-8954815D01*
X15156513Y-8902905D01*
X15130569Y-8847268D01*
X15000045Y-8660858D01*
X14839141Y-8499954D01*
X14652734Y-8369432D01*
X14652732Y-8369431D01*
X14446497Y-8273261D01*
X14446488Y-8273258D01*
X14226697Y-8214366D01*
X14226693Y-8214365D01*
X14226692Y-8214365D01*
X14226691Y-8214364D01*
X14226686Y-8214364D01*
X14000002Y-8194532D01*
X13999998Y-8194532D01*
X13773313Y-8214364D01*
X13773302Y-8214366D01*
X13553511Y-8273258D01*
X13553502Y-8273261D01*
X13347267Y-8369431D01*
X13347265Y-8369432D01*
X13160858Y-8499954D01*
X12999954Y-8660858D01*
X12869430Y-8847268D01*
X12843487Y-8902905D01*
X12797315Y-8955344D01*
X12731105Y-8974500D01*
X12707262Y-8974500D01*
X12693379Y-8973720D01*
X12689371Y-8973268D01*
X12657965Y-8969729D01*
X12601782Y-8980358D01*
X12597218Y-8981133D01*
X12540715Y-8989651D01*
X12532556Y-8992167D01*
X12524529Y-8994976D01*
X12473964Y-9021700D01*
X12469829Y-9023787D01*
X12418358Y-9048575D01*
X12411308Y-9053380D01*
X12404459Y-9058435D01*
X12364059Y-9098836D01*
X12360722Y-9102051D01*
X12318804Y-9140946D01*
X12313013Y-9148208D01*
X12312362Y-9147688D01*
X12302967Y-9159928D01*
X10774716Y-10688181D01*
X10713393Y-10721666D01*
X10687035Y-10724500D01*
X10411865Y-10724500D01*
X10344826Y-10704815D01*
X10299071Y-10652011D01*
X10289127Y-10582853D01*
X10318152Y-10519297D01*
X10335271Y-10503857D01*
X10334994Y-10503526D01*
X10339138Y-10500048D01*
X10500045Y-10339141D01*
X10500047Y-10339139D01*
X10630568Y-10152734D01*
X10726739Y-9946496D01*
X10785635Y-9726692D01*
X10805468Y-9500000D01*
X10785635Y-9273308D01*
X10726739Y-9053504D01*
X10630568Y-8847266D01*
X10500047Y-8660861D01*
X10500045Y-8660858D01*
X10339141Y-8499954D01*
X10152734Y-8369432D01*
X10152732Y-8369431D01*
X9946497Y-8273261D01*
X9946488Y-8273258D01*
X9726697Y-8214366D01*
X9726693Y-8214365D01*
X9726692Y-8214365D01*
X9726691Y-8214364D01*
X9726686Y-8214364D01*
X9500002Y-8194532D01*
X9499998Y-8194532D01*
X9273313Y-8214364D01*
X9273302Y-8214366D01*
X9053511Y-8273258D01*
X9053502Y-8273261D01*
X8847267Y-8369431D01*
X8847265Y-8369432D01*
X8660858Y-8499954D01*
X8499954Y-8660858D01*
X8369430Y-8847268D01*
X8343487Y-8902905D01*
X8297315Y-8955344D01*
X8231105Y-8974500D01*
X6268895Y-8974500D01*
X6201856Y-8954815D01*
X6156513Y-8902905D01*
X6130569Y-8847268D01*
X6000045Y-8660858D01*
X5839141Y-8499954D01*
X5652734Y-8369432D01*
X5652732Y-8369431D01*
X5446497Y-8273261D01*
X5446488Y-8273258D01*
X5226697Y-8214366D01*
X5226693Y-8214365D01*
X5226692Y-8214365D01*
X5226691Y-8214364D01*
X5226686Y-8214364D01*
X5000002Y-8194532D01*
X4999998Y-8194532D01*
X4773313Y-8214364D01*
X4773302Y-8214366D01*
X4553511Y-8273258D01*
X4553502Y-8273261D01*
X4347267Y-8369431D01*
X4347265Y-8369432D01*
X4160858Y-8499954D01*
X3999954Y-8660858D01*
X3869432Y-8847265D01*
X3869431Y-8847267D01*
X3773261Y-9053502D01*
X3773258Y-9053511D01*
X3714366Y-9273302D01*
X3714364Y-9273313D01*
X3694532Y-9499998D01*
X3694532Y-9500001D01*
X500500Y-9500001D01*
X500500Y-3000001D01*
X3694532Y-3000001D01*
X3714364Y-3226686D01*
X3714366Y-3226697D01*
X3773258Y-3446488D01*
X3773261Y-3446497D01*
X3869431Y-3652732D01*
X3869432Y-3652734D01*
X3999954Y-3839141D01*
X4160858Y-4000045D01*
X4160861Y-4000047D01*
X4347266Y-4130568D01*
X4553504Y-4226739D01*
X4773308Y-4285635D01*
X4935230Y-4299801D01*
X4999998Y-4305468D01*
X5000000Y-4305468D01*
X5000002Y-4305468D01*
X5056673Y-4300509D01*
X5226692Y-4285635D01*
X5446496Y-4226739D01*
X5652734Y-4130568D01*
X5839139Y-4000047D01*
X6000047Y-3839139D01*
X6130568Y-3652734D01*
X6226460Y-3447093D01*
X6272631Y-3394656D01*
X6338841Y-3375500D01*
X8161159Y-3375500D01*
X8228198Y-3395185D01*
X8273539Y-3447093D01*
X8360784Y-3634189D01*
X8369431Y-3652732D01*
X8369432Y-3652734D01*
X8499954Y-3839141D01*
X8660858Y-4000045D01*
X8660861Y-4000047D01*
X8847266Y-4130568D01*
X9053504Y-4226739D01*
X9273308Y-4285635D01*
X9435230Y-4299801D01*
X9499998Y-4305468D01*
X9500000Y-4305468D01*
X9500002Y-4305468D01*
X9556673Y-4300509D01*
X9726692Y-4285635D01*
X9946496Y-4226739D01*
X10152734Y-4130568D01*
X10339139Y-4000047D01*
X10500047Y-3839139D01*
X10630568Y-3652734D01*
X10726739Y-3446496D01*
X10785635Y-3226692D01*
X10805468Y-3000001D01*
X12694532Y-3000001D01*
X12714364Y-3226686D01*
X12714366Y-3226697D01*
X12773258Y-3446488D01*
X12773261Y-3446497D01*
X12869431Y-3652732D01*
X12869432Y-3652734D01*
X12999954Y-3839141D01*
X13160858Y-4000045D01*
X13160861Y-4000047D01*
X13347266Y-4130568D01*
X13553504Y-4226739D01*
X13773308Y-4285635D01*
X13935230Y-4299801D01*
X13999998Y-4305468D01*
X14000000Y-4305468D01*
X14000002Y-4305468D01*
X14056673Y-4300509D01*
X14226692Y-4285635D01*
X14446496Y-4226739D01*
X14652734Y-4130568D01*
X14839139Y-4000047D01*
X15000047Y-3839139D01*
X15130568Y-3652734D01*
X15226460Y-3447093D01*
X15272631Y-3394656D01*
X15338841Y-3375500D01*
X17161159Y-3375500D01*
X17228198Y-3395185D01*
X17273539Y-3447093D01*
X17360784Y-3634189D01*
X17369431Y-3652732D01*
X17369432Y-3652734D01*
X17499954Y-3839141D01*
X17660858Y-4000045D01*
X17660861Y-4000047D01*
X17847266Y-4130568D01*
X18053504Y-4226739D01*
X18273308Y-4285635D01*
X18435230Y-4299801D01*
X18499998Y-4305468D01*
X18500000Y-4305468D01*
X18500002Y-4305468D01*
X18556673Y-4300509D01*
X18726692Y-4285635D01*
X18946496Y-4226739D01*
X19152734Y-4130568D01*
X19339139Y-4000047D01*
X19500047Y-3839139D01*
X19630568Y-3652734D01*
X19726739Y-3446496D01*
X19785635Y-3226692D01*
X19805468Y-3000001D01*
X21694532Y-3000001D01*
X21714364Y-3226686D01*
X21714366Y-3226697D01*
X21773258Y-3446488D01*
X21773261Y-3446497D01*
X21869431Y-3652732D01*
X21869432Y-3652734D01*
X21999954Y-3839141D01*
X22160858Y-4000045D01*
X22160861Y-4000047D01*
X22347266Y-4130568D01*
X22553504Y-4226739D01*
X22773308Y-4285635D01*
X22935230Y-4299801D01*
X22999998Y-4305468D01*
X23000000Y-4305468D01*
X23000002Y-4305468D01*
X23056673Y-4300509D01*
X23226692Y-4285635D01*
X23446496Y-4226739D01*
X23652734Y-4130568D01*
X23839139Y-4000047D01*
X24000047Y-3839139D01*
X24130568Y-3652734D01*
X24226460Y-3447093D01*
X24272631Y-3394656D01*
X24338841Y-3375500D01*
X26161159Y-3375500D01*
X26228198Y-3395185D01*
X26273539Y-3447093D01*
X26360784Y-3634189D01*
X26369431Y-3652732D01*
X26369432Y-3652734D01*
X26499954Y-3839141D01*
X26660858Y-4000045D01*
X26660861Y-4000047D01*
X26847266Y-4130568D01*
X27053504Y-4226739D01*
X27273308Y-4285635D01*
X27435230Y-4299801D01*
X27499998Y-4305468D01*
X27500000Y-4305468D01*
X27500002Y-4305468D01*
X27556673Y-4300509D01*
X27726692Y-4285635D01*
X27946496Y-4226739D01*
X28152734Y-4130568D01*
X28339139Y-4000047D01*
X28500047Y-3839139D01*
X28630568Y-3652734D01*
X28726739Y-3446496D01*
X28785635Y-3226692D01*
X28805468Y-3000001D01*
X30694532Y-3000001D01*
X30714364Y-3226686D01*
X30714366Y-3226697D01*
X30773258Y-3446488D01*
X30773261Y-3446497D01*
X30869431Y-3652732D01*
X30869432Y-3652734D01*
X30999954Y-3839141D01*
X31160858Y-4000045D01*
X31160861Y-4000047D01*
X31347266Y-4130568D01*
X31553504Y-4226739D01*
X31773308Y-4285635D01*
X31935230Y-4299801D01*
X31999998Y-4305468D01*
X32000000Y-4305468D01*
X32000002Y-4305468D01*
X32056673Y-4300509D01*
X32226692Y-4285635D01*
X32446496Y-4226739D01*
X32652734Y-4130568D01*
X32839139Y-4000047D01*
X33000047Y-3839139D01*
X33130568Y-3652734D01*
X33226460Y-3447093D01*
X33272631Y-3394656D01*
X33338841Y-3375500D01*
X35161159Y-3375500D01*
X35228198Y-3395185D01*
X35273539Y-3447093D01*
X35360784Y-3634189D01*
X35369431Y-3652732D01*
X35369432Y-3652734D01*
X35499954Y-3839141D01*
X35660858Y-4000045D01*
X35660861Y-4000047D01*
X35847266Y-4130568D01*
X36053504Y-4226739D01*
X36273308Y-4285635D01*
X36435230Y-4299801D01*
X36499998Y-4305468D01*
X36500000Y-4305468D01*
X36500002Y-4305468D01*
X36556673Y-4300509D01*
X36726692Y-4285635D01*
X36946496Y-4226739D01*
X37152734Y-4130568D01*
X37339139Y-4000047D01*
X37500047Y-3839139D01*
X37630568Y-3652734D01*
X37726739Y-3446496D01*
X37785635Y-3226692D01*
X37805468Y-3000001D01*
X39694532Y-3000001D01*
X39714364Y-3226686D01*
X39714366Y-3226697D01*
X39773258Y-3446488D01*
X39773261Y-3446497D01*
X39869431Y-3652732D01*
X39869432Y-3652734D01*
X39999954Y-3839141D01*
X40160858Y-4000045D01*
X40160861Y-4000047D01*
X40347266Y-4130568D01*
X40553504Y-4226739D01*
X40773308Y-4285635D01*
X40935230Y-4299801D01*
X40999998Y-4305468D01*
X41000000Y-4305468D01*
X41000002Y-4305468D01*
X41056673Y-4300509D01*
X41226692Y-4285635D01*
X41446496Y-4226739D01*
X41652734Y-4130568D01*
X41839139Y-4000047D01*
X42000047Y-3839139D01*
X42130568Y-3652734D01*
X42226460Y-3447093D01*
X42272631Y-3394656D01*
X42338841Y-3375500D01*
X44161159Y-3375500D01*
X44228198Y-3395185D01*
X44273539Y-3447093D01*
X44360784Y-3634189D01*
X44369431Y-3652732D01*
X44369432Y-3652734D01*
X44499954Y-3839141D01*
X44660858Y-4000045D01*
X44660861Y-4000047D01*
X44847266Y-4130568D01*
X45053504Y-4226739D01*
X45273308Y-4285635D01*
X45435230Y-4299801D01*
X45499998Y-4305468D01*
X45500000Y-4305468D01*
X45500002Y-4305468D01*
X45556673Y-4300509D01*
X45726692Y-4285635D01*
X45946496Y-4226739D01*
X46152734Y-4130568D01*
X46339139Y-4000047D01*
X46500047Y-3839139D01*
X46630568Y-3652734D01*
X46726739Y-3446496D01*
X46785635Y-3226692D01*
X46805468Y-3000001D01*
X48694532Y-3000001D01*
X48714364Y-3226686D01*
X48714366Y-3226697D01*
X48773258Y-3446488D01*
X48773261Y-3446497D01*
X48869431Y-3652732D01*
X48869432Y-3652734D01*
X48999954Y-3839141D01*
X49160858Y-4000045D01*
X49160861Y-4000047D01*
X49347266Y-4130568D01*
X49553504Y-4226739D01*
X49773308Y-4285635D01*
X49935230Y-4299801D01*
X49999998Y-4305468D01*
X50000000Y-4305468D01*
X50000002Y-4305468D01*
X50056673Y-4300509D01*
X50226692Y-4285635D01*
X50446496Y-4226739D01*
X50652734Y-4130568D01*
X50839139Y-4000047D01*
X51000047Y-3839139D01*
X51130568Y-3652734D01*
X51226460Y-3447093D01*
X51272631Y-3394656D01*
X51338841Y-3375500D01*
X53161159Y-3375500D01*
X53228198Y-3395185D01*
X53273539Y-3447093D01*
X53360784Y-3634189D01*
X53369431Y-3652732D01*
X53369432Y-3652734D01*
X53499954Y-3839141D01*
X53660858Y-4000045D01*
X53660861Y-4000047D01*
X53847266Y-4130568D01*
X54053504Y-4226739D01*
X54273308Y-4285635D01*
X54435230Y-4299801D01*
X54499998Y-4305468D01*
X54500000Y-4305468D01*
X54500002Y-4305468D01*
X54556673Y-4300509D01*
X54726692Y-4285635D01*
X54946496Y-4226739D01*
X55152734Y-4130568D01*
X55339139Y-4000047D01*
X55500047Y-3839139D01*
X55630568Y-3652734D01*
X55726739Y-3446496D01*
X55785635Y-3226692D01*
X55805468Y-3000000D01*
X55785635Y-2773308D01*
X55726739Y-2553504D01*
X55630568Y-2347266D01*
X55500047Y-2160861D01*
X55500045Y-2160858D01*
X55339141Y-1999954D01*
X55152734Y-1869432D01*
X55152732Y-1869431D01*
X54946497Y-1773261D01*
X54946488Y-1773258D01*
X54726697Y-1714366D01*
X54726693Y-1714365D01*
X54726692Y-1714365D01*
X54726691Y-1714364D01*
X54726686Y-1714364D01*
X54500002Y-1694532D01*
X54499998Y-1694532D01*
X54273313Y-1714364D01*
X54273302Y-1714366D01*
X54053511Y-1773258D01*
X54053502Y-1773261D01*
X53847267Y-1869431D01*
X53847265Y-1869432D01*
X53660858Y-1999954D01*
X53499954Y-2160858D01*
X53369430Y-2347268D01*
X53343487Y-2402905D01*
X53297315Y-2455344D01*
X53231105Y-2474500D01*
X51268895Y-2474500D01*
X51201856Y-2454815D01*
X51156513Y-2402905D01*
X51130569Y-2347268D01*
X51000045Y-2160858D01*
X50839141Y-1999954D01*
X50652734Y-1869432D01*
X50652732Y-1869431D01*
X50446497Y-1773261D01*
X50446488Y-1773258D01*
X50226697Y-1714366D01*
X50226693Y-1714365D01*
X50226692Y-1714365D01*
X50226691Y-1714364D01*
X50226686Y-1714364D01*
X50000002Y-1694532D01*
X49999998Y-1694532D01*
X49773313Y-1714364D01*
X49773302Y-1714366D01*
X49553511Y-1773258D01*
X49553502Y-1773261D01*
X49347267Y-1869431D01*
X49347265Y-1869432D01*
X49160858Y-1999954D01*
X48999954Y-2160858D01*
X48869432Y-2347265D01*
X48869431Y-2347267D01*
X48773261Y-2553502D01*
X48773258Y-2553511D01*
X48714366Y-2773302D01*
X48714364Y-2773313D01*
X48694532Y-2999998D01*
X48694532Y-3000001D01*
X46805468Y-3000001D01*
X46805468Y-3000000D01*
X46785635Y-2773308D01*
X46726739Y-2553504D01*
X46630568Y-2347266D01*
X46500047Y-2160861D01*
X46500045Y-2160858D01*
X46339141Y-1999954D01*
X46152734Y-1869432D01*
X46152732Y-1869431D01*
X45946497Y-1773261D01*
X45946488Y-1773258D01*
X45726697Y-1714366D01*
X45726693Y-1714365D01*
X45726692Y-1714365D01*
X45726691Y-1714364D01*
X45726686Y-1714364D01*
X45500002Y-1694532D01*
X45499998Y-1694532D01*
X45273313Y-1714364D01*
X45273302Y-1714366D01*
X45053511Y-1773258D01*
X45053502Y-1773261D01*
X44847267Y-1869431D01*
X44847265Y-1869432D01*
X44660858Y-1999954D01*
X44499954Y-2160858D01*
X44369430Y-2347268D01*
X44343487Y-2402905D01*
X44297315Y-2455344D01*
X44231105Y-2474500D01*
X42268895Y-2474500D01*
X42201856Y-2454815D01*
X42156513Y-2402905D01*
X42130569Y-2347268D01*
X42000045Y-2160858D01*
X41839141Y-1999954D01*
X41652734Y-1869432D01*
X41652732Y-1869431D01*
X41446497Y-1773261D01*
X41446488Y-1773258D01*
X41226697Y-1714366D01*
X41226693Y-1714365D01*
X41226692Y-1714365D01*
X41226691Y-1714364D01*
X41226686Y-1714364D01*
X41000002Y-1694532D01*
X40999998Y-1694532D01*
X40773313Y-1714364D01*
X40773302Y-1714366D01*
X40553511Y-1773258D01*
X40553502Y-1773261D01*
X40347267Y-1869431D01*
X40347265Y-1869432D01*
X40160858Y-1999954D01*
X39999954Y-2160858D01*
X39869432Y-2347265D01*
X39869431Y-2347267D01*
X39773261Y-2553502D01*
X39773258Y-2553511D01*
X39714366Y-2773302D01*
X39714364Y-2773313D01*
X39694532Y-2999998D01*
X39694532Y-3000001D01*
X37805468Y-3000001D01*
X37805468Y-3000000D01*
X37785635Y-2773308D01*
X37726739Y-2553504D01*
X37630568Y-2347266D01*
X37500047Y-2160861D01*
X37500045Y-2160858D01*
X37339141Y-1999954D01*
X37152734Y-1869432D01*
X37152732Y-1869431D01*
X36946497Y-1773261D01*
X36946488Y-1773258D01*
X36726697Y-1714366D01*
X36726693Y-1714365D01*
X36726692Y-1714365D01*
X36726691Y-1714364D01*
X36726686Y-1714364D01*
X36500002Y-1694532D01*
X36499998Y-1694532D01*
X36273313Y-1714364D01*
X36273302Y-1714366D01*
X36053511Y-1773258D01*
X36053502Y-1773261D01*
X35847267Y-1869431D01*
X35847265Y-1869432D01*
X35660858Y-1999954D01*
X35499954Y-2160858D01*
X35369430Y-2347268D01*
X35343487Y-2402905D01*
X35297315Y-2455344D01*
X35231105Y-2474500D01*
X33268895Y-2474500D01*
X33201856Y-2454815D01*
X33156513Y-2402905D01*
X33130569Y-2347268D01*
X33000045Y-2160858D01*
X32839141Y-1999954D01*
X32652734Y-1869432D01*
X32652732Y-1869431D01*
X32446497Y-1773261D01*
X32446488Y-1773258D01*
X32226697Y-1714366D01*
X32226693Y-1714365D01*
X32226692Y-1714365D01*
X32226691Y-1714364D01*
X32226686Y-1714364D01*
X32000002Y-1694532D01*
X31999998Y-1694532D01*
X31773313Y-1714364D01*
X31773302Y-1714366D01*
X31553511Y-1773258D01*
X31553502Y-1773261D01*
X31347267Y-1869431D01*
X31347265Y-1869432D01*
X31160858Y-1999954D01*
X30999954Y-2160858D01*
X30869432Y-2347265D01*
X30869431Y-2347267D01*
X30773261Y-2553502D01*
X30773258Y-2553511D01*
X30714366Y-2773302D01*
X30714364Y-2773313D01*
X30694532Y-2999998D01*
X30694532Y-3000001D01*
X28805468Y-3000001D01*
X28805468Y-3000000D01*
X28785635Y-2773308D01*
X28726739Y-2553504D01*
X28630568Y-2347266D01*
X28500047Y-2160861D01*
X28500045Y-2160858D01*
X28339141Y-1999954D01*
X28152734Y-1869432D01*
X28152732Y-1869431D01*
X27946497Y-1773261D01*
X27946488Y-1773258D01*
X27726697Y-1714366D01*
X27726693Y-1714365D01*
X27726692Y-1714365D01*
X27726691Y-1714364D01*
X27726686Y-1714364D01*
X27500002Y-1694532D01*
X27499998Y-1694532D01*
X27273313Y-1714364D01*
X27273302Y-1714366D01*
X27053511Y-1773258D01*
X27053502Y-1773261D01*
X26847267Y-1869431D01*
X26847265Y-1869432D01*
X26660858Y-1999954D01*
X26499954Y-2160858D01*
X26369430Y-2347268D01*
X26343487Y-2402905D01*
X26297315Y-2455344D01*
X26231105Y-2474500D01*
X24268895Y-2474500D01*
X24201856Y-2454815D01*
X24156513Y-2402905D01*
X24130569Y-2347268D01*
X24000045Y-2160858D01*
X23839141Y-1999954D01*
X23652734Y-1869432D01*
X23652732Y-1869431D01*
X23446497Y-1773261D01*
X23446488Y-1773258D01*
X23226697Y-1714366D01*
X23226693Y-1714365D01*
X23226692Y-1714365D01*
X23226691Y-1714364D01*
X23226686Y-1714364D01*
X23000002Y-1694532D01*
X22999998Y-1694532D01*
X22773313Y-1714364D01*
X22773302Y-1714366D01*
X22553511Y-1773258D01*
X22553502Y-1773261D01*
X22347267Y-1869431D01*
X22347265Y-1869432D01*
X22160858Y-1999954D01*
X21999954Y-2160858D01*
X21869432Y-2347265D01*
X21869431Y-2347267D01*
X21773261Y-2553502D01*
X21773258Y-2553511D01*
X21714366Y-2773302D01*
X21714364Y-2773313D01*
X21694532Y-2999998D01*
X21694532Y-3000001D01*
X19805468Y-3000001D01*
X19805468Y-3000000D01*
X19785635Y-2773308D01*
X19726739Y-2553504D01*
X19630568Y-2347266D01*
X19500047Y-2160861D01*
X19500045Y-2160858D01*
X19339141Y-1999954D01*
X19152734Y-1869432D01*
X19152732Y-1869431D01*
X18946497Y-1773261D01*
X18946488Y-1773258D01*
X18726697Y-1714366D01*
X18726693Y-1714365D01*
X18726692Y-1714365D01*
X18726691Y-1714364D01*
X18726686Y-1714364D01*
X18500002Y-1694532D01*
X18499998Y-1694532D01*
X18273313Y-1714364D01*
X18273302Y-1714366D01*
X18053511Y-1773258D01*
X18053502Y-1773261D01*
X17847267Y-1869431D01*
X17847265Y-1869432D01*
X17660858Y-1999954D01*
X17499954Y-2160858D01*
X17369430Y-2347268D01*
X17343487Y-2402905D01*
X17297315Y-2455344D01*
X17231105Y-2474500D01*
X15268895Y-2474500D01*
X15201856Y-2454815D01*
X15156513Y-2402905D01*
X15130569Y-2347268D01*
X15000045Y-2160858D01*
X14839141Y-1999954D01*
X14652734Y-1869432D01*
X14652732Y-1869431D01*
X14446497Y-1773261D01*
X14446488Y-1773258D01*
X14226697Y-1714366D01*
X14226693Y-1714365D01*
X14226692Y-1714365D01*
X14226691Y-1714364D01*
X14226686Y-1714364D01*
X14000002Y-1694532D01*
X13999998Y-1694532D01*
X13773313Y-1714364D01*
X13773302Y-1714366D01*
X13553511Y-1773258D01*
X13553502Y-1773261D01*
X13347267Y-1869431D01*
X13347265Y-1869432D01*
X13160858Y-1999954D01*
X12999954Y-2160858D01*
X12869432Y-2347265D01*
X12869431Y-2347267D01*
X12773261Y-2553502D01*
X12773258Y-2553511D01*
X12714366Y-2773302D01*
X12714364Y-2773313D01*
X12694532Y-2999998D01*
X12694532Y-3000001D01*
X10805468Y-3000001D01*
X10805468Y-3000000D01*
X10785635Y-2773308D01*
X10726739Y-2553504D01*
X10630568Y-2347266D01*
X10500047Y-2160861D01*
X10500045Y-2160858D01*
X10339141Y-1999954D01*
X10152734Y-1869432D01*
X10152732Y-1869431D01*
X9946497Y-1773261D01*
X9946488Y-1773258D01*
X9726697Y-1714366D01*
X9726693Y-1714365D01*
X9726692Y-1714365D01*
X9726691Y-1714364D01*
X9726686Y-1714364D01*
X9500002Y-1694532D01*
X9499998Y-1694532D01*
X9273313Y-1714364D01*
X9273302Y-1714366D01*
X9053511Y-1773258D01*
X9053502Y-1773261D01*
X8847267Y-1869431D01*
X8847265Y-1869432D01*
X8660858Y-1999954D01*
X8499954Y-2160858D01*
X8369430Y-2347268D01*
X8343487Y-2402905D01*
X8297315Y-2455344D01*
X8231105Y-2474500D01*
X6268895Y-2474500D01*
X6201856Y-2454815D01*
X6156513Y-2402905D01*
X6130569Y-2347268D01*
X6000045Y-2160858D01*
X5839141Y-1999954D01*
X5652734Y-1869432D01*
X5652732Y-1869431D01*
X5446497Y-1773261D01*
X5446488Y-1773258D01*
X5226697Y-1714366D01*
X5226693Y-1714365D01*
X5226692Y-1714365D01*
X5226691Y-1714364D01*
X5226686Y-1714364D01*
X5000002Y-1694532D01*
X4999998Y-1694532D01*
X4773313Y-1714364D01*
X4773302Y-1714366D01*
X4553511Y-1773258D01*
X4553502Y-1773261D01*
X4347267Y-1869431D01*
X4347265Y-1869432D01*
X4160858Y-1999954D01*
X3999954Y-2160858D01*
X3869432Y-2347265D01*
X3869431Y-2347267D01*
X3773261Y-2553502D01*
X3773258Y-2553511D01*
X3714366Y-2773302D01*
X3714364Y-2773313D01*
X3694532Y-2999998D01*
X3694532Y-3000001D01*
X500500Y-3000001D01*
X500500Y-624500D01*
X520185Y-557461D01*
X572989Y-511706D01*
X624500Y-500500D01*
X59375500Y-500500D01*
X59442539Y-520185D01*
G37*
G04 #@! TD.AperFunction*
G04 #@! TA.AperFunction,Conductor*
G36*
X48218333Y-13512704D02*
G01*
X48262680Y-13541205D01*
X49409294Y-14687819D01*
X49442779Y-14749142D01*
X49437795Y-14818834D01*
X49395923Y-14874767D01*
X49330459Y-14899184D01*
X49321613Y-14899500D01*
X47755143Y-14899500D01*
X47755117Y-14899502D01*
X47730012Y-14902413D01*
X47730008Y-14902415D01*
X47627235Y-14947793D01*
X47547794Y-15027234D01*
X47502415Y-15130006D01*
X47502415Y-15130008D01*
X47499500Y-15155131D01*
X47499500Y-16144856D01*
X47499502Y-16144882D01*
X47502413Y-16169987D01*
X47502415Y-16169991D01*
X47547793Y-16272764D01*
X47547794Y-16272765D01*
X47627235Y-16352206D01*
X47730009Y-16397585D01*
X47755135Y-16400500D01*
X49344864Y-16400499D01*
X49366893Y-16397944D01*
X49435754Y-16409773D01*
X49487288Y-16456954D01*
X49505134Y-16524506D01*
X49487128Y-16585547D01*
X49472608Y-16609424D01*
X49465470Y-16619911D01*
X49459419Y-16627892D01*
X49440639Y-16652658D01*
X49440636Y-16652663D01*
X49434055Y-16669352D01*
X49424653Y-16688283D01*
X49415327Y-16703619D01*
X49404242Y-16743181D01*
X49400198Y-16755208D01*
X49385122Y-16793440D01*
X49383288Y-16811284D01*
X49379342Y-16832048D01*
X49374501Y-16849328D01*
X49374500Y-16849337D01*
X49374500Y-16890418D01*
X49373850Y-16903098D01*
X49369648Y-16943970D01*
X49369648Y-16943975D01*
X49372697Y-16961656D01*
X49374500Y-16982724D01*
X49374500Y-17733338D01*
X49354815Y-17800377D01*
X49349304Y-17808263D01*
X49315639Y-17852656D01*
X49260122Y-17993438D01*
X49255500Y-18031930D01*
X49249500Y-18081898D01*
X49249500Y-19118102D01*
X49254133Y-19156684D01*
X49260122Y-19206561D01*
X49308804Y-19330010D01*
X49315085Y-19399597D01*
X49282748Y-19461533D01*
X49222059Y-19496154D01*
X49193449Y-19499500D01*
X48505286Y-19499500D01*
X48438247Y-19479815D01*
X48392492Y-19427011D01*
X48382548Y-19357853D01*
X48406019Y-19301189D01*
X48468796Y-19217331D01*
X48519091Y-19082483D01*
X48525499Y-19022886D01*
X48525499Y-19022882D01*
X48525500Y-19022873D01*
X48525499Y-18948773D01*
X48533558Y-18904800D01*
X48561236Y-18831820D01*
X48561235Y-18831820D01*
X48561237Y-18831818D01*
X48580278Y-18675000D01*
X48561237Y-18518182D01*
X48533557Y-18445195D01*
X48525499Y-18401224D01*
X48525499Y-18377129D01*
X48525498Y-18377123D01*
X48522409Y-18348389D01*
X48519091Y-18317517D01*
X48511451Y-18297034D01*
X48468797Y-18182671D01*
X48468793Y-18182664D01*
X48382547Y-18067455D01*
X48382544Y-18067452D01*
X48267335Y-17981206D01*
X48267328Y-17981202D01*
X48132486Y-17930910D01*
X48132485Y-17930909D01*
X48132483Y-17930909D01*
X48072873Y-17924500D01*
X48072863Y-17924500D01*
X47577129Y-17924500D01*
X47577123Y-17924501D01*
X47517516Y-17930908D01*
X47382671Y-17981202D01*
X47382664Y-17981206D01*
X47267455Y-18067452D01*
X47267452Y-18067455D01*
X47181206Y-18182664D01*
X47181202Y-18182671D01*
X47130910Y-18317513D01*
X47130909Y-18317517D01*
X47124500Y-18377127D01*
X47124500Y-18377134D01*
X47124500Y-18377135D01*
X47124500Y-19022870D01*
X47124501Y-19022876D01*
X47130908Y-19082483D01*
X47181202Y-19217328D01*
X47181204Y-19217331D01*
X47243980Y-19301189D01*
X47268398Y-19366652D01*
X47253547Y-19434926D01*
X47204142Y-19484331D01*
X47144714Y-19499500D01*
X46855286Y-19499500D01*
X46788247Y-19479815D01*
X46742492Y-19427011D01*
X46732548Y-19357853D01*
X46756019Y-19301189D01*
X46818796Y-19217331D01*
X46869091Y-19082483D01*
X46875500Y-19022873D01*
X46875499Y-18377128D01*
X46869091Y-18317517D01*
X46861451Y-18297034D01*
X46818797Y-18182671D01*
X46818793Y-18182664D01*
X46732547Y-18067455D01*
X46732544Y-18067452D01*
X46617335Y-17981206D01*
X46617328Y-17981202D01*
X46482486Y-17930910D01*
X46482485Y-17930909D01*
X46482483Y-17930909D01*
X46422873Y-17924500D01*
X46422863Y-17924500D01*
X45927129Y-17924500D01*
X45927123Y-17924501D01*
X45867516Y-17930908D01*
X45732671Y-17981202D01*
X45732664Y-17981206D01*
X45697523Y-18007513D01*
X45632059Y-18031930D01*
X45563786Y-18017078D01*
X45514381Y-17967673D01*
X45499529Y-17899400D01*
X45507859Y-17862756D01*
X45532458Y-17800377D01*
X45539877Y-17781564D01*
X45550500Y-17693102D01*
X45550500Y-16306898D01*
X45539877Y-16218436D01*
X45484361Y-16077658D01*
X45484360Y-16077657D01*
X45484360Y-16077656D01*
X45392922Y-15957077D01*
X45272343Y-15865639D01*
X45156577Y-15819987D01*
X45131564Y-15810123D01*
X45131563Y-15810122D01*
X45131561Y-15810122D01*
X45085926Y-15804642D01*
X45043102Y-15799500D01*
X45043097Y-15799500D01*
X44878386Y-15799500D01*
X44811347Y-15779815D01*
X44765592Y-15727011D01*
X44755648Y-15657853D01*
X44784673Y-15594297D01*
X44790705Y-15587819D01*
X46216705Y-14161819D01*
X46278028Y-14128334D01*
X46304386Y-14125500D01*
X46491138Y-14125500D01*
X46491144Y-14125500D01*
X46575590Y-14115359D01*
X46709975Y-14062364D01*
X46791297Y-14000695D01*
X46856607Y-13975873D01*
X46866221Y-13975500D01*
X47413478Y-13975500D01*
X47417710Y-13975572D01*
X47419674Y-13975639D01*
X47481826Y-13977762D01*
X47521755Y-13968030D01*
X47534192Y-13965667D01*
X47574920Y-13960070D01*
X47591383Y-13952918D01*
X47611416Y-13946181D01*
X47628852Y-13941933D01*
X47664695Y-13921778D01*
X47676015Y-13916157D01*
X47713720Y-13899780D01*
X47727632Y-13888460D01*
X47745123Y-13876557D01*
X47760755Y-13867768D01*
X47760753Y-13867768D01*
X47760759Y-13867766D01*
X47789822Y-13838701D01*
X47799229Y-13830212D01*
X47831108Y-13804278D01*
X47841456Y-13789616D01*
X47855074Y-13773449D01*
X48087321Y-13541202D01*
X48148641Y-13507720D01*
X48218333Y-13512704D01*
G37*
G04 #@! TD.AperFunction*
G04 #@! TD*
M02*
